<?xml version="1.0" encoding="UTF-8"?><svg version="1.1" width="12px" height="15px" viewBox="0 0 12.0 15.0" xmlns="http://www.w3.org/2000/svg" xmlns:xlink="http://www.w3.org/1999/xlink"><defs><clipPath id="i0"><path d="M9.84478851,0 C10.6212376,0 11.2511869,0.629656265 11.2511869,1.40639836 L11.2511869,14.0610536 C11.2511869,14.7847628 10.4659478,15.2096123 9.84185852,14.8706117 L5.62559344,12.4114655 L1.40991436,14.8709046 C0.784946084,15.2353962 0,14.7847628 0,14.0610536 L0,1.40639836 C0,0.629656265 0.629656265,0 1.40639836,0 Z M9.64261875,1.40639836 L1.55582818,1.40639836 C1.48345727,1.40639836 1.40639836,1.48345727 1.40639836,1.58219815 L1.40639836,13.2435845 L5.62559344,10.7823874 L9.84478851,13.2435845 L9.84478851,1.58219815 C9.84478851,1.48345727 9.7686086,1.40639836 9.64261875,1.40639836 Z"></path></clipPath></defs><g clip-path="url(#i0)"><polygon points="0,0 11.2511869,0 11.2511869,15 0,15 0,0" stroke="none" fill="#000000"></polygon></g></svg>