<svg xmlns="http://www.w3.org/2000/svg" xml:space="preserve" id="Layer_1" x="0" y="0" style="enable-background:new 0 0 267 70" version="1.1" viewBox="0 0 267 70">
  <style>
    .st0{fill:#fff}
  </style>
  <path d="M30.8 23.7h.1v-.1h-.1zm5.5-4.6c-1.1-.2-2.2-.3-3.2-.3-.5 0-1 .1-1.4.1l-.2-6.4v-1.1c.4-.2 1-.3 1.7-.3.9 0 1.9.1 3 .3.9.1 1.9.3 2.9.3l.3 7.6c-1.1.1-2.1 0-3.1-.2zm-10.9 0c-1 .2-2 .3-3.1.4l.3-7.6c1-.1 2-.2 2.9-.3 1.1-.2 2.1-.3 3-.3.7 0 1.2.1 1.7.3v1.1l-.2 6.2c-.4-.1-.9-.1-1.4-.1-.9 0-2 .1-3.2.3zm16.2-4.5v-1.4h-.9v-2.5h-.6c-1.3 0-2.5-.2-3.8-.4-1.1-.2-2.2-.3-3.2-.3-.9 0-1.7.1-2.3.4-.6-.3-1.4-.4-2.3-.4-1 0-2 .2-3.2.3-1.2.2-2.5.4-3.8.4H21v2.5h-.9v1.4h.9v2h-.9V18h.9v2.7h.6c1.4 0 2.7-.2 4-.4 1.1-.2 2.1-.3 3-.3.7 0 1.2.1 1.7.3h1.2c.4-.2.9-.3 1.7-.3.9 0 1.9.2 3 .3 1.3.2 2.6.4 4 .4h.6V18h.9v-1.4h-.9v-2h.8z" class="st0"/>
  <path d="M25.6 12.6h-.2c-.6.1-1.1.2-1.7.2v1c.6-.1 1.3-.2 1.9-.3v-.9zm.7-.1v1c1-.1 2-.2 2.8-.2v-1c-.8 0-1.8.1-2.8.2zm-.7 4.5h-.2c-.6.1-1.2.2-1.9.3v1l2.1-.3v-1zm.7-.1v1c1-.1 1.8-.2 2.6-.2v-1c-.7 0-1.6.1-2.6.2zm-.8-2v1h.1c1.3-.2 2.5-.4 3.5-.3v-1c-1.1-.1-2.4.1-3.6.3zm-.8.1c-.4.1-.7.1-1.1.1v1c.4 0 .8-.1 1.1-.1v-1zM35 12.5c-.8-.1-1.6-.2-2.4-.1v1c.7-.1 1.5 0 2.3.1v-1h.1zm3 .4c-.6-.1-1.2-.2-1.7-.2-.2 0-.4-.1-.6-.1v1c.2 0 .3 0 .5.1.6.1 1.3.2 1.9.3l-.1-1.1zm-3.2 1.8c-.7-.1-1.4-.1-2.1-.1v1c.6 0 1.3 0 2.1.1v-1zm3.3.4c-.6-.1-1.2-.2-1.8-.2-.3 0-.5-.1-.8-.1v1c.2 0 .4.1.7.1.6.1 1.3.2 2 .3l-.1-1.1zM36.2 18c.7.1 1.3.2 2 .3v-1c-.6-.1-1.3-.2-1.9-.3h-.1v1zm-.7-1.1c-1-.1-1.9-.2-2.7-.2v1c.8 0 1.7.1 2.7.2v-1zm-5.9 15.6 1.3-3.1 1.3 3.1 3.4.2-2.6 2.2.8 3.3-2.9-1.8-2.9 1.8.8-3.3-2.6-2.2 3.4-.2zM22 31.4l5.4 4-2.1 6.5 5.5-4 5.5 4v-.1l-2.1-6.4 5.4-4v-.1H33l-2.1-6.4-2.1 6.4-6.8.1c0-.1-.1-.1 0 0-.1 0-.1 0 0 0z" class="st0"/>
  <path d="M44.4 39.5c-.5.5-1.1.9-1.8 1.1.1-.7.4-1.4.9-1.9s1.1-.9 1.8-1.1c-.1.7-.4 1.3-.9 1.9zm-2.7-4.3c-.1-.7 0-1.5.4-2.1.5.5.8 1.2.9 1.9.1.7 0 1.5-.4 2.1-.4-.5-.8-1.1-.9-1.9zm1.5-5.5c-.1-.7-.1-1.5.2-2.1.5.5.9 1.2 1 1.9.1.7.1 1.5-.2 2.1-.5-.5-.9-1.2-1-1.9zm3.5 1.6c.1.7-.1 1.4-.5 2.1-.4.6-.9 1.1-1.6 1.4-.1-.7.1-1.4.5-2.1.4-.6.9-1 1.6-1.4zM41.3 45c-.6.4-1.3.7-2 .7.2-.7.7-1.3 1.3-1.7s1.3-.7 2-.7c-.2.7-.7 1.3-1.3 1.7zm-1.7-4.7c.1-.7.3-1.4.8-2 .4.6.5 1.4.5 2.1-.1.7-.3 1.4-.8 2-.3-.6-.5-1.3-.5-2.1zm-1.9 4.9c-.2.7-.6 1.3-1.2 1.8-.2-.7-.2-1.4 0-2.1.2-.7.6-1.3 1.2-1.8.2.7.3 1.4 0 2.1zm1.1 3.2c-.4.6-.9 1.1-1.6 1.4-.5.2-1 .3-1.5.3-.2 0-.4 0-.6-.1.4-.6.9-1.1 1.6-1.4.7-.2 1.4-.3 2.1-.2zm-6.2.3c.4-.6.9-1.2 1.5-1.5.1.7-.1 1.4-.4 2.1-.3.6-.9 1.2-1.5 1.5-.1-.7 0-1.4.4-2.1zm-8.2 1.1c-.7-.3-1.2-.8-1.6-1.4.7-.1 1.4 0 2.1.3s1.2.8 1.6 1.4c-.7.1-1.4 0-2.1-.3zm-.5-4.6c-.2-.7-.2-1.4 0-2.1.6.5 1 1.1 1.2 1.8s.2 1.4 0 2.1c-.6-.4-1-1.1-1.2-1.8zm3.7 2c.6.3 1.2.9 1.5 1.5s.5 1.4.4 2.1c-.6-.3-1.2-.9-1.5-1.5-.4-.6-.5-1.4-.4-2.1zM20.3 45c-.6-.4-1-1-1.3-1.7.7 0 1.4.3 2 .7s1 1 1.3 1.7c-.7 0-1.4-.2-2-.7zm.9-6.6c.5.6.7 1.3.8 2 .1.7-.1 1.5-.5 2.1-.5-.6-.7-1.3-.8-2 0-.8.2-1.5.5-2.1zm-3.9 1.1c-.5-.5-.8-1.2-.9-1.9.7.2 1.3.5 1.8 1.1.5.5.8 1.2.9 1.9-.7-.2-1.3-.6-1.8-1.1zm-.3-4.6c-.7-.3-1.2-.8-1.6-1.4-.4-.6-.5-1.4-.5-2.1.7.3 1.2.8 1.6 1.4.4.6.6 1.3.5 2.1zm.2-5.4c.1-.7.5-1.4 1-1.9.3.7.4 1.4.2 2.1-.1.7-.5 1.4-1 1.9-.2-.7-.3-1.4-.2-2.1zm1.5 5.6c.1-.7.4-1.4.9-1.9.3.6.5 1.4.4 2.1-.1.7-.4 1.4-.9 1.9-.4-.7-.5-1.4-.4-2.1zm25.7.9c1.1-.3 2.1-1.1 2.6-2.1.6-1 .8-2.2.5-3.3l-.1-.5-.5.1c-.6.2-1.1.4-1.5.8.1-.6.1-1.1 0-1.7-.2-1.1-.9-2.2-1.8-2.8l-.4-.3-.3.4c-.6 1-.8 2.2-.6 3.3.2 1.1.9 2.1 1.8 2.8-.2.4-.3.8-.3 1.2-.3-.8-.8-1.4-1.4-2l-.4-.3-.3.4c-.7.9-1 2.1-.8 3.3s.7 2.2 1.6 3c-.3.4-.5.8-.6 1.2-.1-.8-.4-1.6-1-2.2l-.3-.4-.4.4c-.9.8-1.4 1.9-1.5 3-.1 1.2.3 2.3 1 3.2-.3.3-.6.6-.9 1 .1-.8-.1-1.6-.5-2.4l-.2-.5-.4.4c-1 .6-1.7 1.5-2.1 2.7-.3 1.1-.2 2.3.3 3.4-.4.2-.7.5-1 .8.2-.8.2-1.6 0-2.4l-.1-.5-.5.2c-1.1.4-2 1.1-2.6 2.2-.5 1-.7 2.1-.4 3.2-.1.1-.3.2-.5.3-.2-.1-.3-.2-.5-.3.3-1.1.1-2.2-.4-3.2-.6-1-1.5-1.8-2.6-2.2l-.5-.2-.1.5c-.2.8-.2 1.6 0 2.4-.3-.3-.7-.6-1-.8.5-1 .6-2.2.3-3.4s-1-2.1-2-2.7l-.4-.3-.2.5c-.4.7-.5 1.6-.5 2.4-.2-.4-.5-.7-.9-1 .7-.9 1.1-2.1 1-3.2-.1-1.2-.6-2.2-1.5-3l-.4-.4-.3.4c-.5.6-.8 1.4-1 2.2-.1-.4-.4-.8-.6-1.2.9-.7 1.5-1.8 1.6-3s-.1-2.3-.8-3.3l-.3-.4-.4.3c-.6.5-1.1 1.2-1.4 2-.1-.4-.2-.8-.4-1.2.9-.7 1.6-1.7 1.8-2.8.2-1.2 0-2.3-.6-3.3l-.3-.4-.4.3c-.9.7-1.6 1.7-1.8 2.8-.1.6-.1 1.1 0 1.7-.5-.4-1-.6-1.5-.8l-.5-.1-.1.5c-.3 1.1-.1 2.3.5 3.3s1.5 1.7 2.7 2.1l.4.1c0 .4.1.7.3 1.1-.6-.4-1.3-.6-2.1-.7h-.5v.5c0 1.2.4 2.3 1.2 3.2.8.9 1.9 1.4 3 1.5h.5c.1.4.3.7.5 1-.5-.2-1-.3-1.6-.3h-.6l-.5.1.1.5c.2 1.2.9 2.2 1.8 2.8.8.6 1.7.9 2.7.9h.6l.5-.1c.2.3.4.6.7.9-.7-.1-1.5 0-2.2.2l-.5.2.2.5c.5 1.1 1.3 1.9 2.4 2.4.6.3 1.2.4 1.9.4.5 0 1-.1 1.5-.3l.4-.1c.6.5 1.3 1 2.2 1.7-.4.3-.9.6-1.4.9l.9.6c.5-.3 1-.6 1.4-.9.4.3.9.6 1.4.9l.9-.6c-.5-.3-1-.6-1.4-.9.9-.6 1.6-1.1 2.2-1.7l.4.1c.5.2 1 .3 1.5.3.6 0 1.3-.1 1.9-.4 1.1-.5 1.9-1.3 2.4-2.4l.2-.5-.5-.2c-.7-.2-1.5-.3-2.2-.2.3-.3.5-.6.7-.9l.5.1h.6c1 0 1.9-.3 2.7-.9.9-.7 1.6-1.7 1.8-2.8l.1-.5-.5-.1h-.6c-.6 0-1.1.1-1.6.3.2-.3.4-.6.5-1h.5c1.2-.1 2.2-.6 3-1.5s1.2-2 1.2-3.2v-.5h-.5c-.7.1-1.5.3-2.1.7.1-.3.2-.7.3-1.1l-.1-.2z" class="st0"/>
  <path d="M44.5 46.2c-1 1.4-2.1 2.8-3.5 4.1-4.2 3.8-8.9 6-10.2 6.5-1.3-.6-6-2.7-10.2-6.5-1.4-1.3-2.5-2.6-3.5-4.1-4.7-6.9-5.4-15-5.4-21.3l19-1.1 19 1.1c.2 6.3-.5 14.3-5.2 21.3zM12.9 8.7c3.5-.4 11.5-1.2 18-1.2s14.5.8 18 1.2l1 13.9h-38l1-13.9zm38.9-1.6L51 7c-.1 0-11.3-1.4-20.1-1.4-8.7 0-20 1.4-20.1 1.4l-.9.1v17.7c0 6.5.6 15 5.7 22.4 1 1.5 2.2 2.9 3.6 4.3 2.7 2.6 6.4 5.1 11.6 8 5.2-2.9 8.8-5.4 11.6-8 1.4-1.4 2.6-2.8 3.6-4.3 5.1-7.4 5.7-15.9 5.7-22.4v-.3l.1-17.4zm11.4 1.7v11h2.4l2.8-7.9 9.3-.1v37.6l-7.4.8.3 2.2 10.4-.2 10.1.2.3-2.2-7.1-.8V11.8l9.3.1 2.8 7.9h2.4v-11L81 9zm68.2 40.5-17.1.1V30.8l8.7.3 2.5 6.5h2.2l-.7-8.4.7-7.7h-2.2L123 28l-8.7.2V11.7l16.5.2 3.4 8.1h2.1l-.6-11.2-24.6.2-8.6-.2-.3 2.2 5.6.8v37.6l-5.6.8.3 2.2 8.6-.2 24.6.2 2.2-11.5h-2.4zm72-41-3.7 1.1-15.4 40.2-3 .4-3-.5-13.8-20.3 12.7-17.5 4.8-.7-.3-2.2-7.2.2-7.3-.2-.2 2.2 5.4.8-9.8 14.5-8.8-14.5 5.3-.8-.3-2.2-8.9.2-8.9-.2-.3 2.2 4.8.7L158.4 31 145 49.4l-4.8.7.3 2.2 6.9-.2 7.3.2.3-2.2-5.1-.7 10.6-15.5 9.6 15.4-5.3.8.3 2.2 8.9-.2 7.2.2 5.1-.2 7.4.2.3-2.2-5.4-.8 4-11.6h15.3l4.2 11.6-5.3.8.3 2.2 8.2-.2 8.6.2.3-2.2-4.8-.7-16-41.1zm-9.6 26.6 6.4-18.6 6.8 18.6h-13.2zm51.6-6.9-7.1-3.1c-3.4-1.5-5.8-3.6-5.8-7 0-4.2 2.9-6.8 7.8-6.8 3.7 0 5.7 1.4 7.3 3l1.8 5.6h3.1v-8.4c-3.1-2.3-7.4-3.6-11.3-3.6-8.6 1.8-14.8 5.8-14.8 12.5 0 5.5 3.7 8.4 8.1 10.3l7.5 3.3c3.7 1.6 6.4 4 6.4 8.2 0 4.5-3.1 7.9-8.4 7.9-3.5 0-6.9-1.6-8.7-3.9l-2.2-5.3h-4.3l1.4 8.4c3.3 2.6 7.1 4.2 12.8 4.2 11.7-2.4 15.6-8.1 15.6-13.9 0-6.2-4.3-9.3-9.2-11.4z" class="st0"/>
</svg>