<svg xmlns="http://www.w3.org/2000/svg" xml:space="preserve" style="enable-background:new 0 0 201 70" viewBox="0 0 201 70"><path d="m45.5 8.8 6.9.2 5.8-.2.3 2.2-5.3.8v37.6l5 .8-.3 2.2-7.4-.2-9 .2-.3-2.2 5.6-.8V21.1l.8-7.3-15.8 38.5H28L15.5 21l-2.3-7.2v35.6l5.5.8-.5 2.2-6.6-.2-7 .2-.3-2.2 5-.8V11.9L3.9 11l.3-2.2 6.4.2 6.8-.2 13 32.8.5 3.5L45.5 8.8zm44.6 28.3c0 9.2-5.6 14.6-15.3 16.1-8.2 0-13.8-6.4-13.8-14.8 0-9.3 5.6-14.6 15.3-16.2 8.2 0 13.8 6.5 13.8 14.9zM76.4 50.2c5 0 7.5-5.1 7.5-11.8 0-7.9-3.8-13.1-9.2-13.1-5 0-7.5 5.1-7.5 11.8 0 7.1 3.6 13.1 9.2 13.1zm46.8-13.1c0 9.2-5.6 14.6-15.3 16.1-8.2 0-13.8-6.4-13.8-14.8 0-9.3 5.6-14.6 15.3-16.2 8.2 0 13.8 6.5 13.8 14.9zm-13.7 13.1c5 0 7.5-5.1 7.5-11.8 0-7.9-3.8-13.1-9.2-13.1-5 0-7.5 5.1-7.5 11.8 0 7.1 3.7 13.1 9.2 13.1zm44-6c0 2.5.4 3.6 1.1 4.5h3.5l.2 2.3-8.3 1.5-1.9-4.8-8 5.4c-7.9 0-12.9-5.9-12.9-14.4 0-10 6.1-15.3 15.2-16.6 1.2 0 3.8 1 5.3 1.7V12.2l-4.3.1-.3-2.1 7.4-1.9 3.1-.2v36.1h-.1zm-7.7 1.5 1.9-1.5V27.8c-1.4-1.5-3.5-2.5-6.1-2.5-5 0-8.1 4.5-8.1 11.8 0 6.9 2.7 11.1 6.4 11.1 1.6.1 3.7-.7 5.9-2.5zm17.8 21.2v-6.2h5.3l6.1-9.4-2.5.7-10.1-26.2-3.8-.6.3-2.2 7.1.2 6.5-.2.3 2.2-4.1.6 6.6 18.2.5 4.3 7.4-22.4-2.9-.6.3-2.2 5.5.2 5.1-.2.3 2.2-4 .6-9.7 25.4-6.8 15.6h-7.4z" style="fill:#fff"/></svg>