<?xml version="1.0" encoding="utf-8"?>
<!-- Generator: Adobe Illustrator 22.1.0, SVG Export Plug-In . SVG Version: 6.00 Build 0)  -->
<svg version="1.1" id="Layer_1" xmlns="http://www.w3.org/2000/svg" xmlns:xlink="http://www.w3.org/1999/xlink" x="0px" y="0px"
	 viewBox="0 0 267 70" style="enable-background:new 0 0 267 70;" xml:space="preserve">
<style type="text/css">
	.st0{fill:#FFFFFF;}
</style>
<g>
	<g>
		<g>
			<polygon class="st0" points="30.8,23.7 30.9,23.7 30.9,23.6 30.8,23.6 			"/>
			<path class="st0" d="M36.3,19.1c-1.1-0.2-2.2-0.3-3.2-0.3c-0.5,0-1,0.1-1.4,0.1l-0.2-6.4v-1.1c0.4-0.2,1-0.3,1.7-0.3
				c0.9,0,1.9,0.1,3,0.3c0.9,0.1,1.9,0.3,2.9,0.3l0.3,7.6C38.3,19.4,37.3,19.3,36.3,19.1L36.3,19.1z M25.4,19.1
				c-1,0.2-2,0.3-3.1,0.4l0.3-7.6c1-0.1,2-0.2,2.9-0.3c1.1-0.2,2.1-0.3,3-0.3c0.7,0,1.2,0.1,1.7,0.3v1.1L30,18.9
				c-0.4-0.1-0.9-0.1-1.4-0.1C27.7,18.8,26.6,18.9,25.4,19.1L25.4,19.1z M41.6,14.6v-1.4h-0.9v-2.5h-0.6c-1.3,0-2.5-0.2-3.8-0.4
				c-1.1-0.2-2.2-0.3-3.2-0.3c-0.9,0-1.7,0.1-2.3,0.4c-0.6-0.3-1.4-0.4-2.3-0.4c-1,0-2,0.2-3.2,0.3c-1.2,0.2-2.5,0.4-3.8,0.4H21v2.5
				h-0.9v1.4H21v2h-0.9V18H21v2.7h0.6c1.4,0,2.7-0.2,4-0.4c1.1-0.2,2.1-0.3,3-0.3c0.7,0,1.2,0.1,1.7,0.3l0,0h1.2l0,0
				c0.4-0.2,0.9-0.3,1.7-0.3c0.9,0,1.9,0.2,3,0.3c1.3,0.2,2.6,0.4,4,0.4h0.6V18h0.9v-1.4h-0.9v-2H41.6L41.6,14.6z"/>
			<path class="st0" d="M25.6,12.6c-0.1,0-0.1,0-0.2,0c-0.6,0.1-1.1,0.2-1.7,0.2v1c0.6-0.1,1.3-0.2,1.9-0.3l0,0L25.6,12.6L25.6,12.6
				z"/>
			<path class="st0" d="M26.3,12.5v1c1-0.1,2-0.2,2.8-0.2v-1C28.3,12.3,27.3,12.4,26.3,12.5L26.3,12.5z"/>
			<path class="st0" d="M25.6,17c-0.1,0-0.1,0-0.2,0c-0.6,0.1-1.2,0.2-1.9,0.3v1c0.7-0.1,1.4-0.2,2.1-0.3l0,0V17L25.6,17z"/>
			<path class="st0" d="M26.3,16.9v1c1-0.1,1.8-0.2,2.6-0.2v-1C28.2,16.7,27.3,16.8,26.3,16.9L26.3,16.9z"/>
			<path class="st0" d="M25.5,14.9v1h0.1c1.3-0.2,2.5-0.4,3.5-0.3v-1C28,14.5,26.7,14.7,25.5,14.9L25.5,14.9z"/>
			<path class="st0" d="M24.7,15c-0.4,0.1-0.7,0.1-1.1,0.1v1c0.4,0,0.8-0.1,1.1-0.1V15L24.7,15z"/>
			<path class="st0" d="M35,12.5c-0.8-0.1-1.6-0.2-2.4-0.1v1c0.7-0.1,1.5,0,2.3,0.1v-1H35z"/>
			<path class="st0" d="M38,12.9c-0.6-0.1-1.2-0.2-1.7-0.2c-0.2,0-0.4-0.1-0.6-0.1v1c0.2,0,0.3,0,0.5,0.1c0.6,0.1,1.3,0.2,1.9,0.3
				L38,12.9L38,12.9z"/>
			<path class="st0" d="M34.8,14.7c-0.7-0.1-1.4-0.1-2.1-0.1v1c0.6,0,1.3,0,2.1,0.1V14.7L34.8,14.7z"/>
			<path class="st0" d="M38.1,15.1c-0.6-0.1-1.2-0.2-1.8-0.2c-0.3,0-0.5-0.1-0.8-0.1v1c0.2,0,0.4,0.1,0.7,0.1c0.6,0.1,1.3,0.2,2,0.3
				L38.1,15.1L38.1,15.1z"/>
			<path class="st0" d="M36.2,18c0.7,0.1,1.3,0.2,2,0.3v-1c-0.6-0.1-1.3-0.2-1.9-0.3h-0.1V18L36.2,18z"/>
			<path class="st0" d="M35.5,16.9c-1-0.1-1.9-0.2-2.7-0.2v1c0.8,0,1.7,0.1,2.7,0.2V16.9L35.5,16.9z"/>
			<path class="st0" d="M29.6,32.5l1.3-3.1l1.3,3.1l3.4,0.2L33,34.9l0.8,3.3l-2.9-1.8L28,38.2l0.8-3.3l-2.6-2.2L29.6,32.5L29.6,32.5
				z M22,31.4L22,31.4l5.4,4l-2.1,6.5l0,0l0,0l5.5-4l5.5,4l0,0c0,0,0,0,0-0.1l-2.1-6.4l5.4-4l0,0c0,0,0,0,0-0.1c0,0,0,0-0.1,0l0,0
				H33l-2.1-6.4l0,0l0,0l0,0l0,0l-2.1,6.4L22,31.4L22,31.4C22,31.3,21.9,31.3,22,31.4C21.9,31.4,21.9,31.4,22,31.4L22,31.4z"/>
			<path class="st0" d="M44.4,39.5c-0.5,0.5-1.1,0.9-1.8,1.1c0.1-0.7,0.4-1.4,0.9-1.9s1.1-0.9,1.8-1.1
				C45.2,38.3,44.9,38.9,44.4,39.5L44.4,39.5z M41.7,35.2c-0.1-0.7,0-1.5,0.4-2.1c0.5,0.5,0.8,1.2,0.9,1.9c0.1,0.7,0,1.5-0.4,2.1
				C42.2,36.6,41.8,36,41.7,35.2L41.7,35.2z M43.2,29.7c-0.1-0.7-0.1-1.5,0.2-2.1c0.5,0.5,0.9,1.2,1,1.9c0.1,0.7,0.1,1.5-0.2,2.1
				C43.7,31.1,43.3,30.4,43.2,29.7L43.2,29.7z M46.7,31.3c0.1,0.7-0.1,1.4-0.5,2.1c-0.4,0.6-0.9,1.1-1.6,1.4
				c-0.1-0.7,0.1-1.4,0.5-2.1C45.5,32.1,46,31.7,46.7,31.3L46.7,31.3z M41.3,45c-0.6,0.4-1.3,0.7-2,0.7c0.2-0.7,0.7-1.3,1.3-1.7
				s1.3-0.7,2-0.7C42.4,44,41.9,44.6,41.3,45L41.3,45z M39.6,40.3c0.1-0.7,0.3-1.4,0.8-2c0.4,0.6,0.5,1.4,0.5,2.1
				c-0.1,0.7-0.3,1.4-0.8,2C39.8,41.8,39.6,41.1,39.6,40.3L39.6,40.3z M37.7,45.2c-0.2,0.7-0.6,1.3-1.2,1.8c-0.2-0.7-0.2-1.4,0-2.1
				c0.2-0.7,0.6-1.3,1.2-1.8C37.9,43.8,38,44.5,37.7,45.2L37.7,45.2z M38.8,48.4c-0.4,0.6-0.9,1.1-1.6,1.4c-0.5,0.2-1,0.3-1.5,0.3
				l0,0c-0.2,0-0.4,0-0.6-0.1c0.4-0.6,0.9-1.1,1.6-1.4C37.4,48.4,38.1,48.3,38.8,48.4L38.8,48.4z M32.6,48.7
				c0.4-0.6,0.9-1.2,1.5-1.5c0.1,0.7-0.1,1.4-0.4,2.1c-0.3,0.6-0.9,1.2-1.5,1.5C32.1,50.1,32.2,49.4,32.6,48.7L32.6,48.7z
				 M24.4,49.8c-0.7-0.3-1.2-0.8-1.6-1.4c0.7-0.1,1.4,0,2.1,0.3s1.2,0.8,1.6,1.4C25.8,50.2,25.1,50.1,24.4,49.8L24.4,49.8z
				 M23.9,45.2c-0.2-0.7-0.2-1.4,0-2.1c0.6,0.5,1,1.1,1.2,1.8s0.2,1.4,0,2.1C24.5,46.6,24.1,45.9,23.9,45.2L23.9,45.2z M27.6,47.2
				c0.6,0.3,1.2,0.9,1.5,1.5s0.5,1.4,0.4,2.1c-0.6-0.3-1.2-0.9-1.5-1.5C27.6,48.7,27.5,47.9,27.6,47.2L27.6,47.2z M20.3,45
				c-0.6-0.4-1-1-1.3-1.7c0.7,0,1.4,0.3,2,0.7s1,1,1.3,1.7C21.6,45.7,20.9,45.5,20.3,45L20.3,45z M21.2,38.4c0.5,0.6,0.7,1.3,0.8,2
				c0.1,0.7-0.1,1.5-0.5,2.1c-0.5-0.6-0.7-1.3-0.8-2C20.7,39.7,20.9,39,21.2,38.4L21.2,38.4z M17.3,39.5c-0.5-0.5-0.8-1.2-0.9-1.9
				c0.7,0.2,1.3,0.5,1.8,1.1c0.5,0.5,0.8,1.2,0.9,1.9C18.4,40.4,17.8,40,17.3,39.5L17.3,39.5z M17,34.9c-0.7-0.3-1.2-0.8-1.6-1.4
				c-0.4-0.6-0.5-1.4-0.5-2.1c0.7,0.3,1.2,0.8,1.6,1.4C16.9,33.4,17.1,34.1,17,34.9L17,34.9z M17.2,29.5c0.1-0.7,0.5-1.4,1-1.9
				c0.3,0.7,0.4,1.4,0.2,2.1c-0.1,0.7-0.5,1.4-1,1.9C17.2,30.9,17.1,30.2,17.2,29.5L17.2,29.5z M18.7,35.1c0.1-0.7,0.4-1.4,0.9-1.9
				c0.3,0.6,0.5,1.4,0.4,2.1c-0.1,0.7-0.4,1.4-0.9,1.9C18.7,36.5,18.6,35.8,18.7,35.1L18.7,35.1z M44.4,36c1.1-0.3,2.1-1.1,2.6-2.1
				c0.6-1,0.8-2.2,0.5-3.3l-0.1-0.5l-0.5,0.1c-0.6,0.2-1.1,0.4-1.5,0.8c0.1-0.6,0.1-1.1,0-1.7c-0.2-1.1-0.9-2.2-1.8-2.8l-0.4-0.3
				l-0.3,0.4c-0.6,1-0.8,2.2-0.6,3.3c0.2,1.1,0.9,2.1,1.8,2.8c-0.2,0.4-0.3,0.8-0.3,1.2c-0.3-0.8-0.8-1.4-1.4-2L42,31.6L41.7,32
				c-0.7,0.9-1,2.1-0.8,3.3s0.7,2.2,1.6,3l0,0c-0.3,0.4-0.5,0.8-0.6,1.2c-0.1-0.8-0.4-1.6-1-2.2l-0.3-0.4l-0.4,0.4
				c-0.9,0.8-1.4,1.9-1.5,3c-0.1,1.2,0.3,2.3,1,3.2l0,0c-0.3,0.3-0.6,0.6-0.9,1c0.1-0.8-0.1-1.6-0.5-2.4l-0.2-0.5L37.7,42
				c-1,0.6-1.7,1.5-2.1,2.7c-0.3,1.1-0.2,2.3,0.3,3.4l0,0c-0.4,0.2-0.7,0.5-1,0.8c0.2-0.8,0.2-1.6,0-2.4L34.8,46l-0.5,0.2
				c-1.1,0.4-2,1.1-2.6,2.2c-0.5,1-0.7,2.1-0.4,3.2c-0.1,0.1-0.3,0.2-0.5,0.3c-0.2-0.1-0.3-0.2-0.5-0.3c0.3-1.1,0.1-2.2-0.4-3.2
				c-0.6-1-1.5-1.8-2.6-2.2L26.8,46l-0.1,0.5c-0.2,0.8-0.2,1.6,0,2.4c-0.3-0.3-0.7-0.6-1-0.8l0,0c0.5-1,0.6-2.2,0.3-3.4
				s-1-2.1-2-2.7l-0.4-0.3l-0.2,0.5c-0.4,0.7-0.5,1.6-0.5,2.4c-0.2-0.4-0.5-0.7-0.9-1l0,0c0.7-0.9,1.1-2.1,1-3.2
				c-0.1-1.2-0.6-2.2-1.5-3L21.1,37l-0.3,0.4c-0.5,0.6-0.8,1.4-1,2.2c-0.1-0.4-0.4-0.8-0.6-1.2l0,0c0.9-0.7,1.5-1.8,1.6-3
				s-0.1-2.3-0.8-3.3l-0.3-0.4L19.3,32c-0.6,0.5-1.1,1.2-1.4,2c-0.1-0.4-0.2-0.8-0.4-1.2c0.9-0.7,1.6-1.7,1.8-2.8
				c0.2-1.2,0-2.3-0.6-3.3l-0.3-0.4L18,26.6c-0.9,0.7-1.6,1.7-1.8,2.8c-0.1,0.6-0.1,1.1,0,1.7c-0.5-0.4-1-0.6-1.5-0.8l-0.5-0.1
				l-0.1,0.5C13.8,31.8,14,33,14.6,34s1.5,1.7,2.7,2.1l0.4,0.1c0,0.4,0.1,0.7,0.3,1.1c-0.6-0.4-1.3-0.6-2.1-0.7h-0.5v0.5
				c0,1.2,0.4,2.3,1.2,3.2c0.8,0.9,1.9,1.4,3,1.5h0.5c0.1,0.4,0.3,0.7,0.5,1c-0.5-0.2-1-0.3-1.6-0.3c-0.2,0-0.4,0-0.6,0l-0.5,0.1
				l0.1,0.5c0.2,1.2,0.9,2.2,1.8,2.8c0.8,0.6,1.7,0.9,2.7,0.9c0.2,0,0.4,0,0.6,0l0.5-0.1c0.2,0.3,0.4,0.6,0.7,0.9
				c-0.7-0.1-1.5,0-2.2,0.2L21.6,48l0.2,0.5c0.5,1.1,1.3,1.9,2.4,2.4c0.6,0.3,1.2,0.4,1.9,0.4c0.5,0,1-0.1,1.5-0.3l0.4-0.1
				c0.6,0.5,1.3,1,2.2,1.7c-0.4,0.3-0.9,0.6-1.4,0.9l0.9,0.6c0.5-0.3,1-0.6,1.4-0.9c0.4,0.3,0.9,0.6,1.4,0.9l0.9-0.6
				c-0.5-0.3-1-0.6-1.4-0.9c0.9-0.6,1.6-1.1,2.2-1.7l0.4,0.1c0.5,0.2,1,0.3,1.5,0.3l0,0c0.6,0,1.3-0.1,1.9-0.4
				c1.1-0.5,1.9-1.3,2.4-2.4l0.2-0.5l-0.5-0.2c-0.7-0.2-1.5-0.3-2.2-0.2c0.3-0.3,0.5-0.6,0.7-0.9l0.5,0.1c0.2,0,0.4,0,0.6,0l0,0
				c1,0,1.9-0.3,2.7-0.9c0.9-0.7,1.6-1.7,1.8-2.8l0.1-0.5l-0.5-0.1c-0.2,0-0.4,0-0.6,0c-0.6,0-1.1,0.1-1.6,0.3
				c0.2-0.3,0.4-0.6,0.5-1h0.5c1.2-0.1,2.2-0.6,3-1.5s1.2-2,1.2-3.2v-0.5h-0.5c-0.7,0.1-1.5,0.3-2.1,0.7c0.1-0.3,0.2-0.7,0.3-1.1
				L44.4,36L44.4,36z"/>
			<path class="st0" d="M44.5,46.2c-1,1.4-2.1,2.8-3.5,4.1c-4.2,3.8-8.9,6-10.2,6.5c-1.3-0.6-6-2.7-10.2-6.5
				c-1.4-1.3-2.5-2.6-3.5-4.1c-4.7-6.9-5.4-15-5.4-21.3l0,0l19-1.1l19,1.1C49.9,31.2,49.2,39.2,44.5,46.2L44.5,46.2z M12.9,8.7
				c3.5-0.4,11.5-1.2,18-1.2s14.5,0.8,18,1.2l1,13.9h-19h-19L12.9,8.7L12.9,8.7z M51.8,7.1L51,7c-0.1,0-11.3-1.4-20.1-1.4l0,0l0,0
				c-8.7,0-20,1.4-20.1,1.4L9.9,7.1v15.5l0,0v2.2c0,6.5,0.6,15,5.7,22.4c1,1.5,2.2,2.9,3.6,4.3l0,0l0,0c2.7,2.6,6.4,5.1,11.6,8l0,0
				l0,0l0,0l0,0c5.2-2.9,8.8-5.4,11.6-8l0,0l0,0c1.4-1.4,2.6-2.8,3.6-4.3c5.1-7.4,5.7-15.9,5.7-22.4v-0.3l0,0L51.8,7.1L51.8,7.1z"/>
		</g>
		<g>
			<polygon class="st0" points="63.2,8.8 63.2,19.8 65.6,19.8 68.4,11.9 77.7,11.8 77.7,49.4 70.3,50.2 70.6,52.4 81,52.2 
				91.1,52.4 91.4,50.2 84.3,49.4 84.3,11.8 93.6,11.9 96.4,19.8 98.8,19.8 98.8,8.8 81,9 			"/>
			<polygon class="st0" points="131.4,49.3 114.3,49.4 114.3,30.8 123,31.1 125.5,37.6 127.7,37.6 127,29.2 127.7,21.5 125.5,21.5 
				123,28 114.3,28.2 114.3,11.7 130.8,11.9 134.2,20 136.3,20 135.7,8.8 111.1,9 102.5,8.8 102.2,11 107.8,11.8 107.8,49.4 
				102.2,50.2 102.5,52.4 111.1,52.2 135.7,52.4 137.9,40.9 135.5,40.9 			"/>
			<path class="st0" d="M203.4,8.3l-3.7,1.1l-15.4,40.2l-3,0.4l-3-0.5l-13.8-20.3l12.7-17.5L182,11l-0.3-2.2L174.5,9l-7.3-0.2
				L167,11l5.4,0.8l-9.8,14.5l-8.8-14.5l5.3-0.8l-0.3-2.2L149.9,9L141,8.8l-0.3,2.2l4.8,0.7L158.4,31L145,49.4l-4.8,0.7l0.3,2.2
				l6.9-0.2l7.3,0.2l0.3-2.2l-5.1-0.7l10.6-15.5l9.6,15.4l-5.3,0.8l0.3,2.2l8.9-0.2l7.2,0.2l5.1-0.2l7.4,0.2l0.3-2.2l-5.4-0.8
				l4-11.6h15.3l4.2,11.6l-5.3,0.8l0.3,2.2l8.2-0.2l8.6,0.2l0.3-2.2l-4.8-0.7L203.4,8.3z M193.8,34.9l6.4-18.6l6.8,18.6H193.8z"/>
			<path class="st0" d="M245.4,28l-7.1-3.1c-3.4-1.5-5.8-3.6-5.8-7c0-4.2,2.9-6.8,7.8-6.8c3.7,0,5.7,1.4,7.3,3l1.8,5.6h3.1v-8.4
				c-3.1-2.3-7.4-3.6-11.3-3.6c-8.6,1.8-14.8,5.8-14.8,12.5c0,5.5,3.7,8.4,8.1,10.3l7.5,3.3c3.7,1.6,6.4,4,6.4,8.2
				c0,4.5-3.1,7.9-8.4,7.9c-3.5,0-6.9-1.6-8.7-3.9l-2.2-5.3h-4.3l1.4,8.4c3.3,2.6,7.1,4.2,12.8,4.2c11.7-2.4,15.6-8.1,15.6-13.9
				C254.6,33.2,250.3,30.1,245.4,28z"/>
		</g>
	</g>
</g>
</svg>
