<?xml version="1.0" encoding="utf-8"?>
<!-- Generator: Adobe Illustrator 22.1.0, SVG Export Plug-In . SVG Version: 6.00 Build 0)  -->
<svg version="1.1" id="Layer_1" xmlns="http://www.w3.org/2000/svg" xmlns:xlink="http://www.w3.org/1999/xlink" x="0px" y="0px"
	 viewBox="0 0 201 70" style="enable-background:new 0 0 201 70;" xml:space="preserve">
<style type="text/css">
	.st0{fill:#FFFFFF;}
</style>
<g>
	<path class="st0" d="M45.5,8.8L52.4,9l5.8-0.2l0.3,2.2l-5.3,0.8v37.6l5,0.8l-0.3,2.2l-7.4-0.2l-9,0.2l-0.3-2.2l5.6-0.8V21.1
		l0.8-7.3L31.8,52.3H28L15.5,21l-2.3-7.2v35.6l5.5,0.8l-0.5,2.2l-6.6-0.2l-7,0.2l-0.3-2.2l5-0.8V11.9L3.9,11l0.3-2.2L10.6,9l6.8-0.2
		l13,32.8l0.5,3.5L45.5,8.8z"/>
	<path class="st0" d="M90.1,37.1c0,9.2-5.6,14.6-15.3,16.1c-8.2,0-13.8-6.4-13.8-14.8c0-9.3,5.6-14.6,15.3-16.2
		C84.5,22.2,90.1,28.7,90.1,37.1z M76.4,50.2c5,0,7.5-5.1,7.5-11.8c0-7.9-3.8-13.1-9.2-13.1c-5,0-7.5,5.1-7.5,11.8
		C67.2,44.2,70.8,50.2,76.4,50.2z"/>
	<path class="st0" d="M123.2,37.1c0,9.2-5.6,14.6-15.3,16.1c-8.2,0-13.8-6.4-13.8-14.8c0-9.3,5.6-14.6,15.3-16.2
		C117.6,22.2,123.2,28.7,123.2,37.1z M109.5,50.2c5,0,7.5-5.1,7.5-11.8c0-7.9-3.8-13.1-9.2-13.1c-5,0-7.5,5.1-7.5,11.8
		C100.3,44.2,104,50.2,109.5,50.2z"/>
	<path class="st0" d="M153.5,44.2c0,2.5,0.4,3.6,1.1,4.5h3.5l0.2,2.3l-8.3,1.5l-1.9-4.8l-8,5.4c-7.9,0-12.9-5.9-12.9-14.4
		c0-10,6.1-15.3,15.2-16.6c1.2,0,3.8,1,5.3,1.7V12.2l-4.3,0.1l-0.3-2.1l7.4-1.9l3.1-0.2v36.1H153.5z M145.8,45.7l1.9-1.5V27.8
		c-1.4-1.5-3.5-2.5-6.1-2.5c-5,0-8.1,4.5-8.1,11.8c0,6.9,2.7,11.1,6.4,11.1C141.5,48.3,143.6,47.5,145.8,45.7z"/>
	<path class="st0" d="M163.6,66.9v-6.2h5.3l6.1-9.4l-2.5,0.7l-10.1-26.2l-3.8-0.6l0.3-2.2l7.1,0.2l6.5-0.2l0.3,2.2l-4.1,0.6
		l6.6,18.2l0.5,4.3l7.4-22.4l-2.9-0.6l0.3-2.2l5.5,0.2l5.1-0.2l0.3,2.2l-4,0.6l-9.7,25.4L171,66.9H163.6z"/>
</g>
</svg>
