<svg xmlns="http://www.w3.org/2000/svg" width="15" height="15" viewBox="0 0 15 15"><defs><clipPath id="a"><path d="M7.5 0C11.6425781 0 15 3.35742188 15 7.5c0 4.1425781-3.3574219 7.5-7.5 7.5C3.35742188 15 0 11.6425781 0 7.5 0 3.35742188 3.35742188 0 7.5 0Zm0 1.40625c-3.36621094 0-6.09375 2.72753906-6.09375 6.09375 0 3.3662109 2.72753906 6.09375 6.09375 6.09375 3.3662109 0 6.09375-2.7275391 6.09375-6.09375 0-3.36621094-2.7275391-6.09375-6.09375-6.09375Zm0 1.40625c.38964844 0 .703125.31347656.703125.703125V7.125l2.4990234 1.6640625c.3222657.21679688.4101563.65332031.1699219.97558594-.1904297.32226566-.6269531.41015626-.94921874.16992187l-2.8125-1.875C6.9140625 7.95410156 6.796875 7.734375 6.796875 7.47363281V3.515625c0-.38964844.31347656-.703125.703125-.703125Z"/></clipPath></defs><g clip-path="url(#a)"><path d="M0 0h15v15H0V0z"/></g></svg>