<svg xmlns="http://www.w3.org/2000/svg" width="15" height="15"><defs><clipPath id="a"><path d="M7.5 0A7.5 7.5 0 0 1 15 7.5 7.5 7.5 0 0 1 7.5 15 7.5 7.5 0 0 1 0 7.5 7.5 7.5 0 0 1 7.5 0Zm0 1.406A6.093 6.093 0 0 0 1.406 7.5 6.093 6.093 0 0 0 7.5 13.594 6.093 6.093 0 0 0 13.594 7.5 6.093 6.093 0 0 0 7.5 1.406Zm0 1.407a.7.7 0 0 1 .703.703v3.609l2.5 1.664a.68.68 0 0 1 .17.976.645.645 0 0 1-.95.17L7.11 8.06c-.196-.106-.313-.326-.313-.586V3.516c0-.39.313-.704.703-.704Z"/></clipPath></defs><g clip-path="url(#a)"><path d="M0 0h15v15H0V0z"/></g></svg>