<svg width="807" height="882" xmlns="http://www.w3.org/2000/svg"><g fill="#1C2B39" fill-rule="nonzero"><path d="M548.88 336.46a6.27 6.27 0 107.3 5.08 6.55 6.55 0 00-7.3-5.08zM520.61 341.16c-3.18.66-5.59 3.68-4.94 6.82a6 6 0 006.85 4.85c3.17-.66 5.58-3.67 4.94-6.82-.26-3.25-3.53-5.17-6.85-4.85zM527.91 318.31c-3.17.66-5.35 3.23-4.7 6.37.65 3.14 3.22 5.29 6.4 4.63a5.7 5.7 0 004.7-6.37 5.19 5.19 0 00-6.4-4.63zM550.88 309a5.56 5.56 0 106.4 4.62 5.21 5.21 0 00-5.62-4.75 7 7 0 00-.78.13zM572.47 321a5.56 5.56 0 106.4 4.63 5.19 5.19 0 00-6.4-4.63zM576.29 344.31a6.27 6.27 0 107.3 5.08 6.87 6.87 0 00-7.3-5.08zM559.34 362.86a6.27 6.27 0 101.7 12.42l.43-.07c3.52-.77 5.92-3.79 5.17-7.27a5.93 5.93 0 00-7.3-5.08zM534.8 361.52c-3.18.66-5.59 3.68-4.94 6.82a6 6 0 006.85 4.85c3.17-.65 5.58-3.67 4.94-6.82a5.76 5.76 0 00-6.5-4.91l-.35.06zM492.42 345.86a5.92 5.92 0 106.85 4.85 6.26 6.26 0 00-6.85-4.85zM494.16 321.08c-3.17.66-5.35 3.23-4.71 6.38.64 3.15 3.23 5.28 6.4 4.62a5.7 5.7 0 004.76-6.32 5.19 5.19 0 00-5.53-4.83c-.31.02-.619.07-.92.15zM507 299c-3.17.66-5.35 3.23-4.71 6.37.64 3.14 3.23 5.29 6.4 4.63 3.17-.66 5.36-3.23 4.71-6.37A5.65 5.65 0 00507 299zM527.94 284.76a5.36 5.36 0 106.29 4.28 5.5 5.5 0 00-6.29-4.28zM553.1 281.07a5 5 0 105.84 4.06 5.3 5.3 0 00-5.84-4.06zM577.35 288.46a5 5 0 00-4.24 5.48 5.1 5.1 0 104.63-5.53l-.39.05zM596.19 304.7a5.56 5.56 0 106.4 4.62 5.69 5.69 0 00-6.4-4.62zM605.66 328.07a5.56 5.56 0 106.4 4.62 5.69 5.69 0 00-6.4-4.62zM603.61 353c-3.17.66-5.58 3.67-4.94 6.82a6 6 0 006.85 4.85c3.18-.66 5.59-3.68 4.94-6.82a5.53 5.53 0 00-6-5 6 6 0 00-.85.15zM591.12 374.89c-3.17.66-5.58 3.67-4.94 6.82a6 6 0 006.85 4.85c3.18-.66 5.59-3.68 4.94-6.82a6 6 0 00-6.85-4.85zM570 389.94a5.36 5.36 0 10.17 0H570zM545.08 394.32a5 5 0 105.84 4.06 4.93 4.93 0 00-5.66-4.09l-.18.03zM520.72 386.59a5.56 5.56 0 106.4 4.62c-.65-3.14-3.23-5.28-6.4-4.62zM502 369.57a5.56 5.56 0 106.4 4.63 5.7 5.7 0 00-6.4-4.63zM464.19 350.56c-3.17.66-5.58 3.68-4.94 6.82a6 6 0 006.85 4.86c3.18-.66 5.59-3.68 4.94-6.82a6 6 0 00-6.85-4.86zM464.13 324.88c-3.17.66-5.58 3.68-4.94 6.82a6 6 0 006.85 4.85c3.18-.66 5.59-3.68 4.94-6.82a6.21 6.21 0 00-6.85-4.85zM471.52 301.25a5.56 5.56 0 106.4 4.62 5.19 5.19 0 00-6.4-4.62zM485.67 279.88a5.72 5.72 0 00-4.71 6.38 5.623 5.623 0 0011.11-1.75c-.19-2.92-3.07-4.95-6.4-4.63zM505.76 264a5.56 5.56 0 106.4 4.63 5.85 5.85 0 00-6.4-4.63zM529.4 254.5a5.56 5.56 0 106.4 4.62 5.79 5.79 0 00-6.4-4.62zM555.22 252.81a5 5 0 105.84 4.07 5.17 5.17 0 00-5.84-4.07zM580.06 258.53a4.84 4.84 0 105.84 4.06 5 5 0 00-5.78-4.07l-.06.01zM602.21 271.07a5 5 0 00-3.9 5.37c.42 2.47 2.78 3.94 5.39 3.84a5 5 0 003.9-5.37 4.77 4.77 0 00-5.39-3.84zM619.89 289.54a4.79 4.79 0 00-3.9 5.37c.42 2.47 2.78 3.94 5.39 3.84a5 5 0 003.9-5.37c-.77-2.38-2.89-4.27-5.39-3.84zM631 312a4.67 4.67 0 105.39 3.84A4.81 4.81 0 00631 312zM634.77 336.49a5.36 5.36 0 106.29 4.29 5.51 5.51 0 00-6.29-4.29zM630.89 360.48a6.26 6.26 0 107.3 5.07 6.56 6.56 0 00-7.3-5.07zM620 383.76c-3.17.66-5.58 3.68-4.94 6.82a6 6 0 006.85 4.85c3.18-.66 5.59-3.68 4.94-6.82a6.21 6.21 0 00-6.85-4.85zM602.92 403.09a5.36 5.36 0 106.29 4.29 6.07 6.07 0 00-6.29-4.29zM580.82 416.23a5 5 0 105.84 4.06 5.3 5.3 0 00-5.84-4.06zM555.75 422.51a5 5 0 10.17 0h-.17zM530.3 420.76a5 5 0 105.84 4.07 5.1 5.1 0 00-5.84-4.07zM506.61 411.65a5 5 0 105.84 4.06c-.4-2.47-3.21-4.16-5.84-4.06zM486.33 395.52a5.92 5.92 0 106.85 4.86 6 6 0 00-6.85-4.86zM472 374.49a5.91 5.91 0 106.85 4.85 6.27 6.27 0 00-6.85-4.85zM435.74 354.59a6.27 6.27 0 107.3 5.08c-.3-3.25-3.67-5.51-7.3-5.08zM434.66 329.24a6.27 6.27 0 107.3 5.08 6.54 6.54 0 00-7.3-5.08zM439.61 304.92c-3.18.66-5.36 3.23-4.71 6.37.65 3.14 3.22 5.29 6.4 4.63a5.71 5.71 0 004.71-6.37 6.12 6.12 0 00-6.4-4.63zM449.78 281.86a5.36 5.36 0 106.29 4.29 5.51 5.51 0 00-6.29-4.29zM464.72 260.61a5.92 5.92 0 106.85 4.86 6.22 6.22 0 00-6.85-4.86zM484.25 244.21a5.56 5.56 0 106.4 4.63 5.85 5.85 0 00-6.4-4.63zM506.79 232.42a5.21 5.21 0 105.95 4.4 5.5 5.5 0 00-5.95-4.4zM531.41 225.91a4.87 4.87 0 105.45 4.21 2.32 2.32 0 00-.06-.38c.03-2.24-2.55-4.38-5.39-3.83zM557 224.67a5.4 5.4 0 00-4.24 5.48 5.34 5.34 0 005.5 4.17 4.79 4.79 0 003.9-5.37c.26-2.69-2.16-4.49-5.16-4.28zM582.19 229.15a5.41 5.41 0 00-4.25 5.48 4.92 4.92 0 009.75-1.3c-.2-2.92-2.56-4.39-5.5-4.18zM605.73 239a4.79 4.79 0 00-3.9 5.37 5.34 5.34 0 005.5 4.17 5.4 5.4 0 004.24-5.48 5.3 5.3 0 00-5.84-4.06zM626.5 254.24a5 5 0 00-3.91 5.37c.43 2.47 2.79 3.94 5.39 3.83a5 5 0 003.91-5.36 4.74 4.74 0 00-5.39-3.84zM643.38 273.76a4.31 4.31 0 104.94 3.61 4.21 4.21 0 00-4.71-3.65l-.23.04zM655.14 294.85a5.85 5.85 0 00-4.71 6.38 5.623 5.623 0 1011.11-1.75 5.19 5.19 0 00-6.4-4.63zM662 318.32a6.27 6.27 0 107.3 5.08 6.41 6.41 0 00-7.3-5.08zM663.09 343.68a6.26 6.26 0 107.3 5.08 6.86 6.86 0 00-7.3-5.08zM658.41 368.67a6.27 6.27 0 107.3 5.08 6.41 6.41 0 00-7.3-5.08zM648.31 392.07a6.26 6.26 0 107.3 5.08 6.41 6.41 0 00-7.3-5.08zM633 412.3a6.83 6.83 0 00-5.75 7.76v.07a6.89 6.89 0 0013.6-2.19c-.85-3.81-4.3-6.41-7.85-5.64zM614.05 430.39a5.36 5.36 0 106.29 4.29 5.5 5.5 0 00-6.29-4.29zM591.41 441.85c-3.18.66-5.59 3.67-4.94 6.82a6 6 0 006.85 4.85c3.17-.66 5.58-3.68 4.94-6.82a6 6 0 00-6.85-4.85zM566.55 448.81a5.56 5.56 0 106.4 4.62c-.2-2.91-3.12-4.95-6.4-4.62zM541.18 450.76a5.21 5.21 0 106 4.4c-.7-3.16-3.18-4.99-6-4.4zM516.1 446.57a5 5 0 106 4.4c-1.03-3.03-3.49-4.84-6-4.4zM492.45 436.38a5 5 0 105.84 4.06c-.43-2.44-3.24-4.17-5.84-4.06zM471.79 421.48a5.22 5.22 0 105.95 4.4 5.21 5.21 0 00-5.95-4.4zM454.92 402a5.56 5.56 0 106.4 4.62 5.69 5.69 0 00-6.4-4.62zM442.71 379.52a5.56 5.56 0 106.4 4.63c-.19-2.92-3.11-4.95-6.4-4.63zM407.75 358.85a6.46 6.46 0 107.41 5.41 6.69 6.69 0 00-7.41-5.41zM406 333.76a6.27 6.27 0 107.3 5.08 6.87 6.87 0 00-7.3-5.08zM409 309.28a5.56 5.56 0 106.4 4.62 5.21 5.21 0 00-5.62-4.75 7 7 0 00-.78.13zM416.61 285.2a5 5 0 105.84 4.06 5.29 5.29 0 00-5.84-4.06zM428.15 262.81a5 5 0 105.84 4.07 5.11 5.11 0 00-5.84-4.07zM443.77 241.34c-3.18.66-5.58 3.68-4.94 6.83a6 6 0 006.85 4.85c3.18-.66 5.58-3.68 4.94-6.82a6.44 6.44 0 00-6.85-4.86zM462.73 225.5a5 5 0 00-4.25 5.48 4.92 4.92 0 005.62 4.1h.22a5 5 0 004.29-5.48 4.93 4.93 0 00-5.62-4.11l-.26.01zM484.81 213.48a3.54 3.54 0 00-2.87 3.91 3.443 3.443 0 006.8-1.09 3.32 3.32 0 00-3.73-2.85l-.2.03zM508.46 203.94a3.41 3.41 0 103.93 2.82 3.25 3.25 0 00-3.61-2.87l-.32.05zM533.75 198.32a3.41 3.41 0 103.93 2.83 3.54 3.54 0 00-3.93-2.83zM559.34 197.09a4.31 4.31 0 104.94 3.61 4.42 4.42 0 00-4.94-3.61zM584.54 200.45a5 5 0 105.84 4.06c-.88-2.69-3.38-4.51-5.84-4.06zM608.67 208.63a5 5 0 106 4.4c-1.06-3.03-3.51-4.84-6-4.4zM630.93 221.51a4.46 4.46 0 00-3.67 4.92 4.41 4.41 0 004.94 3.57 4.46 4.46 0 003.67-4.92 4.33 4.33 0 00-4.94-3.57zM650.45 237.52a5 5 0 00-3.91 5.37c.43 2.47 2.79 3.93 5.39 3.83a4.78 4.78 0 003.91-5.36c-.43-2.47-2.79-3.94-5.39-3.84zM667 257.11a5 5 0 00-3.9 5.36c.42 2.47 2.78 3.94 5.39 3.84a4.79 4.79 0 003.9-5.37c-.78-2.36-2.91-4.27-5.39-3.83zM679.42 279.14a4.66 4.66 0 105.39 3.84 4.81 4.81 0 00-5.39-3.84zM687.66 301.05a6.31 6.31 0 00-5.57 7l.06.41a6.53 6.53 0 105.54-7.39l-.03-.02zM691.14 324.51a8.42 8.42 0 102.938 16.582 8.42 8.42 0 00-2.938-16.582zM691 351.76a6 6 0 00-5.28 6.65c0 .21.06.41.11.62.75 3.48 3.78 5.85 7.3 5.08a6 6 0 005.28-6.65c0-.21-.06-.41-.11-.62a6.87 6.87 0 00-7.3-5.08zM685.81 377.65a5.36 5.36 0 106.29 4.29 5.51 5.51 0 00-6.29-4.29zM676.05 400.93a5.56 5.56 0 106.4 4.63 5.35 5.35 0 00-5.94-4.7 3.4 3.4 0 00-.46.07zM661.71 418.26a10.29 10.29 0 00-8.38 11.29c.62 5.39 5.9 8.89 11.34 8.24a10.31 10.31 0 008.38-11.3c-.62-5.38-5.9-8.88-11.34-8.23zM644.85 439.38a7.72 7.72 0 102.481 15.24 7.72 7.72 0 00-2.481-15.24zM624.31 455a7.72 7.72 0 108.87 6.43c-.74-4.6-4.67-7.43-8.87-6.43zM601.44 465.76a8.84 8.84 0 10.08 0h-.08zM577.24 474.76a6.82 6.82 0 107.86 5.64c-.86-3.81-4.34-6.4-7.86-5.64zM551.85 478.91c-3.18.66-5.36 3.23-4.71 6.38.65 3.15 3.22 5.28 6.4 4.62 3.18-.66 5.35-3.23 4.71-6.37-.64-3.14-3.25-5.28-6.4-4.63zM526.17 477.57a5 5 0 105.84 4.06 5.3 5.3 0 00-5.84-4.06zM501.61 471.41a5 5 0 105.84 4.06c-.45-2.47-3.27-4.16-5.84-4.06zM478.26 461.1a5 5 0 105.84 4.06 5.11 5.11 0 00-5.84-4.06zM457 446.76a5 5 0 105.84 4.06c-.06-2.57-2.98-4.6-5.84-4.06zM439 428.41a5.56 5.56 0 106.4 4.62 5.84 5.84 0 00-6.4-4.62zM424.42 406.7a6.26 6.26 0 107.3 5.08 6.86 6.86 0 00-7.3-5.08zM413.92 383.66a6.27 6.27 0 107.3 5.08 6.87 6.87 0 00-7.3-5.08zM379.29 364c-3.18.66-5.59 3.67-5 6.82a6 6 0 006.85 4.85c3.18-.66 5.59-3.68 4.95-6.82-.64-3.14-3.29-5.62-6.8-4.85zM377.52 338.86a5.92 5.92 0 106.85 4.86 6 6 0 00-6.85-4.86zM379.16 313.76a5.56 5.56 0 101.816 10.97 5.56 5.56 0 00-1.816-10.97zM384.74 289.21a5.51 5.51 0 00-4.48 5.92 5.27 5.27 0 0010.43-1.52c-.19-2.92-3-4.61-5.95-4.4zM394.37 267.83a2.86 2.86 0 103.37 2.25c-.13-1.45-1.56-2.47-3.37-2.25zM407.17 245.76a2.63 2.63 0 00-2.39 2.85c.01.17.04.338.09.5a2.89 2.89 0 102.33-3.36l-.03.01zM422.69 224a5 5 0 00-3.91 5.37 4.77 4.77 0 005.39 3.84 5 5 0 003.91-5.37 4.77 4.77 0 00-5.39-3.84zM442 208a3.06 3.06 0 103.48 2.59c-.56-1.65-2.13-3.01-3.48-2.59zM462.85 193.42a3 3 0 00-2.66 3.3 1 1 0 000 .17 3.09 3.09 0 102.65-3.47h.01zM486.06 182.53a2.7 2.7 0 103 2.37c-.18-1.8-1.64-2.81-3-2.37zM510.61 175.68a1.81 1.81 0 102 1.6 1.55 1.55 0 00-1.47-1.64 1.57 1.57 0 00-.53.04zM536 171.53c-1 .33-1.59.89-1.27 1.9.32 1.01.89 1.57 1.91 1.24 1.02-.33 1.6-.89 1.27-1.9a1.81 1.81 0 00-1.91-1.24zM561.23 169.28a3.76 3.76 0 104.38 3 3.68 3.68 0 00-4.25-3h-.13zM586.44 171.52a5 5 0 105.84 4.06 5.11 5.11 0 00-5.84-4.06zM611 178.76a5.18 5.18 0 10.07 0H611zM634.22 189.89a4.81 4.81 0 00-3.91 5.37 4.71 4.71 0 103.94-5.37h-.03zM655.61 204.57a4.11 4.11 0 104.83 3.27 4.27 4.27 0 00-4.83-3.27zM674.5 221.14a4.31 4.31 0 104.94 3.61 4.62 4.62 0 00-4.94-3.61zM690.25 240.61a4.87 4.87 0 105.5 4.17 4.46 4.46 0 00-5.5-4.17zM703.14 261.76a5.56 5.56 0 101.816 10.97 5.56 5.56 0 00-1.816-10.97zM712.61 284a6.81 6.81 0 107.86 5.64 7.33 7.33 0 00-7.86-5.64zM717.92 307.24a8.42 8.42 0 102.938 16.582 8.42 8.42 0 00-2.938-16.582zM720.14 332.59a8.42 8.42 0 102.935 16.582 8.42 8.42 0 00-2.935-16.582zM718.38 358.5a7.84 7.84 0 10.07 0h-.07zM713.11 385.17c-3.17.66-5.58 3.67-4.94 6.82a6 6 0 006.85 4.85c3.18-.66 5.59-3.68 4.94-6.82a6 6 0 00-6.85-4.85zM704 409.35a5.37 5.37 0 106.29 4.29 5.51 5.51 0 00-6.29-4.29zM691 430.76a6.27 6.27 0 107.3 5.08 6 6 0 00-6.72-5.18 5.86 5.86 0 00-.58.1zM674.54 446.13c-5.873.936-9.879 6.45-8.952 12.325.926 5.875 6.435 9.889 12.31 8.972 5.877-.917 9.9-6.42 8.992-12.297-.987-5.857-6.472-9.854-12.35-9zM656.31 467.7a6.82 6.82 0 107.86 5.64 7.35 7.35 0 00-7.86-5.64zM635 481a8.07 8.07 0 109.32 6.66A8.28 8.28 0 00635 481zM612.45 493.87a6.48 6.48 0 00-5.52 7.32v.06c.41 3.59 3.78 5.84 7.41 5.41a6.47 6.47 0 005.52-7.3v-.08c-.75-3.52-3.86-6.18-7.41-5.41zM588 502.17c-3.17.66-5.58 3.68-4.94 6.83a6 6 0 006.85 4.85c3.18-.66 5.59-3.68 4.94-6.82a6 6 0 00-6.85-4.86zM562.75 506.66c-3.18.66-5.36 3.23-4.71 6.38.65 3.15 3.22 5.28 6.4 4.62 3.18-.66 5.35-3.23 4.71-6.37a5.68 5.68 0 00-6.4-4.63zM536.83 506.89a5.56 5.56 0 106.4 4.63 5.19 5.19 0 00-6.4-4.63zM511.41 502.86c-3.17.65-5.58 3.67-4.94 6.82a6 6 0 006.85 4.85c3.18-.66 5.59-3.68 4.94-6.82-.26-3.26-3.56-5.18-6.85-4.85zM486.93 495.91c-3.17.66-5.58 3.68-4.94 6.82a6 6 0 006.85 4.85c3.18-.66 5.59-3.68 4.94-6.82a5.74 5.74 0 00-6.48-4.91 2.38 2.38 0 00-.37.06zM464.07 485.83a5 5 0 105.84 4.06 5.38 5.38 0 00-5.84-4.06zM442.61 471.94a5 5 0 00-4.25 5.48 4.92 4.92 0 005.62 4.1h.22a5 5 0 004.25-5.48 4.92 4.92 0 00-5.62-4.1h-.22zM423.9 454.92a5 5 0 106 4.4c-.7-3.14-3.17-4.94-6-4.4zM407.7 435.23a5 5 0 105.61 4.53c-.31-3.28-2.77-5.08-5.61-4.53zM394.61 412.29a6.25 6.25 0 00-4.94 6.82 6 6 0 105-6.83l-.06.01zM385.12 388.92a5.91 5.91 0 106.85 4.85 5.74 5.74 0 00-6.48-4.91 2.38 2.38 0 00-.37.06zM350.74 366.57a7.83 7.83 0 10.05 0h-.05zM348.61 342.67a6.47 6.47 0 107.41 5.41 6.4 6.4 0 00-7.26-5.43l-.15.02zM349.9 318.76a5.22 5.22 0 106 4.4 4.85 4.85 0 00-5.16-4.52 5.19 5.19 0 00-.84.12zM354.61 294.91a3.76 3.76 0 104.38 3 4.28 4.28 0 00-4.38-3zM361.76 269.48a5 5 0 105.61 4.51 4.86 4.86 0 00-5.14-4.56l-.47.05zM372.61 248.44a2.51 2.51 0 102.92 2 2.71 2.71 0 00-2.92-2zM386.21 227.64c-1 .33-1.6.89-1.27 1.9.33 1.01.89 1.57 1.91 1.24 1.02-.33 1.6-.89 1.27-1.9-.22-.67-1.23-1.46-1.91-1.24zM401.94 206.51c-1.47.1-2.51 1.56-2.3 3.35.1 1.46 1.56 2.48 3.37 2.26a2.78 2.78 0 002.33-3.16 1.08 1.08 0 000-.19c-.13-1.46-1.59-2.48-3.4-2.26zM420.69 188.87a2.63 2.63 0 00-2.39 2.85c.01.17.04.338.09.5a2.49 2.49 0 003.37 2.26 2.63 2.63 0 002.4-2.84 3 3 0 00-.1-.52 3.4 3.4 0 00-3.37-2.25zM441.34 173.59c-1.47.11-2.5 1.56-2.3 3.35.1 1.46 1.56 2.48 3.37 2.26 1.47-.1 2.51-1.56 2.3-3.35a3.41 3.41 0 00-3.37-2.26zM463.67 160a4.11 4.11 0 104.83 3.28 4.59 4.59 0 00-4.83-3.28zM487.74 152.93c-1 .33-1.6.89-1.27 1.9.33 1.01.89 1.57 1.91 1.24 1.02-.33 1.6-.89 1.27-1.9-.33-1.01-.89-1.58-1.91-1.24zM512.37 146.41c-1 .34-1.6.9-1.27 1.91.33 1.01.89 1.57 1.91 1.24 1.02-.33 1.59-.89 1.27-1.9.12-.79-.89-1.58-1.91-1.25zM538.09 143.27a2 2 0 00-1.38 1.57 1.48 1.48 0 002.95-.21c-.22-.63-.89-1.58-1.57-1.36zM563.35 141a3.76 3.76 0 104.38 3 3.69 3.69 0 00-4.23-3h-.15zM588.45 142.93a5 5 0 105.84 4.06 5.11 5.11 0 00-5.84-4.06zM613.05 149.09a5.36 5.36 0 10.17 0h-.17zM637.05 159.17a5.4 5.4 0 00-4.25 5.48 4.74 4.74 0 005.39 3.84 5.42 5.42 0 004.25-5.48 4.77 4.77 0 00-5.39-3.84zM659.2 171.76a5.42 5.42 0 00-4.25 5.48 4.76 4.76 0 005.39 3.83 5.38 5.38 0 004.27-5.51 4.27 4.27 0 00-5.41-3.8zM679.74 187.4a4.31 4.31 0 104.94 3.61c-.07-2.58-2.45-4.01-4.94-3.61zM698.22 204.86a4.46 4.46 0 00-3.67 4.92 4.41 4.41 0 004.93 3.61 4.46 4.46 0 003.68-4.92 4.17 4.17 0 00-4.62-3.66l-.32.05zM713.85 224a5 5 0 105.84 4.06 5.29 5.29 0 00-5.84-4.06zM727 245.81a5 5 0 105.84 4.06 5.11 5.11 0 00-5.84-4.06zM737.36 268.51a5.56 5.56 0 106.4 4.63 5.7 5.7 0 00-6.4-4.63zM744.45 292.66a5.91 5.91 0 106.85 4.85 5.74 5.74 0 00-6.48-4.91 2.38 2.38 0 00-.37.06zM748 316.45a7.17 7.17 0 108.31 5.87 7.24 7.24 0 00-8.31-5.87zM748.34 340.57a8.42 8.42 0 109.77 6.88 8.6 8.6 0 00-9.77-6.88zM746.23 367.7a6.31 6.31 0 00-5.57 7l.06.41a6.54 6.54 0 1012.92-2c-.41-3.59-3.78-5.84-7.41-5.41zM740.61 393.36a5.91 5.91 0 106.85 4.85c-.73-3.45-3.65-5.51-6.85-4.85zM731.54 417.55a5.36 5.36 0 106.29 4.29 5.5 5.5 0 00-6.29-4.29zM719.61 440a5.56 5.56 0 106.4 4.63 5.65 5.65 0 00-6.4-4.63zM704.82 460.5a5.92 5.92 0 106.85 4.86 6 6 0 00-6.85-4.86zM687.19 479.27a5.91 5.91 0 106.85 4.85 6.25 6.25 0 00-6.85-4.85zM667.33 494.66a6.82 6.82 0 107.86 5.64c-.07-3.7-3.89-6.18-7.86-5.64zM645.9 508.7a6.82 6.82 0 107.86 5.65c-.52-3.93-3.89-6.19-7.86-5.65zM622.81 519.93a6.47 6.47 0 102.026 12.78 6.47 6.47 0 00-2.026-12.78zM598.71 529.25a5.22 5.22 0 105.95 4.4 5.44 5.44 0 00-5.95-4.4zM573.43 533.76a5.56 5.56 0 106.4 4.63c-.54-2.83-3.57-5.2-6.4-4.63zM547.61 535.43a5.56 5.56 0 106.4 4.62c-.2-2.92-3.12-4.95-6.4-4.62zM522.28 534a5.56 5.56 0 106.4 4.63 5.21 5.21 0 00-5.61-4.76 5.42 5.42 0 00-.79.13zM497 529.15a5.71 5.71 0 00-4.71 6.37c.65 3.15 3.23 5.29 6.4 4.63 3.17-.66 5.36-3.23 4.71-6.37a5.19 5.19 0 00-6.4-4.63zM473 521.31a5.36 5.36 0 106.29 4.29 5.5 5.5 0 00-6.29-4.29zM449.88 510.56a5 5 0 105.84 4.06 4.93 4.93 0 00-5.66-4.09l-.18.03zM428.42 496.67a5 5 0 105.84 4.06 5.11 5.11 0 00-5.84-4.06zM408.9 480.66a5.39 5.39 0 00-4.24 5.47 4.74 4.74 0 005.39 3.84 5.4 5.4 0 004.24-5.48c-.08-2.58-2.55-4.38-5.39-3.83zM391.91 462a4.66 4.66 0 105.39 3.83 4.79 4.79 0 00-5.39-3.83zM377.43 440.59a5.18 5.18 0 10.07 0h-.07zM365.24 417c-3.18.66-5.59 3.67-4.94 6.82a6 6 0 006.85 4.85c3.18-.66 5.58-3.68 4.94-6.82-.19-2.93-3.22-5.3-6.85-4.85zM356.79 393.29c-3.18.65-5.59 3.67-5 6.82a6 6 0 006.85 4.85c3.18-.66 5.59-3.68 4.95-6.82a5.74 5.74 0 00-6.48-4.91 2.38 2.38 0 00-.32.06zM322.61 371.6a7.72 7.72 0 108.87 6.44c-.73-4.61-4.66-7.43-8.87-6.44zM320.4 347.37a6.46 6.46 0 107.41 5.39 6.25 6.25 0 00-6.95-5.46l-.46.07zM320.88 323.37a4.78 4.78 0 00-3.9 5.36 5.34 5.34 0 005.5 4.18 5.4 5.4 0 004.24-5.48c-.42-2.43-3.23-4.16-5.84-4.06zM324.61 301.29a1.81 1.81 0 102 1.6 1.55 1.55 0 00-1.47-1.64 1.57 1.57 0 00-.53.04zM330.78 277.31c-.34.11-.91.67-.8 1 .11.33.67.9 1 .79.33-.11.91-.67.8-1 .22-.45-.32-1.01-1-.79zM339.43 251.76a2.51 2.51 0 102.92 2 2.68 2.68 0 00-2.92-2zM350.88 229.06a2.51 2.51 0 102.92 2 2.28 2.28 0 00-2.46-2.09 3.73 3.73 0 00-.46.09zM364.82 207a2.64 2.64 0 00-2.39 2.87c.01.166.04.33.09.49a2.89 2.89 0 005.67-1.1 3.42 3.42 0 00-3.37-2.26zM380.88 186.9a3.41 3.41 0 103.93 2.86 3.55 3.55 0 00-3.93-2.86zM399.18 169a3.41 3.41 0 103.93 2.83 3.26 3.26 0 00-3.6-2.88l-.33.05zM419.92 156.34c-.34.11-.68.22-.58.56.1.34.22.67.56.56.34-.11.69-.22.58-.56.23-.45-.22-.67-.56-.56zM441.7 141.06a2.11 2.11 0 00-1.86 2.33v.13a2.09 2.09 0 002.3 1.84h.17a2.11 2.11 0 001.86-2.33v-.13c.01-1.14-1.34-1.83-2.47-1.84zM464.91 129.05a3.71 3.71 0 00-3.21 4 3.65 3.65 0 103.26-4h-.05zM489.31 123c-.68.22-1.25.78-1 1.45.25.67.77 1.24 1.46 1s1.25-.78 1-1.46c.23-.44-.67-.89-1.46-.99zM514.49 118.16a.76.76 0 00-.47.89.72.72 0 001.37-.44c-.11-.33-.45-.22-.9-.45zM539.88 114a2.15 2.15 0 102.47 1.8c.01-1.11-1.35-1.8-2.47-1.8zM565.61 114.23a2.15 2.15 0 102.47 1.8c-.03-1.12-1.38-1.8-2.47-1.8zM590.68 115a4.79 4.79 0 00-3.91 5.37c.43 2.47 2.79 3.93 5.39 3.83a5 5 0 003.91-5.36 4.77 4.77 0 00-5.39-3.84zM615.4 120.39a4.87 4.87 0 105.45 4.21 2.32 2.32 0 00-.06-.38c.03-2.22-2.44-4.04-5.39-3.83zM639.61 128.9a5 5 0 105.84 4.07 5.4 5.4 0 00-5.84-4.07zM662.49 140.1a5 5 0 00-4.25 5.48 5.08 5.08 0 0010-1.75c-.34-2.13-3.15-3.83-5.75-3.73zM684 154a4.67 4.67 0 001.06 9.28l.43-.07a5.4 5.4 0 004.24-5.48 4.76 4.76 0 00-5.63-3.73h-.1zM704 170.57a4.31 4.31 0 104.94 3.61 4.17 4.17 0 00-4.62-3.66l-.32.05zM721.94 188.59a4.31 4.31 0 104.94 3.61 4.17 4.17 0 00-4.62-3.66l-.32.05zM737.34 208.17a5 5 0 105.53 4.4v-.23a4.47 4.47 0 00-4.65-4.29 4.15 4.15 0 00-.88.12zM750.61 229.2a5.36 5.36 0 106.29 4.29 5.29 5.29 0 00-6.1-4.33l-.19.04zM761.41 252.13a5.36 5.36 0 106.29 4.29c-.53-2.81-3-4.61-6.29-4.29zM769.61 276.28a5.21 5.21 0 106 4.4 5.5 5.5 0 00-6-4.4zM774.92 300.64a5.91 5.91 0 106.85 4.85 6 6 0 00-6.85-4.85zM777.47 325.89a5.91 5.91 0 106.85 4.85 6 6 0 00-6.85-4.85zM777.09 350.22a6.82 6.82 0 107.86 5.64 7.33 7.33 0 00-7.86-5.64zM774.08 376.9a5.85 5.85 0 00-4.71 6.38 5.62 5.62 0 104.71-6.38zM767.92 402a5.22 5.22 0 101.67 10.306A5.22 5.22 0 00767.92 402zM759.07 425.76a5.36 5.36 0 106.29 4.29 5.51 5.51 0 00-6.29-4.29zM747.72 448.76a5 5 0 105.89 4.1 5.39 5.39 0 00-5.89-4.1zM733.8 469.76c-3.17.66-5.35 3.23-4.71 6.38.64 3.15 3.23 5.28 6.4 4.62 3.17-.66 5.36-3.23 4.71-6.37a5.65 5.65 0 00-6.4-4.63zM717.51 490.28a4.87 4.87 0 105.5 4.17 4.93 4.93 0 00-5.5-4.17zM698.88 507.14a5.91 5.91 0 106.85 4.85 6 6 0 00-6.85-4.85zM678.24 521.29a7.17 7.17 0 108.31 5.87 7 7 0 00-7.92-5.94l-.39.07zM656.69 536.12c-3.17.66-5.58 3.67-4.94 6.82a6 6 0 006.86 4.82c3.18-.66 5.59-3.68 4.94-6.82a5.75 5.75 0 00-6.5-4.88l-.36.06zM633.71 547.68a5 5 0 105.84 4.07 5.11 5.11 0 00-5.84-4.07zM609.39 556.33a4.78 4.78 0 00-3.9 5.36c.42 2.47 2.78 3.94 5.39 3.84a5 5 0 003.9-5.37c-.42-2.47-2.78-3.93-5.39-3.83zM584.33 561.49a5.06 5.06 0 10.06 0h-.06zM558.51 563.18a5.913 5.913 0 101.91 11.67c3.28-.32 5.24-3.57 4.94-6.82a6.2 6.2 0 00-6.85-4.85zM532.93 563.29a5.71 5.71 0 00-4.71 6.37c.65 3.15 3.23 5.29 6.4 4.63 3.17-.66 5.36-3.23 4.71-6.37a5.78 5.78 0 00-6.4-4.63zM507.5 560.38a5.36 5.36 0 106.29 4.29c-.42-2.47-3.34-4.5-6.29-4.29zM482.67 554.66A5.36 5.36 0 10489 559a5.51 5.51 0 00-6.33-4.34zM458.43 546.15a5.36 5.36 0 10.17 0h-.17zM435.61 534.94a5.37 5.37 0 106.29 4.29 5.51 5.51 0 00-6.29-4.29zM414.23 521.39a5 5 0 00-4.16 5.72v.1a5.08 5.08 0 1010-1.75 5.42 5.42 0 00-5.84-4.07zM394.37 505.49a5 5 0 105.84 4.07 5.4 5.4 0 00-5.84-4.07zM376.47 487.47a5 5 0 00-4.25 5.48 4.91 4.91 0 005.58 4.11l.26-.05a5 5 0 004.15-5.72.28.28 0 000-.09 6 6 0 00-5.74-3.73zM360.5 467.33a5 5 0 105.84 4.06c-.08-2.58-2.89-4.27-5.84-4.06zM347.39 445.51a5.22 5.22 0 101.47 10.33 5.22 5.22 0 00-1.12-10.38l-.35.05zM336.44 422.25a5.91 5.91 0 106.85 4.85c-.76-3.48-3.68-5.51-6.85-4.85zM328.22 398.1a5.91 5.91 0 106.85 4.85 6 6 0 00-6.85-4.85zM294.61 378.1c-3.18.66-5.36 3.23-4.71 6.37.65 3.14 3.22 5.29 6.4 4.63 3.18-.66 5.35-3.23 4.71-6.37a5.21 5.21 0 00-5.61-4.73 5.42 5.42 0 00-.79.1zM292.14 354.31c-2.15.33-3.76 2.34-3.1 4.36a3.5 3.5 0 003.86 3.1 3 3 0 00.52-.1c2.15-.33 3.76-2.34 3.1-4.36a3.85 3.85 0 00-4.38-3zM292.52 330c-1.47.1-2.51 1.56-2.3 3.35.1 1.46 1.56 2.48 3.37 2.26 1.47-.11 2.51-1.56 2.3-3.36a3.41 3.41 0 00-3.37-2.25zM295 306.43c-.68.22-1.25.78-1 1.46.25.68.78 1.23 1.46 1 .68-.23 1.25-.78 1-1.45-.25-.67-.74-1.23-1.46-1.01zM300.4 282.34c-.45-.22-.34.11 0 0-.23.45-.12.79.22.68l-.22-.68zM307.46 257.7c-.34.11-.68.22-.58.56.1.34.22.67.56.56.34-.11.69-.22.58-.56.23-.45-.22-.67-.56-.56zM317.45 234c-.34.11-.68.22-.57.56.11.34.21.67.56.56.35-.11.68-.22.57-.56-.11-.34-.22-.71-.56-.56zM329.25 210c-1.13 0-1.82 1.34-1.84 2.46a2.66 2.66 0 002.47 1.8c1.14 0 1.83-1.33 1.84-2.45.01-1.12-1.34-1.81-2.47-1.81zM343.43 186.4a4.31 4.31 0 104.94 3.62c-.32-2.14-2.68-3.61-4.94-3.62zM359.49 166.28a5.51 5.51 0 00-4.48 5.93 5.27 5.27 0 0010.43-1.53 5 5 0 00-5.48-4.47l-.47.07zM378.33 151.22c-1.13 0-1.83 1.34-1.84 2.46-.01 1.12 1.34 1.8 2.47 1.81 1.13.01 1.83-1.34 1.84-2.46.01-1.12-1.34-1.8-2.47-1.81zM398.52 136.84c-.35.11-.69.22-.58.56.11.34.22.67.56.56.34-.11.68-.22.57-.55.24-.41-.21-.65-.55-.57zM420.05 123.14c-.23.45-.12.78.22.67-.11-.33.23-.45-.22-.67zM442.82 110.9c-.34.11-.68.22-.57.56.11.34.22.67.56.56.34-.11.68-.22.57-.56.23-.46-.22-.7-.56-.56zM466.61 100.57c-.68.22-.91.67-1 1.45.22.68.67.9 1.46 1 .68-.22.91-.67 1-1.45-.25-.66-.7-.88-1.46-1zM491.21 94.06c-.34.11-.68.22-.57.56.11.34.22.67.56.56.34-.11.68-.22.57-.56.23-.45-.22-.62-.56-.56zM516.61 89.9c-.23.45.11.34.11.34s.34-.11-.11-.34zM542.1 87.21a.71.71 0 10.9.45.78.78 0 00-.9-.45zM567.61 85.64a2.27 2.27 0 00-2.14 2.41 2 2 0 00.08.49 2.75 2.75 0 003 2.37 2.79 2.79 0 002.4-3c-.55-1.7-2.01-2.72-3.34-2.27zM593 88.55a2.79 2.79 0 00-2.4 3 2.75 2.75 0 003 2.37 2.78 2.78 0 002.41-3 2.42 2.42 0 00-3.01-2.37zM617.85 93.14a3.41 3.41 0 103.93 2.86 3.54 3.54 0 00-3.93-2.86zM641.88 99.86a4.45 4.45 0 00-3.67 4.9 4.355 4.355 0 008.61-1.31c.02-2.22-2.45-4.03-4.94-3.59zM665.53 110.06a4.66 4.66 0 105.39 3.84 4.56 4.56 0 00-5.15-3.88l-.24.04zM687.69 122.6a4.47 4.47 0 00-3.68 4.92 4.36 4.36 0 008.62-1.31c-.09-2.58-2.45-4.04-4.94-3.61zM708.69 137.39a3.94 3.94 0 104.73 3 4.52 4.52 0 00-4.73-3zM728.4 156.31c-1 .34-1.83 1.34-1.61 2 .33 1 1.34 1.8 2 1.57 1-.33 1.83-1.33 1.61-2a1.57 1.57 0 00-2-1.57zM745.75 173.76a3.06 3.06 0 103.48 2.6 2.8 2.8 0 00-2.89-2.69 2.9 2.9 0 00-.59.09zM761.37 194a2.79 2.79 0 00-2.41 3 2.75 2.75 0 003 2.36 2.27 2.27 0 002.15-2.4 2.09 2.09 0 00-.08-.5 2.31 2.31 0 00-2.13-2.46 2.37 2.37 0 00-.53 0zM774.61 213.94a4.11 4.11 0 104.83 3.27c-.31-2.13-2.56-3.21-4.83-3.27zM785.8 236.76a4.11 4.11 0 104.83 3.28 4.29 4.29 0 00-4.83-3.28zM794.81 261c-2.15.33-3.76 2.34-3.1 4.36a3.51 3.51 0 003.84 3.15 3.41 3.41 0 00.54-.1c2.15-.33 3.76-2.34 3.1-4.36A3.66 3.66 0 00795 261h-.19zM800.9 284.37a5.5 5.5 0 00-4.48 5.93 5.44 5.44 0 006 4.4 5.51 5.51 0 004.48-5.93 4.86 4.86 0 00-5.19-4.52 4.53 4.53 0 00-.81.12zM795.33 411a4.31 4.31 0 104.94 3.61c-.09-2.61-2.45-4.07-4.94-3.61zM786.7 434.27a4.91 4.91 0 10.16 0h-.16zM775.81 457.55a4.66 4.66 0 105.38 3.84 4.8 4.8 0 00-5.38-3.84zM762.55 479.37a5 5 0 00-3.94 5.39 4.75 4.75 0 005.39 3.83 5 5 0 003.9-5.36c-.72-2.38-3.19-4.23-5.35-3.86zM747.05 500.05a5 5 0 00-3.91 5.37c.09 2.58 2.79 3.94 5.39 3.84a4.79 4.79 0 003.91-5.37 4.58 4.58 0 00-5.17-3.88l-.22.04zM729.76 518.76a4.66 4.66 0 105.39 3.84 4.81 4.81 0 00-5.39-3.84zM710.35 534.33c-3.18.66-5.59 3.68-4.94 6.82a6 6 0 006.85 4.85c3.18-.66 5.58-3.68 4.94-6.82a6.21 6.21 0 00-6.85-4.85zM689.26 548.26a7.17 7.17 0 108.31 5.87 7.16 7.16 0 00-8.31-5.87zM667.26 562.86a5.56 5.56 0 106.4 4.62c-.3-3.25-3.11-4.95-6.4-4.62zM644.06 573.76a5.56 5.56 0 106.4 4.62c-.65-3.15-3.23-5.29-6.4-4.62zM619.75 582.39a5 5 0 105.86 4.07 4.94 4.94 0 00-5.67-4.1l-.19.03zM594.79 587.89c-3.17.66-5.35 3.23-4.71 6.38.64 3.15 3.23 5.28 6.4 4.62a5.69 5.69 0 004.71-6.37 5.19 5.19 0 00-6.4-4.63zM569.41 590.93c-3.18.65-5.59 3.67-4.94 6.82a6 6 0 006.85 4.85c3.17-.66 5.58-3.68 4.94-6.82a6 6 0 00-6.85-4.85zM543.49 591.15a6.47 6.47 0 102.026 12.78 6.47 6.47 0 00-2.026-12.78zM518 590.48a5.91 5.91 0 106.85 4.85 5.59 5.59 0 00-6.15-5 5.69 5.69 0 00-.7.15zM493 586.34a5.56 5.56 0 106.4 4.62 6.1 6.1 0 00-6.4-4.62zM468.25 579.84a5.56 5.56 0 106.4 4.62 5.66 5.66 0 00-6.4-4.62zM444.24 570.87c-3.17.66-5.35 3.23-4.71 6.38.64 3.15 3.23 5.28 6.4 4.62 3.17-.66 5.36-3.23 4.71-6.37a5.19 5.19 0 00-6.4-4.63zM421.28 559.33c-3.17.66-5.35 3.23-4.7 6.38.65 3.15 3.22 5.28 6.4 4.62 3.18-.66 5.35-3.23 4.7-6.37-.19-2.96-3.07-4.96-6.4-4.63zM399.7 546.23a5.22 5.22 0 106 4.4 5 5 0 00-6-4.4zM379.61 530.76a5 5 0 105.84 4.06 5.09 5.09 0 00-5.84-4.06zM361.13 513.32a5 5 0 105.84 4.06c-.19-2.92-2.97-4.62-5.84-4.06zM344.61 493.76a5 5 0 105.84 4.06 5.31 5.31 0 00-5.84-4.06zM330 473.14a5 5 0 105.84 4.06 4.71 4.71 0 00-5.84-4.06zM317.69 450.32a5.56 5.56 0 106.4 4.63 6.12 6.12 0 00-6.4-4.63zM307.61 426.39a6.26 6.26 0 107.3 5.07 6.39 6.39 0 00-7.3-5.07zM299.77 402.13a6.26 6.26 0 107.3 5.07 6.56 6.56 0 00-7.3-5.07zM266.9 385.61a2.51 2.51 0 102.92 2 2.29 2.29 0 00-2.92-2zM264.34 361.48c-.68.23-1.25.78-1 1.46.25.68.78 1.24 1.46 1 .68-.24 1.26-.78 1-1.45-.26-.67-.8-1.23-1.46-1.01zM263.82 336.69c-.34.12-.68.23-.57.56.11.33.21.68.56.57.35-.11.68-.23.57-.56.23-.45-.11-.34-.56-.57zM265.79 311.47c-.34.11-.68.22-.57.56.11.34.22.67.56.56.34-.11.68-.22.57-.56-.11-.34-.22-.67-.56-.56zM269.8 286.7c-.34.11-.34.11-.24.44.1.33.11.34.45.23.34-.11.35-.11.24-.45-.11-.34-.11-.33-.45-.22zM295.38 213.57a2 2 0 00-1.38 1.56 1.93 1.93 0 001.57 1.35 2 2 0 001.38-1.56c-.34-1.01-.89-1.58-1.57-1.35zM307.75 189.06a3.76 3.76 0 104.38 3 4.25 4.25 0 00-4.38-3zM321.92 166.57c-3.18.66-5.36 3.23-4.71 6.38.65 3.15 3.22 5.28 6.4 4.62 3.18-.66 5.35-3.23 4.71-6.37a5.21 5.21 0 00-5.61-4.76 5.42 5.42 0 00-.79.13zM338.43 146.68c-3.17.66-5.35 3.23-4.71 6.37.64 3.14 3.23 5.29 6.4 4.63a5.7 5.7 0 004.71-6.38c-.22-2.91-3.11-4.94-6.4-4.62zM357.27 131.62c-1.47.1-2.17 1.45-2.07 2.91.1 1.46 1.45 2.13 2.92 2 1.47-.13 2.17-1.45 2.07-2.91a3.52 3.52 0 00-2.92-2zM377.24 116.56c-.69.22-1.26.78-1 1.46.26.68.78 1.23 1.46 1 .68-.23 1.25-.78 1-1.45a1.59 1.59 0 00-1.46-1.01zM493.11 65.13c.11.34.45.22 0 0 .5.22.34-.13 0 0zM544.32 59.29c-.23.45.11.34.11.34l-.11-.34zM569.9 59.18a.71.71 0 10.9.45c-.45-.23-.56-.56-.9-.45zM595.11 61.42c-.68.22-1.25.78-1 1.45.25.67.78 1.24 1.46 1 .68-.24 1.25-.78 1-1.46.12-.76-.78-1.22-1.46-.99zM619.86 64.55a3 3 0 00-2.66 3.3 1 1 0 000 .17 3.091 3.091 0 006.12-.88 2.91 2.91 0 00-3.18-2.63l-.28.04zM644.34 71.5a3.41 3.41 0 103.93 2.82 3.25 3.25 0 00-3.61-2.87l-.32.05zM668.24 80.12a4.19 4.19 0 00-3.66 4.69v.23a4.42 4.42 0 004.94 3.61 4.311 4.311 0 00-1.26-8.53h-.02zM691 91a4.66 4.66 0 105.39 3.83c-.45-2.47-2.78-3.94-5.39-3.83zM712.77 105.89a3.41 3.41 0 103.93 2.82c-.32-2.13-1.89-3.49-3.93-2.82zM733.42 121.9a2.7 2.7 0 103 2.37c-.52-1.68-1.64-2.81-3-2.37zM752.44 141.05c-.34.11-.68.22-.57.56.11.34.22.67.56.56.34-.11.68-.22.57-.56.23-.44-.22-.67-.56-.56zM769.67 159.29c-.68.23-.91.67-.8 1 .22.67.67.9 1 .79.68-.22.91-.67.8-1 .24-.44-.32-1.01-1-.79zM785.17 180.33c-.23.45-.23.45.22.68.23-.45.23-.45-.22-.68zM798.61 200.92c-.68.22-.91.67-1 1.45.22.68.67.9 1.46 1 .69-.22.92-.67 1-1.46a1.21 1.21 0 00-1.46-.99zM791 488a4.66 4.66 0 105.39 3.84c-.78-2.35-2.92-4.26-5.39-3.84zM776 509.26a4.46 4.46 0 00-3.67 4.92 4.41 4.41 0 004.94 3.61 4.46 4.46 0 003.67-4.92c-.05-2.58-2.41-4.05-4.94-3.61zM759.75 528.76a4.31 4.31 0 101.273 8.525 4.31 4.31 0 00-1.273-8.525zM741.45 546.57a4.66 4.66 0 105.39 3.84 4.81 4.81 0 00-5.39-3.84zM721.48 561.63c-3.17.66-5.58 3.68-4.94 6.82a6 6 0 006.85 4.85c3.18-.66 5.59-3.67 4.94-6.82a5.74 5.74 0 00-6.48-4.91 2.38 2.38 0 00-.37.06zM700.16 576a6.26 6.26 0 107.3 5.08 6 6 0 00-6.72-5.18 5.86 5.86 0 00-.58.1zM678 587.69a7.17 7.17 0 108.31 5.87c-.9-3.8-4.48-6.75-8.31-5.87zM654.61 599.37c-3.17.66-5.58 3.67-4.94 6.82a6 6 0 006.85 4.85c3.18-.66 5.59-3.68 4.94-6.82a6 6 0 00-6.85-4.85zM630.22 607.67a6.27 6.27 0 107.3 5.08c-.75-3.48-3.78-5.85-7.3-5.08zM605.37 613.51a6.47 6.47 0 102.026 12.78 6.47 6.47 0 00-2.026-12.78zM579.87 617.33a7.24 7.24 0 00-6.08 7.94 6.89 6.89 0 0013.6-2.19c-.07-3.7-3.55-6.32-7.52-5.75zM554.39 618.9a7.17 7.17 0 108.31 5.87 7 7 0 00-7.92-5.94l-.39.07zM528.82 619a6.46 6.46 0 107.41 5.41 6.3 6.3 0 00-7-5.47l-.41.06zM503.39 616.1a6.36 6.36 0 10.12 0h-.12zM478.31 612a5.91 5.91 0 106.85 4.85 6 6 0 00-6.85-4.85zM453.83 605a5.56 5.56 0 106.4 4.63 5.66 5.66 0 00-6.4-4.63zM430.05 595.6a5.57 5.57 0 106.4 4.63 5.83 5.83 0 00-6.4-4.63zM407.2 584.4a5.21 5.21 0 106 4.4 5.5 5.5 0 00-6-4.4zM385.51 571a5.51 5.51 0 00-4.48 5.92 5.27 5.27 0 0010.43-1.52c-.19-2.96-3-4.64-5.95-4.4zM365.19 556a5 5 0 10.17 0h-.17zM346.37 538.6a5 5 0 105.84 4.06 5.3 5.3 0 00-5.84-4.06zM329 520a5 5 0 105.84 4.06A5.09 5.09 0 00329 520zM313.41 499.76a5 5 0 105.84 4.07c-.08-2.58-2.89-4.28-5.84-4.07zM300 478.06a5.36 5.36 0 106.29 4.29 5.51 5.51 0 00-6.29-4.29zM288.44 455.35c-3.18.66-5.36 3.23-4.71 6.38.65 3.15 3.22 5.28 6.4 4.62 3.18-.66 5.35-3.23 4.71-6.37a5.67 5.67 0 00-6.4-4.63zM279.07 432.32a5 5 0 105.84 4.06 5.17 5.17 0 00-5.84-4.06zM271.53 408a5 5 0 105.84 4.06 5.11 5.11 0 00-5.84-4.06zM238.68 390.31a2.16 2.16 0 102.47 1.81c.01-1.12-1-1.91-2.47-1.81zM236.11 366.19c-.34.11-.91.67-.8 1 .11.33.67.9 1 .79.33-.11.91-.67.8-1-.11-.33-.5-.57-1-.79zM235.36 341.84c-.23.45.11.34.11.34l-.11-.34zM236.43 316.16c-.23.45-.12.79.22.68.34-.11.34-.11-.22-.68.45.23.34-.11 0 0zM240 291.17c-.24.45.1.33.1.33l-.1-.33zM252.86 241.54c-.34.11-.34.11-.23.44.11.33.11.34.45.23.34-.11.34-.11.23-.45l-.45-.22zM262.17 218c-.34.11-.34.11-.23.45.11.34.11.34.45.23.34-.11.34-.11.23-.45-.11-.34-.11-.32-.45-.23zM273 192.16a3.21 3.21 0 103.82 2.48c-.12-1.46-2.03-2.7-3.82-2.48zM286.13 168.89a5 5 0 00-3.9 5.36c.42 2.47 2.78 3.94 5.39 3.84a4.79 4.79 0 003.9-5.37c-.42-2.47-2.78-3.96-5.39-3.83zM301.08 147.64A5.22 5.22 0 10307 152a5.21 5.21 0 00-5.92-4.36zM317.91 129.88a3.55 3.55 0 00-2.88 3.91 3.45 3.45 0 102.91-3.91h-.03zM335.76 111.76a3.41 3.41 0 103.93 2.82c.13-1.88-1.78-3.12-3.93-2.82zM355.61 96.39a2.16 2.16 0 102.47 1.81 1.9 1.9 0 00-2.47-1.81zM376.81 82.76c-.34.11-.68.22-.57.56.11.34.22.67.56.56.34-.11.68-.22.57-.56-.11-.34-.45-.18-.56-.56zM597.34 33.5a.712.712 0 10.42 1.36.77.77 0 00.46-.9c-.43-.2-.54-.57-.88-.46zM622 36.29c-1.47.11-2.51 1.56-2.3 3.36.1 1.46 1.56 2.47 3.37 2.26 1.47-.11 2.51-1.56 2.3-3.36-.12-1.46-1.58-2.47-3.37-2.26zM646.7 41.67a4.11 4.11 0 001.3 8.11h.18a3.86 3.86 0 003.33-4.8 4.27 4.27 0 00-4.81-3.31zM670.61 50.3a4.11 4.11 0 104.83 3.27 4 4 0 00-4.58-3.32l-.25.05zM693.91 60.61a4.66 4.66 0 105.39 3.83 4.56 4.56 0 00-5.16-3.87l-.23.04zM716.07 73.15a4.311 4.311 0 101.26 8.53 4.46 4.46 0 003.67-4.92 4.35 4.35 0 00-4.93-3.61zM737.52 88.16a3.55 3.55 0 00-2.91 3.91 3.5 3.5 0 004 2.82 3.41 3.41 0 00-.75-6.78h-.31l-.03.05zM757.91 106.87a.71.71 0 10.9.45.75.75 0 00-.9-.45zM776.39 124.33c-.34.11-.68.22-.57.56.11.34.22.67.56.56.34-.11.68-.22.57-.56-.11-.34-.11-.33-.56-.56zM793.27 143.81c-.24.44-.24.44.21.67.35-.11.24-.48-.21-.67zM789.18 538.14a4.46 4.46 0 00-3.67 4.92 4.16 4.16 0 004.6 3.66l.34-.05a4.45 4.45 0 003.67-4.92 4.33 4.33 0 00-4.94-3.61zM771.89 556.76a4.46 4.46 0 00-3.67 4.92 4.41 4.41 0 004.94 3.61 4.46 4.46 0 003.67-4.92 4.63 4.63 0 00-4.94-3.61zM752.92 573.76a5 5 0 105.84 4.06 4.91 4.91 0 00-5.58-4.11l-.26.05zM732.83 589.61a5 5 0 105.84 4.06 4.91 4.91 0 00-5.58-4.11l-.26.05zM711 602.3a6.27 6.27 0 107.3 5.08c-.3-3.26-3.69-5.51-7.3-5.08zM688.43 614.09a6.82 6.82 0 107.86 5.64 6.71 6.71 0 00-7.58-5.69l-.28.05zM665.23 625a6.82 6.82 0 107.86 5.65c-.87-3.84-4.35-6.44-7.86-5.65zM640.61 632.62a7.37 7.37 0 108.42 6.2c-.21-4.06-4.14-6.82-8.42-6.2zM616.07 639.47a7.17 7.17 0 108.31 5.86 7.46 7.46 0 00-8.31-5.86zM590.78 644a7.45 7.45 0 10.15 0h-.15zM565.18 646.31a7.6 7.6 0 00-6.31 8.39 7.45 7.45 0 106.36-8.4l-.05.01zM539.49 647.21a7.17 7.17 0 108.31 5.87 7.07 7.07 0 00-8-5.92l-.31.05zM513.92 646.21a6.47 6.47 0 107.41 5.41 6.3 6.3 0 00-7-5.47l-.41.06zM488.71 644a5 5 0 105.84 4.06c-.08-2.61-3-4.64-5.84-4.06zM464 638.59a4.66 4.66 0 105.39 3.84 4.81 4.81 0 00-5.39-3.84zM439.52 630.52a5 5 0 105.84 4.06 5.11 5.11 0 00-5.84-4.06zM416 620.66a5.36 5.36 0 106.3 4.29 5.52 5.52 0 00-6.3-4.29zM393 609.12a5.51 5.51 0 00-4.48 5.93 5.44 5.44 0 005.95 4.4 5.51 5.51 0 004.48-5.93c-.18-2.91-2.95-4.61-5.95-4.4zM371.43 596a4.87 4.87 0 101.25 9.65 4.78 4.78 0 003.91-5.36c-.08-2.53-2.59-4.37-5.16-4.29zM350.55 580.45a5.37 5.37 0 106.29 4.29 5.65 5.65 0 00-6.29-4.29zM331.61 563.89a5.56 5.56 0 106.4 4.62 5.66 5.66 0 00-6.4-4.62zM313.61 545.53c-3.17.66-5.35 3.23-4.71 6.37.64 3.14 3.23 5.28 6.4 4.62 3.17-.66 5.36-3.22 4.71-6.37a5.19 5.19 0 00-6.4-4.62zM297.61 526.5a5 5 0 10.17 0h-.17zM282.91 505.58a5 5 0 105.84 4.06 5.11 5.11 0 00-5.84-4.06zM270.24 484a5.4 5.4 0 00-4.24 5.48 5.34 5.34 0 005.5 4.17 4.79 4.79 0 003.9-5.37c.15-3.04-2.32-4.84-5.16-4.28zM259 459.76c-3.18.66-5.59 3.68-4.94 6.82a6 6 0 006.84 4.86c3.18-.66 5.59-3.68 4.95-6.82-.34-3.31-3.24-5.34-6.85-4.86zM250.16 437.24a4.66 4.66 0 105.39 3.84c-.43-2.47-2.45-4.08-5.39-3.84zM243.41 413a4.66 4.66 0 105.39 3.83 4.8 4.8 0 00-5.39-3.83zM210.45 395a2 2 0 102.38 1.54.64.64 0 000-.07 2.63 2.63 0 00-2.38-1.47zM207.77 370.55c-.68.22-.91.67-1 1.45.22.68.67.9 1.46 1 .68-.22.91-.67 1-1.45-.23-.66-1.01-.79-1.46-1zM206.68 346.32c-.23.45-.23.45.22.67-.11-.33.23-.44-.22-.67zM214.86 270.65c.14.35.45.22 0 0zM240 197.29a1.46 1.46 0 101.57 1.35c-.34-1.01-.9-1.57-1.57-1.35zM251.61 173.76a2.15 2.15 0 102.47 1.8 1.89 1.89 0 00-2.47-1.8zM265 150.07a4.314 4.314 0 001 8.57h.31a4.314 4.314 0 00-1-8.57H265zM280.11 129.49a4.31 4.31 0 104.94 3.61 4.42 4.42 0 00-4.94-3.61zM297.05 112.07c-1.13 0-1.82 1.34-1.84 2.46-.02 1.12 1.34 1.8 2.47 1.8 1.13 0 1.83-1.34 1.84-2.46-.33-1.01-1.45-2.11-2.47-1.8zM314.92 92.85a3 3 0 00-2.66 3.3 1 1 0 000 .17 3.17 3.17 0 003.47 2.59 3.22 3.22 0 002.65-3.46 2.93 2.93 0 00-3.19-2.64l-.27.04zM334.21 76.9c-1.47.1-2.16 1.45-2.06 2.9.1 1.45 1.44 2.14 2.92 2 1.48-.14 2.16-1.45 2.06-2.91a2.25 2.25 0 00-2.42-2.08 2.1 2.1 0 00-.5.09zM354.86 61.62c-1.47.11-2.16 1.45-2.06 2.91.1 1.46 1.44 2.13 2.92 2 1.48-.13 2.16-1.45 2.06-2.91a2.27 2.27 0 00-2.92-2zM377 49.6c-.34.11-.34.11-.57.56.11.34.11.34.56.56.34-.11.34-.11.57-.56a1.26 1.26 0 00-.56-.56zM399.48 37.81c-.23.45-.12.78.22.67-.11-.33.23-.48-.22-.67zM599.23 5.69c-.23.45-.12.78.22.67.34-.11.23-.44-.22-.67zM624.21 8.38a2 2 0 102.4 1.46 2.62 2.62 0 00-2.4-1.46zM648.94 12.63a4 4 0 101 7.86 4 4 0 10-1-7.86zM673 20.47a4.46 4.46 0 00-3.67 4.92 4.355 4.355 0 108.61-1.31c-.12-2.58-2.48-4.08-4.94-3.61zM696.51 30.33a5 5 0 00-3.9 5.37c.43 2.47 2.79 3.94 5.39 3.84a5 5 0 003.91-5.37 4.59 4.59 0 00-5.19-3.88l-.21.04zM719.36 41.54a4.78 4.78 0 00-3.91 5.36 5.35 5.35 0 005.5 4.18 5.42 5.42 0 004.25-5.48c-.88-2.7-3.35-4.5-5.84-4.06zM741.26 56.76a3 3 0 00-2.68 3.29v.19a2.91 2.91 0 003.16 2.64l.32-.05a3 3 0 002.66-3.3.78.78 0 000-.16 2.78 2.78 0 00-2.88-2.69 2.33 2.33 0 00-.58.08zM761.92 71.66a3 3 0 00-2.67 3.34 1.1 1.1 0 000 .18 3.09 3.09 0 106.12-.87 2.77 2.77 0 00-2.85-2.69 3.2 3.2 0 00-.6.04zM781.86 90.14a.77.77 0 00-.47.9.72.72 0 00.9.47.72.72 0 10-.43-1.37zM783.61 584.67a4.66 4.66 0 105.39 3.83 4.79 4.79 0 00-5.39-3.83zM764.27 601.76a4.66 4.66 0 105.39 3.84 4.58 4.58 0 00-5.17-3.88l-.22.04zM743.61 615.9a5.56 5.56 0 106.4 4.62c-.62-3.14-3.2-5.28-6.4-4.62zM721.88 628.93a6.46 6.46 0 107.41 5.41 6.24 6.24 0 00-6.93-5.48 4 4 0 00-.48.07zM699.23 640.38a7.17 7.17 0 108.31 5.87c-.86-3.82-4.45-6.75-8.31-5.87zM675.36 650.38a7.72 7.72 0 102.484 15.239 7.72 7.72 0 00-2.484-15.239zM651.39 658.91a7.37 7.37 0 108.42 6.2 7.59 7.59 0 00-8.42-6.2zM626.53 665.87a7.37 7.37 0 108.42 6.2 7.24 7.24 0 00-8.13-6.24l-.29.04zM601.61 671.37a7.17 7.17 0 108.31 5.87c-.92-3.82-4.49-6.75-8.31-5.87zM576.07 675.19a6.26 6.26 0 107.3 5.07 6.53 6.53 0 00-7.3-5.07zM550.7 677.1c-3.17.66-5.35 3.23-4.71 6.37.64 3.14 3.23 5.28 6.4 4.63 3.17-.65 5.36-3.23 4.71-6.38a5.66 5.66 0 00-6.4-4.62zM524.91 676.54a5.56 5.56 0 101.816 10.97 5.56 5.56 0 00-1.816-10.97zM499.61 675.08a4.46 4.46 0 00-3.67 4.92 4.35 4.35 0 103.67-4.92zM474.61 671.27a3.71 3.71 0 00-3.14 4.21v.16a3.803 3.803 0 007.49-1.32c-.63-2.02-2.2-3.32-4.35-3.05zM449.61 663.76a4.87 4.87 0 105.5 4.18 5.4 5.4 0 00-5.5-4.18zM425.1 655.7a5.38 5.38 0 00-4.25 5.47 4.77 4.77 0 005.39 3.84 5.41 5.41 0 004.25-5.48c.02-2.24-2.49-4.05-5.39-3.83zM401.61 644.76a5.91 5.91 0 106.85 4.85 6.25 6.25 0 00-6.85-4.85zM378.94 634.19a5 5 0 105.95 4.4c-.65-3.15-3.12-4.95-5.95-4.4zM357.34 622.21a3.41 3.41 0 103.93 2.82 3.53 3.53 0 00-3.93-2.82zM336.68 607.31a3.41 3.41 0 103.93 2.82 3.54 3.54 0 00-3.93-2.82zM316.74 588.83a5.565 5.565 0 001.69 11c3.18-.66 5.35-3.23 4.71-6.37a5.79 5.79 0 00-6.4-4.63zM298.61 571.26c-3.18.66-5.36 3.23-4.71 6.37.65 3.14 3.22 5.29 6.4 4.63 3.18-.66 5.35-3.23 4.71-6.38-.64-3.15-3.24-5.28-6.4-4.62zM281.83 552.12c-3.17.66-5.35 3.23-4.71 6.37.64 3.14 3.23 5.29 6.4 4.63 3.17-.66 5.36-3.23 4.71-6.37a5.65 5.65 0 00-6.4-4.63zM266.54 532.87a4.81 4.81 0 00-3.91 5.37 4.71 4.71 0 103.94-5.37h-.03zM253.17 513.76a2.1 2.1 0 00-1.86 2.31.77.77 0 000 .15 2.18 2.18 0 104.31-.66 1.89 1.89 0 00-2.47-1.8h.02zM241.09 490.48a3.21 3.21 0 103.82 2.48 3.45 3.45 0 00-3.82-2.48zM230.16 465a5.37 5.37 0 106.29 4.29c-.45-2.53-3.34-4.53-6.29-4.29zM221.81 442.76a3.76 3.76 0 104.38 3 3.85 3.85 0 00-4.38-3zM215.06 418.47a3.71 3.71 0 00-3.14 4.21v.16a3.8 3.8 0 103.12-4.37h.02zM182.11 399.38c-1.47.1-2.17 1.45-2.07 2.91.1 1.46 1.45 2.13 2.92 2 1.47-.13 2.17-1.45 2.07-2.91-.1-1.46-1.42-2.11-2.92-2zM179.21 374.24c-1.13 0-1.82 1.34-1.83 2.46-.01 1.12 1.33 1.8 2.47 1.81 1.14.01 1.82-1.34 1.83-2.46.01-1.12-1.33-1.8-2.47-1.81zM178.34 350.68c-.34.12-.34.12-.57.56.11.34.11.34.56.57.34-.11.34-.11.57-.56-.22-.68-.56-.57-.56-.57zM178.73 325.23c-.34.11-.34.11-.23.44.11.33.11.34.45.23.34-.11.34-.11.23-.45l-.45-.22zM181 299.89c-.23.45-.12.78.22.67l-.22-.67zM190.53 250.24c.11.34.34-.11 0 0zM218.13 178.69c-.23.45.11.34.11.34l-.11-.34zM230 155.07c-1 .34-1.59.9-1.26 1.91.33 1.01.89 1.57 1.91 1.24 1.02-.33 1.59-.89 1.26-1.9.09-1.12-.85-1.56-1.91-1.25zM244.09 133.38c-1 .33-1.6.89-1.27 1.9.33 1.01.89 1.57 1.91 1.24 1.02-.33 1.59-.89 1.27-1.9-.22-.68-1.23-1.47-1.91-1.24zM259.47 113.48c-.68.22-.92.67-1 1.45.22.67.67.9 1.46 1 .68-.22.92-.67 1-1.46a1.6 1.6 0 00-1.46-.99zM276 93.58a1.86 1.86 0 00-1.27 1.91 1.82 1.82 0 001.9 1.27c.69-.22 1.6-.89 1.27-1.9a2.38 2.38 0 00-1.9-1.28zM293.83 75.49c-.68.22-1.59.89-1.26 1.9a1.78 1.78 0 001.91 1.24c.68-.22 1.59-.89 1.26-1.9-.22-.67-.89-1.57-1.91-1.24zM313.14 58.41c-1 .33-1.59.89-1.26 1.9.33 1.01.88 1.58 1.91 1.25 1.03-.33 1.59-.89 1.26-1.91.12-.78-.89-1.57-1.91-1.24zM333.68 42.76c-1 .33-1.59.89-1.26 1.9.33 1.01.88 1.57 1.91 1.24 1.03-.33 1.59-.89 1.26-1.9a1.63 1.63 0 00-1.91-1.24zM355.1 29.88c-.34.11-.34.11-.57.56.11.33.11.33.56.56.34-.11.34-.11.57-.56-.22-.68-.22-.68-.56-.56zM377.3 17.08c-.34.11-.34.11-.23.44.11.33.11.34.45.23.34-.11.34-.11.23-.45a.34.34 0 00-.42-.23l-.03.01zM400.61 5.4a.77.77 0 00-.46.89.715.715 0 101.36-.44c-.32.15-.51-.56-.9-.45zM699.1.06a4.81 4.81 0 00-3.91 5.37 4.713 4.713 0 009.3-1.53A4.77 4.77 0 00699.1.06zM722.29 11.15a4.81 4.81 0 00-3.91 5.37 4.713 4.713 0 009.3-1.53 4.56 4.56 0 00-5.15-3.88l-.24.04zM744.45 23.7a4.78 4.78 0 00-3.91 5.36c.43 2.47 2.79 3.94 5.39 3.84a5 5 0 003.91-5.37 4.57 4.57 0 00-5.18-3.87l-.21.04zM766 37.92a4 4 0 104.5 3.43 4 4 0 00-4.5-3.43zM786.61 55.06a2.08 2.08 0 00-1.85 2.3.78.78 0 000 .16 2.07 2.07 0 002.29 1.83h.18A2.08 2.08 0 00789.1 57a.78.78 0 000-.16 2.66 2.66 0 00-2.49-1.78zM795.38 612.87a4.31 4.31 0 104.94 3.61 4.41 4.41 0 00-4.94-3.61zM775.61 628.6a4.87 4.87 0 10.87 9.7h.39a4.79 4.79 0 003.9-5.37 4.45 4.45 0 00-4.56-4.34l-.6.01zM754.55 642.53a5.56 5.56 0 106.4 4.62 6.12 6.12 0 00-6.4-4.62zM732.61 656c-3.18.66-5.59 3.68-4.94 6.83a6 6 0 006.85 4.85c3.17-.66 5.58-3.68 4.94-6.82a6 6 0 00-6.85-4.86zM709.61 666.45a7.17 7.17 0 108.31 5.87c-.44-3.56-4.37-6.41-8.31-5.87zM686.27 677a7.17 7.17 0 108.31 5.87c-.86-3.81-4.45-6.75-8.31-5.87zM661.85 685.31a7.72 7.72 0 102.484 15.239 7.72 7.72 0 00-2.484-15.239zM637.32 693.28a6.47 6.47 0 102.026 12.78 6.47 6.47 0 00-2.026-12.78zM612.36 698.76a6.47 6.47 0 107.41 5.42 6.25 6.25 0 00-6.92-5.5l-.49.08zM587 702.94c-3.18.66-5.58 3.67-4.94 6.82a6 6 0 006.85 4.85c3.18-.66 5.59-3.68 4.94-6.82a5.75 5.75 0 00-6.46-4.92l-.39.07zM561.37 705.29a5.37 5.37 0 106.29 4.29c-.53-2.82-3.35-4.5-6.29-4.29zM535.9 705.76a5 5 0 105.84 4.06c-.42-2.48-3.23-4.17-5.84-4.06zM510.45 705.08a4.31 4.31 0 104.94 3.61 4.42 4.42 0 00-4.94-3.61zM485.12 703.62c-1.14 0-1.83 1.34-1.84 2.46-.01 1.12 1.34 1.8 2.47 1.81 1.13.01 1.82-1.34 1.84-2.46.02-1.12-.98-1.91-2.47-1.81zM460.16 698.69c-1.13 0-1.82 1.34-1.84 2.46-.02 1.12 1.34 1.8 2.47 1.81 1.13.01 1.83-1.34 1.84-2.46a2.08 2.08 0 00-2.32-1.83l-.15.02zM435 689.76a4.31 4.31 0 104.94 3.61c-.06-2.61-2.42-4.08-4.94-3.61zM410.91 680.42a5 5 0 105.84 4.07 5.32 5.32 0 00-5.84-4.07zM387.38 669.44c-3.18.66-5.59 3.68-4.94 6.82a6 6 0 006.85 4.86c3.17-.66 5.58-3.68 4.94-6.83a6.22 6.22 0 00-6.85-4.85zM364.76 657.76c-3.18.66-5.59 3.68-4.94 6.82a6 6 0 006.85 4.86c3.17-.66 5.58-3.68 4.94-6.82a6 6 0 00-6.85-4.86zM343.37 647.61a2.71 2.71 0 103 2.38 2.78 2.78 0 00-3-2.38zM322.69 635c-.35.11-.92.67-.81 1 .11.33.67.9 1 .79.33-.11.91-.67.81-1 .13-.79-.32-1.03-1-.79zM302.51 616.92c-1.47.11-2.5 1.56-2.3 3.36.1 1.46 1.56 2.47 3.37 2.26 1.48-.11 2.51-1.56 2.3-3.36-.09-1.42-1.55-2.42-3.37-2.26zM283.5 596.65a5.92 5.92 0 106.85 4.86 5.76 5.76 0 00-6.49-4.92l-.36.06zM266.16 578.07a5.71 5.71 0 00-4.71 6.38c.64 3.14 3.22 5.28 6.4 4.62a5.7 5.7 0 004.71-6.37c-.2-2.94-3.12-4.94-6.4-4.63zM250.42 558.6a5.56 5.56 0 106.4 4.63 5.66 5.66 0 00-6.4-4.63zM236 538.69a5 5 0 00-3.91 5.37c.43 2.46 2.79 3.93 5.39 3.83a5 5 0 003.91-5.37 4.57 4.57 0 00-5.18-3.87l-.21.04zM223.46 519.68a1.463 1.463 0 00.19 2.92A2 2 0 00225 521a1.93 1.93 0 00-1.54-1.32zM211.83 496.64c-1 .33-1.83 1.33-1.61 2 .33 1 1.34 1.8 2 1.58 1-.33 1.82-1.34 1.61-2 .03-1.13-.83-1.58-2-1.58zM201.8 471.58a3.41 3.41 0 103.93 2.82 3.54 3.54 0 00-3.93-2.82zM193.61 448.55a2.78 2.78 0 00-2.41 3 2.75 2.75 0 003 2.37 2.8 2.8 0 002.41-3 2.6 2.6 0 00-2.79-2.39l-.21.02zM187.05 423.85a2.7 2.7 0 103 2.37 2.78 2.78 0 00-3-2.37zM154.11 403.63a2.71 2.71 0 103 2.38c-.5-1.69-1.64-2.82-3-2.38zM150.66 377.93a2.86 2.86 0 103.37 2.26c-.1-1.43-1.56-2.43-3.37-2.26zM149.45 353.36c-1.13 0-1.82 1.34-1.83 2.46a2.65 2.65 0 002.47 1.81c1.13 0 1.82-1.34 1.83-2.46a2.67 2.67 0 00-2.47-1.81zM149.5 328a2.15 2.15 0 102.47 1.8 1.87 1.87 0 00-1.86-1.89 1.81 1.81 0 00-.61.09zM151.61 303.13c-.68.22-1.6.89-1.27 1.9.22.67.89 1.57 1.91 1.24.68-.22 1.6-.89 1.27-1.9-.24-.68-1.25-1.47-1.91-1.24zM155.13 279.25c-.34.11-.34.11-.23.45.11.34.11.34.45.23.34-.11.34-.12.23-.45a.34.34 0 00-.44-.23h-.01zM222.89 115.68c-.23.44-.12.78.22.67-.11-.35.23-.45-.22-.67zM255.13 75.76c-.24.45-.13.79.21.68 0 0 .35-.11-.21-.68zM273.21 57.23c-.34.11-.68.22-.57.56.11.34.22.67.56.56.34-.11.68-.22.57-.55a1.24 1.24 0 00-.56-.57zM292.18 40.26c-.34.12-.68.23-.57.56.11.33.22.68.56.57.34-.11.68-.22.57-.56-.11-.34-.22-.68-.56-.57zM312.16 24.09c-.34.11-.91.67-.8 1 .11.33.67.9 1 .79.33-.11.91-.67.8-1 .13-.79-.32-1.01-1-.79zM333.37 9.37c-.34.11-.91.67-.8 1 .11.33.66.9 1 .79.34-.11.92-.67.81-1-.11-.33-.67-.9-1.01-.79zM769.61 6.2a3.54 3.54 0 00-3.2 3.83c.02.178.05.355.09.53a3.5 3.5 0 003.86 3.1 3 3 0 00.52-.1 3.54 3.54 0 003.2-3.83 4.51 4.51 0 00-.08-.53 3.85 3.85 0 00-4.39-3zM790.74 22.44c-1.13 0-1.82 1.34-1.83 2.46-.01 1.12 1.33 1.8 2.47 1.8 1.14 0 1.82-1.34 1.83-2.46.01-1.12-.99-1.91-2.47-1.8zM786.66 655.56a5 5 0 105.6 4.51c-.65-3.14-3.11-4.94-5.6-4.51zM765.23 669.6a5.37 5.37 0 106.29 4.29c-.52-2.8-3.35-4.5-6.29-4.29zM743.24 683.08a5.22 5.22 0 106 4.4 5 5 0 00-6-4.4zM720.7 694.87a5.5 5.5 0 00-4.47 5.93 5.44 5.44 0 006 4.4 5.5 5.5 0 004.47-5.93 5.24 5.24 0 00-6-4.4zM696.84 703.76a6.47 6.47 0 102.026 12.78 6.47 6.47 0 00-2.026-12.78zM672.42 712.05a7.17 7.17 0 108.31 5.87 7.24 7.24 0 00-8.31-5.87zM647.79 718.56a7.72 7.72 0 102.484 15.239 7.72 7.72 0 00-2.484-15.239zM623 724.4a7.74 7.74 0 00-6.56 8.76v.07a7.803 7.803 0 0015.42-2.4 8.25 8.25 0 00-8.86-6.43zM597.55 728.55a7.72 7.72 0 108.87 6.44c-.63-4.23-4.67-7.43-8.87-6.44zM572.27 733a5.37 5.37 0 106.29 4.29c-.43-2.43-3.35-4.46-6.29-4.29zM546.9 735a5 5 0 00-3.91 5.37c.43 2.47 2.79 3.94 5.39 3.84a5 5 0 003.91-5.37c-.88-2.74-2.9-4.32-5.39-3.84zM521 734.06a5 5 0 00-3.91 5.37 4.76 4.76 0 005.39 3.83 5 5 0 003.91-5.36 4.77 4.77 0 00-5.39-3.84zM495.77 732.94a3.21 3.21 0 103.82 2.48 3.45 3.45 0 00-3.82-2.48zM470.9 730.59a1.603 1.603 0 10.65 3.14c.68-.22 1.59-.89 1.26-1.9a1.63 1.63 0 00-1.91-1.24zM445.61 724.65c-1 .33-1.6.89-1.27 1.9.33 1.01.89 1.58 1.91 1.24 1.02-.34 1.6-.89 1.27-1.9.09-.78-.77-1.23-1.91-1.24zM421 717.37a1.83 1.83 0 102.36 1.47 1.76 1.76 0 00-1.95-1.56c-.14.01-.279.04-.41.09zM396.91 708.07a2.15 2.15 0 102.47 1.8c.02-1.11-.99-1.87-2.47-1.8zM373.29 695.63a4.31 4.31 0 104.94 3.61 4.55 4.55 0 00-4.94-3.61zM350.67 684a4.66 4.66 0 105.39 3.83 4.57 4.57 0 00-5.18-3.87l-.21.04zM329.17 673.46a2 2 0 102.38 1.53v-.07a2 2 0 00-2.38-1.46zM308.5 659.68c-.34.11-.92.67-.81 1 .11.33.67.9 1 .79.33-.11.92-.67.81-1-.11-.33-.66-.9-1-.79zM288.3 643.89c-.68.23-.91.67-.8 1 .22.67.67.9 1 .79.68-.22.91-.67.8-1 .24-.44-.3-1.01-1-.79zM268.94 623.76a4.31 4.31 0 104.94 3.61 4.2 4.2 0 00-4.69-3.65l-.25.04zM251.17 603.81c-3.18.66-5.36 3.23-4.71 6.37a5.66 5.66 0 006.4 4.62c3.17-.65 5.35-3.22 4.71-6.37a6.1 6.1 0 00-6.4-4.62zM234.61 585.34a5 5 0 106 4.4c-.68-3.14-3.15-4.98-6-4.4zM219.34 565a5 5 0 106 4.4c-.73-3.17-3.16-4.97-6-4.4zM205.87 544.39a4.11 4.11 0 104.83 3.27 4.57 4.57 0 00-4.83-3.27zM193.61 525.27c-.68.22-.91.67-.8 1 .22.67.67.9 1 .79.68-.22.91-.67.8-1 .26-.45-.3-1.01-1-.79zM182.9 502.68c-.34.11-.68.22-.57.56.11.34.22.67.56.56.34-.11.68-.22.57-.56-.11-.34-.46-.24-.56-.56zM173.32 479c-.34.12-.92.67-.81 1 .11.33.67.9 1 .79.33-.11.92-.67.81-1-.11-.33-.66-.93-1-.79zM165.32 454.38c-.68.22-1.25.78-1 1.45.25.67.78 1.24 1.46 1 .68-.24 1.25-.78 1-1.46-.25-.68-.66-.88-1.46-.99zM158.91 430c-.68.22-1.25.78-1 1.45.25.67.78 1.24 1.46 1 .68-.24 1.25-.78 1-1.45-.25-.67-.76-1.24-1.46-1zM126 409.76a.71.71 0 10.9.46l-.9-.46zM122.76 383.65a2 2 0 000 4 2.45 2.45 0 002.34-2.54 2 2 0 00-2.34-1.46zM120.79 356.76a3.41 3.41 0 101.06 6.73 3.41 3.41 0 00-.75-6.78l-.31.05zM120.61 330.7a4.11 4.11 0 104.83 3.27 4.6 4.6 0 00-4.83-3.27zM122.13 306.36a2.86 2.86 0 103.37 2.26 3.42 3.42 0 00-3.37-2.26zM125.55 283.27a.77.77 0 00-.46.9.71.71 0 10.46-.9zM162.74 162.41c-.23.45.11.34.11.34l-.11-.34zM271 21.44c-.11-.33-.34.11 0 0-.23.45-.23.45.22.68-.11-.34.23-.45-.22-.68zM290.87 4.93c-.34.11-.68.22-.57.56.11.34.21.67.56.56.35-.11.68-.22.57-.56.23-.49-.22-.67-.56-.56zM797.68 682.53a5.41 5.41 0 00-4.25 5.48 4.76 4.76 0 005.39 3.83 5.4 5.4 0 004.25-5.47c-.32-2.14-2.79-3.94-5.39-3.84zM776.36 696.91a4.78 4.78 0 00-3.91 5.36 4.92 4.92 0 009.75-1.3c-.88-2.7-3.35-4.5-5.84-4.06zM754.26 710.05a4.87 4.87 0 101.348 9.646 4.87 4.87 0 00-1.348-9.646zM731 720.6a5.91 5.91 0 106.85 4.85 6 6 0 00-6.85-4.85zM707.32 729a7.72 7.72 0 108.87 6.44 8.26 8.26 0 00-8.87-6.44zM683.13 736.88a8.77 8.77 0 10.15 0h-.15zM658.37 745.3a7.72 7.72 0 102.484 15.239 7.72 7.72 0 00-2.484-15.239zM633.41 750.76a8.07 8.07 0 109.32 6.66 8.28 8.28 0 00-9.32-6.66zM608.13 755.29a8.07 8.07 0 102.71 15.911 8.07 8.07 0 00-2.71-15.911zM582.74 758.33a8.26 8.26 0 10.07 0h-.07zM557.68 763.49a4.11 4.11 0 104.83 3.27 4.27 4.27 0 00-4.83-3.27zM532.31 765.4c-1.13 0-1.83 1.34-1.84 2.46-.01 1.12 1.34 1.8 2.47 1.8 1.13 0 1.83-1.33 1.84-2.46a1.93 1.93 0 00-2-1.87 1.84 1.84 0 00-.47.07zM507 765.07c-.34.11-.91.67-.8 1 .11.33.67.9 1 .79.33-.11.91-.67.8-1-.24-.68-.69-.86-1-.79zM481.53 762.15c-.34.11-.34.11-.57.56.11.34.11.34.56.57.34-.12.34-.12.57-.56-.09-.34-.21-.72-.56-.57zM456.35 757.67c-.34.11-.23.45 0 0-.23.45-.12.79.22.68l-.22-.68zM431.41 751.62c-.35.11-.35.11-.58.56.11.34.11.34.56.56.34-.11.34-.11.57-.56-.21-.67-.21-.67-.55-.56zM407.05 743.89c-.34.11-.34.11-.58.56.11.33.11.33.56.56.34-.11.34-.11.58-.56-.11-.33-.22-.69-.56-.56zM382.83 733.13a2.1 2.1 0 00-1.85 2.32v.14a2.17 2.17 0 101.83-2.46h.02zM359.3 722.15c-1.47.11-2.5 1.56-2.3 3.35.1 1.46 1.56 2.48 3.37 2.26 1.48-.1 2.51-1.56 2.3-3.35-.06-1.41-1.55-2.48-3.37-2.26zM336.79 710.84c-1.47.1-2.16 1.45-2.06 2.9.1 1.45 1.44 2.14 2.92 2 1.48-.14 2.16-1.45 2.06-2.91-.43-1.31-1.55-2.44-2.92-1.99zM314.76 697.51c-1.47.1-2.17 1.45-2.07 2.91.1 1.46 1.45 2.13 2.92 2 1.47-.13 2.17-1.45 2.07-2.91-.1-1.46-1.45-2.11-2.92-2zM294.29 685.53c-.1-.34-.34.11 0 0-.23.45.11.34.11.34l-.11-.34zM254.72 651.83c-.69.22-1.26.78-1 1.45.26.67.78 1.24 1.46 1 .68-.24 1.26-.77 1-1.45-.26-.68-.67-.89-1.46-1zM236.37 632.46a2.86 2.86 0 10.76 5.67 1.7 1.7 0 00.31-.06 2.51 2.51 0 002.45-2.57 3.41 3.41 0 00-3-3.15 3.12 3.12 0 00-.52.11zM219 611.29a5 5 0 105.61 4.52c-.25-2.92-2.72-4.73-5.61-4.52zM203.61 593.17a3.21 3.21 0 103.82 2.49 3.45 3.45 0 00-3.82-2.49zM189 572.58a3.06 3.06 0 103.48 2.6 2.92 2.92 0 00-3.17-2.64 1.55 1.55 0 00-.31.04zM175.7 551.22a2.5 2.5 0 102.92 2c-.01-1.09-1.45-2.11-2.92-2zM164.27 530a1.46 1.46 0 101.57 1.35c-.33-1.04-.84-1.59-1.57-1.35zM153.77 506.93c-.68.22-1.25.78-1 1.45.25.67.78 1.24 1.46 1 .68-.24 1.25-.78 1-1.45-.25-.67-.77-1.17-1.46-1zM144.52 484.23c-.24.45.11.34.11.34s.34-.11-.11-.34c.48.23.34-.11 0 0zM137.08 460.2c-.23.45.11.34.11.34l-.11-.34zM130.9 435.39c-.23.44.11.33.11.33l-.11-.33zM94.51 389.47c-.34.11-.34.11-.57.56.11.33.11.33.56.56.34-.11.34-.11.57-.56-.07-.33-.21-.67-.56-.56zM92.66 362.88c-1 .33-1.6.89-1.27 1.9.33 1.01.89 1.57 1.91 1.24 1.02-.33 1.59-.89 1.27-1.9a2.36 2.36 0 00-1.91-1.24zM91.93 336.29a2.86 2.86 0 101.07 5.62 2.51 2.51 0 002.45-2.57 2.63 2.63 0 00-.15-.79c-.1-1.46-1.56-2.47-3.37-2.26zM93.33 311.63c-1.13 0-1.83 1.33-1.84 2.45-.01 1.12 1.34 1.81 2.47 1.81 1.13 0 1.83-1.34 1.84-2.46a2.66 2.66 0 00-2.47-1.8zM95.85 288.08c-.34.11-.34.11-.57.56.11.34.11.34.56.56.34-.11.34-.11.57-.55.23-.44-.22-.65-.56-.57zM129.55 165.76c-.23.45-.12.78.22.67.34-.11.23-.45-.22-.67.45.24.34-.12 0 0zM787 724a4.47 4.47 0 00-3.68 4.92 4.36 4.36 0 008.62-1.31c-.05-2.61-2.41-4.06-4.94-3.61zM765.05 737.46a3.76 3.76 0 104.38 3 4.27 4.27 0 00-4.38-3zM741.61 747.68a5 5 0 105.84 4.06c-.18-2.92-2.99-4.61-5.84-4.06zM717.77 756.55a6 6 0 00-5.28 6.65c0 .21.06.41.11.62.75 3.48 3.78 5.85 7.3 5.08a6 6 0 005.28-6.65c0-.21-.06-.41-.11-.62-.31-3.26-3.68-5.51-7.3-5.08zM693.61 764.41a7.17 7.17 0 108.31 5.87c-.45-3.59-4.38-6.42-8.31-5.87zM670 777.65c-.68.23-1.6.9-1.27 1.91.22.67.89 1.57 1.91 1.24.68-.22 1.6-.89 1.27-1.9-.21-.68-.91-1.58-1.91-1.25zM645.27 783.83c-.68.22-1.59.89-1.26 1.9a1.57 1.57 0 001.85 1.25h.06c.68-.22 1.59-.89 1.26-1.9-.18-.68-1.18-1.47-1.91-1.25zM620 788.32c-1 .33-1.6.89-1.27 1.9.33 1.01.89 1.54 1.89 1.24 1-.3 1.6-.89 1.27-1.9a2.37 2.37 0 00-1.89-1.24zM594.37 791.76c-1 .33-1.82 1.34-1.6 2 .33 1 1.34 1.8 2 1.58 1-.33 1.82-1.34 1.6-2a1.55 1.55 0 00-1.47-1.64 1.57 1.57 0 00-.53.06zM568.88 794.49c-.34.11-.91.67-.8 1 .11.33.67.9 1 .79.33-.11.91-.67.8-1 .24-.44-.27-1.01-1-.79zM543.42 795c-.69.22-.92.66-.81 1 .22.68.67.9 1 .79.68-.22.92-.67.81-1-.11-.33-.66-.96-1-.79zM517.84 795.06c-.23.45.11.34.11.34l-.11-.34zM492.18 792.59c-.34.12-.34.12-.23.45.11.33.11.34.45.23.34-.11.34-.11.23-.45-.11-.34-.11-.34-.45-.23zM466.87 788.9c-.23.44-.12.78.22.67-.09-.34.23-.45-.22-.67zM441.81 783.63c-.24.45-.13.79.21.67a.48.48 0 00-.18-.65l-.03-.02zM417.09 777.13c-.23.45.11.34 0 0zM392.61 767.94c-.68.22-1.26.78-1 1.46.26.68.78 1.23 1.46 1 .68-.23 1.26-.78 1-1.45a1.91 1.91 0 00-1.46-1.01zM368.1 756.17a4 4 0 104.51 3.41c0-2.27-2.36-3.74-4.51-3.41zM345.43 749c-.34.11-.68.22-.57.56.11.34.22.67.56.56.34-.11.68-.22.57-.56.23-.44-.22-.66-.56-.56zM322.7 737a.71.71 0 10.9.45c-.11-.31-.22-.69-.9-.45zM301 724.7c-.24.45.11.34.11.34s.23-.45-.11-.34zM221.69 660.32a.71.71 0 10.9.45.78.78 0 00-.9-.45zM204.37 640.62c-.68.22-1.6.89-1.27 1.9.22.67.89 1.57 1.91 1.24.68-.22 1.6-.89 1.27-1.9-.22-.67-1.23-1.46-1.91-1.24zM187.74 619.57a3.21 3.21 0 103.87 2.49 3.47 3.47 0 00-3.87-2.49zM173 600.89c-.68.22-1.25.78-1 1.45.25.67.78 1.24 1.46 1 .68-.24 1.25-.78 1-1.45-.25-.67-.67-.89-1.46-1zM159 579.76c-.69.23-.92.67-1 1.46.22.67.67.9 1.46 1 .68-.22.91-.66 1-1.45-.24-.68-.69-.91-1.46-1.01zM146.31 558.16a.71.71 0 10.9.45.75.75 0 00-.9-.45zM134.79 535.45a.71.71 0 10.9.45l-.9-.45zM124.61 512.3a.71.71 0 10.9.45.78.78 0 00-.9-.45zM64.52 369c-.23.45-.23.45.22.67l-.22-.67zM63.67 343.24a.71.71 0 10.9.45.75.75 0 00-.9-.45zM64.52 318c-.35.11-.69.22-.58.56.11.34.22.67.56.56.34-.11.68-.22.57-.56.24-.44-.21-.66-.55-.56zM118.7 123.08c-.23.45.11.34.11.34l-.11-.34zM798.27 752.76a2.11 2.11 0 00-1.86 2.33v.13a2.09 2.09 0 002.3 1.84h.17a2.162 2.162 0 00-.45-4.3h-.18.02zM775.72 765.66c-1 .33-1.82 1.34-1.61 2 .33 1 1.34 1.8 2 1.58 1-.33 1.83-1.34 1.61-2 .03-1.12-.87-1.58-2-1.58zM752.74 777.22c-.69.23-1.6.89-1.27 1.91.22.67.89 1.57 1.91 1.24.68-.22 1.59-.89 1.27-1.9a1.83 1.83 0 00-1.91-1.25zM729.42 787.76c-.68.22-1.25.78-1 1.45.25.67.78 1.24 1.46 1 .68-.24 1.25-.78 1-1.45-.25-.67-.78-1.2-1.46-1zM705.22 796.76c-.68.22-1.25.78-1 1.45.25.67.77 1.24 1.46 1s1.25-.78 1-1.45c-.25-.67-.78-1.22-1.46-1zM554.3 823.82c-.34.11-.23.44 0 0-.23.44-.12.78.22.67l-.22-.67zM528.61 823.6c-.34.11-.23.44 0 0-.23.44-.12.78.22.67l-.22-.67zM502.94 822.25c-.23.45.11.34.11.34s.34-.11-.11-.34zM477.51 819.34c-.23.45.11.34.11.34l-.11-.34zM378.11 792.76c-.68.22-1.6.89-1.27 1.9.22.67.89 1.57 1.91 1.24.68-.22 1.6-.89 1.27-1.9a2.36 2.36 0 00-1.91-1.24zM354.77 784.76c-.34.11-.34.11-.23.44.11.33.11.34.45.23.34-.11.34-.11.23-.45a.34.34 0 00-.42-.23l-.03.01zM331.24 773.76c-.34.11-.68.22-.57.55.11.33.22.68.56.57.34-.11.68-.22.57-.56.2-.47-.19-.7-.56-.56zM308.61 762.09c-.34.11-.34.11-.23.44.11.33.11.34.45.23.34-.11.34-.11.23-.45a.34.34 0 00-.42-.23l-.03.01zM189.47 667.81c-.23.45-.12.78.22.67l-.22-.67zM172.49 648c-.34.11-.91.67-.8 1 .11.33.66.9 1 .79.34-.11.91-.67.8-1 .12-.79-.32-1.03-1-.79zM156.76 627.4c-.68.22-1.26.78-1 1.46.26.68.78 1.23 1.46 1 .68-.23 1.26-.78 1-1.45a1.91 1.91 0 00-1.46-1.01zM142.27 607.15c-.34.11-.91.67-.81 1 .1.33.67.9 1 .79.33-.11.92-.67.81-1-.21-.67-.66-.94-1-.79zM129 586.12c-.23.45-.12.79.22.68l-.22-.68zM786.61 793.41c-.34.11-.68.22-.57.56.11.34.22.67.56.56.34-.11.68-.22.57-.56.24-.45-.17-.67-.56-.56zM763.53 804.64c-.35.11-.69.22-.58.56.11.34.22.67.56.56.34-.11.68-.22.58-.56.23-.44-.22-.67-.56-.56zM740.1 814.86c-.34.11-.23.44 0 0-.23.44-.12.78.22.67l-.22-.67zM539.29 851.76c-.68.22-.92.67-.81 1 .22.67.67.9 1 .79.68-.22.92-.67.81-1 .13-.79-.29-.98-1-.79zM513.72 850.76c-.68.22-.91.67-.8 1 .22.68.67.9 1 .79.68-.22.91-.67.8-1 .13-.79-.66-.87-1-.79zM488.28 849c-.34.12-.23.45 0 0-.23.45-.12.79.22.68l-.22-.68zM364.13 819.3c-.24.45.11.34.11.34l-.11-.34zM317.05 798.46c-.34.11-.68.22-.57.56.11.34.22.67.56.56.34-.11.68-.22.57-.56.23-.44-.22-.67-.56-.56zM294.54 787.15c-.23.45.11.34.11.34s.35-.11-.11-.34zM272.61 774.16c-.23.44.11.33.11.33s.28-.44-.11-.33zM251.39 759.82c-.23.45-.13.79.22.68a.5.5 0 00-.19-.67l-.03-.01zM192.39 711.56c-.34.11-.23.44 0 0zM156.92 674.29c-.34.11-.34.11-.57.56.11.33.11.33.56.56.34-.11.34-.11.57-.56.23-.45-.11-.34-.56-.56zM140.85 653.81a1.46 1.46 0 101.57 1.35 1.24 1.24 0 00-1.07-1.39 1.2 1.2 0 00-.5.04zM126 633.66c-.34.12-.91.67-.8 1 .11.33.67.9 1 .79.33-.11.91-.67.8-1-.11-.33-.64-.9-1-.79zM112 612.52c-.34.11-.91.67-.8 1 .11.33.67.9 1 .79.33-.11.91-.67.8-1-.21-.68-.66-.9-1-.79zM99.1 591.38c-.23.44.11.33 0 0zM6.53 352.86c.11.34.35-.11 0 0zM524.38 880.11c-.34.11-.34.11-.57.55.11.34.11.34.56.57.34-.11.34-.11.57-.56.23-.45-.22-.67-.56-.56zM258.32 798.55c-.23.44-.23.44.22.67 0 0 .34-.11-.22-.67.45.21.34-.11 0 0zM216.54 769.65c-.23.45.11.35 0 0zM196.68 753.76c-.23.45.11.34 0 0zM159 719.05c-.23.45.11.33.11.33.45.23.34-.11-.11-.33.49.22.38-.11 0 0zM125.4 680.43a.77.77 0 00-.46.9.715.715 0 101.36-.44l-.9-.46zM109.45 659.17a2.15 2.15 0 102.47 1.8 1.79 1.79 0 00-2.47-1.8zM95.29 639.93c-.34.11-.34.11-.58.55.11.34.11.34.56.57.34-.11.34-.11.58-.56-.11-.34-.24-.67-.56-.56zM81.83 618.22c-.34.11-.34.11-.57.56.11.34.11.34.56.56.34-.11.34-.11.57-.56a1.26 1.26 0 00-.56-.56zM144.28 744.33c-.34.11-.34.11-.23.45.11.34.11.34.45.23.34-.11.34-.11.23-.45l-.45-.23zM126.71 726.2c-.34.11-.34.11-.23.45.11.34.11.33.45.22.34-.11.34-.11.23-.44l-.45-.23zM109.94 707.06c-.23.45-.12.79.22.67l-.22-.67zM93.87 686.58c-.68.22-.91.67-1 1.45.22.68.67.9 1.46 1 .68-.22.91-.67 1-1.46-.22-.65-.78-1.21-1.46-.99zM78.61 665.09a2 2 0 102.39 1.54.64.64 0 000-.07 2.63 2.63 0 00-2.39-1.47zM64.61 645.07c-.34.11-.91.67-.8 1 .11.33.67.9 1 .79.33-.11.91-.67.8-1 .19-.45-.37-1.02-1-.79zM111.72 751.93c-.24.45.11.34.11.34l-.11-.34zM94.38 733.35c-.23.45.11.34.11.34.34-.11.34-.11-.11-.34zM78.08 713.32a.71.71 0 00.34 1.38h.09a.77.77 0 00.47-.9.75.75 0 00-.9-.48zM62.47 691.94c-.68.22-1.6.89-1.27 1.9.22.68.89 1.58 1.91 1.24.68-.22 1.6-.89 1.27-1.9a2.36 2.36 0 00-1.91-1.24zM48.09 672c-.34.11-.92.67-.81 1 .11.33.67.9 1 .79.33-.11.92-.67.81-1 .13-.79-.32-1.03-1-.79zM34.51 651.11c-.23.44-.12.78.22.67a.47.47 0 00-.19-.65l-.03-.02zM46.55 719.46c-.34.11-.68.22-.57.56.11.34.22.68.56.56.34-.12.68-.22.57-.55-.11-.33-.22-.68-.56-.57zM31.84 698.54c-.34.11-.91.67-.8 1 .11.33.67.9 1 .79.33-.11.91-.67.8-1-.11-.33-.66-.9-1-.79zM1.21 705.14c-.34.11-.21.44 0 0z"/></g></svg>