<svg xmlns="http://www.w3.org/2000/svg" width="807" height="882"><path fill="#1C2B39" d="M548.88 336.46a6.27 6.27 0 1 0 7.3 5.08 6.55 6.55 0 0 0-7.3-5.08zm-28.27 4.7c-3.18.66-5.59 3.68-4.94 6.82a6 6 0 0 0 6.85 4.85c3.17-.66 5.58-3.67 4.94-6.82-.26-3.25-3.53-5.17-6.85-4.85zm7.3-22.85c-3.17.66-5.35 3.23-4.7 6.37.65 3.14 3.22 5.29 6.4 4.63a5.7 5.7 0 0 0 4.7-6.37 5.19 5.19 0 0 0-6.4-4.63zm22.97-9.31a5.56 5.56 0 1 0 6.4 4.62 5.21 5.21 0 0 0-5.62-4.75 7 7 0 0 0-.78.13zm21.59 12a5.56 5.56 0 1 0 6.4 4.63 5.19 5.19 0 0 0-6.4-4.63zm3.82 23.31a6.27 6.27 0 1 0 7.3 5.08 6.87 6.87 0 0 0-7.3-5.08zm-16.95 18.55a6.27 6.27 0 1 0 1.7 12.42l.43-.07c3.52-.77 5.92-3.79 5.17-7.27a5.93 5.93 0 0 0-7.3-5.08zm-24.54-1.34c-3.18.66-5.59 3.68-4.94 6.82a6 6 0 0 0 6.85 4.85c3.17-.65 5.58-3.67 4.94-6.82a5.76 5.76 0 0 0-6.5-4.91l-.35.06zm-42.38-15.66a5.92 5.92 0 1 0 6.85 4.85 6.26 6.26 0 0 0-6.85-4.85zm1.74-24.78c-3.17.66-5.35 3.23-4.71 6.38.64 3.15 3.23 5.28 6.4 4.62a5.7 5.7 0 0 0 4.76-6.32 5.19 5.19 0 0 0-5.53-4.83c-.31.02-.619.07-.92.15zM507 299c-3.17.66-5.35 3.23-4.71 6.37.64 3.14 3.23 5.29 6.4 4.63 3.17-.66 5.36-3.23 4.71-6.37A5.65 5.65 0 0 0 507 299zm20.94-14.24a5.36 5.36 0 1 0 6.29 4.28 5.5 5.5 0 0 0-6.29-4.28zm25.16-3.69a5 5 0 1 0 5.84 4.06 5.3 5.3 0 0 0-5.84-4.06zm24.25 7.39a5 5 0 0 0-4.24 5.48 5.1 5.1 0 1 0 4.63-5.53l-.39.05zm18.84 16.24a5.56 5.56 0 1 0 6.4 4.62 5.69 5.69 0 0 0-6.4-4.62zm9.47 23.37a5.56 5.56 0 1 0 6.4 4.62 5.69 5.69 0 0 0-6.4-4.62zM603.61 353c-3.17.66-5.58 3.67-4.94 6.82a6 6 0 0 0 6.85 4.85c3.18-.66 5.59-3.68 4.94-6.82a5.53 5.53 0 0 0-6-5 6 6 0 0 0-.85.15zm-12.49 21.89c-3.17.66-5.58 3.67-4.94 6.82a6 6 0 0 0 6.85 4.85c3.18-.66 5.59-3.68 4.94-6.82a6 6 0 0 0-6.85-4.85zM570 389.94a5.36 5.36 0 1 0 .17 0H570zm-24.92 4.38a5 5 0 1 0 5.84 4.06 4.93 4.93 0 0 0-5.66-4.09l-.18.03zm-24.36-7.73a5.56 5.56 0 1 0 6.4 4.62c-.65-3.14-3.23-5.28-6.4-4.62zM502 369.57a5.56 5.56 0 1 0 6.4 4.63 5.7 5.7 0 0 0-6.4-4.63zm-37.81-19.01c-3.17.66-5.58 3.68-4.94 6.82a6 6 0 0 0 6.85 4.86c3.18-.66 5.59-3.68 4.94-6.82a6 6 0 0 0-6.85-4.86zm-.06-25.68c-3.17.66-5.58 3.68-4.94 6.82a6 6 0 0 0 6.85 4.85c3.18-.66 5.59-3.68 4.94-6.82a6.21 6.21 0 0 0-6.85-4.85zm7.39-23.63a5.56 5.56 0 1 0 6.4 4.62 5.19 5.19 0 0 0-6.4-4.62zm14.15-21.37a5.72 5.72 0 0 0-4.71 6.38 5.623 5.623 0 0 0 11.11-1.75c-.19-2.92-3.07-4.95-6.4-4.63zM505.76 264a5.56 5.56 0 1 0 6.4 4.63 5.85 5.85 0 0 0-6.4-4.63zm23.64-9.5a5.56 5.56 0 1 0 6.4 4.62 5.79 5.79 0 0 0-6.4-4.62zm25.82-1.69a5 5 0 1 0 5.84 4.07 5.17 5.17 0 0 0-5.84-4.07zm24.84 5.72a4.84 4.84 0 1 0 5.84 4.06 5 5 0 0 0-5.78-4.07l-.06.01zm22.15 12.54a5 5 0 0 0-3.9 5.37c.42 2.47 2.78 3.94 5.39 3.84a5 5 0 0 0 3.9-5.37 4.77 4.77 0 0 0-5.39-3.84zm17.68 18.47a4.79 4.79 0 0 0-3.9 5.37c.42 2.47 2.78 3.94 5.39 3.84a5 5 0 0 0 3.9-5.37c-.77-2.38-2.89-4.27-5.39-3.84zM631 312a4.67 4.67 0 1 0 5.39 3.84A4.81 4.81 0 0 0 631 312zm3.77 24.49a5.36 5.36 0 1 0 6.29 4.29 5.51 5.51 0 0 0-6.29-4.29zm-3.88 23.99a6.26 6.26 0 1 0 7.3 5.07 6.56 6.56 0 0 0-7.3-5.07zM620 383.76c-3.17.66-5.58 3.68-4.94 6.82a6 6 0 0 0 6.85 4.85c3.18-.66 5.59-3.68 4.94-6.82a6.21 6.21 0 0 0-6.85-4.85zm-17.08 19.33a5.36 5.36 0 1 0 6.29 4.29 6.07 6.07 0 0 0-6.29-4.29zm-22.1 13.14a5 5 0 1 0 5.84 4.06 5.3 5.3 0 0 0-5.84-4.06zm-25.07 6.28a5 5 0 1 0 .17 0h-.17zm-25.45-1.75a5 5 0 1 0 5.84 4.07 5.1 5.1 0 0 0-5.84-4.07zm-23.69-9.11a5 5 0 1 0 5.84 4.06c-.4-2.47-3.21-4.16-5.84-4.06zm-20.28-16.13a5.92 5.92 0 1 0 6.85 4.86 6 6 0 0 0-6.85-4.86zM472 374.49a5.91 5.91 0 1 0 6.85 4.85 6.27 6.27 0 0 0-6.85-4.85zm-36.26-19.9a6.27 6.27 0 1 0 7.3 5.08c-.3-3.25-3.67-5.51-7.3-5.08zm-1.08-25.35a6.27 6.27 0 1 0 7.3 5.08 6.54 6.54 0 0 0-7.3-5.08zm4.95-24.32c-3.18.66-5.36 3.23-4.71 6.37.65 3.14 3.22 5.29 6.4 4.63a5.71 5.71 0 0 0 4.71-6.37 6.12 6.12 0 0 0-6.4-4.63zm10.17-23.06a5.36 5.36 0 1 0 6.29 4.29 5.51 5.51 0 0 0-6.29-4.29zm14.94-21.25a5.92 5.92 0 1 0 6.85 4.86 6.22 6.22 0 0 0-6.85-4.86zm19.53-16.4a5.56 5.56 0 1 0 6.4 4.63 5.85 5.85 0 0 0-6.4-4.63zm22.54-11.79a5.21 5.21 0 1 0 5.95 4.4 5.5 5.5 0 0 0-5.95-4.4zm24.62-6.51a4.87 4.87 0 1 0 5.45 4.21 2.32 2.32 0 0 0-.06-.38c.03-2.24-2.55-4.38-5.39-3.83zm25.59-1.24a5.4 5.4 0 0 0-4.24 5.48 5.34 5.34 0 0 0 5.5 4.17 4.79 4.79 0 0 0 3.9-5.37c.26-2.69-2.16-4.49-5.16-4.28zm25.19 4.48a5.41 5.41 0 0 0-4.25 5.48 4.92 4.92 0 0 0 9.75-1.3c-.2-2.92-2.56-4.39-5.5-4.18zm23.54 9.85a4.79 4.79 0 0 0-3.9 5.37 5.34 5.34 0 0 0 5.5 4.17 5.4 5.4 0 0 0 4.24-5.48 5.3 5.3 0 0 0-5.84-4.06zm20.77 15.24a5 5 0 0 0-3.91 5.37c.43 2.47 2.79 3.94 5.39 3.83a5 5 0 0 0 3.91-5.36 4.74 4.74 0 0 0-5.39-3.84zm16.88 19.52a4.31 4.31 0 1 0 4.94 3.61 4.21 4.21 0 0 0-4.71-3.65l-.23.04zm11.76 21.09a5.85 5.85 0 0 0-4.71 6.38 5.623 5.623 0 1 0 11.11-1.75 5.19 5.19 0 0 0-6.4-4.63zm6.86 23.47a6.27 6.27 0 1 0 7.3 5.08 6.41 6.41 0 0 0-7.3-5.08zm1.09 25.36a6.26 6.26 0 1 0 7.3 5.08 6.86 6.86 0 0 0-7.3-5.08zm-4.68 24.99a6.27 6.27 0 1 0 7.3 5.08 6.41 6.41 0 0 0-7.3-5.08zm-10.1 23.4a6.26 6.26 0 1 0 7.3 5.08 6.41 6.41 0 0 0-7.3-5.08zM633 412.3a6.83 6.83 0 0 0-5.75 7.76v.07a6.89 6.89 0 0 0 13.6-2.19c-.85-3.81-4.3-6.41-7.85-5.64zm-18.95 18.09a5.36 5.36 0 1 0 6.29 4.29 5.5 5.5 0 0 0-6.29-4.29zm-22.64 11.46c-3.18.66-5.59 3.67-4.94 6.82a6 6 0 0 0 6.85 4.85c3.17-.66 5.58-3.68 4.94-6.82a6 6 0 0 0-6.85-4.85zm-24.86 6.96a5.56 5.56 0 1 0 6.4 4.62c-.2-2.91-3.12-4.95-6.4-4.62zm-25.37 1.95a5.21 5.21 0 1 0 6 4.4c-.7-3.16-3.18-4.99-6-4.4zm-25.08-4.19a5 5 0 1 0 6 4.4c-1.03-3.03-3.49-4.84-6-4.4zm-23.65-10.19a5 5 0 1 0 5.84 4.06c-.43-2.44-3.24-4.17-5.84-4.06zm-20.66-14.9a5.22 5.22 0 1 0 5.95 4.4 5.21 5.21 0 0 0-5.95-4.4zM454.92 402a5.56 5.56 0 1 0 6.4 4.62 5.69 5.69 0 0 0-6.4-4.62zm-12.21-22.48a5.56 5.56 0 1 0 6.4 4.63c-.19-2.92-3.11-4.95-6.4-4.63zm-34.96-20.67a6.46 6.46 0 1 0 7.41 5.41 6.69 6.69 0 0 0-7.41-5.41zM406 333.76a6.27 6.27 0 1 0 7.3 5.08 6.87 6.87 0 0 0-7.3-5.08zm3-24.48a5.56 5.56 0 1 0 6.4 4.62 5.21 5.21 0 0 0-5.62-4.75 7 7 0 0 0-.78.13zm7.61-24.08a5 5 0 1 0 5.84 4.06 5.29 5.29 0 0 0-5.84-4.06zm11.54-22.39a5 5 0 1 0 5.84 4.07 5.11 5.11 0 0 0-5.84-4.07zm15.62-21.47c-3.18.66-5.58 3.68-4.94 6.83a6 6 0 0 0 6.85 4.85c3.18-.66 5.58-3.68 4.94-6.82a6.44 6.44 0 0 0-6.85-4.86zm18.96-15.84a5 5 0 0 0-4.25 5.48 4.92 4.92 0 0 0 5.62 4.1h.22a5 5 0 0 0 4.29-5.48 4.93 4.93 0 0 0-5.62-4.11l-.26.01zm22.08-12.02a3.54 3.54 0 0 0-2.87 3.91 3.443 3.443 0 0 0 6.8-1.09 3.32 3.32 0 0 0-3.73-2.85l-.2.03zm23.65-9.54a3.41 3.41 0 1 0 3.93 2.82 3.25 3.25 0 0 0-3.61-2.87l-.32.05zm25.29-5.62a3.41 3.41 0 1 0 3.93 2.83 3.54 3.54 0 0 0-3.93-2.83zm25.59-1.23a4.31 4.31 0 1 0 4.94 3.61 4.42 4.42 0 0 0-4.94-3.61zm25.2 3.36a5 5 0 1 0 5.84 4.06c-.88-2.69-3.38-4.51-5.84-4.06zm24.13 8.18a5 5 0 1 0 6 4.4c-1.06-3.03-3.51-4.84-6-4.4zm22.26 12.88a4.46 4.46 0 0 0-3.67 4.92 4.41 4.41 0 0 0 4.94 3.57 4.46 4.46 0 0 0 3.67-4.92 4.33 4.33 0 0 0-4.94-3.57zm19.52 16.01a5 5 0 0 0-3.91 5.37c.43 2.47 2.79 3.93 5.39 3.83a4.78 4.78 0 0 0 3.91-5.36c-.43-2.47-2.79-3.94-5.39-3.84zM667 257.11a5 5 0 0 0-3.9 5.36c.42 2.47 2.78 3.94 5.39 3.84a4.79 4.79 0 0 0 3.9-5.37c-.78-2.36-2.91-4.27-5.39-3.83zm12.42 22.03a4.66 4.66 0 1 0 5.39 3.84 4.81 4.81 0 0 0-5.39-3.84zm8.24 21.91a6.31 6.31 0 0 0-5.57 7l.06.41a6.53 6.53 0 1 0 5.54-7.39l-.03-.02zm3.48 23.46a8.42 8.42 0 1 0 2.938 16.582 8.42 8.42 0 0 0-2.938-16.582zm-.14 27.25a6 6 0 0 0-5.28 6.65c0 .21.06.41.11.62.75 3.48 3.78 5.85 7.3 5.08a6 6 0 0 0 5.28-6.65c0-.21-.06-.41-.11-.62a6.87 6.87 0 0 0-7.3-5.08zm-5.19 25.89a5.36 5.36 0 1 0 6.29 4.29 5.51 5.51 0 0 0-6.29-4.29zm-9.76 23.28a5.56 5.56 0 1 0 6.4 4.63 5.35 5.35 0 0 0-5.94-4.7 3.4 3.4 0 0 0-.46.07zm-14.34 17.33a10.29 10.29 0 0 0-8.38 11.29c.62 5.39 5.9 8.89 11.34 8.24a10.31 10.31 0 0 0 8.38-11.3c-.62-5.38-5.9-8.88-11.34-8.23zm-16.86 21.12a7.72 7.72 0 1 0 2.481 15.24 7.72 7.72 0 0 0-2.481-15.24zM624.31 455a7.72 7.72 0 1 0 8.87 6.43c-.74-4.6-4.67-7.43-8.87-6.43zm-22.87 10.76a8.84 8.84 0 1 0 .08 0h-.08zm-24.2 9a6.82 6.82 0 1 0 7.86 5.64c-.86-3.81-4.34-6.4-7.86-5.64zm-25.39 4.15c-3.18.66-5.36 3.23-4.71 6.38.65 3.15 3.22 5.28 6.4 4.62 3.18-.66 5.35-3.23 4.71-6.37-.64-3.14-3.25-5.28-6.4-4.63zm-25.68-1.34a5 5 0 1 0 5.84 4.06 5.3 5.3 0 0 0-5.84-4.06zm-24.56-6.16a5 5 0 1 0 5.84 4.06c-.45-2.47-3.27-4.16-5.84-4.06zm-23.35-10.31a5 5 0 1 0 5.84 4.06 5.11 5.11 0 0 0-5.84-4.06zM457 446.76a5 5 0 1 0 5.84 4.06c-.06-2.57-2.98-4.6-5.84-4.06zm-18-18.35a5.56 5.56 0 1 0 6.4 4.62 5.84 5.84 0 0 0-6.4-4.62zm-14.58-21.71a6.26 6.26 0 1 0 7.3 5.08 6.86 6.86 0 0 0-7.3-5.08zm-10.5-23.04a6.27 6.27 0 1 0 7.3 5.08 6.87 6.87 0 0 0-7.3-5.08zM379.29 364c-3.18.66-5.59 3.67-5 6.82a6 6 0 0 0 6.85 4.85c3.18-.66 5.59-3.68 4.95-6.82-.64-3.14-3.29-5.62-6.8-4.85zm-1.77-25.14a5.92 5.92 0 1 0 6.85 4.86 6 6 0 0 0-6.85-4.86zm1.64-25.1a5.56 5.56 0 1 0 1.816 10.97 5.56 5.56 0 0 0-1.816-10.97zm5.58-24.55a5.51 5.51 0 0 0-4.48 5.92 5.27 5.27 0 0 0 10.43-1.52c-.19-2.92-3-4.61-5.95-4.4zm9.63-21.38a2.86 2.86 0 1 0 3.37 2.25c-.13-1.45-1.56-2.47-3.37-2.25zm12.8-22.07a2.63 2.63 0 0 0-2.39 2.85c.01.17.04.338.09.5a2.89 2.89 0 1 0 2.33-3.36l-.03.01zM422.69 224a5 5 0 0 0-3.91 5.37 4.77 4.77 0 0 0 5.39 3.84 5 5 0 0 0 3.91-5.37 4.77 4.77 0 0 0-5.39-3.84zM442 208a3.06 3.06 0 1 0 3.48 2.59c-.56-1.65-2.13-3.01-3.48-2.59zm20.85-14.58a3 3 0 0 0-2.66 3.3 1 1 0 0 0 0 .17 3.09 3.09 0 1 0 2.65-3.47h.01zm23.21-10.89a2.7 2.7 0 1 0 3 2.37c-.18-1.8-1.64-2.81-3-2.37zm24.55-6.85a1.81 1.81 0 1 0 2 1.6 1.55 1.55 0 0 0-1.47-1.64 1.57 1.57 0 0 0-.53.04zm25.39-4.15c-1 .33-1.59.89-1.27 1.9.32 1.01.89 1.57 1.91 1.24 1.02-.33 1.6-.89 1.27-1.9a1.81 1.81 0 0 0-1.91-1.24zm25.23-2.25a3.76 3.76 0 1 0 4.38 3 3.68 3.68 0 0 0-4.25-3h-.13zm25.21 2.24a5 5 0 1 0 5.84 4.06 5.11 5.11 0 0 0-5.84-4.06zm24.56 7.24a5.18 5.18 0 1 0 .07 0H611zm23.22 11.13a4.81 4.81 0 0 0-3.91 5.37 4.71 4.71 0 1 0 3.94-5.37h-.03zm21.39 14.68a4.11 4.11 0 1 0 4.83 3.27 4.27 4.27 0 0 0-4.83-3.27zm18.89 16.57a4.31 4.31 0 1 0 4.94 3.61 4.62 4.62 0 0 0-4.94-3.61zm15.75 19.47a4.87 4.87 0 1 0 5.5 4.17 4.46 4.46 0 0 0-5.5-4.17zm12.89 21.15a5.56 5.56 0 1 0 1.816 10.97 5.56 5.56 0 0 0-1.816-10.97zm9.47 22.24a6.81 6.81 0 1 0 7.86 5.64 7.33 7.33 0 0 0-7.86-5.64zm5.31 23.24a8.42 8.42 0 1 0 2.938 16.582 8.42 8.42 0 0 0-2.938-16.582zm2.22 25.35a8.42 8.42 0 1 0 2.935 16.582 8.42 8.42 0 0 0-2.935-16.582zm-1.76 25.91a7.84 7.84 0 1 0 .07 0h-.07zm-5.27 26.67c-3.17.66-5.58 3.67-4.94 6.82a6 6 0 0 0 6.85 4.85c3.18-.66 5.59-3.68 4.94-6.82a6 6 0 0 0-6.85-4.85zM704 409.35a5.37 5.37 0 1 0 6.29 4.29 5.51 5.51 0 0 0-6.29-4.29zm-13 21.41a6.27 6.27 0 1 0 7.3 5.08 6 6 0 0 0-6.72-5.18 5.86 5.86 0 0 0-.58.1zm-16.46 15.37c-5.873.936-9.879 6.45-8.952 12.325.926 5.875 6.435 9.889 12.31 8.972 5.877-.917 9.9-6.42 8.992-12.297-.987-5.857-6.472-9.854-12.35-9zm-18.23 21.57a6.82 6.82 0 1 0 7.86 5.64 7.35 7.35 0 0 0-7.86-5.64zM635 481a8.07 8.07 0 1 0 9.32 6.66A8.28 8.28 0 0 0 635 481zm-22.55 12.87a6.48 6.48 0 0 0-5.52 7.32v.06c.41 3.59 3.78 5.84 7.41 5.41a6.47 6.47 0 0 0 5.52-7.3v-.08c-.75-3.52-3.86-6.18-7.41-5.41zm-24.45 8.3c-3.17.66-5.58 3.68-4.94 6.83a6 6 0 0 0 6.85 4.85c3.18-.66 5.59-3.68 4.94-6.82a6 6 0 0 0-6.85-4.86zm-25.25 4.49c-3.18.66-5.36 3.23-4.71 6.38.65 3.15 3.22 5.28 6.4 4.62 3.18-.66 5.35-3.23 4.71-6.37a5.68 5.68 0 0 0-6.4-4.63zm-25.92.23a5.56 5.56 0 1 0 6.4 4.63 5.19 5.19 0 0 0-6.4-4.63zm-25.42-4.03c-3.17.65-5.58 3.67-4.94 6.82a6 6 0 0 0 6.85 4.85c3.18-.66 5.59-3.68 4.94-6.82-.26-3.26-3.56-5.18-6.85-4.85zm-24.48-6.95c-3.17.66-5.58 3.68-4.94 6.82a6 6 0 0 0 6.85 4.85c3.18-.66 5.59-3.68 4.94-6.82a5.74 5.74 0 0 0-6.48-4.91 2.38 2.38 0 0 0-.37.06zm-22.86-10.08a5 5 0 1 0 5.84 4.06 5.38 5.38 0 0 0-5.84-4.06zm-21.46-13.89a5 5 0 0 0-4.25 5.48 4.92 4.92 0 0 0 5.62 4.1h.22a5 5 0 0 0 4.25-5.48 4.92 4.92 0 0 0-5.62-4.1h-.22zm-18.71-17.02a5 5 0 1 0 6 4.4c-.7-3.14-3.17-4.94-6-4.4zm-16.2-19.69a5 5 0 1 0 5.61 4.53c-.31-3.28-2.77-5.08-5.61-4.53zm-13.09-22.94a6.25 6.25 0 0 0-4.94 6.82 6 6 0 1 0 5-6.83l-.06.01zm-9.49-23.37a5.91 5.91 0 1 0 6.85 4.85 5.74 5.74 0 0 0-6.48-4.91 2.38 2.38 0 0 0-.37.06zm-34.38-22.35a7.83 7.83 0 1 0 .05 0h-.05zm-2.13-23.9a6.47 6.47 0 1 0 7.41 5.41 6.4 6.4 0 0 0-7.26-5.43l-.15.02zm1.29-23.91a5.22 5.22 0 1 0 6 4.4 4.85 4.85 0 0 0-5.16-4.52 5.19 5.19 0 0 0-.84.12zm4.71-23.85a3.76 3.76 0 1 0 4.38 3 4.28 4.28 0 0 0-4.38-3zm7.15-25.43a5 5 0 1 0 5.61 4.51 4.86 4.86 0 0 0-5.14-4.56l-.47.05zm10.85-21.04a2.51 2.51 0 1 0 2.92 2 2.71 2.71 0 0 0-2.92-2zm13.6-20.8c-1 .33-1.6.89-1.27 1.9.33 1.01.89 1.57 1.91 1.24 1.02-.33 1.6-.89 1.27-1.9-.22-.67-1.23-1.46-1.91-1.24zm15.73-21.13c-1.47.1-2.51 1.56-2.3 3.35.1 1.46 1.56 2.48 3.37 2.26a2.78 2.78 0 0 0 2.33-3.16 1.08 1.08 0 0 0 0-.19c-.13-1.46-1.59-2.48-3.4-2.26zm18.75-17.64a2.63 2.63 0 0 0-2.39 2.85c.01.17.04.338.09.5a2.49 2.49 0 0 0 3.37 2.26 2.63 2.63 0 0 0 2.4-2.84 3 3 0 0 0-.1-.52 3.4 3.4 0 0 0-3.37-2.25zm20.65-15.28c-1.47.11-2.5 1.56-2.3 3.35.1 1.46 1.56 2.48 3.37 2.26 1.47-.1 2.51-1.56 2.3-3.35a3.41 3.41 0 0 0-3.37-2.26zM463.67 160a4.11 4.11 0 1 0 4.83 3.28 4.59 4.59 0 0 0-4.83-3.28zm24.07-7.07c-1 .33-1.6.89-1.27 1.9.33 1.01.89 1.57 1.91 1.24 1.02-.33 1.6-.89 1.27-1.9-.33-1.01-.89-1.58-1.91-1.24zm24.63-6.52c-1 .34-1.6.9-1.27 1.91.33 1.01.89 1.57 1.91 1.24 1.02-.33 1.59-.89 1.27-1.9.12-.79-.89-1.58-1.91-1.25zm25.72-3.14a2 2 0 0 0-1.38 1.57 1.48 1.48 0 0 0 2.95-.21c-.22-.63-.89-1.58-1.57-1.36zm25.26-2.27a3.76 3.76 0 1 0 4.38 3 3.69 3.69 0 0 0-4.23-3h-.15zm25.1 1.93a5 5 0 1 0 5.84 4.06 5.11 5.11 0 0 0-5.84-4.06zm24.6 6.16a5.36 5.36 0 1 0 .17 0h-.17zm24 10.08a5.4 5.4 0 0 0-4.25 5.48 4.74 4.74 0 0 0 5.39 3.84 5.42 5.42 0 0 0 4.25-5.48 4.77 4.77 0 0 0-5.39-3.84zm22.15 12.59a5.42 5.42 0 0 0-4.25 5.48 4.76 4.76 0 0 0 5.39 3.83 5.38 5.38 0 0 0 4.27-5.51 4.27 4.27 0 0 0-5.41-3.8zm20.54 15.64a4.31 4.31 0 1 0 4.94 3.61c-.07-2.58-2.45-4.01-4.94-3.61zm18.48 17.46a4.46 4.46 0 0 0-3.67 4.92 4.41 4.41 0 0 0 4.93 3.61 4.46 4.46 0 0 0 3.68-4.92 4.17 4.17 0 0 0-4.62-3.66l-.32.05zM713.85 224a5 5 0 1 0 5.84 4.06 5.29 5.29 0 0 0-5.84-4.06zM727 245.81a5 5 0 1 0 5.84 4.06 5.11 5.11 0 0 0-5.84-4.06zm10.36 22.7a5.56 5.56 0 1 0 6.4 4.63 5.7 5.7 0 0 0-6.4-4.63zm7.09 24.15a5.91 5.91 0 1 0 6.85 4.85 5.74 5.74 0 0 0-6.48-4.91 2.38 2.38 0 0 0-.37.06zm3.55 23.79a7.17 7.17 0 1 0 8.31 5.87 7.24 7.24 0 0 0-8.31-5.87zm.34 24.12a8.42 8.42 0 1 0 9.77 6.88 8.6 8.6 0 0 0-9.77-6.88zm-2.11 27.13a6.31 6.31 0 0 0-5.57 7l.06.41a6.54 6.54 0 1 0 12.92-2c-.41-3.59-3.78-5.84-7.41-5.41zm-5.62 25.66a5.91 5.91 0 1 0 6.85 4.85c-.73-3.45-3.65-5.51-6.85-4.85zm-9.07 24.19a5.36 5.36 0 1 0 6.29 4.29 5.5 5.5 0 0 0-6.29-4.29zM719.61 440a5.56 5.56 0 1 0 6.4 4.63 5.65 5.65 0 0 0-6.4-4.63zm-14.79 20.5a5.92 5.92 0 1 0 6.85 4.86 6 6 0 0 0-6.85-4.86zm-17.63 18.77a5.91 5.91 0 1 0 6.85 4.85 6.25 6.25 0 0 0-6.85-4.85zm-19.86 15.39a6.82 6.82 0 1 0 7.86 5.64c-.07-3.7-3.89-6.18-7.86-5.64zM645.9 508.7a6.82 6.82 0 1 0 7.86 5.65c-.52-3.93-3.89-6.19-7.86-5.65zm-23.09 11.23a6.47 6.47 0 1 0 2.026 12.78 6.47 6.47 0 0 0-2.026-12.78zm-24.1 9.32a5.22 5.22 0 1 0 5.95 4.4 5.44 5.44 0 0 0-5.95-4.4zm-25.28 4.51a5.56 5.56 0 1 0 6.4 4.63c-.54-2.83-3.57-5.2-6.4-4.63zm-25.82 1.67a5.56 5.56 0 1 0 6.4 4.62c-.2-2.92-3.12-4.95-6.4-4.62zM522.28 534a5.56 5.56 0 1 0 6.4 4.63 5.21 5.21 0 0 0-5.61-4.76 5.42 5.42 0 0 0-.79.13zM497 529.15a5.71 5.71 0 0 0-4.71 6.37c.65 3.15 3.23 5.29 6.4 4.63 3.17-.66 5.36-3.23 4.71-6.37a5.19 5.19 0 0 0-6.4-4.63zm-24-7.84a5.36 5.36 0 1 0 6.29 4.29 5.5 5.5 0 0 0-6.29-4.29zm-23.12-10.75a5 5 0 1 0 5.84 4.06 4.93 4.93 0 0 0-5.66-4.09l-.18.03zm-21.46-13.89a5 5 0 1 0 5.84 4.06 5.11 5.11 0 0 0-5.84-4.06zm-19.52-16.01a5.39 5.39 0 0 0-4.24 5.47 4.74 4.74 0 0 0 5.39 3.84 5.4 5.4 0 0 0 4.24-5.48c-.08-2.58-2.55-4.38-5.39-3.83zM391.91 462a4.66 4.66 0 1 0 5.39 3.83 4.79 4.79 0 0 0-5.39-3.83zm-14.48-21.41a5.18 5.18 0 1 0 .07 0h-.07zM365.24 417c-3.18.66-5.59 3.67-4.94 6.82a6 6 0 0 0 6.85 4.85c3.18-.66 5.58-3.68 4.94-6.82-.19-2.93-3.22-5.3-6.85-4.85zm-8.45-23.71c-3.18.65-5.59 3.67-5 6.82a6 6 0 0 0 6.85 4.85c3.18-.66 5.59-3.68 4.95-6.82a5.74 5.74 0 0 0-6.48-4.91 2.38 2.38 0 0 0-.32.06zm-34.18-21.69a7.72 7.72 0 1 0 8.87 6.44c-.73-4.61-4.66-7.43-8.87-6.44zm-2.21-24.23a6.46 6.46 0 1 0 7.41 5.39 6.25 6.25 0 0 0-6.95-5.46l-.46.07zm.48-24a4.78 4.78 0 0 0-3.9 5.36 5.34 5.34 0 0 0 5.5 4.18 5.4 5.4 0 0 0 4.24-5.48c-.42-2.43-3.23-4.16-5.84-4.06zm3.73-22.08a1.81 1.81 0 1 0 2 1.6 1.55 1.55 0 0 0-1.47-1.64 1.57 1.57 0 0 0-.53.04zm6.17-23.98c-.34.11-.91.67-.8 1 .11.33.67.9 1 .79.33-.11.91-.67.8-1 .22-.45-.32-1.01-1-.79zm8.65-25.55a2.51 2.51 0 1 0 2.92 2 2.68 2.68 0 0 0-2.92-2zm11.45-22.7a2.51 2.51 0 1 0 2.92 2 2.28 2.28 0 0 0-2.46-2.09 3.73 3.73 0 0 0-.46.09zM364.82 207a2.64 2.64 0 0 0-2.39 2.87c.01.166.04.33.09.49a2.89 2.89 0 0 0 5.67-1.1 3.42 3.42 0 0 0-3.37-2.26zm16.06-20.1a3.41 3.41 0 1 0 3.93 2.86 3.55 3.55 0 0 0-3.93-2.86zm18.3-17.9a3.41 3.41 0 1 0 3.93 2.83 3.26 3.26 0 0 0-3.6-2.88l-.33.05zm20.74-12.66c-.34.11-.68.22-.58.56.1.34.22.67.56.56.34-.11.69-.22.58-.56.23-.45-.22-.67-.56-.56zm21.78-15.28a2.11 2.11 0 0 0-1.86 2.33v.13a2.09 2.09 0 0 0 2.3 1.84h.17a2.11 2.11 0 0 0 1.86-2.33v-.13c.01-1.14-1.34-1.83-2.47-1.84zm23.21-12.01a3.71 3.71 0 0 0-3.21 4 3.65 3.65 0 1 0 3.26-4h-.05zm24.4-6.05c-.68.22-1.25.78-1 1.45.25.67.77 1.24 1.46 1s1.25-.78 1-1.46c.23-.44-.67-.89-1.46-.99zm25.18-4.84a.76.76 0 0 0-.47.89.72.72 0 0 0 1.37-.44c-.11-.33-.45-.22-.9-.45zm25.39-4.16a2.15 2.15 0 1 0 2.47 1.8c.01-1.11-1.35-1.8-2.47-1.8zm25.73.23a2.15 2.15 0 1 0 2.47 1.8c-.03-1.12-1.38-1.8-2.47-1.8zm25.07.77a4.79 4.79 0 0 0-3.91 5.37c.43 2.47 2.79 3.93 5.39 3.83a5 5 0 0 0 3.91-5.36 4.77 4.77 0 0 0-5.39-3.84zm24.72 5.39a4.87 4.87 0 1 0 5.45 4.21 2.32 2.32 0 0 0-.06-.38c.03-2.22-2.44-4.04-5.39-3.83zm24.21 8.51a5 5 0 1 0 5.84 4.07 5.4 5.4 0 0 0-5.84-4.07zm22.88 11.2a5 5 0 0 0-4.25 5.48 5.08 5.08 0 0 0 10-1.75c-.34-2.13-3.15-3.83-5.75-3.73zM684 154a4.67 4.67 0 0 0 1.06 9.28l.43-.07a5.4 5.4 0 0 0 4.24-5.48 4.76 4.76 0 0 0-5.63-3.73h-.1zm20 16.57a4.31 4.31 0 1 0 4.94 3.61 4.17 4.17 0 0 0-4.62-3.66l-.32.05zm17.94 18.02a4.31 4.31 0 1 0 4.94 3.61 4.17 4.17 0 0 0-4.62-3.66l-.32.05zm15.4 19.58a5 5 0 1 0 5.53 4.4v-.23a4.47 4.47 0 0 0-4.65-4.29 4.15 4.15 0 0 0-.88.12zm13.27 21.03a5.36 5.36 0 1 0 6.29 4.29 5.29 5.29 0 0 0-6.1-4.33l-.19.04zm10.8 22.93a5.36 5.36 0 1 0 6.29 4.29c-.53-2.81-3-4.61-6.29-4.29zm8.2 24.15a5.21 5.21 0 1 0 6 4.4 5.5 5.5 0 0 0-6-4.4zm5.31 24.36a5.91 5.91 0 1 0 6.85 4.85 6 6 0 0 0-6.85-4.85zm2.55 25.25a5.91 5.91 0 1 0 6.85 4.85 6 6 0 0 0-6.85-4.85zm-.38 24.33a6.82 6.82 0 1 0 7.86 5.64 7.33 7.33 0 0 0-7.86-5.64zm-3.01 26.68a5.85 5.85 0 0 0-4.71 6.38 5.62 5.62 0 1 0 4.71-6.38zm-6.16 25.1a5.22 5.22 0 1 0 1.67 10.306A5.22 5.22 0 0 0 767.92 402zm-8.85 23.76a5.36 5.36 0 1 0 6.29 4.29 5.51 5.51 0 0 0-6.29-4.29zm-11.35 23a5 5 0 1 0 5.89 4.1 5.39 5.39 0 0 0-5.89-4.1zm-13.92 21c-3.17.66-5.35 3.23-4.71 6.38.64 3.15 3.23 5.28 6.4 4.62 3.17-.66 5.36-3.23 4.71-6.37a5.65 5.65 0 0 0-6.4-4.63zm-16.29 20.52a4.87 4.87 0 1 0 5.5 4.17 4.93 4.93 0 0 0-5.5-4.17zm-18.63 16.86a5.91 5.91 0 1 0 6.85 4.85 6 6 0 0 0-6.85-4.85zm-20.64 14.15a7.17 7.17 0 1 0 8.31 5.87 7 7 0 0 0-7.92-5.94l-.39.07zm-21.55 14.83c-3.17.66-5.58 3.67-4.94 6.82a6 6 0 0 0 6.86 4.82c3.18-.66 5.59-3.68 4.94-6.82a5.75 5.75 0 0 0-6.5-4.88l-.36.06zm-22.98 11.56a5 5 0 1 0 5.84 4.07 5.11 5.11 0 0 0-5.84-4.07zm-24.32 8.65a4.78 4.78 0 0 0-3.9 5.36c.42 2.47 2.78 3.94 5.39 3.84a5 5 0 0 0 3.9-5.37c-.42-2.47-2.78-3.93-5.39-3.83zm-25.06 5.16a5.06 5.06 0 1 0 .06 0h-.06zm-25.82 1.69a5.913 5.913 0 1 0 1.91 11.67c3.28-.32 5.24-3.57 4.94-6.82a6.2 6.2 0 0 0-6.85-4.85zm-25.58.11a5.71 5.71 0 0 0-4.71 6.37c.65 3.15 3.23 5.29 6.4 4.63 3.17-.66 5.36-3.23 4.71-6.37a5.78 5.78 0 0 0-6.4-4.63zm-25.43-2.91a5.36 5.36 0 1 0 6.29 4.29c-.42-2.47-3.34-4.5-6.29-4.29zm-24.83-5.72A5.36 5.36 0 1 0 489 559a5.51 5.51 0 0 0-6.33-4.34zm-24.24-8.51a5.36 5.36 0 1 0 .17 0h-.17zm-22.82-11.21a5.37 5.37 0 1 0 6.29 4.29 5.51 5.51 0 0 0-6.29-4.29zm-21.38-13.55a5 5 0 0 0-4.16 5.72v.1a5.08 5.08 0 1 0 10-1.75 5.42 5.42 0 0 0-5.84-4.07zm-19.86-15.9a5 5 0 1 0 5.84 4.07 5.4 5.4 0 0 0-5.84-4.07zm-17.9-18.02a5 5 0 0 0-4.25 5.48 4.91 4.91 0 0 0 5.58 4.11l.26-.05a5 5 0 0 0 4.15-5.72.28.28 0 0 0 0-.09 6 6 0 0 0-5.74-3.73zm-15.97-20.14a5 5 0 1 0 5.84 4.06c-.08-2.58-2.89-4.27-5.84-4.06zm-13.11-21.82a5.22 5.22 0 1 0 1.47 10.33 5.22 5.22 0 0 0-1.12-10.38l-.35.05zm-10.95-23.26a5.91 5.91 0 1 0 6.85 4.85c-.76-3.48-3.68-5.51-6.85-4.85zm-8.22-24.15a5.91 5.91 0 1 0 6.85 4.85 6 6 0 0 0-6.85-4.85zm-33.61-20c-3.18.66-5.36 3.23-4.71 6.37.65 3.14 3.22 5.29 6.4 4.63 3.18-.66 5.35-3.23 4.71-6.37a5.21 5.21 0 0 0-5.61-4.73 5.42 5.42 0 0 0-.79.1zm-2.47-23.79c-2.15.33-3.76 2.34-3.1 4.36a3.5 3.5 0 0 0 3.86 3.1 3 3 0 0 0 .52-.1c2.15-.33 3.76-2.34 3.1-4.36a3.85 3.85 0 0 0-4.38-3zm.38-24.31c-1.47.1-2.51 1.56-2.3 3.35.1 1.46 1.56 2.48 3.37 2.26 1.47-.11 2.51-1.56 2.3-3.36a3.41 3.41 0 0 0-3.37-2.25zm2.48-23.57c-.68.22-1.25.78-1 1.46.25.68.78 1.23 1.46 1 .68-.23 1.25-.78 1-1.45-.25-.67-.74-1.23-1.46-1.01zm5.4-24.09c-.45-.22-.34.11 0 0-.23.45-.12.79.22.68l-.22-.68zm7.06-24.64c-.34.11-.68.22-.58.56.1.34.22.67.56.56.34-.11.69-.22.58-.56.23-.45-.22-.67-.56-.56zm9.99-23.7c-.34.11-.68.22-.57.56.11.34.21.67.56.56.35-.11.68-.22.57-.56-.11-.34-.22-.71-.56-.56zm11.8-24c-1.13 0-1.82 1.34-1.84 2.46a2.66 2.66 0 0 0 2.47 1.8c1.14 0 1.83-1.33 1.84-2.45.01-1.12-1.34-1.81-2.47-1.81zm14.18-23.6a4.31 4.31 0 1 0 4.94 3.62c-.32-2.14-2.68-3.61-4.94-3.62zm16.06-20.12a5.51 5.51 0 0 0-4.48 5.93 5.27 5.27 0 0 0 10.43-1.53 5 5 0 0 0-5.48-4.47l-.47.07zm18.84-15.06c-1.13 0-1.83 1.34-1.84 2.46-.01 1.12 1.34 1.8 2.47 1.81 1.13.01 1.83-1.34 1.84-2.46.01-1.12-1.34-1.8-2.47-1.81zm20.19-14.38c-.35.11-.69.22-.58.56.11.34.22.67.56.56.34-.11.68-.22.57-.55.24-.41-.21-.65-.55-.57zm21.53-13.7c-.23.45-.12.78.22.67-.11-.33.23-.45-.22-.67zm22.77-12.24c-.34.11-.68.22-.57.56.11.34.22.67.56.56.34-.11.68-.22.57-.56.23-.46-.22-.7-.56-.56zm23.79-10.33c-.68.22-.91.67-1 1.45.22.68.67.9 1.46 1 .68-.22.91-.67 1-1.45-.25-.66-.7-.88-1.46-1zm24.6-6.51c-.34.11-.68.22-.57.56.11.34.22.67.56.56.34-.11.68-.22.57-.56.23-.45-.22-.62-.56-.56zm25.4-4.16c-.23.45.11.34.11.34s.34-.11-.11-.34zm25.49-2.69a.71.71 0 1 0 .9.45.78.78 0 0 0-.9-.45zm25.51-1.57a2.27 2.27 0 0 0-2.14 2.41 2 2 0 0 0 .08.49 2.75 2.75 0 0 0 3 2.37 2.79 2.79 0 0 0 2.4-3c-.55-1.7-2.01-2.72-3.34-2.27zM593 88.55a2.79 2.79 0 0 0-2.4 3 2.75 2.75 0 0 0 3 2.37 2.78 2.78 0 0 0 2.41-3 2.42 2.42 0 0 0-3.01-2.37zm24.85 4.59a3.41 3.41 0 1 0 3.93 2.86 3.54 3.54 0 0 0-3.93-2.86zm24.03 6.72a4.45 4.45 0 0 0-3.67 4.9 4.355 4.355 0 0 0 8.61-1.31c.02-2.22-2.45-4.03-4.94-3.59zm23.65 10.2a4.66 4.66 0 1 0 5.39 3.84 4.56 4.56 0 0 0-5.15-3.88l-.24.04zm22.16 12.54a4.47 4.47 0 0 0-3.68 4.92 4.36 4.36 0 0 0 8.62-1.31c-.09-2.58-2.45-4.04-4.94-3.61zm21 14.79a3.94 3.94 0 1 0 4.73 3 4.52 4.52 0 0 0-4.73-3zm19.71 18.92c-1 .34-1.83 1.34-1.61 2 .33 1 1.34 1.8 2 1.57 1-.33 1.83-1.33 1.61-2a1.57 1.57 0 0 0-2-1.57zm17.35 17.45a3.06 3.06 0 1 0 3.48 2.6 2.8 2.8 0 0 0-2.89-2.69 2.9 2.9 0 0 0-.59.09zM761.37 194a2.79 2.79 0 0 0-2.41 3 2.75 2.75 0 0 0 3 2.36 2.27 2.27 0 0 0 2.15-2.4 2.09 2.09 0 0 0-.08-.5 2.31 2.31 0 0 0-2.13-2.46 2.37 2.37 0 0 0-.53 0zm13.24 19.94a4.11 4.11 0 1 0 4.83 3.27c-.31-2.13-2.56-3.21-4.83-3.27zm11.19 22.82a4.11 4.11 0 1 0 4.83 3.28 4.29 4.29 0 0 0-4.83-3.28zm9.01 24.24c-2.15.33-3.76 2.34-3.1 4.36a3.51 3.51 0 0 0 3.84 3.15 3.41 3.41 0 0 0 .54-.1c2.15-.33 3.76-2.34 3.1-4.36A3.66 3.66 0 0 0 795 261h-.19zm6.09 23.37a5.5 5.5 0 0 0-4.48 5.93 5.44 5.44 0 0 0 6 4.4 5.51 5.51 0 0 0 4.48-5.93 4.86 4.86 0 0 0-5.19-4.52 4.53 4.53 0 0 0-.81.12zM795.33 411a4.31 4.31 0 1 0 4.94 3.61c-.09-2.61-2.45-4.07-4.94-3.61zm-8.63 23.27a4.91 4.91 0 1 0 .16 0h-.16zm-10.89 23.28a4.66 4.66 0 1 0 5.38 3.84 4.8 4.8 0 0 0-5.38-3.84zm-13.26 21.82a5 5 0 0 0-3.94 5.39 4.75 4.75 0 0 0 5.39 3.83 5 5 0 0 0 3.9-5.36c-.72-2.38-3.19-4.23-5.35-3.86zm-15.5 20.68a5 5 0 0 0-3.91 5.37c.09 2.58 2.79 3.94 5.39 3.84a4.79 4.79 0 0 0 3.91-5.37 4.58 4.58 0 0 0-5.17-3.88l-.22.04zm-17.29 18.71a4.66 4.66 0 1 0 5.39 3.84 4.81 4.81 0 0 0-5.39-3.84zm-19.41 15.57c-3.18.66-5.59 3.68-4.94 6.82a6 6 0 0 0 6.85 4.85c3.18-.66 5.58-3.68 4.94-6.82a6.21 6.21 0 0 0-6.85-4.85zm-21.09 13.93a7.17 7.17 0 1 0 8.31 5.87 7.16 7.16 0 0 0-8.31-5.87zm-22 14.6a5.56 5.56 0 1 0 6.4 4.62c-.3-3.25-3.11-4.95-6.4-4.62zm-23.2 10.9a5.56 5.56 0 1 0 6.4 4.62c-.65-3.15-3.23-5.29-6.4-4.62zm-24.31 8.63a5 5 0 1 0 5.86 4.07 4.94 4.94 0 0 0-5.67-4.1l-.19.03zm-24.96 5.5c-3.17.66-5.35 3.23-4.71 6.38.64 3.15 3.23 5.28 6.4 4.62a5.69 5.69 0 0 0 4.71-6.37 5.19 5.19 0 0 0-6.4-4.63zm-25.38 3.04c-3.18.65-5.59 3.67-4.94 6.82a6 6 0 0 0 6.85 4.85c3.17-.66 5.58-3.68 4.94-6.82a6 6 0 0 0-6.85-4.85zm-25.92.22a6.47 6.47 0 1 0 2.026 12.78 6.47 6.47 0 0 0-2.026-12.78zm-25.49-.67a5.91 5.91 0 1 0 6.85 4.85 5.59 5.59 0 0 0-6.15-5 5.69 5.69 0 0 0-.7.15zm-25-4.14a5.56 5.56 0 1 0 6.4 4.62 6.1 6.1 0 0 0-6.4-4.62zm-24.75-6.5a5.56 5.56 0 1 0 6.4 4.62 5.66 5.66 0 0 0-6.4-4.62zm-24.01-8.97c-3.17.66-5.35 3.23-4.71 6.38.64 3.15 3.23 5.28 6.4 4.62 3.17-.66 5.36-3.23 4.71-6.37a5.19 5.19 0 0 0-6.4-4.63zm-22.96-11.54c-3.17.66-5.35 3.23-4.7 6.38.65 3.15 3.22 5.28 6.4 4.62 3.18-.66 5.35-3.23 4.7-6.37-.19-2.96-3.07-4.96-6.4-4.63zm-21.58-13.1a5.22 5.22 0 1 0 6 4.4 5 5 0 0 0-6-4.4zm-20.09-15.47a5 5 0 1 0 5.84 4.06 5.09 5.09 0 0 0-5.84-4.06zm-18.48-17.44a5 5 0 1 0 5.84 4.06c-.19-2.92-2.97-4.62-5.84-4.06zm-16.52-19.56a5 5 0 1 0 5.84 4.06 5.31 5.31 0 0 0-5.84-4.06zM330 473.14a5 5 0 1 0 5.84 4.06 4.71 4.71 0 0 0-5.84-4.06zm-12.31-22.82a5.56 5.56 0 1 0 6.4 4.63 6.12 6.12 0 0 0-6.4-4.63zm-10.08-23.93a6.26 6.26 0 1 0 7.3 5.07 6.39 6.39 0 0 0-7.3-5.07zm-7.84-24.26a6.26 6.26 0 1 0 7.3 5.07 6.56 6.56 0 0 0-7.3-5.07zm-32.87-16.52a2.51 2.51 0 1 0 2.92 2 2.29 2.29 0 0 0-2.92-2zm-2.56-24.13c-.68.23-1.25.78-1 1.46.25.68.78 1.24 1.46 1 .68-.24 1.26-.78 1-1.45-.26-.67-.8-1.23-1.46-1.01zm-.52-24.79c-.34.12-.68.23-.57.56.11.33.21.68.56.57.35-.11.68-.23.57-.56.23-.45-.11-.34-.56-.57zm1.97-25.22c-.34.11-.68.22-.57.56.11.34.22.67.56.56.34-.11.68-.22.57-.56-.11-.34-.22-.67-.56-.56zm4.01-24.77c-.34.11-.34.11-.24.44.1.33.11.34.45.23.34-.11.35-.11.24-.45-.11-.34-.11-.33-.45-.22zm25.58-73.13a2 2 0 0 0-1.38 1.56 1.93 1.93 0 0 0 1.57 1.35 2 2 0 0 0 1.38-1.56c-.34-1.01-.89-1.58-1.57-1.35zm12.37-24.51a3.76 3.76 0 1 0 4.38 3 4.25 4.25 0 0 0-4.38-3zm14.17-22.49c-3.18.66-5.36 3.23-4.71 6.38.65 3.15 3.22 5.28 6.4 4.62 3.18-.66 5.35-3.23 4.71-6.37a5.21 5.21 0 0 0-5.61-4.76 5.42 5.42 0 0 0-.79.13zm16.51-19.89c-3.17.66-5.35 3.23-4.71 6.37.64 3.14 3.23 5.29 6.4 4.63a5.7 5.7 0 0 0 4.71-6.38c-.22-2.91-3.11-4.94-6.4-4.62zm18.84-15.06c-1.47.1-2.17 1.45-2.07 2.91.1 1.46 1.45 2.13 2.92 2 1.47-.13 2.17-1.45 2.07-2.91a3.52 3.52 0 0 0-2.92-2zm19.97-15.06c-.69.22-1.26.78-1 1.46.26.68.78 1.23 1.46 1 .68-.23 1.25-.78 1-1.45a1.59 1.59 0 0 0-1.46-1.01zm115.87-51.43c.11.34.45.22 0 0 .5.22.34-.13 0 0zm51.21-5.84c-.23.45.11.34.11.34l-.11-.34zm25.58-.11a.71.71 0 1 0 .9.45c-.45-.23-.56-.56-.9-.45zm25.21 2.24c-.68.22-1.25.78-1 1.45.25.67.78 1.24 1.46 1 .68-.24 1.25-.78 1-1.46.12-.76-.78-1.22-1.46-.99zm24.75 3.13a3 3 0 0 0-2.66 3.3 1 1 0 0 0 0 .17 3.091 3.091 0 0 0 6.12-.88 2.91 2.91 0 0 0-3.18-2.63l-.28.04zm24.48 6.95a3.41 3.41 0 1 0 3.93 2.82 3.25 3.25 0 0 0-3.61-2.87l-.32.05zm23.9 8.62a4.19 4.19 0 0 0-3.66 4.69v.23a4.42 4.42 0 0 0 4.94 3.61 4.311 4.311 0 0 0-1.26-8.53h-.02zM691 91a4.66 4.66 0 1 0 5.39 3.83c-.45-2.47-2.78-3.94-5.39-3.83zm21.77 14.89a3.41 3.41 0 1 0 3.93 2.82c-.32-2.13-1.89-3.49-3.93-2.82zm20.65 16.01a2.7 2.7 0 1 0 3 2.37c-.52-1.68-1.64-2.81-3-2.37zm19.02 19.15c-.34.11-.68.22-.57.56.11.34.22.67.56.56.34-.11.68-.22.57-.56.23-.44-.22-.67-.56-.56zm17.23 18.24c-.68.23-.91.67-.8 1 .22.67.67.9 1 .79.68-.22.91-.67.8-1 .24-.44-.32-1.01-1-.79zm15.5 21.04c-.23.45-.23.45.22.68.23-.45.23-.45-.22-.68zm13.44 20.59c-.68.22-.91.67-1 1.45.22.68.67.9 1.46 1 .69-.22.92-.67 1-1.46a1.21 1.21 0 0 0-1.46-.99zM791 488a4.66 4.66 0 1 0 5.39 3.84c-.78-2.35-2.92-4.26-5.39-3.84zm-15 21.26a4.46 4.46 0 0 0-3.67 4.92 4.41 4.41 0 0 0 4.94 3.61 4.46 4.46 0 0 0 3.67-4.92c-.05-2.58-2.41-4.05-4.94-3.61zm-16.25 19.5a4.31 4.31 0 1 0 1.273 8.525 4.31 4.31 0 0 0-1.273-8.525zm-18.3 17.81a4.66 4.66 0 1 0 5.39 3.84 4.81 4.81 0 0 0-5.39-3.84zm-19.97 15.06c-3.17.66-5.58 3.68-4.94 6.82a6 6 0 0 0 6.85 4.85c3.18-.66 5.59-3.67 4.94-6.82a5.74 5.74 0 0 0-6.48-4.91 2.38 2.38 0 0 0-.37.06zM700.16 576a6.26 6.26 0 1 0 7.3 5.08 6 6 0 0 0-6.72-5.18 5.86 5.86 0 0 0-.58.1zM678 587.69a7.17 7.17 0 1 0 8.31 5.87c-.9-3.8-4.48-6.75-8.31-5.87zm-23.39 11.68c-3.17.66-5.58 3.67-4.94 6.82a6 6 0 0 0 6.85 4.85c3.18-.66 5.59-3.68 4.94-6.82a6 6 0 0 0-6.85-4.85zm-24.39 8.3a6.27 6.27 0 1 0 7.3 5.08c-.75-3.48-3.78-5.85-7.3-5.08zm-24.85 5.84a6.47 6.47 0 1 0 2.026 12.78 6.47 6.47 0 0 0-2.026-12.78zm-25.5 3.82a7.24 7.24 0 0 0-6.08 7.94 6.89 6.89 0 0 0 13.6-2.19c-.07-3.7-3.55-6.32-7.52-5.75zm-25.48 1.57a7.17 7.17 0 1 0 8.31 5.87 7 7 0 0 0-7.92-5.94l-.39.07zm-25.57.1a6.46 6.46 0 1 0 7.41 5.41 6.3 6.3 0 0 0-7-5.47l-.41.06zm-25.43-2.9a6.36 6.36 0 1 0 .12 0h-.12zm-25.08-4.1a5.91 5.91 0 1 0 6.85 4.85 6 6 0 0 0-6.85-4.85zm-24.48-7a5.56 5.56 0 1 0 6.4 4.63 5.66 5.66 0 0 0-6.4-4.63zm-23.78-9.4a5.57 5.57 0 1 0 6.4 4.63 5.83 5.83 0 0 0-6.4-4.63zm-22.85-11.2a5.21 5.21 0 1 0 6 4.4 5.5 5.5 0 0 0-6-4.4zM385.51 571a5.51 5.51 0 0 0-4.48 5.92 5.27 5.27 0 0 0 10.43-1.52c-.19-2.96-3-4.64-5.95-4.4zm-20.32-15a5 5 0 1 0 .17 0h-.17zm-18.82-17.4a5 5 0 1 0 5.84 4.06 5.3 5.3 0 0 0-5.84-4.06zM329 520a5 5 0 1 0 5.84 4.06A5.09 5.09 0 0 0 329 520zm-15.59-20.24a5 5 0 1 0 5.84 4.07c-.08-2.58-2.89-4.28-5.84-4.07zM300 478.06a5.36 5.36 0 1 0 6.29 4.29 5.51 5.51 0 0 0-6.29-4.29zm-11.56-22.71c-3.18.66-5.36 3.23-4.71 6.38.65 3.15 3.22 5.28 6.4 4.62 3.18-.66 5.35-3.23 4.71-6.37a5.67 5.67 0 0 0-6.4-4.63zm-9.37-23.03a5 5 0 1 0 5.84 4.06 5.17 5.17 0 0 0-5.84-4.06zM271.53 408a5 5 0 1 0 5.84 4.06 5.11 5.11 0 0 0-5.84-4.06zm-32.85-17.69a2.16 2.16 0 1 0 2.47 1.81c.01-1.12-1-1.91-2.47-1.81zm-2.57-24.12c-.34.11-.91.67-.8 1 .11.33.67.9 1 .79.33-.11.91-.67.8-1-.11-.33-.5-.57-1-.79zm-.75-24.35c-.23.45.11.34.11.34l-.11-.34zm1.07-25.68c-.23.45-.12.79.22.68.34-.11.34-.11-.22-.68.45.23.34-.11 0 0zm3.57-24.99c-.24.45.1.33.1.33l-.1-.33zm12.86-49.63c-.34.11-.34.11-.23.44.11.33.11.34.45.23.34-.11.34-.11.23-.45l-.45-.22zm9.31-23.54c-.34.11-.34.11-.23.45.11.34.11.34.45.23.34-.11.34-.11.23-.45-.11-.34-.11-.32-.45-.23zM273 192.16a3.21 3.21 0 1 0 3.82 2.48c-.12-1.46-2.03-2.7-3.82-2.48zm13.13-23.27a5 5 0 0 0-3.9 5.36c.42 2.47 2.78 3.94 5.39 3.84a4.79 4.79 0 0 0 3.9-5.37c-.42-2.47-2.78-3.96-5.39-3.83zm14.95-21.25A5.22 5.22 0 1 0 307 152a5.21 5.21 0 0 0-5.92-4.36zm16.83-17.76a3.55 3.55 0 0 0-2.88 3.91 3.45 3.45 0 1 0 2.91-3.91h-.03zm17.85-18.12a3.41 3.41 0 1 0 3.93 2.82c.13-1.88-1.78-3.12-3.93-2.82zm19.85-15.37a2.16 2.16 0 1 0 2.47 1.81 1.9 1.9 0 0 0-2.47-1.81zm21.2-13.63c-.34.11-.68.22-.57.56.11.34.22.67.56.56.34-.11.68-.22.57-.56-.11-.34-.45-.18-.56-.56zM597.34 33.5a.712.712 0 1 0 .42 1.36.77.77 0 0 0 .46-.9c-.43-.2-.54-.57-.88-.46zM622 36.29c-1.47.11-2.51 1.56-2.3 3.36.1 1.46 1.56 2.47 3.37 2.26 1.47-.11 2.51-1.56 2.3-3.36-.12-1.46-1.58-2.47-3.37-2.26zm24.7 5.38a4.11 4.11 0 0 0 1.3 8.11h.18a3.86 3.86 0 0 0 3.33-4.8 4.27 4.27 0 0 0-4.81-3.31zm23.91 8.63a4.11 4.11 0 1 0 4.83 3.27 4 4 0 0 0-4.58-3.32l-.25.05zm23.3 10.31a4.66 4.66 0 1 0 5.39 3.83 4.56 4.56 0 0 0-5.16-3.87l-.23.04zm22.16 12.54a4.311 4.311 0 1 0 1.26 8.53 4.46 4.46 0 0 0 3.67-4.92 4.35 4.35 0 0 0-4.93-3.61zm21.45 15.01a3.55 3.55 0 0 0-2.91 3.91 3.5 3.5 0 0 0 4 2.82 3.41 3.41 0 0 0-.75-6.78h-.31l-.03.05zm20.39 18.71a.71.71 0 1 0 .9.45.75.75 0 0 0-.9-.45zm18.48 17.46c-.34.11-.68.22-.57.56.11.34.22.67.56.56.34-.11.68-.22.57-.56-.11-.34-.11-.33-.56-.56zm16.88 19.48c-.24.44-.24.44.21.67.35-.11.24-.48-.21-.67zm-4.09 394.33a4.46 4.46 0 0 0-3.67 4.92 4.16 4.16 0 0 0 4.6 3.66l.34-.05a4.45 4.45 0 0 0 3.67-4.92 4.33 4.33 0 0 0-4.94-3.61zm-17.29 18.62a4.46 4.46 0 0 0-3.67 4.92 4.41 4.41 0 0 0 4.94 3.61 4.46 4.46 0 0 0 3.67-4.92 4.63 4.63 0 0 0-4.94-3.61zm-18.97 17a5 5 0 1 0 5.84 4.06 4.91 4.91 0 0 0-5.58-4.11l-.26.05zm-20.09 15.85a5 5 0 1 0 5.84 4.06 4.91 4.91 0 0 0-5.58-4.11l-.26.05zM711 602.3a6.27 6.27 0 1 0 7.3 5.08c-.3-3.26-3.69-5.51-7.3-5.08zm-22.57 11.79a6.82 6.82 0 1 0 7.86 5.64 6.71 6.71 0 0 0-7.58-5.69l-.28.05zM665.23 625a6.82 6.82 0 1 0 7.86 5.65c-.87-3.84-4.35-6.44-7.86-5.65zm-24.62 7.62a7.37 7.37 0 1 0 8.42 6.2c-.21-4.06-4.14-6.82-8.42-6.2zm-24.54 6.85a7.17 7.17 0 1 0 8.31 5.86 7.46 7.46 0 0 0-8.31-5.86zM590.78 644a7.45 7.45 0 1 0 .15 0h-.15zm-25.6 2.31a7.6 7.6 0 0 0-6.31 8.39 7.45 7.45 0 1 0 6.36-8.4l-.05.01zm-25.69.9a7.17 7.17 0 1 0 8.31 5.87 7.07 7.07 0 0 0-8-5.92l-.31.05zm-25.57-1a6.47 6.47 0 1 0 7.41 5.41 6.3 6.3 0 0 0-7-5.47l-.41.06zM488.71 644a5 5 0 1 0 5.84 4.06c-.08-2.61-3-4.64-5.84-4.06zM464 638.59a4.66 4.66 0 1 0 5.39 3.84 4.81 4.81 0 0 0-5.39-3.84zm-24.48-8.07a5 5 0 1 0 5.84 4.06 5.11 5.11 0 0 0-5.84-4.06zM416 620.66a5.36 5.36 0 1 0 6.3 4.29 5.52 5.52 0 0 0-6.3-4.29zm-23-11.54a5.51 5.51 0 0 0-4.48 5.93 5.44 5.44 0 0 0 5.95 4.4 5.51 5.51 0 0 0 4.48-5.93c-.18-2.91-2.95-4.61-5.95-4.4zM371.43 596a4.87 4.87 0 1 0 1.25 9.65 4.78 4.78 0 0 0 3.91-5.36c-.08-2.53-2.59-4.37-5.16-4.29zm-20.88-15.55a5.37 5.37 0 1 0 6.29 4.29 5.65 5.65 0 0 0-6.29-4.29zm-18.94-16.56a5.56 5.56 0 1 0 6.4 4.62 5.66 5.66 0 0 0-6.4-4.62zm-18-18.36c-3.17.66-5.35 3.23-4.71 6.37.64 3.14 3.23 5.28 6.4 4.62 3.17-.66 5.36-3.22 4.71-6.37a5.19 5.19 0 0 0-6.4-4.62zm-16-19.03a5 5 0 1 0 .17 0h-.17zm-14.7-20.92a5 5 0 1 0 5.84 4.06 5.11 5.11 0 0 0-5.84-4.06zM270.24 484a5.4 5.4 0 0 0-4.24 5.48 5.34 5.34 0 0 0 5.5 4.17 4.79 4.79 0 0 0 3.9-5.37c.15-3.04-2.32-4.84-5.16-4.28zM259 459.76c-3.18.66-5.59 3.68-4.94 6.82a6 6 0 0 0 6.84 4.86c3.18-.66 5.59-3.68 4.95-6.82-.34-3.31-3.24-5.34-6.85-4.86zm-8.84-22.52a4.66 4.66 0 1 0 5.39 3.84c-.43-2.47-2.45-4.08-5.39-3.84zM243.41 413a4.66 4.66 0 1 0 5.39 3.83 4.8 4.8 0 0 0-5.39-3.83zm-32.96-18a2 2 0 1 0 2.38 1.54.64.64 0 0 0 0-.07 2.63 2.63 0 0 0-2.38-1.47zm-2.68-24.45c-.68.22-.91.67-1 1.45.22.68.67.9 1.46 1 .68-.22.91-.67 1-1.45-.23-.66-1.01-.79-1.46-1zm-1.09-24.23c-.23.45-.23.45.22.67-.11-.33.23-.44-.22-.67zm8.18-75.67c.14.35.45.22 0 0zM240 197.29a1.46 1.46 0 1 0 1.57 1.35c-.34-1.01-.9-1.57-1.57-1.35zm11.61-23.53a2.15 2.15 0 1 0 2.47 1.8 1.89 1.89 0 0 0-2.47-1.8zM265 150.07a4.314 4.314 0 0 0 1 8.57h.31a4.314 4.314 0 0 0-1-8.57H265zm15.11-20.58a4.31 4.31 0 1 0 4.94 3.61 4.42 4.42 0 0 0-4.94-3.61zm16.94-17.42c-1.13 0-1.82 1.34-1.84 2.46-.02 1.12 1.34 1.8 2.47 1.8 1.13 0 1.83-1.34 1.84-2.46-.33-1.01-1.45-2.11-2.47-1.8zm17.87-19.22a3 3 0 0 0-2.66 3.3 1 1 0 0 0 0 .17 3.17 3.17 0 0 0 3.47 2.59 3.22 3.22 0 0 0 2.65-3.46 2.93 2.93 0 0 0-3.19-2.64l-.27.04zm19.29-15.95c-1.47.1-2.16 1.45-2.06 2.9.1 1.45 1.44 2.14 2.92 2 1.48-.14 2.16-1.45 2.06-2.91a2.25 2.25 0 0 0-2.42-2.08 2.1 2.1 0 0 0-.5.09zm20.65-15.28c-1.47.11-2.16 1.45-2.06 2.91.1 1.46 1.44 2.13 2.92 2 1.48-.13 2.16-1.45 2.06-2.91a2.27 2.27 0 0 0-2.92-2zM377 49.6c-.34.11-.34.11-.57.56.11.34.11.34.56.56.34-.11.34-.11.57-.56a1.26 1.26 0 0 0-.56-.56zm22.48-11.79c-.23.45-.12.78.22.67-.11-.33.23-.48-.22-.67zM599.23 5.69c-.23.45-.12.78.22.67.34-.11.23-.44-.22-.67zm24.98 2.69a2 2 0 1 0 2.4 1.46 2.62 2.62 0 0 0-2.4-1.46zm24.73 4.25a4 4 0 1 0 1 7.86 4 4 0 1 0-1-7.86zM673 20.47a4.46 4.46 0 0 0-3.67 4.92 4.355 4.355 0 1 0 8.61-1.31c-.12-2.58-2.48-4.08-4.94-3.61zm23.51 9.86a5 5 0 0 0-3.9 5.37c.43 2.47 2.79 3.94 5.39 3.84a5 5 0 0 0 3.91-5.37 4.59 4.59 0 0 0-5.19-3.88l-.21.04zm22.85 11.21a4.78 4.78 0 0 0-3.91 5.36 5.35 5.35 0 0 0 5.5 4.18 5.42 5.42 0 0 0 4.25-5.48c-.88-2.7-3.35-4.5-5.84-4.06zm21.9 15.22a3 3 0 0 0-2.68 3.29v.19a2.91 2.91 0 0 0 3.16 2.64l.32-.05a3 3 0 0 0 2.66-3.3.78.78 0 0 0 0-.16 2.78 2.78 0 0 0-2.88-2.69 2.33 2.33 0 0 0-.58.08zm20.66 14.9a3 3 0 0 0-2.67 3.34 1.1 1.1 0 0 0 0 .18 3.09 3.09 0 1 0 6.12-.87 2.77 2.77 0 0 0-2.85-2.69 3.2 3.2 0 0 0-.6.04zm19.94 18.48a.77.77 0 0 0-.47.9.72.72 0 0 0 .9.47.72.72 0 1 0-.43-1.37zm1.75 494.53a4.66 4.66 0 1 0 5.39 3.83 4.79 4.79 0 0 0-5.39-3.83zm-19.34 17.09a4.66 4.66 0 1 0 5.39 3.84 4.58 4.58 0 0 0-5.17-3.88l-.22.04zm-20.66 14.14a5.56 5.56 0 1 0 6.4 4.62c-.62-3.14-3.2-5.28-6.4-4.62zm-21.73 13.03a6.46 6.46 0 1 0 7.41 5.41 6.24 6.24 0 0 0-6.93-5.48 4 4 0 0 0-.48.07zm-22.65 11.45a7.17 7.17 0 1 0 8.31 5.87c-.86-3.82-4.45-6.75-8.31-5.87zm-23.87 10a7.72 7.72 0 1 0 2.484 15.239 7.72 7.72 0 0 0-2.484-15.239zm-23.97 8.53a7.37 7.37 0 1 0 8.42 6.2 7.59 7.59 0 0 0-8.42-6.2zm-24.86 6.96a7.37 7.37 0 1 0 8.42 6.2 7.24 7.24 0 0 0-8.13-6.24l-.29.04zm-24.92 5.5a7.17 7.17 0 1 0 8.31 5.87c-.92-3.82-4.49-6.75-8.31-5.87zm-25.54 3.82a6.26 6.26 0 1 0 7.3 5.07 6.53 6.53 0 0 0-7.3-5.07zm-25.37 1.91c-3.17.66-5.35 3.23-4.71 6.37.64 3.14 3.23 5.28 6.4 4.63 3.17-.65 5.36-3.23 4.71-6.38a5.66 5.66 0 0 0-6.4-4.62zm-25.79-.56a5.56 5.56 0 1 0 1.816 10.97 5.56 5.56 0 0 0-1.816-10.97zm-25.3-1.46a4.46 4.46 0 0 0-3.67 4.92 4.35 4.35 0 1 0 3.67-4.92zm-25-3.81a3.71 3.71 0 0 0-3.14 4.21v.16a3.803 3.803 0 0 0 7.49-1.32c-.63-2.02-2.2-3.32-4.35-3.05zm-25-7.51a4.87 4.87 0 1 0 5.5 4.18 5.4 5.4 0 0 0-5.5-4.18zm-24.51-8.06a5.38 5.38 0 0 0-4.25 5.47 4.77 4.77 0 0 0 5.39 3.84 5.41 5.41 0 0 0 4.25-5.48c.02-2.24-2.49-4.05-5.39-3.83zm-23.49-10.94a5.91 5.91 0 1 0 6.85 4.85 6.25 6.25 0 0 0-6.85-4.85zm-22.67-10.57a5 5 0 1 0 5.95 4.4c-.65-3.15-3.12-4.95-5.95-4.4zm-21.6-11.98a3.41 3.41 0 1 0 3.93 2.82 3.53 3.53 0 0 0-3.93-2.82zm-20.66-14.9a3.41 3.41 0 1 0 3.93 2.82 3.54 3.54 0 0 0-3.93-2.82zm-19.94-18.48a5.565 5.565 0 0 0 1.69 11c3.18-.66 5.35-3.23 4.71-6.37a5.79 5.79 0 0 0-6.4-4.63zm-18.13-17.57c-3.18.66-5.36 3.23-4.71 6.37.65 3.14 3.22 5.29 6.4 4.63 3.18-.66 5.35-3.23 4.71-6.38-.64-3.15-3.24-5.28-6.4-4.62zm-16.78-19.14c-3.17.66-5.35 3.23-4.71 6.37.64 3.14 3.23 5.29 6.4 4.63 3.17-.66 5.36-3.23 4.71-6.37a5.65 5.65 0 0 0-6.4-4.63zm-15.29-19.25a4.81 4.81 0 0 0-3.91 5.37 4.71 4.71 0 1 0 3.94-5.37h-.03zm-13.37-19.11a2.1 2.1 0 0 0-1.86 2.31.77.77 0 0 0 0 .15 2.18 2.18 0 1 0 4.31-.66 1.89 1.89 0 0 0-2.47-1.8h.02zm-12.08-23.28a3.21 3.21 0 1 0 3.82 2.48 3.45 3.45 0 0 0-3.82-2.48zM230.16 465a5.37 5.37 0 1 0 6.29 4.29c-.45-2.53-3.34-4.53-6.29-4.29zm-8.35-22.24a3.76 3.76 0 1 0 4.38 3 3.85 3.85 0 0 0-4.38-3zm-6.75-24.29a3.71 3.71 0 0 0-3.14 4.21v.16a3.8 3.8 0 1 0 3.12-4.37h.02zm-32.95-19.09c-1.47.1-2.17 1.45-2.07 2.91.1 1.46 1.45 2.13 2.92 2 1.47-.13 2.17-1.45 2.07-2.91-.1-1.46-1.42-2.11-2.92-2zm-2.9-25.14c-1.13 0-1.82 1.34-1.83 2.46-.01 1.12 1.33 1.8 2.47 1.81 1.14.01 1.82-1.34 1.83-2.46.01-1.12-1.33-1.8-2.47-1.81zm-.87-23.56c-.34.12-.34.12-.57.56.11.34.11.34.56.57.34-.11.34-.11.57-.56-.22-.68-.56-.57-.56-.57zm.39-25.45c-.34.11-.34.11-.23.44.11.33.11.34.45.23.34-.11.34-.11.23-.45l-.45-.22zm2.27-25.34c-.23.45-.12.78.22.67l-.22-.67zm9.53-49.65c.11.34.34-.11 0 0zm27.6-71.55c-.23.45.11.34.11.34l-.11-.34zM230 155.07c-1 .34-1.59.9-1.26 1.91.33 1.01.89 1.57 1.91 1.24 1.02-.33 1.59-.89 1.26-1.9.09-1.12-.85-1.56-1.91-1.25zm14.09-21.69c-1 .33-1.6.89-1.27 1.9.33 1.01.89 1.57 1.91 1.24 1.02-.33 1.59-.89 1.27-1.9-.22-.68-1.23-1.47-1.91-1.24zm15.38-19.9c-.68.22-.92.67-1 1.45.22.67.67.9 1.46 1 .68-.22.92-.67 1-1.46a1.6 1.6 0 0 0-1.46-.99zM276 93.58a1.86 1.86 0 0 0-1.27 1.91 1.82 1.82 0 0 0 1.9 1.27c.69-.22 1.6-.89 1.27-1.9a2.38 2.38 0 0 0-1.9-1.28zm17.83-18.09c-.68.22-1.59.89-1.26 1.9a1.78 1.78 0 0 0 1.91 1.24c.68-.22 1.59-.89 1.26-1.9-.22-.67-.89-1.57-1.91-1.24zm19.31-17.08c-1 .33-1.59.89-1.26 1.9.33 1.01.88 1.58 1.91 1.25 1.03-.33 1.59-.89 1.26-1.91.12-.78-.89-1.57-1.91-1.24zm20.54-15.65c-1 .33-1.59.89-1.26 1.9.33 1.01.88 1.57 1.91 1.24 1.03-.33 1.59-.89 1.26-1.9a1.63 1.63 0 0 0-1.91-1.24zm21.42-12.88c-.34.11-.34.11-.57.56.11.33.11.33.56.56.34-.11.34-.11.57-.56-.22-.68-.22-.68-.56-.56zm22.2-12.8c-.34.11-.34.11-.23.44.11.33.11.34.45.23.34-.11.34-.11.23-.45a.34.34 0 0 0-.42-.23l-.03.01zM400.61 5.4a.77.77 0 0 0-.46.89.715.715 0 1 0 1.36-.44c-.32.15-.51-.56-.9-.45zM699.1.06a4.81 4.81 0 0 0-3.91 5.37 4.713 4.713 0 0 0 9.3-1.53A4.77 4.77 0 0 0 699.1.06zm23.19 11.09a4.81 4.81 0 0 0-3.91 5.37 4.713 4.713 0 0 0 9.3-1.53 4.56 4.56 0 0 0-5.15-3.88l-.24.04zm22.16 12.55a4.78 4.78 0 0 0-3.91 5.36c.43 2.47 2.79 3.94 5.39 3.84a5 5 0 0 0 3.91-5.37 4.57 4.57 0 0 0-5.18-3.87l-.21.04zM766 37.92a4 4 0 1 0 4.5 3.43 4 4 0 0 0-4.5-3.43zm20.61 17.14a2.08 2.08 0 0 0-1.85 2.3.78.78 0 0 0 0 .16 2.07 2.07 0 0 0 2.29 1.83h.18A2.08 2.08 0 0 0 789.1 57a.78.78 0 0 0 0-.16 2.66 2.66 0 0 0-2.49-1.78zm8.77 557.81a4.31 4.31 0 1 0 4.94 3.61 4.41 4.41 0 0 0-4.94-3.61zm-19.77 15.73a4.87 4.87 0 1 0 .87 9.7h.39a4.79 4.79 0 0 0 3.9-5.37 4.45 4.45 0 0 0-4.56-4.34l-.6.01zm-21.06 13.93a5.56 5.56 0 1 0 6.4 4.62 6.12 6.12 0 0 0-6.4-4.62zM732.61 656c-3.18.66-5.59 3.68-4.94 6.83a6 6 0 0 0 6.85 4.85c3.17-.66 5.58-3.68 4.94-6.82a6 6 0 0 0-6.85-4.86zm-23 10.45a7.17 7.17 0 1 0 8.31 5.87c-.44-3.56-4.37-6.41-8.31-5.87zM686.27 677a7.17 7.17 0 1 0 8.31 5.87c-.86-3.81-4.45-6.75-8.31-5.87zm-24.42 8.31a7.72 7.72 0 1 0 2.484 15.239 7.72 7.72 0 0 0-2.484-15.239zm-24.53 7.97a6.47 6.47 0 1 0 2.026 12.78 6.47 6.47 0 0 0-2.026-12.78zm-24.96 5.48a6.47 6.47 0 1 0 7.41 5.42 6.25 6.25 0 0 0-6.92-5.5l-.49.08zM587 702.94c-3.18.66-5.58 3.67-4.94 6.82a6 6 0 0 0 6.85 4.85c3.18-.66 5.59-3.68 4.94-6.82a5.75 5.75 0 0 0-6.46-4.92l-.39.07zm-25.63 2.35a5.37 5.37 0 1 0 6.29 4.29c-.53-2.82-3.35-4.5-6.29-4.29zm-25.47.47a5 5 0 1 0 5.84 4.06c-.42-2.48-3.23-4.17-5.84-4.06zm-25.45-.68a4.31 4.31 0 1 0 4.94 3.61 4.42 4.42 0 0 0-4.94-3.61zm-25.33-1.46c-1.14 0-1.83 1.34-1.84 2.46-.01 1.12 1.34 1.8 2.47 1.81 1.13.01 1.82-1.34 1.84-2.46.02-1.12-.98-1.91-2.47-1.81zm-24.96-4.93c-1.13 0-1.82 1.34-1.84 2.46-.02 1.12 1.34 1.8 2.47 1.81 1.13.01 1.83-1.34 1.84-2.46a2.08 2.08 0 0 0-2.32-1.83l-.15.02zM435 689.76a4.31 4.31 0 1 0 4.94 3.61c-.06-2.61-2.42-4.08-4.94-3.61zm-24.09-9.34a5 5 0 1 0 5.84 4.07 5.32 5.32 0 0 0-5.84-4.07zm-23.53-10.98c-3.18.66-5.59 3.68-4.94 6.82a6 6 0 0 0 6.85 4.86c3.17-.66 5.58-3.68 4.94-6.83a6.22 6.22 0 0 0-6.85-4.85zm-22.62-11.68c-3.18.66-5.59 3.68-4.94 6.82a6 6 0 0 0 6.85 4.86c3.17-.66 5.58-3.68 4.94-6.82a6 6 0 0 0-6.85-4.86zm-21.39-10.15a2.71 2.71 0 1 0 3 2.38 2.78 2.78 0 0 0-3-2.38zM322.69 635c-.35.11-.92.67-.81 1 .11.33.67.9 1 .79.33-.11.91-.67.81-1 .13-.79-.32-1.03-1-.79zm-20.18-18.08c-1.47.11-2.5 1.56-2.3 3.36.1 1.46 1.56 2.47 3.37 2.26 1.48-.11 2.51-1.56 2.3-3.36-.09-1.42-1.55-2.42-3.37-2.26zm-19.01-20.27a5.92 5.92 0 1 0 6.85 4.86 5.76 5.76 0 0 0-6.49-4.92l-.36.06zm-17.34-18.58a5.71 5.71 0 0 0-4.71 6.38c.64 3.14 3.22 5.28 6.4 4.62a5.7 5.7 0 0 0 4.71-6.37c-.2-2.94-3.12-4.94-6.4-4.63zm-15.74-19.47a5.56 5.56 0 1 0 6.4 4.63 5.66 5.66 0 0 0-6.4-4.63zM236 538.69a5 5 0 0 0-3.91 5.37c.43 2.46 2.79 3.93 5.39 3.83a5 5 0 0 0 3.91-5.37 4.57 4.57 0 0 0-5.18-3.87l-.21.04zm-12.54-19.01a1.463 1.463 0 0 0 .19 2.92A2 2 0 0 0 225 521a1.93 1.93 0 0 0-1.54-1.32zm-11.63-23.04c-1 .33-1.83 1.33-1.61 2 .33 1 1.34 1.8 2 1.58 1-.33 1.82-1.34 1.61-2 .03-1.13-.83-1.58-2-1.58zm-10.03-25.06a3.41 3.41 0 1 0 3.93 2.82 3.54 3.54 0 0 0-3.93-2.82zm-8.19-23.03a2.78 2.78 0 0 0-2.41 3 2.75 2.75 0 0 0 3 2.37 2.8 2.8 0 0 0 2.41-3 2.6 2.6 0 0 0-2.79-2.39l-.21.02zm-6.56-24.7a2.7 2.7 0 1 0 3 2.37 2.78 2.78 0 0 0-3-2.37zm-32.94-20.22a2.71 2.71 0 1 0 3 2.38c-.5-1.69-1.64-2.82-3-2.38zm-3.45-25.7a2.86 2.86 0 1 0 3.37 2.26c-.1-1.43-1.56-2.43-3.37-2.26zm-1.21-24.57c-1.13 0-1.82 1.34-1.83 2.46a2.65 2.65 0 0 0 2.47 1.81c1.13 0 1.82-1.34 1.83-2.46a2.67 2.67 0 0 0-2.47-1.81zm.05-25.36a2.15 2.15 0 1 0 2.47 1.8 1.87 1.87 0 0 0-1.86-1.89 1.81 1.81 0 0 0-.61.09zm2.11-24.87c-.68.22-1.6.89-1.27 1.9.22.67.89 1.57 1.91 1.24.68-.22 1.6-.89 1.27-1.9-.24-.68-1.25-1.47-1.91-1.24zm3.52-23.88c-.34.11-.34.11-.23.45.11.34.11.34.45.23.34-.11.34-.12.23-.45a.34.34 0 0 0-.44-.23h-.01zm67.76-163.57c-.23.44-.12.78.22.67-.11-.35.23-.45-.22-.67zm32.24-39.92c-.24.45-.13.79.21.68 0 0 .35-.11-.21-.68zm18.08-18.53c-.34.11-.68.22-.57.56.11.34.22.67.56.56.34-.11.68-.22.57-.55a1.24 1.24 0 0 0-.56-.57zm18.97-16.97c-.34.12-.68.23-.57.56.11.33.22.68.56.57.34-.11.68-.22.57-.56-.11-.34-.22-.68-.56-.57zm19.98-16.17c-.34.11-.91.67-.8 1 .11.33.67.9 1 .79.33-.11.91-.67.8-1 .13-.79-.32-1.01-1-.79zm21.21-14.72c-.34.11-.91.67-.8 1 .11.33.66.9 1 .79.34-.11.92-.67.81-1-.11-.33-.67-.9-1.01-.79zM769.61 6.2a3.54 3.54 0 0 0-3.2 3.83c.02.178.05.355.09.53a3.5 3.5 0 0 0 3.86 3.1 3 3 0 0 0 .52-.1 3.54 3.54 0 0 0 3.2-3.83 4.51 4.51 0 0 0-.08-.53 3.85 3.85 0 0 0-4.39-3zm21.13 16.24c-1.13 0-1.82 1.34-1.83 2.46-.01 1.12 1.33 1.8 2.47 1.8 1.14 0 1.82-1.34 1.83-2.46.01-1.12-.99-1.91-2.47-1.8zm-4.08 633.12a5 5 0 1 0 5.6 4.51c-.65-3.14-3.11-4.94-5.6-4.51zm-21.43 14.04a5.37 5.37 0 1 0 6.29 4.29c-.52-2.8-3.35-4.5-6.29-4.29zm-21.99 13.48a5.22 5.22 0 1 0 6 4.4 5 5 0 0 0-6-4.4zm-22.54 11.79a5.5 5.5 0 0 0-4.47 5.93 5.44 5.44 0 0 0 6 4.4 5.5 5.5 0 0 0 4.47-5.93 5.24 5.24 0 0 0-6-4.4zm-23.86 8.89a6.47 6.47 0 1 0 2.026 12.78 6.47 6.47 0 0 0-2.026-12.78zm-24.42 8.29a7.17 7.17 0 1 0 8.31 5.87 7.24 7.24 0 0 0-8.31-5.87zm-24.63 6.51a7.72 7.72 0 1 0 2.484 15.239 7.72 7.72 0 0 0-2.484-15.239zM623 724.4a7.74 7.74 0 0 0-6.56 8.76v.07a7.803 7.803 0 0 0 15.42-2.4 8.25 8.25 0 0 0-8.86-6.43zm-25.45 4.15a7.72 7.72 0 1 0 8.87 6.44c-.63-4.23-4.67-7.43-8.87-6.44zM572.27 733a5.37 5.37 0 1 0 6.29 4.29c-.43-2.43-3.35-4.46-6.29-4.29zm-25.37 2a5 5 0 0 0-3.91 5.37c.43 2.47 2.79 3.94 5.39 3.84a5 5 0 0 0 3.91-5.37c-.88-2.74-2.9-4.32-5.39-3.84zm-25.9-.94a5 5 0 0 0-3.91 5.37 4.76 4.76 0 0 0 5.39 3.83 5 5 0 0 0 3.91-5.36 4.77 4.77 0 0 0-5.39-3.84zm-25.23-1.12a3.21 3.21 0 1 0 3.82 2.48 3.45 3.45 0 0 0-3.82-2.48zm-24.87-2.35a1.603 1.603 0 1 0 .65 3.14c.68-.22 1.59-.89 1.26-1.9a1.63 1.63 0 0 0-1.91-1.24zm-25.29-5.94c-1 .33-1.6.89-1.27 1.9.33 1.01.89 1.58 1.91 1.24 1.02-.34 1.6-.89 1.27-1.9.09-.78-.77-1.23-1.91-1.24zM421 717.37a1.83 1.83 0 1 0 2.36 1.47 1.76 1.76 0 0 0-1.95-1.56c-.14.01-.279.04-.41.09zm-24.09-9.3a2.15 2.15 0 1 0 2.47 1.8c.02-1.11-.99-1.87-2.47-1.8zm-23.62-12.44a4.31 4.31 0 1 0 4.94 3.61 4.55 4.55 0 0 0-4.94-3.61zM350.67 684a4.66 4.66 0 1 0 5.39 3.83 4.57 4.57 0 0 0-5.18-3.87l-.21.04zm-21.5-10.54a2 2 0 1 0 2.38 1.53v-.07a2 2 0 0 0-2.38-1.46zm-20.67-13.78c-.34.11-.92.67-.81 1 .11.33.67.9 1 .79.33-.11.92-.67.81-1-.11-.33-.66-.9-1-.79zm-20.2-15.79c-.68.23-.91.67-.8 1 .22.67.67.9 1 .79.68-.22.91-.67.8-1 .24-.44-.3-1.01-1-.79zm-19.36-20.13a4.31 4.31 0 1 0 4.94 3.61 4.2 4.2 0 0 0-4.69-3.65l-.25.04zm-17.77-19.95c-3.18.66-5.36 3.23-4.71 6.37a5.66 5.66 0 0 0 6.4 4.62c3.17-.65 5.35-3.22 4.71-6.37a6.1 6.1 0 0 0-6.4-4.62zm-16.56-18.47a5 5 0 1 0 6 4.4c-.68-3.14-3.15-4.98-6-4.4zM219.34 565a5 5 0 1 0 6 4.4c-.73-3.17-3.16-4.97-6-4.4zm-13.47-20.61a4.11 4.11 0 1 0 4.83 3.27 4.57 4.57 0 0 0-4.83-3.27zm-12.26-19.12c-.68.22-.91.67-.8 1 .22.67.67.9 1 .79.68-.22.91-.67.8-1 .26-.45-.3-1.01-1-.79zm-10.71-22.59c-.34.11-.68.22-.57.56.11.34.22.67.56.56.34-.11.68-.22.57-.56-.11-.34-.46-.24-.56-.56zM173.32 479c-.34.12-.92.67-.81 1 .11.33.67.9 1 .79.33-.11.92-.67.81-1-.11-.33-.66-.93-1-.79zm-8-24.62c-.68.22-1.25.78-1 1.45.25.67.78 1.24 1.46 1 .68-.24 1.25-.78 1-1.46-.25-.68-.66-.88-1.46-.99zM158.91 430c-.68.22-1.25.78-1 1.45.25.67.78 1.24 1.46 1 .68-.24 1.25-.78 1-1.45-.25-.67-.76-1.24-1.46-1zM126 409.76a.71.71 0 1 0 .9.46l-.9-.46zm-3.24-26.11a2 2 0 0 0 0 4 2.45 2.45 0 0 0 2.34-2.54 2 2 0 0 0-2.34-1.46zm-1.97-26.89a3.41 3.41 0 1 0 1.06 6.73 3.41 3.41 0 0 0-.75-6.78l-.31.05zm-.18-26.06a4.11 4.11 0 1 0 4.83 3.27 4.6 4.6 0 0 0-4.83-3.27zm1.52-24.34a2.86 2.86 0 1 0 3.37 2.26 3.42 3.42 0 0 0-3.37-2.26zm3.42-23.09a.77.77 0 0 0-.46.9.71.71 0 1 0 .46-.9zm37.19-120.86c-.23.45.11.34.11.34l-.11-.34zM271 21.44c-.11-.33-.34.11 0 0-.23.45-.23.45.22.68-.11-.34.23-.45-.22-.68zm19.87-16.51c-.34.11-.68.22-.57.56.11.34.21.67.56.56.35-.11.68-.22.57-.56.23-.49-.22-.67-.56-.56zm506.81 677.6a5.41 5.41 0 0 0-4.25 5.48 4.76 4.76 0 0 0 5.39 3.83 5.4 5.4 0 0 0 4.25-5.47c-.32-2.14-2.79-3.94-5.39-3.84zm-21.32 14.38a4.78 4.78 0 0 0-3.91 5.36 4.92 4.92 0 0 0 9.75-1.3c-.88-2.7-3.35-4.5-5.84-4.06zm-22.1 13.14a4.87 4.87 0 1 0 1.348 9.646 4.87 4.87 0 0 0-1.348-9.646zM731 720.6a5.91 5.91 0 1 0 6.85 4.85 6 6 0 0 0-6.85-4.85zm-23.68 8.4a7.72 7.72 0 1 0 8.87 6.44 8.26 8.26 0 0 0-8.87-6.44zm-24.19 7.88a8.77 8.77 0 1 0 .15 0h-.15zm-24.76 8.42a7.72 7.72 0 1 0 2.484 15.239 7.72 7.72 0 0 0-2.484-15.239zm-24.96 5.46a8.07 8.07 0 1 0 9.32 6.66 8.28 8.28 0 0 0-9.32-6.66zm-25.28 4.53a8.07 8.07 0 1 0 2.71 15.911 8.07 8.07 0 0 0-2.71-15.911zm-25.39 3.04a8.26 8.26 0 1 0 .07 0h-.07zm-25.06 5.16a4.11 4.11 0 1 0 4.83 3.27 4.27 4.27 0 0 0-4.83-3.27zm-25.37 1.91c-1.13 0-1.83 1.34-1.84 2.46-.01 1.12 1.34 1.8 2.47 1.8 1.13 0 1.83-1.33 1.84-2.46a1.93 1.93 0 0 0-2-1.87 1.84 1.84 0 0 0-.47.07zm-25.31-.33c-.34.11-.91.67-.8 1 .11.33.67.9 1 .79.33-.11.91-.67.8-1-.24-.68-.69-.86-1-.79zm-25.47-2.92c-.34.11-.34.11-.57.56.11.34.11.34.56.57.34-.12.34-.12.57-.56-.09-.34-.21-.72-.56-.57zm-25.18-4.48c-.34.11-.23.45 0 0-.23.45-.12.79.22.68l-.22-.68zm-24.94-6.05c-.35.11-.35.11-.58.56.11.34.11.34.56.56.34-.11.34-.11.57-.56-.21-.67-.21-.67-.55-.56zm-24.36-7.73c-.34.11-.34.11-.58.56.11.33.11.33.56.56.34-.11.34-.11.58-.56-.11-.33-.22-.69-.56-.56zm-24.22-10.76a2.1 2.1 0 0 0-1.85 2.32v.14a2.17 2.17 0 1 0 1.83-2.46h.02zm-23.53-10.98c-1.47.11-2.5 1.56-2.3 3.35.1 1.46 1.56 2.48 3.37 2.26 1.48-.1 2.51-1.56 2.3-3.35-.06-1.41-1.55-2.48-3.37-2.26zm-22.51-11.31c-1.47.1-2.16 1.45-2.06 2.9.1 1.45 1.44 2.14 2.92 2 1.48-.14 2.16-1.45 2.06-2.91-.43-1.31-1.55-2.44-2.92-1.99zm-22.03-13.33c-1.47.1-2.17 1.45-2.07 2.91.1 1.46 1.45 2.13 2.92 2 1.47-.13 2.17-1.45 2.07-2.91-.1-1.46-1.45-2.11-2.92-2zm-20.47-11.98c-.1-.34-.34.11 0 0-.23.45.11.34.11.34l-.11-.34zm-39.57-33.7c-.69.22-1.26.78-1 1.45.26.67.78 1.24 1.46 1 .68-.24 1.26-.77 1-1.45-.26-.68-.67-.89-1.46-1zm-18.35-19.37a2.86 2.86 0 1 0 .76 5.67 1.7 1.7 0 0 0 .31-.06 2.51 2.51 0 0 0 2.45-2.57 3.41 3.41 0 0 0-3-3.15 3.12 3.12 0 0 0-.52.11zM219 611.29a5 5 0 1 0 5.61 4.52c-.25-2.92-2.72-4.73-5.61-4.52zm-15.39-18.12a3.21 3.21 0 1 0 3.82 2.49 3.45 3.45 0 0 0-3.82-2.49zM189 572.58a3.06 3.06 0 1 0 3.48 2.6 2.92 2.92 0 0 0-3.17-2.64 1.55 1.55 0 0 0-.31.04zm-13.3-21.36a2.5 2.5 0 1 0 2.92 2c-.01-1.09-1.45-2.11-2.92-2zM164.27 530a1.46 1.46 0 1 0 1.57 1.35c-.33-1.04-.84-1.59-1.57-1.35zm-10.5-23.07c-.68.22-1.25.78-1 1.45.25.67.78 1.24 1.46 1 .68-.24 1.25-.78 1-1.45-.25-.67-.77-1.17-1.46-1zm-9.25-22.7c-.24.45.11.34.11.34s.34-.11-.11-.34c.48.23.34-.11 0 0zm-7.44-24.03c-.23.45.11.34.11.34l-.11-.34zm-6.18-24.81c-.23.44.11.33.11.33l-.11-.33zm-36.39-45.92c-.34.11-.34.11-.57.56.11.33.11.33.56.56.34-.11.34-.11.57-.56-.07-.33-.21-.67-.56-.56zm-1.85-26.59c-1 .33-1.6.89-1.27 1.9.33 1.01.89 1.57 1.91 1.24 1.02-.33 1.59-.89 1.27-1.9a2.36 2.36 0 0 0-1.91-1.24zm-.73-26.59a2.86 2.86 0 1 0 1.07 5.62 2.51 2.51 0 0 0 2.45-2.57 2.63 2.63 0 0 0-.15-.79c-.1-1.46-1.56-2.47-3.37-2.26zm1.4-24.66c-1.13 0-1.83 1.33-1.84 2.45-.01 1.12 1.34 1.81 2.47 1.81 1.13 0 1.83-1.34 1.84-2.46a2.66 2.66 0 0 0-2.47-1.8zm2.52-23.55c-.34.11-.34.11-.57.56.11.34.11.34.56.56.34-.11.34-.11.57-.55.23-.44-.22-.65-.56-.57zm33.7-122.32c-.23.45-.12.78.22.67.34-.11.23-.45-.22-.67.45.24.34-.12 0 0zM787 724a4.47 4.47 0 0 0-3.68 4.92 4.36 4.36 0 0 0 8.62-1.31c-.05-2.61-2.41-4.06-4.94-3.61zm-21.95 13.46a3.76 3.76 0 1 0 4.38 3 4.27 4.27 0 0 0-4.38-3zm-23.44 10.22a5 5 0 1 0 5.84 4.06c-.18-2.92-2.99-4.61-5.84-4.06zm-23.84 8.87a6 6 0 0 0-5.28 6.65c0 .21.06.41.11.62.75 3.48 3.78 5.85 7.3 5.08a6 6 0 0 0 5.28-6.65c0-.21-.06-.41-.11-.62-.31-3.26-3.68-5.51-7.3-5.08zm-24.16 7.86a7.17 7.17 0 1 0 8.31 5.87c-.45-3.59-4.38-6.42-8.31-5.87zM670 777.65c-.68.23-1.6.9-1.27 1.91.22.67.89 1.57 1.91 1.24.68-.22 1.6-.89 1.27-1.9-.21-.68-.91-1.58-1.91-1.25zm-24.73 6.18c-.68.22-1.59.89-1.26 1.9a1.57 1.57 0 0 0 1.85 1.25h.06c.68-.22 1.59-.89 1.26-1.9-.18-.68-1.18-1.47-1.91-1.25zM620 788.32c-1 .33-1.6.89-1.27 1.9.33 1.01.89 1.54 1.89 1.24 1-.3 1.6-.89 1.27-1.9a2.37 2.37 0 0 0-1.89-1.24zm-25.63 3.44c-1 .33-1.82 1.34-1.6 2 .33 1 1.34 1.8 2 1.58 1-.33 1.82-1.34 1.6-2a1.55 1.55 0 0 0-1.47-1.64 1.57 1.57 0 0 0-.53.06zm-25.49 2.73c-.34.11-.91.67-.8 1 .11.33.67.9 1 .79.33-.11.91-.67.8-1 .24-.44-.27-1.01-1-.79zm-25.46.51c-.69.22-.92.66-.81 1 .22.68.67.9 1 .79.68-.22.92-.67.81-1-.11-.33-.66-.96-1-.79zm-25.58.06c-.23.45.11.34.11.34l-.11-.34zm-25.66-2.47c-.34.12-.34.12-.23.45.11.33.11.34.45.23.34-.11.34-.11.23-.45-.11-.34-.11-.34-.45-.23zm-25.31-3.69c-.23.44-.12.78.22.67-.09-.34.23-.45-.22-.67zm-25.06-5.27c-.24.45-.13.79.21.67a.48.48 0 0 0-.18-.65l-.03-.02zm-24.72-6.5c-.23.45.11.34 0 0zm-24.48-9.19c-.68.22-1.26.78-1 1.46.26.68.78 1.23 1.46 1 .68-.23 1.26-.78 1-1.45a1.91 1.91 0 0 0-1.46-1.01zm-24.51-11.77a4 4 0 1 0 4.51 3.41c0-2.27-2.36-3.74-4.51-3.41zM345.43 749c-.34.11-.68.22-.57.56.11.34.22.67.56.56.34-.11.68-.22.57-.56.23-.44-.22-.66-.56-.56zm-22.73-12a.71.71 0 1 0 .9.45c-.11-.31-.22-.69-.9-.45zM301 724.7c-.24.45.11.34.11.34s.23-.45-.11-.34zm-79.31-64.38a.71.71 0 1 0 .9.45.78.78 0 0 0-.9-.45zm-17.32-19.7c-.68.22-1.6.89-1.27 1.9.22.67.89 1.57 1.91 1.24.68-.22 1.6-.89 1.27-1.9-.22-.67-1.23-1.46-1.91-1.24zm-16.63-21.05a3.21 3.21 0 1 0 3.87 2.49 3.47 3.47 0 0 0-3.87-2.49zM173 600.89c-.68.22-1.25.78-1 1.45.25.67.78 1.24 1.46 1 .68-.24 1.25-.78 1-1.45-.25-.67-.67-.89-1.46-1zm-14-21.13c-.69.23-.92.67-1 1.46.22.67.67.9 1.46 1 .68-.22.91-.66 1-1.45-.24-.68-.69-.91-1.46-1.01zm-12.69-21.6a.71.71 0 1 0 .9.45.75.75 0 0 0-.9-.45zm-11.52-22.71a.71.71 0 1 0 .9.45l-.9-.45zm-10.18-23.15a.71.71 0 1 0 .9.45.78.78 0 0 0-.9-.45zM64.52 369c-.23.45-.23.45.22.67l-.22-.67zm-.85-25.76a.71.71 0 1 0 .9.45.75.75 0 0 0-.9-.45zm.85-25.24c-.35.11-.69.22-.58.56.11.34.22.67.56.56.34-.11.68-.22.57-.56.24-.44-.21-.66-.55-.56zm54.18-194.92c-.23.45.11.34.11.34l-.11-.34zm679.57 629.68a2.11 2.11 0 0 0-1.86 2.33v.13a2.09 2.09 0 0 0 2.3 1.84h.17a2.162 2.162 0 0 0-.45-4.3h-.18.02zm-22.55 12.9c-1 .33-1.82 1.34-1.61 2 .33 1 1.34 1.8 2 1.58 1-.33 1.83-1.34 1.61-2 .03-1.12-.87-1.58-2-1.58zm-22.98 11.56c-.69.23-1.6.89-1.27 1.91.22.67.89 1.57 1.91 1.24.68-.22 1.59-.89 1.27-1.9a1.83 1.83 0 0 0-1.91-1.25zm-23.32 10.54c-.68.22-1.25.78-1 1.45.25.67.78 1.24 1.46 1 .68-.24 1.25-.78 1-1.45-.25-.67-.78-1.2-1.46-1zm-24.2 9c-.68.22-1.25.78-1 1.45.25.67.77 1.24 1.46 1s1.25-.78 1-1.45c-.25-.67-.78-1.22-1.46-1zM554.3 823.82c-.34.11-.23.44 0 0-.23.44-.12.78.22.67l-.22-.67zm-25.69-.22c-.34.11-.23.44 0 0-.23.44-.12.78.22.67l-.22-.67zm-25.67-1.35c-.23.45.11.34.11.34s.34-.11-.11-.34zm-25.43-2.91c-.23.45.11.34.11.34l-.11-.34zm-99.4-26.58c-.68.22-1.6.89-1.27 1.9.22.67.89 1.57 1.91 1.24.68-.22 1.6-.89 1.27-1.9a2.36 2.36 0 0 0-1.91-1.24zm-23.34-8c-.34.11-.34.11-.23.44.11.33.11.34.45.23.34-.11.34-.11.23-.45a.34.34 0 0 0-.42-.23l-.03.01zm-23.53-11c-.34.11-.68.22-.57.55.11.33.22.68.56.57.34-.11.68-.22.57-.56.2-.47-.19-.7-.56-.56zm-22.63-11.67c-.34.11-.34.11-.23.44.11.33.11.34.45.23.34-.11.34-.11.23-.45a.34.34 0 0 0-.42-.23l-.03.01zm-119.14-94.28c-.23.45-.12.78.22.67l-.22-.67zM172.49 648c-.34.11-.91.67-.8 1 .11.33.66.9 1 .79.34-.11.91-.67.8-1 .12-.79-.32-1.03-1-.79zm-15.73-20.6c-.68.22-1.26.78-1 1.46.26.68.78 1.23 1.46 1 .68-.23 1.26-.78 1-1.45a1.91 1.91 0 0 0-1.46-1.01zm-14.49-20.25c-.34.11-.91.67-.81 1 .1.33.67.9 1 .79.33-.11.92-.67.81-1-.21-.67-.66-.94-1-.79zM129 586.12c-.23.45-.12.79.22.68l-.22-.68zm657.61 207.29c-.34.11-.68.22-.57.56.11.34.22.67.56.56.34-.11.68-.22.57-.56.24-.45-.17-.67-.56-.56zm-23.08 11.23c-.35.11-.69.22-.58.56.11.34.22.67.56.56.34-.11.68-.22.58-.56.23-.44-.22-.67-.56-.56zm-23.43 10.22c-.34.11-.23.44 0 0-.23.44-.12.78.22.67l-.22-.67zm-200.81 36.9c-.68.22-.92.67-.81 1 .22.67.67.9 1 .79.68-.22.92-.67.81-1 .13-.79-.29-.98-1-.79zm-25.57-1c-.68.22-.91.67-.8 1 .22.68.67.9 1 .79.68-.22.91-.67.8-1 .13-.79-.66-.87-1-.79zM488.28 849c-.34.12-.23.45 0 0-.23.45-.12.79.22.68l-.22-.68zm-124.15-29.7c-.24.45.11.34.11.34l-.11-.34zm-47.08-20.84c-.34.11-.68.22-.57.56.11.34.22.67.56.56.34-.11.68-.22.57-.56.23-.44-.22-.67-.56-.56zm-22.51-11.31c-.23.45.11.34.11.34s.35-.11-.11-.34zm-21.93-12.99c-.23.44.11.33.11.33s.28-.44-.11-.33zm-21.22-14.34c-.23.45-.13.79.22.68a.5.5 0 0 0-.19-.67l-.03-.01zm-59-48.26c-.34.11-.23.44 0 0zm-35.47-37.27c-.34.11-.34.11-.57.56.11.33.11.33.56.56.34-.11.34-.11.57-.56.23-.45-.11-.34-.56-.56zm-16.07-20.48a1.46 1.46 0 1 0 1.57 1.35 1.24 1.24 0 0 0-1.07-1.39 1.2 1.2 0 0 0-.5.04zM126 633.66c-.34.12-.91.67-.8 1 .11.33.67.9 1 .79.33-.11.91-.67.8-1-.11-.33-.64-.9-1-.79zm-14-21.14c-.34.11-.91.67-.8 1 .11.33.67.9 1 .79.33-.11.91-.67.8-1-.21-.68-.66-.9-1-.79zm-12.9-21.14c-.23.44.11.33 0 0zM6.53 352.86c.11.34.35-.11 0 0zm517.85 527.25c-.34.11-.34.11-.57.55.11.34.11.34.56.57.34-.11.34-.11.57-.56.23-.45-.22-.67-.56-.56zm-266.06-81.56c-.23.44-.23.44.22.67 0 0 .34-.11-.22-.67.45.21.34-.11 0 0zm-41.78-28.9c-.23.45.11.35 0 0zm-19.86-15.89c-.23.45.11.34 0 0zM159 719.05c-.23.45.11.33.11.33.45.23.34-.11-.11-.33.49.22.38-.11 0 0zm-33.6-38.62a.77.77 0 0 0-.46.9.715.715 0 1 0 1.36-.44l-.9-.46zm-15.95-21.26a2.15 2.15 0 1 0 2.47 1.8 1.79 1.79 0 0 0-2.47-1.8zm-14.16-19.24c-.34.11-.34.11-.58.55.11.34.11.34.56.57.34-.11.34-.11.58-.56-.11-.34-.24-.67-.56-.56zm-13.46-21.71c-.34.11-.34.11-.57.56.11.34.11.34.56.56.34-.11.34-.11.57-.56a1.26 1.26 0 0 0-.56-.56zm62.45 126.11c-.34.11-.34.11-.23.45.11.34.11.34.45.23.34-.11.34-.11.23-.45l-.45-.23zm-17.57-18.13c-.34.11-.34.11-.23.45.11.34.11.33.45.22.34-.11.34-.11.23-.44l-.45-.23zm-16.77-19.14c-.23.45-.12.79.22.67l-.22-.67zm-16.07-20.48c-.68.22-.91.67-1 1.45.22.68.67.9 1.46 1 .68-.22.91-.67 1-1.46-.22-.65-.78-1.21-1.46-.99zm-15.26-21.49a2 2 0 1 0 2.39 1.54.64.64 0 0 0 0-.07 2.63 2.63 0 0 0-2.39-1.47zm-14-20.02c-.34.11-.91.67-.8 1 .11.33.67.9 1 .79.33-.11.91-.67.8-1 .19-.45-.37-1.02-1-.79zm47.11 106.86c-.24.45.11.34.11.34l-.11-.34zm-17.34-18.58c-.23.45.11.34.11.34.34-.11.34-.11-.11-.34zm-16.3-20.03a.71.71 0 0 0 .34 1.38h.09a.77.77 0 0 0 .47-.9.75.75 0 0 0-.9-.48zm-15.61-21.38c-.68.22-1.6.89-1.27 1.9.22.68.89 1.58 1.91 1.24.68-.22 1.6-.89 1.27-1.9a2.36 2.36 0 0 0-1.91-1.24zM48.09 672c-.34.11-.92.67-.81 1 .11.33.67.9 1 .79.33-.11.92-.67.81-1 .13-.79-.32-1.03-1-.79zm-13.58-20.89c-.23.44-.12.78.22.67a.47.47 0 0 0-.19-.65l-.03-.02zm12.04 68.35c-.34.11-.68.22-.57.56.11.34.22.68.56.56.34-.12.68-.22.57-.55-.11-.33-.22-.68-.56-.57zm-14.71-20.92c-.34.11-.91.67-.8 1 .11.33.67.9 1 .79.33-.11.91-.67.8-1-.11-.33-.66-.9-1-.79zm-30.63 6.6c-.34.11-.21.44 0 0z"/></svg>