<svg xmlns="http://www.w3.org/2000/svg" viewBox="0 0 805.86 881.23"><defs><style>.a{fill:#f4f4f4;}</style></defs><title>dotsArtboard 1-w-bg-152</title><path class="a" d="M547.88,336.46a6.27,6.27,0,1,0,7.3,5.08A6.55,6.55,0,0,0,547.88,336.46Z"/><path class="a" d="M519.61,341.16c-3.18.66-5.59,3.68-4.94,6.82a6,6,0,0,0,6.85,4.85c3.17-.66,5.58-3.67,4.94-6.82C526.2,342.76,522.93,340.84,519.61,341.16Z"/><path class="a" d="M526.91,318.31c-3.17.66-5.35,3.23-4.7,6.37s3.22,5.29,6.4,4.63a5.7,5.7,0,0,0,4.7-6.37,5.19,5.19,0,0,0-5.59-4.76A4.55,4.55,0,0,0,526.91,318.31Z"/><path class="a" d="M549.88,309a5.56,5.56,0,1,0,6.4,4.62,5.21,5.21,0,0,0-5.62-4.75A7,7,0,0,0,549.88,309Z"/><path class="a" d="M571.47,321a5.56,5.56,0,1,0,6.4,4.63,5.19,5.19,0,0,0-5.59-4.76A4.55,4.55,0,0,0,571.47,321Z"/><path class="a" d="M575.29,344.31a6.27,6.27,0,1,0,7.3,5.08A6.87,6.87,0,0,0,575.29,344.31Z"/><path class="a" d="M558.34,362.86a6.27,6.27,0,1,0,1.7,12.42l.43-.07c3.52-.77,5.92-3.79,5.17-7.27a5.93,5.93,0,0,0-6.57-5.21A5.86,5.86,0,0,0,558.34,362.86Z"/><path class="a" d="M533.8,361.52c-3.18.66-5.59,3.68-4.94,6.82a6,6,0,0,0,6.85,4.85c3.17-.65,5.58-3.67,4.94-6.82a5.76,5.76,0,0,0-6.5-4.91Z"/><path class="a" d="M491.42,345.86a5.92,5.92,0,1,0,6.85,4.85A6.26,6.26,0,0,0,491.42,345.86Z"/><path class="a" d="M493.16,321.08c-3.17.66-5.35,3.23-4.71,6.38s3.23,5.28,6.4,4.62a5.7,5.7,0,0,0,4.76-6.32,5.19,5.19,0,0,0-5.53-4.83A4.77,4.77,0,0,0,493.16,321.08Z"/><path class="a" d="M506,299c-3.17.66-5.35,3.23-4.71,6.37s3.23,5.29,6.4,4.63,5.36-3.23,4.71-6.37A5.65,5.65,0,0,0,506,299Z"/><path class="a" d="M526.94,284.76a5.36,5.36,0,1,0,6.29,4.28A5.5,5.5,0,0,0,526.94,284.76Z"/><path class="a" d="M552.1,281.07a5,5,0,1,0,5.84,4.06A5.3,5.3,0,0,0,552.1,281.07Z"/><path class="a" d="M576.35,288.46a5,5,0,0,0-4.24,5.48,5.1,5.1,0,1,0,4.63-5.53Z"/><path class="a" d="M595.19,304.7a5.56,5.56,0,1,0,6.4,4.62A5.69,5.69,0,0,0,595.19,304.7Z"/><path class="a" d="M604.66,328.07a5.56,5.56,0,1,0,6.4,4.62A5.69,5.69,0,0,0,604.66,328.07Z"/><path class="a" d="M602.61,353c-3.17.66-5.58,3.67-4.94,6.82a6,6,0,0,0,6.85,4.85c3.18-.66,5.59-3.68,4.94-6.82a5.53,5.53,0,0,0-6-5A6,6,0,0,0,602.61,353Z"/><path class="a" d="M590.12,374.89c-3.17.66-5.58,3.67-4.94,6.82a6,6,0,0,0,6.85,4.85c3.18-.66,5.59-3.68,4.94-6.82A6,6,0,0,0,590.12,374.89Z"/><path class="a" d="M569,389.94a5.36,5.36,0,1,0,.17,0Z"/><path class="a" d="M544.08,394.32a5,5,0,1,0,5.84,4.06,4.93,4.93,0,0,0-5.66-4.09Z"/><path class="a" d="M519.72,386.59a5.56,5.56,0,1,0,6.4,4.62C525.47,388.07,522.89,385.93,519.72,386.59Z"/><path class="a" d="M501,369.57a5.56,5.56,0,1,0,6.4,4.63A5.7,5.7,0,0,0,501,369.57Z"/><path class="a" d="M463.19,350.56c-3.17.66-5.58,3.68-4.94,6.82a6,6,0,0,0,6.85,4.86c3.18-.66,5.59-3.68,4.94-6.82A6,6,0,0,0,463.19,350.56Z"/><path class="a" d="M463.13,324.88c-3.17.66-5.58,3.68-4.94,6.82a6,6,0,0,0,6.85,4.85c3.18-.66,5.59-3.68,4.94-6.82A6.21,6.21,0,0,0,463.13,324.88Z"/><path class="a" d="M470.52,301.25a5.56,5.56,0,1,0,6.4,4.62,5.19,5.19,0,0,0-5.6-4.75A5.34,5.34,0,0,0,470.52,301.25Z"/><path class="a" d="M484.67,279.88a5.72,5.72,0,0,0-4.71,6.38,5.62,5.62,0,0,0,11.11-1.75C490.88,281.59,488,279.56,484.67,279.88Z"/><path class="a" d="M504.76,264a5.56,5.56,0,1,0,6.4,4.63A5.85,5.85,0,0,0,504.76,264Z"/><path class="a" d="M528.4,254.5a5.56,5.56,0,1,0,6.4,4.62A5.79,5.79,0,0,0,528.4,254.5Z"/><path class="a" d="M554.22,252.81a5,5,0,1,0,5.84,4.07A5.17,5.17,0,0,0,554.22,252.81Z"/><path class="a" d="M579.06,258.53a4.84,4.84,0,1,0,5.84,4.06,5,5,0,0,0-5.78-4.07Z"/><path class="a" d="M601.21,271.07a5,5,0,0,0-3.9,5.37c.42,2.47,2.78,3.94,5.39,3.84a5,5,0,0,0,3.9-5.37A4.77,4.77,0,0,0,601.21,271.07Z"/><path class="a" d="M618.89,289.54a4.79,4.79,0,0,0-3.9,5.37c.42,2.47,2.78,3.94,5.39,3.84a5,5,0,0,0,3.9-5.37C623.51,291,621.39,289.11,618.89,289.54Z"/><path class="a" d="M630,312a4.67,4.67,0,1,0,5.39,3.84A4.81,4.81,0,0,0,630,312Z"/><path class="a" d="M633.77,336.49a5.36,5.36,0,1,0,6.29,4.29A5.51,5.51,0,0,0,633.77,336.49Z"/><path class="a" d="M629.89,360.48a6.26,6.26,0,1,0,7.3,5.07A6.56,6.56,0,0,0,629.89,360.48Z"/><path class="a" d="M619,383.76c-3.17.66-5.58,3.68-4.94,6.82a6,6,0,0,0,6.85,4.85c3.18-.66,5.59-3.68,4.94-6.82A6.21,6.21,0,0,0,619,383.76Z"/><path class="a" d="M601.92,403.09a5.36,5.36,0,1,0,6.29,4.29A6.07,6.07,0,0,0,601.92,403.09Z"/><path class="a" d="M579.82,416.23a5,5,0,1,0,5.84,4.06A5.3,5.3,0,0,0,579.82,416.23Z"/><path class="a" d="M554.75,422.51a5,5,0,1,0,.17,0Z"/><path class="a" d="M529.3,420.76a5,5,0,1,0,5.84,4.07A5.1,5.1,0,0,0,529.3,420.76Z"/><path class="a" d="M505.61,411.65a5,5,0,1,0,5.84,4.06C511.05,413.24,508.24,411.55,505.61,411.65Z"/><path class="a" d="M485.33,395.52a5.92,5.92,0,1,0,6.85,4.86A6,6,0,0,0,485.33,395.52Z"/><path class="a" d="M471,374.49a5.91,5.91,0,1,0,6.85,4.85A6.27,6.27,0,0,0,471,374.49Z"/><path class="a" d="M434.74,354.59a6.27,6.27,0,1,0,7.3,5.08C441.74,356.42,438.37,354.16,434.74,354.59Z"/><path class="a" d="M433.66,329.24a6.27,6.27,0,1,0,7.3,5.08A6.54,6.54,0,0,0,433.66,329.24Z"/><path class="a" d="M438.61,304.92c-3.18.66-5.36,3.23-4.71,6.37s3.22,5.29,6.4,4.63a5.71,5.71,0,0,0,4.71-6.37A6.12,6.12,0,0,0,438.61,304.92Z"/><path class="a" d="M448.78,281.86a5.36,5.36,0,1,0,6.29,4.29A5.51,5.51,0,0,0,448.78,281.86Z"/><path class="a" d="M463.72,260.61a5.92,5.92,0,1,0,6.85,4.86A6.22,6.22,0,0,0,463.72,260.61Z"/><path class="a" d="M483.25,244.21a5.56,5.56,0,1,0,6.4,4.63A5.85,5.85,0,0,0,483.25,244.21Z"/><path class="a" d="M505.79,232.42a5.21,5.21,0,1,0,5.95,4.4A5.5,5.5,0,0,0,505.79,232.42Z"/><path class="a" d="M530.41,225.91a4.87,4.87,0,1,0,5.45,4.21,2.32,2.32,0,0,0-.06-.38C535.83,227.5,533.25,225.36,530.41,225.91Z"/><path class="a" d="M556,224.67a5.4,5.4,0,0,0-4.24,5.48,5.34,5.34,0,0,0,5.5,4.17,4.79,4.79,0,0,0,3.9-5.37C561.42,226.26,559,224.46,556,224.67Z"/><path class="a" d="M581.19,229.15a5.41,5.41,0,0,0-4.25,5.48,4.92,4.92,0,0,0,9.75-1.3C586.49,230.41,584.13,228.94,581.19,229.15Z"/><path class="a" d="M604.73,239a4.79,4.79,0,0,0-3.9,5.37,5.34,5.34,0,0,0,5.5,4.17,5.4,5.4,0,0,0,4.24-5.48A5.3,5.3,0,0,0,604.73,239Z"/><path class="a" d="M625.5,254.24a5,5,0,0,0-3.91,5.37c.43,2.47,2.79,3.94,5.39,3.83a5,5,0,0,0,3.91-5.36A4.74,4.74,0,0,0,625.5,254.24Z"/><path class="a" d="M642.38,273.76a4.31,4.31,0,1,0,4.94,3.61,4.21,4.21,0,0,0-4.71-3.65Z"/><path class="a" d="M654.14,294.85a5.85,5.85,0,0,0-4.71,6.38,5.62,5.62,0,0,0,11.11-1.75,5.19,5.19,0,0,0-5.59-4.76A4.55,4.55,0,0,0,654.14,294.85Z"/><path class="a" d="M661,318.32a6.27,6.27,0,1,0,7.3,5.08A6.41,6.41,0,0,0,661,318.32Z"/><path class="a" d="M662.09,343.68a6.26,6.26,0,1,0,7.3,5.08A6.86,6.86,0,0,0,662.09,343.68Z"/><path class="a" d="M657.41,368.67a6.27,6.27,0,1,0,7.3,5.08A6.41,6.41,0,0,0,657.41,368.67Z"/><path class="a" d="M647.31,392.07a6.26,6.26,0,1,0,7.3,5.08A6.41,6.41,0,0,0,647.31,392.07Z"/><path class="a" d="M632,412.3a6.83,6.83,0,0,0-5.75,7.76v.07a6.89,6.89,0,0,0,13.6-2.19C639,414.13,635.55,411.53,632,412.3Z"/><path class="a" d="M613.05,430.39a5.36,5.36,0,1,0,6.29,4.29A5.5,5.5,0,0,0,613.05,430.39Z"/><path class="a" d="M590.41,441.85c-3.18.66-5.59,3.67-4.94,6.82a6,6,0,0,0,6.85,4.85c3.17-.66,5.58-3.68,4.94-6.82A6,6,0,0,0,590.41,441.85Z"/><path class="a" d="M565.55,448.81a5.56,5.56,0,1,0,6.4,4.62C571.75,450.52,568.83,448.48,565.55,448.81Z"/><path class="a" d="M540.18,450.76a5.21,5.21,0,1,0,6,4.4C545.48,452,543,450.17,540.18,450.76Z"/><path class="a" d="M515.1,446.57a5,5,0,1,0,6,4.4C520.07,447.94,517.61,446.13,515.1,446.57Z"/><path class="a" d="M491.45,436.38a5,5,0,1,0,5.84,4.06C496.86,438,494.05,436.27,491.45,436.38Z"/><path class="a" d="M470.79,421.48a5.22,5.22,0,1,0,5.95,4.4A5.21,5.21,0,0,0,470.79,421.48Z"/><path class="a" d="M453.92,402a5.56,5.56,0,1,0,6.4,4.62A5.69,5.69,0,0,0,453.92,402Z"/><path class="a" d="M441.71,379.52a5.56,5.56,0,1,0,6.4,4.63C447.92,381.23,445,379.2,441.71,379.52Z"/><path class="a" d="M406.75,358.85a6.46,6.46,0,1,0,7.41,5.41A6.69,6.69,0,0,0,406.75,358.85Z"/><path class="a" d="M405,333.76a6.27,6.27,0,1,0,7.3,5.08A6.87,6.87,0,0,0,405,333.76Z"/><path class="a" d="M408,309.28a5.56,5.56,0,1,0,6.4,4.62,5.21,5.21,0,0,0-5.62-4.75A7,7,0,0,0,408,309.28Z"/><path class="a" d="M415.61,285.2a5,5,0,1,0,5.84,4.06A5.29,5.29,0,0,0,415.61,285.2Z"/><path class="a" d="M427.15,262.81a5,5,0,1,0,5.84,4.07A5.11,5.11,0,0,0,427.15,262.81Z"/><path class="a" d="M442.77,241.34c-3.18.66-5.58,3.68-4.94,6.83a6,6,0,0,0,6.85,4.85c3.18-.66,5.58-3.68,4.94-6.82A6.44,6.44,0,0,0,442.77,241.34Z"/><path class="a" d="M461.73,225.5a5,5,0,0,0-4.25,5.48,4.92,4.92,0,0,0,5.62,4.1l.22,0a5,5,0,0,0,4.29-5.48,4.93,4.93,0,0,0-5.62-4.11Z"/><path class="a" d="M483.81,213.48a3.54,3.54,0,0,0-2.87,3.91,3.44,3.44,0,1,0,6.8-1.09,3.32,3.32,0,0,0-3.73-2.85Z"/><path class="a" d="M507.46,203.94a3.41,3.41,0,1,0,3.93,2.82,3.25,3.25,0,0,0-3.61-2.87Z"/><path class="a" d="M532.75,198.32a3.41,3.41,0,1,0,3.93,2.83A3.54,3.54,0,0,0,532.75,198.32Z"/><path class="a" d="M558.34,197.09a4.31,4.31,0,1,0,4.94,3.61A4.42,4.42,0,0,0,558.34,197.09Z"/><path class="a" d="M583.54,200.45a5,5,0,1,0,5.84,4.06C588.5,201.82,586,200,583.54,200.45Z"/><path class="a" d="M607.67,208.63a5,5,0,1,0,6,4.4C612.61,210,610.16,208.19,607.67,208.63Z"/><path class="a" d="M629.93,221.51a4.46,4.46,0,0,0-3.67,4.92A4.41,4.41,0,0,0,631.2,230a4.46,4.46,0,0,0,3.67-4.92A4.33,4.33,0,0,0,629.93,221.51Z"/><path class="a" d="M649.45,237.52a5,5,0,0,0-3.91,5.37c.43,2.47,2.79,3.93,5.39,3.83a4.78,4.78,0,0,0,3.91-5.36C654.41,238.89,652.05,237.42,649.45,237.52Z"/><path class="a" d="M666,257.11a5,5,0,0,0-3.9,5.36c.42,2.47,2.78,3.94,5.39,3.84a4.79,4.79,0,0,0,3.9-5.37C670.61,258.58,668.48,256.67,666,257.11Z"/><path class="a" d="M678.42,279.14a4.66,4.66,0,1,0,5.39,3.84A4.81,4.81,0,0,0,678.42,279.14Z"/><path class="a" d="M686.66,301.05a6.31,6.31,0,0,0-5.57,7l.06.41a6.53,6.53,0,1,0,5.54-7.39Z"/><path class="a" d="M690.14,324.51a8.42,8.42,0,1,0,9.77,6.88A8.42,8.42,0,0,0,690.14,324.51Z"/><path class="a" d="M690,351.76a6,6,0,0,0-5.28,6.65c0,.21.06.41.11.62.75,3.48,3.78,5.85,7.3,5.08a6,6,0,0,0,5.28-6.65c0-.21-.06-.41-.11-.62A6.87,6.87,0,0,0,690,351.76Z"/><path class="a" d="M684.81,377.65a5.36,5.36,0,1,0,6.29,4.29A5.51,5.51,0,0,0,684.81,377.65Z"/><path class="a" d="M675.05,400.93a5.56,5.56,0,1,0,6.4,4.63,5.35,5.35,0,0,0-5.94-4.7A3.4,3.4,0,0,0,675.05,400.93Z"/><path class="a" d="M660.71,418.26a10.29,10.29,0,0,0-8.38,11.29c.62,5.39,5.9,8.89,11.34,8.24a10.31,10.31,0,0,0,8.38-11.3C671.43,421.11,666.15,417.61,660.71,418.26Z"/><path class="a" d="M643.85,439.38a7.72,7.72,0,1,0,8.87,6.44,7.72,7.72,0,0,0-8.87-6.44Z"/><path class="a" d="M623.31,455a7.72,7.72,0,1,0,8.87,6.43C631.44,456.83,627.51,454,623.31,455Z"/><path class="a" d="M600.44,465.76a8.84,8.84,0,1,0,.08,0Z"/><path class="a" d="M576.24,474.76a6.82,6.82,0,1,0,7.86,5.64C583.24,476.59,579.76,474,576.24,474.76Z"/><path class="a" d="M550.85,478.91c-3.18.66-5.36,3.23-4.71,6.38s3.22,5.28,6.4,4.62,5.35-3.23,4.71-6.37S554,478.26,550.85,478.91Z"/><path class="a" d="M525.17,477.57a5,5,0,1,0,5.84,4.06A5.3,5.3,0,0,0,525.17,477.57Z"/><path class="a" d="M500.61,471.41a5,5,0,1,0,5.84,4.06C506,473,503.18,471.31,500.61,471.41Z"/><path class="a" d="M477.26,461.1a5,5,0,1,0,5.84,4.06A5.11,5.11,0,0,0,477.26,461.1Z"/><path class="a" d="M456,446.76a5,5,0,1,0,5.84,4.06C461.78,448.25,458.86,446.22,456,446.76Z"/><path class="a" d="M438,428.41a5.56,5.56,0,1,0,6.4,4.62A5.84,5.84,0,0,0,438,428.41Z"/><path class="a" d="M423.42,406.7a6.26,6.26,0,1,0,7.3,5.08A6.86,6.86,0,0,0,423.42,406.7Z"/><path class="a" d="M412.92,383.66a6.27,6.27,0,1,0,7.3,5.08A6.87,6.87,0,0,0,412.92,383.66Z"/><path class="a" d="M378.29,364c-3.18.66-5.59,3.67-5,6.82a6,6,0,0,0,6.85,4.85c3.18-.66,5.59-3.68,4.95-6.82S381.8,363.23,378.29,364Z"/><path class="a" d="M376.52,338.86a5.92,5.92,0,1,0,6.85,4.86A6,6,0,0,0,376.52,338.86Z"/><path class="a" d="M378.16,313.76a5.56,5.56,0,1,0,6.4,4.62A5.56,5.56,0,0,0,378.16,313.76Z"/><path class="a" d="M383.74,289.21a5.51,5.51,0,0,0-4.48,5.92,5.27,5.27,0,1,0,10.43-1.52C389.5,290.69,386.69,289,383.74,289.21Z"/><path class="a" d="M393.37,267.83a2.86,2.86,0,1,0,3.37,2.25C396.61,268.63,395.18,267.61,393.37,267.83Z"/><path class="a" d="M406.17,245.76a2.63,2.63,0,0,0-2.39,2.85,2.1,2.1,0,0,0,.09.5,2.89,2.89,0,1,0,2.33-3.36Z"/><path class="a" d="M421.69,224a5,5,0,0,0-3.91,5.37,4.77,4.77,0,0,0,5.39,3.84,5,5,0,0,0,3.91-5.37A4.77,4.77,0,0,0,421.69,224Z"/><path class="a" d="M441,208a3.06,3.06,0,1,0,3.48,2.59C443.92,208.94,442.35,207.58,441,208Z"/><path class="a" d="M461.85,193.42a3,3,0,0,0-2.66,3.3,1,1,0,0,0,0,.17,3.09,3.09,0,1,0,2.65-3.47Z"/><path class="a" d="M485.06,182.53a2.7,2.7,0,1,0,3,2.37C487.88,183.1,486.42,182.09,485.06,182.53Z"/><path class="a" d="M509.61,175.68a1.81,1.81,0,1,0,2,1.6v0a1.55,1.55,0,0,0-1.47-1.64A1.57,1.57,0,0,0,509.61,175.68Z"/><path class="a" d="M535,171.53c-1,.33-1.59.89-1.27,1.9s.89,1.57,1.91,1.24,1.6-.89,1.27-1.9A1.81,1.81,0,0,0,535,171.53Z"/><path class="a" d="M560.23,169.28a3.76,3.76,0,1,0,4.38,3h0a3.68,3.68,0,0,0-4.25-3Z"/><path class="a" d="M585.44,171.52a5,5,0,1,0,5.84,4.06A5.11,5.11,0,0,0,585.44,171.52Z"/><path class="a" d="M610,178.76a5.18,5.18,0,1,0,.07,0Z"/><path class="a" d="M633.22,189.89a4.81,4.81,0,0,0-3.91,5.37,4.71,4.71,0,1,0,3.94-5.37Z"/><path class="a" d="M654.61,204.57a4.11,4.11,0,1,0,4.83,3.27A4.27,4.27,0,0,0,654.61,204.57Z"/><path class="a" d="M673.5,221.14a4.31,4.31,0,1,0,4.94,3.61A4.62,4.62,0,0,0,673.5,221.14Z"/><path class="a" d="M689.25,240.61a4.87,4.87,0,1,0,5.5,4.17,4.46,4.46,0,0,0-4.62-4.29A4.34,4.34,0,0,0,689.25,240.61Z"/><path class="a" d="M702.14,261.76a5.56,5.56,0,1,0,6.4,4.62,5.56,5.56,0,0,0-6.4-4.62Z"/><path class="a" d="M711.61,284a6.81,6.81,0,1,0,7.86,5.64A7.33,7.33,0,0,0,711.61,284Z"/><path class="a" d="M716.92,307.24a8.42,8.42,0,1,0,9.77,6.88A8.42,8.42,0,0,0,716.92,307.24Z"/><path class="a" d="M719.14,332.59a8.42,8.42,0,1,0,9.77,6.89A8.42,8.42,0,0,0,719.14,332.59Z"/><path class="a" d="M717.38,358.5a7.84,7.84,0,1,0,.07,0Z"/><path class="a" d="M712.11,385.17c-3.17.66-5.58,3.67-4.94,6.82a6,6,0,0,0,6.85,4.85c3.18-.66,5.59-3.68,4.94-6.82A6,6,0,0,0,712.11,385.17Z"/><path class="a" d="M703,409.35a5.37,5.37,0,1,0,6.29,4.29A5.51,5.51,0,0,0,703,409.35Z"/><path class="a" d="M690,430.76a6.27,6.27,0,1,0,7.3,5.08,6,6,0,0,0-6.72-5.18A5.86,5.86,0,0,0,690,430.76Z"/><path class="a" d="M673.54,446.13a10.78,10.78,0,1,0,12.35,9A10.93,10.93,0,0,0,673.54,446.13Z"/><path class="a" d="M655.31,467.7a6.82,6.82,0,1,0,7.86,5.64A7.35,7.35,0,0,0,655.31,467.7Z"/><path class="a" d="M634,481a8.07,8.07,0,1,0,9.32,6.66A8.28,8.28,0,0,0,634,481Z"/><path class="a" d="M611.45,493.87a6.48,6.48,0,0,0-5.52,7.32v.06c.41,3.59,3.78,5.84,7.41,5.41a6.47,6.47,0,0,0,5.52-7.3v-.08C618.11,495.76,615,493.1,611.45,493.87Z"/><path class="a" d="M587,502.17c-3.17.66-5.58,3.68-4.94,6.83a6,6,0,0,0,6.85,4.85c3.18-.66,5.59-3.68,4.94-6.82A6,6,0,0,0,587,502.17Z"/><path class="a" d="M561.75,506.66c-3.18.66-5.36,3.23-4.71,6.38s3.22,5.28,6.4,4.62,5.35-3.23,4.71-6.37A5.68,5.68,0,0,0,561.75,506.66Z"/><path class="a" d="M535.83,506.89a5.56,5.56,0,1,0,6.4,4.63,5.19,5.19,0,0,0-5.59-4.76A5.69,5.69,0,0,0,535.83,506.89Z"/><path class="a" d="M510.41,502.86c-3.17.65-5.58,3.67-4.94,6.82a6,6,0,0,0,6.85,4.85c3.18-.66,5.59-3.68,4.94-6.82C517,504.45,513.7,502.53,510.41,502.86Z"/><path class="a" d="M485.93,495.91c-3.17.66-5.58,3.68-4.94,6.82a6,6,0,0,0,6.85,4.85c3.18-.66,5.59-3.68,4.94-6.82a5.74,5.74,0,0,0-6.48-4.91A2.38,2.38,0,0,0,485.93,495.91Z"/><path class="a" d="M463.07,485.83a5,5,0,1,0,5.84,4.06A5.38,5.38,0,0,0,463.07,485.83Z"/><path class="a" d="M441.61,471.94a5,5,0,0,0-4.25,5.48,4.92,4.92,0,0,0,5.62,4.1l.22,0a5,5,0,0,0,4.25-5.48,4.92,4.92,0,0,0-5.62-4.1Z"/><path class="a" d="M422.9,454.92a5,5,0,1,0,6,4.4C428.2,456.18,425.73,454.38,422.9,454.92Z"/><path class="a" d="M406.7,435.23a5,5,0,1,0,5.61,4.53C412,436.48,409.54,434.68,406.7,435.23Z"/><path class="a" d="M393.61,412.29a6.25,6.25,0,0,0-4.94,6.82,6,6,0,1,0,5-6.83Z"/><path class="a" d="M384.12,388.92a5.91,5.91,0,1,0,6.85,4.85,5.74,5.74,0,0,0-6.48-4.91A2.38,2.38,0,0,0,384.12,388.92Z"/><path class="a" d="M349.74,366.57a7.83,7.83,0,1,0,.05,0Z"/><path class="a" d="M347.61,342.67a6.47,6.47,0,1,0,7.41,5.41,6.4,6.4,0,0,0-7.26-5.43Z"/><path class="a" d="M348.9,318.76a5.22,5.22,0,1,0,6,4.4,4.85,4.85,0,0,0-5.16-4.52A5.19,5.19,0,0,0,348.9,318.76Z"/><path class="a" d="M353.61,294.91a3.76,3.76,0,1,0,4.38,3A4.28,4.28,0,0,0,353.61,294.91Z"/><path class="a" d="M360.76,269.48a5,5,0,1,0,5.61,4.51,4.86,4.86,0,0,0-5.14-4.56Z"/><path class="a" d="M371.61,248.44a2.51,2.51,0,1,0,2.92,2h0A2.71,2.71,0,0,0,371.61,248.44Z"/><path class="a" d="M385.21,227.64c-1,.33-1.6.89-1.27,1.9s.89,1.57,1.91,1.24,1.6-.89,1.27-1.9C386.9,228.21,385.89,227.42,385.21,227.64Z"/><path class="a" d="M400.94,206.51c-1.47.1-2.51,1.56-2.3,3.35.1,1.46,1.56,2.48,3.37,2.26a2.78,2.78,0,0,0,2.33-3.16,1.08,1.08,0,0,0,0-.19C404.21,207.31,402.75,206.29,400.94,206.51Z"/><path class="a" d="M419.69,188.87a2.63,2.63,0,0,0-2.39,2.85,2.1,2.1,0,0,0,.09.5,2.49,2.49,0,0,0,3.37,2.26,2.63,2.63,0,0,0,2.4-2.84,3,3,0,0,0-.1-.52A3.4,3.4,0,0,0,419.69,188.87Z"/><path class="a" d="M440.34,173.59c-1.47.11-2.5,1.56-2.3,3.35.1,1.46,1.56,2.48,3.37,2.26,1.47-.1,2.51-1.56,2.3-3.35A3.41,3.41,0,0,0,440.34,173.59Z"/><path class="a" d="M462.67,160a4.11,4.11,0,1,0,4.83,3.28A4.59,4.59,0,0,0,462.67,160Z"/><path class="a" d="M486.74,152.93c-1,.33-1.6.89-1.27,1.9s.89,1.57,1.91,1.24,1.6-.89,1.27-1.9S487.76,152.59,486.74,152.93Z"/><path class="a" d="M511.37,146.41c-1,.34-1.6.9-1.27,1.91s.89,1.57,1.91,1.24,1.59-.89,1.27-1.9C513.4,146.87,512.39,146.08,511.37,146.41Z"/><path class="a" d="M537.09,143.27a2,2,0,0,0-1.38,1.57,1.48,1.48,0,0,0,2.95-.21C538.44,144,537.77,143.05,537.09,143.27Z"/><path class="a" d="M562.35,141a3.76,3.76,0,1,0,4.38,3h0a3.69,3.69,0,0,0-4.23-3Z"/><path class="a" d="M587.45,142.93a5,5,0,1,0,5.84,4.06A5.11,5.11,0,0,0,587.45,142.93Z"/><path class="a" d="M612.05,149.09a5.36,5.36,0,1,0,.17,0Z"/><path class="a" d="M636.05,159.17a5.4,5.4,0,0,0-4.25,5.48,4.74,4.74,0,0,0,5.39,3.84,5.42,5.42,0,0,0,4.25-5.48A4.77,4.77,0,0,0,636.05,159.17Z"/><path class="a" d="M658.2,171.76a5.42,5.42,0,0,0-4.25,5.48,4.76,4.76,0,0,0,5.39,3.83,5.38,5.38,0,0,0,4.27-5.51A4.27,4.27,0,0,0,658.2,171.76Z"/><path class="a" d="M678.74,187.4a4.31,4.31,0,1,0,4.94,3.61C683.61,188.43,681.23,187,678.74,187.4Z"/><path class="a" d="M697.22,204.86a4.46,4.46,0,0,0-3.67,4.92,4.41,4.41,0,0,0,4.93,3.61,4.46,4.46,0,0,0,3.68-4.92,4.17,4.17,0,0,0-4.62-3.66Z"/><path class="a" d="M712.85,224a5,5,0,1,0,5.84,4.06A5.29,5.29,0,0,0,712.85,224Z"/><path class="a" d="M726,245.81a5,5,0,1,0,5.84,4.06A5.11,5.11,0,0,0,726,245.81Z"/><path class="a" d="M736.36,268.51a5.56,5.56,0,1,0,6.4,4.63A5.7,5.7,0,0,0,736.36,268.51Z"/><path class="a" d="M743.45,292.66a5.91,5.91,0,1,0,6.85,4.85,5.74,5.74,0,0,0-6.48-4.91A2.38,2.38,0,0,0,743.45,292.66Z"/><path class="a" d="M747,316.45a7.17,7.17,0,1,0,8.31,5.87A7.24,7.24,0,0,0,747,316.45Z"/><path class="a" d="M747.34,340.57a8.42,8.42,0,1,0,9.77,6.88A8.6,8.6,0,0,0,747.34,340.57Z"/><path class="a" d="M745.23,367.7a6.31,6.31,0,0,0-5.57,7l.06.41a6.54,6.54,0,1,0,12.92-2h0C752.23,369.52,748.86,367.27,745.23,367.7Z"/><path class="a" d="M739.61,393.36a5.91,5.91,0,1,0,6.85,4.85C745.73,394.76,742.81,392.7,739.61,393.36Z"/><path class="a" d="M730.54,417.55a5.36,5.36,0,1,0,6.29,4.29A5.5,5.5,0,0,0,730.54,417.55Z"/><path class="a" d="M718.61,440a5.56,5.56,0,1,0,6.4,4.63A5.65,5.65,0,0,0,718.61,440Z"/><path class="a" d="M703.82,460.5a5.92,5.92,0,1,0,6.85,4.86A6,6,0,0,0,703.82,460.5Z"/><path class="a" d="M686.19,479.27a5.91,5.91,0,1,0,6.85,4.85A6.25,6.25,0,0,0,686.19,479.27Z"/><path class="a" d="M666.33,494.66a6.82,6.82,0,1,0,7.86,5.64C674.12,496.6,670.3,494.12,666.33,494.66Z"/><path class="a" d="M644.9,508.7a6.82,6.82,0,1,0,7.86,5.65C652.24,510.42,648.87,508.16,644.9,508.7Z"/><path class="a" d="M621.81,519.93a6.47,6.47,0,1,0,7.41,5.42,6.47,6.47,0,0,0-7.41-5.42Z"/><path class="a" d="M597.71,529.25a5.22,5.22,0,1,0,5.95,4.4A5.44,5.44,0,0,0,597.71,529.25Z"/><path class="a" d="M572.43,533.76a5.56,5.56,0,1,0,6.4,4.63C578.29,535.56,575.26,533.19,572.43,533.76Z"/><path class="a" d="M546.61,535.43a5.56,5.56,0,1,0,6.4,4.62C552.81,537.13,549.89,535.1,546.61,535.43Z"/><path class="a" d="M521.28,534a5.56,5.56,0,1,0,6.4,4.63,5.21,5.21,0,0,0-5.61-4.76A5.42,5.42,0,0,0,521.28,534Z"/><path class="a" d="M496,529.15a5.71,5.71,0,0,0-4.71,6.37c.65,3.15,3.23,5.29,6.4,4.63s5.36-3.23,4.71-6.37a5.19,5.19,0,0,0-5.59-4.76A5.69,5.69,0,0,0,496,529.15Z"/><path class="a" d="M472,521.31a5.36,5.36,0,1,0,6.29,4.29A5.5,5.5,0,0,0,472,521.31Z"/><path class="a" d="M448.88,510.56a5,5,0,1,0,5.84,4.06,4.93,4.93,0,0,0-5.66-4.09Z"/><path class="a" d="M427.42,496.67a5,5,0,1,0,5.84,4.06A5.11,5.11,0,0,0,427.42,496.67Z"/><path class="a" d="M407.9,480.66a5.39,5.39,0,0,0-4.24,5.47,4.74,4.74,0,0,0,5.39,3.84,5.4,5.4,0,0,0,4.24-5.48C413.21,481.91,410.74,480.11,407.9,480.66Z"/><path class="a" d="M390.91,462a4.66,4.66,0,1,0,5.39,3.83A4.79,4.79,0,0,0,390.91,462Z"/><path class="a" d="M376.43,440.59a5.18,5.18,0,1,0,.07,0Z"/><path class="a" d="M364.24,417c-3.18.66-5.59,3.67-4.94,6.82a6,6,0,0,0,6.85,4.85c3.18-.66,5.58-3.68,4.94-6.82C370.9,418.92,367.87,416.55,364.24,417Z"/><path class="a" d="M355.79,393.29c-3.18.65-5.59,3.67-5,6.82a6,6,0,0,0,6.85,4.85c3.18-.66,5.59-3.68,4.95-6.82a5.74,5.74,0,0,0-6.48-4.91A2.38,2.38,0,0,0,355.79,393.29Z"/><path class="a" d="M321.61,371.6a7.72,7.72,0,1,0,8.87,6.44C329.75,373.43,325.82,370.61,321.61,371.6Z"/><path class="a" d="M319.4,347.37a6.46,6.46,0,1,0,7.41,5.39,6.25,6.25,0,0,0-6.95-5.46Z"/><path class="a" d="M319.88,323.37a4.78,4.78,0,0,0-3.9,5.36,5.34,5.34,0,0,0,5.5,4.18,5.4,5.4,0,0,0,4.24-5.48C325.3,325,322.49,323.27,319.88,323.37Z"/><path class="a" d="M323.61,301.29a1.81,1.81,0,1,0,2,1.6v0a1.55,1.55,0,0,0-1.47-1.64A1.57,1.57,0,0,0,323.61,301.29Z"/><path class="a" d="M329.78,277.31c-.34.11-.91.67-.8,1s.67.9,1,.79.91-.67.8-1C331,277.65,330.46,277.09,329.78,277.31Z"/><path class="a" d="M338.43,251.76a2.51,2.51,0,1,0,2.92,2h0A2.68,2.68,0,0,0,338.43,251.76Z"/><path class="a" d="M349.88,229.06a2.51,2.51,0,1,0,2.92,2h0a2.28,2.28,0,0,0-2.46-2.09A3.73,3.73,0,0,0,349.88,229.06Z"/><path class="a" d="M363.82,207a2.64,2.64,0,0,0-2.39,2.87,2.11,2.11,0,0,0,.09.49,2.89,2.89,0,0,0,5.67-1.1A3.42,3.42,0,0,0,363.82,207Z"/><path class="a" d="M379.88,186.9a3.41,3.41,0,1,0,3.93,2.86A3.55,3.55,0,0,0,379.88,186.9Z"/><path class="a" d="M398.18,169a3.41,3.41,0,1,0,3.93,2.83,3.26,3.26,0,0,0-3.6-2.88Z"/><path class="a" d="M418.92,156.34c-.34.11-.68.22-.58.56s.22.67.56.56.69-.22.58-.56C419.71,156.45,419.26,156.23,418.92,156.34Z"/><path class="a" d="M440.7,141.06a2.11,2.11,0,0,0-1.86,2.33c0,.05,0,.09,0,.13a2.09,2.09,0,0,0,2.3,1.84l.17,0a2.11,2.11,0,0,0,1.86-2.33c0-.05,0-.09,0-.13C443.18,141.76,441.83,141.07,440.7,141.06Z"/><path class="a" d="M463.91,129.05a3.71,3.71,0,0,0-3.21,4,3.65,3.65,0,1,0,3.26-4Z"/><path class="a" d="M488.31,123c-.68.22-1.25.78-1,1.45s.77,1.24,1.46,1,1.25-.78,1-1.46C490,123.55,489.1,123.1,488.31,123Z"/><path class="a" d="M513.49,118.16a.76.76,0,0,0-.47.89.72.72,0,0,0,1.37-.44C514.28,118.28,513.94,118.39,513.49,118.16Z"/><path class="a" d="M538.88,114a2.15,2.15,0,1,0,2.47,1.8C541.36,114.69,540,114,538.88,114Z"/><path class="a" d="M564.61,114.23a2.15,2.15,0,1,0,2.47,1.8C567.05,114.91,565.7,114.23,564.61,114.23Z"/><path class="a" d="M589.68,115a4.79,4.79,0,0,0-3.91,5.37c.43,2.47,2.79,3.93,5.39,3.83a5,5,0,0,0,3.91-5.36A4.77,4.77,0,0,0,589.68,115Z"/><path class="a" d="M614.4,120.39a4.87,4.87,0,1,0,5.45,4.21,2.32,2.32,0,0,0-.06-.38C619.82,122,617.35,120.18,614.4,120.39Z"/><path class="a" d="M638.61,128.9a5,5,0,1,0,5.84,4.07A5.4,5.4,0,0,0,638.61,128.9Z"/><path class="a" d="M661.49,140.1a5,5,0,0,0-4.25,5.48,5.08,5.08,0,0,0,10-1.75C666.9,141.7,664.09,140,661.49,140.1Z"/><path class="a" d="M683,154a4.67,4.67,0,0,0,1.06,9.28l.43-.07a5.4,5.4,0,0,0,4.24-5.48A4.76,4.76,0,0,0,683.1,154Z"/><path class="a" d="M703,170.57a4.31,4.31,0,1,0,4.94,3.61,4.17,4.17,0,0,0-4.62-3.66Z"/><path class="a" d="M720.94,188.59a4.31,4.31,0,1,0,4.94,3.61,4.17,4.17,0,0,0-4.62-3.66Z"/><path class="a" d="M736.34,208.17a5,5,0,1,0,5.53,4.4l0-.23a4.47,4.47,0,0,0-4.65-4.29A4.15,4.15,0,0,0,736.34,208.17Z"/><path class="a" d="M749.61,229.2a5.36,5.36,0,1,0,6.29,4.29,5.29,5.29,0,0,0-6.1-4.33Z"/><path class="a" d="M760.41,252.13a5.36,5.36,0,1,0,6.29,4.29C766.17,253.61,763.7,251.81,760.41,252.13Z"/><path class="a" d="M768.61,276.28a5.21,5.21,0,1,0,6,4.4A5.5,5.5,0,0,0,768.61,276.28Z"/><path class="a" d="M773.92,300.64a5.91,5.91,0,1,0,6.85,4.85A6,6,0,0,0,773.92,300.64Z"/><path class="a" d="M776.47,325.89a5.91,5.91,0,1,0,6.85,4.85A6,6,0,0,0,776.47,325.89Z"/><path class="a" d="M776.09,350.22a6.82,6.82,0,1,0,7.86,5.64A7.33,7.33,0,0,0,776.09,350.22Z"/><path class="a" d="M773.08,376.9a5.85,5.85,0,0,0-4.71,6.38,5.62,5.62,0,1,0,4.71-6.38Z"/><path class="a" d="M766.92,402a5.22,5.22,0,1,0,6,4.4,5.22,5.22,0,0,0-6-4.4Z"/><path class="a" d="M758.07,425.76a5.36,5.36,0,1,0,6.29,4.29A5.51,5.51,0,0,0,758.07,425.76Z"/><path class="a" d="M746.72,448.76a5,5,0,1,0,5.89,4.1A5.39,5.39,0,0,0,746.72,448.76Z"/><path class="a" d="M732.8,469.76c-3.17.66-5.35,3.23-4.71,6.38s3.23,5.28,6.4,4.62,5.36-3.23,4.71-6.37A5.65,5.65,0,0,0,732.8,469.76Z"/><path class="a" d="M716.51,490.28a4.87,4.87,0,1,0,5.5,4.17A4.93,4.93,0,0,0,716.51,490.28Z"/><path class="a" d="M697.88,507.14a5.91,5.91,0,1,0,6.85,4.85A6,6,0,0,0,697.88,507.14Z"/><path class="a" d="M677.24,521.29a7.17,7.17,0,1,0,8.31,5.87,7,7,0,0,0-7.92-5.94Z"/><path class="a" d="M655.69,536.12c-3.17.66-5.58,3.67-4.94,6.82a6,6,0,0,0,6.86,4.82c3.18-.66,5.59-3.68,4.94-6.82a5.75,5.75,0,0,0-6.5-4.88Z"/><path class="a" d="M632.71,547.68a5,5,0,1,0,5.84,4.07A5.11,5.11,0,0,0,632.71,547.68Z"/><path class="a" d="M608.39,556.33a4.78,4.78,0,0,0-3.9,5.36c.42,2.47,2.78,3.94,5.39,3.84a5,5,0,0,0,3.9-5.37C613.36,557.69,611,556.23,608.39,556.33Z"/><path class="a" d="M583.33,561.49a5.06,5.06,0,1,0,.06,0Z"/><path class="a" d="M557.51,563.18a5.91,5.91,0,1,0,1.91,11.67h0c3.28-.32,5.24-3.57,4.94-6.82A6.2,6.2,0,0,0,557.51,563.18Z"/><path class="a" d="M531.93,563.29a5.71,5.71,0,0,0-4.71,6.37c.65,3.15,3.23,5.29,6.4,4.63s5.36-3.23,4.71-6.37A5.78,5.78,0,0,0,531.93,563.29Z"/><path class="a" d="M506.5,560.38a5.36,5.36,0,1,0,6.29,4.29C512.37,562.2,509.45,560.17,506.5,560.38Z"/><path class="a" d="M481.67,554.66A5.36,5.36,0,1,0,488,559,5.51,5.51,0,0,0,481.67,554.66Z"/><path class="a" d="M457.43,546.15a5.36,5.36,0,1,0,.17,0Z"/><path class="a" d="M434.61,534.94a5.37,5.37,0,1,0,6.29,4.29A5.51,5.51,0,0,0,434.61,534.94Z"/><path class="a" d="M413.23,521.39a5,5,0,0,0-4.16,5.72s0,.07,0,.1a5.08,5.08,0,1,0,10-1.75A5.42,5.42,0,0,0,413.23,521.39Z"/><path class="a" d="M393.37,505.49a5,5,0,1,0,5.84,4.07A5.4,5.4,0,0,0,393.37,505.49Z"/><path class="a" d="M375.47,487.47a5,5,0,0,0-4.25,5.48,4.91,4.91,0,0,0,5.58,4.11l.26-.05a5,5,0,0,0,4.15-5.72.28.28,0,0,0,0-.09A6,6,0,0,0,375.47,487.47Z"/><path class="a" d="M359.5,467.33a5,5,0,1,0,5.84,4.06C365.26,468.81,362.45,467.12,359.5,467.33Z"/><path class="a" d="M346.39,445.51a5.22,5.22,0,1,0,1.47,10.33,5.22,5.22,0,1,0-1.12-10.38Z"/><path class="a" d="M335.44,422.25a5.91,5.91,0,1,0,6.85,4.85C341.53,423.62,338.61,421.59,335.44,422.25Z"/><path class="a" d="M327.22,398.1a5.91,5.91,0,1,0,6.85,4.85A6,6,0,0,0,327.22,398.1Z"/><path class="a" d="M293.61,378.1c-3.18.66-5.36,3.23-4.71,6.37s3.22,5.29,6.4,4.63,5.35-3.23,4.71-6.37A5.21,5.21,0,0,0,294.4,378,5.42,5.42,0,0,0,293.61,378.1Z"/><path class="a" d="M291.14,354.31c-2.15.33-3.76,2.34-3.1,4.36a3.5,3.5,0,0,0,3.86,3.1,3,3,0,0,0,.52-.1c2.15-.33,3.76-2.34,3.1-4.36A3.85,3.85,0,0,0,291.14,354.31Z"/><path class="a" d="M291.52,330c-1.47.1-2.51,1.56-2.3,3.35.1,1.46,1.56,2.48,3.37,2.26,1.47-.11,2.51-1.56,2.3-3.36A3.41,3.41,0,0,0,291.52,330Z"/><path class="a" d="M294,306.43c-.68.22-1.25.78-1,1.46s.78,1.23,1.46,1,1.25-.78,1-1.45S294.72,306.21,294,306.43Z"/><path class="a" d="M299.4,282.34c-.45-.22-.34.11,0,0-.23.45-.12.79.22.68Z"/><path class="a" d="M306.46,257.7c-.34.11-.68.22-.58.56s.22.67.56.56.69-.22.58-.56C307.25,257.81,306.8,257.59,306.46,257.7Z"/><path class="a" d="M316.45,234c-.34.11-.68.22-.57.56s.21.67.56.56.68-.22.57-.56S316.79,233.85,316.45,234Z"/><path class="a" d="M328.25,210c-1.13,0-1.82,1.34-1.84,2.46a2.66,2.66,0,0,0,2.47,1.8c1.14,0,1.83-1.33,1.84-2.45S329.38,210,328.25,210Z"/><path class="a" d="M342.43,186.4a4.31,4.31,0,1,0,4.94,3.62C347.05,187.88,344.69,186.41,342.43,186.4Z"/><path class="a" d="M358.49,166.28a5.51,5.51,0,0,0-4.48,5.93,5.27,5.27,0,0,0,10.43-1.53,5,5,0,0,0-5.48-4.47Z"/><path class="a" d="M377.33,151.22c-1.13,0-1.83,1.34-1.84,2.46s1.34,1.8,2.47,1.81,1.83-1.34,1.84-2.46S378.46,151.23,377.33,151.22Z"/><path class="a" d="M397.52,136.84c-.35.11-.69.22-.58.56s.22.67.56.56.68-.22.57-.55C398.31,137,397.86,136.76,397.52,136.84Z"/><path class="a" d="M419.05,123.14h0c-.23.45-.12.78.22.67C419.16,123.48,419.5,123.36,419.05,123.14Z"/><path class="a" d="M441.82,110.9c-.34.11-.68.22-.57.56s.22.67.56.56.68-.22.57-.56C442.61,111,442.16,110.76,441.82,110.9Z"/><path class="a" d="M465.61,100.57c-.68.22-.91.67-1,1.45.22.68.67.9,1.46,1,.68-.22.91-.67,1-1.45C466.82,100.91,466.37,100.69,465.61,100.57Z"/><path class="a" d="M490.21,94.06c-.34.11-.68.22-.57.56s.22.67.56.56.68-.22.57-.56C491,94.17,490.55,94,490.21,94.06Z"/><path class="a" d="M515.61,89.9h0c-.23.45.11.34.11.34S516.06,90.13,515.61,89.9Z"/><path class="a" d="M541.1,87.21a.71.71,0,1,0,.9.45A.78.78,0,0,0,541.1,87.21Z"/><path class="a" d="M566.61,85.64a2.27,2.27,0,0,0-2.14,2.41,2,2,0,0,0,.08.49,2.75,2.75,0,0,0,3,2.37,2.79,2.79,0,0,0,2.4-3C569.4,86.21,567.94,85.19,566.61,85.64Z"/><path class="a" d="M592,88.55a2.79,2.79,0,0,0-2.4,3,2.75,2.75,0,0,0,3,2.37,2.78,2.78,0,0,0,2.41-3A2.42,2.42,0,0,0,592,88.55Z"/><path class="a" d="M616.85,93.14A3.41,3.41,0,1,0,620.78,96,3.54,3.54,0,0,0,616.85,93.14Z"/><path class="a" d="M640.88,99.86a4.45,4.45,0,0,0-3.67,4.9,4.35,4.35,0,0,0,8.61-1.31C645.84,101.23,643.37,99.42,640.88,99.86Z"/><path class="a" d="M664.53,110.06a4.66,4.66,0,1,0,5.39,3.84,4.56,4.56,0,0,0-5.15-3.88Z"/><path class="a" d="M686.69,122.6a4.47,4.47,0,0,0-3.68,4.92,4.36,4.36,0,0,0,8.62-1.31C691.54,123.63,689.18,122.17,686.69,122.6Z"/><path class="a" d="M707.69,137.39a3.94,3.94,0,1,0,4.73,3v0A4.52,4.52,0,0,0,707.69,137.39Z"/><path class="a" d="M727.4,156.31c-1,.34-1.83,1.34-1.61,2,.33,1,1.34,1.8,2,1.57,1-.33,1.83-1.33,1.61-2a1.57,1.57,0,0,0-1.51-1.63A1.38,1.38,0,0,0,727.4,156.31Z"/><path class="a" d="M744.75,173.76a3.06,3.06,0,1,0,3.48,2.6,2.8,2.8,0,0,0-2.89-2.69A2.9,2.9,0,0,0,744.75,173.76Z"/><path class="a" d="M760.37,194a2.79,2.79,0,0,0-2.41,3,2.75,2.75,0,0,0,3,2.36,2.27,2.27,0,0,0,2.15-2.4,2.09,2.09,0,0,0-.08-.5A2.31,2.31,0,0,0,760.9,194,2.37,2.37,0,0,0,760.37,194Z"/><path class="a" d="M773.61,213.94a4.11,4.11,0,1,0,4.83,3.27C778.13,215.08,775.88,214,773.61,213.94Z"/><path class="a" d="M784.8,236.76a4.11,4.11,0,1,0,4.83,3.28A4.29,4.29,0,0,0,784.8,236.76Z"/><path class="a" d="M793.81,261c-2.15.33-3.76,2.34-3.1,4.36a3.51,3.51,0,0,0,3.84,3.15,3.41,3.41,0,0,0,.54-.1c2.15-.33,3.76-2.34,3.1-4.36A3.66,3.66,0,0,0,794,261Z"/><path class="a" d="M799.9,284.37a5.5,5.5,0,0,0-4.48,5.93,5.44,5.44,0,0,0,6,4.4,5.51,5.51,0,0,0,4.48-5.93,4.86,4.86,0,0,0-5.19-4.52A4.53,4.53,0,0,0,799.9,284.37Z"/><path class="a" d="M794.33,411a4.31,4.31,0,1,0,4.94,3.61C799.18,412,796.82,410.54,794.33,411Z"/><path class="a" d="M785.7,434.27a4.91,4.91,0,1,0,.16,0Z"/><path class="a" d="M774.81,457.55a4.66,4.66,0,1,0,5.38,3.84A4.8,4.8,0,0,0,774.81,457.55Z"/><path class="a" d="M761.55,479.37a5,5,0,0,0-3.94,5.39,4.75,4.75,0,0,0,5.39,3.83,5,5,0,0,0,3.9-5.36C766.18,480.85,763.71,479,761.55,479.37Z"/><path class="a" d="M746.05,500.05a5,5,0,0,0-3.91,5.37c.09,2.58,2.79,3.94,5.39,3.84a4.79,4.79,0,0,0,3.91-5.37,4.58,4.58,0,0,0-5.17-3.88Z"/><path class="a" d="M728.76,518.76a4.66,4.66,0,1,0,5.39,3.84A4.81,4.81,0,0,0,728.76,518.76Z"/><path class="a" d="M709.35,534.33c-3.18.66-5.59,3.68-4.94,6.82a6,6,0,0,0,6.85,4.85c3.18-.66,5.58-3.68,4.94-6.82A6.21,6.21,0,0,0,709.35,534.33Z"/><path class="a" d="M688.26,548.26a7.17,7.17,0,1,0,8.31,5.87,7.16,7.16,0,0,0-8.31-5.87Z"/><path class="a" d="M666.26,562.86a5.56,5.56,0,1,0,6.4,4.62C672.36,564.23,669.55,562.53,666.26,562.86Z"/><path class="a" d="M643.06,573.76a5.56,5.56,0,1,0,6.4,4.62C648.81,575.23,646.23,573.09,643.06,573.76Z"/><path class="a" d="M618.75,582.39a5,5,0,1,0,5.86,4.07,4.94,4.94,0,0,0-5.67-4.1Z"/><path class="a" d="M593.79,587.89c-3.17.66-5.35,3.23-4.71,6.38s3.23,5.28,6.4,4.62a5.69,5.69,0,0,0,4.71-6.37,5.19,5.19,0,0,0-5.59-4.76A5.69,5.69,0,0,0,593.79,587.89Z"/><path class="a" d="M568.41,590.93c-3.18.65-5.59,3.67-4.94,6.82a6,6,0,0,0,6.85,4.85c3.17-.66,5.58-3.68,4.94-6.82A6,6,0,0,0,568.41,590.93Z"/><path class="a" d="M542.49,591.15a6.47,6.47,0,1,0,7.41,5.42,6.47,6.47,0,0,0-7.41-5.42Z"/><path class="a" d="M517,590.48a5.91,5.91,0,1,0,6.85,4.85,5.59,5.59,0,0,0-6.15-5A5.69,5.69,0,0,0,517,590.48Z"/><path class="a" d="M492,586.34a5.56,5.56,0,1,0,6.4,4.62A6.1,6.1,0,0,0,492,586.34Z"/><path class="a" d="M467.25,579.84a5.56,5.56,0,1,0,6.4,4.62A5.66,5.66,0,0,0,467.25,579.84Z"/><path class="a" d="M443.24,570.87c-3.17.66-5.35,3.23-4.71,6.38s3.23,5.28,6.4,4.62,5.36-3.23,4.71-6.37a5.19,5.19,0,0,0-5.59-4.76A4.55,4.55,0,0,0,443.24,570.87Z"/><path class="a" d="M420.28,559.33c-3.17.66-5.35,3.23-4.7,6.38s3.22,5.28,6.4,4.62,5.35-3.23,4.7-6.37C426.49,561,423.61,559,420.28,559.33Z"/><path class="a" d="M398.7,546.23a5.22,5.22,0,1,0,6,4.4,5,5,0,0,0-5.47-4.48A4.85,4.85,0,0,0,398.7,546.23Z"/><path class="a" d="M378.61,530.76a5,5,0,1,0,5.84,4.06A5.09,5.09,0,0,0,378.61,530.76Z"/><path class="a" d="M360.13,513.32a5,5,0,1,0,5.84,4.06C365.78,514.46,363,512.76,360.13,513.32Z"/><path class="a" d="M343.61,493.76a5,5,0,1,0,5.84,4.06A5.31,5.31,0,0,0,343.61,493.76Z"/><path class="a" d="M329,473.14a5,5,0,1,0,5.84,4.06A4.71,4.71,0,0,0,329,473.14Z"/><path class="a" d="M316.69,450.32a5.56,5.56,0,1,0,6.4,4.63A6.12,6.12,0,0,0,316.69,450.32Z"/><path class="a" d="M306.61,426.39a6.26,6.26,0,1,0,7.3,5.07A6.39,6.39,0,0,0,306.61,426.39Z"/><path class="a" d="M298.77,402.13a6.26,6.26,0,1,0,7.3,5.07A6.56,6.56,0,0,0,298.77,402.13Z"/><path class="a" d="M265.9,385.61a2.51,2.51,0,1,0,2.92,2h0a2.29,2.29,0,0,0-2.48-2.08A2.14,2.14,0,0,0,265.9,385.61Z"/><path class="a" d="M263.34,361.48c-.68.23-1.25.78-1,1.46s.78,1.24,1.46,1,1.26-.78,1-1.45S264,361.26,263.34,361.48Z"/><path class="a" d="M262.82,336.69c-.34.12-.68.23-.57.56s.21.68.56.57.68-.23.57-.56C263.61,336.81,263.27,336.92,262.82,336.69Z"/><path class="a" d="M264.79,311.47c-.34.11-.68.22-.57.56s.22.67.56.56.68-.22.57-.56S265.13,311.36,264.79,311.47Z"/><path class="a" d="M268.8,286.7c-.34.11-.34.11-.24.44s.11.34.45.23.35-.11.24-.45S269.14,286.59,268.8,286.7Z"/><path class="a" d="M294.38,213.57a2,2,0,0,0-1.38,1.56,1.93,1.93,0,0,0,1.57,1.35,2,2,0,0,0,1.38-1.56C295.61,213.91,295.06,213.34,294.38,213.57Z"/><path class="a" d="M306.75,189.06a3.76,3.76,0,1,0,4.38,3h0A4.25,4.25,0,0,0,306.75,189.06Z"/><path class="a" d="M320.92,166.57c-3.18.66-5.36,3.23-4.71,6.38s3.22,5.28,6.4,4.62,5.35-3.23,4.71-6.37a5.21,5.21,0,0,0-5.61-4.76A5.42,5.42,0,0,0,320.92,166.57Z"/><path class="a" d="M337.43,146.68c-3.17.66-5.35,3.23-4.71,6.37s3.23,5.29,6.4,4.63a5.7,5.7,0,0,0,4.71-6.38C343.61,148.39,340.72,146.36,337.43,146.68Z"/><path class="a" d="M356.27,131.62c-1.47.1-2.17,1.45-2.07,2.91s1.45,2.13,2.92,2,2.17-1.45,2.07-2.91A3.52,3.52,0,0,0,356.27,131.62Z"/><path class="a" d="M376.24,116.56c-.69.22-1.26.78-1,1.46s.78,1.23,1.46,1,1.25-.78,1-1.45A1.59,1.59,0,0,0,376.24,116.56Z"/><path class="a" d="M492.11,65.13h0c.11.34.45.22,0,0C492.61,65.35,492.45,65,492.11,65.13Z"/><path class="a" d="M543.32,59.29h0c-.23.45.11.34.11.34Z"/><path class="a" d="M568.9,59.18a.71.71,0,1,0,.9.45C569.35,59.4,569.24,59.07,568.9,59.18Z"/><path class="a" d="M594.11,61.42c-.68.22-1.25.78-1,1.45s.78,1.24,1.46,1,1.25-.78,1-1.46C595.69,61.65,594.79,61.19,594.11,61.42Z"/><path class="a" d="M618.86,64.55a3,3,0,0,0-2.66,3.3,1,1,0,0,0,0,.17,3.09,3.09,0,0,0,6.12-.88,2.91,2.91,0,0,0-3.18-2.63Z"/><path class="a" d="M643.34,71.5a3.41,3.41,0,1,0,3.93,2.82,3.25,3.25,0,0,0-3.61-2.87Z"/><path class="a" d="M667.24,80.12a4.19,4.19,0,0,0-3.66,4.69l0,.23a4.42,4.42,0,0,0,4.94,3.61,4.31,4.31,0,1,0-1.26-8.53Z"/><path class="a" d="M690,91a4.66,4.66,0,1,0,5.39,3.83C694.94,92.36,692.61,90.89,690,91Z"/><path class="a" d="M711.77,105.89a3.41,3.41,0,1,0,3.93,2.82C715.38,106.58,713.81,105.22,711.77,105.89Z"/><path class="a" d="M732.42,121.9a2.7,2.7,0,1,0,3,2.37C734.9,122.59,733.78,121.46,732.42,121.9Z"/><path class="a" d="M751.44,141.05c-.34.11-.68.22-.57.56s.22.67.56.56.68-.22.57-.56C752.23,141.17,751.78,140.94,751.44,141.05Z"/><path class="a" d="M768.67,159.29c-.68.23-.91.67-.8,1,.22.67.67.9,1,.79.68-.22.91-.67.8-1C769.91,159.64,769.35,159.07,768.67,159.29Z"/><path class="a" d="M784.17,180.33h0c-.23.45-.23.45.22.68C784.62,180.56,784.62,180.56,784.17,180.33Z"/><path class="a" d="M797.61,200.92c-.68.22-.91.67-1,1.45.22.68.67.9,1.46,1,.69-.22.92-.67,1-1.46A1.21,1.21,0,0,0,797.61,200.92Z"/><path class="a" d="M790,488a4.66,4.66,0,1,0,5.39,3.84C794.61,489.49,792.47,487.58,790,488Z"/><path class="a" d="M775,509.26a4.46,4.46,0,0,0-3.67,4.92,4.41,4.41,0,0,0,4.94,3.61,4.46,4.46,0,0,0,3.67-4.92C779.89,510.29,777.53,508.82,775,509.26Z"/><path class="a" d="M758.75,528.76a4.31,4.31,0,1,0,4.9,3.63,4.31,4.31,0,0,0-4.9-3.63Z"/><path class="a" d="M740.45,546.57a4.66,4.66,0,1,0,5.39,3.84A4.81,4.81,0,0,0,740.45,546.57Z"/><path class="a" d="M720.48,561.63c-3.17.66-5.58,3.68-4.94,6.82a6,6,0,0,0,6.85,4.85c3.18-.66,5.59-3.67,4.94-6.82a5.74,5.74,0,0,0-6.48-4.91A2.38,2.38,0,0,0,720.48,561.63Z"/><path class="a" d="M699.16,576a6.26,6.26,0,1,0,7.3,5.08,6,6,0,0,0-6.72-5.18A5.86,5.86,0,0,0,699.16,576Z"/><path class="a" d="M677,587.69a7.17,7.17,0,1,0,8.31,5.87C684.41,589.76,680.83,586.81,677,587.69Z"/><path class="a" d="M653.61,599.37c-3.17.66-5.58,3.67-4.94,6.82a6,6,0,0,0,6.85,4.85c3.18-.66,5.59-3.68,4.94-6.82A6,6,0,0,0,653.61,599.37Z"/><path class="a" d="M629.22,607.67a6.27,6.27,0,1,0,7.3,5.08C635.77,609.27,632.74,606.9,629.22,607.67Z"/><path class="a" d="M604.37,613.51a6.47,6.47,0,1,0,7.41,5.42,6.47,6.47,0,0,0-7.41-5.42Z"/><path class="a" d="M578.87,617.33a7.24,7.24,0,0,0-6.08,7.94,6.89,6.89,0,0,0,13.6-2.19C586.32,619.38,582.84,616.76,578.87,617.33Z"/><path class="a" d="M553.39,618.9a7.17,7.17,0,1,0,8.31,5.87,7,7,0,0,0-7.92-5.94Z"/><path class="a" d="M527.82,619a6.46,6.46,0,1,0,7.41,5.41,6.3,6.3,0,0,0-7-5.47Z"/><path class="a" d="M502.39,616.1a6.36,6.36,0,1,0,.12,0Z"/><path class="a" d="M477.31,612a5.91,5.91,0,1,0,6.85,4.85A6,6,0,0,0,477.31,612Z"/><path class="a" d="M452.83,605a5.56,5.56,0,1,0,6.4,4.63A5.66,5.66,0,0,0,452.83,605Z"/><path class="a" d="M429.05,595.6a5.57,5.57,0,1,0,6.4,4.63A5.83,5.83,0,0,0,429.05,595.6Z"/><path class="a" d="M406.2,584.4a5.21,5.21,0,1,0,6,4.4A5.5,5.5,0,0,0,406.2,584.4Z"/><path class="a" d="M384.51,571a5.51,5.51,0,0,0-4.48,5.92,5.27,5.27,0,0,0,10.43-1.52h0C390.27,572.44,387.46,570.76,384.51,571Z"/><path class="a" d="M364.19,556a5,5,0,1,0,.17,0Z"/><path class="a" d="M345.37,538.6a5,5,0,1,0,5.84,4.06A5.3,5.3,0,0,0,345.37,538.6Z"/><path class="a" d="M328,520a5,5,0,1,0,5.84,4.06A5.09,5.09,0,0,0,328,520Z"/><path class="a" d="M312.41,499.76a5,5,0,1,0,5.84,4.07C318.17,501.25,315.36,499.55,312.41,499.76Z"/><path class="a" d="M299,478.06a5.36,5.36,0,1,0,6.29,4.29A5.51,5.51,0,0,0,299,478.06Z"/><path class="a" d="M287.44,455.35c-3.18.66-5.36,3.23-4.71,6.38s3.22,5.28,6.4,4.62,5.35-3.23,4.71-6.37A5.67,5.67,0,0,0,287.44,455.35Z"/><path class="a" d="M278.07,432.32a5,5,0,1,0,5.84,4.06A5.17,5.17,0,0,0,278.07,432.32Z"/><path class="a" d="M270.53,408a5,5,0,1,0,5.84,4.06A5.11,5.11,0,0,0,270.53,408Z"/><path class="a" d="M237.68,390.31a2.16,2.16,0,1,0,2.47,1.81C240.16,391,239.15,390.21,237.68,390.31Z"/><path class="a" d="M235.11,366.19c-.34.11-.91.67-.8,1s.67.9,1,.79.91-.67.8-1S235.61,366.41,235.11,366.19Z"/><path class="a" d="M234.36,341.84h0c-.23.45.11.34.11.34Z"/><path class="a" d="M235.43,316.16h0c-.23.45-.12.79.22.68s.34-.11-.22-.68C235.88,316.39,235.77,316.05,235.43,316.16Z"/><path class="a" d="M239,291.17h0c-.24.45.1.33.1.33Z"/><path class="a" d="M251.86,241.54c-.34.11-.34.11-.23.44s.11.34.45.23.34-.11.23-.45Z"/><path class="a" d="M261.17,218c-.34.11-.34.11-.23.45s.11.34.45.23.34-.11.23-.45S261.51,217.91,261.17,218Z"/><path class="a" d="M272,192.16a3.21,3.21,0,1,0,3.82,2.48C275.7,193.18,273.79,191.94,272,192.16Z"/><path class="a" d="M285.13,168.89a5,5,0,0,0-3.9,5.36c.42,2.47,2.78,3.94,5.39,3.84a4.79,4.79,0,0,0,3.9-5.37C290.1,170.25,287.74,168.76,285.13,168.89Z"/><path class="a" d="M300.08,147.64A5.22,5.22,0,1,0,306,152,5.21,5.21,0,0,0,300.08,147.64Z"/><path class="a" d="M316.91,129.88a3.55,3.55,0,0,0-2.88,3.91,3.45,3.45,0,1,0,2.91-3.91Z"/><path class="a" d="M334.76,111.76a3.41,3.41,0,1,0,3.93,2.82C338.82,112.7,336.91,111.46,334.76,111.76Z"/><path class="a" d="M354.61,96.39a2.16,2.16,0,1,0,2.47,1.81,1.9,1.9,0,0,0-1.9-1.9A1.84,1.84,0,0,0,354.61,96.39Z"/><path class="a" d="M375.81,82.76c-.34.11-.68.22-.57.56s.22.67.56.56.68-.22.57-.56S375.92,83.14,375.81,82.76Z"/><path class="a" d="M596.34,33.5a.71.71,0,1,0,.42,1.36h0a.77.77,0,0,0,.46-.9C596.79,33.76,596.68,33.39,596.34,33.5Z"/><path class="a" d="M621,36.29c-1.47.11-2.51,1.56-2.3,3.36.1,1.46,1.56,2.47,3.37,2.26,1.47-.11,2.51-1.56,2.3-3.36C624.25,37.09,622.79,36.08,621,36.29Z"/><path class="a" d="M645.7,41.67A4.11,4.11,0,0,0,647,49.78l.18,0a3.86,3.86,0,0,0,3.43-4.25,3.53,3.53,0,0,0-.1-.55A4.27,4.27,0,0,0,645.7,41.67Z"/><path class="a" d="M669.61,50.3a4.11,4.11,0,1,0,4.83,3.27,4,4,0,0,0-4.58-3.32Z"/><path class="a" d="M692.91,60.61a4.66,4.66,0,1,0,5.39,3.83,4.56,4.56,0,0,0-5.16-3.87Z"/><path class="a" d="M715.07,73.15a4.31,4.31,0,0,0,1.26,8.53A4.46,4.46,0,0,0,720,76.76,4.35,4.35,0,0,0,715.07,73.15Z"/><path class="a" d="M736.52,88.16a3.55,3.55,0,0,0-2.91,3.91,3.5,3.5,0,0,0,4,2.82,3.41,3.41,0,0,0-.75-6.78l-.31,0Z"/><path class="a" d="M756.91,106.87a.71.71,0,1,0,.9.45A.75.75,0,0,0,756.91,106.87Z"/><path class="a" d="M775.39,124.33c-.34.11-.68.22-.57.56s.22.67.56.56.68-.22.57-.56S775.84,124.56,775.39,124.33Z"/><path class="a" d="M792.27,143.81h0c-.24.44-.24.44.21.67C792.83,144.37,792.72,144,792.27,143.81Z"/><path class="a" d="M788.18,538.14a4.46,4.46,0,0,0-3.67,4.92,4.16,4.16,0,0,0,4.6,3.66l.34-.05a4.45,4.45,0,0,0,3.67-4.92A4.33,4.33,0,0,0,788.18,538.14Z"/><path class="a" d="M770.89,556.76a4.46,4.46,0,0,0-3.67,4.92,4.41,4.41,0,0,0,4.94,3.61,4.46,4.46,0,0,0,3.67-4.92A4.63,4.63,0,0,0,770.89,556.76Z"/><path class="a" d="M751.92,573.76a5,5,0,1,0,5.84,4.06,4.91,4.91,0,0,0-5.58-4.11Z"/><path class="a" d="M731.83,589.61a5,5,0,1,0,5.84,4.06,4.91,4.91,0,0,0-5.58-4.11Z"/><path class="a" d="M710,602.3a6.27,6.27,0,1,0,7.3,5.08C717,604.12,713.61,601.87,710,602.3Z"/><path class="a" d="M687.43,614.09a6.82,6.82,0,1,0,7.86,5.64,6.71,6.71,0,0,0-7.58-5.69Z"/><path class="a" d="M664.23,625a6.82,6.82,0,1,0,7.86,5.65C671.22,626.81,667.74,624.21,664.23,625Z"/><path class="a" d="M639.61,632.62a7.37,7.37,0,1,0,8.42,6.2C647.82,634.76,643.89,632,639.61,632.62Z"/><path class="a" d="M615.07,639.47a7.17,7.17,0,1,0,8.31,5.86A7.46,7.46,0,0,0,615.07,639.47Z"/><path class="a" d="M589.78,644a7.45,7.45,0,1,0,.15,0Z"/><path class="a" d="M564.18,646.31a7.6,7.6,0,0,0-6.31,8.39,7.45,7.45,0,1,0,6.36-8.4Z"/><path class="a" d="M538.49,647.21a7.17,7.17,0,1,0,8.31,5.87,7.07,7.07,0,0,0-8-5.92Z"/><path class="a" d="M512.92,646.21a6.47,6.47,0,1,0,7.41,5.41,6.3,6.3,0,0,0-7-5.47Z"/><path class="a" d="M487.71,644a5,5,0,1,0,5.84,4.06C493.47,645.45,490.55,643.42,487.71,644Z"/><path class="a" d="M463,638.59a4.66,4.66,0,1,0,5.39,3.84A4.81,4.81,0,0,0,463,638.59Z"/><path class="a" d="M438.52,630.52a5,5,0,1,0,5.84,4.06A5.11,5.11,0,0,0,438.52,630.52Z"/><path class="a" d="M415,620.66a5.36,5.36,0,1,0,6.3,4.29A5.52,5.52,0,0,0,415,620.66Z"/><path class="a" d="M392,609.12a5.51,5.51,0,0,0-4.48,5.93,5.44,5.44,0,0,0,5.95,4.4,5.51,5.51,0,0,0,4.48-5.93C397.77,610.61,395,608.91,392,609.12Z"/><path class="a" d="M370.43,596a4.87,4.87,0,1,0,1.25,9.65,4.78,4.78,0,0,0,3.91-5.36C375.51,597.76,373,595.92,370.43,596Z"/><path class="a" d="M349.55,580.45a5.37,5.37,0,1,0,6.29,4.29A5.65,5.65,0,0,0,349.55,580.45Z"/><path class="a" d="M330.61,563.89a5.56,5.56,0,1,0,6.4,4.62A5.66,5.66,0,0,0,330.61,563.89Z"/><path class="a" d="M312.61,545.53c-3.17.66-5.35,3.23-4.71,6.37s3.23,5.28,6.4,4.62,5.36-3.22,4.71-6.37a5.19,5.19,0,0,0-5.6-4.75A5.34,5.34,0,0,0,312.61,545.53Z"/><path class="a" d="M296.61,526.5a5,5,0,1,0,.17,0Z"/><path class="a" d="M281.91,505.58a5,5,0,1,0,5.84,4.06A5.11,5.11,0,0,0,281.91,505.58Z"/><path class="a" d="M269.24,484a5.4,5.4,0,0,0-4.24,5.48,5.34,5.34,0,0,0,5.5,4.17,4.79,4.79,0,0,0,3.9-5.37C274.55,485.24,272.08,483.44,269.24,484Z"/><path class="a" d="M258,459.76c-3.18.66-5.59,3.68-4.94,6.82a6,6,0,0,0,6.84,4.86c3.18-.66,5.59-3.68,4.95-6.82C264.51,461.31,261.61,459.28,258,459.76Z"/><path class="a" d="M249.16,437.24a4.66,4.66,0,1,0,5.39,3.84C254.12,438.61,252.1,437,249.16,437.24Z"/><path class="a" d="M242.41,413a4.66,4.66,0,1,0,5.39,3.83A4.8,4.8,0,0,0,242.41,413Z"/><path class="a" d="M209.45,395a2,2,0,1,0,2.38,1.54.64.64,0,0,0,0-.07A2.63,2.63,0,0,0,209.45,395Z"/><path class="a" d="M206.77,370.55c-.68.22-.91.67-1,1.45.22.68.67.9,1.46,1,.68-.22.91-.67,1-1.45C208,370.89,207.22,370.76,206.77,370.55Z"/><path class="a" d="M205.68,346.32h0c-.23.45-.23.45.22.67C205.79,346.66,206.13,346.55,205.68,346.32Z"/><path class="a" d="M213.86,270.65h0C214,271,214.31,270.87,213.86,270.65Z"/><path class="a" d="M239,197.29a1.46,1.46,0,1,0,1.57,1.35C240.23,197.63,239.67,197.07,239,197.29Z"/><path class="a" d="M250.61,173.76a2.15,2.15,0,1,0,2.47,1.8,1.89,1.89,0,0,0-2.47-1.8Z"/><path class="a" d="M264,150.07a4.31,4.31,0,1,0,1,8.57l.31,0a4.31,4.31,0,1,0-1-8.57Z"/><path class="a" d="M279.11,129.49a4.31,4.31,0,1,0,4.94,3.61A4.42,4.42,0,0,0,279.11,129.49Z"/><path class="a" d="M296.05,112.07c-1.13,0-1.82,1.34-1.84,2.46s1.34,1.8,2.47,1.8,1.83-1.34,1.84-2.46C298.19,112.86,297.07,111.76,296.05,112.07Z"/><path class="a" d="M313.92,92.85a3,3,0,0,0-2.66,3.3,1,1,0,0,0,0,.17,3.17,3.17,0,0,0,3.47,2.59,3.22,3.22,0,0,0,2.65-3.46,2.93,2.93,0,0,0-3.19-2.64Z"/><path class="a" d="M333.21,76.9c-1.47.1-2.16,1.45-2.06,2.9s1.44,2.14,2.92,2,2.16-1.45,2.06-2.91a2.25,2.25,0,0,0-2.42-2.08A2.1,2.1,0,0,0,333.21,76.9Z"/><path class="a" d="M353.86,61.62c-1.47.11-2.16,1.45-2.06,2.91s1.44,2.13,2.92,2,2.16-1.45,2.06-2.91a2.27,2.27,0,0,0-2.44-2.09A2,2,0,0,0,353.86,61.62Z"/><path class="a" d="M376,49.6c-.34.11-.34.11-.57.56.11.34.11.34.56.56.34-.11.34-.11.57-.56A1.26,1.26,0,0,0,376,49.6Z"/><path class="a" d="M398.48,37.81h0c-.23.45-.12.78.22.67C398.59,38.15,398.93,38,398.48,37.81Z"/><path class="a" d="M598.23,5.69h0c-.23.45-.12.78.22.67S598.68,5.92,598.23,5.69Z"/><path class="a" d="M623.21,8.38a2,2,0,1,0,2.4,1.46A2.62,2.62,0,0,0,623.21,8.38Z"/><path class="a" d="M647.94,12.63a4,4,0,1,0-.1,8,4.1,4.1,0,0,0,1.1-.14,4,4,0,1,0,.1-8A4.1,4.1,0,0,0,647.94,12.63Z"/><path class="a" d="M672,20.47a4.46,4.46,0,0,0-3.67,4.92,4.35,4.35,0,1,0,8.61-1.31h0C676.82,21.5,674.46,20,672,20.47Z"/><path class="a" d="M695.51,30.33a5,5,0,0,0-3.9,5.37c.43,2.47,2.79,3.94,5.39,3.84a5,5,0,0,0,3.91-5.37,4.59,4.59,0,0,0-5.19-3.88Z"/><path class="a" d="M718.36,41.54a4.78,4.78,0,0,0-3.91,5.36,5.35,5.35,0,0,0,5.5,4.18,5.42,5.42,0,0,0,4.25-5.48C723.32,42.9,720.85,41.1,718.36,41.54Z"/><path class="a" d="M740.26,56.76a3,3,0,0,0-2.68,3.29l0,.19a2.91,2.91,0,0,0,3.16,2.64l.32-.05a3,3,0,0,0,2.66-3.3.78.78,0,0,0,0-.16,2.78,2.78,0,0,0-2.88-2.69A2.33,2.33,0,0,0,740.26,56.76Z"/><path class="a" d="M760.92,71.66A3,3,0,0,0,758.25,75a1.1,1.1,0,0,0,0,.18,3.09,3.09,0,0,0,6.12-.87h0a2.77,2.77,0,0,0-2.85-2.69A3.2,3.2,0,0,0,760.92,71.66Z"/><path class="a" d="M780.86,90.14a.77.77,0,0,0-.47.9.72.72,0,0,0,.9.47.72.72,0,1,0-.43-1.37Z"/><path class="a" d="M782.61,584.67A4.66,4.66,0,1,0,788,588.5,4.79,4.79,0,0,0,782.61,584.67Z"/><path class="a" d="M763.27,601.76a4.66,4.66,0,1,0,5.39,3.84,4.58,4.58,0,0,0-5.17-3.88Z"/><path class="a" d="M742.61,615.9a5.56,5.56,0,1,0,6.4,4.62C748.39,617.38,745.81,615.24,742.61,615.9Z"/><path class="a" d="M720.88,628.93a6.46,6.46,0,1,0,7.41,5.41,6.24,6.24,0,0,0-6.93-5.48A4,4,0,0,0,720.88,628.93Z"/><path class="a" d="M698.23,640.38a7.17,7.17,0,1,0,8.31,5.87C705.68,642.43,702.09,639.5,698.23,640.38Z"/><path class="a" d="M674.36,650.38a7.72,7.72,0,1,0,8.87,6.43,7.72,7.72,0,0,0-8.87-6.43Z"/><path class="a" d="M650.39,658.91a7.37,7.37,0,1,0,8.42,6.2A7.59,7.59,0,0,0,650.39,658.91Z"/><path class="a" d="M625.53,665.87a7.37,7.37,0,1,0,8.42,6.2,7.24,7.24,0,0,0-8.13-6.24Z"/><path class="a" d="M600.61,671.37a7.17,7.17,0,1,0,8.31,5.87C608,673.42,604.43,670.49,600.61,671.37Z"/><path class="a" d="M575.07,675.19a6.26,6.26,0,1,0,7.3,5.07A6.53,6.53,0,0,0,575.07,675.19Z"/><path class="a" d="M549.7,677.1c-3.17.66-5.35,3.23-4.71,6.37s3.23,5.28,6.4,4.63,5.36-3.23,4.71-6.38A5.66,5.66,0,0,0,549.7,677.1Z"/><path class="a" d="M523.91,676.54a5.56,5.56,0,1,0,6.4,4.62A5.56,5.56,0,0,0,523.91,676.54Z"/><path class="a" d="M498.61,675.08a4.46,4.46,0,0,0-3.67,4.92,4.35,4.35,0,1,0,3.67-4.92Z"/><path class="a" d="M473.61,671.27a3.71,3.71,0,0,0-3.14,4.21l0,.16a3.8,3.8,0,0,0,7.49-1.32h0C477.33,672.3,475.76,671,473.61,671.27Z"/><path class="a" d="M448.61,663.76a4.87,4.87,0,1,0,5.5,4.18A5.4,5.4,0,0,0,448.61,663.76Z"/><path class="a" d="M424.1,655.7a5.38,5.38,0,0,0-4.25,5.47,4.77,4.77,0,0,0,5.39,3.84,5.41,5.41,0,0,0,4.25-5.48C429.51,657.29,427,655.48,424.1,655.7Z"/><path class="a" d="M400.61,644.76a5.91,5.91,0,1,0,6.85,4.85A6.25,6.25,0,0,0,400.61,644.76Z"/><path class="a" d="M377.94,634.19a5,5,0,1,0,5.95,4.4C383.24,635.44,380.77,633.64,377.94,634.19Z"/><path class="a" d="M356.34,622.21a3.41,3.41,0,1,0,3.93,2.82A3.53,3.53,0,0,0,356.34,622.21Z"/><path class="a" d="M335.68,607.31a3.41,3.41,0,1,0,3.93,2.82A3.54,3.54,0,0,0,335.68,607.31Z"/><path class="a" d="M315.74,588.83a5.56,5.56,0,0,0,1.69,11h0c3.18-.66,5.35-3.23,4.71-6.37A5.79,5.79,0,0,0,315.74,588.83Z"/><path class="a" d="M297.61,571.26c-3.18.66-5.36,3.23-4.71,6.37s3.22,5.29,6.4,4.63,5.35-3.23,4.71-6.38S300.77,570.6,297.61,571.26Z"/><path class="a" d="M280.83,552.12c-3.17.66-5.35,3.23-4.71,6.37s3.23,5.29,6.4,4.63,5.36-3.23,4.71-6.37A5.65,5.65,0,0,0,280.83,552.12Z"/><path class="a" d="M265.54,532.87a4.81,4.81,0,0,0-3.91,5.37,4.71,4.71,0,1,0,3.94-5.37Z"/><path class="a" d="M252.17,513.76a2.1,2.1,0,0,0-1.86,2.31.77.77,0,0,0,0,.15,2.18,2.18,0,1,0,4.31-.66,1.89,1.89,0,0,0-2.47-1.8Z"/><path class="a" d="M240.09,490.48a3.21,3.21,0,1,0,3.82,2.48A3.45,3.45,0,0,0,240.09,490.48Z"/><path class="a" d="M229.16,465a5.37,5.37,0,1,0,6.29,4.29C235,466.76,232.11,464.76,229.16,465Z"/><path class="a" d="M220.81,442.76a3.76,3.76,0,1,0,4.38,3h0A3.85,3.85,0,0,0,220.81,442.76Z"/><path class="a" d="M214.06,418.47a3.71,3.71,0,0,0-3.14,4.21l0,.16a3.8,3.8,0,1,0,3.12-4.37Z"/><path class="a" d="M181.11,399.38c-1.47.1-2.17,1.45-2.07,2.91s1.45,2.13,2.92,2,2.17-1.45,2.07-2.91S182.61,399.27,181.11,399.38Z"/><path class="a" d="M178.21,374.24c-1.13,0-1.82,1.34-1.83,2.46s1.33,1.8,2.47,1.81,1.82-1.34,1.83-2.46S179.35,374.25,178.21,374.24Z"/><path class="a" d="M177.34,350.68c-.34.12-.34.12-.57.56.11.34.11.34.56.57.34-.11.34-.11.57-.56C177.68,350.57,177.34,350.68,177.34,350.68Z"/><path class="a" d="M177.73,325.23c-.34.11-.34.11-.23.44s.11.34.45.23.34-.11.23-.45Z"/><path class="a" d="M180,299.89h0c-.23.45-.12.78.22.67Z"/><path class="a" d="M189.53,250.24h0C189.64,250.58,189.87,250.13,189.53,250.24Z"/><path class="a" d="M217.13,178.69h0c-.23.45.11.34.11.34Z"/><path class="a" d="M229,155.07c-1,.34-1.59.9-1.26,1.91s.89,1.57,1.91,1.24,1.59-.89,1.26-1.9C231,155.2,230.06,154.76,229,155.07Z"/><path class="a" d="M243.09,133.38c-1,.33-1.6.89-1.27,1.9s.89,1.57,1.91,1.24,1.59-.89,1.27-1.9C244.78,133.94,243.77,133.15,243.09,133.38Z"/><path class="a" d="M258.47,113.48c-.68.22-.92.67-1,1.45.22.67.67.9,1.46,1,.68-.22.92-.67,1-1.46A1.6,1.6,0,0,0,258.47,113.48Z"/><path class="a" d="M275,93.58a1.86,1.86,0,0,0-1.27,1.91,1.82,1.82,0,0,0,1.9,1.27c.69-.22,1.6-.89,1.27-1.9A2.38,2.38,0,0,0,275,93.58Z"/><path class="a" d="M292.83,75.49c-.68.22-1.59.89-1.26,1.9a1.78,1.78,0,0,0,1.91,1.24c.68-.22,1.59-.89,1.26-1.9C294.52,76.06,293.85,75.16,292.83,75.49Z"/><path class="a" d="M312.14,58.41c-1,.33-1.59.89-1.26,1.9s.88,1.58,1.91,1.25,1.59-.89,1.26-1.91C314.17,58.87,313.16,58.08,312.14,58.41Z"/><path class="a" d="M332.68,42.76c-1,.33-1.59.89-1.26,1.9s.88,1.57,1.91,1.24,1.59-.89,1.26-1.9A1.63,1.63,0,0,0,332.68,42.76Z"/><path class="a" d="M354.1,29.88c-.34.11-.34.11-.57.56.11.33.11.33.56.56.34-.11.34-.11.57-.56C354.44,29.76,354.44,29.76,354.1,29.88Z"/><path class="a" d="M376.3,17.08c-.34.11-.34.11-.23.44s.11.34.45.23.34-.11.23-.45a.34.34,0,0,0-.42-.23Z"/><path class="a" d="M399.61,5.4a.77.77,0,0,0-.46.89.71.71,0,1,0,1.36-.44C400.19,6,400,5.29,399.61,5.4Z"/><path class="a" d="M698.1.06a4.81,4.81,0,0,0-3.91,5.37,4.71,4.71,0,0,0,9.3-1.53h0A4.77,4.77,0,0,0,698.1.06Z"/><path class="a" d="M721.29,11.15a4.81,4.81,0,0,0-3.91,5.37,4.71,4.71,0,0,0,9.3-1.53,4.56,4.56,0,0,0-5.15-3.88Z"/><path class="a" d="M743.45,23.7a4.78,4.78,0,0,0-3.91,5.36c.43,2.47,2.79,3.94,5.39,3.84a5,5,0,0,0,3.91-5.37,4.57,4.57,0,0,0-5.18-3.87Z"/><path class="a" d="M765,37.92a4,4,0,1,0,4.5,3.43v0A4,4,0,0,0,765,37.92Z"/><path class="a" d="M785.61,55.06a2.08,2.08,0,0,0-1.85,2.3.78.78,0,0,0,0,.16,2.07,2.07,0,0,0,2.29,1.83l.18,0A2.08,2.08,0,0,0,788.1,57a.78.78,0,0,0,0-.16A2.66,2.66,0,0,0,785.61,55.06Z"/><path class="a" d="M794.38,612.87a4.31,4.31,0,1,0,4.94,3.61A4.41,4.41,0,0,0,794.38,612.87Z"/><path class="a" d="M774.61,628.6a4.87,4.87,0,1,0,.87,9.7l.39,0a4.79,4.79,0,0,0,3.9-5.37,4.45,4.45,0,0,0-4.56-4.34Z"/><path class="a" d="M753.55,642.53a5.56,5.56,0,1,0,6.4,4.62A6.12,6.12,0,0,0,753.55,642.53Z"/><path class="a" d="M731.61,656c-3.18.66-5.59,3.68-4.94,6.83a6,6,0,0,0,6.85,4.85c3.17-.66,5.58-3.68,4.94-6.82A6,6,0,0,0,731.61,656Z"/><path class="a" d="M708.61,666.45a7.17,7.17,0,1,0,8.31,5.87C716.48,668.76,712.55,665.91,708.61,666.45Z"/><path class="a" d="M685.27,677a7.17,7.17,0,1,0,8.31,5.87C692.72,679.06,689.13,676.12,685.27,677Z"/><path class="a" d="M660.85,685.31a7.72,7.72,0,1,0,8.87,6.43,7.72,7.72,0,0,0-8.87-6.43Z"/><path class="a" d="M636.32,693.28a6.47,6.47,0,1,0,7.41,5.42,6.47,6.47,0,0,0-7.41-5.42Z"/><path class="a" d="M611.36,698.76a6.47,6.47,0,1,0,7.41,5.42,6.25,6.25,0,0,0-6.92-5.5Z"/><path class="a" d="M586,702.94c-3.18.66-5.58,3.67-4.94,6.82a6,6,0,0,0,6.85,4.85c3.18-.66,5.59-3.68,4.94-6.82a5.75,5.75,0,0,0-6.46-4.92Z"/><path class="a" d="M560.37,705.29a5.37,5.37,0,1,0,6.29,4.29C566.13,706.76,563.31,705.08,560.37,705.29Z"/><path class="a" d="M534.9,705.76a5,5,0,1,0,5.84,4.06C540.32,707.34,537.51,705.65,534.9,705.76Z"/><path class="a" d="M509.45,705.08a4.31,4.31,0,1,0,4.94,3.61A4.42,4.42,0,0,0,509.45,705.08Z"/><path class="a" d="M484.12,703.62c-1.14,0-1.83,1.34-1.84,2.46s1.34,1.8,2.47,1.81,1.82-1.34,1.84-2.46S485.61,703.52,484.12,703.62Z"/><path class="a" d="M459.16,698.69c-1.13,0-1.82,1.34-1.84,2.46s1.34,1.8,2.47,1.81,1.83-1.34,1.84-2.46a2.08,2.08,0,0,0-2.32-1.83Z"/><path class="a" d="M434,689.76a4.31,4.31,0,1,0,4.94,3.61C438.88,690.76,436.52,689.29,434,689.76Z"/><path class="a" d="M409.91,680.42a5,5,0,1,0,5.84,4.07A5.32,5.32,0,0,0,409.91,680.42Z"/><path class="a" d="M386.38,669.44c-3.18.66-5.59,3.68-4.94,6.82a6,6,0,0,0,6.85,4.86c3.17-.66,5.58-3.68,4.94-6.83A6.22,6.22,0,0,0,386.38,669.44Z"/><path class="a" d="M363.76,657.76c-3.18.66-5.59,3.68-4.94,6.82a6,6,0,0,0,6.85,4.86c3.17-.66,5.58-3.68,4.94-6.82A6,6,0,0,0,363.76,657.76Z"/><path class="a" d="M342.37,647.61a2.71,2.71,0,1,0,3,2.38h0A2.78,2.78,0,0,0,342.37,647.61Z"/><path class="a" d="M321.69,635c-.35.11-.92.67-.81,1s.67.9,1,.79.91-.67.81-1C322.82,635,322.37,634.76,321.69,635Z"/><path class="a" d="M301.51,616.92c-1.47.11-2.5,1.56-2.3,3.36.1,1.46,1.56,2.47,3.37,2.26,1.48-.11,2.51-1.56,2.3-3.36C304.79,617.76,303.33,616.76,301.51,616.92Z"/><path class="a" d="M282.5,596.65a5.92,5.92,0,1,0,6.85,4.86,5.76,5.76,0,0,0-6.49-4.92Z"/><path class="a" d="M265.16,578.07a5.71,5.71,0,0,0-4.71,6.38c.64,3.14,3.22,5.28,6.4,4.62a5.7,5.7,0,0,0,4.71-6.37C271.36,579.76,268.44,577.76,265.16,578.07Z"/><path class="a" d="M249.42,558.6a5.56,5.56,0,1,0,6.4,4.63A5.66,5.66,0,0,0,249.42,558.6Z"/><path class="a" d="M235,538.69a5,5,0,0,0-3.91,5.37c.43,2.46,2.79,3.93,5.39,3.83a5,5,0,0,0,3.91-5.37,4.57,4.57,0,0,0-5.18-3.87Z"/><path class="a" d="M222.46,519.68a1.46,1.46,0,0,0,.19,2.92A2,2,0,0,0,224,521,1.93,1.93,0,0,0,222.46,519.68Z"/><path class="a" d="M210.83,496.64c-1,.33-1.83,1.33-1.61,2,.33,1,1.34,1.8,2,1.58,1-.33,1.82-1.34,1.61-2C212.86,497.09,212,496.64,210.83,496.64Z"/><path class="a" d="M200.8,471.58a3.41,3.41,0,1,0,3.93,2.82A3.54,3.54,0,0,0,200.8,471.58Z"/><path class="a" d="M192.61,448.55a2.78,2.78,0,0,0-2.41,3,2.75,2.75,0,0,0,3,2.37,2.8,2.8,0,0,0,2.41-3,2.6,2.6,0,0,0-2.79-2.39Z"/><path class="a" d="M186.05,423.85a2.7,2.7,0,1,0,3,2.37A2.78,2.78,0,0,0,186.05,423.85Z"/><path class="a" d="M153.11,403.63a2.71,2.71,0,1,0,3,2.38h0C155.61,404.32,154.47,403.19,153.11,403.63Z"/><path class="a" d="M149.66,377.93a2.86,2.86,0,1,0,3.37,2.26C152.93,378.76,151.47,377.76,149.66,377.93Z"/><path class="a" d="M148.45,353.36c-1.13,0-1.82,1.34-1.83,2.46a2.65,2.65,0,0,0,2.47,1.81c1.13,0,1.82-1.34,1.83-2.46A2.67,2.67,0,0,0,148.45,353.36Z"/><path class="a" d="M148.5,328a2.15,2.15,0,1,0,2.47,1.8,1.87,1.87,0,0,0-1.86-1.89A1.81,1.81,0,0,0,148.5,328Z"/><path class="a" d="M150.61,303.13c-.68.22-1.6.89-1.27,1.9.22.67.89,1.57,1.91,1.24.68-.22,1.6-.89,1.27-1.9C152.28,303.69,151.27,302.9,150.61,303.13Z"/><path class="a" d="M154.13,279.25c-.34.11-.34.11-.23.45s.11.34.45.23.34-.12.23-.45a.34.34,0,0,0-.44-.23Z"/><path class="a" d="M221.89,115.68h0c-.23.44-.12.78.22.67C222,116,222.34,115.9,221.89,115.68Z"/><path class="a" d="M254.13,75.76h0c-.24.45-.13.79.21.68C254.34,76.44,254.69,76.33,254.13,75.76Z"/><path class="a" d="M272.21,57.23c-.34.11-.68.22-.57.56s.22.67.56.56.68-.22.57-.55A1.24,1.24,0,0,0,272.21,57.23Z"/><path class="a" d="M291.18,40.26c-.34.12-.68.23-.57.56s.22.68.56.57.68-.22.57-.56S291.52,40.15,291.18,40.26Z"/><path class="a" d="M311.16,24.09c-.34.11-.91.67-.8,1s.67.9,1,.79.91-.67.8-1C312.29,24.09,311.84,23.87,311.16,24.09Z"/><path class="a" d="M332.37,9.37c-.34.11-.91.67-.8,1s.66.9,1,.79.92-.67.81-1S332.71,9.26,332.37,9.37Z"/><path class="a" d="M768.61,6.2a3.54,3.54,0,0,0-3.2,3.83,4.51,4.51,0,0,0,.09.53,3.5,3.5,0,0,0,3.86,3.1,3,3,0,0,0,.52-.1,3.54,3.54,0,0,0,3.2-3.83A4.51,4.51,0,0,0,773,9.2,3.85,3.85,0,0,0,768.61,6.2Z"/><path class="a" d="M789.74,22.44c-1.13,0-1.82,1.34-1.83,2.46s1.33,1.8,2.47,1.8,1.82-1.34,1.83-2.46S791.22,22.33,789.74,22.44Z"/><path class="a" d="M785.66,655.56a5,5,0,1,0,5.6,4.51C790.61,656.93,788.15,655.13,785.66,655.56Z"/><path class="a" d="M764.23,669.6a5.37,5.37,0,1,0,6.29,4.29C770,671.09,767.17,669.39,764.23,669.6Z"/><path class="a" d="M742.24,683.08a5.22,5.22,0,1,0,6,4.4,5,5,0,0,0-5.47-4.48A4.85,4.85,0,0,0,742.24,683.08Z"/><path class="a" d="M719.7,694.87a5.5,5.5,0,0,0-4.47,5.93,5.44,5.44,0,0,0,6,4.4,5.5,5.5,0,0,0,4.47-5.93,5.24,5.24,0,0,0-6-4.4Z"/><path class="a" d="M695.84,703.76a6.47,6.47,0,1,0,7.41,5.42,6.47,6.47,0,0,0-7.41-5.42Z"/><path class="a" d="M671.42,712.05a7.17,7.17,0,1,0,8.31,5.87A7.24,7.24,0,0,0,671.42,712.05Z"/><path class="a" d="M646.79,718.56a7.72,7.72,0,1,0,8.87,6.43,7.72,7.72,0,0,0-8.87-6.43Z"/><path class="a" d="M622,724.4a7.74,7.74,0,0,0-6.56,8.76v.07a7.8,7.8,0,0,0,15.42-2.4A8.25,8.25,0,0,0,622,724.4Z"/><path class="a" d="M596.55,728.55a7.72,7.72,0,1,0,8.87,6.44C604.79,730.76,600.75,727.56,596.55,728.55Z"/><path class="a" d="M571.27,733a5.37,5.37,0,1,0,6.29,4.29C577.13,734.86,574.21,732.83,571.27,733Z"/><path class="a" d="M545.9,735a5,5,0,0,0-3.91,5.37c.43,2.47,2.79,3.94,5.39,3.84a5,5,0,0,0,3.91-5.37C550.41,736.1,548.39,734.52,545.9,735Z"/><path class="a" d="M520,734.06a5,5,0,0,0-3.91,5.37,4.76,4.76,0,0,0,5.39,3.83,5,5,0,0,0,3.91-5.36A4.77,4.77,0,0,0,520,734.06Z"/><path class="a" d="M494.77,732.94a3.21,3.21,0,1,0,3.82,2.48A3.45,3.45,0,0,0,494.77,732.94Z"/><path class="a" d="M469.9,730.59a1.6,1.6,0,1,0,.65,3.14c.68-.22,1.59-.89,1.26-1.9A1.63,1.63,0,0,0,469.9,730.59Z"/><path class="a" d="M444.61,724.65c-1,.33-1.6.89-1.27,1.9s.89,1.58,1.91,1.24,1.6-.89,1.27-1.9C446.61,725.11,445.75,724.66,444.61,724.65Z"/><path class="a" d="M420,717.37a1.83,1.83,0,1,0,2.36,1.47,1.76,1.76,0,0,0-1.95-1.56A1.43,1.43,0,0,0,420,717.37Z"/><path class="a" d="M395.91,708.07a2.15,2.15,0,1,0,2.47,1.8C398.4,708.76,397.39,708,395.91,708.07Z"/><path class="a" d="M372.29,695.63a4.31,4.31,0,1,0,4.94,3.61A4.55,4.55,0,0,0,372.29,695.63Z"/><path class="a" d="M349.67,684a4.66,4.66,0,1,0,5.39,3.83,4.57,4.57,0,0,0-5.18-3.87Z"/><path class="a" d="M328.17,673.46a2,2,0,1,0,2.38,1.53s0,0,0-.07A2,2,0,0,0,328.17,673.46Z"/><path class="a" d="M307.5,659.68c-.34.11-.92.67-.81,1s.67.9,1,.79.92-.67.81-1S307.84,659.57,307.5,659.68Z"/><path class="a" d="M287.3,643.89c-.68.23-.91.67-.8,1,.22.67.67.9,1,.79.68-.22.91-.67.8-1C288.54,644.24,288,643.67,287.3,643.89Z"/><path class="a" d="M267.94,623.76a4.31,4.31,0,1,0,4.94,3.61,4.2,4.2,0,0,0-4.69-3.65Z"/><path class="a" d="M250.17,603.81c-3.18.66-5.36,3.23-4.71,6.37a5.66,5.66,0,0,0,6.4,4.62c3.17-.65,5.35-3.22,4.71-6.37A6.1,6.1,0,0,0,250.17,603.81Z"/><path class="a" d="M233.61,585.34a5,5,0,1,0,6,4.4C238.93,586.6,236.46,584.76,233.61,585.34Z"/><path class="a" d="M218.34,565a5,5,0,1,0,6,4.4C223.61,566.23,221.18,564.43,218.34,565Z"/><path class="a" d="M204.87,544.39a4.11,4.11,0,1,0,4.83,3.27A4.57,4.57,0,0,0,204.87,544.39Z"/><path class="a" d="M192.61,525.27c-.68.22-.91.67-.8,1,.22.67.67.9,1,.79.68-.22.91-.67.8-1C193.87,525.61,193.31,525.05,192.61,525.27Z"/><path class="a" d="M181.9,502.68c-.34.11-.68.22-.57.56s.22.67.56.56.68-.22.57-.56S182,503,181.9,502.68Z"/><path class="a" d="M172.32,479c-.34.12-.92.67-.81,1s.67.9,1,.79.92-.67.81-1S172.66,478.86,172.32,479Z"/><path class="a" d="M164.32,454.38c-.68.22-1.25.78-1,1.45s.78,1.24,1.46,1,1.25-.78,1-1.46S165.12,454.49,164.32,454.38Z"/><path class="a" d="M157.91,430c-.68.22-1.25.78-1,1.45s.78,1.24,1.46,1,1.25-.78,1-1.45S158.61,429.76,157.91,430Z"/><path class="a" d="M125,409.76a.71.71,0,1,0,.9.46Z"/><path class="a" d="M121.76,383.65a2,2,0,0,0,0,4,2.45,2.45,0,0,0,2.34-2.54A2,2,0,0,0,121.76,383.65Z"/><path class="a" d="M119.79,356.76a3.41,3.41,0,1,0,1.06,6.73,3.41,3.41,0,0,0-.75-6.78Z"/><path class="a" d="M119.61,330.7a4.11,4.11,0,1,0,4.83,3.27A4.6,4.6,0,0,0,119.61,330.7Z"/><path class="a" d="M121.13,306.36a2.86,2.86,0,1,0,3.37,2.26A3.42,3.42,0,0,0,121.13,306.36Z"/><path class="a" d="M124.55,283.27a.77.77,0,0,0-.46.9.71.71,0,1,0,.46-.9Z"/><path class="a" d="M161.74,162.41h0c-.23.45.11.34.11.34Z"/><path class="a" d="M270,21.44c-.11-.33-.34.11,0,0-.23.45-.23.45.22.68C270.11,21.78,270.45,21.67,270,21.44Z"/><path class="a" d="M289.87,4.93c-.34.11-.68.22-.57.56s.21.67.56.56.68-.22.57-.56C290.66,5,290.21,4.82,289.87,4.93Z"/><path class="a" d="M796.68,682.53a5.41,5.41,0,0,0-4.25,5.48,4.76,4.76,0,0,0,5.39,3.83,5.4,5.4,0,0,0,4.25-5.47C801.75,684.23,799.28,682.43,796.68,682.53Z"/><path class="a" d="M775.36,696.91a4.78,4.78,0,0,0-3.91,5.36,4.92,4.92,0,0,0,9.75-1.3C780.32,698.27,777.85,696.47,775.36,696.91Z"/><path class="a" d="M753.26,710.05a4.87,4.87,0,1,0,5.5,4.17A4.87,4.87,0,0,0,753.26,710.05Z"/><path class="a" d="M730,720.6a5.91,5.91,0,1,0,6.85,4.85A6,6,0,0,0,730,720.6Z"/><path class="a" d="M706.32,729a7.72,7.72,0,1,0,8.87,6.44A8.26,8.26,0,0,0,706.32,729Z"/><path class="a" d="M682.13,736.88a8.77,8.77,0,1,0,.15,0Z"/><path class="a" d="M657.37,745.3a7.72,7.72,0,1,0,8.87,6.43,7.72,7.72,0,0,0-8.87-6.43Z"/><path class="a" d="M632.41,750.76a8.07,8.07,0,1,0,9.32,6.66A8.28,8.28,0,0,0,632.41,750.76Z"/><path class="a" d="M607.13,755.29a8.07,8.07,0,1,0,9.32,6.66,8.07,8.07,0,0,0-9.32-6.66Z"/><path class="a" d="M581.74,758.33a8.26,8.26,0,1,0,.07,0Z"/><path class="a" d="M556.68,763.49a4.11,4.11,0,1,0,4.83,3.27A4.27,4.27,0,0,0,556.68,763.49Z"/><path class="a" d="M531.31,765.4c-1.13,0-1.83,1.34-1.84,2.46s1.34,1.8,2.47,1.8,1.83-1.33,1.84-2.46a1.93,1.93,0,0,0-2-1.87A1.84,1.84,0,0,0,531.31,765.4Z"/><path class="a" d="M506,765.07c-.34.11-.91.67-.8,1s.67.9,1,.79.91-.67.8-1C506.76,765.18,506.31,765,506,765.07Z"/><path class="a" d="M480.53,762.15c-.34.11-.34.11-.57.56.11.34.11.34.56.57.34-.12.34-.12.57-.56C481,762.38,480.88,762,480.53,762.15Z"/><path class="a" d="M455.35,757.67c-.34.11-.23.45,0,0-.23.45-.12.79.22.68Z"/><path class="a" d="M430.41,751.62c-.35.11-.35.11-.58.56.11.34.11.34.56.56.34-.11.34-.11.57-.56C430.75,751.51,430.75,751.51,430.41,751.62Z"/><path class="a" d="M406.05,743.89c-.34.11-.34.11-.58.56.11.33.11.33.56.56.34-.11.34-.11.58-.56C406.5,744.12,406.39,743.76,406.05,743.89Z"/><path class="a" d="M381.83,733.13a2.1,2.1,0,0,0-1.85,2.32s0,.09,0,.14a2.17,2.17,0,1,0,1.83-2.46Z"/><path class="a" d="M358.3,722.15c-1.47.11-2.5,1.56-2.3,3.35.1,1.46,1.56,2.48,3.37,2.26,1.48-.1,2.51-1.56,2.3-3.35C361.61,723,360.12,721.93,358.3,722.15Z"/><path class="a" d="M335.79,710.84c-1.47.1-2.16,1.45-2.06,2.9s1.44,2.14,2.92,2,2.16-1.45,2.06-2.91C338.28,711.52,337.16,710.39,335.79,710.84Z"/><path class="a" d="M313.76,697.51c-1.47.1-2.17,1.45-2.07,2.91s1.45,2.13,2.92,2,2.17-1.45,2.07-2.91S315.23,697.4,313.76,697.51Z"/><path class="a" d="M293.29,685.53c-.1-.34-.34.11,0,0-.23.45.11.34.11.34Z"/><path class="a" d="M253.72,651.83c-.69.22-1.26.78-1,1.45s.78,1.24,1.46,1,1.26-.77,1-1.45S254.51,651.94,253.72,651.83Z"/><path class="a" d="M235.37,632.46a2.86,2.86,0,1,0,.76,5.67,1.7,1.7,0,0,0,.31-.06,2.51,2.51,0,0,0,2.45-2.57,3.41,3.41,0,0,0-3-3.15A3.12,3.12,0,0,0,235.37,632.46Z"/><path class="a" d="M218,611.29a5,5,0,1,0,5.61,4.52C223.36,612.89,220.89,611.08,218,611.29Z"/><path class="a" d="M202.61,593.17a3.21,3.21,0,1,0,3.82,2.49A3.45,3.45,0,0,0,202.61,593.17Z"/><path class="a" d="M188,572.58a3.06,3.06,0,1,0,3.48,2.6,2.92,2.92,0,0,0-3.17-2.64A1.55,1.55,0,0,0,188,572.58Z"/><path class="a" d="M174.7,551.22a2.5,2.5,0,1,0,2.92,2C177.61,552.13,176.17,551.11,174.7,551.22Z"/><path class="a" d="M163.27,530a1.46,1.46,0,1,0,1.57,1.35C164.51,530.31,164,529.76,163.27,530Z"/><path class="a" d="M152.77,506.93c-.68.22-1.25.78-1,1.45s.78,1.24,1.46,1,1.25-.78,1-1.45S153.46,506.76,152.77,506.93Z"/><path class="a" d="M143.52,484.23h0c-.24.45.11.34.11.34s.34-.11-.11-.34C144,484.46,143.86,484.12,143.52,484.23Z"/><path class="a" d="M136.08,460.2h0c-.23.45.11.34.11.34Z"/><path class="a" d="M129.9,435.39h0c-.23.44.11.33.11.33Z"/><path class="a" d="M93.51,389.47c-.34.11-.34.11-.57.56.11.33.11.33.56.56.34-.11.34-.11.57-.56C94,389.7,93.86,389.36,93.51,389.47Z"/><path class="a" d="M91.66,362.88c-1,.33-1.6.89-1.27,1.9s.89,1.57,1.91,1.24,1.59-.89,1.27-1.9A2.36,2.36,0,0,0,91.66,362.88Z"/><path class="a" d="M90.93,336.29A2.86,2.86,0,0,0,92,341.91a2.51,2.51,0,0,0,2.45-2.57,2.63,2.63,0,0,0-.15-.79C94.2,337.09,92.74,336.08,90.93,336.29Z"/><path class="a" d="M92.33,311.63c-1.13,0-1.83,1.33-1.84,2.45s1.34,1.81,2.47,1.81,1.83-1.34,1.84-2.46A2.66,2.66,0,0,0,92.33,311.63Z"/><path class="a" d="M94.85,288.08c-.34.11-.34.11-.57.56.11.34.11.34.56.56.34-.11.34-.11.57-.55S95.19,288,94.85,288.08Z"/><path class="a" d="M128.55,165.76h0c-.23.45-.12.78.22.67s.23-.45-.22-.67C129,166,128.89,165.64,128.55,165.76Z"/><path class="a" d="M786,724a4.47,4.47,0,0,0-3.68,4.92,4.36,4.36,0,0,0,8.62-1.31C790.89,725,788.53,723.55,786,724Z"/><path class="a" d="M764.05,737.46a3.76,3.76,0,1,0,4.38,3h0A4.27,4.27,0,0,0,764.05,737.46Z"/><path class="a" d="M740.61,747.68a5,5,0,1,0,5.84,4.06C746.27,748.82,743.46,747.13,740.61,747.68Z"/><path class="a" d="M716.77,756.55a6,6,0,0,0-5.28,6.65c0,.21.06.41.11.62.75,3.48,3.78,5.85,7.3,5.08a6,6,0,0,0,5.28-6.65c0-.21-.06-.41-.11-.62C723.76,758.37,720.39,756.12,716.77,756.55Z"/><path class="a" d="M692.61,764.41a7.17,7.17,0,1,0,8.31,5.87C700.47,766.69,696.54,763.86,692.61,764.41Z"/><path class="a" d="M669,777.65c-.68.23-1.6.9-1.27,1.91.22.67.89,1.57,1.91,1.24.68-.22,1.6-.89,1.27-1.9C670.7,778.22,670,777.32,669,777.65Z"/><path class="a" d="M644.27,783.83c-.68.22-1.59.89-1.26,1.9a1.57,1.57,0,0,0,1.85,1.25h.06c.68-.22,1.59-.89,1.26-1.9C646,784.4,645,783.61,644.27,783.83Z"/><path class="a" d="M619,788.32c-1,.33-1.6.89-1.27,1.9s.89,1.54,1.89,1.24,1.6-.89,1.27-1.9A2.37,2.37,0,0,0,619,788.32Z"/><path class="a" d="M593.37,791.76c-1,.33-1.82,1.34-1.6,2,.33,1,1.34,1.8,2,1.58,1-.33,1.82-1.34,1.6-2a1.55,1.55,0,0,0-1.47-1.64A1.57,1.57,0,0,0,593.37,791.76Z"/><path class="a" d="M567.88,794.49c-.34.11-.91.67-.8,1s.67.9,1,.79.91-.67.8-1C569.12,794.84,568.61,794.27,567.88,794.49Z"/><path class="a" d="M542.42,795c-.69.22-.92.66-.81,1,.22.68.67.9,1,.79.68-.22.92-.67.81-1S542.76,794.83,542.42,795Z"/><path class="a" d="M516.84,795.06h0c-.23.45.11.34.11.34Z"/><path class="a" d="M491.18,792.59c-.34.12-.34.12-.23.45s.11.34.45.23.34-.11.23-.45S491.52,792.48,491.18,792.59Z"/><path class="a" d="M465.87,788.9h0c-.23.44-.12.78.22.67C466,789.23,466.32,789.12,465.87,788.9Z"/><path class="a" d="M440.81,783.63h0c-.24.45-.13.79.21.67a.48.48,0,0,0-.18-.65Z"/><path class="a" d="M416.09,777.13h0C415.86,777.58,416.2,777.47,416.09,777.13Z"/><path class="a" d="M391.61,767.94c-.68.22-1.26.78-1,1.46s.78,1.23,1.46,1,1.26-.78,1-1.45A1.91,1.91,0,0,0,391.61,767.94Z"/><path class="a" d="M367.1,756.17a4,4,0,1,0,4.51,3.41v0C371.61,757.31,369.25,755.84,367.1,756.17Z"/><path class="a" d="M344.43,749c-.34.11-.68.22-.57.56s.22.67.56.56.68-.22.57-.56C345.22,749.12,344.77,748.9,344.43,749Z"/><path class="a" d="M321.7,737a.71.71,0,1,0,.9.45C322.49,737.14,322.38,736.76,321.7,737Z"/><path class="a" d="M300,724.7h0c-.24.45.11.34.11.34S300.34,724.59,300,724.7Z"/><path class="a" d="M220.69,660.32a.71.71,0,1,0,.9.45A.78.78,0,0,0,220.69,660.32Z"/><path class="a" d="M203.37,640.62c-.68.22-1.6.89-1.27,1.9.22.67.89,1.57,1.91,1.24.68-.22,1.6-.89,1.27-1.9C205.06,641.19,204.05,640.4,203.37,640.62Z"/><path class="a" d="M186.74,619.57a3.21,3.21,0,1,0,3.87,2.49A3.47,3.47,0,0,0,186.74,619.57Z"/><path class="a" d="M172,600.89c-.68.22-1.25.78-1,1.45s.78,1.24,1.46,1,1.25-.78,1-1.45S172.79,601,172,600.89Z"/><path class="a" d="M158,579.76c-.69.23-.92.67-1,1.46.22.67.67.9,1.46,1,.68-.22.91-.66,1-1.45C159.22,580.09,158.77,579.86,158,579.76Z"/><path class="a" d="M145.31,558.16a.71.71,0,1,0,.9.45A.75.75,0,0,0,145.31,558.16Z"/><path class="a" d="M133.79,535.45a.71.71,0,1,0,.9.45Z"/><path class="a" d="M123.61,512.3a.71.71,0,1,0,.9.45A.78.78,0,0,0,123.61,512.3Z"/><path class="a" d="M63.52,369h0c-.23.45-.23.45.22.67Z"/><path class="a" d="M62.67,343.24a.71.71,0,1,0,.9.45A.75.75,0,0,0,62.67,343.24Z"/><path class="a" d="M63.52,318c-.35.11-.69.22-.58.56s.22.67.56.56.68-.22.57-.56C64.31,318.12,63.86,317.9,63.52,318Z"/><path class="a" d="M117.7,123.08h0c-.23.45.11.34.11.34Z"/><path class="a" d="M797.27,752.76a2.11,2.11,0,0,0-1.86,2.33s0,.09,0,.13a2.09,2.09,0,0,0,2.3,1.84l.17,0a2.16,2.16,0,0,0-.45-4.3l-.18,0Z"/><path class="a" d="M774.72,765.66c-1,.33-1.82,1.34-1.61,2,.33,1,1.34,1.8,2,1.58,1-.33,1.83-1.34,1.61-2C776.75,766.12,775.85,765.66,774.72,765.66Z"/><path class="a" d="M751.74,777.22c-.69.23-1.6.89-1.27,1.91.22.67.89,1.57,1.91,1.24.68-.22,1.59-.89,1.27-1.9A1.83,1.83,0,0,0,751.74,777.22Z"/><path class="a" d="M728.42,787.76c-.68.22-1.25.78-1,1.45s.78,1.24,1.46,1,1.25-.78,1-1.45S729.1,787.56,728.42,787.76Z"/><path class="a" d="M704.22,796.76c-.68.22-1.25.78-1,1.45s.77,1.24,1.46,1,1.25-.78,1-1.45S704.9,796.54,704.22,796.76Z"/><path class="a" d="M553.3,823.82c-.34.11-.23.44,0,0-.23.44-.12.78.22.67Z"/><path class="a" d="M527.61,823.6c-.34.11-.23.44,0,0-.23.44-.12.78.22.67Z"/><path class="a" d="M501.94,822.25h0c-.23.45.11.34.11.34S502.39,822.48,501.94,822.25Z"/><path class="a" d="M476.51,819.34h0c-.23.45.11.34.11.34Z"/><path class="a" d="M377.11,792.76c-.68.22-1.6.89-1.27,1.9.22.67.89,1.57,1.91,1.24.68-.22,1.6-.89,1.27-1.9A2.36,2.36,0,0,0,377.11,792.76Z"/><path class="a" d="M353.77,784.76c-.34.11-.34.11-.23.44s.11.34.45.23.34-.11.23-.45a.34.34,0,0,0-.42-.23Z"/><path class="a" d="M330.24,773.76c-.34.11-.68.22-.57.55s.22.68.56.57.68-.22.57-.56C331,773.85,330.61,773.62,330.24,773.76Z"/><path class="a" d="M307.61,762.09c-.34.11-.34.11-.23.44s.11.34.45.23.34-.11.23-.45a.34.34,0,0,0-.42-.23Z"/><path class="a" d="M188.47,667.81h0c-.23.45-.12.78.22.67Z"/><path class="a" d="M171.49,648c-.34.11-.91.67-.8,1s.66.9,1,.79.91-.67.8-1C172.61,648,172.17,647.76,171.49,648Z"/><path class="a" d="M155.76,627.4c-.68.22-1.26.78-1,1.46s.78,1.23,1.46,1,1.26-.78,1-1.45A1.91,1.91,0,0,0,155.76,627.4Z"/><path class="a" d="M141.27,607.15c-.34.11-.91.67-.81,1s.67.9,1,.79.92-.67.81-1C142.06,607.27,141.61,607,141.27,607.15Z"/><path class="a" d="M128,586.12h0c-.23.45-.12.79.22.68Z"/><path class="a" d="M785.61,793.41c-.34.11-.68.22-.57.56s.22.67.56.56.68-.22.57-.56C786.41,793.52,786,793.3,785.61,793.41Z"/><path class="a" d="M762.53,804.64c-.35.11-.69.22-.58.56s.22.67.56.56.68-.22.58-.56C763.32,804.76,762.87,804.53,762.53,804.64Z"/><path class="a" d="M739.1,814.86c-.34.11-.23.44,0,0-.23.44-.12.78.22.67Z"/><path class="a" d="M538.29,851.76c-.68.22-.92.67-.81,1,.22.67.67.9,1,.79.68-.22.92-.67.81-1C539.42,851.76,539,851.57,538.29,851.76Z"/><path class="a" d="M512.72,850.76c-.68.22-.91.67-.8,1,.22.68.67.9,1,.79.68-.22.91-.67.8-1C513.85,850.76,513.06,850.68,512.72,850.76Z"/><path class="a" d="M487.28,849c-.34.12-.23.45,0,0-.23.45-.12.79.22.68Z"/><path class="a" d="M363.13,819.3h0c-.24.45.11.34.11.34Z"/><path class="a" d="M316.05,798.46c-.34.11-.68.22-.57.56s.22.67.56.56.68-.22.57-.56C316.84,798.58,316.39,798.35,316.05,798.46Z"/><path class="a" d="M293.54,787.15h0c-.23.45.11.34.11.34S294,787.38,293.54,787.15Z"/><path class="a" d="M271.61,774.16h0c-.23.44.11.33.11.33S272,774.05,271.61,774.16Z"/><path class="a" d="M250.39,759.82h0c-.23.45-.13.79.22.68a.5.5,0,0,0-.19-.67Z"/><path class="a" d="M191.39,711.56h0C191.05,711.67,191.16,712,191.39,711.56Z"/><path class="a" d="M155.92,674.29c-.34.11-.34.11-.57.56.11.33.11.33.56.56.34-.11.34-.11.57-.56S156.37,674.51,155.92,674.29Z"/><path class="a" d="M139.85,653.81a1.46,1.46,0,1,0,1.57,1.35,1.24,1.24,0,0,0-1.07-1.39A1.2,1.2,0,0,0,139.85,653.81Z"/><path class="a" d="M125,633.66c-.34.12-.91.67-.8,1s.67.9,1,.79.91-.67.8-1S125.36,633.55,125,633.66Z"/><path class="a" d="M111,612.52c-.34.11-.91.67-.8,1s.67.9,1,.79.91-.67.8-1C111.79,612.63,111.34,612.41,111,612.52Z"/><path class="a" d="M98.1,591.38h0C97.87,591.82,98.21,591.71,98.1,591.38Z"/><path class="a" d="M5.53,352.86h0C5.64,353.2,5.88,352.75,5.53,352.86Z"/><path class="a" d="M523.38,880.11c-.34.11-.34.11-.57.55.11.34.11.34.56.57.34-.11.34-.11.57-.56S523.72,880,523.38,880.11Z"/><path class="a" d="M257.32,798.55h0c-.23.44-.23.44.22.67,0,0,.34-.11-.22-.67C257.77,798.76,257.66,798.44,257.32,798.55Z"/><path class="a" d="M215.54,769.65h0C215.31,770.1,215.65,770,215.54,769.65Z"/><path class="a" d="M195.68,753.76h0C195.45,754.21,195.79,754.1,195.68,753.76Z"/><path class="a" d="M158,719.05h0c-.23.45.11.33.11.33.45.23.34-.11-.11-.33C158.49,719.27,158.38,718.94,158,719.05Z"/><path class="a" d="M124.4,680.43a.77.77,0,0,0-.46.9.71.71,0,0,0,1.36-.44Z"/><path class="a" d="M108.45,659.17a2.15,2.15,0,1,0,2.47,1.8,1.79,1.79,0,0,0-1.64-1.93A1.81,1.81,0,0,0,108.45,659.17Z"/><path class="a" d="M94.29,639.93c-.34.11-.34.11-.58.55.11.34.11.34.56.57.34-.11.34-.11.58-.56C94.74,640.15,94.61,639.82,94.29,639.93Z"/><path class="a" d="M80.83,618.22c-.34.11-.34.11-.57.56.11.34.11.34.56.56.34-.11.34-.11.57-.56A1.26,1.26,0,0,0,80.83,618.22Z"/><path class="a" d="M143.28,744.33c-.34.11-.34.11-.23.45s.11.34.45.23.34-.11.23-.45Z"/><path class="a" d="M125.71,726.2c-.34.11-.34.11-.23.45s.11.33.45.22.34-.11.23-.44Z"/><path class="a" d="M108.94,707.06h0c-.23.45-.12.79.22.67Z"/><path class="a" d="M92.87,686.58c-.68.22-.91.67-1,1.45.22.68.67.9,1.46,1,.68-.22.91-.67,1-1.46C94.11,686.92,93.55,686.36,92.87,686.58Z"/><path class="a" d="M77.61,665.09A2,2,0,1,0,80,666.63a.64.64,0,0,0,0-.07A2.63,2.63,0,0,0,77.61,665.09Z"/><path class="a" d="M63.61,645.07c-.34.11-.91.67-.8,1s.67.9,1,.79.91-.67.8-1C64.8,645.41,64.24,644.84,63.61,645.07Z"/><path class="a" d="M110.72,751.93h0c-.24.45.11.34.11.34Z"/><path class="a" d="M93.38,733.35h0c-.23.45.11.34.11.34C93.83,733.58,93.83,733.58,93.38,733.35Z"/><path class="a" d="M77.08,713.32a.71.71,0,1,0,.34,1.38l.09,0a.77.77,0,0,0,.47-.9A.75.75,0,0,0,77.08,713.32Z"/><path class="a" d="M61.47,691.94c-.68.22-1.6.89-1.27,1.9.22.68.89,1.58,1.91,1.24.68-.22,1.6-.89,1.27-1.9A2.36,2.36,0,0,0,61.47,691.94Z"/><path class="a" d="M47.09,672c-.34.11-.92.67-.81,1s.67.9,1,.79.92-.67.81-1C48.22,672,47.77,671.76,47.09,672Z"/><path class="a" d="M33.51,651.11h0c-.23.44-.12.78.22.67a.47.47,0,0,0-.19-.65Z"/><path class="a" d="M45.55,719.46c-.34.11-.68.22-.57.56s.22.68.56.56.68-.22.57-.55S45.89,719.35,45.55,719.46Z"/><path class="a" d="M30.84,698.54c-.34.11-.91.67-.8,1s.67.9,1,.79.91-.67.8-1S31.18,698.43,30.84,698.54Z"/><path class="a" d="M.21,705.14h0C-.13,705.25,0,705.58.21,705.14Z"/></svg>