<svg xmlns="http://www.w3.org/2000/svg" viewBox="0 0 805.86 881.23"><path d="M547.88 336.46a6.27 6.27 0 1 0 7.3 5.08 6.55 6.55 0 0 0-7.3-5.08Zm-28.27 4.7c-3.18.66-5.59 3.68-4.94 6.82a6 6 0 0 0 6.85 4.85c3.17-.66 5.58-3.67 4.94-6.82-.26-3.25-3.53-5.17-6.85-4.85Zm7.3-22.85c-3.17.66-5.35 3.23-4.7 6.37s3.22 5.29 6.4 4.63a5.7 5.7 0 0 0 4.7-6.37 5.19 5.19 0 0 0-5.59-4.76 4.55 4.55 0 0 0-.81.13Zm22.97-9.31a5.56 5.56 0 1 0 6.4 4.62 5.21 5.21 0 0 0-5.62-4.75 7 7 0 0 0-.78.13Zm21.59 12a5.56 5.56 0 1 0 6.4 4.63 5.19 5.19 0 0 0-5.59-4.76 4.55 4.55 0 0 0-.81.13Zm3.82 23.31a6.27 6.27 0 1 0 7.3 5.08 6.87 6.87 0 0 0-7.3-5.08Zm-16.95 18.55a6.27 6.27 0 1 0 1.7 12.42l.43-.07c3.52-.77 5.92-3.79 5.17-7.27a5.93 5.93 0 0 0-6.57-5.21 5.86 5.86 0 0 0-.73.13Zm-24.54-1.34c-3.18.66-5.59 3.68-4.94 6.82a6 6 0 0 0 6.85 4.85c3.17-.65 5.58-3.67 4.94-6.82a5.76 5.76 0 0 0-6.5-4.91Zm-42.38-15.66a5.92 5.92 0 1 0 6.85 4.85 6.26 6.26 0 0 0-6.85-4.85Zm1.74-24.78c-3.17.66-5.35 3.23-4.71 6.38s3.23 5.28 6.4 4.62a5.7 5.7 0 0 0 4.76-6.32 5.19 5.19 0 0 0-5.53-4.83 4.77 4.77 0 0 0-.92.15ZM506 299c-3.17.66-5.35 3.23-4.71 6.37s3.23 5.29 6.4 4.63 5.36-3.23 4.71-6.37A5.65 5.65 0 0 0 506 299Zm20.94-14.24a5.36 5.36 0 1 0 6.29 4.28 5.5 5.5 0 0 0-6.29-4.28Zm25.16-3.69a5 5 0 1 0 5.84 4.06 5.3 5.3 0 0 0-5.84-4.06Zm24.25 7.39a5 5 0 0 0-4.24 5.48 5.1 5.1 0 1 0 4.63-5.53Zm18.84 16.24a5.56 5.56 0 1 0 6.4 4.62 5.69 5.69 0 0 0-6.4-4.62Zm9.47 23.37a5.56 5.56 0 1 0 6.4 4.62 5.69 5.69 0 0 0-6.4-4.62ZM602.61 353c-3.17.66-5.58 3.67-4.94 6.82a6 6 0 0 0 6.85 4.85c3.18-.66 5.59-3.68 4.94-6.82a5.53 5.53 0 0 0-6-5 6 6 0 0 0-.85.15Zm-12.49 21.89c-3.17.66-5.58 3.67-4.94 6.82a6 6 0 0 0 6.85 4.85c3.18-.66 5.59-3.68 4.94-6.82a6 6 0 0 0-6.85-4.85ZM569 389.94a5.36 5.36 0 1 0 .17 0Zm-24.92 4.38a5 5 0 1 0 5.84 4.06 4.93 4.93 0 0 0-5.66-4.09Zm-24.36-7.73a5.56 5.56 0 1 0 6.4 4.62c-.65-3.14-3.23-5.28-6.4-4.62ZM501 369.57a5.56 5.56 0 1 0 6.4 4.63 5.7 5.7 0 0 0-6.4-4.63Zm-37.81-19.01c-3.17.66-5.58 3.68-4.94 6.82a6 6 0 0 0 6.85 4.86c3.18-.66 5.59-3.68 4.94-6.82a6 6 0 0 0-6.85-4.86Zm-.06-25.68c-3.17.66-5.58 3.68-4.94 6.82a6 6 0 0 0 6.85 4.85c3.18-.66 5.59-3.68 4.94-6.82a6.21 6.21 0 0 0-6.85-4.85Zm7.39-23.63a5.56 5.56 0 1 0 6.4 4.62 5.19 5.19 0 0 0-5.6-4.75 5.34 5.34 0 0 0-.8.13Zm14.15-21.37a5.72 5.72 0 0 0-4.71 6.38 5.62 5.62 0 0 0 11.11-1.75c-.19-2.92-3.07-4.95-6.4-4.63ZM504.76 264a5.56 5.56 0 1 0 6.4 4.63 5.85 5.85 0 0 0-6.4-4.63Zm23.64-9.5a5.56 5.56 0 1 0 6.4 4.62 5.79 5.79 0 0 0-6.4-4.62Zm25.82-1.69a5 5 0 1 0 5.84 4.07 5.17 5.17 0 0 0-5.84-4.07Zm24.84 5.72a4.84 4.84 0 1 0 5.84 4.06 5 5 0 0 0-5.78-4.07Zm22.15 12.54a5 5 0 0 0-3.9 5.37c.42 2.47 2.78 3.94 5.39 3.84a5 5 0 0 0 3.9-5.37 4.77 4.77 0 0 0-5.39-3.84Zm17.68 18.47a4.79 4.79 0 0 0-3.9 5.37c.42 2.47 2.78 3.94 5.39 3.84a5 5 0 0 0 3.9-5.37c-.77-2.38-2.89-4.27-5.39-3.84ZM630 312a4.67 4.67 0 1 0 5.39 3.84A4.81 4.81 0 0 0 630 312Zm3.77 24.49a5.36 5.36 0 1 0 6.29 4.29 5.51 5.51 0 0 0-6.29-4.29Zm-3.88 23.99a6.26 6.26 0 1 0 7.3 5.07 6.56 6.56 0 0 0-7.3-5.07ZM619 383.76c-3.17.66-5.58 3.68-4.94 6.82a6 6 0 0 0 6.85 4.85c3.18-.66 5.59-3.68 4.94-6.82a6.21 6.21 0 0 0-6.85-4.85Zm-17.08 19.33a5.36 5.36 0 1 0 6.29 4.29 6.07 6.07 0 0 0-6.29-4.29Zm-22.1 13.14a5 5 0 1 0 5.84 4.06 5.3 5.3 0 0 0-5.84-4.06Zm-25.07 6.28a5 5 0 1 0 .17 0Zm-25.45-1.75a5 5 0 1 0 5.84 4.07 5.1 5.1 0 0 0-5.84-4.07Zm-23.69-9.11a5 5 0 1 0 5.84 4.06c-.4-2.47-3.21-4.16-5.84-4.06Zm-20.28-16.13a5.92 5.92 0 1 0 6.85 4.86 6 6 0 0 0-6.85-4.86ZM471 374.49a5.91 5.91 0 1 0 6.85 4.85 6.27 6.27 0 0 0-6.85-4.85Zm-36.26-19.9a6.27 6.27 0 1 0 7.3 5.08c-.3-3.25-3.67-5.51-7.3-5.08Zm-1.08-25.35a6.27 6.27 0 1 0 7.3 5.08 6.54 6.54 0 0 0-7.3-5.08Zm4.95-24.32c-3.18.66-5.36 3.23-4.71 6.37s3.22 5.29 6.4 4.63a5.71 5.71 0 0 0 4.71-6.37 6.12 6.12 0 0 0-6.4-4.63Zm10.17-23.06a5.36 5.36 0 1 0 6.29 4.29 5.51 5.51 0 0 0-6.29-4.29Zm14.94-21.25a5.92 5.92 0 1 0 6.85 4.86 6.22 6.22 0 0 0-6.85-4.86Zm19.53-16.4a5.56 5.56 0 1 0 6.4 4.63 5.85 5.85 0 0 0-6.4-4.63Zm22.54-11.79a5.21 5.21 0 1 0 5.95 4.4 5.5 5.5 0 0 0-5.95-4.4Zm24.62-6.51a4.87 4.87 0 1 0 5.45 4.21 2.32 2.32 0 0 0-.06-.38c.03-2.24-2.55-4.38-5.39-3.83Zm25.59-1.24a5.4 5.4 0 0 0-4.24 5.48 5.34 5.34 0 0 0 5.5 4.17 4.79 4.79 0 0 0 3.9-5.37c.26-2.69-2.16-4.49-5.16-4.28Zm25.19 4.48a5.41 5.41 0 0 0-4.25 5.48 4.92 4.92 0 0 0 9.75-1.3c-.2-2.92-2.56-4.39-5.5-4.18Zm23.54 9.85a4.79 4.79 0 0 0-3.9 5.37 5.34 5.34 0 0 0 5.5 4.17 5.4 5.4 0 0 0 4.24-5.48 5.3 5.3 0 0 0-5.84-4.06Zm20.77 15.24a5 5 0 0 0-3.91 5.37c.43 2.47 2.79 3.94 5.39 3.83a5 5 0 0 0 3.91-5.36 4.74 4.74 0 0 0-5.39-3.84Zm16.88 19.52a4.31 4.31 0 1 0 4.94 3.61 4.21 4.21 0 0 0-4.71-3.65Zm11.76 21.09a5.85 5.85 0 0 0-4.71 6.38 5.62 5.62 0 0 0 11.11-1.75 5.19 5.19 0 0 0-5.59-4.76 4.55 4.55 0 0 0-.81.13Zm6.86 23.47a6.27 6.27 0 1 0 7.3 5.08 6.41 6.41 0 0 0-7.3-5.08Zm1.09 25.36a6.26 6.26 0 1 0 7.3 5.08 6.86 6.86 0 0 0-7.3-5.08Zm-4.68 24.99a6.27 6.27 0 1 0 7.3 5.08 6.41 6.41 0 0 0-7.3-5.08Zm-10.1 23.4a6.26 6.26 0 1 0 7.3 5.08 6.41 6.41 0 0 0-7.3-5.08ZM632 412.3a6.83 6.83 0 0 0-5.75 7.76v.07a6.89 6.89 0 0 0 13.6-2.19c-.85-3.81-4.3-6.41-7.85-5.64Zm-18.95 18.09a5.36 5.36 0 1 0 6.29 4.29 5.5 5.5 0 0 0-6.29-4.29Zm-22.64 11.46c-3.18.66-5.59 3.67-4.94 6.82a6 6 0 0 0 6.85 4.85c3.17-.66 5.58-3.68 4.94-6.82a6 6 0 0 0-6.85-4.85Zm-24.86 6.96a5.56 5.56 0 1 0 6.4 4.62c-.2-2.91-3.12-4.95-6.4-4.62Zm-25.37 1.95a5.21 5.21 0 1 0 6 4.4c-.7-3.16-3.18-4.99-6-4.4Zm-25.08-4.19a5 5 0 1 0 6 4.4c-1.03-3.03-3.49-4.84-6-4.4Zm-23.65-10.19a5 5 0 1 0 5.84 4.06c-.43-2.44-3.24-4.17-5.84-4.06Zm-20.66-14.9a5.22 5.22 0 1 0 5.95 4.4 5.21 5.21 0 0 0-5.95-4.4ZM453.92 402a5.56 5.56 0 1 0 6.4 4.62 5.69 5.69 0 0 0-6.4-4.62Zm-12.21-22.48a5.56 5.56 0 1 0 6.4 4.63c-.19-2.92-3.11-4.95-6.4-4.63Zm-34.96-20.67a6.46 6.46 0 1 0 7.41 5.41 6.69 6.69 0 0 0-7.41-5.41ZM405 333.76a6.27 6.27 0 1 0 7.3 5.08 6.87 6.87 0 0 0-7.3-5.08Zm3-24.48a5.56 5.56 0 1 0 6.4 4.62 5.21 5.21 0 0 0-5.62-4.75 7 7 0 0 0-.78.13Zm7.61-24.08a5 5 0 1 0 5.84 4.06 5.29 5.29 0 0 0-5.84-4.06Zm11.54-22.39a5 5 0 1 0 5.84 4.07 5.11 5.11 0 0 0-5.84-4.07Zm15.62-21.47c-3.18.66-5.58 3.68-4.94 6.83a6 6 0 0 0 6.85 4.85c3.18-.66 5.58-3.68 4.94-6.82a6.44 6.44 0 0 0-6.85-4.86Zm18.96-15.84a5 5 0 0 0-4.25 5.48 4.92 4.92 0 0 0 5.62 4.1h.22a5 5 0 0 0 4.29-5.48 4.93 4.93 0 0 0-5.62-4.11Zm22.08-12.02a3.54 3.54 0 0 0-2.87 3.91 3.44 3.44 0 1 0 6.8-1.09 3.32 3.32 0 0 0-3.73-2.85Zm23.65-9.54a3.41 3.41 0 1 0 3.93 2.82 3.25 3.25 0 0 0-3.61-2.87Zm25.29-5.62a3.41 3.41 0 1 0 3.93 2.83 3.54 3.54 0 0 0-3.93-2.83Zm25.59-1.23a4.31 4.31 0 1 0 4.94 3.61 4.42 4.42 0 0 0-4.94-3.61Zm25.2 3.36a5 5 0 1 0 5.84 4.06c-.88-2.69-3.38-4.51-5.84-4.06Zm24.13 8.18a5 5 0 1 0 6 4.4c-1.06-3.03-3.51-4.84-6-4.4Zm22.26 12.88a4.46 4.46 0 0 0-3.67 4.92 4.41 4.41 0 0 0 4.94 3.57 4.46 4.46 0 0 0 3.67-4.92 4.33 4.33 0 0 0-4.94-3.57Zm19.52 16.01a5 5 0 0 0-3.91 5.37c.43 2.47 2.79 3.93 5.39 3.83a4.78 4.78 0 0 0 3.91-5.36c-.43-2.47-2.79-3.94-5.39-3.84ZM666 257.11a5 5 0 0 0-3.9 5.36c.42 2.47 2.78 3.94 5.39 3.84a4.79 4.79 0 0 0 3.9-5.37c-.78-2.36-2.91-4.27-5.39-3.83Zm12.42 22.03a4.66 4.66 0 1 0 5.39 3.84 4.81 4.81 0 0 0-5.39-3.84Zm8.24 21.91a6.31 6.31 0 0 0-5.57 7l.06.41a6.53 6.53 0 1 0 5.54-7.39Zm3.48 23.46a8.42 8.42 0 1 0 9.77 6.88 8.42 8.42 0 0 0-9.77-6.88Zm-.14 27.25a6 6 0 0 0-5.28 6.65c0 .21.06.41.11.62.75 3.48 3.78 5.85 7.3 5.08a6 6 0 0 0 5.28-6.65c0-.21-.06-.41-.11-.62a6.87 6.87 0 0 0-7.3-5.08Zm-5.19 25.89a5.36 5.36 0 1 0 6.29 4.29 5.51 5.51 0 0 0-6.29-4.29Zm-9.76 23.28a5.56 5.56 0 1 0 6.4 4.63 5.35 5.35 0 0 0-5.94-4.7 3.4 3.4 0 0 0-.46.07Zm-14.34 17.33a10.29 10.29 0 0 0-8.38 11.29c.62 5.39 5.9 8.89 11.34 8.24a10.31 10.31 0 0 0 8.38-11.3c-.62-5.38-5.9-8.88-11.34-8.23Zm-16.86 21.12a7.72 7.72 0 1 0 8.87 6.44 7.72 7.72 0 0 0-8.87-6.44ZM623.31 455a7.72 7.72 0 1 0 8.87 6.43c-.74-4.6-4.67-7.43-8.87-6.43Zm-22.87 10.76a8.84 8.84 0 1 0 .08 0Zm-24.2 9a6.82 6.82 0 1 0 7.86 5.64c-.86-3.81-4.34-6.4-7.86-5.64Zm-25.39 4.15c-3.18.66-5.36 3.23-4.71 6.38s3.22 5.28 6.4 4.62 5.35-3.23 4.71-6.37-3.25-5.28-6.4-4.63Zm-25.68-1.34a5 5 0 1 0 5.84 4.06 5.3 5.3 0 0 0-5.84-4.06Zm-24.56-6.16a5 5 0 1 0 5.84 4.06c-.45-2.47-3.27-4.16-5.84-4.06Zm-23.35-10.31a5 5 0 1 0 5.84 4.06 5.11 5.11 0 0 0-5.84-4.06ZM456 446.76a5 5 0 1 0 5.84 4.06c-.06-2.57-2.98-4.6-5.84-4.06Zm-18-18.35a5.56 5.56 0 1 0 6.4 4.62 5.84 5.84 0 0 0-6.4-4.62Zm-14.58-21.71a6.26 6.26 0 1 0 7.3 5.08 6.86 6.86 0 0 0-7.3-5.08Zm-10.5-23.04a6.27 6.27 0 1 0 7.3 5.08 6.87 6.87 0 0 0-7.3-5.08ZM378.29 364c-3.18.66-5.59 3.67-5 6.82a6 6 0 0 0 6.85 4.85c3.18-.66 5.59-3.68 4.95-6.82s-3.29-5.62-6.8-4.85Zm-1.77-25.14a5.92 5.92 0 1 0 6.85 4.86 6 6 0 0 0-6.85-4.86Zm1.64-25.1a5.56 5.56 0 1 0 6.4 4.62 5.56 5.56 0 0 0-6.4-4.62Zm5.58-24.55a5.51 5.51 0 0 0-4.48 5.92 5.27 5.27 0 1 0 10.43-1.52c-.19-2.92-3-4.61-5.95-4.4Zm9.63-21.38a2.86 2.86 0 1 0 3.37 2.25c-.13-1.45-1.56-2.47-3.37-2.25Zm12.8-22.07a2.63 2.63 0 0 0-2.39 2.85 2.1 2.1 0 0 0 .09.5 2.89 2.89 0 1 0 2.33-3.36ZM421.69 224a5 5 0 0 0-3.91 5.37 4.77 4.77 0 0 0 5.39 3.84 5 5 0 0 0 3.91-5.37 4.77 4.77 0 0 0-5.39-3.84ZM441 208a3.06 3.06 0 1 0 3.48 2.59c-.56-1.65-2.13-3.01-3.48-2.59Zm20.85-14.58a3 3 0 0 0-2.66 3.3 1 1 0 0 0 0 .17 3.09 3.09 0 1 0 2.65-3.47Zm23.21-10.89a2.7 2.7 0 1 0 3 2.37c-.18-1.8-1.64-2.81-3-2.37Zm24.55-6.85a1.81 1.81 0 1 0 2 1.6 1.55 1.55 0 0 0-1.47-1.64 1.57 1.57 0 0 0-.53.04Zm25.39-4.15c-1 .33-1.59.89-1.27 1.9s.89 1.57 1.91 1.24 1.6-.89 1.27-1.9a1.81 1.81 0 0 0-1.91-1.24Zm25.23-2.25a3.76 3.76 0 1 0 4.38 3 3.68 3.68 0 0 0-4.25-3Zm25.21 2.24a5 5 0 1 0 5.84 4.06 5.11 5.11 0 0 0-5.84-4.06Zm24.56 7.24a5.18 5.18 0 1 0 .07 0Zm23.22 11.13a4.81 4.81 0 0 0-3.91 5.37 4.71 4.71 0 1 0 3.94-5.37Zm21.39 14.68a4.11 4.11 0 1 0 4.83 3.27 4.27 4.27 0 0 0-4.83-3.27Zm18.89 16.57a4.31 4.31 0 1 0 4.94 3.61 4.62 4.62 0 0 0-4.94-3.61Zm15.75 19.47a4.87 4.87 0 1 0 5.5 4.17 4.46 4.46 0 0 0-4.62-4.29 4.34 4.34 0 0 0-.88.12Zm12.89 21.15a5.56 5.56 0 1 0 6.4 4.62 5.56 5.56 0 0 0-6.4-4.62Zm9.47 22.24a6.81 6.81 0 1 0 7.86 5.64 7.33 7.33 0 0 0-7.86-5.64Zm5.31 23.24a8.42 8.42 0 1 0 9.77 6.88 8.42 8.42 0 0 0-9.77-6.88Zm2.22 25.35a8.42 8.42 0 1 0 9.77 6.89 8.42 8.42 0 0 0-9.77-6.89Zm-1.76 25.91a7.84 7.84 0 1 0 .07 0Zm-5.27 26.67c-3.17.66-5.58 3.67-4.94 6.82a6 6 0 0 0 6.85 4.85c3.18-.66 5.59-3.68 4.94-6.82a6 6 0 0 0-6.85-4.85ZM703 409.35a5.37 5.37 0 1 0 6.29 4.29 5.51 5.51 0 0 0-6.29-4.29Zm-13 21.41a6.27 6.27 0 1 0 7.3 5.08 6 6 0 0 0-6.72-5.18 5.86 5.86 0 0 0-.58.1Zm-16.46 15.37a10.78 10.78 0 1 0 12.35 9 10.93 10.93 0 0 0-12.35-9Zm-18.23 21.57a6.82 6.82 0 1 0 7.86 5.64 7.35 7.35 0 0 0-7.86-5.64ZM634 481a8.07 8.07 0 1 0 9.32 6.66A8.28 8.28 0 0 0 634 481Zm-22.55 12.87a6.48 6.48 0 0 0-5.52 7.32v.06c.41 3.59 3.78 5.84 7.41 5.41a6.47 6.47 0 0 0 5.52-7.3v-.08c-.75-3.52-3.86-6.18-7.41-5.41Zm-24.45 8.3c-3.17.66-5.58 3.68-4.94 6.83a6 6 0 0 0 6.85 4.85c3.18-.66 5.59-3.68 4.94-6.82a6 6 0 0 0-6.85-4.86Zm-25.25 4.49c-3.18.66-5.36 3.23-4.71 6.38s3.22 5.28 6.4 4.62 5.35-3.23 4.71-6.37a5.68 5.68 0 0 0-6.4-4.63Zm-25.92.23a5.56 5.56 0 1 0 6.4 4.63 5.19 5.19 0 0 0-5.59-4.76 5.69 5.69 0 0 0-.81.13Zm-25.42-4.03c-3.17.65-5.58 3.67-4.94 6.82a6 6 0 0 0 6.85 4.85c3.18-.66 5.59-3.68 4.94-6.82-.26-3.26-3.56-5.18-6.85-4.85Zm-24.48-6.95c-3.17.66-5.58 3.68-4.94 6.82a6 6 0 0 0 6.85 4.85c3.18-.66 5.59-3.68 4.94-6.82a5.74 5.74 0 0 0-6.48-4.91 2.38 2.38 0 0 0-.37.06Zm-22.86-10.08a5 5 0 1 0 5.84 4.06 5.38 5.38 0 0 0-5.84-4.06Zm-21.46-13.89a5 5 0 0 0-4.25 5.48 4.92 4.92 0 0 0 5.62 4.1h.22a5 5 0 0 0 4.25-5.48 4.92 4.92 0 0 0-5.62-4.1Zm-18.71-17.02a5 5 0 1 0 6 4.4c-.7-3.14-3.17-4.94-6-4.4Zm-16.2-19.69a5 5 0 1 0 5.61 4.53c-.31-3.28-2.77-5.08-5.61-4.53Zm-13.09-22.94a6.25 6.25 0 0 0-4.94 6.82 6 6 0 1 0 5-6.83Zm-9.49-23.37a5.91 5.91 0 1 0 6.85 4.85 5.74 5.74 0 0 0-6.48-4.91 2.38 2.38 0 0 0-.37.06Zm-34.38-22.35a7.83 7.83 0 1 0 .05 0Zm-2.13-23.9a6.47 6.47 0 1 0 7.41 5.41 6.4 6.4 0 0 0-7.26-5.43Zm1.29-23.91a5.22 5.22 0 1 0 6 4.4 4.85 4.85 0 0 0-5.16-4.52 5.19 5.19 0 0 0-.84.12Zm4.71-23.85a3.76 3.76 0 1 0 4.38 3 4.28 4.28 0 0 0-4.38-3Zm7.15-25.43a5 5 0 1 0 5.61 4.51 4.86 4.86 0 0 0-5.14-4.56Zm10.85-21.04a2.51 2.51 0 1 0 2.92 2 2.71 2.71 0 0 0-2.92-2Zm13.6-20.8c-1 .33-1.6.89-1.27 1.9s.89 1.57 1.91 1.24 1.6-.89 1.27-1.9c-.22-.67-1.23-1.46-1.91-1.24Zm15.73-21.13c-1.47.1-2.51 1.56-2.3 3.35.1 1.46 1.56 2.48 3.37 2.26a2.78 2.78 0 0 0 2.33-3.16 1.08 1.08 0 0 0 0-.19c-.13-1.46-1.59-2.48-3.4-2.26Zm18.75-17.64a2.63 2.63 0 0 0-2.39 2.85 2.1 2.1 0 0 0 .09.5 2.49 2.49 0 0 0 3.37 2.26 2.63 2.63 0 0 0 2.4-2.84 3 3 0 0 0-.1-.52 3.4 3.4 0 0 0-3.37-2.25Zm20.65-15.28c-1.47.11-2.5 1.56-2.3 3.35.1 1.46 1.56 2.48 3.37 2.26 1.47-.1 2.51-1.56 2.3-3.35a3.41 3.41 0 0 0-3.37-2.26ZM462.67 160a4.11 4.11 0 1 0 4.83 3.28 4.59 4.59 0 0 0-4.83-3.28Zm24.07-7.07c-1 .33-1.6.89-1.27 1.9s.89 1.57 1.91 1.24 1.6-.89 1.27-1.9-.89-1.58-1.91-1.24Zm24.63-6.52c-1 .34-1.6.9-1.27 1.91s.89 1.57 1.91 1.24 1.59-.89 1.27-1.9c.12-.79-.89-1.58-1.91-1.25Zm25.72-3.14a2 2 0 0 0-1.38 1.57 1.48 1.48 0 0 0 2.95-.21c-.22-.63-.89-1.58-1.57-1.36Zm25.26-2.27a3.76 3.76 0 1 0 4.38 3 3.69 3.69 0 0 0-4.23-3Zm25.1 1.93a5 5 0 1 0 5.84 4.06 5.11 5.11 0 0 0-5.84-4.06Zm24.6 6.16a5.36 5.36 0 1 0 .17 0Zm24 10.08a5.4 5.4 0 0 0-4.25 5.48 4.74 4.74 0 0 0 5.39 3.84 5.42 5.42 0 0 0 4.25-5.48 4.77 4.77 0 0 0-5.39-3.84Zm22.15 12.59a5.42 5.42 0 0 0-4.25 5.48 4.76 4.76 0 0 0 5.39 3.83 5.38 5.38 0 0 0 4.27-5.51 4.27 4.27 0 0 0-5.41-3.8Zm20.54 15.64a4.31 4.31 0 1 0 4.94 3.61c-.07-2.58-2.45-4.01-4.94-3.61Zm18.48 17.46a4.46 4.46 0 0 0-3.67 4.92 4.41 4.41 0 0 0 4.93 3.61 4.46 4.46 0 0 0 3.68-4.92 4.17 4.17 0 0 0-4.62-3.66ZM712.85 224a5 5 0 1 0 5.84 4.06 5.29 5.29 0 0 0-5.84-4.06ZM726 245.81a5 5 0 1 0 5.84 4.06 5.11 5.11 0 0 0-5.84-4.06Zm10.36 22.7a5.56 5.56 0 1 0 6.4 4.63 5.7 5.7 0 0 0-6.4-4.63Zm7.09 24.15a5.91 5.91 0 1 0 6.85 4.85 5.74 5.74 0 0 0-6.48-4.91 2.38 2.38 0 0 0-.37.06Zm3.55 23.79a7.17 7.17 0 1 0 8.31 5.87 7.24 7.24 0 0 0-8.31-5.87Zm.34 24.12a8.42 8.42 0 1 0 9.77 6.88 8.6 8.6 0 0 0-9.77-6.88Zm-2.11 27.13a6.31 6.31 0 0 0-5.57 7l.06.41a6.54 6.54 0 1 0 12.92-2c-.41-3.59-3.78-5.84-7.41-5.41Zm-5.62 25.66a5.91 5.91 0 1 0 6.85 4.85c-.73-3.45-3.65-5.51-6.85-4.85Zm-9.07 24.19a5.36 5.36 0 1 0 6.29 4.29 5.5 5.5 0 0 0-6.29-4.29ZM718.61 440a5.56 5.56 0 1 0 6.4 4.63 5.65 5.65 0 0 0-6.4-4.63Zm-14.79 20.5a5.92 5.92 0 1 0 6.85 4.86 6 6 0 0 0-6.85-4.86Zm-17.63 18.77a5.91 5.91 0 1 0 6.85 4.85 6.25 6.25 0 0 0-6.85-4.85Zm-19.86 15.39a6.82 6.82 0 1 0 7.86 5.64c-.07-3.7-3.89-6.18-7.86-5.64ZM644.9 508.7a6.82 6.82 0 1 0 7.86 5.65c-.52-3.93-3.89-6.19-7.86-5.65Zm-23.09 11.23a6.47 6.47 0 1 0 7.41 5.42 6.47 6.47 0 0 0-7.41-5.42Zm-24.1 9.32a5.22 5.22 0 1 0 5.95 4.4 5.44 5.44 0 0 0-5.95-4.4Zm-25.28 4.51a5.56 5.56 0 1 0 6.4 4.63c-.54-2.83-3.57-5.2-6.4-4.63Zm-25.82 1.67a5.56 5.56 0 1 0 6.4 4.62c-.2-2.92-3.12-4.95-6.4-4.62ZM521.28 534a5.56 5.56 0 1 0 6.4 4.63 5.21 5.21 0 0 0-5.61-4.76 5.42 5.42 0 0 0-.79.13ZM496 529.15a5.71 5.71 0 0 0-4.71 6.37c.65 3.15 3.23 5.29 6.4 4.63s5.36-3.23 4.71-6.37a5.19 5.19 0 0 0-5.59-4.76 5.69 5.69 0 0 0-.81.13Zm-24-7.84a5.36 5.36 0 1 0 6.29 4.29 5.5 5.5 0 0 0-6.29-4.29Zm-23.12-10.75a5 5 0 1 0 5.84 4.06 4.93 4.93 0 0 0-5.66-4.09Zm-21.46-13.89a5 5 0 1 0 5.84 4.06 5.11 5.11 0 0 0-5.84-4.06Zm-19.52-16.01a5.39 5.39 0 0 0-4.24 5.47 4.74 4.74 0 0 0 5.39 3.84 5.4 5.4 0 0 0 4.24-5.48c-.08-2.58-2.55-4.38-5.39-3.83ZM390.91 462a4.66 4.66 0 1 0 5.39 3.83 4.79 4.79 0 0 0-5.39-3.83Zm-14.48-21.41a5.18 5.18 0 1 0 .07 0ZM364.24 417c-3.18.66-5.59 3.67-4.94 6.82a6 6 0 0 0 6.85 4.85c3.18-.66 5.58-3.68 4.94-6.82-.19-2.93-3.22-5.3-6.85-4.85Zm-8.45-23.71c-3.18.65-5.59 3.67-5 6.82a6 6 0 0 0 6.85 4.85c3.18-.66 5.59-3.68 4.95-6.82a5.74 5.74 0 0 0-6.48-4.91 2.38 2.38 0 0 0-.32.06Zm-34.18-21.69a7.72 7.72 0 1 0 8.87 6.44c-.73-4.61-4.66-7.43-8.87-6.44Zm-2.21-24.23a6.46 6.46 0 1 0 7.41 5.39 6.25 6.25 0 0 0-6.95-5.46Zm.48-24a4.78 4.78 0 0 0-3.9 5.36 5.34 5.34 0 0 0 5.5 4.18 5.4 5.4 0 0 0 4.24-5.48c-.42-2.43-3.23-4.16-5.84-4.06Zm3.73-22.08a1.81 1.81 0 1 0 2 1.6 1.55 1.55 0 0 0-1.47-1.64 1.57 1.57 0 0 0-.53.04Zm6.17-23.98c-.34.11-.91.67-.8 1s.67.9 1 .79.91-.67.8-1c.22-.45-.32-1.01-1-.79Zm8.65-25.55a2.51 2.51 0 1 0 2.92 2 2.68 2.68 0 0 0-2.92-2Zm11.45-22.7a2.51 2.51 0 1 0 2.92 2 2.28 2.28 0 0 0-2.46-2.09 3.73 3.73 0 0 0-.46.09ZM363.82 207a2.64 2.64 0 0 0-2.39 2.87 2.11 2.11 0 0 0 .09.49 2.89 2.89 0 0 0 5.67-1.1 3.42 3.42 0 0 0-3.37-2.26Zm16.06-20.1a3.41 3.41 0 1 0 3.93 2.86 3.55 3.55 0 0 0-3.93-2.86Zm18.3-17.9a3.41 3.41 0 1 0 3.93 2.83 3.26 3.26 0 0 0-3.6-2.88Zm20.74-12.66c-.34.11-.68.22-.58.56s.22.67.56.56.69-.22.58-.56c.23-.45-.22-.67-.56-.56Zm21.78-15.28a2.11 2.11 0 0 0-1.86 2.33v.13a2.09 2.09 0 0 0 2.3 1.84h.17a2.11 2.11 0 0 0 1.86-2.33v-.13c.01-1.14-1.34-1.83-2.47-1.84Zm23.21-12.01a3.71 3.71 0 0 0-3.21 4 3.65 3.65 0 1 0 3.26-4Zm24.4-6.05c-.68.22-1.25.78-1 1.45s.77 1.24 1.46 1 1.25-.78 1-1.46c.23-.44-.67-.89-1.46-.99Zm25.18-4.84a.76.76 0 0 0-.47.89.72.72 0 0 0 1.37-.44c-.11-.33-.45-.22-.9-.45Zm25.39-4.16a2.15 2.15 0 1 0 2.47 1.8c.01-1.11-1.35-1.8-2.47-1.8Zm25.73.23a2.15 2.15 0 1 0 2.47 1.8c-.03-1.12-1.38-1.8-2.47-1.8Zm25.07.77a4.79 4.79 0 0 0-3.91 5.37c.43 2.47 2.79 3.93 5.39 3.83a5 5 0 0 0 3.91-5.36 4.77 4.77 0 0 0-5.39-3.84Zm24.72 5.39a4.87 4.87 0 1 0 5.45 4.21 2.32 2.32 0 0 0-.06-.38c.03-2.22-2.44-4.04-5.39-3.83Zm24.21 8.51a5 5 0 1 0 5.84 4.07 5.4 5.4 0 0 0-5.84-4.07Zm22.88 11.2a5 5 0 0 0-4.25 5.48 5.08 5.08 0 0 0 10-1.75c-.34-2.13-3.15-3.83-5.75-3.73ZM683 154a4.67 4.67 0 0 0 1.06 9.28l.43-.07a5.4 5.4 0 0 0 4.24-5.48 4.76 4.76 0 0 0-5.63-3.73Zm20 16.57a4.31 4.31 0 1 0 4.94 3.61 4.17 4.17 0 0 0-4.62-3.66Zm17.94 18.02a4.31 4.31 0 1 0 4.94 3.61 4.17 4.17 0 0 0-4.62-3.66Zm15.4 19.58a5 5 0 1 0 5.53 4.4v-.23a4.47 4.47 0 0 0-4.65-4.29 4.15 4.15 0 0 0-.88.12Zm13.27 21.03a5.36 5.36 0 1 0 6.29 4.29 5.29 5.29 0 0 0-6.1-4.33Zm10.8 22.93a5.36 5.36 0 1 0 6.29 4.29c-.53-2.81-3-4.61-6.29-4.29Zm8.2 24.15a5.21 5.21 0 1 0 6 4.4 5.5 5.5 0 0 0-6-4.4Zm5.31 24.36a5.91 5.91 0 1 0 6.85 4.85 6 6 0 0 0-6.85-4.85Zm2.55 25.25a5.91 5.91 0 1 0 6.85 4.85 6 6 0 0 0-6.85-4.85Zm-.38 24.33a6.82 6.82 0 1 0 7.86 5.64 7.33 7.33 0 0 0-7.86-5.64Zm-3.01 26.68a5.85 5.85 0 0 0-4.71 6.38 5.62 5.62 0 1 0 4.71-6.38Zm-6.16 25.1a5.22 5.22 0 1 0 6 4.4 5.22 5.22 0 0 0-6-4.4Zm-8.85 23.76a5.36 5.36 0 1 0 6.29 4.29 5.51 5.51 0 0 0-6.29-4.29Zm-11.35 23a5 5 0 1 0 5.89 4.1 5.39 5.39 0 0 0-5.89-4.1Zm-13.92 21c-3.17.66-5.35 3.23-4.71 6.38s3.23 5.28 6.4 4.62 5.36-3.23 4.71-6.37a5.65 5.65 0 0 0-6.4-4.63Zm-16.29 20.52a4.87 4.87 0 1 0 5.5 4.17 4.93 4.93 0 0 0-5.5-4.17Zm-18.63 16.86a5.91 5.91 0 1 0 6.85 4.85 6 6 0 0 0-6.85-4.85Zm-20.64 14.15a7.17 7.17 0 1 0 8.31 5.87 7 7 0 0 0-7.92-5.94Zm-21.55 14.83c-3.17.66-5.58 3.67-4.94 6.82a6 6 0 0 0 6.86 4.82c3.18-.66 5.59-3.68 4.94-6.82a5.75 5.75 0 0 0-6.5-4.88Zm-22.98 11.56a5 5 0 1 0 5.84 4.07 5.11 5.11 0 0 0-5.84-4.07Zm-24.32 8.65a4.78 4.78 0 0 0-3.9 5.36c.42 2.47 2.78 3.94 5.39 3.84a5 5 0 0 0 3.9-5.37c-.42-2.47-2.78-3.93-5.39-3.83Zm-25.06 5.16a5.06 5.06 0 1 0 .06 0Zm-25.82 1.69a5.91 5.91 0 1 0 1.91 11.67c3.28-.32 5.24-3.57 4.94-6.82a6.2 6.2 0 0 0-6.85-4.85Zm-25.58.11a5.71 5.71 0 0 0-4.71 6.37c.65 3.15 3.23 5.29 6.4 4.63s5.36-3.23 4.71-6.37a5.78 5.78 0 0 0-6.4-4.63Zm-25.43-2.91a5.36 5.36 0 1 0 6.29 4.29c-.42-2.47-3.34-4.5-6.29-4.29Zm-24.83-5.72A5.36 5.36 0 1 0 488 559a5.51 5.51 0 0 0-6.33-4.34Zm-24.24-8.51a5.36 5.36 0 1 0 .17 0Zm-22.82-11.21a5.37 5.37 0 1 0 6.29 4.29 5.51 5.51 0 0 0-6.29-4.29Zm-21.38-13.55a5 5 0 0 0-4.16 5.72s0 .07 0 .1a5.08 5.08 0 1 0 10-1.75 5.42 5.42 0 0 0-5.84-4.07Zm-19.86-15.9a5 5 0 1 0 5.84 4.07 5.4 5.4 0 0 0-5.84-4.07Zm-17.9-18.02a5 5 0 0 0-4.25 5.48 4.91 4.91 0 0 0 5.58 4.11l.26-.05a5 5 0 0 0 4.15-5.72.28.28 0 0 0 0-.09 6 6 0 0 0-5.74-3.73Zm-15.97-20.14a5 5 0 1 0 5.84 4.06c-.08-2.58-2.89-4.27-5.84-4.06Zm-13.11-21.82a5.22 5.22 0 1 0 1.47 10.33 5.22 5.22 0 1 0-1.12-10.38Zm-10.95-23.26a5.91 5.91 0 1 0 6.85 4.85c-.76-3.48-3.68-5.51-6.85-4.85Zm-8.22-24.15a5.91 5.91 0 1 0 6.85 4.85 6 6 0 0 0-6.85-4.85Zm-33.61-20c-3.18.66-5.36 3.23-4.71 6.37s3.22 5.29 6.4 4.63 5.35-3.23 4.71-6.37a5.21 5.21 0 0 0-5.61-4.73 5.42 5.42 0 0 0-.79.1Zm-2.47-23.79c-2.15.33-3.76 2.34-3.1 4.36a3.5 3.5 0 0 0 3.86 3.1 3 3 0 0 0 .52-.1c2.15-.33 3.76-2.34 3.1-4.36a3.85 3.85 0 0 0-4.38-3Zm.38-24.31c-1.47.1-2.51 1.56-2.3 3.35.1 1.46 1.56 2.48 3.37 2.26 1.47-.11 2.51-1.56 2.3-3.36a3.41 3.41 0 0 0-3.37-2.25Zm2.48-23.57c-.68.22-1.25.78-1 1.46s.78 1.23 1.46 1 1.25-.78 1-1.45-.74-1.23-1.46-1.01Zm5.4-24.09c-.45-.22-.34.11 0 0-.23.45-.12.79.22.68Zm7.06-24.64c-.34.11-.68.22-.58.56s.22.67.56.56.69-.22.58-.56c.23-.45-.22-.67-.56-.56Zm9.99-23.7c-.34.11-.68.22-.57.56s.21.67.56.56.68-.22.57-.56-.22-.71-.56-.56Zm11.8-24c-1.13 0-1.82 1.34-1.84 2.46a2.66 2.66 0 0 0 2.47 1.8c1.14 0 1.83-1.33 1.84-2.45s-1.34-1.81-2.47-1.81Zm14.18-23.6a4.31 4.31 0 1 0 4.94 3.62c-.32-2.14-2.68-3.61-4.94-3.62Zm16.06-20.12a5.51 5.51 0 0 0-4.48 5.93 5.27 5.27 0 0 0 10.43-1.53 5 5 0 0 0-5.48-4.47Zm18.84-15.06c-1.13 0-1.83 1.34-1.84 2.46s1.34 1.8 2.47 1.81 1.83-1.34 1.84-2.46-1.34-1.8-2.47-1.81Zm20.19-14.38c-.35.11-.69.22-.58.56s.22.67.56.56.68-.22.57-.55c.24-.41-.21-.65-.55-.57Zm21.53-13.7c-.23.45-.12.78.22.67-.11-.33.23-.45-.22-.67Zm22.77-12.24c-.34.11-.68.22-.57.56s.22.67.56.56.68-.22.57-.56c.23-.46-.22-.7-.56-.56Zm23.79-10.33c-.68.22-.91.67-1 1.45.22.68.67.9 1.46 1 .68-.22.91-.67 1-1.45-.25-.66-.7-.88-1.46-1Zm24.6-6.51c-.34.11-.68.22-.57.56s.22.67.56.56.68-.22.57-.56c.23-.45-.22-.62-.56-.56Zm25.4-4.16c-.23.45.11.34.11.34s.34-.11-.11-.34Zm25.49-2.69a.71.71 0 1 0 .9.45.78.78 0 0 0-.9-.45Zm25.51-1.57a2.27 2.27 0 0 0-2.14 2.41 2 2 0 0 0 .08.49 2.75 2.75 0 0 0 3 2.37 2.79 2.79 0 0 0 2.4-3c-.55-1.7-2.01-2.72-3.34-2.27ZM592 88.55a2.79 2.79 0 0 0-2.4 3 2.75 2.75 0 0 0 3 2.37 2.78 2.78 0 0 0 2.41-3 2.42 2.42 0 0 0-3.01-2.37Zm24.85 4.59a3.41 3.41 0 1 0 3.93 2.86 3.54 3.54 0 0 0-3.93-2.86Zm24.03 6.72a4.45 4.45 0 0 0-3.67 4.9 4.35 4.35 0 0 0 8.61-1.31c.02-2.22-2.45-4.03-4.94-3.59Zm23.65 10.2a4.66 4.66 0 1 0 5.39 3.84 4.56 4.56 0 0 0-5.15-3.88Zm22.16 12.54a4.47 4.47 0 0 0-3.68 4.92 4.36 4.36 0 0 0 8.62-1.31c-.09-2.58-2.45-4.04-4.94-3.61Zm21 14.79a3.94 3.94 0 1 0 4.73 3 4.52 4.52 0 0 0-4.73-3Zm19.71 18.92c-1 .34-1.83 1.34-1.61 2 .33 1 1.34 1.8 2 1.57 1-.33 1.83-1.33 1.61-2a1.57 1.57 0 0 0-1.51-1.63 1.38 1.38 0 0 0-.49.06Zm17.35 17.45a3.06 3.06 0 1 0 3.48 2.6 2.8 2.8 0 0 0-2.89-2.69 2.9 2.9 0 0 0-.59.09ZM760.37 194a2.79 2.79 0 0 0-2.41 3 2.75 2.75 0 0 0 3 2.36 2.27 2.27 0 0 0 2.15-2.4 2.09 2.09 0 0 0-.08-.5 2.31 2.31 0 0 0-2.13-2.46 2.37 2.37 0 0 0-.53 0Zm13.24 19.94a4.11 4.11 0 1 0 4.83 3.27c-.31-2.13-2.56-3.21-4.83-3.27Zm11.19 22.82a4.11 4.11 0 1 0 4.83 3.28 4.29 4.29 0 0 0-4.83-3.28Zm9.01 24.24c-2.15.33-3.76 2.34-3.1 4.36a3.51 3.51 0 0 0 3.84 3.15 3.41 3.41 0 0 0 .54-.1c2.15-.33 3.76-2.34 3.1-4.36A3.66 3.66 0 0 0 794 261Zm6.09 23.37a5.5 5.5 0 0 0-4.48 5.93 5.44 5.44 0 0 0 6 4.4 5.51 5.51 0 0 0 4.48-5.93 4.86 4.86 0 0 0-5.19-4.52 4.53 4.53 0 0 0-.81.12ZM794.33 411a4.31 4.31 0 1 0 4.94 3.61c-.09-2.61-2.45-4.07-4.94-3.61Zm-8.63 23.27a4.91 4.91 0 1 0 .16 0Zm-10.89 23.28a4.66 4.66 0 1 0 5.38 3.84 4.8 4.8 0 0 0-5.38-3.84Zm-13.26 21.82a5 5 0 0 0-3.94 5.39 4.75 4.75 0 0 0 5.39 3.83 5 5 0 0 0 3.9-5.36c-.72-2.38-3.19-4.23-5.35-3.86Zm-15.5 20.68a5 5 0 0 0-3.91 5.37c.09 2.58 2.79 3.94 5.39 3.84a4.79 4.79 0 0 0 3.91-5.37 4.58 4.58 0 0 0-5.17-3.88Zm-17.29 18.71a4.66 4.66 0 1 0 5.39 3.84 4.81 4.81 0 0 0-5.39-3.84Zm-19.41 15.57c-3.18.66-5.59 3.68-4.94 6.82a6 6 0 0 0 6.85 4.85c3.18-.66 5.58-3.68 4.94-6.82a6.21 6.21 0 0 0-6.85-4.85Zm-21.09 13.93a7.17 7.17 0 1 0 8.31 5.87 7.16 7.16 0 0 0-8.31-5.87Zm-22 14.6a5.56 5.56 0 1 0 6.4 4.62c-.3-3.25-3.11-4.95-6.4-4.62Zm-23.2 10.9a5.56 5.56 0 1 0 6.4 4.62c-.65-3.15-3.23-5.29-6.4-4.62Zm-24.31 8.63a5 5 0 1 0 5.86 4.07 4.94 4.94 0 0 0-5.67-4.1Zm-24.96 5.5c-3.17.66-5.35 3.23-4.71 6.38s3.23 5.28 6.4 4.62a5.69 5.69 0 0 0 4.71-6.37 5.19 5.19 0 0 0-5.59-4.76 5.69 5.69 0 0 0-.81.13Zm-25.38 3.04c-3.18.65-5.59 3.67-4.94 6.82a6 6 0 0 0 6.85 4.85c3.17-.66 5.58-3.68 4.94-6.82a6 6 0 0 0-6.85-4.85Zm-25.92.22a6.47 6.47 0 1 0 7.41 5.42 6.47 6.47 0 0 0-7.41-5.42Zm-25.49-.67a5.91 5.91 0 1 0 6.85 4.85 5.59 5.59 0 0 0-6.15-5 5.69 5.69 0 0 0-.7.15Zm-25-4.14a5.56 5.56 0 1 0 6.4 4.62 6.1 6.1 0 0 0-6.4-4.62Zm-24.75-6.5a5.56 5.56 0 1 0 6.4 4.62 5.66 5.66 0 0 0-6.4-4.62Zm-24.01-8.97c-3.17.66-5.35 3.23-4.71 6.38s3.23 5.28 6.4 4.62 5.36-3.23 4.71-6.37a5.19 5.19 0 0 0-5.59-4.76 4.55 4.55 0 0 0-.81.13Zm-22.96-11.54c-3.17.66-5.35 3.23-4.7 6.38s3.22 5.28 6.4 4.62 5.35-3.23 4.7-6.37c-.19-2.96-3.07-4.96-6.4-4.63Zm-21.58-13.1a5.22 5.22 0 1 0 6 4.4 5 5 0 0 0-5.47-4.48 4.85 4.85 0 0 0-.53.08Zm-20.09-15.47a5 5 0 1 0 5.84 4.06 5.09 5.09 0 0 0-5.84-4.06Zm-18.48-17.44a5 5 0 1 0 5.84 4.06c-.19-2.92-2.97-4.62-5.84-4.06Zm-16.52-19.56a5 5 0 1 0 5.84 4.06 5.31 5.31 0 0 0-5.84-4.06ZM329 473.14a5 5 0 1 0 5.84 4.06 4.71 4.71 0 0 0-5.84-4.06Zm-12.31-22.82a5.56 5.56 0 1 0 6.4 4.63 6.12 6.12 0 0 0-6.4-4.63Zm-10.08-23.93a6.26 6.26 0 1 0 7.3 5.07 6.39 6.39 0 0 0-7.3-5.07Zm-7.84-24.26a6.26 6.26 0 1 0 7.3 5.07 6.56 6.56 0 0 0-7.3-5.07Zm-32.87-16.52a2.51 2.51 0 1 0 2.92 2 2.29 2.29 0 0 0-2.48-2.08 2.14 2.14 0 0 0-.44.08Zm-2.56-24.13c-.68.23-1.25.78-1 1.46s.78 1.24 1.46 1 1.26-.78 1-1.45-.8-1.23-1.46-1.01Zm-.52-24.79c-.34.12-.68.23-.57.56s.21.68.56.57.68-.23.57-.56c.23-.45-.11-.34-.56-.57Zm1.97-25.22c-.34.11-.68.22-.57.56s.22.67.56.56.68-.22.57-.56-.22-.67-.56-.56Zm4.01-24.77c-.34.11-.34.11-.24.44s.11.34.45.23.35-.11.24-.45-.11-.33-.45-.22Zm25.58-73.13a2 2 0 0 0-1.38 1.56 1.93 1.93 0 0 0 1.57 1.35 2 2 0 0 0 1.38-1.56c-.34-1.01-.89-1.58-1.57-1.35Zm12.37-24.51a3.76 3.76 0 1 0 4.38 3 4.25 4.25 0 0 0-4.38-3Zm14.17-22.49c-3.18.66-5.36 3.23-4.71 6.38s3.22 5.28 6.4 4.62 5.35-3.23 4.71-6.37a5.21 5.21 0 0 0-5.61-4.76 5.42 5.42 0 0 0-.79.13Zm16.51-19.89c-3.17.66-5.35 3.23-4.71 6.37s3.23 5.29 6.4 4.63a5.7 5.7 0 0 0 4.71-6.38c-.22-2.91-3.11-4.94-6.4-4.62Zm18.84-15.06c-1.47.1-2.17 1.45-2.07 2.91s1.45 2.13 2.92 2 2.17-1.45 2.07-2.91a3.52 3.52 0 0 0-2.92-2Zm19.97-15.06c-.69.22-1.26.78-1 1.46s.78 1.23 1.46 1 1.25-.78 1-1.45a1.59 1.59 0 0 0-1.46-1.01Zm115.87-51.43c.11.34.45.22 0 0 .5.22.34-.13 0 0Zm51.21-5.84c-.23.45.11.34.11.34Zm25.58-.11a.71.71 0 1 0 .9.45c-.45-.23-.56-.56-.9-.45Zm25.21 2.24c-.68.22-1.25.78-1 1.45s.78 1.24 1.46 1 1.25-.78 1-1.46c.12-.76-.78-1.22-1.46-.99Zm24.75 3.13a3 3 0 0 0-2.66 3.3 1 1 0 0 0 0 .17 3.09 3.09 0 0 0 6.12-.88 2.91 2.91 0 0 0-3.18-2.63Zm24.48 6.95a3.41 3.41 0 1 0 3.93 2.82 3.25 3.25 0 0 0-3.61-2.87Zm23.9 8.62a4.19 4.19 0 0 0-3.66 4.69v.23a4.42 4.42 0 0 0 4.94 3.61 4.31 4.31 0 1 0-1.26-8.53ZM690 91a4.66 4.66 0 1 0 5.39 3.83c-.45-2.47-2.78-3.94-5.39-3.83Zm21.77 14.89a3.41 3.41 0 1 0 3.93 2.82c-.32-2.13-1.89-3.49-3.93-2.82Zm20.65 16.01a2.7 2.7 0 1 0 3 2.37c-.52-1.68-1.64-2.81-3-2.37Zm19.02 19.15c-.34.11-.68.22-.57.56s.22.67.56.56.68-.22.57-.56c.23-.44-.22-.67-.56-.56Zm17.23 18.24c-.68.23-.91.67-.8 1 .22.67.67.9 1 .79.68-.22.91-.67.8-1 .24-.44-.32-1.01-1-.79Zm15.5 21.04c-.23.45-.23.45.22.68.23-.45.23-.45-.22-.68Zm13.44 20.59c-.68.22-.91.67-1 1.45.22.68.67.9 1.46 1 .69-.22.92-.67 1-1.46a1.21 1.21 0 0 0-1.46-.99ZM790 488a4.66 4.66 0 1 0 5.39 3.84c-.78-2.35-2.92-4.26-5.39-3.84Zm-15 21.26a4.46 4.46 0 0 0-3.67 4.92 4.41 4.41 0 0 0 4.94 3.61 4.46 4.46 0 0 0 3.67-4.92c-.05-2.58-2.41-4.05-4.94-3.61Zm-16.25 19.5a4.31 4.31 0 1 0 4.9 3.63 4.31 4.31 0 0 0-4.9-3.63Zm-18.3 17.81a4.66 4.66 0 1 0 5.39 3.84 4.81 4.81 0 0 0-5.39-3.84Zm-19.97 15.06c-3.17.66-5.58 3.68-4.94 6.82a6 6 0 0 0 6.85 4.85c3.18-.66 5.59-3.67 4.94-6.82a5.74 5.74 0 0 0-6.48-4.91 2.38 2.38 0 0 0-.37.06ZM699.16 576a6.26 6.26 0 1 0 7.3 5.08 6 6 0 0 0-6.72-5.18 5.86 5.86 0 0 0-.58.1ZM677 587.69a7.17 7.17 0 1 0 8.31 5.87c-.9-3.8-4.48-6.75-8.31-5.87Zm-23.39 11.68c-3.17.66-5.58 3.67-4.94 6.82a6 6 0 0 0 6.85 4.85c3.18-.66 5.59-3.68 4.94-6.82a6 6 0 0 0-6.85-4.85Zm-24.39 8.3a6.27 6.27 0 1 0 7.3 5.08c-.75-3.48-3.78-5.85-7.3-5.08Zm-24.85 5.84a6.47 6.47 0 1 0 7.41 5.42 6.47 6.47 0 0 0-7.41-5.42Zm-25.5 3.82a7.24 7.24 0 0 0-6.08 7.94 6.89 6.89 0 0 0 13.6-2.19c-.07-3.7-3.55-6.32-7.52-5.75Zm-25.48 1.57a7.17 7.17 0 1 0 8.31 5.87 7 7 0 0 0-7.92-5.94Zm-25.57.1a6.46 6.46 0 1 0 7.41 5.41 6.3 6.3 0 0 0-7-5.47Zm-25.43-2.9a6.36 6.36 0 1 0 .12 0Zm-25.08-4.1a5.91 5.91 0 1 0 6.85 4.85 6 6 0 0 0-6.85-4.85Zm-24.48-7a5.56 5.56 0 1 0 6.4 4.63 5.66 5.66 0 0 0-6.4-4.63Zm-23.78-9.4a5.57 5.57 0 1 0 6.4 4.63 5.83 5.83 0 0 0-6.4-4.63Zm-22.85-11.2a5.21 5.21 0 1 0 6 4.4 5.5 5.5 0 0 0-6-4.4ZM384.51 571a5.51 5.51 0 0 0-4.48 5.92 5.27 5.27 0 0 0 10.43-1.52c-.19-2.96-3-4.64-5.95-4.4Zm-20.32-15a5 5 0 1 0 .17 0Zm-18.82-17.4a5 5 0 1 0 5.84 4.06 5.3 5.3 0 0 0-5.84-4.06ZM328 520a5 5 0 1 0 5.84 4.06A5.09 5.09 0 0 0 328 520Zm-15.59-20.24a5 5 0 1 0 5.84 4.07c-.08-2.58-2.89-4.28-5.84-4.07ZM299 478.06a5.36 5.36 0 1 0 6.29 4.29 5.51 5.51 0 0 0-6.29-4.29Zm-11.56-22.71c-3.18.66-5.36 3.23-4.71 6.38s3.22 5.28 6.4 4.62 5.35-3.23 4.71-6.37a5.67 5.67 0 0 0-6.4-4.63Zm-9.37-23.03a5 5 0 1 0 5.84 4.06 5.17 5.17 0 0 0-5.84-4.06ZM270.53 408a5 5 0 1 0 5.84 4.06 5.11 5.11 0 0 0-5.84-4.06Zm-32.85-17.69a2.16 2.16 0 1 0 2.47 1.81c.01-1.12-1-1.91-2.47-1.81Zm-2.57-24.12c-.34.11-.91.67-.8 1s.67.9 1 .79.91-.67.8-1-.5-.57-1-.79Zm-.75-24.35c-.23.45.11.34.11.34Zm1.07-25.68c-.23.45-.12.79.22.68s.34-.11-.22-.68c.45.23.34-.11 0 0Zm3.57-24.99c-.24.45.1.33.1.33Zm12.86-49.63c-.34.11-.34.11-.23.44s.11.34.45.23.34-.11.23-.45Zm9.31-23.54c-.34.11-.34.11-.23.45s.11.34.45.23.34-.11.23-.45-.11-.32-.45-.23ZM272 192.16a3.21 3.21 0 1 0 3.82 2.48c-.12-1.46-2.03-2.7-3.82-2.48Zm13.13-23.27a5 5 0 0 0-3.9 5.36c.42 2.47 2.78 3.94 5.39 3.84a4.79 4.79 0 0 0 3.9-5.37c-.42-2.47-2.78-3.96-5.39-3.83Zm14.95-21.25A5.22 5.22 0 1 0 306 152a5.21 5.21 0 0 0-5.92-4.36Zm16.83-17.76a3.55 3.55 0 0 0-2.88 3.91 3.45 3.45 0 1 0 2.91-3.91Zm17.85-18.12a3.41 3.41 0 1 0 3.93 2.82c.13-1.88-1.78-3.12-3.93-2.82Zm19.85-15.37a2.16 2.16 0 1 0 2.47 1.81 1.9 1.9 0 0 0-1.9-1.9 1.84 1.84 0 0 0-.57.09Zm21.2-13.63c-.34.11-.68.22-.57.56s.22.67.56.56.68-.22.57-.56-.45-.18-.56-.56ZM596.34 33.5a.71.71 0 1 0 .42 1.36.77.77 0 0 0 .46-.9c-.43-.2-.54-.57-.88-.46ZM621 36.29c-1.47.11-2.51 1.56-2.3 3.36.1 1.46 1.56 2.47 3.37 2.26 1.47-.11 2.51-1.56 2.3-3.36-.12-1.46-1.58-2.47-3.37-2.26Zm24.7 5.38a4.11 4.11 0 0 0 1.3 8.11h.18a3.86 3.86 0 0 0 3.43-4.25 3.53 3.53 0 0 0-.1-.55 4.27 4.27 0 0 0-4.81-3.31Zm23.91 8.63a4.11 4.11 0 1 0 4.83 3.27 4 4 0 0 0-4.58-3.32Zm23.3 10.31a4.66 4.66 0 1 0 5.39 3.83 4.56 4.56 0 0 0-5.16-3.87Zm22.16 12.54a4.31 4.31 0 0 0 1.26 8.53 4.46 4.46 0 0 0 3.67-4.92 4.35 4.35 0 0 0-4.93-3.61Zm21.45 15.01a3.55 3.55 0 0 0-2.91 3.91 3.5 3.5 0 0 0 4 2.82 3.41 3.41 0 0 0-.75-6.78h-.31Zm20.39 18.71a.71.71 0 1 0 .9.45.75.75 0 0 0-.9-.45Zm18.48 17.46c-.34.11-.68.22-.57.56s.22.67.56.56.68-.22.57-.56-.11-.33-.56-.56Zm16.88 19.48c-.24.44-.24.44.21.67.35-.11.24-.48-.21-.67Zm-4.09 394.33a4.46 4.46 0 0 0-3.67 4.92 4.16 4.16 0 0 0 4.6 3.66l.34-.05a4.45 4.45 0 0 0 3.67-4.92 4.33 4.33 0 0 0-4.94-3.61Zm-17.29 18.62a4.46 4.46 0 0 0-3.67 4.92 4.41 4.41 0 0 0 4.94 3.61 4.46 4.46 0 0 0 3.67-4.92 4.63 4.63 0 0 0-4.94-3.61Zm-18.97 17a5 5 0 1 0 5.84 4.06 4.91 4.91 0 0 0-5.58-4.11Zm-20.09 15.85a5 5 0 1 0 5.84 4.06 4.91 4.91 0 0 0-5.58-4.11ZM710 602.3a6.27 6.27 0 1 0 7.3 5.08c-.3-3.26-3.69-5.51-7.3-5.08Zm-22.57 11.79a6.82 6.82 0 1 0 7.86 5.64 6.71 6.71 0 0 0-7.58-5.69ZM664.23 625a6.82 6.82 0 1 0 7.86 5.65c-.87-3.84-4.35-6.44-7.86-5.65Zm-24.62 7.62a7.37 7.37 0 1 0 8.42 6.2c-.21-4.06-4.14-6.82-8.42-6.2Zm-24.54 6.85a7.17 7.17 0 1 0 8.31 5.86 7.46 7.46 0 0 0-8.31-5.86ZM589.78 644a7.45 7.45 0 1 0 .15 0Zm-25.6 2.31a7.6 7.6 0 0 0-6.31 8.39 7.45 7.45 0 1 0 6.36-8.4Zm-25.69.9a7.17 7.17 0 1 0 8.31 5.87 7.07 7.07 0 0 0-8-5.92Zm-25.57-1a6.47 6.47 0 1 0 7.41 5.41 6.3 6.3 0 0 0-7-5.47ZM487.71 644a5 5 0 1 0 5.84 4.06c-.08-2.61-3-4.64-5.84-4.06ZM463 638.59a4.66 4.66 0 1 0 5.39 3.84 4.81 4.81 0 0 0-5.39-3.84Zm-24.48-8.07a5 5 0 1 0 5.84 4.06 5.11 5.11 0 0 0-5.84-4.06ZM415 620.66a5.36 5.36 0 1 0 6.3 4.29 5.52 5.52 0 0 0-6.3-4.29Zm-23-11.54a5.51 5.51 0 0 0-4.48 5.93 5.44 5.44 0 0 0 5.95 4.4 5.51 5.51 0 0 0 4.48-5.93c-.18-2.91-2.95-4.61-5.95-4.4ZM370.43 596a4.87 4.87 0 1 0 1.25 9.65 4.78 4.78 0 0 0 3.91-5.36c-.08-2.53-2.59-4.37-5.16-4.29Zm-20.88-15.55a5.37 5.37 0 1 0 6.29 4.29 5.65 5.65 0 0 0-6.29-4.29Zm-18.94-16.56a5.56 5.56 0 1 0 6.4 4.62 5.66 5.66 0 0 0-6.4-4.62Zm-18-18.36c-3.17.66-5.35 3.23-4.71 6.37s3.23 5.28 6.4 4.62 5.36-3.22 4.71-6.37a5.19 5.19 0 0 0-5.6-4.75 5.34 5.34 0 0 0-.8.13Zm-16-19.03a5 5 0 1 0 .17 0Zm-14.7-20.92a5 5 0 1 0 5.84 4.06 5.11 5.11 0 0 0-5.84-4.06ZM269.24 484a5.4 5.4 0 0 0-4.24 5.48 5.34 5.34 0 0 0 5.5 4.17 4.79 4.79 0 0 0 3.9-5.37c.15-3.04-2.32-4.84-5.16-4.28ZM258 459.76c-3.18.66-5.59 3.68-4.94 6.82a6 6 0 0 0 6.84 4.86c3.18-.66 5.59-3.68 4.95-6.82-.34-3.31-3.24-5.34-6.85-4.86Zm-8.84-22.52a4.66 4.66 0 1 0 5.39 3.84c-.43-2.47-2.45-4.08-5.39-3.84ZM242.41 413a4.66 4.66 0 1 0 5.39 3.83 4.8 4.8 0 0 0-5.39-3.83Zm-32.96-18a2 2 0 1 0 2.38 1.54.64.64 0 0 0 0-.07 2.63 2.63 0 0 0-2.38-1.47Zm-2.68-24.45c-.68.22-.91.67-1 1.45.22.68.67.9 1.46 1 .68-.22.91-.67 1-1.45-.23-.66-1.01-.79-1.46-1Zm-1.09-24.23c-.23.45-.23.45.22.67-.11-.33.23-.44-.22-.67Zm8.18-75.67c.14.35.45.22 0 0ZM239 197.29a1.46 1.46 0 1 0 1.57 1.35c-.34-1.01-.9-1.57-1.57-1.35Zm11.61-23.53a2.15 2.15 0 1 0 2.47 1.8 1.89 1.89 0 0 0-2.47-1.8ZM264 150.07a4.31 4.31 0 1 0 1 8.57h.31a4.31 4.31 0 1 0-1-8.57Zm15.11-20.58a4.31 4.31 0 1 0 4.94 3.61 4.42 4.42 0 0 0-4.94-3.61Zm16.94-17.42c-1.13 0-1.82 1.34-1.84 2.46s1.34 1.8 2.47 1.8 1.83-1.34 1.84-2.46c-.33-1.01-1.45-2.11-2.47-1.8Zm17.87-19.22a3 3 0 0 0-2.66 3.3 1 1 0 0 0 0 .17 3.17 3.17 0 0 0 3.47 2.59 3.22 3.22 0 0 0 2.65-3.46 2.93 2.93 0 0 0-3.19-2.64Zm19.29-15.95c-1.47.1-2.16 1.45-2.06 2.9s1.44 2.14 2.92 2 2.16-1.45 2.06-2.91a2.25 2.25 0 0 0-2.42-2.08 2.1 2.1 0 0 0-.5.09Zm20.65-15.28c-1.47.11-2.16 1.45-2.06 2.91s1.44 2.13 2.92 2 2.16-1.45 2.06-2.91a2.27 2.27 0 0 0-2.44-2.09 2 2 0 0 0-.48.09ZM376 49.6c-.34.11-.34.11-.57.56.11.34.11.34.56.56.34-.11.34-.11.57-.56a1.26 1.26 0 0 0-.56-.56Zm22.48-11.79c-.23.45-.12.78.22.67-.11-.33.23-.48-.22-.67ZM598.23 5.69c-.23.45-.12.78.22.67s.23-.44-.22-.67Zm24.98 2.69a2 2 0 1 0 2.4 1.46 2.62 2.62 0 0 0-2.4-1.46Zm24.73 4.25a4 4 0 1 0-.1 8 4.1 4.1 0 0 0 1.1-.14 4 4 0 1 0 .1-8 4.1 4.1 0 0 0-1.1.14ZM672 20.47a4.46 4.46 0 0 0-3.67 4.92 4.35 4.35 0 1 0 8.61-1.31c-.12-2.58-2.48-4.08-4.94-3.61Zm23.51 9.86a5 5 0 0 0-3.9 5.37c.43 2.47 2.79 3.94 5.39 3.84a5 5 0 0 0 3.91-5.37 4.59 4.59 0 0 0-5.19-3.88Zm22.85 11.21a4.78 4.78 0 0 0-3.91 5.36 5.35 5.35 0 0 0 5.5 4.18 5.42 5.42 0 0 0 4.25-5.48c-.88-2.7-3.35-4.5-5.84-4.06Zm21.9 15.22a3 3 0 0 0-2.68 3.29v.19a2.91 2.91 0 0 0 3.16 2.64l.32-.05a3 3 0 0 0 2.66-3.3.78.78 0 0 0 0-.16 2.78 2.78 0 0 0-2.88-2.69 2.33 2.33 0 0 0-.58.08Zm20.66 14.9a3 3 0 0 0-2.67 3.34 1.1 1.1 0 0 0 0 .18 3.09 3.09 0 0 0 6.12-.87 2.77 2.77 0 0 0-2.85-2.69 3.2 3.2 0 0 0-.6.04Zm19.94 18.48a.77.77 0 0 0-.47.9.72.72 0 0 0 .9.47.72.72 0 1 0-.43-1.37Zm1.75 494.53a4.66 4.66 0 1 0 5.39 3.83 4.79 4.79 0 0 0-5.39-3.83Zm-19.34 17.09a4.66 4.66 0 1 0 5.39 3.84 4.58 4.58 0 0 0-5.17-3.88Zm-20.66 14.14a5.56 5.56 0 1 0 6.4 4.62c-.62-3.14-3.2-5.28-6.4-4.62Zm-21.73 13.03a6.46 6.46 0 1 0 7.41 5.41 6.24 6.24 0 0 0-6.93-5.48 4 4 0 0 0-.48.07Zm-22.65 11.45a7.17 7.17 0 1 0 8.31 5.87c-.86-3.82-4.45-6.75-8.31-5.87Zm-23.87 10a7.72 7.72 0 1 0 8.87 6.43 7.72 7.72 0 0 0-8.87-6.43Zm-23.97 8.53a7.37 7.37 0 1 0 8.42 6.2 7.59 7.59 0 0 0-8.42-6.2Zm-24.86 6.96a7.37 7.37 0 1 0 8.42 6.2 7.24 7.24 0 0 0-8.13-6.24Zm-24.92 5.5a7.17 7.17 0 1 0 8.31 5.87c-.92-3.82-4.49-6.75-8.31-5.87Zm-25.54 3.82a6.26 6.26 0 1 0 7.3 5.07 6.53 6.53 0 0 0-7.3-5.07Zm-25.37 1.91c-3.17.66-5.35 3.23-4.71 6.37s3.23 5.28 6.4 4.63 5.36-3.23 4.71-6.38a5.66 5.66 0 0 0-6.4-4.62Zm-25.79-.56a5.56 5.56 0 1 0 6.4 4.62 5.56 5.56 0 0 0-6.4-4.62Zm-25.3-1.46a4.46 4.46 0 0 0-3.67 4.92 4.35 4.35 0 1 0 3.67-4.92Zm-25-3.81a3.71 3.71 0 0 0-3.14 4.21v.16a3.8 3.8 0 0 0 7.49-1.32c-.63-2.02-2.2-3.32-4.35-3.05Zm-25-7.51a4.87 4.87 0 1 0 5.5 4.18 5.4 5.4 0 0 0-5.5-4.18Zm-24.51-8.06a5.38 5.38 0 0 0-4.25 5.47 4.77 4.77 0 0 0 5.39 3.84 5.41 5.41 0 0 0 4.25-5.48c.02-2.24-2.49-4.05-5.39-3.83Zm-23.49-10.94a5.91 5.91 0 1 0 6.85 4.85 6.25 6.25 0 0 0-6.85-4.85Zm-22.67-10.57a5 5 0 1 0 5.95 4.4c-.65-3.15-3.12-4.95-5.95-4.4Zm-21.6-11.98a3.41 3.41 0 1 0 3.93 2.82 3.53 3.53 0 0 0-3.93-2.82Zm-20.66-14.9a3.41 3.41 0 1 0 3.93 2.82 3.54 3.54 0 0 0-3.93-2.82Zm-19.94-18.48a5.56 5.56 0 0 0 1.69 11c3.18-.66 5.35-3.23 4.71-6.37a5.79 5.79 0 0 0-6.4-4.63Zm-18.13-17.57c-3.18.66-5.36 3.23-4.71 6.37s3.22 5.29 6.4 4.63 5.35-3.23 4.71-6.38-3.24-5.28-6.4-4.62Zm-16.78-19.14c-3.17.66-5.35 3.23-4.71 6.37s3.23 5.29 6.4 4.63 5.36-3.23 4.71-6.37a5.65 5.65 0 0 0-6.4-4.63Zm-15.29-19.25a4.81 4.81 0 0 0-3.91 5.37 4.71 4.71 0 1 0 3.94-5.37Zm-13.37-19.11a2.1 2.1 0 0 0-1.86 2.31.77.77 0 0 0 0 .15 2.18 2.18 0 1 0 4.31-.66 1.89 1.89 0 0 0-2.47-1.8Zm-12.08-23.28a3.21 3.21 0 1 0 3.82 2.48 3.45 3.45 0 0 0-3.82-2.48ZM229.16 465a5.37 5.37 0 1 0 6.29 4.29c-.45-2.53-3.34-4.53-6.29-4.29Zm-8.35-22.24a3.76 3.76 0 1 0 4.38 3 3.85 3.85 0 0 0-4.38-3Zm-6.75-24.29a3.71 3.71 0 0 0-3.14 4.21v.16a3.8 3.8 0 1 0 3.12-4.37Zm-32.95-19.09c-1.47.1-2.17 1.45-2.07 2.91s1.45 2.13 2.92 2 2.17-1.45 2.07-2.91-1.42-2.11-2.92-2Zm-2.9-25.14c-1.13 0-1.82 1.34-1.83 2.46s1.33 1.8 2.47 1.81 1.82-1.34 1.83-2.46-1.33-1.8-2.47-1.81Zm-.87-23.56c-.34.12-.34.12-.57.56.11.34.11.34.56.57.34-.11.34-.11.57-.56-.22-.68-.56-.57-.56-.57Zm.39-25.45c-.34.11-.34.11-.23.44s.11.34.45.23.34-.11.23-.45Zm2.27-25.34c-.23.45-.12.78.22.67Zm9.53-49.65c.11.34.34-.11 0 0Zm27.6-71.55c-.23.45.11.34.11.34ZM229 155.07c-1 .34-1.59.9-1.26 1.91s.89 1.57 1.91 1.24 1.59-.89 1.26-1.9c.09-1.12-.85-1.56-1.91-1.25Zm14.09-21.69c-1 .33-1.6.89-1.27 1.9s.89 1.57 1.91 1.24 1.59-.89 1.27-1.9c-.22-.68-1.23-1.47-1.91-1.24Zm15.38-19.9c-.68.22-.92.67-1 1.45.22.67.67.9 1.46 1 .68-.22.92-.67 1-1.46a1.6 1.6 0 0 0-1.46-.99ZM275 93.58a1.86 1.86 0 0 0-1.27 1.91 1.82 1.82 0 0 0 1.9 1.27c.69-.22 1.6-.89 1.27-1.9a2.38 2.38 0 0 0-1.9-1.28Zm17.83-18.09c-.68.22-1.59.89-1.26 1.9a1.78 1.78 0 0 0 1.91 1.24c.68-.22 1.59-.89 1.26-1.9-.22-.67-.89-1.57-1.91-1.24Zm19.31-17.08c-1 .33-1.59.89-1.26 1.9s.88 1.58 1.91 1.25 1.59-.89 1.26-1.91c.12-.78-.89-1.57-1.91-1.24Zm20.54-15.65c-1 .33-1.59.89-1.26 1.9s.88 1.57 1.91 1.24 1.59-.89 1.26-1.9a1.63 1.63 0 0 0-1.91-1.24Zm21.42-12.88c-.34.11-.34.11-.57.56.11.33.11.33.56.56.34-.11.34-.11.57-.56-.22-.68-.22-.68-.56-.56Zm22.2-12.8c-.34.11-.34.11-.23.44s.11.34.45.23.34-.11.23-.45a.34.34 0 0 0-.42-.23ZM399.61 5.4a.77.77 0 0 0-.46.89.71.71 0 1 0 1.36-.44c-.32.15-.51-.56-.9-.45ZM698.1.06a4.81 4.81 0 0 0-3.91 5.37 4.71 4.71 0 0 0 9.3-1.53A4.77 4.77 0 0 0 698.1.06Zm23.19 11.09a4.81 4.81 0 0 0-3.91 5.37 4.71 4.71 0 0 0 9.3-1.53 4.56 4.56 0 0 0-5.15-3.88Zm22.16 12.55a4.78 4.78 0 0 0-3.91 5.36c.43 2.47 2.79 3.94 5.39 3.84a5 5 0 0 0 3.91-5.37 4.57 4.57 0 0 0-5.18-3.87ZM765 37.92a4 4 0 1 0 4.5 3.43 4 4 0 0 0-4.5-3.43Zm20.61 17.14a2.08 2.08 0 0 0-1.85 2.3.78.78 0 0 0 0 .16 2.07 2.07 0 0 0 2.29 1.83h.18A2.08 2.08 0 0 0 788.1 57a.78.78 0 0 0 0-.16 2.66 2.66 0 0 0-2.49-1.78Zm8.77 557.81a4.31 4.31 0 1 0 4.94 3.61 4.41 4.41 0 0 0-4.94-3.61Zm-19.77 15.73a4.87 4.87 0 1 0 .87 9.7h.39a4.79 4.79 0 0 0 3.9-5.37 4.45 4.45 0 0 0-4.56-4.34Zm-21.06 13.93a5.56 5.56 0 1 0 6.4 4.62 6.12 6.12 0 0 0-6.4-4.62ZM731.61 656c-3.18.66-5.59 3.68-4.94 6.83a6 6 0 0 0 6.85 4.85c3.17-.66 5.58-3.68 4.94-6.82a6 6 0 0 0-6.85-4.86Zm-23 10.45a7.17 7.17 0 1 0 8.31 5.87c-.44-3.56-4.37-6.41-8.31-5.87ZM685.27 677a7.17 7.17 0 1 0 8.31 5.87c-.86-3.81-4.45-6.75-8.31-5.87Zm-24.42 8.31a7.72 7.72 0 1 0 8.87 6.43 7.72 7.72 0 0 0-8.87-6.43Zm-24.53 7.97a6.47 6.47 0 1 0 7.41 5.42 6.47 6.47 0 0 0-7.41-5.42Zm-24.96 5.48a6.47 6.47 0 1 0 7.41 5.42 6.25 6.25 0 0 0-6.92-5.5ZM586 702.94c-3.18.66-5.58 3.67-4.94 6.82a6 6 0 0 0 6.85 4.85c3.18-.66 5.59-3.68 4.94-6.82a5.75 5.75 0 0 0-6.46-4.92Zm-25.63 2.35a5.37 5.37 0 1 0 6.29 4.29c-.53-2.82-3.35-4.5-6.29-4.29Zm-25.47.47a5 5 0 1 0 5.84 4.06c-.42-2.48-3.23-4.17-5.84-4.06Zm-25.45-.68a4.31 4.31 0 1 0 4.94 3.61 4.42 4.42 0 0 0-4.94-3.61Zm-25.33-1.46c-1.14 0-1.83 1.34-1.84 2.46s1.34 1.8 2.47 1.81 1.82-1.34 1.84-2.46-.98-1.91-2.47-1.81Zm-24.96-4.93c-1.13 0-1.82 1.34-1.84 2.46s1.34 1.8 2.47 1.81 1.83-1.34 1.84-2.46a2.08 2.08 0 0 0-2.32-1.83ZM434 689.76a4.31 4.31 0 1 0 4.94 3.61c-.06-2.61-2.42-4.08-4.94-3.61Zm-24.09-9.34a5 5 0 1 0 5.84 4.07 5.32 5.32 0 0 0-5.84-4.07Zm-23.53-10.98c-3.18.66-5.59 3.68-4.94 6.82a6 6 0 0 0 6.85 4.86c3.17-.66 5.58-3.68 4.94-6.83a6.22 6.22 0 0 0-6.85-4.85Zm-22.62-11.68c-3.18.66-5.59 3.68-4.94 6.82a6 6 0 0 0 6.85 4.86c3.17-.66 5.58-3.68 4.94-6.82a6 6 0 0 0-6.85-4.86Zm-21.39-10.15a2.71 2.71 0 1 0 3 2.38 2.78 2.78 0 0 0-3-2.38ZM321.69 635c-.35.11-.92.67-.81 1s.67.9 1 .79.91-.67.81-1c.13-.79-.32-1.03-1-.79Zm-20.18-18.08c-1.47.11-2.5 1.56-2.3 3.36.1 1.46 1.56 2.47 3.37 2.26 1.48-.11 2.51-1.56 2.3-3.36-.09-1.42-1.55-2.42-3.37-2.26Zm-19.01-20.27a5.92 5.92 0 1 0 6.85 4.86 5.76 5.76 0 0 0-6.49-4.92Zm-17.34-18.58a5.71 5.71 0 0 0-4.71 6.38c.64 3.14 3.22 5.28 6.4 4.62a5.7 5.7 0 0 0 4.71-6.37c-.2-2.94-3.12-4.94-6.4-4.63Zm-15.74-19.47a5.56 5.56 0 1 0 6.4 4.63 5.66 5.66 0 0 0-6.4-4.63ZM235 538.69a5 5 0 0 0-3.91 5.37c.43 2.46 2.79 3.93 5.39 3.83a5 5 0 0 0 3.91-5.37 4.57 4.57 0 0 0-5.18-3.87Zm-12.54-19.01a1.46 1.46 0 0 0 .19 2.92A2 2 0 0 0 224 521a1.93 1.93 0 0 0-1.54-1.32Zm-11.63-23.04c-1 .33-1.83 1.33-1.61 2 .33 1 1.34 1.8 2 1.58 1-.33 1.82-1.34 1.61-2 .03-1.13-.83-1.58-2-1.58Zm-10.03-25.06a3.41 3.41 0 1 0 3.93 2.82 3.54 3.54 0 0 0-3.93-2.82Zm-8.19-23.03a2.78 2.78 0 0 0-2.41 3 2.75 2.75 0 0 0 3 2.37 2.8 2.8 0 0 0 2.41-3 2.6 2.6 0 0 0-2.79-2.39Zm-6.56-24.7a2.7 2.7 0 1 0 3 2.37 2.78 2.78 0 0 0-3-2.37Zm-32.94-20.22a2.71 2.71 0 1 0 3 2.38c-.5-1.69-1.64-2.82-3-2.38Zm-3.45-25.7a2.86 2.86 0 1 0 3.37 2.26c-.1-1.43-1.56-2.43-3.37-2.26Zm-1.21-24.57c-1.13 0-1.82 1.34-1.83 2.46a2.65 2.65 0 0 0 2.47 1.81c1.13 0 1.82-1.34 1.83-2.46a2.67 2.67 0 0 0-2.47-1.81Zm.05-25.36a2.15 2.15 0 1 0 2.47 1.8 1.87 1.87 0 0 0-1.86-1.89 1.81 1.81 0 0 0-.61.09Zm2.11-24.87c-.68.22-1.6.89-1.27 1.9.22.67.89 1.57 1.91 1.24.68-.22 1.6-.89 1.27-1.9-.24-.68-1.25-1.47-1.91-1.24Zm3.52-23.88c-.34.11-.34.11-.23.45s.11.34.45.23.34-.12.23-.45a.34.34 0 0 0-.44-.23Zm67.76-163.57c-.23.44-.12.78.22.67-.11-.35.23-.45-.22-.67Zm32.24-39.92c-.24.45-.13.79.21.68 0 0 .35-.11-.21-.68Zm18.08-18.53c-.34.11-.68.22-.57.56s.22.67.56.56.68-.22.57-.55a1.24 1.24 0 0 0-.56-.57Zm18.97-16.97c-.34.12-.68.23-.57.56s.22.68.56.57.68-.22.57-.56-.22-.68-.56-.57Zm19.98-16.17c-.34.11-.91.67-.8 1s.67.9 1 .79.91-.67.8-1c.13-.79-.32-1.01-1-.79Zm21.21-14.72c-.34.11-.91.67-.8 1s.66.9 1 .79.92-.67.81-1-.67-.9-1.01-.79ZM768.61 6.2a3.54 3.54 0 0 0-3.2 3.83 4.51 4.51 0 0 0 .09.53 3.5 3.5 0 0 0 3.86 3.1 3 3 0 0 0 .52-.1 3.54 3.54 0 0 0 3.2-3.83 4.51 4.51 0 0 0-.08-.53 3.85 3.85 0 0 0-4.39-3Zm21.13 16.24c-1.13 0-1.82 1.34-1.83 2.46s1.33 1.8 2.47 1.8 1.82-1.34 1.83-2.46-.99-1.91-2.47-1.8Zm-4.08 633.12a5 5 0 1 0 5.6 4.51c-.65-3.14-3.11-4.94-5.6-4.51Zm-21.43 14.04a5.37 5.37 0 1 0 6.29 4.29c-.52-2.8-3.35-4.5-6.29-4.29Zm-21.99 13.48a5.22 5.22 0 1 0 6 4.4 5 5 0 0 0-5.47-4.48 4.85 4.85 0 0 0-.53.08Zm-22.54 11.79a5.5 5.5 0 0 0-4.47 5.93 5.44 5.44 0 0 0 6 4.4 5.5 5.5 0 0 0 4.47-5.93 5.24 5.24 0 0 0-6-4.4Zm-23.86 8.89a6.47 6.47 0 1 0 7.41 5.42 6.47 6.47 0 0 0-7.41-5.42Zm-24.42 8.29a7.17 7.17 0 1 0 8.31 5.87 7.24 7.24 0 0 0-8.31-5.87Zm-24.63 6.51a7.72 7.72 0 1 0 8.87 6.43 7.72 7.72 0 0 0-8.87-6.43ZM622 724.4a7.74 7.74 0 0 0-6.56 8.76v.07a7.8 7.8 0 0 0 15.42-2.4 8.25 8.25 0 0 0-8.86-6.43Zm-25.45 4.15a7.72 7.72 0 1 0 8.87 6.44c-.63-4.23-4.67-7.43-8.87-6.44ZM571.27 733a5.37 5.37 0 1 0 6.29 4.29c-.43-2.43-3.35-4.46-6.29-4.29Zm-25.37 2a5 5 0 0 0-3.91 5.37c.43 2.47 2.79 3.94 5.39 3.84a5 5 0 0 0 3.91-5.37c-.88-2.74-2.9-4.32-5.39-3.84Zm-25.9-.94a5 5 0 0 0-3.91 5.37 4.76 4.76 0 0 0 5.39 3.83 5 5 0 0 0 3.91-5.36 4.77 4.77 0 0 0-5.39-3.84Zm-25.23-1.12a3.21 3.21 0 1 0 3.82 2.48 3.45 3.45 0 0 0-3.82-2.48Zm-24.87-2.35a1.6 1.6 0 1 0 .65 3.14c.68-.22 1.59-.89 1.26-1.9a1.63 1.63 0 0 0-1.91-1.24Zm-25.29-5.94c-1 .33-1.6.89-1.27 1.9s.89 1.58 1.91 1.24 1.6-.89 1.27-1.9c.09-.78-.77-1.23-1.91-1.24ZM420 717.37a1.83 1.83 0 1 0 2.36 1.47 1.76 1.76 0 0 0-1.95-1.56 1.43 1.43 0 0 0-.41.09Zm-24.09-9.3a2.15 2.15 0 1 0 2.47 1.8c.02-1.11-.99-1.87-2.47-1.8Zm-23.62-12.44a4.31 4.31 0 1 0 4.94 3.61 4.55 4.55 0 0 0-4.94-3.61ZM349.67 684a4.66 4.66 0 1 0 5.39 3.83 4.57 4.57 0 0 0-5.18-3.87Zm-21.5-10.54a2 2 0 1 0 2.38 1.53s0 0 0-.07a2 2 0 0 0-2.38-1.46Zm-20.67-13.78c-.34.11-.92.67-.81 1s.67.9 1 .79.92-.67.81-1-.66-.9-1-.79Zm-20.2-15.79c-.68.23-.91.67-.8 1 .22.67.67.9 1 .79.68-.22.91-.67.8-1 .24-.44-.3-1.01-1-.79Zm-19.36-20.13a4.31 4.31 0 1 0 4.94 3.61 4.2 4.2 0 0 0-4.69-3.65Zm-17.77-19.95c-3.18.66-5.36 3.23-4.71 6.37a5.66 5.66 0 0 0 6.4 4.62c3.17-.65 5.35-3.22 4.71-6.37a6.1 6.1 0 0 0-6.4-4.62Zm-16.56-18.47a5 5 0 1 0 6 4.4c-.68-3.14-3.15-4.98-6-4.4ZM218.34 565a5 5 0 1 0 6 4.4c-.73-3.17-3.16-4.97-6-4.4Zm-13.47-20.61a4.11 4.11 0 1 0 4.83 3.27 4.57 4.57 0 0 0-4.83-3.27Zm-12.26-19.12c-.68.22-.91.67-.8 1 .22.67.67.9 1 .79.68-.22.91-.67.8-1 .26-.45-.3-1.01-1-.79Zm-10.71-22.59c-.34.11-.68.22-.57.56s.22.67.56.56.68-.22.57-.56-.46-.24-.56-.56ZM172.32 479c-.34.12-.92.67-.81 1s.67.9 1 .79.92-.67.81-1-.66-.93-1-.79Zm-8-24.62c-.68.22-1.25.78-1 1.45s.78 1.24 1.46 1 1.25-.78 1-1.46-.66-.88-1.46-.99ZM157.91 430c-.68.22-1.25.78-1 1.45s.78 1.24 1.46 1 1.25-.78 1-1.45-.76-1.24-1.46-1ZM125 409.76a.71.71 0 1 0 .9.46Zm-3.24-26.11a2 2 0 0 0 0 4 2.45 2.45 0 0 0 2.34-2.54 2 2 0 0 0-2.34-1.46Zm-1.97-26.89a3.41 3.41 0 1 0 1.06 6.73 3.41 3.41 0 0 0-.75-6.78Zm-.18-26.06a4.11 4.11 0 1 0 4.83 3.27 4.6 4.6 0 0 0-4.83-3.27Zm1.52-24.34a2.86 2.86 0 1 0 3.37 2.26 3.42 3.42 0 0 0-3.37-2.26Zm3.42-23.09a.77.77 0 0 0-.46.9.71.71 0 1 0 .46-.9Zm37.19-120.86c-.23.45.11.34.11.34ZM270 21.44c-.11-.33-.34.11 0 0-.23.45-.23.45.22.68-.11-.34.23-.45-.22-.68Zm19.87-16.51c-.34.11-.68.22-.57.56s.21.67.56.56.68-.22.57-.56c.23-.49-.22-.67-.56-.56Zm506.81 677.6a5.41 5.41 0 0 0-4.25 5.48 4.76 4.76 0 0 0 5.39 3.83 5.4 5.4 0 0 0 4.25-5.47c-.32-2.14-2.79-3.94-5.39-3.84Zm-21.32 14.38a4.78 4.78 0 0 0-3.91 5.36 4.92 4.92 0 0 0 9.75-1.3c-.88-2.7-3.35-4.5-5.84-4.06Zm-22.1 13.14a4.87 4.87 0 1 0 5.5 4.17 4.87 4.87 0 0 0-5.5-4.17ZM730 720.6a5.91 5.91 0 1 0 6.85 4.85 6 6 0 0 0-6.85-4.85Zm-23.68 8.4a7.72 7.72 0 1 0 8.87 6.44 8.26 8.26 0 0 0-8.87-6.44Zm-24.19 7.88a8.77 8.77 0 1 0 .15 0Zm-24.76 8.42a7.72 7.72 0 1 0 8.87 6.43 7.72 7.72 0 0 0-8.87-6.43Zm-24.96 5.46a8.07 8.07 0 1 0 9.32 6.66 8.28 8.28 0 0 0-9.32-6.66Zm-25.28 4.53a8.07 8.07 0 1 0 9.32 6.66 8.07 8.07 0 0 0-9.32-6.66Zm-25.39 3.04a8.26 8.26 0 1 0 .07 0Zm-25.06 5.16a4.11 4.11 0 1 0 4.83 3.27 4.27 4.27 0 0 0-4.83-3.27Zm-25.37 1.91c-1.13 0-1.83 1.34-1.84 2.46s1.34 1.8 2.47 1.8 1.83-1.33 1.84-2.46a1.93 1.93 0 0 0-2-1.87 1.84 1.84 0 0 0-.47.07Zm-25.31-.33c-.34.11-.91.67-.8 1s.67.9 1 .79.91-.67.8-1c-.24-.68-.69-.86-1-.79Zm-25.47-2.92c-.34.11-.34.11-.57.56.11.34.11.34.56.57.34-.12.34-.12.57-.56-.09-.34-.21-.72-.56-.57Zm-25.18-4.48c-.34.11-.23.45 0 0-.23.45-.12.79.22.68Zm-24.94-6.05c-.35.11-.35.11-.58.56.11.34.11.34.56.56.34-.11.34-.11.57-.56-.21-.67-.21-.67-.55-.56Zm-24.36-7.73c-.34.11-.34.11-.58.56.11.33.11.33.56.56.34-.11.34-.11.58-.56-.11-.33-.22-.69-.56-.56Zm-24.22-10.76a2.1 2.1 0 0 0-1.85 2.32s0 .09 0 .14a2.17 2.17 0 1 0 1.83-2.46Zm-23.53-10.98c-1.47.11-2.5 1.56-2.3 3.35.1 1.46 1.56 2.48 3.37 2.26 1.48-.1 2.51-1.56 2.3-3.35-.06-1.41-1.55-2.48-3.37-2.26Zm-22.51-11.31c-1.47.1-2.16 1.45-2.06 2.9s1.44 2.14 2.92 2 2.16-1.45 2.06-2.91c-.43-1.31-1.55-2.44-2.92-1.99Zm-22.03-13.33c-1.47.1-2.17 1.45-2.07 2.91s1.45 2.13 2.92 2 2.17-1.45 2.07-2.91-1.45-2.11-2.92-2Zm-20.47-11.98c-.1-.34-.34.11 0 0-.23.45.11.34.11.34Zm-39.57-33.7c-.69.22-1.26.78-1 1.45s.78 1.24 1.46 1 1.26-.77 1-1.45-.67-.89-1.46-1Zm-18.35-19.37a2.86 2.86 0 1 0 .76 5.67 1.7 1.7 0 0 0 .31-.06 2.51 2.51 0 0 0 2.45-2.57 3.41 3.41 0 0 0-3-3.15 3.12 3.12 0 0 0-.52.11ZM218 611.29a5 5 0 1 0 5.61 4.52c-.25-2.92-2.72-4.73-5.61-4.52Zm-15.39-18.12a3.21 3.21 0 1 0 3.82 2.49 3.45 3.45 0 0 0-3.82-2.49ZM188 572.58a3.06 3.06 0 1 0 3.48 2.6 2.92 2.92 0 0 0-3.17-2.64 1.55 1.55 0 0 0-.31.04Zm-13.3-21.36a2.5 2.5 0 1 0 2.92 2c-.01-1.09-1.45-2.11-2.92-2ZM163.27 530a1.46 1.46 0 1 0 1.57 1.35c-.33-1.04-.84-1.59-1.57-1.35Zm-10.5-23.07c-.68.22-1.25.78-1 1.45s.78 1.24 1.46 1 1.25-.78 1-1.45-.77-1.17-1.46-1Zm-9.25-22.7c-.24.45.11.34.11.34s.34-.11-.11-.34c.48.23.34-.11 0 0Zm-7.44-24.03c-.23.45.11.34.11.34Zm-6.18-24.81c-.23.44.11.33.11.33Zm-36.39-45.92c-.34.11-.34.11-.57.56.11.33.11.33.56.56.34-.11.34-.11.57-.56-.07-.33-.21-.67-.56-.56Zm-1.85-26.59c-1 .33-1.6.89-1.27 1.9s.89 1.57 1.91 1.24 1.59-.89 1.27-1.9a2.36 2.36 0 0 0-1.91-1.24Zm-.73-26.59a2.86 2.86 0 0 0 1.07 5.62 2.51 2.51 0 0 0 2.45-2.57 2.63 2.63 0 0 0-.15-.79c-.1-1.46-1.56-2.47-3.37-2.26Zm1.4-24.66c-1.13 0-1.83 1.33-1.84 2.45s1.34 1.81 2.47 1.81 1.83-1.34 1.84-2.46a2.66 2.66 0 0 0-2.47-1.8Zm2.52-23.55c-.34.11-.34.11-.57.56.11.34.11.34.56.56.34-.11.34-.11.57-.55s-.22-.65-.56-.57Zm33.7-122.32c-.23.45-.12.78.22.67s.23-.45-.22-.67c.45.24.34-.12 0 0ZM786 724a4.47 4.47 0 0 0-3.68 4.92 4.36 4.36 0 0 0 8.62-1.31c-.05-2.61-2.41-4.06-4.94-3.61Zm-21.95 13.46a3.76 3.76 0 1 0 4.38 3 4.27 4.27 0 0 0-4.38-3Zm-23.44 10.22a5 5 0 1 0 5.84 4.06c-.18-2.92-2.99-4.61-5.84-4.06Zm-23.84 8.87a6 6 0 0 0-5.28 6.65c0 .21.06.41.11.62.75 3.48 3.78 5.85 7.3 5.08a6 6 0 0 0 5.28-6.65c0-.21-.06-.41-.11-.62-.31-3.26-3.68-5.51-7.3-5.08Zm-24.16 7.86a7.17 7.17 0 1 0 8.31 5.87c-.45-3.59-4.38-6.42-8.31-5.87ZM669 777.65c-.68.23-1.6.9-1.27 1.91.22.67.89 1.57 1.91 1.24.68-.22 1.6-.89 1.27-1.9-.21-.68-.91-1.58-1.91-1.25Zm-24.73 6.18c-.68.22-1.59.89-1.26 1.9a1.57 1.57 0 0 0 1.85 1.25h.06c.68-.22 1.59-.89 1.26-1.9-.18-.68-1.18-1.47-1.91-1.25ZM619 788.32c-1 .33-1.6.89-1.27 1.9s.89 1.54 1.89 1.24 1.6-.89 1.27-1.9a2.37 2.37 0 0 0-1.89-1.24Zm-25.63 3.44c-1 .33-1.82 1.34-1.6 2 .33 1 1.34 1.8 2 1.58 1-.33 1.82-1.34 1.6-2a1.55 1.55 0 0 0-1.47-1.64 1.57 1.57 0 0 0-.53.06Zm-25.49 2.73c-.34.11-.91.67-.8 1s.67.9 1 .79.91-.67.8-1c.24-.44-.27-1.01-1-.79Zm-25.46.51c-.69.22-.92.66-.81 1 .22.68.67.9 1 .79.68-.22.92-.67.81-1s-.66-.96-1-.79Zm-25.58.06c-.23.45.11.34.11.34Zm-25.66-2.47c-.34.12-.34.12-.23.45s.11.34.45.23.34-.11.23-.45-.11-.34-.45-.23Zm-25.31-3.69c-.23.44-.12.78.22.67-.09-.34.23-.45-.22-.67Zm-25.06-5.27c-.24.45-.13.79.21.67a.48.48 0 0 0-.18-.65Zm-24.72-6.5c-.23.45.11.34 0 0Zm-24.48-9.19c-.68.22-1.26.78-1 1.46s.78 1.23 1.46 1 1.26-.78 1-1.45a1.91 1.91 0 0 0-1.46-1.01Zm-24.51-11.77a4 4 0 1 0 4.51 3.41c0-2.27-2.36-3.74-4.51-3.41ZM344.43 749c-.34.11-.68.22-.57.56s.22.67.56.56.68-.22.57-.56c.23-.44-.22-.66-.56-.56Zm-22.73-12a.71.71 0 1 0 .9.45c-.11-.31-.22-.69-.9-.45ZM300 724.7c-.24.45.11.34.11.34s.23-.45-.11-.34Zm-79.31-64.38a.71.71 0 1 0 .9.45.78.78 0 0 0-.9-.45Zm-17.32-19.7c-.68.22-1.6.89-1.27 1.9.22.67.89 1.57 1.91 1.24.68-.22 1.6-.89 1.27-1.9-.22-.67-1.23-1.46-1.91-1.24Zm-16.63-21.05a3.21 3.21 0 1 0 3.87 2.49 3.47 3.47 0 0 0-3.87-2.49ZM172 600.89c-.68.22-1.25.78-1 1.45s.78 1.24 1.46 1 1.25-.78 1-1.45-.67-.89-1.46-1Zm-14-21.13c-.69.23-.92.67-1 1.46.22.67.67.9 1.46 1 .68-.22.91-.66 1-1.45-.24-.68-.69-.91-1.46-1.01Zm-12.69-21.6a.71.71 0 1 0 .9.45.75.75 0 0 0-.9-.45Zm-11.52-22.71a.71.71 0 1 0 .9.45Zm-10.18-23.15a.71.71 0 1 0 .9.45.78.78 0 0 0-.9-.45ZM63.52 369c-.23.45-.23.45.22.67Zm-.85-25.76a.71.71 0 1 0 .9.45.75.75 0 0 0-.9-.45Zm.85-25.24c-.35.11-.69.22-.58.56s.22.67.56.56.68-.22.57-.56c.24-.44-.21-.66-.55-.56Zm54.18-194.92c-.23.45.11.34.11.34Zm679.57 629.68a2.11 2.11 0 0 0-1.86 2.33s0 .09 0 .13a2.09 2.09 0 0 0 2.3 1.84h.17a2.16 2.16 0 0 0-.45-4.3h-.18Zm-22.55 12.9c-1 .33-1.82 1.34-1.61 2 .33 1 1.34 1.8 2 1.58 1-.33 1.83-1.34 1.61-2 .03-1.12-.87-1.58-2-1.58Zm-22.98 11.56c-.69.23-1.6.89-1.27 1.91.22.67.89 1.57 1.91 1.24.68-.22 1.59-.89 1.27-1.9a1.83 1.83 0 0 0-1.91-1.25Zm-23.32 10.54c-.68.22-1.25.78-1 1.45s.78 1.24 1.46 1 1.25-.78 1-1.45-.78-1.2-1.46-1Zm-24.2 9c-.68.22-1.25.78-1 1.45s.77 1.24 1.46 1 1.25-.78 1-1.45-.78-1.22-1.46-1ZM553.3 823.82c-.34.11-.23.44 0 0-.23.44-.12.78.22.67Zm-25.69-.22c-.34.11-.23.44 0 0-.23.44-.12.78.22.67Zm-25.67-1.35c-.23.45.11.34.11.34s.34-.11-.11-.34Zm-25.43-2.91c-.23.45.11.34.11.34Zm-99.4-26.58c-.68.22-1.6.89-1.27 1.9.22.67.89 1.57 1.91 1.24.68-.22 1.6-.89 1.27-1.9a2.36 2.36 0 0 0-1.91-1.24Zm-23.34-8c-.34.11-.34.11-.23.44s.11.34.45.23.34-.11.23-.45a.34.34 0 0 0-.42-.23Zm-23.53-11c-.34.11-.68.22-.57.55s.22.68.56.57.68-.22.57-.56c.2-.47-.19-.7-.56-.56Zm-22.63-11.67c-.34.11-.34.11-.23.44s.11.34.45.23.34-.11.23-.45a.34.34 0 0 0-.42-.23Zm-119.14-94.28c-.23.45-.12.78.22.67ZM171.49 648c-.34.11-.91.67-.8 1s.66.9 1 .79.91-.67.8-1c.12-.79-.32-1.03-1-.79Zm-15.73-20.6c-.68.22-1.26.78-1 1.46s.78 1.23 1.46 1 1.26-.78 1-1.45a1.91 1.91 0 0 0-1.46-1.01Zm-14.49-20.25c-.34.11-.91.67-.81 1s.67.9 1 .79.92-.67.81-1c-.21-.67-.66-.94-1-.79ZM128 586.12c-.23.45-.12.79.22.68Zm657.61 207.29c-.34.11-.68.22-.57.56s.22.67.56.56.68-.22.57-.56c.24-.45-.17-.67-.56-.56Zm-23.08 11.23c-.35.11-.69.22-.58.56s.22.67.56.56.68-.22.58-.56c.23-.44-.22-.67-.56-.56Zm-23.43 10.22c-.34.11-.23.44 0 0-.23.44-.12.78.22.67Zm-200.81 36.9c-.68.22-.92.67-.81 1 .22.67.67.9 1 .79.68-.22.92-.67.81-1 .13-.79-.29-.98-1-.79Zm-25.57-1c-.68.22-.91.67-.8 1 .22.68.67.9 1 .79.68-.22.91-.67.8-1 .13-.79-.66-.87-1-.79ZM487.28 849c-.34.12-.23.45 0 0-.23.45-.12.79.22.68Zm-124.15-29.7c-.24.45.11.34.11.34Zm-47.08-20.84c-.34.11-.68.22-.57.56s.22.67.56.56.68-.22.57-.56c.23-.44-.22-.67-.56-.56Zm-22.51-11.31c-.23.45.11.34.11.34s.35-.11-.11-.34Zm-21.93-12.99c-.23.44.11.33.11.33s.28-.44-.11-.33Zm-21.22-14.34c-.23.45-.13.79.22.68a.5.5 0 0 0-.19-.67Zm-59-48.26c-.34.11-.23.44 0 0Zm-35.47-37.27c-.34.11-.34.11-.57.56.11.33.11.33.56.56.34-.11.34-.11.57-.56s-.11-.34-.56-.56Zm-16.07-20.48a1.46 1.46 0 1 0 1.57 1.35 1.24 1.24 0 0 0-1.07-1.39 1.2 1.2 0 0 0-.5.04ZM125 633.66c-.34.12-.91.67-.8 1s.67.9 1 .79.91-.67.8-1-.64-.9-1-.79Zm-14-21.14c-.34.11-.91.67-.8 1s.67.9 1 .79.91-.67.8-1c-.21-.68-.66-.9-1-.79Zm-12.9-21.14c-.23.44.11.33 0 0ZM5.53 352.86c.11.34.35-.11 0 0Zm517.85 527.25c-.34.11-.34.11-.57.55.11.34.11.34.56.57.34-.11.34-.11.57-.56s-.22-.67-.56-.56Zm-266.06-81.56c-.23.44-.23.44.22.67 0 0 .34-.11-.22-.67.45.21.34-.11 0 0Zm-41.78-28.9c-.23.45.11.35 0 0Zm-19.86-15.89c-.23.45.11.34 0 0ZM158 719.05c-.23.45.11.33.11.33.45.23.34-.11-.11-.33.49.22.38-.11 0 0Zm-33.6-38.62a.77.77 0 0 0-.46.9.71.71 0 0 0 1.36-.44Zm-15.95-21.26a2.15 2.15 0 1 0 2.47 1.8 1.79 1.79 0 0 0-1.64-1.93 1.81 1.81 0 0 0-.83.13Zm-14.16-19.24c-.34.11-.34.11-.58.55.11.34.11.34.56.57.34-.11.34-.11.58-.56-.11-.34-.24-.67-.56-.56Zm-13.46-21.71c-.34.11-.34.11-.57.56.11.34.11.34.56.56.34-.11.34-.11.57-.56a1.26 1.26 0 0 0-.56-.56Zm62.45 126.11c-.34.11-.34.11-.23.45s.11.34.45.23.34-.11.23-.45Zm-17.57-18.13c-.34.11-.34.11-.23.45s.11.33.45.22.34-.11.23-.44Zm-16.77-19.14c-.23.45-.12.79.22.67Zm-16.07-20.48c-.68.22-.91.67-1 1.45.22.68.67.9 1.46 1 .68-.22.91-.67 1-1.46-.22-.65-.78-1.21-1.46-.99Zm-15.26-21.49a2 2 0 1 0 2.39 1.54.64.64 0 0 0 0-.07 2.63 2.63 0 0 0-2.39-1.47Zm-14-20.02c-.34.11-.91.67-.8 1s.67.9 1 .79.91-.67.8-1c.19-.45-.37-1.02-1-.79Zm47.11 106.86c-.24.45.11.34.11.34Zm-17.34-18.58c-.23.45.11.34.11.34.34-.11.34-.11-.11-.34Zm-16.3-20.03a.71.71 0 1 0 .34 1.38h.09a.77.77 0 0 0 .47-.9.75.75 0 0 0-.9-.48Zm-15.61-21.38c-.68.22-1.6.89-1.27 1.9.22.68.89 1.58 1.91 1.24.68-.22 1.6-.89 1.27-1.9a2.36 2.36 0 0 0-1.91-1.24ZM47.09 672c-.34.11-.92.67-.81 1s.67.9 1 .79.92-.67.81-1c.13-.79-.32-1.03-1-.79Zm-13.58-20.89c-.23.44-.12.78.22.67a.47.47 0 0 0-.19-.65Zm12.04 68.35c-.34.11-.68.22-.57.56s.22.68.56.56.68-.22.57-.55-.22-.68-.56-.57Zm-14.71-20.92c-.34.11-.91.67-.8 1s.67.9 1 .79.91-.67.8-1-.66-.9-1-.79Zm-30.63 6.6c-.34.11-.21.44 0 0Z" style="fill:#f4f4f4"/></svg>