<svg width="545" height="662" xmlns="http://www.w3.org/2000/svg" xmlns:xlink="http://www.w3.org/1999/xlink"><defs><path id="a" d="M.054.52H7v38.099H.054z"/><path id="c" d="M.379.028H6v37.187H.379z"/><path id="e" d="M.544.106H10v37.051H.544z"/><path id="g" d="M0 0h7.159v31.263H0z"/><path id="i" d="M0 0h4.027v31.454H0z"/><path id="k" d="M.586.418h28.572V1H.586z"/><path id="m" d="M.038 0h.924v25.992H.038z"/></defs><g fill="none" fill-rule="evenodd"><path d="M540.136 183.624c-8.073-4.303-16.084-9.03-28.57-1.092 4.813-9.193 3.773-15.983 3.78-22.828 4.635-.938 8.636-1.272 12.29-2.577 11.912-4.253 17.544-15.72 13.312-26.408-4.787-12.086-16.06-16.822-28.21-11.757-2.302.96-4.448 2.3-6.667 3.466l.446-.413c-4.288 7.364-8.675 14.705-3.983 24.102l-14.93.977c-7.076 3.456-11.535 8.056-14.508 14.577-1.09 5.882-.675 12.075 2.972 21.146-9.517-7.233-16.793-4.356-26.18-2.218 4.723-10.286.037-17.42-1.9-25.047l.559.525c-5.115-.203-9.043-4.078-14.4-4.134-11.806-.124-19.617 6.462-20.181 17.866-.614 12.414 6.654 20.136 19.165 20.25 3.566.034 7.1-.34 10.296-2.325 2.614 2.386.055 4.538-.24 6.813-2.221 17.177 13.063 28.949 29.038 22.38 2.31-.95 4.49-2.224 6.73-3.348l-.488.477c1.873-4.088 3.873-8.124 5.585-12.28 1.996-4.84-2.436-9.396-1.71-14.863 8.285 3.968 15.959 2.394 26.172.334-8.93 10.922-2.738 18.696 1.096 26.809l-.487-.477c5.886 2.385 11.057 6.914 18.135 5.653 13.186-2.35 20.953-15.661 16.188-28.084-1.06-2.76-2.535-5.36-3.818-8.035l.508.51Z" fill="#E0E0E0"/><path d="M475.906 122.438c-8.812-5.717-17.998-7.686-27.871-2.78-.573 3.255-5.34 1.965-5.797 5.347-4.9 11.78-1.828 21.94 6.309 31.071l-.56-.524 12.816 3.094c8.15-1.734 14.296-5.118 18.287-12.572 4.956-9.256.218-16.474-3.655-24.083l.47.447ZM478.956 213.579c-.26 5.502-4.312 9.867-3.987 15.772.633 11.516 7.479 18.655 19.068 18.655 11.59 0 18.438-7.137 19.07-18.653.325-5.903-3.724-10.272-3.984-15.773l.487.476c-10.381-5.001-20.762-5.001-31.143 0l.489-.477Z" fill="#E0E0E0"/><g transform="matrix(1 0 0 -1 536 187.592)"><mask id="b" fill="#fff"><use xlink:href="#a"/></mask><path d="M34.71 34.55c-3.758 1.24-7.43 2.948-11.288 3.638C8.21 40.908-2.238 30.46.486 15.25c.692-3.855 2.405-7.527 3.65-11.283l-.509.51C7.374 3.27 11.04 1.603 14.88.933 30.063-1.716 40.43 8.686 37.73 23.859c-.682 3.833-2.377 7.486-3.606 11.222l.585-.531Z" fill="#E0E0E0" mask="url(#b)"/></g><path d="M506.071 122.428c.849-5.417 4.441-9.965 4.138-15.883-.594-11.615-7.529-18.699-19.238-18.692-11.7.007-18.616 7.106-19.215 18.72-.306 5.924 3.362 10.438 4.15 15.865l-.472-.447c10.357 5.287 20.717 5.318 31.082.024l-.445.413ZM442.237 125.005c.458-3.382 5.224-2.092 5.797-5.348V104.69c-4.84-11.049-12.998-15.069-24.624-12.369-4.618 2.184-8.256 5.551-10.932 10.69-3.225 10.838.284 19.227 10.715 24.603 6.804 1.865 13.077.718 19.044-2.608" fill="#E0E0E0"/><g transform="matrix(1 0 0 -1 537 247.592)"><mask id="d" fill="#fff"><use xlink:href="#c"/></mask><path d="M.477 24.882C-.36 10.24 4.16 2.227 14.317.34c8.68-1.613 17.778 3.186 21.068 11.113 3.506 8.449-.271 18.743-8.585 23.4-9.142 5.12-17.461 1.969-26.323-9.971" fill="#E0E0E0" mask="url(#d)"/></g><g transform="matrix(1 0 0 -1 533 125.592)"><mask id="f" fill="#fff"><use xlink:href="#e"/></mask><path d="M1.213 12.223c2.915-5.459 6.074-8.6 10.647-11.028C15.76-.35 20.24.018 24.793.658c5.429 2.028 9.156 5.927 11.836 11.011 1.304 4.43 1.098 8.905.239 13.393-2.194 4.721-5.593 8.298-10.405 10.928-4.118 1.632-8.598 1.265-13.152.625-5.428-2.029-9.156-5.927-11.834-11.009-1.312-4.43-1.088-8.908-.264-13.383" fill="#E0E0E0" mask="url(#f)"/></g><path d="M464.02 241.508c-9.692-.325-18.546 8.22-18.632 17.98-.086 9.722 8.648 18.406 18.357 18.252 9.118-.145 17.327-8.054 17.875-17.222.566-9.467-7.972-18.688-17.6-19.01M524.784 241.508c-9.707-.136-18.434 8.568-18.328 18.28.105 9.756 8.98 18.293 18.66 17.952 8.997-.318 17.228-8.526 17.572-17.526.37-9.654-8.164-18.57-17.904-18.706M451.276 232.564c.25-9.971-7.873-18.476-17.885-18.726-9.971-.25-18.476 7.875-18.726 17.887-.248 9.968 7.877 18.473 17.885 18.724 9.976.25 18.476-7.87 18.726-17.885M401.88 219.74c9.723.35 18.573-8.152 18.687-17.95.114-9.732-8.6-18.438-18.328-18.31-9.187.118-17.36 7.956-17.933 17.193-.585 9.477 7.933 18.72 17.573 19.067M417.53 140.45c-.057-9.86-8.81-18.35-18.615-18.053-9.133.275-17.287 8.339-17.677 17.478-.413 9.712 8.059 18.636 17.857 18.812 9.767.174 18.492-8.456 18.435-18.236M459.853 58.203c-9.946.368-18.224 9.386-17.62 19.198.61 9.917 9.847 18.045 19.577 17.225 9.296-.783 16.985-9.186 16.86-18.422-.136-9.98-8.904-18.368-18.817-18.001M521.788 58.175c-9.848-.163-18.351 8.092-18.516 17.977-.163 9.838 8.103 18.352 17.978 18.516 9.849.163 18.357-8.099 18.514-17.977.157-9.855-8.093-18.353-17.976-18.516M389.215 171.11c-4.536-12.366-4.536-12.366-16.643-17.397-10.183 1.333-16.256 7.052-17.98 17.33 1.502 9.596 7.014 15.372 17.029 17.346 9.793-1.288 15.879-6.993 17.594-17.278M491.047 28.447c-9.999 1.606-15.877 7.464-17.509 17.528 4.633 12.278 4.633 12.278 16.604 17.379 10.068-1.23 16.308-6.714 18.237-17.52-1.343-9.542-7.068-15.551-17.332-17.387M493.487 307.552c10.492-2.088 16.308-7.494 17.657-17.835-1.39-8.81-6.543-14.86-17.116-16.728-9.299 1.11-15.395 6.736-17.182 17 4.4 12.35 4.4 12.35 16.641 17.563M383.616 116.917c2.226-9.014 1.33-16.95-8.095-21.767-4.475-1.153-8.95-1.187-13.42.039-9.398 4.866-10.243 12.807-7.99 21.788 11.21 12.18 18.368 12.16 29.505-.06M364.973 246.837c8.96 2.272 16.85 1.36 21.738-8.062 1.188-4.368 1.157-8.826.035-13.19-4.85-9.452-12.734-10.408-21.725-8.158-12.198 11.135-12.213 18.205-.048 29.41" fill="#E0E0E0"/><g transform="matrix(1 0 0 -1 535.84 61.297)"><mask id="h" fill="#fff"><use xlink:href="#g"/></mask><path d="M31.201 22.195C25.465 31.91 17.754 32.27 9.352 30.322-3.012 19.242-3.088 12.004 8.954.734 21.961-.71 21.961-.71 30.46 7.233c2.208 4.747 1.83 9.742.742 14.962" fill="#E0E0E0" mask="url(#h)"/></g><path d="M447.735 299.97c1.104-5.14 1.036-9.155.058-13.156-1.844-3.778-4.652-6.587-8.434-8.428-8.619-1.895-16.202-.992-20.962 7.986-1.514 4.22-1.147 8.72-.356 13.107 10.965 12.789 18.045 12.95 29.694.492M415.06 56.364c8.8 8.59 8.8 8.59 21.798 7.416 12.282-11.006 12.36-18.244.316-29.514-13.006-1.443-13.006-1.443-21.504 6.5-2.21 4.746-1.831 9.741-.61 15.598M415.346 78.952c-.227-9.975-6.304-15.664-16.485-15.432-9.984.228-15.665 6.293-15.433 16.478.228 9.984 6.294 15.665 16.48 15.433 9.961-.227 15.67-6.32 15.438-16.48M387.528 255.842c-1.144 4.709-1.237 9.205.067 13.69 8.261 9.288 8.261 9.288 22.032 7.807 12.052-11.205 11.997-18.416-.311-29.522-8.366-1.967-16.053-1.617-21.788 8.025" fill="#E0E0E0"/><g transform="matrix(1 0 0 -1 538.973 305.893)"><mask id="j" fill="#fff"><use xlink:href="#i"/></mask><path d="M9.254 1.019C18.247-1.23 26.132-.271 30.96 9.152a26.04 26.04 0 0 1 .068 12.994c-4.516 9.002-11.88 10.409-20.535 8.649C-3.1 20.615-3.46 12.617 9.254 1.019" fill="#E0E0E0" mask="url(#j)"/></g><path d="M524.107 305.468c-8.399.268-15.252 7.73-14.758 16.068.499 8.404 8.137 15.081 16.449 14.377 7.858-.666 14.04-7.426 13.997-15.307-.047-8.506-7.2-15.409-15.688-15.138M342.02 186.354c-8.271-.375-15.541 6.297-15.91 14.603-.368 8.279 6.3 15.544 14.607 15.913 8.278.368 15.544-6.3 15.914-14.606.368-8.28-6.291-15.533-14.61-15.91M463.661 305.466c-8.514-.097-15.512 6.933-15.379 15.449.132 8.493 7.366 15.348 15.828 14.999 7.777-.322 14.332-6.907 14.617-14.687.311-8.47-6.568-15.664-15.066-15.761M460.92 30.675c8.576-.26 15.114-7.212 14.852-15.79-.262-8.577-7.214-15.115-15.79-14.852-8.582.263-15.122 7.215-14.853 15.788.27 8.586 7.211 15.116 15.79 14.854M536.874 15.538C536.969 6.874 530.354.1 521.702.001c-8.662-.099-15.438 6.517-15.537 15.17-.098 8.662 6.517 15.438 15.17 15.537 8.662.097 15.444-6.524 15.539-15.17M337.778 155.78c8.535.31 15.686-6.525 15.776-15.081a15.199 15.199 0 0 0-15.462-15.394c-7.931.123-14.518 6.404-15.015 14.317-.524 8.366 6.285 15.85 14.701 16.158M383.825 48.395c-.317-7.192-8.013-14.526-15.14-14.428-7.193.099-14.68 7.56-14.808 14.76-.14 7.773 8.263 15.799 15.9 15.189 7.254-.581 14.36-8.432 14.048-15.521M353.13 80.219c.445-6.846-6.597-14.848-13.692-15.557-7.405-.74-15.938 7.196-15.934 14.819.003 6.996 7.416 14.597 14.44 14.805 6.95.208 14.726-6.995 15.186-14.067M386.727 293.21c0-7-7.403-14.597-14.446-14.823-7.59-.243-15.694 8.06-15.2 15.575.466 7.08 8.247 14.277 15.199 14.058 7.05-.22 14.447-7.804 14.447-14.81M414.277 17.704c-.428-7.117-8.218-14.381-15.218-14.19-7.75.214-15.452 8.89-14.515 16.349.907 7.205 9.053 14.075 15.927 13.43 7.145-.67 14.222-8.661 13.806-15.59M417.035 323.685c-1.934-8.677-6.663-13.234-14.6-14.435-7.77 1.155-12.601 5.59-14.453 13.8.616 8.139 5.105 13.41 14.377 15.115 8.772-.765 13.387-6.43 14.676-14.48M479.498 350.857c1.87 8.99 6.584 13.614 14.584 14.744 7.853-1.327 12.954-5.54 14.235-14.946-.893-7.39-5.615-12.504-14.367-13.79-9.852 4.09-9.852 4.09-14.452 13.992M341.192 277.318c8.552-1.583 13.206-6.238 14.734-14.3-1.034-8.355-5.772-13.432-14.515-14.906-8.407 1.259-13.254 6.23-14.628 14.413 1.315 8.186 5.867 12.943 14.409 14.793M311.018 156.468c-8.607 1.66-13.228 6.319-14.691 14.386 1.099 8.297 5.876 13.302 14.403 14.706 9.933-4.022 9.933-4.022 14.54-13.254-.424-8.777-5.294-13.716-14.252-15.838" fill="#E0E0E0"/><g transform="matrix(1 0 0 -1 415 2.592)"><mask id="l" fill="#fff"><use xlink:href="#k"/></mask><path d="M15.1.418c7.749 1.346 12.754 5.622 14.058 14.758-.967 7.528-5.71 12.581-14.361 13.851C6.834 27.823 2.187 23.175.586 14.97 1.644 6.726 6.36 1.653 15.1.418" fill="#9CADB7" mask="url(#l)"/></g><g transform="matrix(1 0 0 -1 542.038 364.21)"><mask id="n" fill="#fff"><use xlink:href="#m"/></mask><path d="M2.033 4.71c6.308-6.43 12.93-4.991 19.05-3.144 6.332 6.732 5.742 13.268 2.955 19.86-6.283 5.907-12.82 5.318-19.42 2.526-5.876-6.28-5.35-12.808-2.585-19.242" fill="#E0E0E0" mask="url(#n)"/></g><path d="M442.403 364.438c4.462-11.974 3.974-17.53-1.497-21.089-4.54-2.953-13.303-2.439-17.12 1.004-4.868 4.393-4.681 10.625.708 20.616 5.654 3.015 11.395 3.025 17.909-.53M300.024 240.857c10.41 5.208 16.542 5.313 20.816.579 3.79-4.198 3.975-13.798.351-18.234-3.468-4.245-13.095-5.811-18-2.178-7.48 5.538-6.089 12.786-3.167 19.833M317.145 120.63c3.766-9.84 3.766-9.84 1.234-19.464-5.857-5.872-12.497-4.545-18.802-2.477-6.188 6.614-5.612 13.18-2.786 19.837 6.288 5.854 12.845 5.35 20.354 2.103M277.9 128.197c-6.973-.365-12.643 4.733-13.002 11.691-.36 6.961 4.754 12.647 11.697 13.006 6.961.36 12.647-4.755 13.006-11.698.36-6.963-4.746-12.635-11.7-12.999M292.697 202.265c.366-7.043-4.715-12.695-11.735-13.055-7.031-.36-12.699 4.735-13.058 11.74-.361 7.03 4.735 12.7 11.74 13.058 7.033.361 12.688-4.727 13.053-11.743M353.674 324.39c.365-6.881-4.777-12.597-11.655-12.957-6.87-.36-12.602 4.798-12.96 11.662-.359 6.87 4.797 12.602 11.661 12.96 6.873.36 12.59-4.79 12.954-11.665M371.305 342.05c-6.846.34-12.186 6.406-11.63 13.206.552 6.723 6.906 11.972 13.585 11.223 6.11-.686 10.99-6.264 10.872-12.424-.132-6.86-5.994-12.346-12.827-12.005M350.756 17.727c-.368-7.077-6.004-12.13-13.12-11.758-7.087.368-12.127 5.99-11.76 13.118.365 7.08 5.998 12.13 13.122 11.76 7.077-.368 12.128-6.004 11.758-13.12M307.108 36.61c-6.906.372-12.027 6.086-11.655 13.006.372 6.907 6.085 12.028 13.005 11.656 6.907-.371 12.026-6.081 11.656-13.004-.367-6.91-6.08-12.03-13.006-11.657M292.34 262.321c-.192-6.01-5.621-11.465-11.635-11.687-6.601-.244-12.662 5.793-12.445 12.397.199 6.011 5.632 11.467 11.643 11.688 6.601.245 12.647-5.783 12.437-12.398M323.086 292.503c-.396-6.868-6.503-12.153-13.337-11.542-6.741.603-11.922 6.993-11.12 13.714.739 6.163 6.303 10.948 12.538 10.781 6.9-.184 12.315-6.07 11.919-12.953M524.671 369.407c-6.89-.047-12.4 5.374-12.45 12.252-.05 6.887 5.376 12.4 12.252 12.45 6.888.05 12.401-5.376 12.45-12.253.05-6.888-5.379-12.403-12.252-12.45M402.087 396.78c6.52.215 12.562-5.85 12.318-12.367-.221-5.933-5.692-11.38-11.614-11.568-6.532-.207-12.566 5.85-12.321 12.366.222 5.932 5.685 11.371 11.617 11.568M276.897 91.539c6.639.216 12.66-5.831 12.417-12.468-.224-6.048-5.666-11.468-11.71-11.658-6.647-.21-12.663 5.83-12.418 12.467.223 6.047 5.663 11.462 11.71 11.659M475.856 381.08c-.37-6.943-6.063-12.045-13.027-11.673-6.946.37-12.047 6.063-11.676 13.027.371 6.946 6.059 12.044 13.026 11.676 6.948-.367 12.049-6.058 11.677-13.03M258.468 171.21c-1.536-6.863-5.187-10.557-11.67-11.783-6.463.97-10.547 4.733-11.696 11.526 3.605 7.509 3.605 7.509 10.5 11.716 6.975-.292 10.963-4.19 12.866-11.458M494.319 400.565c-6.901 1.359-10.551 5.049-11.913 11.39.735 6.655 4.722 10.53 11.204 12.008 7.127-.967 10.763-5.182 12.126-11.235-1.074-6.757-4.737-10.441-11.417-12.163M266.014 18.15c1.321 6.787 5.003 10.411 11.234 11.41 6.163-1.055 10.015-4.503 11.092-11.197-.692-5.86-4.286-9.583-10.7-11.116-5.929.57-9.828 3.966-11.626 10.903M299.698 354.296c1.108 6.357 4.765 9.99 10.993 11.104 6.072-.986 10.07-4.264 11.218-11.062-.537-5.811-4.155-9.516-10.536-11.216-6.546.653-10.555 4.443-11.675 11.174M421.642 415.85c1.48 5.825 4.734 9.326 10.727 10.77 6.37-.367 10.367-4.151 11.89-10.81-3.446-7.6-3.446-7.6-10.24-11.79-7.496.626-11.556 4.823-12.377 11.83M250.375 243.64c6.266-1.69 9.92-5.31 10.863-11.49-.89-6.043-4.436-9.754-10.655-11.446-6.5.386-10.612 4.03-12.298 11.13.888 6.955 5.023 11.075 12.09 11.806M258.275 110.001c-1.469-6.625-5.089-10.263-11.422-11.479-6.478.886-10.408 4.714-11.609 11.457.894 6.068 4.441 9.777 10.66 11.47 6.502-.389 10.613-4.034 12.371-11.448M519.295 451.724c2.5.247 4.485.744 6.397.548 1.893-.195 3.714-1.09 4.866-1.456 4.18-4.333 4.715-8.763 2.32-12.976-3.462-6.094-8.915-5.019-14.083-3.35-5.091 5.723-5.093 10.97.5 17.234M258.728 353.701c-.338-5.19-5.164-9.107-10.274-8.339-4.579.687-7.944 4.864-7.644 9.488.335 5.17 5.188 9.11 10.278 8.342 4.58-.69 7.942-4.868 7.64-9.49M240.084 41.142c-3.967 5.37-3.987 9.977-.69 14.704 4.49 3.688 9.107 3.708 13.868.732 4.095-4.39 3.976-9.042 1.359-13.876-4.245-4.317-8.92-4.305-14.537-1.56M285.807 314.597c-2.544-.286-4.54-.808-6.477-.643-1.927.165-3.794 1.022-5.24 1.445-4.747 5.275-4.758 10.26-1.29 15.363 7.053 2.377 7.053 2.377 14.362.747 4.224-5.356 4.296-10.691-1.355-16.912M455.801 449.352c5.31 3.937 9.851 3.955 14.605.627 3.52-4.364 3.935-9.154.432-13.551-3.808-4.78-8.774-3.35-12.885-1.976-4.877 4.762-4.843 9.373-2.152 14.9M225.487 79.263c-.111-5.677-3.807-9.208-9.517-9.094-5.678.114-9.21 3.81-9.093 9.519.114 5.677 3.806 9.203 9.519 9.093 5.687-.111 9.204-3.793 9.09-9.518M334.56 376.968c-3.88 5.378-3.9 9.969-.877 14.52 4.395 4.3 9.094 3.543 13.542 1.8 5.213-4.98 4.61-10.013 2.37-14.702-4.954-4.528-9.602-4.348-15.035-1.618M279.654 393.825c5.396.375 9.727-3.712 9.663-9.117-.058-4.791-3.615-8.58-8.364-8.91-5.403-.376-9.722 3.702-9.662 9.119.053 4.788 3.612 8.579 8.363 8.908M411.632 445.556c-.184-5.54-4.333-9.26-9.895-8.873-5.443.379-9.075 4.77-8.495 10.272.518 4.902 4.11 8.09 9.141 8.117 5.647.028 9.436-3.87 9.25-9.516M256.556 285.58c-14.938-2.925-17.217-.684-14.6 13.938 4.637 4.329 9.579 4.382 14.622 1.082 3.722-4.819 3.75-9.394-.022-15.02M211.742 208.432c5.08 3.604 9.305 3.243 13.336 1.34 5.1-4.935 4.406-9.916 1.854-14.85-7.445-2.43-7.445-2.43-14.328-.631-2.483 6.642-2.483 6.642-.862 14.14M319.787 414.991c-.209-5.195-4.94-9.246-10.048-8.605-4.576.574-8.055 4.694-7.862 9.31.216 5.187 4.961 9.248 10.057 8.608 4.577-.575 8.04-4.68 7.853-9.313M208.033 146.7c5.754 4.478 10.301 3.964 14.637 1.51 3.934-4.878 4.349-9.669.846-14.065-3.808-4.78-8.775-3.35-12.721-2.032-5.3 4.785-4.595 9.48-2.762 14.586M363.814 421.626c5.803 4.184 10.344 4.2 15.098.775 3.403-4.376 3.887-9.209.243-13.512-3.818-4.507-8.745-3.822-13.215-1.458-4.787 4.38-3.972 9.08-2.126 14.195M194.617 171.719a8.936 8.936 0 0 0-9.072-9.612c-4.675.058-8.533 3.681-8.865 8.324-.378 5.281 3.768 9.672 9.075 9.612 4.671-.054 8.531-3.68 8.862-8.324M503.006 473.528a8.924 8.924 0 0 0-9.544-9.138c-4.66.302-8.296 4.115-8.392 8.796a8.922 8.922 0 0 0 9.542 9.14c4.63-.297 8.3-4.144 8.394-8.798M228.52 262.244c-.237-5.653-4.39-9.292-10.1-8.852-5.564.43-9.106 4.815-8.467 10.481.564 5.01 4.14 8.11 9.333 8.088 5.769-.025 9.478-3.927 9.234-9.717M433.453 467.468c-5.255 1.403-7.908 4.12-9.166 8.36.295 5.361 4.061 7.557 7.564 9.364 5.486-.543 7.87-3.618 9.714-7.415.258-5.464-3.204-8.077-8.112-10.309M372.13 468.185c-4.746.743-7.03 3.813-8.486 7.435.58 4.958 3.453 7.467 7.599 9.02 4.59-.202 6.996-3.266 8.89-7.18-.297-5.191-3.338-8.016-8.003-9.275M197.922 232.329c-1.895-5.42-4.847-7.78-8.27-9.06-5.912.499-8.048 4.256-9.947 7.83.92 5.733 3.958 8.537 8.747 9.927 5.036-.703 7.549-4.062 9.47-8.697M350.068 445.108c-1.63-4.34-4.486-6.82-7.794-7.886-5.516.491-7.594 3.871-9.524 7.217.076 5.581 3.334 8.288 8.054 10.162 5.456-.9 8.67-4.028 9.264-9.493M194.757 109.553c-1.992-4.547-4.373-7.54-9.04-8.384-4.756.76-7.559 3.798-8.943 8.561.798 4.967 3.834 7.771 8.6 9.153 4.964-.799 7.772-3.84 9.383-9.33M158.861 193.386c-5.093.906-7.515 3.77-8.825 7.445.45 4.983 3.487 7.295 7.202 8.877 4.812-.177 7.258-3.123 9.041-7.195-.116-5.141-3.584-7.533-7.418-9.127M189.027 284.888c-4.677.627-7.049 3.587-8.686 7.474.317 5.258 3.772 7.652 7.473 9.229 5.252-.677 7.605-3.655 9.26-7.547-.493-5.1-3.47-7.923-8.047-9.156M210.468 324.637c1.817 4.063 4.186 7.14 8.747 7.79 4.545-.6 6.922-3.67 8.693-7.535-.052-5.329-3.33-8.056-8.087-9.929-5.535.881-8.757 4.042-9.353 9.674M185.757 40.342c-4.824 1.643-7.626 4.148-8.47 8.545.71 4.414 3.565 6.886 7.699 8.437 4.96-.517 7.8-3.482 9.04-8.223-.728-4.52-3.58-6.996-8.27-8.76M225.238 19.29c-1.391-5.674-4.176-8.287-8.476-9.634-5.103.521-7.968 3.586-9.376 8.539.929 4.953 3.91 7.871 8.445 8.914 5.167-.444 7.189-3.934 9.407-7.819M274.612 441.939c-1.02 3.062-1.437 5.964.786 8.69 3.117 2.365 6.322 2.409 9.621.185 2.4-3.15 2.443-6.354.077-9.857-3.653-2.44-7.217-2.345-10.484.982M123.017 236.548c2.761 2.323 5.595 2.179 8.636.603 2.807-2.948 2.875-6.126.635-9.352-2.805-2.327-5.636-2.221-8.637-.697-2.822 2.987-2.952 6.158-.634 9.446M150.966 23.529c2.953 1.218 5.326 1.351 7.79.19 3.069-2.554 3.116-5.707 1.502-9.21-2.778-2.824-5.892-2.926-9.347-.967-3.164 3.566-2.301 6.955.055 9.987M154.16 318.532c-2.686 3.552-2.576 6.298-1.054 9.173 2.787 2.975 5.947 2.537 8.993 1.234 2.924-3.34 2.867-6.435.746-9.562-2.62-2.37-5.424-2.07-8.685-.845M149.558 74.972c-1.251 3.504-1.552 6.333.442 9.168 2.806 2.613 6.017 2.36 9.385.815 2.92-2.778 2.729-6.037 1.415-9.576-3.833-3.75-7.662-3.039-11.242-.407M129.083 175.855c2.148-3.497 2.11-6.234.28-9.04-2.915-2.889-6.046-1.995-8.62-.997-2.796 3.217-2.704 5.993-1.356 9.073 2.55 2.82 5.66 3.053 9.696.964M193.88 349.747c-3.54-2.366-6.34-2.226-9.272-.84-2.88 2.734-2.835 5.953-1.309 9.428 2.762 2.971 6.003 2.767 9.338 1.471 3.016-2.898 3.042-6.098 1.242-10.059M153.057 267.619c3.53 2.007 6.332 2.134 9.588.345 2.785-2.928 2.922-6.437.611-9.955-3.319-2.724-6.488-2.123-9.342-.92-3.03 3.425-2.842 6.61-.857 10.53M498.047 539.638c2.687-3.552 2.575-6.298 1.032-9.212-2.782-2.766-5.893-2.814-9.123-.915-3.069 3.048-2.21 6.177-1.142 8.786 3.167 2.867 5.971 2.566 9.233 1.34M245.463 420.973c3.307 1.18 6.137 1.482 8.942-.492 2.762-2.815 2.166-6.06 1.11-9.127-3.044-3.2-6.303-3.007-9.885-1.677-3.442 3.813-3.247 7.648-.167 11.296M315.004 481.822c2.725-3.684 2.548-6.534 1.09-9.5-2.893-3.092-6.183-2.485-9.314-1.323-2.992 3.487-2.895 6.694-.794 9.934 2.717 2.433 5.633 2.031 9.018.89M149.462 145.323c4.022 2.473 6.906 2.386 9.966.941 3.179-3.292 3.35-6.894.889-10.532-3.381-2.825-6.636-2.224-9.361-1.013-3.567 3.576-2.866 6.89-1.494 10.604M223.175 379.12c-3.062-1.021-5.964-1.437-8.691.786-2.364 3.118-2.408 6.323-.184 9.622 3.149 2.399 6.354 2.443 9.857.077 2.44-3.653 2.345-7.217-.982-10.484M408.111 510.873c1.016-3.053 1.433-5.946-.785-8.664-3.107-2.355-6.302-2.4-9.591-.182-2.39 3.139-2.434 6.334-.077 9.827 3.643 2.43 7.197 2.336 10.453-.981M467.775 512.741c3.241-4.169 2.616-7.365 1.485-9.942-3.71-3.52-6.973-2.63-9.893-1.626-3.32 3.332-2.852 6.625-1.692 9.81 2.993 3.266 6.314 3.051 10.1 1.758M519.784 498.352c-2.606 4.098-2.651 7.336-.26 10.55 3.21 2.466 6.454 2.341 9.823.266 2.747-3.032 2.51-6.312.763-9.763-2.891-2.896-6.191-2.857-10.326-1.053M128.461 287.35c-4.04.44-5.488 2.355-6.537 4.729-.346 3.538 1.58 5.546 4.583 6.827 3.547.365 5.542-1.576 6.824-4.573.378-3.561-1.607-5.536-4.87-6.982M347.5 506.573c-.99-3.214-2.578-4.95-5.278-5.53-3.523-.277-5.565 1.585-6.77 4.706-.18 4.09 1.594 6.596 5.766 7.146 3.56-.201 5.467-2.124 6.282-6.322M286.302 507.34c-1.77-3.513-3.065-5.638-5.966-5.764-3.014.239-4.264 2.379-5.385 4.39-.257 3.286 1.745 4.789 3.868 6.147 3.933.954 5.327-1.858 7.483-4.773M124.404 116.309c3.765-1.161 5.5-2.748 6.081-5.448.276-3.523-1.586-5.564-4.706-6.77-4.092-.181-6.597 1.594-7.112 5.504.059 3.918 2.348 5.496 5.737 6.714M152.05 386.566l3.605 3.486c4.94.378 6.841-1.623 7.891-4.753.21-3.138-2.109-4.387-4.18-5.834-4.55-.254-5.947 2.69-7.316 7.1M94.603 134.817c-3.627 1.135-5.414 2.682-5.949 5.507-.068 3.005 2.212 4.239 4.366 5.605 3.556.068 5.526-1.826 6.406-5.034.092-3.163-2.236-4.37-4.823-6.078M255.583 475.8c-1.56-2.671-2.927-4.715-5.58-4.908-3.151.08-4.45 2.213-5.71 4.333-.437 3.686 1.944 5.318 4.3 6.722 4.79-.073 6.24-2.878 6.99-6.146M91.516 262.143c1.156 3.495 2.654 5.24 5.374 5.782 2.92.047 4.09-2.205 5.453-4.258.053-3.451-1.834-5.332-4.903-6.223-3.071-.073-4.213 2.232-5.924 4.699M94.01 73.854c-3.002 1.504-4.898 2.908-5.221 5.357.304 3.136 2.264 4.458 4.562 5.49 2.948.234 4.362-1.78 5.744-3.827.76-3.693-1.601-5.293-5.085-7.02M182.888 415.956c1.56 2.672 2.927 4.716 5.58 4.91 3.151-.082 4.45-2.213 5.71-4.334.437-3.686-1.944-5.318-4.3-6.722-4.79.073-6.24 2.878-6.99 6.146M432.6 531.37c-3.196.995-4.925 2.576-5.51 5.26-.276 3.511 1.594 5.535 4.69 6.745 4.074.18 6.562-1.6 7.119-5.744-.205-3.543-2.126-5.439-6.298-6.262M372.528 543.4c2.739-1.438 4.739-2.778 5.029-5.965-.182-3.05-2.127-4.869-5.377-5.627-3.378.2-5.191 2.153-5.95 5.396.188 3.394 2.172 5.187 6.298 6.196M305.067 538.46l3.348 3.929c4.58.433 5.997-1.627 7.37-3.666.517-3.012-1.368-4.571-3.389-6.022-3.842-.972-5.37 1.468-7.329 5.759M130.454 49.783c-.45-4.051-2.369-5.505-4.673-6.562-3.611-.356-5.644 1.55-6.914 4.587-.366 3.558 1.555 5.578 4.587 6.85 3.572.378 5.571-1.588 7-4.875M127.824 360.175l4.681-4.105c.523-4.145-1.535-5.888-4.585-6.867-3.033.105-4.297 2.166-5.355 4.478-.224 3.073 2.076 4.28 5.26 6.494M96.48 195.794c-2.637 1.582-4.802 2.852-4.886 5.791.072 2.938 2.297 4.163 4.135 5.477 3.87.461 5.503-1.92 6.907-4.277-.073-4.789-2.878-6.24-6.156-6.99M529.98 565.122c-.195-3.059-2.25-4.41-4.653-5.569-3.463.118-5.454 1.96-6.136 5.206.143 3.131 2.25 4.436 4.625 5.605 3.489-.098 5.448-1.987 6.165-5.242M463.342 573.422c3.059-.197 4.41-2.251 5.569-4.655-.118-3.462-1.96-5.453-5.206-6.136-3.131.145-4.436 2.25-5.605 4.626.098 3.489 1.987 5.448 5.242 6.165M407.685 568.738c-.672-3.543-2.365-5.097-4.978-5.8-2.976.027-4.206 2.152-5.32 4.37-.262 3.088 2.103 4.263 3.795 5.747 3.965.304 5.207-2.342 6.503-4.317M225.043 446.809c-.5-4.072-2.415-5.478-4.697-6.557-3.536-.41-5.319 1.777-6.677 4.21-.476 3.857 1.732 5.622 4.153 6.987 3.853.457 5.656-1.711 7.221-4.64M32.888 20.833c.984.104 2.204-.462 2.309-2.118.049-.783-.41-2.054-1-2.329-1.288-.6-2.955-.444-3.508 1.074-.476 1.31-.015 2.737 2.199 3.373M90.15 18c4.804 3.477 4.804 3.477 6.823-1.145-2.098-2.247-4.105-2.087-6.823 1.146M221.258 567.771c-.634-.574-1.24-1.593-1.907-1.634-1.948-.118-2.438 1.388-1.924 2.864.197.57 1.719 1.108 2.454.925.6-.149.93-1.393 1.377-2.155M494.019 598.533c1.615.318 2.702-.74 2.938-2.195.326-2.01-.117-3.74-2.823-3.978-1.9-.168-2.91.963-3.147 2.244-.368 1.974.207 3.862 3.032 3.929M436.132 599.18c-.662-2.708-1.417-3.708-3.325-3.543-1.785.154-2.653.994-2.785 2.718-.217 2.852 1.702 3.486 3.803 3.08 1.39-.27 2.587-1.502 2.307-2.255M374.781 599.143c.266-1.614-.502-3.027-1.907-3.283-1.916-.349-3.897-.009-3.74 2.846.094 1.715.957 2.434 2.587 2.69 1.869.291 2.476-.91 3.06-2.253M279.962 570.649c1.813.301 2.684-.64 2.973-2.328.32-1.867-.714-2.669-2.35-3.006-1.928-.397-2.697.827-3.012 2.36-.371 1.81.694 2.696 2.389 2.974M313.338 598.88c.266-1.73-.625-2.545-2.218-2.814-1.763-.3-2.512.68-2.826 2.222-.373 1.824.792 2.53 2.232 2.833 1.73.365 2.504-.706 2.812-2.24M249.237 596.507c-.483.724-1.407 1.482-1.358 2.166.14 1.885 1.68 2.186 3.035 1.493.576-.294 1.03-1.87.745-2.508-.276-.62-1.571-.786-2.422-1.151M341.35 571.052c1.615.317 2.702-.74 2.938-2.195.327-2.01-.116-3.74-2.822-3.978-1.9-.168-2.91.962-3.147 2.244-.368 1.974.207 3.862 3.031 3.93M66.468 49.206c-.216-2.147-1.093-3.04-2.76-3.132-2.821-.156-3.242 1.789-2.885 3.787.269 1.513 1.749 2.255 3.305 1.846 1.418-.373 2.778-1.065 2.34-2.501M524.787 623.42c-1.664-.261-2.443.744-2.712 2.277-.3 1.71.615 2.545 2.213 2.812 1.764.296 2.516-.68 2.826-2.222.365-1.815-.79-2.448-2.327-2.867M466.09 628.731c-.4-1.45-1.073-2.56-2.865-2.198-1.55.313-2.507 1.091-2.202 2.846.277 1.593 1.118 2.509 2.829 2.192 1.532-.284 2.538-1.069 2.239-2.84M404.984 630.152c-.579-3.041-1.735-3.7-3.233-3.305-1.6.423-1.965 1.95-1.566 3.28.184.612 1.432 1.242 2.215 1.264 1.571.045 2.707-.71 2.584-1.239M339.347 629.322c.634.575 1.241 1.593 1.907 1.634 1.95.118 2.438-1.388 1.925-2.864-.198-.57-1.72-1.108-2.455-.924-.6.149-.929 1.392-1.377 2.154M32.631 76.89c-1.45.4-2.56 1.073-2.198 2.865.313 1.548 1.091 2.507 2.846 2.201 1.593-.277 2.51-1.117 2.191-2.829-.283-1.53-1.068-2.537-2.839-2.238M188.933 539.778c1.738-.331 2.398-1.486 2.001-2.984-.423-1.602-1.95-1.965-3.28-1.566-.612.184-1.23 1.427-1.266 2.215-.072 1.61.79 2.619 2.545 2.335M252.683 538.102c.265-1.649-.511-3.079-1.931-3.338-1.937-.354-3.942-.013-3.783 2.876.096 1.734.967 2.46 2.614 2.721 1.896.301 2.494-.934 3.1-2.259M494.28 658.583c.574-.634 1.593-1.24 1.634-1.907.118-1.949-1.389-2.438-2.865-1.925-.568.198-1.107 1.72-.924 2.455.15.6 1.393.93 2.154 1.377M435.011 659.082c-.724-.483-1.482-1.408-2.166-1.358-1.885.14-2.186 1.68-1.494 3.034.295.576 1.87 1.031 2.508.746.621-.277.787-1.57 1.152-2.422M63.328 107.001c-1.753.176-2.68 1.078-2.776 2.801-.163 2.911 1.84 3.356 3.908 2.988 1.565-.277 2.31-1.794 1.92-3.414-.366-1.527-1.218-2.717-3.052-2.375M.424 110.25c.634.575 1.241 1.594 1.907 1.635 1.95.118 2.438-1.39 1.925-2.865-.198-.568-1.72-1.107-2.455-.924-.6.149-.929 1.393-1.377 2.154M158.208 504.566c-1.63.149-2.728.896-2.28 2.663.19.744.876 1.71 1.538 1.914 1.479.453 2.67-.231 3.02-1.853.394-1.825-.742-2.466-2.278-2.724M222.29 507.226c-.223-2.22-1.125-3.146-2.848-3.242-2.911-.163-3.355 1.84-2.988 3.908.278 1.565 1.803 2.334 3.412 1.912 1.465-.383 2.875-1.094 2.424-2.578M32.631 137.956c-1.45.4-2.56 1.074-2.198 2.866.313 1.55 1.091 2.507 2.846 2.201 1.592-.277 2.51-1.117 2.191-2.828-.283-1.532-1.068-2.538-2.839-2.239M66.565 170.283c-.434-2.323-2.406-2.655-4.31-2.122-1.419.398-1.99 1.952-1.733 3.53.426 2.61 2.508 2.904 4.336 2.372 1.236-.36 2.18-1.859 1.707-3.78M4.5 170.835c-.606-.561-1.185-1.561-1.861-1.632-1.946-.204-2.55 1.247-2.096 2.784.166.565 1.66 1.148 2.41 1.003.6-.116.99-1.321 1.548-2.155M130 477.08c.164-1.559-.401-2.779-2.058-2.884-.783-.049-2.053.41-2.33 1-.6 1.288-.44 2.94 1.074 3.513 1.35.511 2.666-.136 3.314-1.63M191.863 477.046c-.662-2.708-1.417-3.708-3.325-3.543-1.785.154-2.653.994-2.785 2.718-.217 2.852 1.702 3.486 3.803 3.079 1.39-.27 2.587-1.501 2.307-2.254M38.727 201.318c-.32-1.645-1.14-2.661-3.004-2.341-1.69.29-2.663 1.176-2.333 2.994.296 1.631 1.151 2.757 2.997 2.367 1.552-.327 2.74-1.1 2.34-3.02M70.24 232.817c-4.348-6.729-5.767-4.01-6.955.496 2.456 2.63 4.462 2.47 6.956-.496M7.541 231.466c-.761-.45-1.585-1.35-2.269-1.254-1.84.259-2.1 1.8-1.33 3.129.321.553 1.921.925 2.521.602.623-.335.741-1.61 1.078-2.477M97.342 447.932c.562-.607 1.562-1.185 1.632-1.861.205-1.947-1.247-2.55-2.784-2.096-.565.166-1.148 1.66-1.003 2.41.117.6 1.322.99 2.155 1.547M158.448 442.825c-2.219.223-3.146 1.125-3.242 2.848-.164 2.91 1.841 3.355 3.908 2.988 1.565-.278 2.334-1.803 1.912-3.413-.383-1.464-1.094-2.874-2.578-2.423M35.7 265.179c1.731.266 2.546-.625 2.815-2.218.299-1.764-.68-2.512-2.222-2.826-1.824-.373-2.531.792-2.834 2.232-.364 1.729.707 2.503 2.241 2.812M66.036 413.305c-.483.724-1.408 1.48-1.357 2.166.139 1.885 1.678 2.186 3.033 1.493.576-.294 1.03-1.87.746-2.508-.277-.62-1.572-.787-2.422-1.151M130.367 414.62c-.316-1.286-1.05-2.251-2.894-2.09-1.727.15-2.566.964-2.691 2.633-.206 2.763 1.649 3.354 3.688 2.983 1.423-.26 2.307-1.575 1.897-3.526M67.293 295.942c1.286-.316 2.25-1.05 2.09-2.894-.15-1.727-.964-2.566-2.633-2.69-2.763-.207-3.354 1.648-2.983 3.687.259 1.423 1.575 2.307 3.526 1.897M96.694 327.642c3.476-4.805 3.476-4.805-1.146-6.823-2.246 2.099-2.087 4.105 1.146 6.823M34.949 321.584c-.876.288-1.683 1.356-1.2 2.887.504 1.597 2.055 1.858 3.365 1.44.586-.186 1.143-1.471 1.147-2.26.01-1.6-.83-2.641-3.312-2.067M99.961 385.35c-.488-2.476-1.307-3.492-3.17-3.171-1.69.29-2.664 1.176-2.334 2.994.296 1.63 1.157 2.779 2.996 2.36 1.495-.341 2.878-.988 2.508-2.183M66.85 356.818c1.551-.307 2.503-1.087 2.2-2.84-.278-1.592-1.119-2.505-2.83-2.191-1.536.282-2.594 1.093-2.224 2.833.312 1.465 1.046 2.578 2.853 2.198" fill="#E0E0E0"/></g></svg>