<svg xmlns="http://www.w3.org/2000/svg" xmlns:xlink="http://www.w3.org/1999/xlink" width="545" height="662"><defs><path id="a" d="M.054.52H7v38.099H.054z"/><path id="c" d="M.379.028H6v37.187H.379z"/><path id="e" d="M.544.106H10v37.051H.544z"/><path id="g" d="M0 0h7.159v31.263H0z"/><path id="i" d="M0 0h4.027v31.454H0z"/><path id="k" d="M.586.418h28.572V1H.586z"/><path id="m" d="M.038 0h.924v25.992H.038z"/></defs><g fill="none" fill-rule="evenodd"><path fill="#E0E0E0" d="M540.136 477.968c-8.073 4.303-16.084 9.03-28.57 1.092 4.813 9.193 3.773 15.983 3.78 22.828 4.635.938 8.636 1.272 12.29 2.577 11.912 4.253 17.544 15.719 13.312 26.408-4.787 12.086-16.06 16.822-28.21 11.757-2.302-.961-4.448-2.301-6.667-3.466l.446.413c-4.288-7.364-8.675-14.705-3.983-24.102l-14.93-.977c-7.076-3.456-11.535-8.056-14.508-14.577-1.09-5.882-.675-12.075 2.972-21.146-9.517 7.233-16.793 4.356-26.18 2.218 4.723 10.286.037 17.42-1.9 25.047l.559-.525c-5.115.203-9.043 4.078-14.4 4.134-11.806.124-19.617-6.462-20.181-17.866-.614-12.414 6.654-20.136 19.165-20.251 3.566-.033 7.1.34 10.296 2.326 2.614-2.386.055-4.538-.24-6.813-2.221-17.177 13.063-28.95 29.038-22.381 2.31.95 4.49 2.225 6.73 3.349l-.488-.477c1.873 4.088 3.873 8.124 5.585 12.279 1.996 4.84-2.436 9.397-1.71 14.864 8.285-3.968 15.959-2.394 26.172-.334-8.93-10.922-2.738-18.696 1.096-26.81l-.487.478c5.886-2.385 11.057-6.914 18.135-5.653 13.186 2.349 20.953 15.66 16.188 28.084-1.06 2.76-2.535 5.36-3.818 8.035l.508-.511Z"/><path fill="#E0E0E0" d="M475.906 539.153c-8.812 5.717-17.998 7.686-27.871 2.781-.573-3.256-5.34-1.966-5.797-5.348-4.9-11.779-1.828-21.939 6.309-31.07l-.56.523 12.816-3.094c8.15 1.734 14.296 5.118 18.287 12.572 4.956 9.256.218 16.474-3.655 24.083l.47-.447Zm3.05-91.14c-.26-5.502-4.312-9.867-3.987-15.772.633-11.516 7.479-18.655 19.068-18.655 11.59-.001 18.438 7.137 19.07 18.653.325 5.903-3.724 10.272-3.984 15.773l.487-.476c-10.381 5.001-20.762 5.001-31.143-.001l.489.478Z"/><g transform="translate(536 474)"><mask id="b" fill="#fff"><use xlink:href="#a"/></mask><path fill="#E0E0E0" d="M34.71 34.55c-3.758 1.24-7.43 2.948-11.288 3.638C8.21 40.908-2.238 30.46.486 15.25c.692-3.855 2.405-7.527 3.65-11.283l-.509.51C7.374 3.27 11.04 1.603 14.88.933c15.183-2.649 25.55 7.753 22.85 22.926-.682 3.833-2.377 7.486-3.606 11.222l.585-.531Z" mask="url(#b)"/></g><path fill="#E0E0E0" d="M506.071 539.164c.849 5.417 4.441 9.965 4.138 15.883-.594 11.615-7.529 18.699-19.238 18.692-11.7-.007-18.616-7.106-19.215-18.72-.306-5.924 3.362-10.438 4.15-15.865l-.472.447c10.357-5.287 20.717-5.318 31.082-.024l-.445-.413Zm-63.834-2.577c.458 3.382 5.224 2.092 5.797 5.348v14.968c-4.84 11.049-12.998 15.069-24.624 12.369-4.618-2.184-8.256-5.551-10.932-10.69-3.225-10.838.284-19.227 10.715-24.603 6.804-1.865 13.077-.718 19.044 2.608"/><g transform="translate(537 414)"><mask id="d" fill="#fff"><use xlink:href="#c"/></mask><path fill="#E0E0E0" d="M.477 24.882C-.36 10.24 4.16 2.227 14.317.34c8.68-1.613 17.778 3.186 21.068 11.113 3.506 8.449-.271 18.743-8.585 23.4-9.142 5.12-17.461 1.969-26.323-9.971" mask="url(#d)"/></g><g transform="translate(533 536)"><mask id="f" fill="#fff"><use xlink:href="#e"/></mask><path fill="#E0E0E0" d="M1.213 12.223c2.915-5.459 6.074-8.6 10.647-11.028C15.76-.35 20.24.018 24.793.658c5.429 2.028 9.156 5.927 11.836 11.011 1.304 4.43 1.098 8.905.239 13.393-2.194 4.721-5.593 8.298-10.405 10.928-4.118 1.632-8.598 1.265-13.152.625-5.428-2.029-9.156-5.927-11.834-11.009-1.312-4.43-1.088-8.908-.264-13.383" mask="url(#f)"/></g><path fill="#E0E0E0" d="M464.02 420.084c-9.692.325-18.546-8.22-18.632-17.98-.086-9.722 8.648-18.406 18.357-18.252 9.118.145 17.327 8.054 17.875 17.222.566 9.467-7.972 18.688-17.6 19.01m60.764 0c-9.707.136-18.434-8.568-18.328-18.28.105-9.756 8.98-18.293 18.66-17.952 8.997.318 17.228 8.526 17.572 17.526.37 9.654-8.164 18.57-17.904 18.706m-73.508 8.944c.25 9.971-7.873 18.476-17.885 18.726-9.971.25-18.476-7.875-18.726-17.887-.248-9.968 7.877-18.473 17.885-18.724 9.976-.25 18.476 7.87 18.726 17.885m-49.396 12.824c9.723-.35 18.573 8.152 18.687 17.95.114 9.732-8.6 18.438-18.328 18.31-9.187-.118-17.36-7.956-17.933-17.193-.585-9.477 7.933-18.72 17.573-19.067m15.651 79.289c-.057 9.861-8.81 18.35-18.615 18.054-9.133-.275-17.287-8.339-17.677-17.478-.413-9.712 8.059-18.636 17.857-18.812 9.767-.174 18.492 8.456 18.435 18.236m42.323 82.249c-9.946-.369-18.224-9.387-17.62-19.199.61-9.917 9.847-18.045 19.577-17.225 9.296.783 16.985 9.186 16.86 18.422-.136 9.98-8.904 18.368-18.817 18.001m61.935.027c-9.848.163-18.351-8.092-18.516-17.977-.163-9.838 8.103-18.352 17.978-18.516 9.849-.163 18.357 8.1 18.514 17.977.157 9.855-8.093 18.353-17.976 18.516M389.215 490.48c-4.536 12.368-4.536 12.368-16.643 17.399-10.183-1.333-16.256-7.052-17.98-17.331 1.502-9.595 7.014-15.371 17.029-17.345 9.793 1.288 15.879 6.993 17.594 17.278m101.832 142.664c-9.999-1.606-15.877-7.464-17.509-17.528 4.633-12.278 4.633-12.278 16.604-17.38 10.068 1.23 16.308 6.715 18.237 17.52-1.343 9.543-7.068 15.552-17.332 17.388m2.44-279.105c10.492 2.088 16.308 7.494 17.657 17.835-1.39 8.81-6.543 14.86-17.116 16.728-9.299-1.11-15.395-6.736-17.182-17 4.4-12.35 4.4-12.35 16.641-17.563M383.616 544.675c2.226 9.014 1.33 16.95-8.095 21.767-4.475 1.153-8.95 1.187-13.42-.04-9.398-4.865-10.243-12.806-7.99-21.787 11.21-12.18 18.368-12.161 29.505.06m-18.643-129.921c8.96-2.272 16.85-1.36 21.738 8.062 1.188 4.368 1.157 8.826.035 13.191-4.85 9.451-12.734 10.407-21.725 8.157-12.198-11.135-12.213-18.205-.048-29.41"/><g transform="translate(535.84 600.295)"><mask id="h" fill="#fff"><use xlink:href="#g"/></mask><path fill="#E0E0E0" d="M31.201 22.195C25.465 31.91 17.754 32.27 9.352 30.322-3.012 19.242-3.088 12.004 8.954.734 21.961-.71 21.961-.71 30.46 7.233c2.208 4.747 1.83 9.742.742 14.962" mask="url(#h)"/></g><path fill="#E0E0E0" d="M447.735 361.62c1.104 5.142 1.036 9.157.058 13.158-1.844 3.778-4.652 6.587-8.434 8.428-8.619 1.895-16.202.992-20.962-7.986-1.514-4.221-1.147-8.721-.356-13.107 10.965-12.79 18.045-12.95 29.694-.492M415.06 605.228c8.8-8.59 8.8-8.59 21.798-7.416 12.282 11.006 12.36 18.244.316 29.514-13.006 1.443-13.006 1.443-21.504-6.5-2.21-4.746-1.831-9.741-.61-15.598m.286-22.588c-.227 9.975-6.304 15.664-16.485 15.432-9.984-.228-15.665-6.293-15.433-16.478.228-9.984 6.294-15.665 16.48-15.433 9.961.227 15.67 6.32 15.438 16.48M387.528 405.75c-1.144-4.709-1.237-9.205.067-13.69 8.261-9.288 8.261-9.288 22.032-7.807 12.052 11.205 11.997 18.416-.311 29.522-8.366 1.967-16.053 1.617-21.788-8.025"/><g transform="translate(538.973 355.699)"><mask id="j" fill="#fff"><use xlink:href="#i"/></mask><path fill="#E0E0E0" d="M9.254 1.019C18.247-1.23 26.132-.271 30.96 9.152a26.04 26.04 0 0 1 .068 12.994c-4.516 9.002-11.88 10.409-20.535 8.649C-3.1 20.615-3.46 12.617 9.254 1.019" mask="url(#j)"/></g><path fill="#E0E0E0" d="M524.107 356.124c-8.399-.269-15.252-7.73-14.758-16.069.499-8.404 8.137-15.08 16.449-14.376 7.858.666 14.04 7.426 13.997 15.307-.047 8.506-7.2 15.409-15.688 15.138M342.02 475.238c-8.271.375-15.541-6.297-15.91-14.603-.368-8.279 6.3-15.544 14.607-15.913 8.278-.368 15.544 6.3 15.914 14.606.368 8.28-6.291 15.533-14.61 15.91m121.64-119.112c-8.514.097-15.512-6.933-15.379-15.45.132-8.492 7.366-15.347 15.828-14.998 7.777.322 14.332 6.907 14.617 14.687.311 8.469-6.568 15.664-15.066 15.76m-2.741 274.792c8.576.26 15.114 7.212 14.852 15.79-.262 8.577-7.214 15.115-15.79 14.852-8.582-.263-15.122-7.215-14.853-15.788.27-8.586 7.211-15.116 15.79-14.854m75.955 15.136c.095 8.664-6.52 15.438-15.172 15.537-8.662.1-15.438-6.517-15.537-15.17-.098-8.662 6.517-15.438 15.17-15.537 8.662-.097 15.444 6.524 15.539 15.17M337.778 505.812c8.535-.31 15.686 6.525 15.776 15.08a15.199 15.199 0 0 1-15.462 15.395c-7.931-.123-14.518-6.404-15.015-14.317-.524-8.366 6.285-15.851 14.701-16.158m46.047 107.385c-.317 7.192-8.013 14.526-15.14 14.428-7.193-.1-14.68-7.561-14.808-14.76-.14-7.773 8.263-15.8 15.9-15.19 7.254.582 14.36 8.433 14.048 15.522m-30.695-31.824c.445 6.846-6.597 14.848-13.692 15.557-7.405.74-15.938-7.196-15.934-14.819.003-6.996 7.416-14.597 14.44-14.805 6.95-.208 14.726 6.995 15.186 14.067m33.597-212.991c0 7-7.403 14.596-14.446 14.822-7.59.244-15.694-8.06-15.2-15.575.466-7.079 8.247-14.276 15.199-14.058 7.05.221 14.447 7.805 14.447 14.81m27.55 275.507c-.428 7.117-8.218 14.381-15.218 14.19-7.75-.214-15.452-8.89-14.515-16.349.907-7.205 9.053-14.075 15.927-13.43 7.145.67 14.222 8.661 13.806 15.59m2.758-305.982c-1.934 8.677-6.663 13.234-14.6 14.435-7.77-1.155-12.601-5.591-14.453-13.801.616-8.138 5.105-13.41 14.377-15.114 8.772.765 13.387 6.429 14.676 14.48m62.463-27.172c1.87-8.99 6.584-13.615 14.584-14.745 7.853 1.327 12.954 5.54 14.235 14.947-.893 7.39-5.615 12.504-14.367 13.79-9.852-4.09-9.852-4.09-14.452-13.992m-138.306 73.539c8.552 1.583 13.206 6.238 14.734 14.3-1.034 8.355-5.772 13.432-14.515 14.906-8.407-1.259-13.254-6.23-14.628-14.413 1.315-8.186 5.867-12.943 14.409-14.793m-30.174 120.85c-8.607-1.66-13.228-6.32-14.691-14.386 1.099-8.297 5.876-13.302 14.403-14.706 9.933 4.022 9.933 4.022 14.54 13.254-.424 8.777-5.294 13.716-14.252 15.838"/><g transform="translate(415 659)"><mask id="l" fill="#fff"><use xlink:href="#k"/></mask><path fill="#9CADB7" d="M15.1.418c7.749 1.346 12.754 5.622 14.058 14.758-.967 7.528-5.71 12.581-14.361 13.851C6.834 27.823 2.187 23.175.586 14.97 1.644 6.726 6.36 1.653 15.1.418" mask="url(#l)"/></g><g transform="translate(542.038 297.381)"><mask id="n" fill="#fff"><use xlink:href="#m"/></mask><path fill="#E0E0E0" d="M2.033 4.71c6.308-6.43 12.93-4.991 19.05-3.144 6.332 6.732 5.742 13.268 2.955 19.86-6.283 5.907-12.82 5.318-19.42 2.526-5.876-6.28-5.35-12.808-2.585-19.242" mask="url(#n)"/></g><path fill="#E0E0E0" d="M442.403 297.153c4.462 11.974 3.974 17.531-1.497 21.09-4.54 2.952-13.303 2.438-17.12-1.005-4.868-4.393-4.681-10.625.708-20.616 5.654-3.015 11.395-3.025 17.909.531M300.024 420.735c10.41-5.208 16.542-5.313 20.816-.579 3.79 4.198 3.975 13.798.351 18.234-3.468 4.245-13.095 5.811-18 2.178-7.48-5.538-6.089-12.786-3.167-19.833m17.121 120.227c3.766 9.84 3.766 9.84 1.234 19.463-5.857 5.872-12.497 4.545-18.802 2.477-6.188-6.614-5.612-13.179-2.786-19.837 6.288-5.854 12.845-5.35 20.354-2.103m-39.245-7.568c-6.973.365-12.643-4.732-13.002-11.69-.36-6.961 4.754-12.647 11.697-13.006 6.961-.36 12.647 4.755 13.006 11.697.36 6.964-4.746 12.636-11.7 13m14.796-74.069c.366 7.043-4.715 12.695-11.735 13.055-7.031.361-12.699-4.735-13.058-11.74-.361-7.03 4.735-12.7 11.74-13.058 7.033-.36 12.688 4.727 13.053 11.743m60.977-122.124c.365 6.881-4.777 12.597-11.655 12.957-6.87.36-12.602-4.798-12.96-11.662-.359-6.87 4.797-12.602 11.661-12.96 6.873-.36 12.59 4.79 12.954 11.665m17.631-17.66c-6.846-.34-12.186-6.406-11.63-13.206.552-6.723 6.906-11.972 13.585-11.223 6.11.686 10.99 6.264 10.872 12.424-.132 6.86-5.994 12.346-12.827 12.005m-20.549 324.323c-.368 7.077-6.004 12.129-13.12 11.758-7.087-.368-12.127-5.99-11.76-13.118.365-7.081 5.998-12.13 13.122-11.76 7.077.368 12.128 6.004 11.758 13.12m-43.648-18.885c-6.906-.37-12.027-6.084-11.655-13.004.372-6.907 6.085-12.028 13.005-11.656 6.907.37 12.026 6.08 11.656 13.004-.367 6.909-6.08 12.029-13.006 11.657M292.34 399.27c-.192 6.012-5.621 11.466-11.635 11.688-6.601.244-12.662-5.793-12.445-12.397.199-6.011 5.632-11.467 11.643-11.688 6.601-.245 12.647 5.783 12.437 12.398m30.746-30.182c-.396 6.868-6.503 12.153-13.337 11.542-6.741-.603-11.922-6.993-11.12-13.714.739-6.163 6.303-10.948 12.538-10.781 6.9.184 12.315 6.07 11.919 12.953m201.585-76.904c-6.89.047-12.4-5.374-12.45-12.252-.05-6.887 5.376-12.4 12.252-12.45 6.888-.05 12.401 5.376 12.45 12.253.05 6.888-5.379 12.403-12.252 12.45m-122.584-27.373c6.52-.216 12.562 5.85 12.318 12.366-.221 5.933-5.692 11.38-11.614 11.568-6.532.207-12.566-5.85-12.321-12.366.222-5.932 5.685-11.371 11.617-11.568m-125.19 305.24c6.639-.216 12.66 5.83 12.417 12.468-.224 6.048-5.666 11.468-11.71 11.658-6.647.209-12.663-5.83-12.418-12.467.223-6.047 5.663-11.462 11.71-11.66m198.96-289.542c-.37 6.945-6.063 12.047-13.027 11.675-6.946-.37-12.047-6.063-11.676-13.027.371-6.946 6.059-12.044 13.026-11.676 6.948.367 12.049 6.058 11.677 13.029M258.468 490.38c-1.536 6.865-5.187 10.559-11.67 11.785-6.463-.971-10.547-4.733-11.696-11.526 3.605-7.51 3.605-7.51 10.5-11.716 6.975.292 10.963 4.189 12.866 11.458m235.851-229.354c-6.901-1.359-10.551-5.049-11.913-11.39.735-6.655 4.722-10.531 11.204-12.008 7.127.967 10.763 5.182 12.126 11.235-1.074 6.757-4.737 10.441-11.417 12.163M266.014 643.442c1.321-6.787 5.003-10.411 11.234-11.41 6.163 1.055 10.015 4.503 11.092 11.197-.692 5.86-4.286 9.583-10.7 11.116-5.929-.57-9.828-3.966-11.626-10.903m33.684-336.146c1.108-6.357 4.765-9.99 10.993-11.104 6.072.986 10.07 4.264 11.218 11.062-.537 5.81-4.155 9.516-10.536 11.216-6.546-.653-10.555-4.443-11.675-11.174m121.944-61.554c1.48-5.825 4.734-9.326 10.727-10.77 6.37.367 10.367 4.15 11.89 10.81-3.446 7.6-3.446 7.6-10.24 11.789-7.496-.625-11.556-4.822-12.377-11.83M250.375 417.952c6.266 1.69 9.92 5.31 10.863 11.49-.89 6.043-4.436 9.754-10.655 11.446-6.5-.386-10.612-4.03-12.298-11.13.888-6.955 5.023-11.075 12.09-11.806m7.9 133.638c-1.469 6.626-5.089 10.264-11.422 11.48-6.478-.886-10.408-4.714-11.609-11.457.894-6.068 4.441-9.777 10.66-11.47 6.502.389 10.613 4.034 12.371 11.448m261.02-341.724c2.5-.247 4.485-.744 6.397-.548 1.893.195 3.714 1.09 4.866 1.456 4.18 4.333 4.715 8.763 2.32 12.976-3.462 6.094-8.915 5.02-14.083 3.35-5.091-5.723-5.093-10.97.5-17.234M258.728 307.89c-.338 5.19-5.164 9.108-10.274 8.34-4.579-.688-7.944-4.865-7.644-9.488.335-5.17 5.188-9.11 10.278-8.342 4.58.69 7.942 4.868 7.64 9.49m-18.644 312.56c-3.967-5.37-3.987-9.977-.69-14.704 4.49-3.688 9.107-3.708 13.868-.732 4.095 4.39 3.976 9.042 1.359 13.876-4.245 4.317-8.92 4.305-14.537 1.56m45.723-273.455c-2.544.286-4.54.808-6.477.643-1.927-.165-3.794-1.022-5.24-1.445-4.747-5.275-4.758-10.26-1.29-15.363 7.053-2.377 7.053-2.377 14.362-.747 4.224 5.356 4.296 10.691-1.355 16.912M455.801 212.24c5.31-3.937 9.851-3.955 14.605-.627 3.52 4.364 3.935 9.154.432 13.551-3.808 4.78-8.774 3.35-12.885 1.976-4.877-4.762-4.843-9.373-2.152-14.9M225.487 582.329c-.111 5.677-3.807 9.208-9.517 9.094-5.678-.114-9.21-3.81-9.093-9.52.114-5.676 3.806-9.202 9.519-9.092 5.687.11 9.204 3.793 9.09 9.518M334.56 284.624c-3.88-5.378-3.9-9.97-.877-14.521 4.395-4.3 9.094-3.542 13.542-1.8 5.213 4.98 4.61 10.014 2.37 14.703-4.954 4.528-9.602 4.348-15.035 1.618m-54.906-16.857c5.396-.375 9.727 3.712 9.663 9.117-.058 4.79-3.615 8.58-8.364 8.91-5.403.376-9.722-3.702-9.662-9.12.053-4.787 3.612-8.578 8.363-8.907m131.978-51.731c-.184 5.539-4.333 9.259-9.895 8.873-5.443-.38-9.075-4.771-8.495-10.272.518-4.902 4.11-8.091 9.141-8.117 5.647-.028 9.436 3.87 9.25 9.516M256.556 376.012c-14.938 2.925-17.217.684-14.6-13.938 4.637-4.33 9.579-4.382 14.622-1.082 3.722 4.819 3.75 9.394-.022 15.02m-44.814 77.148c5.08-3.604 9.305-3.243 13.336-1.34 5.1 4.935 4.406 9.916 1.854 14.849-7.445 2.43-7.445 2.43-14.328.632-2.483-6.642-2.483-6.642-.862-14.141M319.787 246.6c-.209 5.196-4.94 9.247-10.048 8.606-4.576-.574-8.055-4.694-7.862-9.31.216-5.187 4.961-9.248 10.057-8.608 4.577.575 8.04 4.68 7.853 9.313M208.033 514.892c5.754-4.479 10.301-3.965 14.637-1.51 3.934 4.877 4.349 9.668.846 14.064-3.808 4.78-8.775 3.351-12.721 2.032-5.3-4.785-4.595-9.48-2.762-14.586m155.781-274.927c5.803-4.184 10.344-4.2 15.098-.775 3.403 4.376 3.887 9.21.243 13.512-3.818 4.507-8.745 3.822-13.215 1.458-4.787-4.379-3.972-9.079-2.126-14.195M194.617 489.873a8.936 8.936 0 0 1-9.072 9.612c-4.675-.058-8.533-3.681-8.865-8.324-.378-5.281 3.768-9.672 9.075-9.612 4.671.054 8.531 3.68 8.862 8.324m308.389-301.809a8.924 8.924 0 0 1-9.544 9.138c-4.66-.302-8.296-4.115-8.392-8.796a8.922 8.922 0 0 1 9.542-9.141c4.63.298 8.3 4.145 8.394 8.799M228.52 399.348c-.237 5.653-4.39 9.291-10.1 8.851-5.564-.43-9.106-4.815-8.467-10.48.564-5.01 4.14-8.11 9.333-8.089 5.769.026 9.478 3.928 9.234 9.718m204.933-205.225c-5.255-1.403-7.908-4.12-9.166-8.359.295-5.362 4.061-7.558 7.564-9.365 5.486.543 7.87 3.618 9.714 7.415.258 5.464-3.204 8.077-8.112 10.31m-61.323-.717c-4.746-.743-7.03-3.813-8.486-7.435.58-4.958 3.453-7.467 7.599-9.02 4.59.202 6.996 3.266 8.89 7.18-.297 5.191-3.338 8.016-8.003 9.275M197.922 429.263c-1.895 5.419-4.847 7.779-8.27 9.059-5.912-.498-8.048-4.255-9.947-7.829.92-5.733 3.958-8.537 8.747-9.927 5.036.703 7.549 4.062 9.47 8.697m152.146-212.779c-1.63 4.34-4.486 6.82-7.794 7.886-5.516-.491-7.594-3.871-9.524-7.217.076-5.581 3.334-8.288 8.054-10.162 5.456.9 8.67 4.028 9.264 9.493M194.757 552.038c-1.992 4.548-4.373 7.54-9.04 8.385-4.756-.76-7.559-3.798-8.943-8.562.798-4.966 3.834-7.77 8.6-9.152 4.964.799 7.772 3.84 9.383 9.33m-35.896-83.833c-5.093-.906-7.515-3.77-8.825-7.445.45-4.983 3.487-7.295 7.202-8.877 4.812.177 7.258 3.123 9.041 7.195-.116 5.14-3.584 7.533-7.418 9.127m30.166-91.502c-4.677-.627-7.049-3.587-8.686-7.474.317-5.258 3.772-7.652 7.473-9.23 5.252.678 7.605 3.656 9.26 7.548-.493 5.1-3.47 7.923-8.047 9.156m21.441-39.75c1.817-4.063 4.186-7.138 8.747-7.788 4.545.6 6.922 3.67 8.693 7.534-.052 5.329-3.33 8.056-8.087 9.929-5.535-.882-8.757-4.043-9.353-9.675M185.757 621.25c-4.824-1.643-7.626-4.148-8.47-8.545.71-4.414 3.565-6.886 7.699-8.437 4.96.517 7.8 3.482 9.04 8.223-.728 4.52-3.58 6.996-8.27 8.76m39.482 21.051c-1.391 5.674-4.176 8.287-8.476 9.634-5.103-.521-7.968-3.586-9.376-8.54.929-4.952 3.91-7.87 8.445-8.913 5.167.444 7.189 3.934 9.407 7.819m49.374-422.649c-1.02-3.062-1.437-5.964.786-8.691 3.117-2.364 6.322-2.408 9.621-.184 2.4 3.149 2.443 6.354.077 9.857-3.653 2.44-7.217 2.345-10.484-.982M123.017 425.044c2.761-2.323 5.595-2.179 8.636-.603 2.807 2.948 2.875 6.126.635 9.352-2.805 2.327-5.636 2.221-8.637.697-2.822-2.987-2.952-6.158-.634-9.446m27.949 213.019c2.953-1.218 5.326-1.351 7.79-.19 3.069 2.554 3.116 5.707 1.502 9.21-2.778 2.824-5.892 2.926-9.347.967-3.164-3.566-2.301-6.955.055-9.987m3.194-295.003c-2.686-3.553-2.576-6.299-1.054-9.174 2.787-2.975 5.947-2.537 8.993-1.234 2.924 3.341 2.867 6.435.746 9.562-2.62 2.371-5.424 2.07-8.685.845m-4.602 243.561c-1.251-3.505-1.552-6.334.442-9.169 2.806-2.613 6.017-2.36 9.385-.815 2.92 2.778 2.729 6.037 1.415 9.576-3.833 3.751-7.662 3.04-11.242.407m-20.475-100.882c2.148 3.497 2.11 6.234.28 9.04-2.915 2.889-6.046 1.995-8.62.997-2.796-3.217-2.704-5.993-1.356-9.073 2.55-2.82 5.66-3.053 9.696-.964m64.797-173.892c-3.54 2.365-6.34 2.226-9.272.84-2.88-2.734-2.835-5.953-1.309-9.428 2.762-2.971 6.003-2.767 9.338-1.471 3.016 2.898 3.042 6.098 1.242 10.059m-40.822 82.128c3.53-2.007 6.332-2.134 9.588-.345 2.785 2.928 2.922 6.437.611 9.955-3.319 2.724-6.488 2.123-9.342.919-3.03-3.424-2.842-6.61-.857-10.53m344.99-272.018c2.687 3.552 2.575 6.298 1.032 9.212-2.782 2.766-5.893 2.814-9.123.915-3.069-3.048-2.21-6.177-1.142-8.786 3.167-2.867 5.971-2.566 9.233-1.341M245.463 240.62c3.307-1.182 6.137-1.483 8.942.491 2.762 2.815 2.166 6.06 1.11 9.127-3.044 3.2-6.303 3.007-9.885 1.677-3.442-3.813-3.247-7.648-.167-11.296m69.541-60.849c2.725 3.683 2.548 6.533 1.09 9.5-2.893 3.091-6.183 2.484-9.314 1.322-2.992-3.487-2.895-6.694-.794-9.934 2.717-2.433 5.633-2.03 9.018-.888M149.462 516.268c4.022-2.473 6.906-2.386 9.966-.94 3.179 3.291 3.35 6.893.889 10.531-3.381 2.825-6.636 2.224-9.361 1.013-3.567-3.576-2.866-6.889-1.494-10.604m73.713-233.797c-3.062 1.022-5.964 1.438-8.691-.785-2.364-3.118-2.408-6.323-.184-9.622 3.149-2.399 6.354-2.443 9.857-.077 2.44 3.653 2.345 7.217-.982 10.484M408.111 150.72c1.016 3.052 1.433 5.945-.785 8.663-3.107 2.355-6.302 2.4-9.591.182-2.39-3.139-2.434-6.334-.077-9.827 3.643-2.43 7.197-2.336 10.453.981m59.664-1.869c3.241 4.17 2.616 7.365 1.485 9.942-3.71 3.521-6.973 2.631-9.893 1.626-3.32-3.332-2.852-6.625-1.692-9.809 2.993-3.267 6.314-3.052 10.1-1.759m52.009 14.39c-2.606-4.099-2.651-7.337-.26-10.55 3.21-2.467 6.454-2.342 9.823-.267 2.747 3.032 2.51 6.312.763 9.763-2.891 2.896-6.191 2.857-10.326 1.053M128.461 374.241c-4.04-.439-5.488-2.354-6.537-4.728-.346-3.538 1.58-5.546 4.583-6.827 3.547-.365 5.542 1.576 6.824 4.573.378 3.561-1.607 5.536-4.87 6.982M347.5 155.019c-.99 3.214-2.578 4.95-5.278 5.53-3.523.277-5.565-1.585-6.77-4.706-.18-4.091 1.594-6.596 5.766-7.146 3.56.2 5.467 2.124 6.282 6.322m-61.198-.767c-1.77 3.513-3.065 5.638-5.966 5.764-3.014-.239-4.264-2.379-5.385-4.39-.257-3.286 1.745-4.789 3.868-6.147 3.933-.954 5.327 1.858 7.483 4.773M124.404 545.283c3.765 1.16 5.5 2.748 6.081 5.448.276 3.523-1.586 5.564-4.706 6.77-4.092.18-6.597-1.594-7.112-5.504.059-3.918 2.348-5.496 5.737-6.714m27.646-270.257 3.605-3.486c4.94-.378 6.841 1.623 7.891 4.753.21 3.138-2.109 4.387-4.18 5.834-4.55.254-5.947-2.69-7.316-7.1M94.603 526.775c-3.627-1.135-5.414-2.682-5.949-5.507-.068-3.005 2.212-4.239 4.366-5.605 3.556-.068 5.526 1.826 6.406 5.034.092 3.163-2.236 4.37-4.823 6.078m160.98-340.985c-1.56 2.673-2.927 4.717-5.58 4.91-3.151-.081-4.45-2.213-5.71-4.333-.437-3.686 1.944-5.318 4.3-6.722 4.79.073 6.24 2.878 6.99 6.146M91.516 399.45c1.156-3.496 2.654-5.242 5.374-5.783 2.92-.047 4.09 2.205 5.453 4.258.053 3.451-1.834 5.332-4.903 6.223-3.071.073-4.213-2.232-5.924-4.699m2.494 188.289c-3.002-1.504-4.898-2.908-5.221-5.357.304-3.136 2.264-4.458 4.562-5.49 2.948-.234 4.362 1.78 5.744 3.827.76 3.693-1.601 5.293-5.085 7.02m88.878-342.102c1.56-2.672 2.927-4.716 5.58-4.91 3.151.082 4.45 2.213 5.71 4.334.437 3.686-1.944 5.318-4.3 6.722-4.79-.073-6.24-2.878-6.99-6.146M432.6 130.222c-3.196-.996-4.925-2.577-5.51-5.26-.276-3.512 1.594-5.536 4.69-6.746 4.074-.179 6.562 1.6 7.119 5.744-.205 3.543-2.126 5.44-6.298 6.262m-60.073-12.031c2.739 1.438 4.739 2.778 5.029 5.965-.182 3.051-2.127 4.87-5.377 5.627-3.378-.2-5.191-2.153-5.95-5.396.188-3.394 2.172-5.187 6.298-6.196m-67.461 4.941 3.348-3.929c4.58-.433 5.997 1.627 7.37 3.666.517 3.012-1.368 4.571-3.389 6.022-3.842.972-5.37-1.468-7.329-5.759M130.454 611.809c-.45 4.05-2.369 5.505-4.673 6.562-3.611.356-5.644-1.551-6.914-4.587-.366-3.558 1.555-5.578 4.587-6.85 3.572-.378 5.571 1.588 7 4.875m-2.63-310.392 4.681 4.105c.523 4.145-1.535 5.888-4.585 6.867-3.033-.105-4.297-2.166-5.355-4.478-.224-3.073 2.076-4.28 5.26-6.494M96.48 465.798c-2.637-1.582-4.802-2.852-4.886-5.791.072-2.938 2.297-4.163 4.135-5.477 3.87-.461 5.503 1.92 6.907 4.277-.073 4.789-2.878 6.24-6.156 6.99M529.98 96.47c-.195 3.058-2.25 4.41-4.653 5.568-3.463-.118-5.454-1.96-6.136-5.206.143-3.13 2.25-4.436 4.625-5.605 3.489.098 5.448 1.987 6.165 5.242m-66.639-8.299c3.059.197 4.41 2.25 5.569 4.655-.118 3.462-1.96 5.453-5.206 6.136-3.131-.145-4.436-2.25-5.605-4.626.098-3.49 1.987-5.448 5.242-6.165m-55.657 4.684c-.672 3.543-2.365 5.097-4.978 5.8-2.976-.027-4.206-2.152-5.32-4.37-.262-3.088 2.103-4.263 3.795-5.747 3.965-.304 5.207 2.342 6.503 4.317M225.043 214.783c-.5 4.072-2.415 5.478-4.697 6.557-3.536.41-5.319-1.777-6.677-4.21-.476-3.857 1.732-5.622 4.153-6.987 3.853-.457 5.656 1.71 7.221 4.64M32.888 640.758c.984-.104 2.204.462 2.309 2.118.049.783-.41 2.054-1 2.33-1.288.6-2.955.443-3.508-1.075-.476-1.309-.015-2.737 2.199-3.373m57.262 2.833c4.804-3.476 4.804-3.476 6.823 1.146-2.098 2.247-4.105 2.087-6.823-1.146M221.258 93.82c-.634.574-1.24 1.593-1.907 1.634-1.948.118-2.438-1.388-1.924-2.864.197-.569 1.719-1.108 2.454-.925.6.15.93 1.393 1.377 2.155m272.761-30.76c1.615-.319 2.702.74 2.938 2.194.326 2.01-.117 3.74-2.823 3.978-1.9.168-2.91-.963-3.147-2.244-.368-1.974.207-3.862 3.032-3.929m-57.887-.647c-.662 2.708-1.417 3.708-3.325 3.543-1.785-.154-2.653-.994-2.785-2.718-.217-2.852 1.702-3.486 3.803-3.08 1.39.27 2.587 1.502 2.307 2.255m-61.351.037c.266 1.614-.502 3.027-1.907 3.283-1.916.349-3.897.009-3.74-2.846.094-1.715.957-2.434 2.587-2.69 1.869-.291 2.476.91 3.06 2.253m-94.819 28.494c1.813-.301 2.684.64 2.973 2.328.32 1.867-.714 2.669-2.35 3.006-1.928.397-2.697-.827-3.012-2.36-.371-1.81.694-2.696 2.389-2.974m33.376-28.232c.266 1.731-.625 2.546-2.218 2.815-1.763.3-2.512-.68-2.826-2.222-.373-1.824.792-2.53 2.232-2.833 1.73-.365 2.504.706 2.812 2.24m-64.101 2.374c-.483-.724-1.407-1.482-1.358-2.166.14-1.885 1.68-2.186 3.035-1.493.576.294 1.03 1.87.745 2.508-.276.62-1.571.786-2.422 1.151M341.35 90.54c1.615-.318 2.702.74 2.938 2.194.327 2.01-.116 3.74-2.822 3.978-1.9.168-2.91-.962-3.147-2.244-.368-1.974.207-3.862 3.031-3.929M66.468 612.386c-.216 2.147-1.093 3.039-2.76 3.132-2.821.156-3.242-1.79-2.885-3.787.269-1.513 1.749-2.255 3.305-1.846 1.418.373 2.778 1.065 2.34 2.5M524.787 38.172c-1.664.261-2.443-.744-2.712-2.277-.3-1.71.615-2.545 2.213-2.812 1.764-.296 2.516.68 2.826 2.222.365 1.815-.79 2.448-2.327 2.867M466.09 32.86c-.4 1.45-1.073 2.56-2.865 2.199-1.55-.313-2.507-1.091-2.202-2.846.277-1.593 1.118-2.51 2.829-2.192 1.532.284 2.538 1.069 2.239 2.84m-61.107-1.421c-.579 3.04-1.735 3.7-3.233 3.305-1.6-.423-1.965-1.95-1.566-3.28.184-.612 1.432-1.242 2.215-1.264 1.571-.045 2.707.71 2.584 1.239m-65.637.83c.634-.575 1.241-1.593 1.907-1.634 1.95-.118 2.438 1.388 1.925 2.864-.198.569-1.72 1.108-2.455.924-.6-.15-.929-1.392-1.377-2.154M32.631 584.702c-1.45-.4-2.56-1.073-2.198-2.865.313-1.548 1.091-2.507 2.846-2.202 1.593.278 2.51 1.118 2.191 2.83-.283 1.53-1.068 2.536-2.839 2.237m156.302-462.888c1.738.331 2.398 1.486 2.001 2.984-.423 1.602-1.95 1.965-3.28 1.566-.612-.184-1.23-1.427-1.266-2.215-.072-1.611.79-2.619 2.545-2.335m63.75 1.676c.265 1.649-.511 3.079-1.931 3.338-1.937.354-3.942.013-3.783-2.876.096-1.734.967-2.46 2.614-2.721 1.896-.301 2.494.934 3.1 2.259M494.28 3.008c.574.634 1.593 1.241 1.634 1.907.118 1.95-1.389 2.438-2.865 1.925-.568-.198-1.107-1.72-.924-2.455.15-.6 1.393-.929 2.154-1.377m-59.268-.498c-.724.483-1.482 1.408-2.166 1.358-1.885-.14-2.186-1.68-1.494-3.034.295-.576 1.87-1.031 2.508-.746.621.277.787 1.57 1.152 2.422M63.328 554.59c-1.753-.176-2.68-1.077-2.776-2.8-.163-2.911 1.84-3.356 3.908-2.988 1.565.277 2.31 1.793 1.92 3.413-.366 1.528-1.218 2.717-3.052 2.375M.424 551.342c.634-.575 1.241-1.594 1.907-1.635 1.95-.118 2.438 1.389 1.925 2.865-.198.568-1.72 1.107-2.455.924-.6-.149-.929-1.393-1.377-2.154m157.784-394.316c-1.63-.149-2.728-.896-2.28-2.663.19-.744.876-1.71 1.538-1.914 1.479-.453 2.67.231 3.02 1.853.394 1.825-.742 2.466-2.278 2.724m64.082-2.66c-.223 2.22-1.125 3.146-2.848 3.242-2.911.163-3.355-1.84-2.988-3.908.278-1.565 1.803-2.334 3.412-1.912 1.465.383 2.875 1.094 2.424 2.578M32.631 523.635c-1.45-.4-2.56-1.074-2.198-2.866.313-1.549 1.091-2.507 2.846-2.2 1.592.276 2.51 1.116 2.191 2.827-.283 1.532-1.068 2.538-2.839 2.24m33.934-32.327c-.434 2.322-2.406 2.654-4.31 2.121-1.419-.397-1.99-1.952-1.733-3.529.426-2.61 2.508-2.904 4.336-2.373 1.236.36 2.18 1.86 1.707 3.78M4.5 490.757c-.606.56-1.185 1.56-1.861 1.632-1.946.204-2.55-1.247-2.096-2.784.166-.565 1.66-1.148 2.41-1.003.6.116.99 1.32 1.548 2.155M130 184.512c.164 1.558-.401 2.778-2.058 2.883-.783.05-2.053-.41-2.33-1-.6-1.288-.44-2.94 1.074-3.513 1.35-.51 2.666.136 3.314 1.63m61.863.034c-.662 2.708-1.417 3.708-3.325 3.543-1.785-.154-2.653-.994-2.785-2.718-.217-2.852 1.702-3.486 3.803-3.079 1.39.27 2.587 1.501 2.307 2.254M38.727 460.274c-.32 1.645-1.14 2.66-3.004 2.34-1.69-.29-2.663-1.175-2.333-2.993.296-1.631 1.151-2.757 2.997-2.367 1.552.327 2.74 1.1 2.34 3.02m31.513-31.5c-4.348 6.73-5.767 4.011-6.955-.496 2.456-2.629 4.462-2.47 6.956.496m-62.7 1.352c-.761.45-1.585 1.35-2.269 1.254-1.84-.259-2.1-1.8-1.33-3.129.321-.553 1.921-.925 2.521-.602.623.335.741 1.61 1.078 2.477M97.342 213.66c.562.607 1.562 1.185 1.632 1.86.205 1.948-1.247 2.55-2.784 2.097-.565-.166-1.148-1.661-1.003-2.411.117-.6 1.322-.99 2.155-1.546m61.106 5.107c-2.219-.223-3.146-1.125-3.242-2.848-.164-2.91 1.841-3.355 3.908-2.988 1.565.278 2.334 1.803 1.912 3.413-.383 1.464-1.094 2.874-2.578 2.423M35.7 396.413c1.731-.266 2.546.625 2.815 2.218.299 1.764-.68 2.512-2.222 2.826-1.824.373-2.531-.792-2.834-2.232-.364-1.729.707-2.503 2.241-2.812m30.336-148.126c-.483-.724-1.408-1.481-1.357-2.166.139-1.885 1.678-2.186 3.033-1.493.576.294 1.03 1.869.746 2.508-.277.62-1.572.787-2.422 1.15m64.331-1.314c-.316 1.286-1.05 2.251-2.894 2.09-1.727-.15-2.566-.964-2.691-2.633-.206-2.763 1.649-3.354 3.688-2.983 1.423.259 2.307 1.575 1.897 3.526M67.293 365.65c1.286.315 2.25 1.05 2.09 2.893-.15 1.727-.964 2.566-2.633 2.691-2.763.206-3.354-1.649-2.983-3.688.259-1.423 1.575-2.307 3.526-1.897m29.401-31.699c3.476 4.805 3.476 4.805-1.146 6.823-2.246-2.099-2.087-4.105 1.146-6.823m-61.745 6.058c-.876-.288-1.683-1.356-1.2-2.887.504-1.597 2.055-1.858 3.365-1.44.586.186 1.143 1.471 1.147 2.26.01 1.599-.83 2.641-3.312 2.067m65.012-63.766c-.488 2.476-1.307 3.492-3.17 3.17-1.69-.29-2.664-1.175-2.334-2.993.296-1.63 1.157-2.78 2.996-2.36 1.495.34 2.878.988 2.508 2.183M66.85 304.774c1.551.307 2.503 1.087 2.2 2.839-.278 1.593-1.119 2.506-2.83 2.192-1.536-.282-2.594-1.093-2.224-2.833.312-1.465 1.046-2.578 2.853-2.198"/></g></svg>