<svg width="576" height="307" xmlns="http://www.w3.org/2000/svg" xmlns:xlink="http://www.w3.org/1999/xlink"><defs><path id="a" d="M.417 0h30.314v1.007H.417z"/><path id="c" d="M.455 0h30.946v1.271H.455z"/><path id="e" d="M.546.983H4v20.126H.546z"/><path id="g" d="M.032.852H2v17.891H.032z"/></defs><g fill="none" fill-rule="evenodd"><g transform="translate(503)"><mask id="b" fill="#fff"><use xlink:href="#a"/></mask><path d="M30.731-13.597C25.903-3.28 25.903-3.28 15.475 1.007 7.07-.193 2.162-5.077.417-13.735c.993-8.685 6.01-13.984 15.094-15.41 8.406 1.197 13.314 6.08 15.22 15.548" fill="#1C2B39" mask="url(#b)"/></g><g transform="translate(438)"><mask id="d" fill="#fff"><use xlink:href="#c"/></mask><path d="M.455-14.11c4.273-11.287 4.286-11.3 15.13-15.36 8.961 1.15 14.3 6.18 15.816 15.202-4.249 10.576-4.249 10.576-14.119 15.54C8.075.817 2.853-4.362.455-14.11" fill="#1C2B39" mask="url(#d)"/></g><path d="M357.941 27.745c-7.008.35-13.292-5.554-13.415-12.604-.11-6.33 5.117-12.274 11.429-12.997 6.877-.788 13.631 4.82 14.209 11.796.575 6.96-5.173 13.453-12.223 13.805M421.085 31.29c-7.47-.388-12.802-6.337-12.411-13.849.388-7.47 6.337-12.802 13.848-12.411 7.48.388 12.8 6.323 12.414 13.847-.385 7.475-6.331 12.804-13.851 12.413M486.726 31.316c-7.496.249-13.37-5.225-13.618-12.694-.252-7.493 5.225-13.368 12.694-13.618 7.493-.25 13.369 5.228 13.617 12.695.249 7.5-5.221 13.368-12.693 13.617M550.572 5.341c6.999-.09 13.114 6.07 12.969 13.063-.146 7.04-6.46 12.938-13.458 12.575-6.377-.33-11.892-5.888-12.18-12.274-.314-7.005 5.628-13.273 12.669-13.364M466.595 50.599c-.119 6.34-6.032 12.244-12.37 12.352-6.309.108-12.427-5.634-12.753-11.968-.357-6.951 6.226-13.524 13.172-13.155 6.331.337 12.068 6.468 11.951 12.77M518.268 62.9c-7.998-4.437-7.998-4.437-12.1-12.231 1.053-7.014 5.024-11.325 12.262-12.55 6.554.938 10.478 4.77 12.312 11.393-.337 7.05-4.445 11.264-12.474 13.388M389.854 34.779c7.293 1.902 10.918 6.014 12.032 12.069-1.036 6.937-4.94 10.802-11.524 12.596-7.022-.483-11.284-4.538-13.082-11.78.808-7.034 4.814-11.315 12.574-12.885M293.066 3.026c6.804 1.637 10.19 5.324 11.688 11.37-.648 6.737-4.553 10.993-11.728 12.4-6.39-.88-10.294-4.62-12.011-11.284.658-6.762 4.539-11.035 12.05-12.486M463.599 115.275c-.247 5.71-5.119 9.836-10.793 9.136-5.06-.625-8.562-4.82-8.339-9.988.249-5.712 5.127-9.843 10.793-9.138 5.065.63 8.563 4.82 8.339 9.99M527.96 115.27c-.255 5.485-5.283 9.743-10.677 9.041-4.842-.63-8.485-4.988-8.257-9.883.255-5.486 5.29-9.752 10.673-9.043 4.846.638 8.488 4.997 8.26 9.885M238.079 14.844c.055 5.782-4.175 9.923-9.953 9.746-5.7-.177-9.741-4.647-9.351-10.347.343-5.04 4.098-8.708 9.166-8.956 5.767-.283 10.083 3.785 10.138 9.557M260.846 56.73c-5.847.116-10.108-4.327-9.756-10.175.31-5.149 4.185-8.852 9.374-8.955 5.849-.116 10.106 4.323 9.757 10.175-.303 5.118-4.214 8.854-9.375 8.955M315.908 53.674c-.75-16.698 1.803-18.652 16.813-14.092 3.666 4.583 3.635 9.433.623 14.555-5.716 5.085-11.283 4.201-17.436-.463" fill="#1C2B39"/><g transform="translate(572 39)"><mask id="f" fill="#fff"><use xlink:href="#e"/></mask><path d="M20.178 5.319c.733 16.261-1.822 18.214-16.833 13.655C-.32 14.391-.29 9.541 2.875 4.16 8.43-.192 14.017-.321 20.178 5.319" fill="#1C2B39" mask="url(#f)"/></g><path d="M388.89 102.111c5.694-.396 10.266 3.918 10.198 9.623-.06 5.057-3.815 9.057-8.828 9.406-5.702.396-10.262-3.908-10.199-9.626.057-5.055 3.813-9.055 8.828-9.403M365.322 86.132c-5.249 4.12-9.702 3.915-14.24 1.464-4.626-4.386-4.64-9.266-1.972-14.429 4.422-4.66 9.302-4.673 14.471-2 4.634 4.418 4.693 9.294 1.741 14.965M415.114 91.27c-4.497-6.086-4.52-10.95-1.037-15.94 4.738-3.892 9.61-3.913 14.636-.771 4.323 4.633 4.196 9.544 1.5 14.522-4.512 4.943-9.531 4.257-15.1 2.19M494.834 75.79c2.195 6.041 2.233 10.106-.784 13.98-4.482 4.304-9.428 3.562-13.83 1.673-5.36-5.074-4.688-10.078-2.778-15.004 6.024-5.762 11.642-4.973 17.392-.65M559.313 76.662c1.875 5.355 1.959 9.391-1.511 13.358-4.44 3.536-9.236 3.572-14.257-.02-3.998-4.738-3.363-9.547-.597-14.413 5.823-4.083 11.006-4.027 16.365 1.075M486.616 156.047c-5.299-1.719-8.268-4.399-9.055-9.096 1.098-4.62 3.922-7.42 8.531-8.575 4.7.735 7.365 3.723 8.87 8.17-.366 4.823-3.58 7.363-8.346 9.501M430.773 146.725c-1.719 5.299-4.399 8.268-9.096 9.055-4.62-1.098-7.42-3.922-8.575-8.531.735-4.7 3.723-7.365 8.17-8.87 4.823.366 7.363 3.58 9.501 8.346M315.91 112.056c1.602-5.372 4.353-8.274 8.992-9.37 4.764.576 7.304 3.771 9.135 7.923-.17 5.627-3.967 8.136-7.96 10.041-5.527-.65-8.043-3.884-10.168-8.594M292.035 69.882c5.856 1.038 8.368 4.213 10.135 8.224.126 5.699-3.501 8.462-7.949 10.574-5.746.125-8.508-3.504-10.621-7.95-.137-5.752 3.502-8.505 8.435-10.849" fill="#1C2B39"/><g transform="translate(574 105)"><mask id="h" fill="#fff"><use xlink:href="#g"/></mask><path d="M17.976 10.646c-1.679 3.892-3.928 6.747-8.375 8.097-5.007-.139-7.916-3.49-9.569-8.324.429-4.97 3.66-7.5 7.823-9.567 6.023.63 9.302 4.052 10.121 9.794" fill="#1C2B39" mask="url(#h)"/></g><path d="M265.352 105.784c2.72 4.076 2.566 7.091 1.084 10.245-2.942 3.098-6.406 3.041-10.143 1.41-3.198-2.972-2.967-6.46-1.616-9.966 3.123-3.502 6.639-3.034 10.675-1.689M168.664 9.008c2.959 4.236 2.855 7.567.708 10.855-3.297 2.697-6.646 2.652-10.201.61-2.982-2.993-2.446-6.433-1.29-9.742 3.136-3.391 6.596-3.186 10.783-1.723M297.671 138.672c2.417 3.803 2.117 6.743.675 9.452-3.454 3.404-6.823 2.37-9.582 1.392-3.002-3.468-2.824-6.463-1.498-9.724 2.777-3.072 6.135-3.239 10.405-1.12M362.095 137.857c3.02 4.281 2.912 7.653.723 10.977-3.336 2.76-6.726 2.713-10.327.625-3.017-3.028-2.523-6.505-1.296-9.871 3.16-3.421 6.656-3.251 10.9-1.73M556.503 152.08c-4.276 2.679-7.655 2.735-11.008.266-2.55-3.353-2.408-6.736-.278-10.249 3.167-2.852 6.59-2.577 10.185-.798 3.019 3.02 2.933 6.467 1.1 10.781M523.026 184.798c-3.718 1.356-6.724 1.707-9.417-.697-2.269-2.82-2.046-5.79-.684-8.893 2.937-3.202 6.331-2.902 9.698-1.5 3.147 3.414 3.157 6.732.403 11.09M232.787 85.497c-3.291 1.206-6.307 1.411-9.031-.324-3.234-3.29-2.633-6.758-1.462-10.05 3.24-3.409 6.718-3.235 10.59-1.77 3.578 4.057 3.637 8.157-.097 12.144M202.309 42.79c1.215 3.304 1.515 6.334-.608 9.339-3.011 2.96-6.484 2.369-9.788 1.183-3.416-3.245-3.25-6.73-1.773-10.612 4.066-3.592 8.177-3.651 12.169.09M458.657 184.898c-3.785 1.322-6.848 1.72-9.588-.71-2.304-2.872-2.016-5.9-.715-9.052 3.022-3.11 6.431-3.158 10.183-1.2 2.88 3.15 2.867 6.526.12 10.962M384.002 171.737c3.784-2.823 6.74-2.667 9.867-1.08 2.964 2.997 2.962 6.347.877 10.019-3.175 2.746-6.503 2.662-9.795.487-2.53-2.875-2.27-5.883-.949-9.426M318.72 176.964c.81-4.69 2.754-6.71 6.39-7.049 3.531.281 5.524 2.246 6.156 5.738.02 3.645-2.03 5.602-5.218 6.542-3.815.33-5.75-1.857-7.327-5.23M260.588 182.103c-3.156-1.635-5.384-2.972-5.53-6.072.282-3.03 2.373-4.452 4.852-5.542 3.153-.248 4.69 1.876 6.15 4.094.808 3.95-1.673 5.695-5.472 7.52M170.176 80.315c-1.302 2.776-2.78 4.876-6.277 5.167-3.253-.162-5.268-2.191-5.97-5.534-.053-4.034 2.544-5.543 4.88-6.667 5.338.366 7.158 3.069 7.367 7.034M131.072 53.418c-2.874-1.528-4.956-2.967-5.297-6.354.188-3.164 2.24-5.083 5.672-5.884 3.566.212 5.479 2.272 6.279 5.696-.197 3.582-2.291 5.475-6.654 6.542M196.876 105.33c2.93 1.498 5.022 2.957 5.353 6.692.083 3.154-2.746 4.417-4.798 5.693-4.553-.245-6.507-2.297-7.275-5.8.18-3.624 2.265-5.56 6.72-6.584M100.164 8.799c2.784 1.67 5.068 3.01 5.157 6.112-.076 3.102-2.425 4.395-4.364 5.782-4.087.486-5.809-2.028-7.29-4.515.076-5.055 3.037-6.587 6.497-7.38M363.432 208.385c-1.624 3.222-2.99 5.466-6.14 5.602-3.082-.27-4.53-2.381-5.618-4.914-.249-3.193 1.865-4.78 4.143-6.237 4-.811 5.805 1.652 7.615 5.549M423.18 204.358l4.08 4.116c.841 5.508-1.412 7.445-4.484 8.88-3.7.137-5.704-1.93-6.77-5.145-.074-3.916 2.565-5.377 7.175-7.85M485.843 205.438c3.741 1.034 5.5 2.747 6.24 5.569.163 3.87-2.738 5.089-4.465 6.299-4.322.128-5.568-2.318-7.028-4.094-.638-4.141 1.648-6.064 5.253-7.774M234.53 142.978c-.88 4.16-2.771 5.755-5.367 6.73-3.672-.084-5.69-2.095-6.56-5.465.358-3.647 2.298-5.699 5.778-6.187 3.195.127 4.49 2.455 6.15 4.922M556.431 211.365c-.207 3.23-2.376 4.656-4.913 5.878-3.655-.124-5.756-2.069-6.466-5.444.13-3.365 2.501-4.618 4.634-5.974 3.92.11 5.988 2.105 6.745 5.54M35.357 12.094c1.737.339 2.809 1.204 2.47 3.171-.305 1.784-1.24 2.811-3.16 2.462-1.72-.312-2.91-1.214-2.498-3.163.346-1.638 1.162-2.892 3.188-2.47M3.075 45.031c.606.67 1.682 1.31 1.725 2.013.124 2.057-1.466 2.573-3.024 2.032-.6-.209-1.17-1.815-.975-2.59.158-.635 1.47-.982 2.274-1.455M70.397 46.984c.324 1.956-.862 2.845-2.533 3.196-1.753.368-3.28-.443-3.552-2.101-.366-2.225.215-4.299 3.232-4.074 1.775.131 2.78 1.113 2.853 2.979M35.01 81.9c-1.638-.15-2.798-.937-2.324-2.802.199-.785.923-1.806 1.622-2.02 1.56-.478 2.823.243 3.188 1.956.408 1.915-.76 2.623-2.486 2.867M98.772 75.48c7.075 4.614 4.281 6.133-.512 7.38-2.696-2.588-2.495-4.705.512-7.38M69.56 112.771c-.304.925-1.433 1.777-3.049 1.267-1.685-.532-1.96-2.17-1.52-3.553.197-.618 1.552-1.206 2.386-1.21 1.688-.01 2.788.875 2.182 3.496M130.978 107.732c7.183 4.616 4.267 6.1-.484 7.363-2.7-2.594-2.499-4.71.484-7.363M102.013 143.895c-.15 1.638-.937 2.797-2.803 2.323-.785-.199-1.806-.922-2.02-1.623-.477-1.559.243-2.822 1.956-3.187 1.915-.408 2.623.76 2.867 2.487M164.698 147.775c-7.05-4.614-4.283-6.14.518-7.384 2.696 2.588 2.494 4.705-.518 7.384M134.298 175.987c.11 1.038-.487 2.326-2.235 2.436-.828.053-2.168-.432-2.459-1.055-.633-1.36-.468-3.12 1.134-3.702 1.382-.503 2.89-.015 3.56 2.32M199.315 175.902c.324 1.956-.862 2.846-2.534 3.196-1.752.368-3.278-.442-3.55-2.1-.367-2.226.214-4.3 3.231-4.076 1.775.133 2.781 1.114 2.853 2.98M166.655 207.185c-.61 3.208-1.83 3.904-3.412 3.487-1.69-.447-2.074-2.06-1.652-3.464.193-.644 1.511-1.31 2.337-1.333 1.658-.048 2.857.75 2.727 1.31M231.502 207.657c.279 1.742-.54 3.25-2.038 3.524-2.045.373-4.161.012-3.993-3.036.1-1.831 1.02-2.597 2.759-2.872 2-.317 2.632.985 3.272 2.384M295.834 205.444c.489 3.602.769 6.106-2.952 6.262-2.575.107-3.654-1.367-3.402-3.673.386-3.534 2.883-3.205 6.354-2.589M194.062 240.29c.669-.608 1.31-1.683 2.013-1.726 2.057-.124 2.573 1.465 2.032 3.023-.21.6-1.815 1.17-2.591.977-.634-.158-.981-1.47-1.454-2.275M260.288 243.273c-1.53-.422-2.702-1.133-2.32-3.024.33-1.636 1.151-2.648 3.003-2.325 1.681.293 2.649 1.18 2.313 2.986-.298 1.616-1.127 2.68-2.996 2.363M325.916 237.567c1.389.34 2.445 1.136 2.27 3.15-.162 1.884-1.05 2.8-2.868 2.94-3.011.229-3.664-1.79-3.26-4.017.283-1.551 1.713-2.524 3.858-2.073M388.737 243.764c-2.45-.458-2.803-2.54-2.24-4.55.42-1.498 2.061-2.101 3.726-1.829 2.754.45 3.066 2.648 2.504 4.577-.38 1.305-1.962 2.302-3.99 1.802M451.01 246.388c-.472-3.473-.594-5.956 3.069-6.065 2.562-.076 3.569 1.49 3.297 3.765-.426 3.554-2.871 3.238-6.365 2.3M522.363 243.048c-4.591 7.137-6.078 4.229-7.337-.515 2.594-2.776 4.712-2.61 7.337.515M226.291 272.519c.67-.607 1.31-1.682 2.013-1.725 2.057-.125 2.573 1.465 2.032 3.023-.209.6-1.815 1.169-2.59.977-.635-.158-.982-1.471-1.455-2.275M295.574 271.644c-.611 3.207-1.83 3.904-3.412 3.486-1.69-.447-2.074-2.058-1.653-3.462.194-.646 1.512-1.31 2.338-1.334 1.658-.048 2.857.75 2.727 1.31M360.097 272.547c.276 1.756-.785 2.579-2.404 2.862-1.806.316-2.686-.65-2.968-2.336-.312-1.862.718-2.655 2.346-2.982 1.915-.386 2.583.834 3.026 2.456M424.701 276.378c-.447 1.62-1.193 2.87-3.202 2.468-1.734-.347-2.814-1.208-2.475-3.178.308-1.784 1.242-2.813 3.162-2.462 1.714.314 2.845 1.186 2.515 3.172M485.881 273.197c1.936-.3 2.855.692 3.161 2.474.337 1.971-.754 2.817-2.481 3.173-2.036.42-2.84-.873-3.181-2.49-.408-1.933.785-2.805 2.501-3.157M553.452 276.365c-.422 1.53-1.133 2.702-3.024 2.32-1.636-.33-2.648-1.152-2.325-3.004.293-1.681 1.18-2.648 2.986-2.313 1.616.299 2.679 1.128 2.363 2.997M327.269 305.564c-.765.51-1.564 1.487-2.286 1.433-1.99-.147-2.308-1.772-1.577-3.202.31-.608 1.973-1.088 2.647-.787.655.292.83 1.658 1.216 2.556M391.742 305.258c-.641.592-1.252 1.647-1.965 1.722-2.055.216-2.69-1.316-2.212-2.94.175-.595 1.753-1.21 2.545-1.057.633.122 1.044 1.395 1.632 2.275" fill="#1C2B39"/></g></svg>