<?xml version="1.0" encoding="UTF-8"?>
<svg width="576px" height="307px" viewBox="0 0 576 307" version="1.1" xmlns="http://www.w3.org/2000/svg" xmlns:xlink="http://www.w3.org/1999/xlink">
    <title>header-top-right-graphic</title>
    <defs>
        <polygon id="path-1" points="0.4171 0 30.7311 0 30.7311 1.0068 0.4171 1.0068"></polygon>
        <polygon id="path-3" points="0.4553 0 31.4013 0 31.4013 1.2711 0.4553 1.2711"></polygon>
        <polygon id="path-5" points="0.546290262 0.98251948 4 0.98251948 4 21.1085787 0.546290262 21.1085787"></polygon>
        <polygon id="path-7" points="0.032 0.8521 2 0.8521 2 18.7431 0.032 18.7431"></polygon>
    </defs>
    <g id="Header" stroke="none" stroke-width="1" fill="none" fill-rule="evenodd">
        <g id="CME_Annual_Report_Fall_2020_website_Round3" transform="translate(-790.000000, 0.000000)">
            <g id="Group-395" transform="translate(163.000000, 0.000000)">
                <g id="header-top-right-graphic" transform="translate(627.000000, 0.000000)">
                    <g id="Group-7" transform="translate(503.000000, 0.000000)">
                        <mask id="mask-2" fill="white">
                            <use xlink:href="#path-1"></use>
                        </mask>
                        <g id="Clip-6"></g>
                        <path d="M30.7311,-13.5972 C25.9031,-3.2802 25.9031,-3.2802 15.4751,1.0068 C7.0701,-0.1932 2.1621,-5.0772 0.4171,-13.7352 C1.4101,-22.4202 6.4271,-27.7192 15.5111,-29.1452 C23.9171,-27.9482 28.8251,-23.0652 30.7311,-13.5972" id="Fill-5" fill="#1C2B39" mask="url(#mask-2)"></path>
                    </g>
                    <g id="Group-10" transform="translate(438.000000, 0.000000)">
                        <mask id="mask-4" fill="white">
                            <use xlink:href="#path-3"></use>
                        </mask>
                        <g id="Clip-9"></g>
                        <path d="M0.4553,-14.1099 C4.7283,-25.3969 4.7413,-25.4109 15.5843,-29.4709 C24.5463,-28.3209 29.8853,-23.2899 31.4013,-14.2679 C27.1523,-3.6919 27.1523,-3.6919 17.2823,1.2711 C8.0753,0.8181 2.8533,-4.3609 0.4553,-14.1099" id="Fill-8" fill="#1C2B39" mask="url(#mask-4)"></path>
                    </g>
                    <path d="M357.941,27.7454 C350.933,28.0954 344.649,22.1914 344.526,15.1414 C344.416,8.8114 349.643,2.8674 355.955,2.1444 C362.832,1.3564 369.586,6.9644 370.164,13.9404 C370.739,20.8994 364.991,27.3934 357.941,27.7454" id="Fill-11" fill="#1C2B39"></path>
                    <path d="M421.0848,31.29 C413.6148,30.902 408.2828,24.953 408.6738,17.441 C409.0618,9.971 415.0108,4.639 422.5218,5.03 C430.0028,5.418 435.3228,11.353 434.9358,18.877 C434.5508,26.352 428.6048,31.681 421.0848,31.29" id="Fill-13" fill="#1C2B39"></path>
                    <path d="M486.7258,31.3158 C479.2298,31.5648 473.3568,26.0908 473.1078,18.6218 C472.8558,11.1288 478.3328,5.2538 485.8018,5.0038 C493.2948,4.7538 499.1708,10.2318 499.4188,17.6988 C499.6678,25.1988 494.1978,31.0668 486.7258,31.3158" id="Fill-15" fill="#1C2B39"></path>
                    <path d="M550.5719,5.3414 C557.5709,5.2514 563.6859,11.4104 563.5409,18.4044 C563.3949,25.4434 557.0819,31.3424 550.0829,30.9794 C543.7059,30.6484 538.1909,25.0914 537.9039,18.7054 C537.5889,11.7004 543.5309,5.4324 550.5719,5.3414" id="Fill-17" fill="#1C2B39"></path>
                    <path d="M466.595,50.5986 C466.476,56.9386 460.563,62.8426 454.225,62.9506 C447.916,63.0586 441.798,57.3166 441.472,50.9826 C441.115,44.0316 447.698,37.4586 454.644,37.8276 C460.975,38.1646 466.712,44.2956 466.595,50.5986" id="Fill-19" fill="#1C2B39"></path>
                    <path d="M518.2684,62.8998 C510.2704,58.4628 510.2704,58.4628 506.1684,50.6688 C507.2214,43.6548 511.1924,39.3438 518.4304,38.1198 C524.9844,39.0568 528.9084,42.8898 530.7424,49.5118 C530.4054,56.5628 526.2974,60.7758 518.2684,62.8998" id="Fill-21" fill="#1C2B39"></path>
                    <path d="M389.8544,34.7788 C397.1474,36.6808 400.7724,40.7928 401.8864,46.8478 C400.8504,53.7848 396.9464,57.6498 390.3624,59.4438 C383.3404,58.9608 379.0784,54.9058 377.2804,47.6648 C378.0884,40.6298 382.0944,36.3488 389.8544,34.7788" id="Fill-23" fill="#1C2B39"></path>
                    <path d="M293.0657,3.0259 C299.8697,4.6629 303.2557,8.3499 304.7537,14.3969 C304.1057,21.1329 300.2007,25.3889 293.0257,26.7969 C286.6367,25.9169 282.7317,22.1769 281.0147,15.5119 C281.6727,8.7499 285.5537,4.4769 293.0657,3.0259" id="Fill-25" fill="#1C2B39"></path>
                    <path d="M463.599,115.2748 C463.352,120.9858 458.48,125.1108 452.806,124.4108 C447.746,123.7858 444.244,119.5908 444.467,114.4228 C444.716,108.7108 449.594,104.5798 455.26,105.2848 C460.325,105.9158 463.823,110.1058 463.599,115.2748" id="Fill-27" fill="#1C2B39"></path>
                    <path d="M527.9595,115.2703 C527.7045,120.7553 522.6775,125.0133 517.2835,124.3113 C512.4405,123.6803 508.7985,119.3233 509.0255,114.4283 C509.2805,108.9423 514.3155,104.6763 519.6995,105.3853 C524.5455,106.0233 528.1865,110.3823 527.9595,115.2703" id="Fill-29" fill="#1C2B39"></path>
                    <path d="M238.0787,14.8443 C238.1337,20.6263 233.9037,24.7673 228.1257,24.5903 C222.4257,24.4133 218.3847,19.9433 218.7747,14.2433 C219.1177,9.2033 222.8727,5.5353 227.9407,5.2873 C233.7077,5.0043 238.0237,9.0723 238.0787,14.8443" id="Fill-31" fill="#1C2B39"></path>
                    <path d="M260.8455,56.7303 C254.9985,56.8463 250.7385,52.4033 251.0905,46.5553 C251.3995,41.4063 255.2755,37.7033 260.4645,37.6003 C266.3125,37.4843 270.5705,41.9233 270.2215,47.7753 C269.9175,52.8933 266.0065,56.6293 260.8455,56.7303" id="Fill-33" fill="#1C2B39"></path>
                    <path d="M315.9082,53.674 C315.1572,36.976 317.7112,35.022 332.7212,39.582 C336.3872,44.165 336.3562,49.015 333.3442,54.137 C327.6282,59.222 322.0612,58.338 315.9082,53.674" id="Fill-35" fill="#1C2B39"></path>
                    <g id="Group-39" transform="translate(572.000000, 39.000000)">
                        <mask id="mask-6" fill="white">
                            <use xlink:href="#path-5"></use>
                        </mask>
                        <g id="Clip-38"></g>
                        <path d="M20.1782,5.319 C20.9112,21.58 18.3562,23.533 3.3452,18.974 C-0.3198,14.391 -0.2898,9.541 2.8752,4.16 C8.4292,-0.192 14.0172,-0.321 20.1782,5.319" id="Fill-37" fill="#1C2B39" mask="url(#mask-6)"></path>
                    </g>
                    <path d="M388.8894,102.1114 C394.5844,101.7154 399.1564,106.0294 399.0884,111.7344 C399.0284,116.7914 395.2734,120.7914 390.2604,121.1404 C384.5584,121.5364 379.9984,117.2324 380.0614,111.5144 C380.1184,106.4594 383.8744,102.4594 388.8894,102.1114" id="Fill-40" fill="#1C2B39"></path>
                    <path d="M365.3223,86.1321 C360.0733,90.2511 355.6203,90.0471 351.0813,87.5961 C346.4563,83.2101 346.4423,78.3301 349.1103,73.1671 C353.5323,68.5071 358.4123,68.4941 363.5813,71.1661 C368.2153,75.5851 368.2743,80.4611 365.3223,86.1321" id="Fill-42" fill="#1C2B39"></path>
                    <path d="M415.1136,91.2708 C410.6166,85.1838 410.5946,80.3208 414.0766,75.3308 C418.8146,71.4378 423.6876,71.4168 428.7126,74.5588 C433.0356,79.1918 432.9086,84.1028 430.2136,89.0808 C425.7006,94.0238 420.6816,93.3378 415.1136,91.2708" id="Fill-44" fill="#1C2B39"></path>
                    <path d="M494.8335,75.7891 C497.0295,81.8311 497.0675,85.8961 494.0495,89.7701 C489.5685,94.0741 484.6215,93.3321 480.2205,91.4431 C474.8595,86.3691 475.5325,81.3651 477.4425,76.4391 C483.4655,70.6771 489.0835,71.4661 494.8335,75.7891" id="Fill-46" fill="#1C2B39"></path>
                    <path d="M559.3127,76.662 C561.1877,82.017 561.2717,86.053 557.8017,90.02 C553.3617,93.556 548.5657,93.592 543.5447,90 C539.5467,85.262 540.1817,80.453 542.9477,75.587 C548.7707,71.504 553.9537,71.56 559.3127,76.662" id="Fill-48" fill="#1C2B39"></path>
                    <path d="M486.6163,156.0474 C481.3173,154.3284 478.3483,151.6484 477.5613,146.9514 C478.6593,142.3314 481.4833,139.5314 486.0923,138.3764 C490.7913,139.1114 493.4573,142.0994 494.9613,146.5464 C494.5963,151.3694 491.3813,153.9094 486.6163,156.0474" id="Fill-50" fill="#1C2B39"></path>
                    <path d="M430.7732,146.7249 C429.0542,152.0239 426.3742,154.9929 421.6772,155.7799 C417.0572,154.6819 414.2572,151.8579 413.1022,147.2489 C413.8372,142.5499 416.8252,139.8839 421.2722,138.3799 C426.0952,138.7449 428.6352,141.9599 430.7732,146.7249" id="Fill-52" fill="#1C2B39"></path>
                    <path d="M315.9091,112.0561 C317.5121,106.6841 320.2631,103.7821 324.9021,102.6861 C329.6661,103.2621 332.2061,106.4571 334.0371,110.6091 C333.8671,116.2361 330.0701,118.7451 326.0761,120.6501 C320.5501,119.9991 318.0341,116.7661 315.9091,112.0561" id="Fill-54" fill="#1C2B39"></path>
                    <path d="M292.035,69.8815 C297.891,70.9205 300.403,74.0955 302.17,78.1055 C302.296,83.8045 298.669,86.5675 294.221,88.6795 C288.475,88.8055 285.713,85.1765 283.6,80.7305 C283.463,74.9775 287.102,72.2245 292.035,69.8815" id="Fill-56" fill="#1C2B39"></path>
                    <g id="Group-60" transform="translate(574.000000, 105.000000)">
                        <mask id="mask-8" fill="white">
                            <use xlink:href="#path-7"></use>
                        </mask>
                        <g id="Clip-59"></g>
                        <path d="M17.976,10.6461 C16.297,14.5381 14.048,17.3931 9.601,18.7431 C4.594,18.6041 1.685,15.2521 0.032,10.4191 C0.461,5.4491 3.692,2.9181 7.855,0.8521 C13.878,1.4821 17.157,4.9041 17.976,10.6461" id="Fill-58" fill="#1C2B39" mask="url(#mask-8)"></path>
                    </g>
                    <path d="M265.3516,105.7842 C268.0716,109.8602 267.9176,112.8752 266.4356,116.0292 C263.4936,119.1272 260.0296,119.0702 256.2926,117.4382 C253.0946,114.4672 253.3256,110.9782 254.6766,107.4732 C257.7996,103.9712 261.3156,104.4392 265.3516,105.7842" id="Fill-61" fill="#1C2B39"></path>
                    <path d="M168.6636,9.0085 C171.6226,13.2435 171.5186,16.5745 169.3716,19.8625 C166.0746,22.5595 162.7256,22.5145 159.1706,20.4725 C156.1886,17.4795 156.7246,14.0395 157.8816,10.7305 C161.0166,7.3395 164.4766,7.5445 168.6636,9.0085" id="Fill-63" fill="#1C2B39"></path>
                    <path d="M297.671,138.6722 C300.088,142.4752 299.788,145.4152 298.346,148.1242 C294.892,151.5282 291.523,150.4942 288.764,149.5162 C285.762,146.0482 285.94,143.0532 287.266,139.7922 C290.043,136.7202 293.401,136.5532 297.671,138.6722" id="Fill-65" fill="#1C2B39"></path>
                    <path d="M362.0946,137.8575 C365.1146,142.1385 365.0066,145.5095 362.8176,148.8345 C359.4816,151.5945 356.0916,151.5465 352.4906,149.4595 C349.4736,146.4315 349.9676,142.9545 351.1946,139.5875 C354.3546,136.1665 357.8506,136.3365 362.0946,137.8575" id="Fill-67" fill="#1C2B39"></path>
                    <path d="M556.5028,152.08 C552.2268,154.759 548.8478,154.815 545.4948,152.346 C542.9458,148.993 543.0868,145.61 545.2168,142.097 C548.3838,139.245 551.8068,139.52 555.4018,141.299 C558.4208,144.319 558.3348,147.766 556.5028,152.08" id="Fill-69" fill="#1C2B39"></path>
                    <path d="M523.0262,184.7983 C519.3082,186.1543 516.3022,186.5053 513.6092,184.1013 C511.3402,181.2813 511.5632,178.3103 512.9252,175.2083 C515.8622,172.0063 519.2562,172.3063 522.6232,173.7083 C525.7702,177.1223 525.7802,180.4403 523.0262,184.7983" id="Fill-71" fill="#1C2B39"></path>
                    <path d="M232.7869,85.4973 C229.4959,86.7033 226.4799,86.9083 223.7559,85.1733 C220.5219,81.8823 221.1229,78.4153 222.2939,75.1233 C225.5339,71.7143 229.0119,71.8883 232.8839,73.3533 C236.4619,77.4103 236.5209,81.5103 232.7869,85.4973" id="Fill-73" fill="#1C2B39"></path>
                    <path d="M202.3086,42.7908 C203.5236,46.0938 203.8236,49.1238 201.7006,52.1288 C198.6896,55.0898 195.2166,54.4978 191.9126,53.3118 C188.4966,50.0668 188.6626,46.5828 190.1396,42.6998 C194.2056,39.1078 198.3166,39.0488 202.3086,42.7908" id="Fill-75" fill="#1C2B39"></path>
                    <path d="M458.6572,184.8983 C454.8722,186.2203 451.8092,186.6173 449.0692,184.1883 C446.7652,181.3163 447.0532,178.2883 448.3542,175.1363 C451.3762,172.0263 454.7852,171.9783 458.5372,173.9353 C461.4172,177.0853 461.4042,180.4623 458.6572,184.8983" id="Fill-77" fill="#1C2B39"></path>
                    <path d="M384.0021,171.7369 C387.7861,168.9139 390.7421,169.0699 393.8691,170.6579 C396.8331,173.6539 396.8311,177.0039 394.7461,180.6759 C391.5711,183.4219 388.2431,183.3379 384.9511,181.1629 C382.4211,178.2879 382.6811,175.2799 384.0021,171.7369" id="Fill-79" fill="#1C2B39"></path>
                    <path d="M318.7205,176.9642 C319.5305,172.2732 321.4745,170.2542 325.1105,169.9152 C328.6415,170.1962 330.6335,172.1612 331.2665,175.6532 C331.2855,179.2982 329.2365,181.2552 326.0485,182.1952 C322.2335,182.5252 320.2975,180.3382 318.7205,176.9642" id="Fill-81" fill="#1C2B39"></path>
                    <path d="M260.5876,182.1034 C257.4316,180.4684 255.2036,179.1314 255.0586,176.0314 C255.3396,173.0014 257.4306,171.5794 259.9096,170.4894 C263.0626,170.2414 264.6006,172.3654 266.0606,174.5834 C266.8676,178.5334 264.3866,180.2784 260.5876,182.1034" id="Fill-83" fill="#1C2B39"></path>
                    <path d="M170.1757,80.3147 C168.8737,83.0907 167.3957,85.1907 163.8987,85.4817 C160.6457,85.3197 158.6307,83.2907 157.9297,79.9477 C157.8757,75.9137 160.4727,74.4047 162.8097,73.2807 C168.1467,73.6467 169.9667,76.3497 170.1757,80.3147" id="Fill-85" fill="#1C2B39"></path>
                    <path d="M131.0718,53.4182 C128.1978,51.8902 126.1158,50.4512 125.7748,47.0642 C125.9628,43.9002 128.0158,41.9812 131.4468,41.1802 C135.0128,41.3922 136.9258,43.4522 137.7258,46.8762 C137.5288,50.4582 135.4348,52.3512 131.0718,53.4182" id="Fill-87" fill="#1C2B39"></path>
                    <path d="M196.8764,105.3309 C199.8064,106.8279 201.8984,108.2869 202.2294,112.0219 C202.3124,115.1759 199.4834,116.4389 197.4314,117.7149 C192.8784,117.4699 190.9244,115.4179 190.1564,111.9159 C190.3364,108.2909 192.4214,106.3559 196.8764,105.3309" id="Fill-89" fill="#1C2B39"></path>
                    <path d="M100.1644,8.7986 C102.9484,10.4686 105.2324,11.8096 105.3214,14.9106 C105.2454,18.0126 102.8964,19.3056 100.9574,20.6926 C96.8704,21.1786 95.1484,18.6646 93.6664,16.1776 C93.7434,11.1226 96.7044,9.5906 100.1644,8.7986" id="Fill-91" fill="#1C2B39"></path>
                    <path d="M363.4323,208.3847 C361.8083,211.6067 360.4423,213.8507 357.2913,213.9867 C354.2103,213.7167 352.7613,211.6057 351.6743,209.0727 C351.4253,205.8797 353.5393,204.2937 355.8173,202.8357 C359.8173,202.0247 361.6223,204.4877 363.4323,208.3847" id="Fill-93" fill="#1C2B39"></path>
                    <path d="M423.1805,204.3583 C425.3405,206.5373 426.7865,207.9963 427.2605,208.4743 C428.1015,213.9823 425.8475,215.9193 422.7755,217.3533 C419.0755,217.4913 417.0725,215.4233 416.0055,212.2093 C415.9315,208.2933 418.5705,206.8323 423.1805,204.3583" id="Fill-95" fill="#1C2B39"></path>
                    <path d="M485.8434,205.4377 C489.5844,206.4717 491.3424,208.1847 492.0824,211.0067 C492.2464,214.8767 489.3454,216.0957 487.6184,217.3057 C483.2964,217.4337 482.0504,214.9877 480.5904,213.2117 C479.9524,209.0707 482.2384,207.1477 485.8434,205.4377" id="Fill-97" fill="#1C2B39"></path>
                    <path d="M234.5306,142.9783 C233.6496,147.1373 231.7586,148.7333 229.1626,149.7073 C225.4906,149.6243 223.4736,147.6133 222.6026,144.2433 C222.9606,140.5963 224.9006,138.5443 228.3806,138.0563 C231.5756,138.1833 232.8706,140.5113 234.5306,142.9783" id="Fill-99" fill="#1C2B39"></path>
                    <path d="M556.4314,211.3654 C556.2244,214.5944 554.0554,216.0214 551.5184,217.2434 C547.8634,217.1194 545.7624,215.1744 545.0524,211.7994 C545.1824,208.4344 547.5534,207.1814 549.6864,205.8254 C553.6064,205.9354 555.6744,207.9304 556.4314,211.3654" id="Fill-101" fill="#1C2B39"></path>
                    <path d="M35.3567,12.094 C37.0937,12.433 38.1657,13.298 37.8277,15.265 C37.5217,17.049 36.5877,18.076 34.6667,17.727 C32.9467,17.415 31.7567,16.513 32.1687,14.564 C32.5147,12.926 33.3307,11.672 35.3567,12.094" id="Fill-103" fill="#1C2B39"></path>
                    <path d="M3.0748,45.0313 C3.6808,45.7003 4.7568,46.3413 4.7998,47.0443 C4.9238,49.1013 3.3338,49.6173 1.7758,49.0763 C1.1758,48.8673 0.6068,47.2613 0.8008,46.4853 C0.9588,45.8513 2.2708,45.5043 3.0748,45.0313" id="Fill-105" fill="#1C2B39"></path>
                    <path d="M70.3969,46.984 C70.7209,48.94 69.5349,49.829 67.8639,50.18 C66.1109,50.548 64.5849,49.737 64.3119,48.079 C63.9459,45.854 64.5269,43.78 67.5439,44.005 C69.3189,44.136 70.3249,45.118 70.3969,46.984" id="Fill-107" fill="#1C2B39"></path>
                    <path d="M35.0096,81.9007 C33.3716,81.7507 32.2116,80.9627 32.6856,79.0977 C32.8846,78.3127 33.6086,77.2917 34.3076,77.0777 C35.8686,76.5997 37.1306,77.3207 37.4956,79.0337 C37.9036,80.9487 36.7366,81.6567 35.0096,81.9007" id="Fill-109" fill="#1C2B39"></path>
                    <path d="M98.7725,75.4809 C105.8465,80.0939 103.0535,81.6129 98.2605,82.8609 C95.5645,80.2719 95.7655,78.1549 98.7725,75.4809" id="Fill-111" fill="#1C2B39"></path>
                    <path d="M69.5591,112.7712 C69.2561,113.6962 68.1271,114.5482 66.5111,114.0382 C64.8261,113.5062 64.5511,111.8682 64.9911,110.4852 C65.1881,109.8672 66.5431,109.2792 67.3771,109.2752 C69.0651,109.2642 70.1651,110.1502 69.5591,112.7712" id="Fill-113" fill="#1C2B39"></path>
                    <path d="M130.9784,107.7317 C138.1614,112.3477 135.2454,113.8327 130.4944,115.0947 C127.7934,112.5007 127.9954,110.3847 130.9784,107.7317" id="Fill-115" fill="#1C2B39"></path>
                    <path d="M102.0129,143.8954 C101.8629,145.5334 101.0759,146.6924 99.2099,146.2184 C98.4249,146.0194 97.4039,145.2964 97.1899,144.5954 C96.7129,143.0364 97.4329,141.7734 99.1459,141.4084 C101.0609,141.0004 101.7689,142.1684 102.0129,143.8954" id="Fill-117" fill="#1C2B39"></path>
                    <path d="M164.698,147.7752 C157.648,143.1612 160.415,141.6352 165.216,140.3912 C167.912,142.9792 167.71,145.0962 164.698,147.7752" id="Fill-119" fill="#1C2B39"></path>
                    <path d="M134.2981,175.9868 C134.4071,177.0248 133.8111,178.3128 132.0631,178.4228 C131.2351,178.4758 129.8951,177.9908 129.6041,177.3678 C128.9711,176.0088 129.1361,174.2488 130.7381,173.6658 C132.1201,173.1628 133.6271,173.6508 134.2981,175.9868" id="Fill-121" fill="#1C2B39"></path>
                    <path d="M199.3152,175.902 C199.6392,177.858 198.4532,178.748 196.7812,179.098 C195.0292,179.466 193.5032,178.656 193.2302,176.998 C192.8642,174.772 193.4452,172.698 196.4622,172.922 C198.2372,173.055 199.2432,174.036 199.3152,175.902" id="Fill-123" fill="#1C2B39"></path>
                    <path d="M166.6553,207.1855 C166.0443,210.3925 164.8253,211.0885 163.2433,210.6715 C161.5533,210.2245 161.1693,208.6125 161.5913,207.2085 C161.7843,206.5635 163.1023,205.8985 163.9283,205.8745 C165.5863,205.8265 166.7853,206.6245 166.6553,207.1855" id="Fill-125" fill="#1C2B39"></path>
                    <path d="M231.5017,207.6569 C231.7807,209.3989 230.9627,210.9069 229.4637,211.1809 C227.4187,211.5539 225.3027,211.1929 225.4707,208.1449 C225.5707,206.3139 226.4907,205.5479 228.2297,205.2729 C230.2297,204.9559 230.8617,206.2579 231.5017,207.6569" id="Fill-127" fill="#1C2B39"></path>
                    <path d="M295.834,205.4442 C296.323,209.0462 296.603,211.5502 292.882,211.7062 C290.307,211.8132 289.228,210.3392 289.48,208.0332 C289.866,204.4992 292.363,204.8282 295.834,205.4442" id="Fill-129" fill="#1C2B39"></path>
                    <path d="M194.0618,240.2892 C194.7308,239.6822 195.3718,238.6072 196.0748,238.5642 C198.1318,238.4402 198.6478,240.0292 198.1068,241.5872 C197.8978,242.1872 196.2918,242.7562 195.5158,242.5642 C194.8818,242.4062 194.5348,241.0932 194.0618,240.2892" id="Fill-131" fill="#1C2B39"></path>
                    <path d="M260.2875,243.2731 C258.7575,242.8511 257.5855,242.1401 257.9675,240.2491 C258.2975,238.6131 259.1195,237.6011 260.9715,237.9241 C262.6525,238.2171 263.6195,239.1041 263.2845,240.9101 C262.9855,242.5261 262.1565,243.5891 260.2875,243.2731" id="Fill-133" fill="#1C2B39"></path>
                    <path d="M325.9156,237.5668 C327.3046,237.9068 328.3606,238.7028 328.1866,240.7168 C328.0236,242.6008 327.1366,243.5178 325.3176,243.6568 C322.3066,243.8858 321.6536,241.8678 322.0586,239.6398 C322.3406,238.0888 323.7706,237.1158 325.9156,237.5668" id="Fill-135" fill="#1C2B39"></path>
                    <path d="M388.7372,243.764 C386.2872,243.306 385.9342,241.224 386.4972,239.214 C386.9172,237.716 388.5582,237.113 390.2232,237.385 C392.9772,237.835 393.2892,240.033 392.7272,241.962 C392.3472,243.267 390.7652,244.264 388.7372,243.764" id="Fill-137" fill="#1C2B39"></path>
                    <path d="M451.0106,246.3882 C450.5376,242.9152 450.4156,240.4322 454.0786,240.3232 C456.6406,240.2472 457.6476,241.8132 457.3756,244.0882 C456.9496,247.6422 454.5046,247.3262 451.0106,246.3882" id="Fill-139" fill="#1C2B39"></path>
                    <path d="M522.3629,243.0477 C517.7719,250.1847 516.2849,247.2767 515.0259,242.5327 C517.6199,239.7567 519.7379,239.9237 522.3629,243.0477" id="Fill-141" fill="#1C2B39"></path>
                    <path d="M226.2914,272.5187 C226.9604,271.9117 227.6014,270.8367 228.3044,270.7937 C230.3614,270.6687 230.8774,272.2587 230.3364,273.8167 C230.1274,274.4167 228.5214,274.9857 227.7454,274.7937 C227.1114,274.6357 226.7644,273.3227 226.2914,272.5187" id="Fill-143" fill="#1C2B39"></path>
                    <path d="M295.5736,271.6445 C294.9626,274.8515 293.7436,275.5485 292.1616,275.1305 C290.4716,274.6835 290.0876,273.0715 290.5086,271.6685 C290.7026,271.0225 292.0206,270.3575 292.8466,270.3335 C294.5046,270.2865 295.7036,271.0835 295.5736,271.6445" id="Fill-145" fill="#1C2B39"></path>
                    <path d="M360.0972,272.5466 C360.3732,274.3026 359.3122,275.1256 357.6932,275.4086 C355.8872,275.7246 355.0072,274.7596 354.7252,273.0726 C354.4132,271.2106 355.4432,270.4176 357.0712,270.0906 C358.9862,269.7046 359.6542,270.9246 360.0972,272.5466" id="Fill-147" fill="#1C2B39"></path>
                    <path d="M424.7013,276.3784 C424.2543,277.9984 423.5083,279.2484 421.4993,278.8464 C419.7653,278.4994 418.6853,277.6384 419.0243,275.6684 C419.3323,273.8844 420.2663,272.8554 422.1863,273.2064 C423.9003,273.5204 425.0313,274.3924 424.7013,276.3784" id="Fill-149" fill="#1C2B39"></path>
                    <path d="M485.881,273.1965 C487.817,272.8965 488.736,273.8895 489.042,275.6715 C489.379,277.6425 488.288,278.4885 486.561,278.8435 C484.525,279.2635 483.721,277.9705 483.38,276.3545 C482.972,274.4215 484.165,273.5485 485.881,273.1965" id="Fill-151" fill="#1C2B39"></path>
                    <path d="M553.4517,276.3648 C553.0297,277.8948 552.3187,279.0668 550.4277,278.6848 C548.7917,278.3548 547.7797,277.5328 548.1027,275.6808 C548.3957,273.9998 549.2827,273.0328 551.0887,273.3678 C552.7047,273.6668 553.7677,274.4958 553.4517,276.3648" id="Fill-153" fill="#1C2B39"></path>
                    <path d="M327.2687,305.5641 C326.5037,306.0741 325.7047,307.0511 324.9827,306.9971 C322.9927,306.8501 322.6747,305.2251 323.4057,303.7951 C323.7157,303.1871 325.3787,302.7071 326.0527,303.0081 C326.7077,303.3001 326.8837,304.6661 327.2687,305.5641" id="Fill-155" fill="#1C2B39"></path>
                    <path d="M391.7418,305.2576 C391.1008,305.8496 390.4898,306.9046 389.7768,306.9796 C387.7218,307.1956 387.0868,305.6636 387.5648,304.0406 C387.7398,303.4446 389.3178,302.8296 390.1098,302.9826 C390.7428,303.1046 391.1538,304.3776 391.7418,305.2576" id="Fill-157" fill="#1C2B39"></path>
                </g>
            </g>
        </g>
    </g>
</svg>