<svg xmlns="http://www.w3.org/2000/svg" viewBox="0 0 20 22"><path fill="#BF5700" fill-rule="nonzero" d="M19.999246 7.03890197c0-4.65073046-3.0483337-6.01437056-3.0483337-6.01437056-2.9913958-1.3732095-10.93591518-1.3588554-13.89860272 0 0 0-3.0488122 1.3636401-3.0488122 6.01437056 0 5.53590033-.31579033 12.41151733 5.05408085 13.83257383 1.93828283.5119631 3.60383763.6220113 4.94403267.545456 2.4311072-.1339716 3.7952257-.8660311 3.7952257-.8660311l-.0813399-1.765555s-1.7373253.545456-3.6899623.4832549c-1.93349809-.0669859-3.97130272-.2105269-4.28852847-2.5837392a4.9062346 4.9062346 0 0 1-.04306232-.6650736c4.09714042 1.0000028 7.59092989.4354079 8.55265499.3205751 2.6851749-.3205751 5.0239373-1.976082 5.3220242-3.4880479.4689008-2.3827816.4306232-5.81341303.4306232-5.81341303ZM16.4049778 13.029349h-2.2311066V7.5652192c0-2.37799695-3.0622094-2.46890629-3.0622094.33014445v2.99043885H8.89490933V7.89488518c0-2.79905074-3.06220936-2.7081414-3.06220936-.33014445v5.46412977H3.59680868c0-5.84212124-.24880451-7.07657438.88086366-8.37322866 1.23923784-1.38277891 3.81914922-1.47368825 4.9679562.29186683l.55502546.93301692.5550254-.93301692c1.1535917-1.77512448 3.7378093-1.66507633 4.9679562-.29186683 1.1344529 1.30622368.8803852 2.53589213.8803852 8.37322866l.000957.0004785Z"/></svg>