<svg xmlns="http://www.w3.org/2000/svg" viewBox="0 0 20 20"><path fill="#BF5700" fill-rule="nonzero" d="M17.857 0H2.143C.96 0 0 .96 0 2.143v15.714C0 19.04.96 20 2.143 20h15.714C19.04 20 20 19.04 20 17.857V2.143C20 .96 19.04 0 17.857 0Zm-2.183 7.09c.009.124.009.254.009.379 0 3.87-2.946 8.33-8.33 8.33-1.661 0-3.201-.482-4.496-1.312.237.026.464.035.705.035 1.31727519.0028867 2.59723553-.4373859 3.634-1.25-1.25189921-.0230466-2.35101279-.8385439-2.736-2.03.45.066.857.066 1.321-.055-1.3653899-.2784095-2.34539592-1.48051672-2.343-2.874v-.036c.388.219.843.352 1.32.37-.81491112-.54286822-1.30373926-1.45782535-1.302-2.437 0-.545.143-1.045.398-1.478 1.48628102 1.83062348 3.67999319 2.94401874 6.035 3.063-.415-1.987 1.072-3.599 2.858-3.599.843 0 1.602.353 2.138.925.6553469-.12554968 1.2837673-.3644645 1.857-.706-.2183527.67585181-.675551 1.24894961-1.286 1.612.5823992-.06623463 1.1514711-.21996496 1.688-.456-.3986536.5867728-.8956188 1.10031474-1.469 1.518l-.001.001Z"/></svg>