<svg xmlns="http://www.w3.org/2000/svg" viewBox="0 0 18 20"><path fill="#BF5700" fill-rule="nonzero" d="M17.4991779 8.20156764c-1.7201487.00411453-3.3981129-.53233649-4.7968485-1.53356929v6.98291725c-.0009725 2.6484-1.6452549 5.0181863-4.12575718 5.9461581-2.48050231.9279718-5.2764536.2193052-7.01547142-1.7781532-1.73901782-1.9974585-2.05600276-4.8643509-.79536392-7.1934738C2.0263757 8.29632395 4.59997255 6.99396026 7.2232868 7.35761613v3.51216667c-1.20248325-.3782377-2.5118644.0591622-3.24558535 1.0841907-.73372095 1.0250284-.72558985 2.4055108.02015471 3.4218251.74574456 1.0163144 2.06018729 1.4382598 3.2581316 1.0458835 1.1979443-.3923764 2.00804914-1.5101992 2.00802068-2.7707665V0h3.43832095a4.73471998 4.73471998 0 0 0 .0726736.86622245c.2414688 1.28988476 1.003279 2.42348547 2.1063623 3.13434213.7765094.51343981 1.6869059.78710226 2.6178126.78690664v3.41409642Z"/></svg>