<svg xmlns="http://www.w3.org/2000/svg" viewBox="0 0 20 20"><path fill="#BF5700" fill-rule="nonzero" d="M10.0022309 4.87116564c-2.83770218 0-5.12660346 2.28890129-5.12660346 5.12660346 0 2.8377022 2.28890128 5.1266035 5.12660346 5.1266035 2.8377022 0 5.1266035-2.2889013 5.1266035-5.1266035 0-2.83770217-2.2889013-5.12660346-5.1266035-5.12660346Zm0 8.45956496c-1.83379811 0-3.33296152-1.4947016-3.33296152-3.3329615 0-1.8382599 1.49470162-3.33296151 3.33296152-3.33296151s3.3329615 1.49470161 3.3329615 3.33296151c0 1.8382599-1.4991634 3.3329615-3.3329615 3.3329615Zm6.5320692-8.66926936c0 .66480758-.5354155 1.19576129-1.1957613 1.19576129-.6648076 0-1.1957613-.5354155-1.1957613-1.19576129s.5354155-1.1957613 1.1957613-1.1957613 1.1957613.53541551 1.1957613 1.1957613Zm3.3954266 1.21360848c-.0758505-1.60178472-.4417178-3.02063581-1.6151701-4.18962633C17.1455661.51645287 15.726715.15058561 14.1249303.07027329c-1.6508645-.09369772-6.59899611-.09369772-8.24986058 0C4.27774679.1461238 2.85889571.51199107 1.68544339 1.6809816.51199108 2.84997211.15058561 4.2688232.07027329 5.87060792c-.09369772 1.65086447-.09369772 6.59899608 0 8.24986058.07585052 1.6017847.44171779 3.0206358 1.6151701 4.1896263 1.17345232 1.1689905 2.58784161 1.5348578 4.18962633 1.6151701 1.65086447.0936977 6.59899608.0936977 8.24986058 0 1.6017847-.0758505 3.0206358-.4417178 4.1896263-1.6151701 1.1689905-1.1689905 1.5348578-2.5878416 1.6151701-4.1896263.0936977-1.6508645.0936977-6.59453431 0-8.24539878ZM17.7969883 15.8918015c-.3480201.8745119-1.0217513 1.5482431-1.9007251 1.900725-1.3162297.5220301-4.4394868.4015616-5.8940323.4015616-1.45454546 0-4.58226436.1160067-5.89403235-.4015616-.87451199-.3480201-1.54824317-1.0217513-1.90072504-1.900725-.52203012-1.3162298-.40156163-4.4394869-.40156163-5.8940324 0-1.45454545-.11600669-4.58226436.40156163-5.89403235.34802008-.87451199 1.02175125-1.54824316 1.90072504-1.90072504 1.31622978-.52203011 4.43948689-.40156163 5.89403235-.40156163 1.4545455 0 4.5822644-.11600669 5.8940323.40156163.874512.34802008 1.5482432 1.02175126 1.9007251 1.90072504.5220301 1.31622979.4015616 4.4394869.4015616 5.89403235 0 1.4545455.1204685 4.5822644-.4015616 5.8940324Z"/></svg>