<svg width="20" height="20" xmlns="http://www.w3.org/2000/svg"><path d="M17.857 0H2.143C.96 0 0 .96 0 2.143v15.714C0 19.04.96 20 2.143 20h15.714C19.04 20 20 19.04 20 17.857V2.143C20 .96 19.04 0 17.857 0zm-2.183 7.09c.009.124.009.254.009.379 0 3.87-2.946 8.33-8.33 8.33-1.661 0-3.201-.482-4.496-1.312.237.026.464.035.705.035a5.87 5.87 0 003.634-1.25 2.932 2.932 0 01-2.736-2.03c.45.066.857.066 1.321-.055a2.928 2.928 0 01-2.343-2.874v-.036c.388.219.843.352 1.32.37A2.922 2.922 0 013.456 6.21c0-.545.143-1.045.398-1.478a8.314 8.314 0 006.035 3.063c-.415-1.987 1.072-3.599 2.858-3.599.843 0 1.602.353 2.138.925a5.737 5.737 0 001.857-.706 2.92 2.92 0 01-1.286 1.612 5.827 5.827 0 001.688-.456 6.163 6.163 0 01-1.469 1.518z" fill="#BF5700" fill-rule="nonzero"/></svg>