<svg width="96" height="96" viewBox="0 0 96 96" fill="none" xmlns="http://www.w3.org/2000/svg">
<path d="M0 48C0 33.0899 0 25.6348 2.43585 19.7541C5.68366 11.9132 11.9132 5.68366 19.7541 2.43585C25.6348 0 33.0899 0 48 0V0C62.9101 0 70.3652 0 76.2459 2.43585C84.0868 5.68366 90.3163 11.9132 93.5641 19.7541C96 25.6348 96 33.0899 96 48V48C96 62.9101 96 70.3652 93.5641 76.2459C90.3163 84.0868 84.0868 90.3163 76.2459 93.5641C70.3652 96 62.9101 96 48 96V96C33.0899 96 25.6348 96 19.7541 93.5641C11.9132 90.3163 5.68366 84.0868 2.43585 76.2459C0 70.3652 0 62.9101 0 48V48Z" fill="#282A2C"/>
<g clip-path="url(#clip0_13252_34222)">
<path d="M47.5 28.2251L65 33.5501V50.525C65 57.825 56.175 68.025 47.5 68.025C38.825 68.025 30 57.85 30 50.525V33.5501L47.5 28.2251ZM47.5 23L25 29.85V50.525C25 60.8 36.225 73.025 47.5 73.025C58.775 73.025 70 60.825 70 50.525V29.85L47.5 23Z" fill="white"/>
<path opacity="0.5" d="M47.5003 70.95V48H29.4252C29.4252 48 25.7003 64.525 47.5003 70.95Z" fill="white"/>
<path opacity="0.5" d="M47.5 27.125V48H68.05V33.1L47.5 27.125Z" fill="white"/>
</g>
<defs>
<clipPath id="clip0_13252_34222">
<rect width="45" height="50" fill="white" transform="translate(25 23)"/>
</clipPath>
</defs>
</svg>
