<?xml version="1.0" encoding="UTF-8" standalone="no"?>
<svg width="118px" height="150px" viewBox="0 0 118 150" version="1.1" xmlns="http://www.w3.org/2000/svg" xmlns:xlink="http://www.w3.org/1999/xlink">
    <!-- Generator: Sketch 41.2 (35397) - http://www.bohemiancoding.com/sketch -->
    <title>Defender graphic</title>
    <desc>Created with Sketch.</desc>
    <defs>
        <rect id="path-1" x="0" y="0" width="118" height="150"></rect>
        <polygon id="path-3" points="24.5600388 25.5440976 24.5600388 0.0316402209 0.215905631 0.0316402209 0.215905631 25.5440976 24.5600388 25.5440976"></polygon>
    </defs>
    <g id="Symbols" stroke="none" stroke-width="1" fill="none" fill-rule="evenodd">
        <g id="Reporting---Pro" transform="translate(-30.000000, -461.000000)">
            <g id="Defender-graphic" transform="translate(30.000000, 461.000000)">
                <mask id="mask-2" fill="white">
                    <use xlink:href="#path-1"></use>
                </mask>
                <g id="Mask"></g>
                <g id="Page-1" mask="url(#mask-2)">
                    <path d="M37.8510318,98.5412011 C37.8510318,98.5412011 32.6297037,97.9384303 28.8140649,111.196638 C24.998426,124.454616 26.8057736,138.315365 26.0024571,139.319678 C25.1991406,140.324219 23.5927367,144.341698 23.391793,145.34624 C23.3104532,145.752824 20.9376221,146.498839 18.0513192,148.725423 C22.4503134,148.14878 27.0672066,149.30688 30.6411173,151.943945 C31.3809658,152.489876 32.1008804,153.126338 32.4594629,153.973197 C32.5295755,154.138672 32.5836493,154.307356 32.624892,154.478332 C33.1757115,151.560967 33.4330202,149.564719 33.4330202,149.564719 C33.4330202,149.564719 39.4576649,148.560177 46.0849115,140.52499 C49.6996066,136.10574 63.1548144,127.267012 65.1631056,119.432596 C67.1713969,111.598409 37.8510318,98.5412011 37.8510318,98.5412011" id="Fill-11" fill="#A05621"></path>
                    <path d="M30.6410944,151.944013 C27.0671837,149.306948 22.4502905,148.148849 18.0512963,148.725492 C15.4410905,150.73893 12.4122711,153.965473 10.2761274,159.245791 C14.3965041,157.004079 19.5149546,156.622248 23.9040963,158.291442 C23.9790206,158.24377 24.0530283,158.194953 24.1297856,158.149573 C24.7129118,157.804183 25.4715487,157.540156 26.0418439,157.906173 C26.3310012,158.091817 26.5099487,158.407871 26.6387177,158.726445 C26.7913157,159.104151 26.8850283,159.491942 26.935207,159.885691 C28.3931371,160.905359 29.6338555,162.219766 30.4103643,163.765655 C31.4020225,160.444457 32.1313313,157.091859 32.6248691,154.478401 C32.5836264,154.307425 32.5295526,154.138741 32.45944,153.973265 C32.1008575,153.126407 31.3809429,152.489945 30.6410944,151.944013" id="Fill-51" fill="#FFBD00"></path>
                    <path d="M2.91689126,74.6199322 C2.91689126,74.6199322 -2.2686932,80.7675068 1.18836311,95.1760211 C2.32253786,100.659631 2.34040971,103.165599 2.0659165,104.296196 C1.84939223,105.188892 2.12846796,106.128115 2.79591262,106.759305 C4.01348932,107.910529 5.60362524,109.282233 6.37394757,109.392245 C7.71846019,109.584535 10.9832796,110.545072 11.559532,110.352782 C12.1357845,110.16072 13.8643126,107.855523 14.6325728,106.894757 C15.4006039,105.934219 17.3213689,103.629022 16.1688641,102.476194 C15.0165883,101.323596 11.7515398,99.7866448 11.7515398,99.7866448 C11.7515398,99.7866448 9.63899612,96.9050336 10.0230117,94.5996072 C10.4072563,92.2944099 14.2483282,81.7280439 11.559532,76.5410063 C8.87073592,71.3539686 2.91689126,74.6199322 2.91689126,74.6199322" id="Fill-55" fill="#FF5A0C"></path>
                    <path d="M11.4445107,79.8623651 C11.5764874,82.567958 10.8352641,85.2318383 10.5408369,87.9245966 C10.4352097,88.8920094 10.3864058,89.8701941 10.1625495,90.8174381 C9.87247573,92.0442944 9.29439029,93.1948303 9.07924078,94.4370424 C8.82766019,95.8912556 9.10284078,97.4311861 9.84291845,98.7082351 C8.84163689,98.9912853 7.78307379,98.9901393 6.7614,99.1867847 C5.73972621,99.3834301 4.68574563,99.839519 4.16700388,100.741613 C2.68043301,93.6717756 3.82491845,86.3385989 3.49680971,79.1213925 C4.97329903,81.1077859 8.39186214,80.8210686 10.7889806,80.2066091" id="Fill-57" fill="#E53500"></path>
                    <path d="M1.85553282,72.4492009 C5.64138524,73.5733799 9.26707845,74.7871724 13.192927,75.2153001 C13.2786202,76.3234358 13.3645425,77.4313423 13.4502357,78.539478 C13.4660454,78.744145 13.4809386,78.9563754 13.4103678,79.1493537 C13.3425464,79.3347688 13.202092,79.4837425 13.0570551,79.6175897 C11.4994551,81.0532385 9.19742408,81.2592807 7.07983961,81.2899922 C6.30081049,81.3014518 5.50413864,81.2961804 4.76956,81.036966 C3.81570757,80.7002853 3.05890369,79.9687095 2.38366874,79.2155897 C1.60418136,78.3460413 1.33289592,78.5030367 1.09368816,77.3598349 C1.09368816,77.3598349 1.21787456,73.237616 1.85553282,72.4492009" id="Fill-59" fill="#FFAD00"></path>
                    <path d="M35.3555495,116.686551 C34.0779417,116.827044 33.1227146,117.92097 32.4763495,119.032315 C28.8802136,125.215872 30.8958369,133.505461 27.2857243,139.680767 C26.5729126,140.90006 25.6371612,142.047846 25.3848932,143.437657 C25.2703301,144.06816 25.3239456,144.772691 25.733165,145.265679 C25.9680194,145.5485 26.2963573,145.734832 26.6178214,145.913372 C28.0762097,146.723331 29.9167806,147.497536 31.320866,146.596359 C32.2529515,145.998172 32.6784388,144.815549 33.6031922,144.206361 C33.9700233,143.964565 34.394365,143.828197 34.8104583,143.687016 C42.9336699,140.929626 50.0106913,135.196886 54.396167,127.822226 C54.5783223,127.515798 54.7627689,127.166512 54.6795961,126.819747 C54.6133786,126.543343 54.3913553,126.335697 54.1780388,126.147531 C49.8890252,122.363368 44.8764311,119.402228 39.4926524,117.471986 C38.121332,116.980373 36.6666097,116.549724 35.2267806,116.770205" id="Fill-61" fill="#98480B"></path>
                    <path d="M23.2751449,39.4633132 C23.2751449,39.4633132 14.6325041,41.5764489 9.83093515,51.566401 C5.02959534,61.5563531 12.9039759,66.1669769 16.55304,67.3195755 C20.2021041,68.4724033 25.3876885,67.8959894 25.3876885,67.8959894 L23.2751449,39.4633132 Z" id="Fill-63" fill="#98480B"></path>
                    <path d="M9.83100388,55.0244261 C9.83100388,55.0244261 1.76461553,60.7878777 1.76461553,75.0041011 C2.00680194,76.2162893 2.61238252,77.2563554 3.32794369,78.1123816 C4.89997864,79.9928891 7.62085243,80.4251422 9.74004078,79.1939312 C10.9663243,78.4816074 12.4111942,77.7298628 13.6720757,77.3095276 C16.5531087,76.3489905 23.0829767,71.7381376 24.4274893,64.4379643 C25.7720019,57.1375618 9.83100388,55.0244261 9.83100388,55.0244261" id="Fill-65" fill="#98480B"></path>
                    <path d="M84.4937511,26.8648762 C84.6335181,26.2417074 85.286986,25.75972 85.2207685,25.1244041 C85.1531763,24.476712 84.722419,23.7575124 84.293953,23.4398545 C84.2861627,23.3651384 84.2912035,23.2924851 84.3010559,23.2202901 C84.1349394,23.2246447 83.7516113,23.2361042 83.5181317,23.2546686 C83.213852,23.279192 84.2831841,21.8994657 84.5143724,21.9361361 C84.5622598,21.9436994 84.591588,21.9654725 84.6126676,21.992517 C84.7015685,21.7587428 84.8328579,21.5304691 84.9155724,21.2939446 C85.4480617,19.7732661 83.3020656,18.5768921 83.2894637,16.9656835 C83.5046132,16.8428374 83.7108268,16.383769 83.7108268,16.383769 C83.5891608,15.0260449 82.1410831,14.2816344 81.0472346,13.468696 C78.2072151,11.3580814 76.8707219,7.41852725 73.6207957,6.01977811 C71.5840928,5.14335393 69.2440268,5.48782714 67.0856579,5.99456716 C64.426419,6.61911106 61.8196501,7.46734481 59.3020113,8.52735051 C58.4322482,8.893826 57.5528617,9.29880547 56.8835841,9.96414527 C56.0997433,10.7433927 55.6747142,11.8079822 55.338586,12.8611122 C54.0146948,17.0076253 53.759219,21.49059 54.60332,25.7606367 C51.0809627,27.8398522 47.5588346,29.9188385 44.0364773,31.9978249 L45.1617161,31.8144725 C45.938454,32.5556743 47.0524656,32.7844064 48.064287,33.143777 C50.3917511,33.970696 52.3349705,35.5876344 54.3831297,36.9682775 C56.6718715,38.5109583 59.1420812,39.7838819 61.7266249,40.7524406 C62.4089627,41.0079879 63.1224617,41.2458876 63.8494792,41.1975284 C64.3441627,41.164525 64.8195996,41.0001954 65.2879336,40.8374702 C66.3831569,40.4565558 67.4783802,40.0758705 68.5738326,39.694956 C70.034054,39.1872992 71.6070054,38.5920917 72.4190287,37.2760803 C73.321786,35.8126994 73.1483375,33.6551008 74.5696074,32.6872296 C75.1305083,32.3051692 75.8307181,32.2057006 76.5036617,32.1163163 C78.6001666,31.8378499 80.6966715,31.5596128 82.7931763,31.2811464 C83.8228695,31.1445489 85.0979569,30.7796778 85.2445977,29.7510712 C85.3875724,28.7476755 84.272186,27.8536036 84.4937511,26.8648762" id="Fill-67" fill="#A05621"></path>
                    <path d="M77.9802198,29.55548 C74.3142004,29.55548 58.2753654,26.1176237 56.9006082,25.6592429 L54.529381,25.3523569 C54.5538975,25.488496 54.5763518,25.6248643 54.6033887,25.7607742 C51.0810315,27.8397605 47.5586742,29.9187469 44.0363169,31.9977332 L45.1617849,31.8143808 C45.9385227,32.5558119 47.0525344,32.7845439 48.0641266,33.1439145 C50.3915907,33.9706043 52.3350392,35.5875428 54.3831984,36.9681859 C56.6717111,38.5108666 59.1421499,39.7840194 61.7266936,40.7523489 C62.4090315,41.0081254 63.1223014,41.2460251 63.849548,41.1974367 C64.3442315,41.1646625 64.8196683,41.000333 65.2877732,40.8373786 C66.3832256,40.4566933 67.4784489,40.0757788 68.5739014,39.6948643 C70.0341227,39.1872075 71.6070742,38.592 72.4188683,37.2762178 C73.3218548,35.8126078 73.1484062,33.6550091 74.569447,32.687138 C75.130348,32.3050775 75.8307868,32.2056089 76.5035014,32.1162246 C78.6002353,31.8379875 80.6965111,31.5595211 82.793245,31.2812839 C83.4737499,31.1907537 84.2596528,30.9993797 84.7580023,30.5838575 C84.7804567,29.0922862 80.9948334,29.55548 77.9802198,29.55548" id="Fill-69" fill="#98480B"></path>
                    <path d="M83.6424555,23.2918204 C83.6424555,23.2918204 83.3500905,23.3482013 83.0458109,23.3724954 C82.7413021,23.3967896 84.2830924,21.8994886 84.5145099,21.9361591 C84.561939,21.9434932 84.5940167,21.9634327 84.6150963,21.9900188 C84.3884905,22.1305125 83.6424555,23.2918204 83.6424555,23.2918204" id="Fill-71" fill="#2F2F2F"></path>
                    <path d="M31.9177856,102.284156 C31.9177856,95.7522287 26.3481856,84.8019688 23.4671526,81.5360052 C20.5863487,78.2700417 13.8642439,62.5168673 13.8642439,55.6008171 C13.8642439,48.6847669 14.8245118,40.6158889 26.9242089,33.8921295 C39.023906,27.1681409 50.1633351,30.4341044 59.1902206,32.5472401 C68.2168769,34.660605 70.7136652,41.1923029 73.5944691,43.6897909 C76.4755021,46.1872789 82.8133623,51.5663781 79.5483138,65.59054 C76.2832652,79.6149311 71.0976808,85.5704442 69.3691526,85.3781535 C67.6406245,85.1860919 64.375805,87.6835799 63.7995526,90.7574819 C63.2233002,93.8311546 66.6803565,101.900033 66.6803565,101.900033 L31.9177856,102.284156 Z" id="Fill-73" fill="#A05621"></path>
                    <path d="M34.2915103,90.0722713 C35.5374986,89.2710216 36.0615103,87.6359771 35.866753,86.1670957 C35.6717666,84.6982143 34.8732617,83.3764731 33.9498831,82.2176863 C31.8096151,79.5327205 28.9230831,77.4784868 27.0055258,74.629879 C25.9119064,73.0053773 25.1693083,71.1720831 24.5176734,69.3252667 C23.2554171,65.747375 22.3052307,62.0597011 21.68132,58.3172507 C21.3066986,56.0702678 21.049619,53.7749258 21.3520656,51.5169417 C21.7677006,48.4153078 23.2274637,45.528196 25.0971336,43.0192485 C26.9668035,40.5105301 29.2438598,38.3387217 31.5090016,36.1804355 L31.1676035,36.3816647 C31.2780423,36.2755495 31.2377161,36.0298574 31.0867219,35.9445985 C30.9080035,35.8437547 30.6848346,35.8999064 30.4907647,35.9663716 C28.5026365,36.6445461 26.8779025,38.0980717 25.4550287,39.6435027 C22.461953,42.8947981 20.0971414,46.7227365 18.5290016,50.8548106 C17.8737006,50.898586 17.5634637,50.0659372 17.4981627,49.4120569 C17.4328617,48.7584058 17.2534559,47.9255278 16.6043414,47.824684 C15.9025278,47.7155894 15.4871219,48.5922428 15.4057821,49.2979201 C14.8109705,54.4487456 18.929285,59.1278973 18.9077472,64.312643 C18.9061433,64.6752222 18.8541317,65.0930364 18.5509977,65.2919737 C18.1319258,65.566773 17.596687,65.2294047 17.1860928,64.9422291 C16.7754986,64.6548243 16.129821,64.4428231 15.8418093,64.853074 C15.8239375,64.8782849 15.8095025,64.904871 15.7966715,64.9319155 C18.0086559,71.8222964 21.5704229,79.3858095 23.4671297,81.536074 C24.553188,82.7670558 26.0211996,85.0905883 27.4289511,87.857375 C28.2686986,88.7237148 29.1604579,89.5510922 30.2391841,90.0786886 C31.508085,90.6993363 33.1034909,90.8361629 34.2915103,90.0722713" id="Fill-75" fill="#98480B"></path>
                    <path d="M40.2736979,36.6305655 C35.7846571,38.6511082 31.917694,42.0312086 29.3143619,46.2104959 C27.3580823,49.3508631 26.1187386,53.3484024 27.6130998,56.7333157 C28.7248202,54.6272849 29.8365406,52.5214834 30.948261,50.4154526 C31.8113794,48.7804081 32.7042843,47.1068596 34.0916435,45.8850455 C35.4790027,44.6632314 37.4898144,43.971993 39.2151348,44.6359577 C39.6128979,44.7890569 40.0335736,45.0874628 40.0344901,45.5139862 C40.0356357,45.9026932 39.6901134,46.1912439 39.3794183,46.4250181 C37.7748474,47.6326225 36.241993,48.9798038 35.1201911,50.6457889 C33.9983891,52.3115449 33.3116979,54.3330044 33.5309717,56.3294822 C34.2316396,55.6332017 34.548292,54.6428699 35.1339386,53.8473499 C35.7195852,53.05183 36.8439076,52.4502051 37.6774687,52.9800934 C38.367826,53.4192222 38.472995,54.3971778 38.3013794,55.1972815 C38.1297639,55.9976145 37.7567464,56.764944 37.7588085,57.583383 C37.7601833,58.1788197 37.9615852,58.7547753 38.1907115,59.3043739 C40.1492823,64.0007148 44.2181056,67.5293306 48.6352008,70.0538631 C53.0522959,72.5781664 57.8928163,74.2558403 62.5149794,76.3808938 C64.9272202,77.4901755 67.5202416,79.004895 68.1977678,81.5725153 C68.4310183,82.4558152 68.3744241,83.4851094 67.7658649,84.1664925 C67.4462338,84.5244879 67.0076862,84.7518448 66.5705134,84.9496361 C59.9155425,87.9602815 52.0271852,85.7446977 44.9432901,87.5245905 C44.6729212,87.5926601 44.3897212,87.6666886 44.1186649,87.6004526 C43.8104901,87.5250489 43.5754066,87.2827946 43.3591115,87.0503956 C41.4426998,84.9906612 39.589527,82.8307707 38.2851115,80.3378665 C36.980925,77.8447331 36.2523037,74.970456 36.7098687,72.1940432 C37.2682493,74.9262222 38.3820318,77.5435769 39.9639192,79.8400649 C41.076327,81.4549406 42.4962221,83.2605027 41.9715231,85.1501778 C41.5600124,86.6318938 39.9513173,87.5770751 38.4147969,87.5277992 C36.8780474,87.4785233 35.46136,86.598432 34.4385406,85.450188 C33.4157212,84.3021732 32.7301755,82.8992986 32.0778532,81.5067376 C29.3184862,75.615627 26.9133483,69.5203078 25.5516513,63.1588984 C24.9343852,60.2756829 24.5347891,57.2810808 25.0929406,54.3857182 C25.4897872,52.3275883 26.3579464,50.3904708 27.3232551,48.5301322 C30.0881212,43.201684 34.1539658,38.0098334 39.9400901,36.4155848" id="Fill-77" fill="#98480B"></path>
                    <path d="M81.0471658,13.468696 C81.0471658,13.468696 78.8968163,14.1998135 77.522059,22.4506686 C77.2929328,24.0550016 75.9181755,30.0139526 75.9181755,30.0139526 C75.9181755,30.0139526 64.0036124,30.7015238 58.9628357,30.0139526 C53.922059,29.3263813 50.9434183,27.7220483 50.9434183,27.7220483 C50.9434183,27.7220483 48.1939037,22.4506686 48.8812823,14.6581943 C49.568661,6.86571995 51.1725445,5.261387 59.8793406,1.59434025 C68.5861367,-2.0727065 73.3977872,1.36514983 75.4599231,4.11543489 C77.522059,6.86571995 81.0471658,13.468696 81.0471658,13.468696" id="Fill-79" fill="#FF5A0C"></path>
                    <path d="M58.9627441,30.0138609 C64.0035208,30.7014322 75.9180839,30.0138609 75.9180839,30.0138609 C75.9180839,30.0138609 77.2928412,24.0549099 77.5219674,22.450577 C77.5714586,22.1540046 77.6220955,21.8698084 77.6734198,21.5922588 C72.0925926,21.7762987 61.0228179,18.7409008 60.3661421,17.8653934 C59.6787635,16.9486317 59.4209965,17.1791973 56.9006082,17.6375781 C55.1965965,17.9474436 51.1905538,17.5241288 48.772814,17.2174721 C48.7865616,23.5814025 50.9433266,27.7219567 50.9433266,27.7219567 C50.9433266,27.7219567 53.9219674,29.3262896 58.9627441,30.0138609" id="Fill-81" fill="#FFBD00"></path>
                    <path d="M75.4598315,4.11534322 C73.4499363,1.43473204 68.8263984,-1.89586317 60.5315713,1.33228392 C65.0776645,0.378622577 69.8377616,0.0020627138 72.0229383,1.823439 C75.8413266,5.00620639 79.1540334,11.5076511 80.3594664,14.0569361 C80.7732683,13.5637184 81.0470742,13.4686043 81.0470742,13.4686043 C81.0470742,13.4686043 77.5219674,6.86562828 75.4598315,4.11534322" id="Fill-83" fill="#FFBD00"></path>
                    <path d="M76.1273678,8.20611722 C76.1273678,8.20611722 69.3378998,9.8457455 67.390327,9.8457455 C68.3068318,10.8771024 72.7571503,12.8295756 76.8814221,12.6003852 C76.5863076,12.3872381 76.4715153,12.1085425 76.4715153,12.1085425 C76.4715153,12.1085425 76.5856202,9.69585496 76.1273678,8.20611722" id="Fill-85" fill="#1F191A"></path>
                    <path d="M83.8821216,27.1017445 C83.9939351,27.0559064 84.0931468,26.984399 84.2017526,26.9316852 C84.2956944,26.8860763 84.3969682,26.8571983 84.500075,26.8416133 C84.5495662,26.6410717 84.6503817,26.4547399 84.7624245,26.2729919 C84.2081682,26.0525107 83.5503468,26.1024742 83.0428322,26.4178403 C82.9894458,26.4510729 82.935372,26.4895769 82.9083351,26.5464161 C82.8631973,26.6406133 82.9067313,26.7538334 82.9674497,26.8388631 C83.1667895,27.116871 83.5654691,27.2314662 83.8821216,27.1017445" id="Fill-87" fill="#98480B"></path>
                    <path d="M82.5633627,23.4219318 C82.4029744,23.4948144 82.2279219,23.6992522 82.4758365,23.7136912 C83.0447569,23.4219318 84.293953,23.4398087 84.293953,23.4398087 C84.2861627,23.3653218 84.2912035,23.2924392 84.3010559,23.2202442 C84.1349394,23.2245989 83.279153,23.3538623 83.0456734,23.3724267 C82.7413938,23.3969501 84.2831841,21.899649 84.5143724,21.9360903 C84.5622598,21.9436536 84.591588,21.9654267 84.6126676,21.9924712 C84.7015685,21.7589261 84.8328579,21.5304233 84.9155724,21.2938987 C84.969188,21.1412579 84.9969122,20.9821998 85.0053899,20.8185578 C84.4250132,21.0080983 82.7088579,23.3556958 82.5633627,23.4219318" id="Fill-89" fill="#98480B"></path>
                    <path d="M83.5870986,18.2490123 C83.4143375,17.8014034 83.2924423,17.3680043 83.2894637,16.9657751 C83.5046132,16.8426999 83.7110559,16.3838607 83.7110559,16.3838607 C83.7099103,16.3719428 83.7069317,16.3609416 83.7055569,16.3492529 C83.4113588,16.2193019 82.950586,16.1079154 82.5486986,16.4134262 C82.1048812,16.7505653 81.9236423,16.9864023 81.5332113,17.2469918 C81.1425511,17.5073521 80.5695064,17.4030705 80.8820346,17.7679416 C81.1945627,18.1325836 83.1217433,18.5492518 83.3038986,18.5492518 C83.3824889,18.5492518 83.4901783,18.408758 83.5870986,18.2490123" id="Fill-91" fill="#98480B"></path>
                    <path d="M27.6288408,89.6114381 L30.9518583,101.037268 C30.9518583,101.037268 40.9206816,89.6114381 69.1655282,92.1043423 C69.9963398,89.1959158 70.2039282,85.4566741 70.2039282,85.4566741 C70.2039282,85.4566741 51.512499,75.6927038 27.6288408,89.6114381" id="Fill-93" fill="#FFBD00"></path>
                    <path d="M79.752007,16.7546908 C79.752007,16.7546908 79.089374,19.3644821 79.9176652,22.3469371 C80.2904536,23.9625003 79.752007,25.3708755 79.8761934,26.1993989 C80.2904536,26.4063578 80.5388264,26.1993989 80.3316963,25.2466543 C80.1247953,24.2939097 80.4561118,23.0512392 80.3316963,21.5598971 C80.2075099,20.0685551 79.5036342,18.4944753 79.752007,16.7546908" id="Fill-95" fill="#98480B"></path>
                    <path d="M28.2574485,91.0856596 C28.2574485,91.0856596 26.7287184,90.6827429 26.4503301,89.8977657 C25.8825553,88.2968706 27.379666,87.6253426 27.6894447,87.1605445 C27.9992233,86.6957463 39.2548194,77.6062834 60.423332,80.3435046 C71.678699,82.4609949 72.5564816,82.9773609 72.5564816,82.9773609 C72.5564816,82.9773609 72.7113709,85.817947 70.9558058,85.5596494 C69.2004699,85.3013518 50.4068505,80.3950724 38.3254835,85.146419 C32.2845709,87.3672742 28.2574485,91.0856596 28.2574485,91.0856596" id="Fill-97" fill="#FFBD00"></path>
                    <path d="M60.4232404,80.3434816 C59.1710656,80.1816732 57.9550928,80.062265 56.7725724,79.9790689 C56.7343083,79.9850278 56.6960443,79.9905284 56.6577802,79.996029 C56.9563317,80.3189583 57.2159317,80.6712239 57.3430967,81.0876629 C57.536021,81.7202285 57.2977297,82.5361464 56.6722151,82.7502103 C56.4797491,82.8159879 56.2600171,82.824468 56.1010035,82.9512103 C55.8853957,83.1228739 55.8656909,83.4380107 55.869586,83.7137268 C55.8941025,85.3547302 56.1264365,86.992525 56.5592559,88.5755432 C57.437955,88.4623231 58.2444792,89.2032958 58.5178268,90.0462582 C58.7911744,90.8894497 58.6630928,91.8034611 58.5324909,92.6798853 C61.2082268,92.5373288 63.8839627,92.3945432 66.5596986,92.2517576 C66.8587083,88.7602707 67.821955,85.3787952 68.9526928,82.0507211 C67.1474074,81.6535341 64.4496753,81.100956 60.4232404,80.3434816" id="Fill-99" fill="#FFAD00"></path>
                    <path d="M28.6560823,90.8608926 C30.6144241,89.3514445 38.1522183,84.9642814 43.4869639,83.8969416 C53.301127,81.9336965 58.2030532,82.1078812 65.5999348,84.270522 L63.9726804,82.2426452 C63.9726804,82.2426452 52.9297134,80.2949849 42.7933988,83.0432073 C32.6573134,85.7914296 28.6560823,90.8608926 28.6560823,90.8608926" id="Fill-101" fill="#FFAD00"></path>
                    <path id="Fill-103" fill="#FFAD00"></path>
                    <path d="M31.2003915,98.2033745 C31.0787254,98.2991761 29.2383837,100.269068 30.6323876,101.92176 C32.0263915,103.574452 33.2139526,102.851356 33.2139526,102.851356 C33.2139526,102.851356 51.2331254,94.6914896 57.5320342,94.4849891 C63.8309429,94.2782593 68.9422905,93.7103254 68.9422905,93.7103254 C68.9422905,93.7103254 70.7494089,93.1937302 70.646073,91.6962 C70.5429662,90.1984406 68.064508,89.6818454 68.064508,89.6818454 C68.064508,89.6818454 46.7928885,85.9118921 31.2003915,98.2033745" id="Fill-105" fill="#FFBD00"></path>
                    <path d="M32.8423557,106.792652 L31.2384722,100.37532 C31.2384722,100.37532 36.7375014,91.8952748 56.4423557,91.436894 C71.1064334,90.9785131 72.0417266,91.8544789 72.0417266,91.8544789 L71.5646858,99.2293683 L32.8423557,106.792652 Z" id="Fill-107" fill="#292324"></path>
                    <path d="M31.9177856,102.284156 C31.9177856,102.284156 28.7180381,113.668273 36.9665817,122.377509 C45.2151254,131.086745 62.8578439,133.149459 70.4190089,132.232697 C77.980174,131.315936 96.0811449,132.232697 100.434543,133.60784 C104.787941,134.982982 111.432601,133.60784 111.432601,132.920269 C111.432601,132.232697 116.244252,125.356985 114.640368,123.294271 C113.036485,121.231557 110.28697,115.501797 109.599591,114.355844 C108.912213,113.209892 82.1044458,91.6659927 57.587941,90.9784214 C33.0714361,90.2908502 31.9177856,102.284156 31.9177856,102.284156" id="Fill-109" fill="#A05621"></path>
                    <path d="M105.246239,138.764716 C104.195925,141.534712 111.421878,140.164611 114.388375,138.569904 C114.446802,138.461726 114.501793,138.348735 114.548305,138.225889 C115.263637,136.340798 114.573738,134.116505 114.262585,132.221788 C114.156041,131.572491 114.279769,130.701797 113.909043,130.133863 C113.457435,129.442166 112.438282,129.042917 111.845991,128.460315 C110.027874,126.671942 109.174379,124.674777 109.273591,122.109219 C109.322853,120.83767 109.585661,119.378644 108.954418,118.199689 C108.364876,117.098658 106.987369,116.612087 105.886189,117.270092 C104.958457,117.824275 104.533886,118.748371 103.322266,118.791688 C102.042826,118.837296 100.729932,118.424066 99.518313,118.051632 C97.2957887,117.368644 95.1096955,116.428047 92.8507402,115.884178 C90.3736567,115.288054 87.8424994,115.292867 85.3161538,115.282782 C82.5629732,115.271781 79.9878237,114.950685 77.3964062,113.969521 C76.0576217,113.462552 74.7829926,112.817381 73.4632256,112.266636 C72.3008683,111.78144 71.0837499,111.453698 69.9126858,110.993713 C68.6990043,110.516997 67.5146509,109.917664 66.3183829,109.393964 C65.164045,108.888599 64.0470548,108.335562 63.1062625,107.481369 C62.9795557,107.366316 62.8292489,107.369525 62.7110198,107.43301 C62.2864489,107.205424 61.8776878,107.004424 61.3309926,107.013592 C60.4378586,107.028718 59.3708179,107.212529 58.5656683,107.601007 C56.8270586,108.440073 55.5320373,110.939165 54.7227635,112.581315 C52.4777849,117.13762 51.4659635,122.496322 51.5046858,127.540115 C51.5115596,128.431208 51.4838353,129.357824 51.5039984,130.283983 C58.686647,132.318965 66.1554742,132.749613 70.4190548,132.232789 C77.9513499,131.319465 95.9407363,132.225913 100.382119,133.592117 C100.382119,133.592117 106.506433,135.441455 105.246239,138.764716" id="Fill-111" fill="#98480B"></path>
                    <path d="M27.4535592,116.727301 C27.4535592,116.727301 37.8831553,119.398057 49.339466,127.190531 C52.547233,111.376392 42.6948058,95.3330624 42.6948058,95.3330624 C42.6948058,95.3330624 29.8953573,96.8473235 27.4535592,116.727301" id="Fill-113" fill="#1F191A"></path>
                    <path d="M72.4532144,93.5975179 C67.559995,92.1029672 62.5276959,91.11699 57.5879639,90.978559 C33.071459,90.2909877 31.9178085,102.284064 31.9178085,102.284064 C31.9178085,102.284064 28.718061,113.668411 36.9666047,122.377647 C41.7521348,127.430379 49.6998357,130.245754 57.0062124,131.540221 C60.6910202,127.000876 63.3979173,121.669678 64.8801348,116.013029 C66.067925,111.480559 66.4778318,106.764049 67.8030979,102.269854 C68.7356416,99.1074848 70.2279406,95.9749101 72.4532144,93.5975179" id="Fill-115" fill="#292324"></path>
                    <path d="M37.2954237,65.2064169 C33.1693188,63.0717373 25.3877344,49.8373656 41.3287324,37.7342778 C57.2695014,25.63119 71.4819713,44.6503279 72.634247,48.108353 C73.7865227,51.5663781 78.0118392,62.5168673 68.2169227,69.2408559 C58.4220062,75.9646153 48.4348528,70.9698684 37.2954237,65.2064169" id="Fill-117" fill="#A05621"></path>
                    <path d="M77.0133072,60.8009644 C76.4801305,59.9946725 75.7794625,59.1824217 74.992414,58.6165505 C74.1654975,58.0220306 73.358515,57.5572324 72.6484528,56.7935699 C71.7835014,55.8635152 71.6861227,54.4432221 71.4586004,53.245473 C71.2604062,52.2035733 69.7012023,48.9616748 69.6038237,49.8940214 C69.5014043,50.8728937 69.186814,51.8070739 68.7968412,52.7071047 C68.0888412,54.3410032 67.2355751,55.915083 66.1923635,57.359441 C65.1152412,58.8507831 63.8667324,60.216758 62.5403208,61.4887649 C62.0192878,61.9884 61.4831324,62.4752005 60.9348334,62.9461868 C59.8354858,63.3999838 58.8511596,64.0284239 58.3328761,65.2016497 C57.8239868,66.3540192 57.9905616,68.1696657 58.7384295,69.1856668 C60.9506431,72.1901241 65.6112994,73.5528903 69.0493383,74.3804969 C70.103548,74.6342107 71.1703596,74.8336064 72.2445033,74.9830385 C72.9204256,75.0772358 73.7759829,75.3185733 74.4402198,75.0417113 C74.7994897,74.8922791 75.0047868,74.6014365 75.2181033,74.291571 C75.7540295,73.5130112 76.2979751,72.7174912 76.749812,71.8866759 C77.6933538,70.152392 78.1513771,68.3168059 78.1115091,66.3512689 C78.0727868,64.4393624 78.1110509,62.4603031 77.0133072,60.8009644" id="Fill-119" fill="#98480B"></path>
                    <path d="M67.4486625,68.664442 C72.4422392,63.6694659 74.3627751,50.605841 58.8060217,43.113377 C43.2492683,35.6211421 33.262115,54.2559277 33.4543518,58.2903667 C33.6463596,62.3248057 39.2159596,69.0485651 45.1698043,72.5065902 C51.1236489,75.9646153 67.4486625,68.664442 67.4486625,68.664442" id="Fill-121" fill="#A05621"></path>
                    <path d="M37.6283899,55.1834384 C37.577753,55.4190462 37.4943511,55.6489242 37.3809336,55.8613837 C37.1744909,56.2480279 36.8763977,56.5977725 36.5739511,56.9122218 C36.2440093,57.2550906 35.8205841,57.6692377 35.3524792,57.8108774 C34.5086074,58.0661956 34.0700598,57.2360678 34.032254,56.496012 C34.0004054,55.8769686 34.1477336,55.4057531 34.4430773,54.9634156 C34.1772909,55.6218797 33.9949064,56.4620918 34.6483744,56.7744783 C35.6581336,57.2571534 36.5915938,55.9487052 36.6802656,55.1103267 C36.7267783,54.6707395 36.0389414,54.6739481 35.992887,55.1103267 C35.8327278,56.623671 34.9874812,55.8788022 35.0566773,55.3179732 C35.0805064,55.1256824 35.2333336,54.8657805 35.3220054,54.7005342 C35.7419938,53.9173905 36.4761142,53.6061499 37.2409375,54.063614 C37.742953,54.3640827 37.7459317,54.6379652 37.6283899,55.1834384 M37.4425685,53.1915445 C37.0913181,53.077866 36.7457957,53.0521967 36.421353,53.1000975 C36.6635394,52.9756471 36.9075588,52.9052856 37.1385181,52.9330177 C37.5768365,52.9855023 37.5729414,52.2974726 37.1385181,52.2454464 C35.8902384,52.0957851 34.1928715,53.86376 33.6530501,54.8788444 C33.1817375,55.7646653 33.1748637,57.2337759 33.839788,58.0396095 C35.2821375,59.7876448 37.8020676,57.0093985 38.2254928,55.6218797 C38.4917375,54.7491226 38.4626384,53.5211203 37.4425685,53.1915445" id="Fill-123" fill="#98480B"></path>
                    <path d="M82.6213087,69.4328716 C80.3165282,67.8959206 69.177099,60.4036857 67.4485709,58.4823824 C65.7200427,56.5613083 56.117134,47.5321225 45.1699417,50.6057952 C34.2225204,53.6796971 36.9113165,67.3197359 42.6731534,72.1224212 C48.4347612,76.9253357 58.2299068,76.9253357 61.3027184,79.4228237 C64.3757592,81.9200826 82.6213087,69.4328716 82.6213087,69.4328716" id="Fill-125" fill="#FF5A0C"></path>
                    <path d="M100.382119,133.592209 C99.8333616,133.89474 99.2506936,134.283906 98.6648179,134.779874 L100.382119,133.592209 Z" id="Fill-127" fill="#98480B"></path>
                    <path d="M48.4442928,75.2747063 C46.4474579,73.7535694 39.9139239,68.99168 40.333454,62.6953608 C40.7532132,56.3992707 46.8083317,49.3757302 58.1979666,51.8943038 C56.8266462,51.1478306 55.7027821,50.505639 54.8151472,49.9821681 C52.8503899,48.8231521 50.5224676,48.4465922 48.2955899,48.9400392 C44.1364909,49.8613847 38.0758734,52.267655 37.336254,58.4979674 C36.1972676,68.0921076 41.6190812,73.0192433 48.4442928,75.2747063" id="Fill-129" fill="#FFBD00"></path>
                    <path d="M83.5779336,22.7836365 C83.5779336,22.7836365 84.3521511,22.0575612 84.3924773,22.0818554 C84.4328035,22.1061496 84.2955569,23.0176399 84.2955569,23.0176399 L83.3199375,23.1143583 C83.3199375,23.1143583 83.3439957,23.0176399 83.5779336,22.7836365" id="Fill-131" fill="#F3F3F3"></path>
                    <path d="M13.9279868,103.708918 C13.4339907,105.736566 12.6856645,107.652368 11.6701771,109.476266 C11.4545693,109.863139 12.0480062,110.210134 12.263614,109.82326 C13.3061383,107.951004 14.0835635,105.974007 14.5908489,103.891812 C14.6955596,103.461851 14.0329266,103.278498 13.9279868,103.708918" id="Fill-133" fill="#98480B"></path>
                    <path d="M12.0989181,103.266718 C12.6151394,103.387272 13.1386928,103.459926 13.6682035,103.485824 C14.1104171,103.507139 14.1092715,102.819568 13.6682035,102.798253 C13.1987239,102.775334 12.739555,102.710473 12.2817608,102.60367 C11.8512326,102.503285 11.6677025,103.166103 12.0989181,103.266718" id="Fill-135" fill="#98480B"></path>
                    <path d="M16.5212602,103.236442 C16.386534,102.964164 16.1535126,102.735203 15.7885146,102.570644 C15.6469146,102.506929 15.4881301,102.508762 15.3719631,102.624504 C14.8360369,103.158976 14.2662,103.659298 13.7195049,104.184832 C13.6422893,104.167643 13.5582,104.17131 13.478235,104.207063 C13.0939903,104.379873 12.717765,104.257027 12.3869068,104.543744 C12.3674311,104.560933 12.3497883,104.580644 12.3319165,104.599437 C12.3335204,104.556808 12.3319165,104.514866 12.321835,104.474529 C12.1543437,103.803459 11.1184641,104.034712 10.6858738,104.26459 C10.0715864,104.591187 9.81702718,105.249651 9.43805243,105.792832 C9.07145049,106.207667 8.68880971,106.6115 8.3137301,107.011437 C7.77207573,107.588539 7.20865437,108.148222 6.6477534,108.706301 C6.48988544,108.863296 6.29558641,109.017541 6.1145767,109.183246 C6.04835922,109.210978 6.00161748,109.238022 5.98122524,109.263004 C6.12672039,109.329469 6.26030097,109.375995 6.37394757,109.392268 C7.71846019,109.584329 10.9835087,110.544866 11.559532,110.352805 C12.1357845,110.160743 13.8643126,107.855317 14.6325728,106.894779 C15.255567,106.115761 16.6362816,104.452297 16.5212602,103.236442" id="Fill-137" fill="#E53500"></path>
                    <path d="M12.6313616,99.7655593 C11.8995324,100.479487 10.660647,100.474216 9.69556738,100.587436 C8.93188971,100.67682 8.12009553,100.818231 7.35046058,100.788436 C7.23933437,100.784082 7.10208777,100.854901 7.05374214,100.958725 C6.89358291,101.302281 6.85967223,101.684571 6.6461266,102.010479 C6.39706641,102.390477 5.92644117,102.67009 5.56167223,102.9277 C5.19575767,103.186226 4.74254602,103.413125 4.61515184,103.867151 C4.53724893,104.145388 4.79180816,104.318198 5.01154019,104.287716 C5.03628583,104.29505 5.06263534,104.300092 5.09104699,104.302384 C6.03344311,104.375495 6.5421033,104.704613 7.08444505,105.470338 C7.28263922,105.75018 7.29661592,105.941554 7.3199868,105.589975 C7.34656544,105.189351 8.18241786,104.270985 8.41360621,104.006499 C8.25046835,104.025063 8.27590136,103.948514 7.99980427,103.905655 C7.28561786,103.794727 7.46296155,102.913261 7.83414602,102.507823 C8.10176544,102.215605 8.35449165,102.182831 8.75660816,102.126221 C9.84656155,101.973121 10.8707557,102.191998 11.8768489,102.605687 C12.0718353,102.685904 12.3334975,102.480549 12.3117305,102.274278 C12.2303907,101.501906 13.000713,100.82144 13.205781,100.099948 C13.3008683,99.7657885 12.8742353,99.5285764 12.6313616,99.7655593" id="Fill-139" fill="#E53500"></path>
                    <path d="M8.8670699,99.5548645 C10.130701,98.8650014 11.4788796,98.3300709 12.8717379,97.9658873 C13.126068,97.8994221 13.3991864,97.839145 13.647101,97.9264666 C13.8507942,97.997974 14.0082039,98.1593241 14.1548447,98.3179238 C14.8772796,99.098088 15.5376214,99.9360082 16.1278505,100.820683 C16.2495165,101.00289 16.3730155,101.207327 16.3475825,101.424829 C16.3294816,101.581137 16.2364563,101.717047 16.1461806,101.846081 C15.4434505,102.850394 14.7404913,103.854706 14.0377612,104.859018 C13.9243437,105.021056 13.7976369,105.193178 13.6088369,105.251622 C13.4411165,105.303877 13.260565,105.254372 13.0930738,105.2012 C12.5521068,105.029078 11.9953301,104.793241 11.6614932,104.333943 C11.2403592,103.755008 11.2767903,102.952613 11.5017922,102.272605 C11.7377922,101.559822 12.1614466,100.909838 12.7184524,100.406307 C11.897035,100.093233 11.1044874,99.7047551 10.354099,99.2470618 C10.2720718,99.1970983 10.1834,99.1363628 10.1630078,99.0426239" id="Fill-141" fill="#FF5A0C"></path>
                    <path d="M13.6413041,105.408205 C13.3358788,105.476045 12.9362827,105.300256 12.657207,105.154032 C12.3552186,104.995433 12.1755837,104.616352 12.2383643,104.269587 C12.277774,104.052543 12.3982944,103.862544 12.5160652,103.679192 C13.1947371,102.624229 14.0445662,101.73199 14.7550866,100.707509 C14.8921041,100.510176 15.1501002,100.438898 15.3659371,100.544325 C15.581774,100.649753 15.7423915,100.776725 15.9518128,101.027917 C15.9616652,101.039606 15.9715177,101.051982 15.9742672,101.067109 C15.9779332,101.087048 16.3564497,101.487444 16.3472847,101.505321 C15.6479915,102.860982 14.7353817,103.959034 13.8805118,105.213851" id="Fill-143" fill="#E53500"></path>
                    <path d="M64.8801806,116.012983 C65.4701806,113.761645 65.8681728,111.464928 66.2819748,109.172566 C61.4187709,107.442636 56.4950777,105.883225 51.5225806,104.498685 C47.4038078,103.351816 43.1883437,102.317022 38.9142233,102.427491 C37.2487049,102.470579 35.5350699,102.705729 34.1002816,103.553046 C32.6657223,104.400363 31.7421146,106.415634 31.8539282,108.07841 C31.8539282,108.07841 31.804666,116.927453 36.9666505,122.377601 C41.7521806,127.430562 49.6998816,130.245708 57.0062583,131.540405 C60.691066,127.00083 63.3979631,121.669632 64.8801806,116.012983" id="Fill-145" fill="#1F191A"></path>
                    <path d="M31.0834454,97.2754283 C31.0834454,97.2754283 35.8955542,90.8603884 47.5947386,89.6445332 C55.984195,88.7724636 60.0250649,88.8173849 60.0250649,88.8173849 C60.0250649,88.8173849 50.8490183,87.4564522 40.0727542,90.6850577 C34.3643037,92.472743 31.0834454,97.1686255 31.0834454,97.1686255" id="Fill-147" fill="#FAD400"></path>
                    <path d="M42.4028303,72.1497636 C42.3292808,71.1101559 42.2557313,70.0703189 42.1821817,69.030482 C41.5880575,68.112116 41.0867293,67.1176587 40.7535798,66.0583406 C39.5992419,65.0036063 38.4451332,63.9488719 37.2910245,62.8941376 C37.7465274,67.0126895 39.675541,70.0107294 42.4028303,72.1497636" id="Fill-149" fill="#FFAD00"></path>
                    <path d="M51.8752287,76.394141 C52.5412986,76.5726804 55.1828948,77.1820977 55.833155,77.3459689 C56.0693841,77.4055584 56.3021763,77.4649187 56.5306151,77.5245082 C58.5870229,78.0603554 60.3015744,78.6090373 61.3028559,79.4226633 C61.3761763,79.482482 61.4611821,79.5310704 61.551687,79.573929 C62.0596598,79.683482 62.5745064,79.7348206 63.0849996,79.7121308 C63.6587317,79.6397066 64.323885,79.4710225 65.0538812,79.2287682 C65.1278889,79.2037864 65.2014384,79.1792631 65.276821,79.1529062 C65.3192093,79.138238 65.3620559,79.1233406 65.4049025,79.1079848 C65.567353,79.050458 65.7318656,78.9906393 65.9000443,78.9266952 C66.0418734,78.8723771 66.1855355,78.8162254 66.3312598,78.7577819 C66.4107666,78.6936086 66.5360986,78.6557921 66.6721996,78.6182049 C66.8536676,78.5428013 67.0371977,78.4646473 67.2239355,78.3828263 C67.3737841,78.3172779 67.5252365,78.2498959 67.6780637,78.1809096 C67.6883744,78.1760966 67.6989142,78.1712836 67.7092249,78.1664706 C67.8503666,78.1025265 67.9921957,78.0372072 68.1353996,77.9705128 C68.1564792,77.9606576 68.1775588,77.9505732 68.1986384,77.940718 C68.319388,77.8838788 68.4405957,77.8265812 68.5624909,77.7681376 C68.8152171,77.4562095 69.2734695,77.227019 69.5323821,77.0221228 C69.6430501,76.9430521 69.7548637,76.8653566 69.8675938,76.7894945 C70.0518113,76.6655025 70.23832,76.5454067 70.4268909,76.4282904 C70.6154617,76.3111741 70.8060948,76.1970373 70.9983317,76.0854216 C72.9204715,74.9694934 75.0020831,74.0926108 76.6497297,72.6081445 C76.9982307,72.2939244 77.3070928,71.6810692 76.9123083,71.4273554 C76.7310695,71.3109267 77.8934268,69.594978 77.6842346,69.6460875 C75.6601336,70.1393052 74.2095355,69.8716108 72.1852054,70.3648286 C72.0381064,70.4008115 71.8353297,70.5069267 71.5958928,70.6604843 C70.7783705,71.4227716 69.7967938,71.9182813 68.8133841,72.4204375 C68.6165647,72.5210521 68.4197452,72.6216667 68.2243006,72.7248024 C67.0665258,73.6383554 65.9435783,74.3339483 64.7049219,74.686214 C64.4984792,74.7448868 64.2890579,74.7941627 64.0755122,74.8322083 C63.0084715,74.5397613 61.9593025,74.2791718 60.9034889,74.1201137 C60.6924637,74.0884854 60.4809802,74.0605242 60.2711006,74.0321046 C58.2754113,73.5599723 56.4424016,72.6432106 54.2576831,72.7951639 C54.0198501,72.7245732 53.7925569,72.6379392 53.5654928,72.5501593 C49.2540249,70.8809655 45.0855317,68.8425458 41.1218773,66.4624033 L40.9355977,66.235734 C41.0226656,67.4396713 41.146852,68.6408583 41.3070113,69.8372323 C41.3296948,70.0079791 41.3532948,70.1789552 41.3775821,70.3494729 C41.4256986,70.6870704 41.5347627,71.0136667 41.6898812,71.3168856 C41.7677841,71.4688389 41.8569142,71.6150624 41.9542928,71.7555561 C42.0839783,71.9423463 42.2736948,71.9664113 42.4029219,72.1497636 C42.5568948,72.3686405 44.7949996,74.495986 51.8752287,76.394141" id="Fill-151" fill="#E53500"></path>
                    <path d="M78.0741157,77.3650834 C78.6636575,78.5543525 79.1535293,79.7931267 79.5370866,81.0639876 C79.8033313,81.9465999 80.0267293,82.8635908 80.5406594,83.6290868 C80.9336109,84.2148975 81.4777856,84.6815292 82.0329584,85.1167618 C84.459405,87.0181255 87.3977196,88.5003 90.4778633,88.3875383 C91.0192885,88.3675987 91.584772,88.2889864 92.0249235,87.973162 C92.8021196,87.4155417 92.942574,86.3227618 92.9022478,85.3668086 C92.826407,83.5766022 92.3612808,81.8283376 91.878741,80.1027629 C91.3357118,78.1606033 90.7443371,76.1790229 89.5368419,74.563918 C88.6776186,73.4142989 87.538174,72.4989123 86.3196808,71.7407504 C85.1937546,71.0403445 83.9484536,70.4529294 82.623875,70.3942567 C81.2992963,70.3355839 79.8837546,70.9021426 79.2270788,72.0542829 C78.8467293,72.7216854 78.7305623,73.5458542 78.2056342,74.1064539" id="Fill-153" fill="#E53500"></path>
                    <path d="M86.2854493,66.76003 C85.3242649,66.0983572 84.2980085,65.5311109 83.2266144,65.0686047 C82.8650532,64.912526 82.4844746,64.7660733 82.0908357,64.7816583 C81.7102571,64.7967848 81.3528202,64.9624895 81.0180668,65.1444667 C79.6561406,65.8856685 78.4745367,66.9557586 77.6020241,68.2376206 C77.2830804,68.7063151 76.9911736,69.2171805 76.5249017,69.5396514 C75.4865017,70.257705 74.0542338,69.7782387 72.8258882,70.0695397 C72.467993,70.1543401 72.1112435,70.3186697 71.8928862,70.6147837 C71.7196668,70.8499331 71.6502416,71.143526 71.5849406,71.4281805 C71.3166338,72.5984268 71.0480979,73.7684439 70.7797911,74.938461 C69.3903697,74.8946856 67.996595,74.9927791 66.6271076,75.2306788 C66.373694,75.2746834 66.1099697,75.3285431 65.9097134,75.489664 C65.6865445,75.6693493 65.5777095,75.9535454 65.500494,76.2294906 C65.1753639,77.392632 65.1978183,78.7384382 64.378692,79.6258635 C63.6308241,80.4362808 62.3807115,80.6164245 61.6179503,81.412632 C60.6599736,82.4123607 60.7818687,83.9956081 60.9789173,85.3661668 C61.2770105,87.4387358 61.6021406,89.5071794 61.9545367,91.5712683 C62.0310649,92.0184188 62.114925,92.4816127 62.3738377,92.8540471 C62.6597872,93.2654439 63.12056,93.5129696 63.5641483,93.7455978 C64.9010998,94.4464621 66.2378221,95.1475556 67.5747736,95.8486491 C68.2612357,96.2084781 68.9939814,96.5788498 69.7672823,96.5233857 C70.5756396,96.4656298 71.2829522,95.9449091 71.8175037,95.3354918 C72.507861,94.5484519 72.9991076,93.5402432 72.976195,92.4935306 C72.9535115,91.4465887 72.3362454,90.3838327 71.3542105,90.0207951 C73.0921328,90.6584029 75.0607852,90.6432763 76.788626,89.9786241 C77.0766377,89.8679251 77.3678571,89.7327027 77.5690299,89.4984701 C77.7830338,89.2493401 77.87056,88.9149513 77.9035542,88.5881258 C78.0414882,87.2221509 77.2445872,85.8103379 76.0038687,85.2229228 C77.2363386,84.9453732 78.3849483,86.0266936 79.6474338,86.0706982 C80.2853212,86.0929296 80.8991503,85.8474667 81.4864008,85.5971908 C82.2445794,85.2740323 83.0144435,84.9229125 83.5975697,84.3403105 C84.1806959,83.7574792 84.5470687,82.8890767 84.320692,82.0963071 C84.1458687,81.4836811 83.6612668,81.0197997 83.278626,80.5107677 C81.7748707,78.5103937 81.8287153,75.7825693 81.9485483,73.2827894 C83.1702493,74.8793299 84.1502221,76.6605978 84.8444746,78.5472934 C85.2546105,79.661388 85.6003619,80.8678464 86.4724163,81.6732216 C87.5236474,82.6440722 89.0727697,82.7921292 90.5018299,82.862949 C91.9450959,82.9344564 93.5281289,82.9339981 94.6524513,82.026404 C95.6170726,81.2478441 96.0212513,79.9536058 96.0957173,78.7162067 C96.1408551,77.9669832 96.0815115,77.2017164 95.8207658,76.4978726 C95.3842804,75.3196047 94.4320318,74.4198031 93.5109445,73.5653812 C90.9813911,71.2187005 88.4516085,68.8720197 85.9220551,66.5255682" id="Fill-155" fill="#FF5A0C"></path>
                    <path d="M70.1249254,89.0063295 C69.8983196,88.8465838 69.6726303,88.683171 69.446941,88.5195291 C69.0734652,88.0265405 68.6896788,87.5454698 68.1729992,87.1379692 C67.6599856,86.7334481 67.1455973,86.3518461 66.662141,85.9118005 C66.4382847,85.707821 66.3053915,85.5460125 66.2141992,85.3596807 C66.1566885,84.8378141 66.1044478,84.3086135 66.0544983,83.7780376 C66.1395041,83.2009361 66.1564594,82.6226887 66.0842847,82.0389407 C66.0767235,81.9770593 66.0687041,81.9149487 66.0602264,81.8528381 C66.0728283,81.6983637 66.0835973,81.5436602 66.0902419,81.3878107 C66.3865021,81.0325656 66.500607,80.4495051 66.3741293,80.0619441 C66.3239507,79.9074698 66.2009099,79.8217526 66.0428128,79.8093763 C65.5169682,79.7688096 64.8513565,80.2216899 64.9837915,80.8141471 C65.0236594,80.9924572 65.0951468,81.1556408 65.1675507,81.3201995 C65.2042109,81.7978324 65.2475157,82.2747777 65.2949449,82.7514937 C65.2374342,83.40652 65.2028361,84.0647548 65.3251895,84.7527845 C65.3843041,85.0848814 65.4583118,85.3445542 65.5531701,85.5654937 C65.6654419,86.4675872 65.9163351,87.1817446 66.6891779,87.8461676 C67.0518847,88.1578666 67.4439196,88.4450422 67.8471817,88.7212166 C68.2596089,89.0805872 68.6883041,89.4259772 69.1137915,89.8009327 C69.4952866,90.1371551 69.9647662,90.4321231 70.4298924,90.736488 C70.9332827,91.2297058 71.489372,91.6951916 71.997574,92.1313409 C72.0133837,92.1689282 72.0319429,92.2033067 72.0463779,92.2424983 C72.2984167,92.9181517 72.458805,94.0996283 72.0317138,94.7775735 C71.9590808,94.8926271 71.9652672,95.0042429 72.0147584,95.0936271 C72.5983429,94.3466956 72.9970225,93.4365804 72.9764012,92.4934618 C72.9637992,91.9168187 72.7699584,91.3360502 72.435205,90.8694185 C72.2008089,90.6262474 71.952207,90.3988905 71.6939817,90.1825348 C71.5862924,90.1192782 71.4731041,90.0647309 71.3541876,90.0209555 C71.4352983,90.0505211 71.5173254,90.0773364 71.5993526,90.1043808 C71.1259779,89.7154447 70.6248788,89.3590536 70.1249254,89.0063295" id="Fill-157" fill="#E53500"></path>
                    <path d="M76.9875305,85.9528943 C76.7082256,85.6512797 76.37668,85.3993994 76.0038917,85.2229228 C76.6518606,85.0769285 77.2766878,85.3070357 77.907014,85.5639582 C76.229581,84.1241839 74.0304276,83.3953584 72.6749169,81.6558031 C72.2508043,81.1114758 71.8376897,80.7736491 71.6892159,80.0847027 C71.5829014,79.5917141 71.5583849,79.0856617 71.4360315,78.5908396 C71.320781,78.1251246 71.2220276,77.661014 71.1267111,77.1969034 C71.5409713,76.0647027 71.8887849,74.7819239 71.7336664,73.627721 C71.7100664,73.4537655 71.4674217,73.3297734 71.3106994,73.3877586 C71.2408159,73.4136571 71.1762023,73.4455146 71.1141091,73.4803515 C71.0027538,73.9664644 70.8911693,74.4525773 70.7795849,74.938461 C70.3284353,74.9242512 69.8765984,74.9265431 69.4254489,74.9421281 C69.3285285,75.0450345 69.2412315,75.1573379 69.1736392,75.2888932 C68.5891383,76.4277404 69.6353285,77.3046229 70.1295538,78.2209262 C70.1636936,78.2839536 70.2069984,78.3272706 70.2546567,78.3552318 C70.3027732,78.632323 70.3394334,78.9121645 70.3770101,79.2133208 C70.5298373,80.4385727 71.082948,81.6049228 71.9763111,82.465762 C73.114381,83.5619798 74.5219033,84.3884405 75.8377751,85.2357575 C76.2137713,85.4780117 76.6030567,85.711786 76.9875305,85.9528943" id="Fill-159" fill="#E53500"></path>
                    <g id="Group-163" transform="translate(93.254369, 123.752743)">
                        <mask id="mask-4" fill="white">
                            <use xlink:href="#path-3"></use>
                        </mask>
                        <g id="Clip-162"></g>
                        <path d="M14.240492,22.7103872 C16.9753425,23.1568502 19.7631212,24.0335035 22.0511755,25.5440976 C23.4694668,18.0807407 24.5014513,12.603548 24.5516299,12.201548 C24.7186629,10.8644511 22.3792843,0.919191106 21.7109231,0.0835628278 C21.0425619,-0.75206545 10.3480959,8.7751512 10.3480959,8.7751512 C10.1027017,8.7751512 1.2960066,9.49801779 0.215905631,23.3954374 C4.77505903,22.1947088 9.58670951,21.9503918 14.240492,22.7103872" id="Fill-161" fill="#A05621" mask="url(#mask-4)"></path>
                    </g>
                    <path d="M107.494861,146.463131 C102.841078,145.703135 98.029428,145.947452 93.4702746,147.148181 C93.4466746,147.450712 93.4253658,147.75714 93.4095561,148.072506 C93.2482513,151.244272 93.360294,153.526779 93.6324959,155.2959 L94.2250163,155.261751 C94.9568454,155.813871 95.9459833,155.906234 96.7490707,155.49713 C97.7514979,154.986493 98.4734746,153.767888 99.5693852,153.652605 C100.921917,153.510507 101.891121,155.146697 102.147284,156.644228 C102.243059,157.203681 102.284073,157.77024 102.295529,158.339091 C103.335533,158.084689 104.397991,157.921506 105.461366,157.852519 C108.170096,157.67673 110.879284,158.061541 113.491323,158.82337 C114.131731,155.46573 114.74831,152.228416 115.305544,149.296841 C113.01749,147.786247 110.229711,146.909594 107.494861,146.463131" id="Fill-174" fill="#FFBD00"></path>
                </g>
            </g>
        </g>
    </g>
</svg>