<svg width="49" height="49" viewBox="0 0 49 49" fill="none" xmlns="http://www.w3.org/2000/svg">
<rect width="49" height="49" rx="10" fill="#0059FF"/>
<g clip-path="url(#clip0_16803_14331)">
<path d="M22.7838 11.9258C22.7215 11.9824 22.6762 12.0561 22.6478 12.141L21.8719 14.8428C21.6736 15.5281 21.1809 16.0379 20.5975 16.3211C20.167 16.525 19.7592 16.7629 19.3684 17.0291C18.8359 17.3973 18.1393 17.5672 17.4482 17.3973L14.7182 16.7176C14.6332 16.6949 14.5482 16.7006 14.4689 16.7289C14.1631 17.1197 13.8799 17.5332 13.6193 17.9637L13.3814 18.3771C13.1436 18.802 12.934 19.2438 12.7471 19.7025C12.7641 19.7875 12.8037 19.8668 12.866 19.9291L14.8258 21.9512C15.3186 22.4609 15.5168 23.1463 15.4658 23.792C15.4488 24.0242 15.4375 24.2621 15.4375 24.5C15.4375 24.7379 15.4488 24.9758 15.4658 25.208C15.5168 25.8537 15.3186 26.5391 14.8258 27.0488L12.8717 29.0766C12.8094 29.1389 12.7697 29.2182 12.7527 29.3031C12.9396 29.7562 13.1492 30.198 13.3871 30.6285L13.625 31.042C13.8855 31.4725 14.1687 31.8803 14.4746 32.2768C14.5539 32.3051 14.6389 32.3051 14.7238 32.2881L17.4539 31.6084C18.1449 31.4385 18.8359 31.6084 19.374 31.9766C19.7648 32.2428 20.1727 32.4807 20.6031 32.6846C21.1865 32.9621 21.685 33.4775 21.8775 34.1629L22.6535 36.8646C22.6762 36.9496 22.7271 37.0232 22.7895 37.0799C23.3502 37.1535 23.9223 37.1932 24.5057 37.1932C25.0891 37.1932 25.6611 37.1535 26.2219 37.0799C26.2842 37.0232 26.3295 36.9496 26.3578 36.8646L27.1338 34.1629C27.332 33.4775 27.8248 32.9678 28.4082 32.6846C28.8387 32.4807 29.2465 32.2428 29.6373 31.9766C30.1697 31.6084 30.8664 31.4385 31.5574 31.6084L34.2875 32.2881C34.3725 32.3107 34.4574 32.3051 34.5367 32.2768C34.8426 31.8859 35.1258 31.4725 35.3807 31.042L35.6185 30.6285C35.8564 30.2037 36.066 29.7619 36.2529 29.3031C36.2359 29.2182 36.1963 29.1389 36.134 29.0766L34.1742 27.0488C33.6814 26.5391 33.4832 25.8537 33.5342 25.208C33.5512 24.9758 33.5625 24.7379 33.5625 24.5C33.5625 24.2621 33.5512 24.0242 33.5342 23.792C33.4832 23.1463 33.6814 22.4609 34.1742 21.9512L36.1283 19.9291C36.1906 19.8668 36.2303 19.7875 36.2473 19.7025C36.0603 19.2494 35.8508 18.8076 35.6129 18.3828L35.3693 17.9637C35.1088 17.5332 34.8312 17.1254 34.5254 16.7289C34.4461 16.7006 34.3611 16.7006 34.2762 16.7176L31.5461 17.3973C30.8551 17.5672 30.1641 17.3973 29.626 17.0291C29.2352 16.7629 28.8273 16.525 28.3969 16.3211C27.8135 16.0436 27.315 15.5281 27.1225 14.8428L26.3521 12.141C26.3295 12.0561 26.2785 11.9824 26.2162 11.9258C25.6555 11.8521 25.0834 11.8125 24.5 11.8125C23.9166 11.8125 23.3445 11.8521 22.7838 11.9258ZM22.325 10.1643C23.033 10.0566 23.7637 10 24.5 10C25.2363 10 25.967 10.0566 26.675 10.1643C26.7713 10.1813 26.8676 10.2096 26.9582 10.2549C27.4963 10.5324 27.9154 11.0252 28.091 11.6426L28.867 14.3443C28.901 14.4689 29.0086 14.5992 29.1842 14.6842C29.6996 14.9277 30.1924 15.2166 30.6568 15.5338C30.8154 15.6414 30.9853 15.6697 31.11 15.6357L33.84 14.9561C34.4574 14.8031 35.0918 14.9164 35.6016 15.2449C35.6865 15.2959 35.7602 15.3639 35.8225 15.4432C36.2246 15.9473 36.5928 16.474 36.9269 17.0291L36.9326 17.0461L37.1875 17.4766L37.1932 17.4936C37.499 18.043 37.7709 18.6207 38.0031 19.2154C38.0371 19.3061 38.0598 19.4023 38.0654 19.4986C38.0937 20.1104 37.8785 20.7221 37.431 21.1865L35.4769 23.2086C35.3863 23.3049 35.324 23.4578 35.341 23.6504C35.3637 23.9336 35.375 24.2168 35.375 24.5C35.375 24.7832 35.3637 25.0721 35.341 25.3496C35.324 25.5422 35.3863 25.7008 35.4769 25.7914L37.431 27.8135C37.8785 28.2779 38.0937 28.8896 38.0654 29.5014C38.0598 29.5977 38.0371 29.6939 38.0031 29.7846C37.7709 30.3793 37.499 30.9514 37.1932 31.5064L37.1875 31.5234L36.9383 31.9539L36.9326 31.9709C36.5984 32.526 36.2303 33.0584 35.8281 33.5568C35.7658 33.6361 35.6922 33.7041 35.6072 33.7551C35.0975 34.0779 34.4631 34.1969 33.8457 34.0439L31.1156 33.3643C30.991 33.3303 30.8211 33.3586 30.6625 33.4662C30.198 33.7891 29.7053 34.0723 29.1898 34.3158C29.0143 34.4008 28.9123 34.5311 28.8727 34.6557L28.091 37.3574C27.9154 37.9691 27.4963 38.4619 26.9582 38.7451C26.8676 38.7904 26.7769 38.8244 26.675 38.8357C25.967 38.9434 25.2363 39 24.5 39C23.7637 39 23.033 38.9434 22.325 38.8357C22.2287 38.8188 22.1324 38.7904 22.0418 38.7451C21.5037 38.4676 21.0846 37.9748 20.909 37.3574L20.133 34.6557C20.099 34.5311 19.9914 34.4008 19.8158 34.3158C19.3004 34.0723 18.8076 33.7834 18.3432 33.4662C18.1846 33.3586 18.0146 33.3303 17.89 33.3643L15.16 34.0439C14.5426 34.1969 13.9082 34.0836 13.3984 33.7551C13.3135 33.7041 13.2398 33.6361 13.1775 33.5568C12.7754 33.0527 12.4016 32.5203 12.0674 31.9652L12.0617 31.9482L11.8125 31.5234L11.8068 31.5064C11.501 30.9514 11.2291 30.3793 10.9969 29.7846C10.9629 29.6939 10.9402 29.5977 10.9346 29.5014C10.9063 28.8896 11.1215 28.2779 11.5689 27.8135L13.523 25.7914C13.6137 25.6951 13.676 25.5422 13.659 25.3496C13.6363 25.0664 13.625 24.7832 13.625 24.5C13.625 24.2168 13.6363 23.9279 13.659 23.6504C13.676 23.4578 13.6137 23.2992 13.523 23.2086L11.5689 21.1809C11.1215 20.7164 10.9063 20.1047 10.9346 19.493C10.9402 19.3967 10.9629 19.3004 10.9969 19.2098C11.2291 18.615 11.501 18.043 11.8068 17.4879L11.8125 17.4709L12.0617 17.0404L12.0674 17.0234C12.4016 16.474 12.7754 15.9473 13.1775 15.4432C13.2398 15.3639 13.3135 15.2959 13.3984 15.2449C13.9082 14.9221 14.5426 14.8031 15.16 14.9561L17.89 15.6357C18.0146 15.6697 18.1846 15.6414 18.3432 15.5338C18.8076 15.2109 19.3004 14.9277 19.8158 14.6842C19.9914 14.5992 20.0934 14.4689 20.133 14.3443L20.909 11.6426C21.0846 11.0309 21.5037 10.5381 22.0418 10.2549C22.1324 10.2096 22.223 10.1756 22.325 10.1643ZM26.3012 19.2154L24.4887 30.0904C24.4037 30.5832 23.9393 30.9174 23.4465 30.8381C22.9537 30.7588 22.6195 30.2887 22.6988 29.7959L24.5113 18.9209C24.5963 18.4281 25.0607 18.0939 25.5535 18.1732C26.0463 18.2525 26.3805 18.7227 26.3012 19.2154ZM20.6088 22.8744L18.9832 24.5L20.6088 26.1256C20.96 26.4768 20.96 27.0545 20.6088 27.4057C20.2576 27.7568 19.6799 27.7568 19.3287 27.4057L17.0631 25.14C16.7119 24.7889 16.7119 24.2111 17.0631 23.86L19.3287 21.5943C19.6799 21.2432 20.2576 21.2432 20.6088 21.5943C20.96 21.9455 20.96 22.5232 20.6088 22.8744ZM29.6713 21.5943L31.9369 23.86C32.2881 24.2111 32.2881 24.7889 31.9369 25.14L29.6713 27.4057C29.3201 27.7568 28.7424 27.7568 28.3912 27.4057C28.04 27.0545 28.04 26.4768 28.3912 26.1256L30.0168 24.5L28.3912 22.8744C28.04 22.5232 28.04 21.9455 28.3912 21.5943C28.7424 21.2432 29.3201 21.2432 29.6713 21.5943Z" fill="white"/>
</g>
<defs>
<clipPath id="clip0_16803_14331">
<rect width="29" height="29" fill="white" transform="translate(10 10)"/>
</clipPath>
</defs>
</svg>
