<?xml version="1.0" encoding="UTF-8" standalone="no"?>
<svg width="192px" height="182px" viewBox="0 0 192 182" version="1.1" xmlns="http://www.w3.org/2000/svg" xmlns:xlink="http://www.w3.org/1999/xlink">
    <!-- Generator: Sketch 41.2 (35397) - http://www.bohemiancoding.com/sketch -->
    <title>Character</title>
    <desc>Created with Sketch.</desc>
    <defs>
        <rect id="path-1" x="0" y="0" width="192" height="182"></rect>
    </defs>
    <g id="Symbols" stroke="none" stroke-width="1" fill="none" fill-rule="evenodd">
        <g id="Welcome---New" transform="translate(-30.000000, -30.000000)">
            <g id="Character" transform="translate(30.000000, 30.000000)">
                <mask id="mask-2" fill="white">
                    <use xlink:href="#path-1"></use>
                </mask>
                <g id="Mask"></g>
                <g id="Defender" mask="url(#mask-2)">
                    <path d="M72.7485922,228.332252 C72.7485922,228.332252 91.270774,196.556638 90.0589299,170.115846 C88.8470857,143.674639 61.901839,147.311318 61.901839,147.311318 C61.901839,147.311318 50.9939948,162.836248 47.6007481,187.09395 C44.2070857,211.352069 51.0546701,222.866835 51.0546701,222.866835" id="Fill-1" fill="#8E572A"></path>
                    <path d="M116.354494,228.332252 C116.354494,228.332252 97.8323117,196.556638 99.0441558,170.115846 C100.256,143.674639 127.201247,147.311318 127.201247,147.311318 C127.201247,147.311318 138.109091,162.836248 141.502338,187.09395 C144.896,211.352069 138.048416,222.866835 138.048416,222.866835" id="Fill-3" fill="#8E572A"></path>
                    <path d="M62.2639377,152.586625 C60.7079896,152.553353 59.4691325,152.625305 58.7023792,152.691018 C58.6296519,152.826603 58.5552623,152.968427 58.4808727,153.108171 C61.5524571,154.718974 75.2044052,162.377878 85.0047169,176.031648 C87.0552104,179.42835 88.3630545,181.863478 89.1958857,183.605707 C89.6542753,180.708508 89.9613922,177.802575 90.0702753,174.931161 C82.915574,168.993275 68.9398857,158.68006 62.2639377,152.586625" id="Fill-5" fill="#864A19"></path>
                    <path d="M130.671543,153.201459 C130.569309,153.007647 130.467075,152.813835 130.367751,152.629172 C125.432686,151.871808 101.322971,149.574761 99.1079065,176.460571 C99.2687377,179.069132 99.5858286,181.700152 100.023023,184.320358 C102.390192,179.606067 108.041309,169.442994 117.98666,161.806964 C125.116426,156.332397 128.832997,154.107301 130.671543,153.201459" id="Fill-7" fill="#864A19"></path>
                    <path d="M137.916135,104.849006 C145.349694,98.5542724 152.437486,92.0341181 152.437486,92.0341181 L152.437486,96.3329198 C163.209849,82.2208221 167.869797,66.3082684 167.639979,64.9291249 C167.367356,63.2925358 163.348655,61.3556628 158.464706,54.4304163 C139.933797,44.6125453 94.5515636,34.7243863 94.5515636,34.7243863 C94.5515636,34.7243863 51.9849143,45.2929671 33.4540052,55.1108381 C25.8234597,56.7474272 21.7357714,63.2925358 21.4631481,64.9291249 C21.2354078,66.2970389 25.817226,81.956306 36.3992519,95.9793999 L38.5195636,94.8402341 L49.8064208,102.479175 L43.0714597,103.667833 C43.1587325,103.754758 43.2447584,103.842514 43.3324468,103.928606 C46.8753039,106.928535 48.7828364,107.201369 48.7828364,107.201369 C48.7828364,107.201369 54.3009662,114.019727 57.5712,115.928735 C67.1092779,117.564908 94.5515636,116.948536 94.5515636,116.948536 C94.5515636,116.948536 121.993849,117.564908 131.531927,115.928735 C134.801745,114.019727 140.320291,107.201369 140.320291,107.201369 C140.320291,107.201369 140.531408,107.169344 140.935771,107.022529 C137.545434,107.358165 135.350732,107.021281 137.916135,104.849006" id="Fill-9" fill="#8E572A"></path>
                    <path d="M112.891096,47.2812045 L94.5513558,43.0244093 L76.2120312,47.2812045 L75.9074078,50.6720841 C75.9074078,50.6720841 82.306161,56.0834337 84.9584208,57.7428976 C87.6106805,59.4023615 90.0883948,62.1598166 90.0883948,62.1598166 L91.197174,62.9937076 L94.5513558,62.9937076 L97.9055377,62.9937076 L99.0143169,62.1598166 C99.0143169,62.1598166 101.492447,59.4023615 104.144706,57.7428976 C106.796551,56.0834337 113.195304,50.6720841 113.195304,50.6720841 L112.891096,47.2812045 Z" id="Fill-11" fill="#864A19"></path>
                    <path d="M93.1859532,29.1198901 C93.0014338,26.0900168 92.2720831,13.9177034 92.121226,8.5296445 C92.0173299,4.81560623 92.4379013,2.04193083 92.7903169,0.41282804 C91.2672,0.582517582 88.692239,0.940196521 84.8106805,1.69506544 C77.832187,3.05216588 74.1762909,10.5908734 74.1762909,13.8324427 C74.1762909,14.7411968 74.2914078,17.718666 74.4642909,21.548742 C73.970161,21.9579932 73.3268364,22.598488 73.2457974,23.2140285 C73.2137974,23.4598288 73.2287584,24.0820238 73.2748883,24.9038536 C73.9094857,25.7335855 74.5050182,26.4643319 74.6995117,26.5570789 C75.1741091,26.7837475 78.2336416,33.3970647 81.0525506,35.8949946 C83.1333818,37.7395366 85.6642909,38.995156 87.0423688,39.599883 C87.0914078,39.41023 87.1412779,39.2218247 87.1919792,39.0338353 C88.4233558,34.4771719 91.3536416,30.7182158 93.1859532,29.1198901" id="Fill-13" fill="#FF5B1C"></path>
                    <path d="M82.6786909,51.7227867 C84.7574442,52.1382766 85.5030026,45.5424274 87.0423273,39.5995502 C85.6642494,38.9952392 83.1333403,37.7396198 81.0525091,35.8950778 C78.2336,33.396732 75.1740675,26.7838307 74.6994701,26.5571621 C74.5049766,26.4644151 73.9094442,25.7336687 73.2748468,24.9039368 C73.4198857,27.4729865 73.8741195,32.0076068 74.1762494,33.207079 C74.4384831,34.2480911 74.8748468,34.8956563 75.1433143,35.2183992 C75.4907429,41.634993 75.8311065,47.0592356 75.9711584,47.3749081 C76.1531844,47.7854071 82.9762494,51.8995467 82.6786909,51.7227867" id="Fill-15" fill="#EFBB00"></path>
                    <path d="M95.9170909,29.1198901 C96.1016104,26.0900168 96.830961,13.9177034 96.9818182,8.5296445 C97.0857143,4.81560623 96.6651429,2.04193083 96.3127273,0.41282804 C97.8358442,0.582517582 100.410805,0.940196521 104.292364,1.69506544 C111.270857,3.05216588 114.926753,10.5908734 114.926753,13.8324427 C114.926753,14.7411968 114.811636,17.718666 114.638753,21.548742 C115.132468,21.9579932 115.776208,22.598488 115.857247,23.2140285 C115.889247,23.4598288 115.874286,24.0820238 115.828156,24.9038536 C115.193558,25.7335855 114.598026,26.4643319 114.403532,26.5570789 C113.928935,26.7837475 110.869403,33.3970647 108.050494,35.8949946 C105.969662,37.7395366 103.438753,38.995156 102.060675,39.599883 C102.011636,39.41023 101.961766,39.2218247 101.911065,39.0338353 C100.679688,34.4771719 97.7494026,30.7182158 95.9170909,29.1198901" id="Fill-17" fill="#FF5B1C"></path>
                    <path d="M96.3127688,0.412994402 C95.0971844,0.277825036 94.5515221,0.262852429 94.5515221,0.262852429 C94.5515221,0.262852429 94.0058597,0.277825036 92.7902753,0.412994402 C92.4378597,2.04168129 92.0172883,4.81535668 92.1211844,8.52981087 C92.2720416,13.9178698 93.0013922,26.0901831 93.1859117,29.1200564 C93.7988987,28.5852017 94.2892883,28.2919881 94.5515221,28.2919881 C94.8137558,28.2919881 95.3041455,28.5852017 95.9171325,29.1200564 C96.1016519,26.0901831 96.8310026,13.9178698 96.9818597,8.52981087 C97.0857558,4.81535668 96.6651844,2.04168129 96.3127688,0.412994402" id="Fill-19" fill="#EFBB00"></path>
                    <path d="M87.1921039,39.8497176 C88.4230649,35.2930542 91.3537662,31.5340981 93.1860779,29.9357724 C93.7990649,29.4009176 94.289039,29.1081199 94.5516883,29.1081199 C94.8139221,29.1081199 95.3043117,29.4009176 95.9172987,29.9357724 C97.7496104,31.5340981 100.679896,35.2930542 101.910857,39.8497176 C101.961558,40.0377069 102.011429,40.2261122 102.060468,40.4157653 C103.359169,45.4278454 104.092675,50.9040763 105.537662,52.2470359 C105.735065,52.1305823 105.928727,52.01704 106.127377,51.8993387 C106.226286,51.840696 106.325195,51.7816374 106.424519,51.7225788 C104.345351,52.1380686 103.600208,45.5426354 102.060468,39.5997582 C102.011429,39.4105211 101.961558,39.2216999 101.910857,39.0337105 C100.679896,34.4770472 97.7496104,30.7180911 95.9172987,29.1197653 C95.3043117,28.5853264 94.8139221,28.2921129 94.5516883,28.2921129 C94.289039,28.2921129 93.7990649,28.5853264 93.1860779,29.1197653 C91.3537662,30.7180911 88.4230649,34.4770472 87.1921039,39.0337105 C87.1414026,39.2216999 87.0915325,39.4105211 87.0424935,39.5997582 C85.5031688,45.5426354 84.7576104,52.1380686 82.6788571,51.7225788 C82.7777662,51.7816374 82.8766753,51.840696 82.9755844,51.8993387 C83.1742338,52.01704 83.3678961,52.1305823 83.5652987,52.2470359 C85.0107013,50.9040763 85.7442078,45.4278454 87.0424935,40.4157653 C87.0915325,40.2261122 87.1414026,40.0377069 87.1921039,39.8497176" id="Fill-21" fill="#864A19"></path>
                    <path d="M85.0365091,53.1126189 C85.0730805,53.1338301 85.1092364,53.1550413 85.1453922,53.1762525 C85.2908468,53.2610973 85.4342234,53.3446944 85.5755221,53.4270437 C85.6183273,53.451998 85.6611325,53.4769524 85.7039377,53.5014908 C85.8344312,53.5776016 85.9628468,53.6524646 86.0900156,53.7260799 C86.136561,53.7526979 86.1835221,53.7801477 86.2292364,53.8067656 C86.559626,53.9980823 86.8750545,54.180249 87.1709506,54.3503544 C87.2050286,54.369902 87.2370286,54.3882019 87.2706909,54.4073335 C87.3853922,54.4734625 87.4976,54.537512 87.6060675,54.599482 C87.6434701,54.6211091 87.6800416,54.6419044 87.7170286,54.6631156 C87.8121974,54.7175992 87.903626,54.7695874 87.9929766,54.8203279 C88.0357818,54.8448664 88.0790026,54.8698207 88.120561,54.8931114 C88.2107429,54.9442678 88.2959377,54.9929288 88.378639,55.0395102 C88.4064831,55.0553147 88.4359896,55.0719509 88.4630026,55.0873394 C88.5714701,55.1484776 88.6737039,55.2062885 88.7680416,55.2591085 C88.7838338,55.2678425 88.7971325,55.2753288 88.8125091,55.2836469 C88.8873143,55.3256534 88.9571325,55.3647485 89.0219636,55.4005164 C89.0493922,55.415489 89.0739117,55.4292139 89.0996779,55.4433547 C89.1470545,55.4695568 89.1915221,55.4940952 89.2318338,55.5161382 C89.2555221,55.5290313 89.2783792,55.5410926 89.2991584,55.5527379 C89.336561,55.5727014 89.368561,55.5897535 89.3976519,55.6051421 C89.412613,55.6130443 89.4296519,55.6221942 89.4425351,55.6288487 C89.4799377,55.6483963 89.5111065,55.6637848 89.5298078,55.6725188 C90.1943273,55.9740505 94.5517299,56.1250242 94.5517299,56.1250242 C94.5517299,56.1250242 98.9087169,55.9740505 99.5732364,55.6725188 C99.5919377,55.6637848 99.6231065,55.6483963 99.6605091,55.6288487 C99.6733922,55.6221942 99.6904312,55.6130443 99.7053922,55.6051421 C99.7344831,55.5897535 99.7664831,55.5727014 99.8038857,55.5527379 C99.8246649,55.5410926 99.8475221,55.5290313 99.8712104,55.5161382 C99.9115221,55.4940952 99.9559896,55.4695568 100.003366,55.4433547 C100.029132,55.4292139 100.053652,55.415489 100.081081,55.4005164 C100.145912,55.3647485 100.21573,55.3256534 100.290535,55.2836469 C100.305912,55.2753288 100.31921,55.2678425 100.335003,55.2591085 C100.42934,55.2062885 100.531574,55.1484776 100.640042,55.0873394 C100.667055,55.0719509 100.696561,55.0553147 100.724405,55.0395102 C100.807106,54.9929288 100.892301,54.9442678 100.982483,54.8931114 C101.024042,54.8698207 101.067262,54.8448664 101.110068,54.8203279 C101.199418,54.7695874 101.290847,54.7175992 101.386016,54.6631156 C101.423003,54.6419044 101.459574,54.6211091 101.496977,54.599482 C101.605444,54.537512 101.717652,54.4734625 101.832353,54.4073335 C101.866016,54.3882019 101.898016,54.369902 101.932094,54.3503544 C102.22799,54.180249 102.543418,53.9980823 102.873808,53.8067656 C102.919522,53.7801477 102.966483,53.7526979 103.013029,53.7260799 C103.140197,53.6524646 103.268613,53.5776016 103.399106,53.5014908 C103.441912,53.4769524 103.484717,53.451998 103.527522,53.4270437 C103.668821,53.3446944 103.812197,53.2610973 103.957652,53.1762525 C103.993808,53.1550413 104.029964,53.1338301 104.066535,53.1126189 C104.258951,52.9999085 104.454275,52.8859503 104.651262,52.7699126 C104.941756,52.5998072 105.240977,52.4226313 105.537704,52.2471191 C104.092717,50.9037435 103.358795,45.4275126 102.060509,40.4158484 C102.01147,40.2261954 101.9616,40.0373742 101.910899,39.8498007 C100.679938,35.2931374 97.7492364,31.5341813 95.9169247,29.9358556 C95.3039377,29.4010008 94.8139636,29.1082031 94.5517299,29.1082031 C94.2890805,29.1082031 93.7991065,29.4010008 93.1861195,29.9358556 C91.3538078,31.5341813 88.4231065,35.2931374 87.1921455,39.8498007 C87.1414442,40.0373742 87.091574,40.2261954 87.0425351,40.4158484 C85.7442494,45.4275126 85.0103273,50.9037435 83.5653403,52.2471191 C83.8620675,52.4226313 84.1612883,52.5998072 84.4517818,52.7699126 C84.6487688,52.8859503 84.8440935,52.9999085 85.0365091,53.1126189" id="Fill-23" fill="#8E572A"></path>
                    <path d="M106.424353,51.7227867 C104.3456,52.1382766 103.600042,45.5424274 102.060717,39.5995502 C103.438795,38.9952392 105.969704,37.7396198 108.050535,35.8950778 C110.869444,33.396732 113.928977,26.7838307 114.403574,26.5571621 C114.598068,26.4644151 115.1936,25.7336687 115.828197,24.9039368 C115.683158,27.4729865 115.228925,32.0076068 114.926795,33.207079 C114.664561,34.2480911 114.228197,34.8956563 113.95973,35.2183992 C113.612301,41.634993 113.271938,47.0592356 113.131886,47.3749081 C112.94986,47.7854071 106.126795,51.8995467 106.424353,51.7227867" id="Fill-25" fill="#EFBB00"></path>
                    <path d="M94.5515221,29.7521916 C93.4219636,29.6893898 90.9168208,32.680168 91.2920935,34.0751159 C91.8281974,34.3970269 94.7776,35.1481527 95.7957818,35.1481527 C96.8139636,35.1481527 99.0119896,34.3317297 98.8511584,33.6130446 C98.6903273,32.8947754 95.934587,29.8287182 94.5515221,29.7521916" id="Fill-27" fill="#864A19"></path>
                    <path d="M88.6151065,41.854508 C88.4239377,42.4787825 88.9334442,40.3493451 89.1478857,39.599883 C89.3623273,38.8500049 92.9126649,37.7769681 95.7747948,37.7769681 C98.6369247,37.7769681 100.406068,36.8831867 101.049392,38.3226364 C101.692717,39.7620862 101.746327,40.2986046 101.746327,40.2986046 C101.746327,40.2986046 100.569808,39.3328715 100.487938,39.0646123 C100.406068,38.7963531 99.923574,39.3807006 96.4925091,39.6784892 C93.0614442,39.9766936 90.3809247,39.3270488 90.1128727,39.6784892 C89.8448208,40.0303454 88.7792623,41.3179896 88.6151065,41.854508" id="Fill-29" fill="#864A19"></path>
                    <path d="M95.1596468,42.659244 C96.1171532,41.6935109 96.5984,40.5131704 98.2341403,40.7277778 C99.8698805,40.9423851 100.942088,43.6249772 100.084322,43.4640216 C99.2265558,43.3030661 97.9822961,42.6055922 97.7736727,42.6055922 C97.5646338,42.6055922 95.1596468,42.659244 95.1596468,42.659244" id="Fill-31" fill="#864A19"></path>
                    <path d="M79.1607688,24.0145223 C78.8968727,23.486322 86.5536,23.4255998 87.3835221,23.4255998 C88.2134442,23.4255998 90.7268987,22.9231857 90.8041974,23.7579085 C90.8810805,24.5922154 88.9128727,28.1232552 87.8909506,28.379869 C86.8690286,28.6368987 81.0192623,27.7381264 79.1607688,24.0145223" id="Fill-33" fill="#231F1F"></path>
                    <path d="M109.987158,24.1170847 C110.250639,23.5888844 102.890639,23.2382758 102.060717,23.2382758 C101.230795,23.2382758 98.4139636,22.8860037 98.3370805,23.7207265 C98.2597818,24.5550334 100.228405,28.0860732 101.249912,28.342687 C102.271834,28.5997168 108.128665,27.8406888 109.987158,24.1170847" id="Fill-35" fill="#231F1F"></path>
                    <path d="M129.79919,103.803003 L137.349112,105.379702 C137.503709,105.216251 137.690306,105.040322 137.915969,104.849006 C145.349527,98.5542724 152.437319,92.0341181 152.437319,92.0341181 L152.437319,96.3329198 C155.568332,92.2316733 158.179034,87.9798689 160.307242,83.9755284 L155.190982,73.7945717 C155.190982,73.7945717 140.322203,73.9555273 137.20241,76.2313635 C134.082618,78.5067838 137.891865,82.8937576 137.637112,85.1217646 C136.898203,91.588683 134.459969,93.9252415 134.459969,93.9252415 C134.459969,93.9252415 135.892904,94.7799278 135.953995,97.408868 C136.015501,100.037808 133.659553,100.896238 129.79919,103.803003" id="Fill-37" fill="#864A19"></path>
                    <path d="M56.4216519,94.2508957 C54.8553143,92.515321 52.6813922,82.1243319 52.6813922,82.1243319 C52.3385351,76.688028 53.6256,76.4118666 52.6518857,75.5122625 C51.6781714,74.6126583 47.2580156,77.6862018 47.2580156,77.6862018 L38.7584831,95.0020214 L49.8063792,102.479175 L43.0714182,103.667833 C43.1586909,103.754758 43.2447169,103.842514 43.3324052,103.928606 C44.820613,105.188801 46.0158338,105.963633 46.9068468,106.443173 C49.6999896,106.685646 63.8668468,107.766585 60.8925091,104.4514 C57.5960935,100.777704 56.0559377,96.7284462 56.4216519,94.2508957" id="Fill-39" fill="#864A19"></path>
                    <path d="M48.7827532,107.201452 C48.7827532,107.201452 55.8044675,108.786885 61.6126753,109.204454 C67.4208831,109.622439 75.6723117,100.504538 94.5514805,100.504538 L94.5514805,101.796341 C94.5514805,101.796341 79.454961,105.025433 66.32,111.370075 C64.9913766,112.129935 51.1756883,110.13733 48.7827532,107.201452" id="Fill-41" fill="#864A19"></path>
                    <path d="M53.9443532,109.432537 C53.9443532,109.432537 55.1212883,113.497599 57.2091844,114.06739 C55.4628987,114.979056 50.5515221,111.978296 49.8063792,107.60879 C53.9202494,108.786635 53.9443532,109.432537 53.9443532,109.432537" id="Fill-43" fill="#864A19"></path>
                    <path d="M90.4344519,62.7000365 C90.7453091,62.9179711 81.0189714,58.3687941 52.4691532,57.1526857 C48.1408416,57.3806021 50.7224519,55.7090769 53.5322182,55.024912 C56.3415688,54.3411629 70.6164779,50.0099205 72.3627636,49.0978392 C74.1094649,48.1861738 76.4633351,47.806036 74.6409974,49.9338098 C72.8186597,52.0615835 62.3401143,55.3289391 60.8215688,55.8608825 C59.3030234,56.3928259 83.6005818,57.9125455 90.4344519,62.7000365" id="Fill-45" fill="#864A19"></path>
                    <path d="M41.9906078,92.7918983 C49.8065039,93.3999525 79.1966338,94.6917558 91.9529974,91.0442624 C88.3083221,93.3238418 82.4618805,95.0714777 68.4147117,95.0714777 C54.3671273,95.0714777 42.9776208,94.3116179 41.9906078,92.7918983" id="Fill-47" fill="#864A19"></path>
                    <path d="M140.320332,107.201452 C140.320332,107.201452 133.298618,108.786885 127.49041,109.204454 C121.682203,109.622439 113.430774,100.504538 94.5516052,100.504538 L94.5516052,101.796341 C94.5516052,101.796341 109.648125,105.025433 122.783086,111.370075 C124.111709,112.129935 137.927397,110.13733 140.320332,107.201452" id="Fill-49" fill="#864A19"></path>
                    <path d="M135.158691,109.432537 C135.158691,109.432537 133.981756,113.497599 131.89386,114.06739 C133.640145,114.979056 138.551522,111.978296 139.296665,107.60879 C135.182795,108.786635 135.158691,109.432537 135.158691,109.432537" id="Fill-51" fill="#864A19"></path>
                    <path d="M98.6686338,62.7000365 C98.3577766,62.9179711 108.084114,58.3687941 136.633932,57.1526857 C140.962244,57.3806021 138.380634,55.7090769 135.570868,55.024912 C132.761517,54.3411629 118.486608,50.0099205 116.740322,49.0978392 C114.993621,48.1861738 112.639751,47.806036 114.462088,49.9338098 C116.284426,52.0615835 126.762971,55.3289391 128.281517,55.8608825 C129.800062,56.3928259 105.502504,57.9125455 98.6686338,62.7000365" id="Fill-53" fill="#864A19"></path>
                    <path d="M147.112436,92.7918983 C139.29654,93.3999525 109.90641,94.6917558 97.1500468,91.0442624 C100.794722,93.3238418 106.641164,95.0714777 120.688332,95.0714777 C134.735917,95.0714777 146.125423,94.3116179 147.112436,92.7918983" id="Fill-55" fill="#864A19"></path>
                    <path d="M94.8720623,62.0161627 C94.8720623,59.9644997 94.5516468,59.3564455 94.5516468,59.3564455 C94.5516468,59.3564455 94.2308156,59.9644997 94.2308156,62.0161627 C94.2308156,64.0678257 93.2438026,85.8766751 93.1677506,86.7887564 C93.0921143,87.7004218 93.8850494,88.2323653 94.5516468,88.2323653 C95.2182442,88.2323653 96.0111792,87.7004218 95.9351273,86.7887564 C95.8590753,85.8766751 94.8720623,64.0678257 94.8720623,62.0161627" id="Fill-57" fill="#864A19"></path>
                    <path d="M128.806566,142.928421 L94.5516052,142.928421 L60.2966442,142.928421 L57.8438649,152.746707 C76.374774,158.200895 89.5359169,179.316014 89.5359169,179.316014 C89.5359169,179.316014 91.6346182,181.109815 94.5516052,181.109815 C97.4685922,181.109815 99.5672935,179.316014 99.5672935,179.316014 C99.5672935,179.316014 112.728436,158.200895 131.259345,152.746707 L128.806566,142.928421 Z" id="Fill-59" fill="#231F1F"></path>
                    <path d="M132.617184,115.057662 L131.531678,115.928568 C131.531678,115.928568 123.702899,116.655988 94.5513143,116.655988 C65.4001455,116.655988 57.5713662,115.928568 57.5713662,115.928568 L56.4858597,115.057662 C56.4858597,115.057662 54.6552104,115.881987 55.1638857,119.139777 C55.5682494,121.732533 57.663626,122.605935 57.663626,122.605935 C57.663626,122.605935 58.5334442,135.192491 58.4120935,136.222689 C57.1404052,136.828664 56.5344831,142.647601 60.2963532,142.928337 C71.6891844,143.39124 94.5513143,143.738522 94.5513143,143.738522 C94.5513143,143.738522 117.41386,143.39124 128.806691,142.928337 C132.568561,142.647601 131.962639,136.828664 130.690951,136.222689 C130.5696,135.192491 131.439418,122.605935 131.439418,122.605935 C131.439418,122.605935 133.534795,121.732533 133.939158,119.139777 C134.447418,115.881987 132.617184,115.057662 132.617184,115.057662" id="Fill-61" fill="#EFBB00"></path>
                    <path d="M133.9392,119.139985 C134.44746,115.882195 132.617226,115.05787 132.617226,115.05787 L131.531719,115.928776 C131.531719,115.928776 123.70294,116.65578 94.5513558,116.65578 C65.400187,116.65578 57.5714078,115.928776 57.5714078,115.928776 L56.4859013,115.05787 C56.4859013,115.05787 54.6552519,115.882195 55.1639273,119.139985 C55.5682909,121.732325 57.6636675,122.605727 57.6636675,122.605727 C57.6636675,122.605727 57.9080312,126.141758 58.1195636,129.61873 C62.4811221,128.516164 65.134213,127.629869 65.134213,127.629869 C65.134213,127.629869 72.740239,128.836411 74.813174,128.664226 C76.8856935,128.491625 80.3296416,129.525567 85.8402909,129.525567 C91.3505247,129.525567 93.8573299,126.768528 93.8573299,126.768528 C93.8573299,126.768528 97.0947325,126.54685 97.1500052,124.67569 C97.1795117,123.669198 97.3021091,122.782071 97.4546286,121.988107 C97.2863169,123.857603 98.4445506,123.17635 99.3762909,124.031036 C100.309278,124.88697 100.923927,127.300471 105.495356,127.854874 C110.066784,128.409692 114.776603,125.914257 116.57733,125.775345 C118.378473,125.636848 125.581797,126.46866 127.034265,126.46866 C127.40746,126.46866 128.884862,126.862938 131.118213,127.459347 C131.286525,124.816682 131.43946,122.605727 131.43946,122.605727 C131.43946,122.605727 133.534836,121.732325 133.9392,119.139985" id="Fill-63" fill="#EF8F00"></path>
                    <polygon id="Fill-65" fill="#864A19" points="96.3369558 98.5543972 102.712021 98.5543972 102.712021 116.635483 97.149839 116.635483 95.9400727 107.07589"></polygon>
                    <path id="Fill-67" fill="#8E572A"></path>
                    <path id="Fill-69" fill="#8E572A"></path>
                    <path id="Fill-71" fill="#8E572A"></path>
                    <path d="M97.9229922,104.837028 C98.0032,102.409386 95.4498494,102.007205 95.492239,100.504538 C95.5350442,99.0018701 97.705226,99.8964834 97.5352519,97.638947 C97.3648623,95.3818266 94.2866286,92.6077353 91.9531221,93.0577453 C91.4494338,92.5282973 91.1938494,90.6966484 90.6407065,90.1859161 C90.0875636,89.674768 87.7893818,89.5895073 86.6402909,90.0578172 C85.4912,90.5265429 84.9804468,91.3783179 83.1078234,91.8466278 C81.2352,92.3153535 80.3416935,92.2725152 79.2349922,93.720699 C78.1287065,95.1688828 74.9366026,102.835273 71.0213818,103.048217 C67.106161,103.261161 65.9994597,103.048217 58.5093818,102.494647 C51.0188883,101.94066 44.5927065,100.899648 42.9328623,100.504538 C41.2734338,100.109427 39.9115636,99.3000746 39.9115636,99.3000746 C39.9115636,99.3000746 32.3009662,101.560106 27.0126545,108.806016 C23.5824208,113.506583 22.6523429,120.910537 22.4212779,125.534577 C14.8260571,124.841678 10.628239,122.850737 8.57732987,121.626727 C11.4157714,123.324038 18.3734857,126.497399 32.8029922,125.639801 C50.1947844,124.605859 65.134213,119.60792 65.134213,119.60792 C65.134213,119.60792 72.740239,120.814463 74.813174,120.642278 C76.8856935,120.469677 80.3296416,121.503619 85.8402909,121.503619 C91.3505247,121.503619 93.8573299,118.746579 93.8573299,118.746579 C93.8573299,118.746579 97.0947325,118.524902 97.1500052,116.653742 C97.2052779,114.782998 97.5776416,113.312771 97.8756156,112.119953 C98.1735896,110.927551 96.9816935,110.842291 96.6841351,108.542332 C96.386161,106.242373 97.8427844,107.26467 97.9229922,104.837028" id="Fill-73" fill="#FF5B1C"></path>
                    <path id="Fill-75" fill="#8E572A"></path>
                    <path d="M24.6535481,92.0341181 C24.6535481,92.0341181 30.3483013,95.6163142 32.2196779,96.1050035 C34.090639,96.5936927 39.9113143,99.2999914 39.9113143,99.2999914 C39.9113143,99.2999914 44.3800935,98.7464208 48.4657039,93.4652497 C52.5513143,88.1840786 55.5302234,82.221238 55.5302234,82.221238 C55.5302234,82.221238 55.870587,84.052471 57.0196779,86.4801128 C58.1687688,88.9081705 62.5947429,93.0576621 62.5947429,93.0576621 L66.2124052,70.5085005 L33.4539636,55.1108381 C33.4539636,55.1108381 20.2712104,55.4057153 15.2891844,73.7945717 C-0.725361039,84.8235602 4.5774961,89.8477016 2.70736623,94.8402341 C2.45801558,95.5056833 -0.948114286,107.820236 0.257496104,114.231008 C1.29063896,120.81438 5.76772987,119.780438 7.31744416,120.81438 C6.49666494,92.113972 24.6535481,92.0341181 24.6535481,92.0341181" id="Fill-77" fill="#8E572A"></path>
                    <path id="Fill-79" fill="#FFAB00"></path>
                    <path id="Fill-81" fill="#FFAB00"></path>
                    <path id="Fill-83" fill="#FFAB00"></path>
                    <path id="Fill-85" fill="#FFAB00"></path>
                    <path d="M27.0128208,108.806183 C32.3007169,101.559857 39.9113143,99.3002409 39.9113143,99.3002409 C39.9113143,99.3002409 34.090639,96.5935264 32.2196779,96.1048371 C30.3483013,95.6165638 24.6535481,92.0339517 24.6535481,92.0339517 C24.6535481,92.0339517 6.49666494,92.1138056 7.31744416,120.814629 C7.37728831,120.85414 7.44669091,120.901137 7.52191169,120.951878 C7.54518442,120.967682 7.57011948,120.984319 7.59505455,121.001371 C7.63079481,121.025493 7.66861299,121.050448 7.70726234,121.076234 C7.73178182,121.092454 7.75837922,121.109922 7.78372987,121.126974 C7.92793766,121.222217 8.09209351,121.328689 8.27785974,121.44431 C8.29697662,121.455956 8.31567792,121.467601 8.33479481,121.479662 C8.39962597,121.519589 8.46653506,121.560348 8.53635325,121.601939 C8.54965195,121.610257 8.56378182,121.618575 8.5774961,121.626893 C10.6284052,122.850904 14.8262234,124.841844 22.4214442,125.534743 C22.6520935,120.910703 23.582587,113.506749 27.0128208,108.806183" id="Fill-87" fill="#FFAB00"></path>
                    <path d="M165.410784,117.987843 C165.163512,117.183065 165.703356,113.582569 164.713434,109.867699 C162.1152,100.580939 150.768083,98.0143851 150.768083,98.0143851 C148.085901,99.3756446 146.0192,99.9046767 142.987512,100.138416 C139.955408,100.371739 131.637486,101.305031 126.040395,101.033029 C120.443304,100.760611 119.549382,98.8936099 118.733174,96.7150956 C117.916966,94.5365813 115.895564,91.2301307 114.457642,90.4473961 C113.019304,89.6646615 108.704706,87.9627752 107.227719,86.873518 C105.750732,85.7842609 102.913538,88.6631604 101.319771,90.4473961 C99.8427844,89.975759 97.6406026,91.1793902 96.461174,93.0580364 C95.2813299,94.9362667 97.9248623,97.5319345 97.9248623,97.5319345 C97.9248623,97.5319345 96.461174,99.0491586 96.3443948,100.87748 C96.2280312,102.705386 98.132239,103.211127 98.2103688,104.417254 C98.2880831,105.622965 96.7329662,106.167801 96.6444468,107.955364 C96.5559273,109.743343 98.4044468,110.174221 98.3657974,110.91994 C98.3267325,111.665659 97.6273039,112.080317 97.4548364,113.959379 C97.2827844,115.838026 98.4435117,115.153445 99.3760831,116.008963 C100.30907,116.864897 100.923719,119.278398 105.495148,119.833216 C110.066577,120.387619 114.77681,117.892184 116.577538,117.753688 C118.378265,117.614775 125.582005,118.446587 127.034473,118.446587 C128.486525,118.446587 146.638005,124.408179 161.18346,125.101078 C162.182525,125.148908 163.122577,125.168871 164.017745,125.168455 C165.008083,123.955258 165.658057,118.792204 165.410784,117.987843" id="Fill-89" fill="#FF5B1C"></path>
                    <path d="M165.410784,117.987843 C165.163512,117.183065 165.703356,113.582569 164.713434,109.867699 C162.1152,100.580939 150.768083,98.0143851 150.768083,98.0143851 C148.085901,99.3756446 146.0192,99.9046767 142.987512,100.138416 C139.955408,100.371739 131.637486,101.305031 126.040395,101.033029 C120.443304,100.760611 119.549382,98.8936099 118.733174,96.7150956 C117.916966,94.5365813 115.895564,91.2301307 114.457642,90.4473961 C113.019304,89.6646615 108.704706,87.9627752 107.227719,86.873518 C105.750732,85.7842609 102.913538,88.6631604 101.319771,90.4473961 C99.8427844,89.975759 97.6406026,91.1793902 96.461174,93.0580364 C95.2813299,94.9362667 97.9248623,97.5319345 97.9248623,97.5319345 C97.9248623,97.5319345 96.461174,99.0491586 96.3443948,100.87748 C96.2280312,102.705386 98.132239,103.211127 98.2103688,104.417254 C98.2880831,105.622965 96.7329662,106.167801 96.6444468,107.955364 C96.5559273,109.743343 98.4044468,110.174221 98.3657974,110.91994 C98.3267325,111.665659 97.6273039,112.080317 97.4548364,113.959379 C97.2827844,115.838026 98.4435117,115.153445 99.3760831,116.008963 C100.30907,116.864897 100.923719,119.278398 105.495148,119.833216 C110.066577,120.387619 114.77681,117.892184 116.577538,117.753688 C118.378265,117.614775 125.582005,118.446587 127.034473,118.446587 C128.486525,118.446587 146.638005,124.408179 161.18346,125.101078 C162.182525,125.148908 163.122577,125.168871 164.017745,125.168455 C165.008083,123.955258 165.658057,118.792204 165.410784,117.987843" id="Fill-91" fill="#FF5B1C"></path>
                    <path id="Fill-93" fill="#FF5B1C"></path>
                    <path id="Fill-95" fill="#FF5B1C"></path>
                    <path id="Fill-97" fill="#F26522"></path>
                    <path id="Fill-99" fill="#F26522"></path>
                    <path d="M190.274452,99.3151303 C187.850348,89.8478679 187.534919,85.1369036 186.06001,81.7085926 C182.654296,73.7943222 173.789465,70.6750291 171.850348,66.9439387 C168.110088,57.6550999 158.46479,54.4305827 158.46479,54.4305827 C150.432374,51.5508513 121.920374,78.2378591 122.131075,78.3938238 C122.342192,78.5493725 130.782296,90.257951 130.782296,90.257951 C130.782296,90.257951 133.114556,87.7683392 134.202971,84.8507604 C135.291387,81.9335976 135.595179,78.8213749 135.595179,78.8213749 C135.595179,78.8213749 135.602244,78.6271469 137.506868,82.0500512 C139.411491,85.4733713 144.976582,96.4973689 150.768166,98.0141772 C150.768166,98.0141772 155.719439,96.232437 155.905205,96.170467 C156.090556,96.1084971 158.503439,95.3656894 159.517049,94.8083757 C160.53066,94.251062 165.432062,91.6508193 165.432062,91.6508193 C165.432062,91.6508193 172.003283,90.0117348 179.289309,103.537821 C183.367439,111.108554 181.625309,119.066078 180.963699,121.417193 C182.263647,120.934743 183.549465,120.55003 185.010244,120.387827 C191.24401,119.694512 191.7984,114.981052 191.93679,114.231174 C192.075179,113.481296 190.775231,101.270719 190.274452,99.3151303" id="Fill-101" fill="#8E572A"></path>
                    <path d="M179.289475,103.537905 C172.003449,90.011818 165.432229,91.6509025 165.432229,91.6509025 C165.432229,91.6509025 160.530826,94.2511452 159.517216,94.8084589 C158.503605,95.3657726 156.090722,96.1085803 155.905371,96.1705502 C155.719605,96.2325202 150.767917,98.0142604 150.767917,98.0142604 C150.767917,98.0142604 162.115449,100.581231 164.713683,109.867574 C165.70319,113.582444 165.163345,117.18294 165.410618,117.987718 C165.658306,118.792079 165.008332,123.955549 164.017995,125.16833 C173.103086,125.165003 177.097683,122.852983 180.963865,121.417276 C181.62506,119.066161 183.367605,111.108221 179.289475,103.537905" id="Fill-103" fill="#FFAB00"></path>
                    <path d="M84.8668675,94.1257912 C83.7136208,94.0708917 84.1528935,94.8403173 84.1528935,94.8403173 C84.1528935,94.8403173 88.3266078,93.9610925 89.095439,94.1806908 C89.664374,94.3433099 91.6188675,93.3393135 92.8780883,93.03695 C92.5626597,92.997023 92.2518026,93.0003503 91.9529974,93.0577453 C91.9529974,93.0577453 86.0201143,94.1806908 84.8668675,94.1257912" id="Fill-105" fill="#C53805"></path>
                    <path d="M95.170826,109.238849 C96.5634494,109.678462 97.0779429,110.008691 97.149839,110.14594 C96.9561766,109.759147 96.7766442,109.258397 96.6839688,108.542623 C96.3859948,106.242664 97.8426182,107.264545 97.922826,104.836903 C98.0034494,102.409261 96.2883325,102.03453 96.3311377,100.532279 C96.3735273,99.0296111 98.0948779,99.7894708 97.9249039,97.5319345 C97.8372156,96.3678143 96.5842286,95.1766603 95.4505143,94.2508541 C95.8299429,95.2519392 96.5530597,97.4753713 95.9400727,98.5222061 C95.1359169,99.8963586 95.0814753,100.170856 95.2460468,100.775583 C95.4102026,101.379894 97.0725403,102.907516 97.4424104,103.413258 C97.8118649,103.919415 97.5458909,106.569982 96.8352416,107.052433 C96.1241766,107.535299 93.7782026,108.799237 95.170826,109.238849" id="Fill-107" fill="#C53805"></path>
                    <path d="M97.1500052,116.653908 C97.2052779,114.782748 97.5776416,113.312521 97.8756156,112.12012 C98.0809143,111.298706 97.5793039,111.002165 97.1500052,110.146231 C97.2219013,110.28348 96.6184727,111.712116 96.6184727,113.525465 C96.6184727,115.328001 97.3453299,116.631033 96.7493818,117.623384 C96.9821091,117.362611 97.1383688,117.046523 97.1500052,116.653908" id="Fill-109" fill="#DF3805"></path>
                    <path d="M115.399106,117.427368 C113.586743,117.537167 109.1936,118.636406 107.106951,118.196794 C105.020301,117.757181 102.988509,115.668918 102.988509,115.668918 C102.988509,115.668918 100.023314,115.613603 99.748613,115.503804 C99.4739117,115.394005 97.5838338,114.019852 97.9250286,113.360642 C98.2658078,112.701015 99.1547429,112.144949 98.7599377,111.53232 C98.3655481,110.920107 98.0779636,109.458614 97.9250286,108.689188 C97.7716779,107.919763 98.1012364,107.260552 98.2658078,106.380911 C98.4307948,105.501687 99.034639,104.18285 98.4856519,103.468323 C97.9362494,102.753797 96.563574,101.215362 96.6184312,100.555736 C96.6732883,99.8961091 99.4190545,97.6431477 99.4190545,97.6431477 C99.4190545,97.6431477 97.4080416,96.1296667 96.1641974,94.2381274 C96.2327688,95.8663983 97.9250286,97.5321008 97.9250286,97.5321008 C97.9250286,97.5321008 96.4609247,99.0489091 96.344561,100.877231 C96.2277818,102.705552 98.1324052,103.211294 98.2101195,104.417004 C98.2537558,105.095347 97.7812364,105.564073 97.343626,106.162561 C97.2164571,106.573892 97.0460675,106.908696 96.8357818,107.052183 C96.7327169,107.316699 96.6616519,107.612824 96.644613,107.955531 C96.5556779,109.743509 98.404613,110.174388 98.3655481,110.920107 C98.3268987,111.665826 97.6270545,112.080484 97.4550026,113.95913 C97.2825351,115.838192 98.4432623,115.153195 99.3762494,116.009129 C100.309236,116.865063 100.923886,119.278564 105.495314,119.832967 C110.066743,120.387785 114.776561,117.892351 116.577704,117.753438 C116.731055,117.741793 116.926379,117.737634 117.15121,117.738881 C116.782587,117.54299 116.221964,117.377459 115.399106,117.427368" id="Fill-111" fill="#C53805"></path>
                    <path d="M61.7111273,136.382563 C63.4017247,136.581782 80.2258286,136.879987 97.2706078,136.979804 C114.315387,137.079205 128.535439,136.681184 128.535439,136.681184 C128.535439,136.681184 120.083283,136.382563 93.8308156,135.785323 C67.5783481,135.188498 61.7111273,136.382563 61.7111273,136.382563" id="Fill-113" fill="#EFD300"></path>
                    <path d="M60.7167169,122.450012 C60.7167169,122.450012 85.4207169,123.544676 95.9399896,123.047253 C106.459678,122.549414 128.137808,122.450012 128.137808,122.450012 C128.137808,122.450012 115.947055,122.350611 96.3368727,122.450012 C76.7266909,122.549414 60.7167169,122.450012 60.7167169,122.450012" id="Fill-115" fill="#EF7D00"></path>
                    <path d="M39.0078338,55.1109629 C36.3422753,55.1134583 35.9969247,55.7077876 38.7584831,56.7334112 C41.5200416,57.7586188 48.1648208,65.5996898 55.2393143,66.6581699 C62.3138078,67.7170659 46.9143273,59.1714506 52.3302234,56.7662677 C60.2641455,53.2427143 44.7266909,56.4023502 43.966587,56.2368197 C43.2060675,56.0717051 40.2308987,55.1097151 39.0078338,55.1109629" id="Fill-117" fill="#864A19"></path>
                    <path d="M137.675387,61.8767927 C139.398816,62.7830513 141.261881,61.5819155 145.585621,58.6314802 C149.909361,55.6814608 153.397777,55.0422136 149.811283,54.0095197 C146.224374,52.9768257 144.346764,57.2361164 136.687543,55.3524793 C129.027906,53.4684263 130.551023,55.2389371 130.551023,55.2389371 C130.551023,55.2389371 139.98479,57.9431562 138.658244,59.6150973 C137.331283,61.2866225 134.776686,60.3524982 137.675387,61.8767927" id="Fill-119" fill="#864A19"></path>
                </g>
            </g>
        </g>
    </g>
</svg>