<?xml version="1.0" encoding="UTF-8"?>
<svg width="117px" height="144px" viewBox="0 0 117 144" version="1.1" xmlns="http://www.w3.org/2000/svg" xmlns:xlink="http://www.w3.org/1999/xlink">
    <!-- Generator: sketchtool 63.1 (101010) - https://sketch.com -->
    <title>8ADDD103-162E-4800-B450-92F6FF3C543B</title>
    <desc>Created with sketchtool.</desc>
    <defs>
        <rect id="path-1" x="0" y="0" width="120" height="172"></rect>
    </defs>
    <g id="Firewall" stroke="none" stroke-width="1" fill="none" fill-rule="evenodd">
        <g id="IP-Lockouts---IP-Banning---IP-Lockout-Search-No-results" transform="translate(-621.000000, -611.000000)">
            <g id="Modal" transform="translate(480.000000, 268.000000)">
                <g id="Graphic-/-Dashboard---Blacklist" transform="translate(0.000000, 201.000000)">
                    <g transform="translate(140.000000, 142.000000)" id="graphic-defender-dashboard-blacklist">
                        <g>
                            <mask id="mask-2" fill="white">
                                <use xlink:href="#path-1"></use>
                            </mask>
                            <g id="mask"></g>
                            <g id="graphic" mask="url(#mask-2)">
                                <g transform="translate(-26.400000, 0.000000)">
                                    <path d="M100.732452,197.941792 C103.073701,193.28712 106.196275,184.753404 110.879682,161.221352 C115.563089,137.6893 112.701259,115.191118 110.879682,109.760818 C109.058559,104.330066 72.6024833,124.759155 72.6024833,124.759155 C72.6024833,124.759155 75.6873539,170.013309 79.2332972,183.201697 C82.7792404,196.390084 84.0802372,197.683098 83.819947,198.459178 C83.5596568,199.234806 81.7385338,201.820384 81.7385338,201.820384 C81.7385338,201.820384 77.5602625,207.866942 76.6694612,216.242643 L99.2733729,216.242643 C99.9311394,209.971251 100.945953,201.340469 100.732452,197.941792" id="Fill-1" fill="#9F5622"></path>
                                    <path d="M91.8296177,190.391562 C91.823258,190.159505 88.7197628,190.555897 87.5114347,189.967179 C86.3031066,189.378008 83.706564,155.751503 90.4732013,140.949557 C88.0161161,142.404198 76.8931382,153.252608 75.1796744,155.101836 C76.3157754,166.304651 77.7330625,177.622592 79.2334789,183.201877 C82.7789678,196.390264 84.0799647,197.683279 83.8196744,198.458907 C83.5598385,199.234535 81.7382612,201.820564 81.7382612,201.820564 C81.7382612,201.820564 79.1871445,205.51315 77.6467533,211.123587 L78.1337186,211.660387 L81.2090498,212.223372 C81.2090498,212.223372 83.7042927,198.200214 85.9238006,198.23588 C87.8375924,198.266129 89.3134789,198.141523 89.3843432,197.811497 C89.4552076,197.481923 89.4851886,194.744199 89.4792833,194.066089 C89.4561161,191.413693 91.8550562,191.327462 91.8296177,190.391562" id="Fill-5" fill="#98480C"></path>
                                    <path d="M56.68267,113.381033 C56.68267,113.381033 48.3565628,135.878764 46.5349855,146.998508 C44.7134082,158.117801 42.8922852,176.73694 42.8922852,176.73694 L40.8108719,180.098597 C40.8108719,180.098597 28.0611937,188.114926 25.9797804,197.683414 C25.5336984,199.733998 24.7882599,203.771508 23.8929161,208.844694 L50.581976,208.844694 C52.2073136,204.028396 53.6127899,198.51954 54.4209161,192.510905 C54.8610927,191.735277 58.5037931,188.632313 59.2846637,186.56367 C60.0646259,184.494576 72.3427836,178.288648 85.0674776,143.119465 C97.7926259,107.950733 56.68267,113.381033 56.68267,113.381033" id="Fill-9" fill="#9F5622"></path>
                                    <path d="M72.6025741,27.8444182 C69.796164,33.6363469 49.1532871,38.246323 46.232858,39.2829017 C42.0614006,39.904578 31.2141577,38.4535484 28.5026877,50.0631396 C25.7907634,61.6727308 28.085224,70.5870368 41.0184227,76.5992835 C43.312429,82.4043049 49.5702965,87.5871984 51.0307382,88.2088747 C52.4907256,88.8305511 55.828164,95.6721511 58.1226246,97.3308576 C60.4175394,98.9891127 61.0430536,101.269496 61.0430536,101.269496 L93.5838738,105.623036 L114.234473,98.5746618 C114.234473,98.5746618 116.945943,91.9407387 116.945943,90.2820321 L116.945943,87.3795215 C116.945943,87.3795215 122.161287,81.9894025 122.99576,78.2579901 C123.829779,74.5261261 94.4178927,34.3072336 94.4178927,34.3072336 C94.4178927,34.3072336 75.4089842,22.0520381 72.6025741,27.8444182" id="Fill-14" fill="#9F5622"></path>
                                    <path d="M96.2954347,32.4413468 L104.639258,40.7339764 C104.639258,40.7339764 110.480116,39.4901723 114.234564,40.7339764 C120.075422,40.7339764 129.253264,41.1484273 134.468154,45.5024191 C139.683044,49.8559593 143.437491,56.6971079 143.645996,67.4773458 C143.854501,78.2575837 134.885163,80.952869 132.590703,81.9894477 C130.296242,83.0260264 120.075422,81.9894477 114.234564,80.5384181 C108.393706,79.086937 90.2465262,74.7333967 90.2465262,74.7333967 L96.2954347,32.4413468 Z" id="Fill-16" fill="#9F5622"></path>
                                    <path d="M94.2872479,42.5553481 L104.270491,41.6411182 C104.748371,41.596874 104.956876,41.017636 104.614365,40.6826441 L102.733734,38.8401887 L97.9635634,34.0992858 C97.4861375,34.8934243 96.6607495,36.0618327 95.7113489,36.524591 L94.2872479,42.5553481 Z" id="Fill-18" fill="#98480C"></path>
                                    <path d="M110.879637,109.760682 C109.692659,106.221145 94.6362549,110.987782 83.7067912,116.602734 C75.0949552,108.383243 56.6824883,113.381033 56.6824883,113.381033 C56.6824883,113.381033 55.7439899,115.917851 54.428911,119.706149 C59.2858448,120.78923 72.0673211,124.460596 76.457277,133.810121 C81.9211003,145.4468 81.4005199,150.101472 81.4005199,150.101472 C81.4005199,150.101472 93.9666776,146.368705 99.3537312,141.850829 C105.578892,136.630915 109.809403,129.796087 112.984671,123.079093 C112.467725,116.659619 111.59464,111.89208 110.879637,109.760682" id="Fill-20" fill="#1F191A"></path>
                                    <path d="M56.6258877,95.7809558 C55.9603987,95.8315206 55.045976,95.7443866 54.9864681,96.9326597 C54.8701779,99.2473544 56.6258877,99.7250113 56.6258877,99.7250113 L56.6258877,110.842047 C56.6258877,110.842047 54.4858751,111.721514 54.4268215,112.483598 C54.3677678,113.246133 54.780689,114.652918 56.3142662,115.005066 C57.8482978,115.356763 73.7187331,116.763999 91.7714271,116.646617 C109.824121,116.529686 113.246506,115.23938 114.013295,115.005066 C114.780083,114.770301 115.075351,111.662822 114.013295,111.54544 C113.954241,110.665973 115.252512,99.2906957 115.252512,99.2906957 C115.252512,99.2906957 118.14296,98.4699204 118.14296,96.4179821 C118.14296,94.3655924 117.376172,93.4170507 115.960247,94.0084784 C114.544323,94.5999062 112.774077,95.7728293 88.468058,96.1832169 C64.1611306,96.5936046 56.6258877,95.7809558 56.6258877,95.7809558" id="Fill-22" fill="#FFBC00"></path>
                                    <path d="M68.6224959,71.0381923 C68.6224959,71.0381923 94.6642372,77.2797866 105.086294,79.2716792 C115.507897,81.2635717 120.529726,81.719558 121.351026,81.8242994 C122.17278,81.9285893 143.032792,75.0219774 138.356199,61.875577 C133.679606,48.7287251 124.459972,50.4551524 124.459972,50.4551524 C124.459972,50.4551524 118.447859,53.2438922 119.115619,61.4769276 C111.365966,61.0787297 84.8027356,59.0868371 68.6224959,71.0381923" id="Fill-24" fill="#9F5622"></path>
                                    <path d="M85.078289,47.6622139 C85.7056202,48.6315233 86.8717022,44.2933331 85.067841,43.7317024 C83.2635256,43.1705233 64.4790208,40.5321235 61.3718915,40.4476983 C58.2652164,40.3632731 52.0836644,40.4662086 49.7910208,39.6612349 C47.497923,38.8562611 47.208106,40.5036808 55.702289,41.4860829 C64.1969262,42.4689365 71.1175571,43.802132 73.3770397,43.5565315 C75.6369767,43.310931 83.080005,44.5741484 85.078289,47.6622139" id="Fill-28" fill="#98480C"></path>
                                    <path d="M92.3615091,45.7961465 C92.6953893,47.2449187 93.9573199,44.1342796 99.6028467,43.1690334 C101.231364,42.7148531 107.364765,42.8629357 106.6752,43.0484905 C105.552273,43.3500735 105.053951,44.2548225 109.250847,43.3970266 C112.794973,42.6719633 114.617459,42.2796345 116.947806,42.2340358 C119.278153,42.1879857 117.322115,41.065176 113.427755,41.2055836 C109.533396,41.3459913 100.058014,41.540124 92.9252442,42.897699 C91.7627962,43.1189201 92.2288656,45.2205202 92.3615091,45.7961465" id="Fill-30" fill="#98480C"></path>
                                    <path d="M91.1118435,62.5689019 C91.1118435,62.5689019 91.0109981,57.4094849 90.4568025,54.8550588 C89.9021527,52.3001812 89.8844366,51.5489325 90.2464808,51.9493878 C90.6080707,52.3502945 93.7833388,59.9684257 94.0354524,61.3440595 C94.2871117,62.7192419 91.1622662,64.0899095 91.1118435,62.5689019" id="Fill-32" fill="#98480C"></path>
                                    <path d="M41.0182864,76.5993287 C41.0182864,76.5993287 44.0372896,82.8061597 49.531094,84.5091104 C51.0428669,86.5127412 53.5126713,87.9655767 55.8816303,87.9150119 C56.4867028,89.317734 55.3274347,92.4234069 59.309012,92.7742003 C63.2905893,93.1249937 63.5926713,93.6933964 64.0464757,93.8351585 C64.4998259,93.9764691 60.5691256,90.3195494 59.6615167,90.3195494 C58.7543621,90.3195494 56.6879394,89.017054 56.2345893,87.1141013 C55.7807849,85.2102458 54.3698574,86.3298952 52.2525577,85.2192752 C50.1357123,84.1082037 49.9844442,81.825112 49.9844442,81.825112 C49.9844442,81.825112 49.6823621,80.0007154 50.2869804,78.7483333 C47.6663621,78.7483333 41.0182864,76.5993287 41.0182864,76.5993287" id="Fill-34" fill="#98480C"></path>
                                    <path d="M121.952192,75.1900602 L81.4350435,71.1344912 L41.0182864,76.5995544 C41.0182864,76.5995544 45.5495167,85.2605849 54.8236618,86.512967 C63.4818322,87.6818268 79.7411129,86.7757234 92.6075356,80.4343539 C94.2201539,79.6397639 96.1348543,79.7801716 97.6139205,80.7982399 C100.875498,83.043408 107.493592,86.6736908 116.945807,87.3797924 C116.945807,87.3797924 122.161151,81.9896734 122.995624,78.2578095 C123.101921,77.7801526 122.711258,76.7020385 121.952192,75.1900602" id="Fill-36" fill="#98480C"></path>
                                    <path d="M74.1605451,90.1357554 C77.1659205,89.3854096 92.4980593,83.125305 95.6074599,83.125305 C98.7168606,83.125305 108.547018,90.6576565 110.722917,91.3289947 C112.899271,91.9998814 108.682842,93.864459 105.388103,93.0441352 C102.093365,92.2238113 96.1048732,85.0643753 94.7466397,85.1388681 C93.3888606,85.2133609 84.2741603,93.117725 78.1371256,93.864459 C72.0005451,94.6116444 71.141542,90.8888099 74.1605451,90.1357554" id="Fill-38" fill="#9F5622"></path>
                                    <path d="M41.0182864,76.5993287 C41.0182864,76.5993287 51.1900467,80.7320994 54.4211886,81.5289467 C57.6527849,82.325794 73.6867533,79.4043215 94.931523,70.3739873 C115.107422,62.2736846 119.115801,61.4768373 119.115801,61.4768373 C119.115801,61.4768373 118.046476,56.560312 103.482943,57.4253315 C88.9185009,58.2898995 64.2000151,58.8212816 64.2000151,58.8212816 C64.2000151,58.8212816 59.6569741,52.5796872 56.183258,50.0568642 C52.7090877,47.5335896 47.6318385,45.939895 47.6318385,45.939895 C47.6318385,45.939895 22.1120404,58.5228589 41.0182864,76.5993287" id="Fill-40" fill="#9F5622"></path>
                                    <path d="M119.115755,61.477063 C119.115755,61.477063 120.162367,58.3474622 120.207793,56.6047819 C120.253673,54.8621017 117.95149,51.0932171 117.95149,51.0932171 C117.95149,51.0932171 123.865484,51.5442372 127.169307,50.3803435 C125.753383,51.5622961 123.143213,52.8521503 122.560399,53.6729256 C121.978039,54.4941524 120.518052,58.8851648 121.424752,61.5560706 C120.3259,64.4617415 119.115755,61.477063 119.115755,61.477063" id="Fill-42" fill="#98480C"></path>
                                    <path d="M61.8010751,52.8523309 C60.4846334,52.343071 56.8519268,49.3597469 52.1444442,47.5001356 C51.7851256,46.1448179 51.5779836,44.5547351 51.0637628,44.4089098 C50.3074221,45.2360057 50.133441,46.2053151 50.1057312,46.7962914 C47.7508543,46.0996708 45.1956492,45.7642274 42.568217,46.1746151 C42.568217,46.1746151 49.267624,47.3443779 52.3129741,48.8888621 C52.5687218,49.0500374 52.8253779,49.2026348 53.0697691,49.3344645 C55.5472959,51.0933977 60.4632833,52.7114718 64.2000151,58.8212364 C67.4652265,64.2271569 75.8422107,62.1165273 75.8422107,62.1165273 C75.8422107,62.1165273 63.9251886,53.6731062 61.8010751,52.8523309" id="Fill-44" fill="#98480C"></path>
                                    <path d="M125.395518,76.7483595 C125.395518,73.1632238 118.142824,62.539195 118.142824,62.539195 L117.528666,61.3915543 C108.227266,60.8904209 83.8372088,59.8001171 68.6222688,71.0381472 C68.6222688,71.0381472 94.6644644,77.2797415 105.086067,79.271634 C115.507669,81.2630751 120.529499,81.7195128 121.351253,81.8238027 C121.549764,81.8490852 122.922079,81.463077 124.819972,80.6793223 C125.151581,79.2991738 125.395518,77.8950972 125.395518,76.7483595" id="Fill-46" fill="#FF5B0C"></path>
                                    <path d="M119.115755,61.477063 C119.115755,61.477063 115.908689,61.2115978 114.706266,61.4305615 C121.424752,69.7100984 115.260916,80.7783752 115.260916,80.7783752 C118.088676,81.4072751 121.65915,81.9332395 124.86031,82.2063797 C128.199112,81.1576113 129.136702,71.5692583 126.99896,66.1028406 C124.860765,60.636423 119.115755,61.477063 119.115755,61.477063" id="Fill-48" fill="#FFAD00"></path>
                                    <path d="M117.52853,61.3917349 C108.227129,60.8906015 83.8370726,59.8002977 68.6225868,71.0383277 C68.6225868,71.0383277 82.2939558,74.3146569 93.7894259,76.8776609 C93.7094763,75.3264046 94.0801514,74.0121709 95.5996467,73.2956855 C108.003634,65.2427873 115.014662,62.6238008 117.755659,61.8156667 L117.52853,61.3917349 Z" id="Fill-50" fill="#FF3500"></path>
                                    <path d="M103.482852,57.4252864 C91.9092492,58.1124261 73.9260568,58.5887286 67.026776,58.755773 C65.8874953,60.7390876 64.1422334,65.0312277 64.6005804,72.2335536 C64.7995457,75.3514162 64.9267382,78.0548279 65.0085047,80.3203122 C72.3302461,78.7053984 82.7745615,75.5414857 94.9314322,70.3743937 C115.107331,62.2736395 119.11571,61.4772436 119.11571,61.4772436 C119.11571,61.4772436 118.046839,56.5602668 103.482852,57.4252864" id="Fill-52" fill="#FF5B0C"></path>
                                    <path d="M58.4544606,69.7102339 C58.4544606,79.3094222 60.4504732,81.1550379 60.4890852,81.1902527 C63.607571,80.6931825 67.716795,79.7789526 72.602347,78.3784878 C72.5928076,78.3523025 70.4805047,72.4881384 70.7471546,67.7183413 C71.0142587,62.9381604 72.8862587,58.6058393 74.2254132,58.5679157 C68.3386751,58.7322514 64.1999243,58.8211913 64.1999243,58.8211913 C64.1999243,58.8211913 58.4544606,60.0162365 58.4544606,69.7102339" id="Fill-54" fill="#FFAD00"></path>
                                    <path d="M58.4544606,100.119056 C57.5568454,100.119056 53.2527445,100.713192 63.5357981,101.188592 C73.8179432,101.663991 87.9272177,101.663991 94.0251861,101.188592 C100.123155,100.713192 114.160202,99.9967069 114.706221,99.6436561 C115.25224,99.2910568 97.9477098,100.475718 88.3342334,100.594455 C78.7203028,100.713192 61.0260189,100.119056 58.4544606,100.119056" id="Fill-62" fill="#FFA500"></path>
                                    <path d="M57.6417918,111.652755 C56.7441767,111.652755 52.4400757,112.246891 62.7231293,112.722291 C73.0057287,113.197239 87.1145489,113.197239 93.2125174,112.722291 C99.3104858,112.246891 113.347533,111.530406 113.893552,111.177355 C114.439571,110.824304 97.135041,112.009417 87.5215647,112.128154 C77.9076341,112.246891 60.2133502,111.652755 57.6417918,111.652755" id="Fill-64" fill="#F9D400"></path>
                                    <path d="M56.428058,38.3995524 C56.428058,38.3995524 66.3395281,35.0293172 71.5330675,31.7760132 C75.0413073,29.5782496 79.3163356,37.3805811 75.2525375,37.9038367 C71.1891937,38.4275437 57.2484492,39.192788 55.8656858,39.8158187 C54.4824681,40.4393009 54.8899382,39.3313897 56.428058,38.3995524" id="Fill-66" fill="#98480C"></path>
                                    <path d="M100.650821,37.6208994 C100.71896,37.4990021 100.786191,37.2719119 100.851604,36.9698774 L96.2953893,32.4411662 L95.7639066,36.1581316 C94.9112631,34.9820482 94.4179382,34.3070982 94.4179382,34.3070982 C94.4179382,34.3070982 75.4090297,22.0523541 72.6026196,27.8442828 C72.1828845,28.7111082 71.7522473,29.2555829 70.6520328,30.0614596 C71.13173,33.4592346 70.1605249,36.8339845 71.8367394,37.9856885 C72.5585565,38.4814042 84.9139382,44.2290887 85.3763735,44.4087743 C87.0662158,45.0661169 92.4705312,44.6245778 92.7499003,44.4087743 C93.0292694,44.1929709 100.066645,38.6637987 100.650821,37.6208994" id="Fill-68" fill="#98480C"></path>
                                    <path d="M94.8013779,34.9808743 C94.5765199,31.5514964 91.9509047,24.3193734 90.8252517,24.2448806 C88.6502612,24.468359 85.0493527,34.7569444 84.3743243,37.3664501 C83.9868416,38.8635298 83.2682044,39.8739231 82.5477502,40.447292 C82.1248353,40.3050784 81.6914726,40.1583502 81.2531129,40.0089131 C84.7554473,41.2012495 87.9420719,42.233765 88.1601161,42.233765 C88.6452644,42.233765 91.0737312,42.233765 91.347195,42.0229277 C91.4721161,41.9258614 93.1801287,40.900118 95.0507659,39.7190684 C94.9299331,39.1447965 94.9739962,37.6079873 94.8013779,34.9808743" id="Fill-70" fill="#9F5622"></path>
                                    <path d="M80.923412,29.5382944 C77.1635129,27.0050874 71.185923,20.4379821 68.6438915,16.8727112 C68.6143647,17.5079317 68.6130019,18.2063582 68.6593363,18.9666363 C68.8928252,22.836199 68.9900366,23.3585516 69.8036139,24.3558523 C69.8036139,26.6366866 71.2231722,35.8986257 71.8296076,36.5022432 C72.1989199,36.8688381 77.9670965,38.9054263 82.547841,40.4476532 C83.2682953,39.8738328 83.9869325,38.8634395 84.3744151,37.3663598 C84.6301628,36.377637 85.3065539,34.2855178 86.1660114,32.0570542 C86.1637401,32.0629233 86.1610145,32.0687925 86.1587432,32.0751131 C85.4496454,32.0380924 84.1377464,31.7040034 80.923412,29.5382944" id="Fill-72" fill="#FFBC00"></path>
                                    <path d="M101.284331,23.576793 C99.7698322,25.3894513 96.1294032,29.3321525 93.9698574,30.8617381 C94.408217,32.3850031 94.7289237,33.8789225 94.801605,34.9809646 C94.9737691,37.6085291 94.9301603,39.1448868 95.0505388,39.7187072 C97.2673211,38.3182424 99.7125956,36.6988139 100.0224,36.1453098 C100.593403,35.1254355 101.090362,26.8490589 101.181214,25.4612353 C101.208469,25.04543 101.282059,23.7641537 101.352924,22.0616544 C101.330211,22.616513 101.306589,23.1271273 101.284331,23.576793" id="Fill-74" fill="#FFBC00"></path>
                                    <path d="M101.284331,23.576793 C101.306589,23.1271273 101.330211,22.616513 101.352924,22.0616544 C101.353832,22.0417897 101.354741,22.0219249 101.355195,22.0016087 C101.366551,21.7338861 101.377454,21.4557796 101.388356,21.1690952 C101.389264,21.1411039 101.390173,21.1122097 101.391081,21.083767 C101.401984,20.8052091 101.411523,20.5194276 101.421517,20.226874 C101.421971,20.2110725 101.422425,20.196174 101.423334,20.1808239 C101.432419,19.8891733 101.441504,19.5898476 101.449681,19.2878132 C101.451498,19.2282189 101.453315,19.1686247 101.454678,19.1094819 C101.463309,18.8051901 101.470577,18.4972865 101.477845,18.1857711 C101.477845,18.1735814 101.478299,18.1609402 101.478299,18.1487504 C101.484659,17.8516821 101.49011,17.551905 101.495107,17.251225 C101.496015,17.1848586 101.497378,17.1189438 101.498286,17.0525775 C101.502375,16.7482856 101.506009,16.4430909 101.508734,16.1378961 C101.509189,16.0792048 101.509189,16.0196105 101.509643,15.9604678 C101.51146,15.6832642 101.512368,15.4065122 101.512368,15.1311145 C101.512368,15.0814526 101.512823,15.0313393 101.512368,14.981226 C101.511914,14.6800944 101.510097,14.3816717 101.506917,14.0859578 C101.506009,14.0146253 101.5051,13.9441958 101.504192,13.8733147 C101.500558,13.5721832 101.495561,13.2737605 101.488293,12.9816584 C101.488293,12.9685657 101.487838,12.9568275 101.487384,12.9437348 C101.48057,12.6629195 101.471485,12.3879733 101.461491,12.1179933 C101.45922,12.0534329 101.456949,11.988421 101.454223,11.924312 C101.443321,11.6529776 101.430148,11.3870609 101.415611,11.1301735 C101.412886,11.082769 101.409706,11.0376219 101.40698,10.9906688 C101.392444,10.757258 101.376999,10.5306193 101.359283,10.3116556 C101.356103,10.2714746 101.352924,10.2303907 101.350198,10.1906612 C101.330211,9.95318718 101.307498,9.72699993 101.282968,9.51029358 C101.277517,9.46288906 101.272066,9.41638749 101.266615,9.36988592 C101.240268,9.15182516 101.212558,8.94143941 101.181214,8.74866105 C100.483018,4.43485029 96.9929489,0.724205531 88.1294536,0.121039525 C79.2664126,-0.482577951 74.5012391,1.26732582 72.25493,3.288564 C70.0086208,5.30980217 69.3794726,12.7757874 69.3794726,12.7757874 L69.3712959,12.7961036 C69.3694789,12.8015213 69.3653905,12.8114536 69.3631192,12.8191286 C69.3590309,12.8295125 69.3535798,12.8435081 69.3481287,12.8584067 C69.3426776,12.8733052 69.336318,12.8918156 69.3290498,12.9107774 C69.3245073,12.9252245 69.3186019,12.9423804 69.3126965,12.9586334 C69.3036114,12.9857217 69.2940719,13.0128099 69.283624,13.0448644 C69.2804442,13.0547968 69.2763558,13.067438 69.2727218,13.0778219 C69.2318385,13.2037824 69.1823243,13.369021 69.1282675,13.5712803 C69.1237249,13.5870818 69.1196366,13.6028833 69.1155483,13.6191363 C69.0982864,13.6845996 69.0805703,13.7541262 69.0628543,13.8268132 C69.0587659,13.844872 69.0542233,13.8638338 69.0496808,13.8823442 C69.0310562,13.9609002 69.0119773,14.0417136 68.9933527,14.1283962 L68.9933527,14.1288476 C68.932482,14.4065027 68.8725199,14.7261445 68.8184631,15.0819041 C68.8143748,15.1089924 68.8107407,15.1356292 68.8066524,15.163169 C68.7916618,15.2652016 68.7771256,15.3712974 68.7634978,15.4791991 C68.7585009,15.5180256 68.7539584,15.5577551 68.7494158,15.5970332 C68.7362423,15.7062893 68.723523,15.8173513 68.7121666,15.9324765 C68.7089868,15.965434 68.7062612,15.9997458 68.7030814,16.0327032 C68.6790057,16.2936538 68.658564,16.5667941 68.6449363,16.8552844 C68.644482,16.8611535 68.6440278,16.8665712 68.6440278,16.8728918 C71.1860593,20.4377112 77.163195,27.0048166 80.9235483,29.538475 C84.1378826,31.7037326 85.4497817,32.038273 86.1588795,32.0752937 C86.1611508,32.0689731 86.1638763,32.0626525 86.1661476,32.0567833 C86.2442801,31.8540726 86.3237754,31.6504589 86.4046334,31.4463938 C86.4255293,31.3940231 86.4468795,31.3416524 86.4677754,31.2888302 C86.5336429,31.1235916 86.6008732,30.9588045 86.6681035,30.7935659 C86.6912707,30.7366805 86.7148921,30.6802465 86.7380593,30.6233611 C86.8107407,30.4481902 86.8838763,30.2734707 86.9579205,30.0992026 C86.9747281,30.0590217 86.9915356,30.0188407 87.0083432,29.9791112 C87.101012,29.7628563 87.194135,29.5484073 87.2886208,29.3357642 C87.2954347,29.3204142 87.3027028,29.3055156 87.3090625,29.2901656 C87.3940088,29.1005475 87.4785009,28.9140898 87.5643558,28.7294379 C87.5907028,28.672101 87.6175041,28.6161186 87.6443054,28.5592331 C87.7115356,28.4152137 87.7796744,28.2725487 87.847359,28.1325925 C87.8773401,28.0707409 87.9073211,28.0088893 87.9373022,27.9479406 C88.0081666,27.8039212 88.0794852,27.6635136 88.1508038,27.5244603 C88.1748795,27.4775073 88.1985009,27.4296513 88.2225767,27.3831497 C88.3184252,27.1994008 88.4138196,27.0201666 88.5092139,26.8477045 C88.5178448,26.8314515 88.52693,26.8170044 88.5360151,26.8012029 C88.6209615,26.6486055 88.7059079,26.5014258 88.7899457,26.3592122 C88.8199268,26.3095504 88.8489994,26.2621458 88.8780719,26.2138384 C88.9434852,26.1068396 89.0088984,26.0030012 89.0734032,25.9027745 C89.1056555,25.8531126 89.1379079,25.8039022 89.1701603,25.7555948 C89.2360278,25.657174 89.3009868,25.5641708 89.3659457,25.474328 C89.3936555,25.4355014 89.4218196,25.3953204 89.4490751,25.3582998 C89.5403811,25.235951 89.6316871,25.1203743 89.721176,25.0160843 C89.7279899,25.0079578 89.7343495,25.0020887 89.7411634,24.9944137 C89.8238385,24.8991532 89.9051508,24.8129221 89.9860088,24.7343661 C90.0132644,24.7072778 90.0409741,24.6847042 90.0686839,24.6594218 C90.1286461,24.6052452 90.1881539,24.5551319 90.2472076,24.5104362 C90.2771886,24.4883141 90.3067155,24.4670949 90.3362423,24.4472302 C90.3948416,24.4079521 90.4525325,24.3758977 90.5093148,24.3479064 C90.5356618,24.3352652 90.5615546,24.3199152 90.5869931,24.3099828 C90.6683054,24.2770254 90.7482549,24.2530974 90.8254789,24.2449709 C90.8681792,24.2476797 90.9140593,24.2643842 90.9608479,24.2874092 C90.97493,24.2941813 90.989012,24.3032107 91.003094,24.3113372 C91.0394347,24.3330079 91.0771382,24.3600962 91.1157502,24.3930536 C91.1298322,24.4043404 91.1430057,24.4147242 91.1570877,24.4278169 C91.2084189,24.4752214 91.2620215,24.5298495 91.3165325,24.5948614 C91.3228921,24.6029879 91.3306145,24.6129202 91.3374284,24.6210467 C91.3860341,24.680641 91.4360025,24.7474588 91.487788,24.8192427 C91.5041413,24.8427193 91.5204946,24.8666472 91.5368479,24.8914782 C91.5840909,24.9601019 91.631788,25.0341432 91.6794852,25.1122478 C91.6926587,25.1330155 91.7053779,25.1524287 91.7180972,25.1736479 C91.7794221,25.276132 91.8421098,25.3849366 91.905706,25.5009648 C91.9143369,25.5176692 91.9243306,25.5361796 91.9329615,25.5533355 C91.9883811,25.6553681 92.0442549,25.7632698 92.1001287,25.8747832 C92.1151192,25.9050318 92.130564,25.934829 92.1455546,25.965529 C92.2050625,26.0860719 92.2650246,26.2106781 92.3245325,26.3407019 C92.3299836,26.3519887 92.3354347,26.3623725 92.3408858,26.3736593 C92.4090246,26.5226449 92.4780719,26.6774997 92.5471192,26.8368691 C92.5539331,26.8526706 92.560747,26.8689236 92.5680151,26.8851766 C92.6293401,27.0287446 92.6911192,27.1768272 92.7533527,27.3280702 C92.7628921,27.3519982 92.7728858,27.3759262 92.7824252,27.3998542 C92.9209741,27.7425211 93.0586145,28.100538 93.1926208,28.4698418 C93.1948921,28.4770653 93.1976177,28.4842889 93.2003432,28.4915124 C93.2662107,28.6734554 93.3311697,28.8572044 93.3952202,29.0432107 C93.3984,29.0526916 93.4015798,29.0621725 93.4047596,29.0716534 C93.5383117,29.4594674 93.6664126,29.8545051 93.7886082,30.2513486 C93.789971,30.2567662 93.791788,30.2621839 93.7931508,30.2671501 C93.8540215,30.4653461 93.9126208,30.6639936 93.9698574,30.8617381 C96.1294032,29.3321525 99.7698322,25.3894513 101.284331,23.576793" id="Fill-76" fill="#FF5B0C"></path>
                                    <path d="M76.5795634,17.6095579 C76.3233615,16.9960081 83.7668442,16.9255785 84.5740618,16.9255785 C85.3808252,16.9255785 87.8251912,16.3418258 87.9001438,17.3111352 C87.9750965,18.2804447 86.0608505,22.3811609 85.067841,22.6791321 C84.0743773,22.9775548 78.3866044,21.9337525 76.5795634,17.6095579" id="Fill-78" fill="#1F191A"></path>
                                    <path d="M93.0207293,17.6783622 C93.2596694,18.4779183 94.2763003,21.8589889 95.0262814,22.0084259 C95.7762625,22.1574116 99.9772467,17.9700128 99.8273413,16.0377146 C99.377171,15.7456125 96.2309754,16.6142437 95.6313539,16.6720321 C95.0312782,16.7302719 92.7154675,16.6562306 93.0207293,17.6783622" id="Fill-80" fill="#1F191A"></path>
                                    <path d="M90.2463445,3.88644778 C89.3260164,2.03947763 88.7586473,0.820052943 88.1017893,0.119820552 C86.2702183,-0.00433412698 84.6226221,-0.022844461 83.1272025,0.0362983135 C84.629436,0.0679013228 88.4938145,1.4367631 88.4938145,8.93254542 C88.4938145,20.6021823 89.0384707,24.051425 89.4945464,25.3015498 C89.9687924,24.6803249 90.4216883,24.2866417 90.82507,24.2451063 C90.9772467,24.2550387 91.1575874,24.4004126 91.3547356,24.6446587 C91.2475306,23.8351702 91.1430511,22.4735319 91.1430511,20.2238492 C91.1430511,15.6021348 91.6895243,6.78263785 90.2463445,3.88644778" id="Fill-82" fill="#FFAD00"></path>
                                    <path d="M88.8951066,28.1863176 C88.799258,28.1497484 88.7565577,28.0418467 88.8024379,27.950198 C89.0795356,27.394888 90.0534662,25.6458872 91.3322044,25.6458872 C92.5864126,25.6458872 92.5391697,27.3285217 92.4842044,27.9172406 C92.4728479,28.0404923 92.3901729,28.1411705 92.2716114,28.1777397 C91.9295546,28.2824811 91.19093,28.4924154 90.6140215,28.537111 C90.0239394,28.5822582 89.2385262,28.3167929 88.8951066,28.1863176" id="Fill-84" fill="#98480C"></path>
                                    <path d="M92.3055899,30.0210529 C92.2083785,29.313597 91.4951924,27.5099681 92.4845678,27.9171954 C95.6139558,29.2043409 96.393918,29.8905776 95.9787256,31.1109053 C95.7579558,31.7605728 94.4365174,31.7203919 94.6613754,33.8233464 C94.7544984,34.6969439 92.4187003,30.8458915 92.3055899,30.0210529" id="Fill-86" fill="#9F5622"></path>
                                    <path d="M86.4166713,32.2026086 C86.4166713,32.2026086 88.0647218,30.3168119 89.5873968,29.8951375 C91.1105262,29.4730116 92.6336555,29.69649 93.4077123,29.7213209 C94.1813148,29.7461519 95.1547912,29.7077768 95.4795861,29.6400561 C95.8039268,29.5723353 96.2786271,30.4161357 95.9788164,31.1109504 C95.6794599,31.8057651 90.3364694,30.7876968 89.6873338,30.8251689 C89.0381981,30.862641 87.6154599,32.5249593 86.4166713,32.2026086" id="Fill-88" fill="#98480C"></path>
                                    <path d="M90.1616252,32.2440537 C90.1616252,32.2440537 91.2545716,31.7808439 92.2062435,32.1280255 C93.1579155,32.4756586 93.1824454,32.9966568 93.3073666,33.3686694 C93.4322877,33.7411334 92.4833413,33.8404572 91.8591899,33.3686694 C91.2350385,32.8973331 89.0591394,32.4851395 90.1616252,32.2440537" id="Fill-90" fill="#98480C"></path>
                                </g>
                            </g>
                        </g>
                    </g>
                </g>
            </g>
        </g>
    </g>
</svg>