<svg width="131" height="131" viewBox="0 0 131 131" fill="none" xmlns="http://www.w3.org/2000/svg">
<circle cx="65.3487" cy="65.3486" r="65" transform="rotate(0.308156 65.3487 65.3486)" fill="#F2F2F2"/>
<g clip-path="url(#clip0_13382_85017)">
<path d="M90.0818 39.918C91.3025 41.1387 91.3025 43.1211 90.0818 44.3418L46.3318 88.0918C45.1111 89.3125 43.1287 89.3125 41.908 88.0918C40.6873 86.8711 40.6873 84.8887 41.908 83.668L85.658 39.918C86.8787 38.6973 88.8611 38.6973 90.0818 39.918Z" fill="#1A1A1A"/>
<path opacity="0.4" d="M79.1055 46.4805C75.4531 43.7461 70.9121 42.125 66 42.125C53.9199 42.125 44.125 51.9199 44.125 64C44.125 68.9121 45.7461 73.4531 48.4805 77.1055L52.9629 72.623C51.332 70.1426 50.375 67.1836 50.375 64C50.375 55.3672 57.3672 48.375 66 48.375C69.1836 48.375 72.1426 49.332 74.6133 50.9629L79.0957 46.4805H79.1055ZM57.3867 77.0371L52.9043 81.5195C56.5566 84.2539 61.0879 85.875 66 85.875C78.0801 85.875 87.875 76.0801 87.875 64C87.875 59.0879 86.2539 54.5469 83.5195 50.9043L79.0371 55.3867C80.668 57.8574 81.625 60.8164 81.625 64C81.625 72.6328 74.6328 79.625 66 79.625C62.8164 79.625 59.8574 78.668 57.3867 77.0371Z" fill="#1A1A1A"/>
</g>
<defs>
<clipPath id="clip0_13382_85017">
<rect width="50" height="50" fill="white" transform="translate(41 39)"/>
</clipPath>
</defs>
</svg>
