<svg width="30" height="30" viewBox="0 0 30 30" fill="none" xmlns="http://www.w3.org/2000/svg">
<path d="M0 15C0 10.8107 0 8.71598 0.589225 7.03207C1.6446 4.01598 4.01598 1.6446 7.03207 0.589225C8.71598 0 10.8107 0 15 0C19.1893 0 21.284 0 22.9679 0.589225C25.984 1.6446 28.3554 4.01598 29.4108 7.03207C30 8.71598 30 10.8107 30 15C30 19.1893 30 21.284 29.4108 22.9679C28.3554 25.984 25.984 28.3554 22.9679 29.4108C21.284 30 19.1893 30 15 30C10.8107 30 8.71598 30 7.03207 29.4108C4.01598 28.3554 1.6446 25.984 0.589225 22.9679C0 21.284 0 19.1893 0 15Z" fill="#282A2C"/>
<g clip-path="url(#clip0_13382_84996)">
<path d="M14.8437 8.82033L20.3125 10.4844V15.7891C20.3125 18.0703 17.5547 21.2578 14.8437 21.2578C12.1328 21.2578 9.375 18.0781 9.375 15.7891V10.4844L14.8437 8.82033ZM14.8437 7.1875L7.8125 9.32812V15.7891C7.8125 19 11.3203 22.8203 14.8437 22.8203C18.3672 22.8203 21.875 19.0078 21.875 15.7891V9.32812L14.8437 7.1875Z" fill="white"/>
<path opacity="0.5" d="M14.8436 22.1719V15H9.19514C9.19514 15 8.03111 20.1641 14.8436 22.1719Z" fill="white"/>
<path opacity="0.5" d="M14.8438 8.47656V15H21.2656V10.3437L14.8438 8.47656Z" fill="white"/>
</g>
<defs>
<clipPath id="clip0_13382_84996">
<rect width="14.0625" height="15.625" fill="white" transform="translate(7.8125 7.1875)"/>
</clipPath>
</defs>
</svg>
