<?xml version="1.0" encoding="UTF-8"?>
<svg width="191px" height="110px" viewBox="0 0 191 110" version="1.1" xmlns="http://www.w3.org/2000/svg" xmlns:xlink="http://www.w3.org/1999/xlink">
    <!-- Generator: sketchtool 52.3 (67297) - http://www.bohemiancoding.com/sketch -->
    <title>1B54E1B1-40CA-455E-A489-A42915DC8A10</title>
    <desc>Created with sketchtool.</desc>
    <defs>
        <rect id="path-1" x="0" y="0" width="192" height="110"></rect>
    </defs>
    <g id="Onboarding" stroke="none" stroke-width="1" fill="none" fill-rule="evenodd">
        <g id="Onboarding---1" transform="translate(-585.000000, -904.000000)">
            <g id="Modal" transform="translate(380.000000, 60.000000)">
                <g id="Graphic-/-Modal-/-Requirements" transform="translate(204.000000, 844.000000)">
                    <g id="graphic-defender-modal-requirements">
                        <mask id="mask-2" fill="white">
                            <use xlink:href="#path-1"></use>
                        </mask>
                        <g id="Mask"></g>
                        <g id="graphic" mask="url(#mask-2)">
                            <path d="M30.1301476,68.2414731 C30.2120676,68.2539887 30.2934187,68.267642 30.3747698,68.2815798 C30.2934187,68.267642 30.2120676,68.2539887 30.1301476,68.2414731" id="Fill-23" fill="#FF5B0C"></path>
                            <path d="M30.6640498,68.334101 C30.7419876,68.3491765 30.8202098,68.3636832 30.8978631,68.3798965 C30.8202098,68.3636832 30.7419876,68.3491765 30.6640498,68.334101" id="Fill-25" fill="#FF5B0C"></path>
                            <path d="M40.0370916,90.969452 C39.9858916,91.0200831 39.9338382,91.0698609 39.8815004,91.1193543 C39.9341227,91.0698609 39.9858916,91.0200831 40.0370916,90.969452" id="Fill-27" fill="#FF5B0C"></path>
                            <path d="M40.3723662,90.6201037 C40.3220196,90.6752859 40.2693973,90.7290459 40.217344,90.7833748 C40.2693973,90.7290459 40.3220196,90.6752859 40.3723662,90.6201037" id="Fill-29" fill="#FF5B0C"></path>
                            <path d="M31.3690453,68.4879396 C31.4370276,68.5050062 31.5044409,68.5243485 31.5721387,68.5422685 C31.5044409,68.5243485 31.4370276,68.5050062 31.3690453,68.4879396" id="Fill-31" fill="#FF5B0C"></path>
                            <path d="M29.604608,68.1691539 C29.6791324,68.1779717 29.7528036,68.1887806 29.8267591,68.1987361 C29.7528036,68.1887806 29.678848,68.1779717 29.604608,68.1691539" id="Fill-33" fill="#FF5B0C"></path>
                            <path d="M40.5943182,75.0499346 C39.4187093,73.8023637 38.3500516,72.4667793 37.1337671,71.3855512 C37.1960604,71.3291541 37.257216,71.2664908 37.3158116,71.1918644 C37.5024071,70.9543132 37.303296,70.4290801 36.9659449,70.6600801 C36.7901582,70.7805647 36.6052693,70.8158841 36.4178204,70.7962306 C35.7849316,70.3168557 35.104256,69.9146708 34.3445049,69.6324007 C33.9448604,69.4258964 33.529856,69.2461665 33.1179804,69.070709 C33.1057493,69.065582 33.0938027,69.0615943 33.0815716,69.0564673 L33.0821404,69.0564673 C32.8816071,69.3219322 32.6842027,69.5728705 32.5533582,69.79618 C32.0043804,70.7344217 31.6144071,71.8407152 31.2318293,72.8607041 C30.6455893,74.4235857 30.5309582,76.0870136 30.7030471,77.7296486 C30.8421404,79.0620999 30.8549404,80.3609408 31.2543004,81.6535154 C31.6670293,82.9879605 32.0581404,84.4391874 32.774656,85.6474513 C33.5637049,86.9790481 34.8326116,87.8284217 36.1362204,88.5983268 C37.3581938,89.3200949 38.5810204,90.079746 39.9466382,90.5021541 C40.0857316,90.545164 40.2285227,90.5833317 40.3724516,90.6197904 C41.9073138,88.9253157 42.7489849,86.7286794 43.124736,84.4354846 C43.6782649,81.0596375 42.981376,77.5838138 40.5943182,75.0499346" id="Fill-35" fill="#FF5B0C"></path>
                            <path d="M31.8795947,68.628391 C31.9569636,68.6511466 32.0343324,68.6756088 32.1114169,68.700071 C32.0343324,68.6756088 31.9569636,68.6511466 31.8795947,68.628391" id="Fill-37" fill="#FF5B0C"></path>
                            <path d="M32.3984782,68.7961295 C32.4727182,68.8220139 32.5466738,68.847045 32.6206293,68.8743517 C32.5466738,68.847045 32.4727182,68.8220139 32.3984782,68.7961295" id="Fill-39" fill="#FF5B0C"></path>
                            <path d="M40.2173724,90.7836551 C40.1579236,90.8462329 40.0984747,90.9082418 40.0370347,90.9691129 C40.0981902,90.9082418 40.1579236,90.8462329 40.2173724,90.7836551" id="Fill-41" fill="#FFBC00"></path>
                            <polygon id="Fill-43" fill="#FFBC00" points="40.3723662 90.6198189 40.3723662 90.6198189 40.3723662 90.6201033"></polygon>
                            <path d="M29.826816,68.1986342 C29.9280782,68.2122875 30.0293404,68.2262253 30.1300338,68.2413008 C30.0293404,68.2262253 29.9280782,68.2122875 29.826816,68.1986342" id="Fill-45" fill="#FFBC00"></path>
                            <path d="M32.1115591,68.7001691 C32.2074169,68.7306046 32.3029902,68.7630313 32.3985636,68.7960268 C32.3029902,68.7630313 32.2074169,68.7306046 32.1115591,68.7001691" id="Fill-47" fill="#FFBC00"></path>
                            <path d="M30.3748836,68.2815207 C30.4715947,68.2980185 30.5680213,68.315654 30.6641636,68.3341429 C30.5680213,68.315654 30.4715947,68.2980185 30.3748836,68.2815207" id="Fill-49" fill="#FFBC00"></path>
                            <path d="M30.89792,68.3800162 C31.0555022,68.4130117 31.2125156,68.4485673 31.36896,68.4878206 C31.2125156,68.4485673 31.0555022,68.4130117 30.89792,68.3800162" id="Fill-51" fill="#FFBC00"></path>
                            <polygon id="Fill-53" fill="#FFBC00" points="29.6043236 68.1691539 29.6043236 68.1691539 29.604608 68.1691539"></polygon>
                            <path d="M32.6207147,68.8745726 C32.7748836,68.931746 32.9284836,68.9917637 33.0815147,69.0563326 C32.9284836,68.9917637 32.7748836,68.931746 32.6207147,68.8745726" id="Fill-55" fill="#FFBC00"></path>
                            <path d="M31.5721102,68.5424567 C31.6747947,68.5700478 31.7774791,68.5979234 31.8795947,68.6283589 C31.7774791,68.5979234 31.6747947,68.5700478 31.5721102,68.5424567" id="Fill-57" fill="#FFBC00"></path>
                            <path d="M13.5546027,79.9299592 C13.8103182,79.9587274 14.1075627,79.9792354 14.2628693,80.067249 C16.3162738,81.2313636 21.4027093,81.482302 21.9300693,81.4968285 C22.3652693,81.5087915 22.8058738,81.4290381 23.250176,81.4381528 C24.0907093,81.4552428 24.9329493,81.4646423 25.7749049,81.4589456 C25.7569849,81.3250739 25.7379271,81.1912021 25.7234204,81.0581848 C25.4935893,78.9415868 25.6901404,76.9919012 26.3051093,75.1447557 C26.4791893,73.1831072 27.2093582,71.4743908 28.2987804,69.8044117 C28.6873316,69.2082551 29.1285049,68.6807434 29.6043804,68.1691824 C29.2232249,68.1241787 28.8383716,68.0914228 28.4492516,68.0697755 C26.8299093,67.9806226 24.9724871,67.9586904 23.4583893,68.6203587 C22.7859627,68.9143069 22.2679893,69.4053599 21.634816,69.7668137 C20.6344249,70.3384746 19.5376071,70.8158556 18.4965404,71.3123205 C15.6984604,72.6470504 12.1696427,73.3155547 10.8867982,76.4800554 C9.96491378,78.7541663 9.51150933,81.9428778 11.4559716,83.7883143 C12.4711538,84.7516213 13.773056,85.183429 15.0516338,85.6665067 C15.0979982,85.6838815 15.142656,85.7060985 15.1890204,85.7246127 C14.0321849,84.244048 13.588736,82.2462255 12.9908338,80.5061774 C12.8022471,79.9587274 13.1515449,79.8852403 13.5546027,79.9299592" id="Fill-59" fill="#FF5B0C"></path>
                            <path d="M26.3051662,75.1448127 C25.6901973,76.9916734 25.4933618,78.9416438 25.7234773,81.0582418 C25.737984,81.1912591 25.7570418,81.3251308 25.7749618,81.4590026 C27.5598507,81.4470396 29.342464,81.3558928 31.1043129,81.0850162 C30.850304,79.979862 30.8218596,78.8670174 30.7029618,77.7296771 C30.5308729,76.087042 30.6457884,74.4236142 31.231744,72.8607326 C31.6143218,71.8407436 32.0042951,70.7344502 32.5535573,69.7962085 C32.6844018,69.572899 32.8815218,69.3219607 33.0820551,69.0564958 L33.0814862,69.0564958 C32.9284551,68.9918386 32.7748551,68.9320236 32.6206862,68.8744872 C32.5467307,68.8471432 32.4727751,68.8220778 32.3985351,68.796158 C32.3029618,68.7631173 32.2073884,68.7306462 32.1115307,68.7001691 C32.0344462,68.6756734 31.9570773,68.6511777 31.8797084,68.628391 C31.7773084,68.5981986 31.6749084,68.5700001 31.572224,68.5423713 C31.5042418,68.5244268 31.4371129,68.5047732 31.3691307,68.4879681 C31.2126862,68.448661 31.0553884,68.4130568 30.8978062,68.3800162 C30.8201529,68.3634958 30.7422151,68.3492541 30.6639929,68.334158 C30.5678507,68.3156438 30.471424,68.2979841 30.3749973,68.2814637 C30.2933618,68.2675069 30.2120107,68.2541197 30.1300907,68.2415871 C30.0293973,68.226206 29.9281351,68.2122492 29.8268729,68.1985772 C29.7526329,68.1888928 29.6789618,68.1780692 29.6047218,68.1692393 L29.6044373,68.1692393 C29.1285618,68.6808004 28.6873884,69.2083121 28.2988373,69.8044687 C27.2094151,71.4744477 26.4789618,73.1828793 26.3051662,75.1448127" id="Fill-61" fill="#FFBC00"></path>
                            <path d="M26.6551467,91.6222905 C28.6994489,92.3531734 30.9422933,92.6721869 33.1040711,92.6511092 C33.1623822,92.6505396 33.2189867,92.6482609 33.2764444,92.6471216 C30.8487111,90.7820316 28.3185778,88.7135704 27.0385778,85.9090994 C26.4085333,84.5290809 25.9793067,82.9747443 25.7747911,81.4588602 C24.9328356,81.4645568 24.0905956,81.4554422 23.2500622,81.4380673 C21.408,81.4001845 19.50336,81.2258663 17.6701156,80.8661216 C16.7041422,80.6764224 15.74784,80.4357381 14.8094578,80.1375174 C14.4385422,80.0198811 12.5751467,79.2975433 12.9904356,80.506092 C13.5886222,82.2461401 14.0320711,84.2436777 15.1889067,85.7245273 C16.8514844,86.3856259 18.3183644,87.5534434 19.8546489,88.4609231 C20.1732267,88.5845408 20.4827022,88.7061647 20.7725511,88.8292128 C22.7730489,89.6797258 24.6008889,90.8879896 26.6551467,91.6222905" id="Fill-63" fill="#E43500"></path>
                            <path d="M27.0384924,85.9092133 C28.3184924,88.7136843 30.8489102,90.7818607 33.2766436,92.6469507 C35.3977458,92.5996683 37.1032747,92.0636116 38.8571591,90.8129075 C39.0653724,90.6642244 39.285248,90.5095598 39.4963058,90.3477744 C38.3096036,89.9097004 37.2221724,89.2394871 36.1361636,88.5983268 C34.8325547,87.8284217 33.7744213,86.5671788 32.9848036,85.2358668 C32.2685724,84.027603 31.6669724,82.9879605 31.2542436,81.6535154 C31.1959324,81.4643859 31.1475769,81.2749716 31.1043413,81.0852725 C29.3424924,81.3558644 27.5598791,81.4470111 25.7749902,81.4589741 C25.9792213,82.9745734 26.408448,84.52891 27.0384924,85.9092133" id="Fill-65" fill="#FFAD00"></path>
                            <path d="M98.6445938,47.3982947 C98.6445938,47.3982947 84.4232249,50.4106942 79.2267093,52.8756436 C74.0304782,55.3405931 71.8425316,52.6019186 67.4669227,56.9835129 C63.0910293,61.3653921 60.0827449,66.569016 58.715136,83.2745031 C58.715136,89.2995869 55.433216,91.7645364 62.2704071,99.980275 C66.6463004,108.470023 62.5440427,122.437121 62.5440427,122.437121 C62.5440427,122.437121 94.542336,128.46249 95.6363093,127.914755 C96.7302827,127.366735 116.421518,124.628345 117.789127,118.602977 C119.156452,112.578178 118.882816,103.266969 124.352967,99.980275 C129.822549,96.6938656 145.685163,85.1917176 145.685163,69.3076905 C145.685163,53.4233785 122.164736,54.5188483 118.882816,53.6971036 C115.600896,52.8756436 110.131314,47.3982947 98.6445938,47.3982947" id="Fill-67" fill="#9F5622"></path>
                            <path d="M143.060167,52.1158502 C142.152789,50.747225 141.0207,49.6369439 139.733874,48.6309118 C138.302834,47.5123705 136.755456,46.2018514 134.931314,45.8492275 C133.868629,45.6435777 132.969785,45.2428169 131.870407,45.2348416 C130.714994,45.2262965 129.558443,45.4074507 128.433749,45.6589587 C126.358443,46.1229525 124.258674,46.6350832 122.418603,47.732262 C120.442283,48.9106184 118.933305,50.3917528 117.151829,51.8107935 C116.470585,52.3534014 115.967118,52.9407281 115.465927,53.6468305 C114.936576,54.3930943 114.190478,55.1658477 113.99734,56.0821572 C113.929643,56.4045888 114.369678,56.5817552 114.469803,56.2419488 C114.530958,56.0351597 114.633358,55.8334975 114.758798,55.6366776 C114.694514,55.7605801 114.628238,55.8839131 114.571349,56.0086702 C112.946887,59.5639624 112.841643,63.4827022 114.303687,67.0792953 C115.603314,70.276267 117.784149,72.902717 120.897394,74.42914 C124.361074,76.1270327 128.266496,76.9174457 132.108487,76.4169932 C135.706994,75.9487269 139.420416,74.2855838 141.805483,71.4811128 C144.078478,68.8085197 145.333163,65.0236517 145.554745,61.5472583 C145.764949,58.2446134 144.888576,54.8736085 143.060167,52.1158502" id="Fill-69" fill="#9F5622"></path>
                            <path d="M168.091534,51.6891411 C167.660885,49.6309339 166.311481,47.904273 164.87589,46.4279808 C163.286699,44.7941756 161.491854,43.1729031 159.584654,41.9247625 C157.742876,40.7196318 155.494059,39.3886047 153.348779,38.8274826 C151.315285,38.2951287 148.736796,38.5506244 146.764459,39.2424851 C145.430983,39.7098969 144.078165,40.099834 142.741845,40.5561374 C141.703623,40.9104703 141.012708,41.5721386 140.113294,42.1682952 C139.103516,42.837654 138.235108,43.354342 137.374948,44.221945 C136.544085,45.0602101 135.500743,45.553257 134.585116,46.2807218 C132.470556,47.9609549 130.840121,50.2111398 129.66053,52.6228254 C129.60165,52.7430252 129.538503,52.8646491 129.473081,52.9868427 C129.502663,52.8304691 129.531676,52.6752348 129.561828,52.517437 C129.705756,51.7560769 128.689152,51.3293963 128.442539,52.1383236 C127.075214,56.6281546 126.382876,61.5785615 128.321365,66.0259524 C128.757703,67.0271423 129.377792,67.9286404 129.82693,68.920146 C130.375623,70.1329672 130.62309,71.4554493 131.024156,72.7189709 C131.294094,73.569199 131.638556,74.3570486 132.142023,75.0964764 C132.656014,75.8510005 133.176263,76.9151386 133.949668,77.441511 C134.645988,77.915474 135.473152,77.8089462 136.269312,77.7722027 C137.586859,77.7115332 138.904121,77.8952508 140.195783,78.1433408 C142.294414,78.5460954 144.163783,79.9793778 146.361685,79.6079549 C148.734805,79.2069092 151.036245,78.6714222 153.28933,77.8465443 C155.409579,77.0703729 157.666361,76.6741694 159.666005,75.5741423 C160.398165,75.1713877 160.810894,74.6302039 161.271694,73.9511608 C161.875285,73.0619105 162.518414,72.3173556 162.921472,71.305342 C163.35525,70.2158538 163.523356,69.154564 163.783623,68.0240597 C164.029952,66.9547946 164.682752,65.9279697 165.082112,64.8960178 C165.48773,63.8489697 166.116921,62.9335147 166.545863,61.9015628 C167.019748,60.7630831 167.30533,59.4961435 167.647232,58.3109512 C168.268743,56.1578945 168.556032,53.9079943 168.091534,51.6891411" id="Fill-71" fill="#9F5622"></path>
                            <path d="M82.7068302,57.6144762 C82.4667591,57.4931371 82.2261191,57.3709435 81.9840569,57.2501741 C81.3082169,56.2375909 80.4326969,55.3417894 79.5000036,54.5858412 C77.6425813,53.0807808 75.8409102,51.788491 73.653248,51.0692863 C71.5298702,50.0142629 69.1103858,49.6778745 66.7938702,50.0715144 C65.6623502,50.0971494 64.552448,50.2711827 63.5199147,50.6952999 C62.3215502,51.1880619 61.0600391,51.4540964 59.880448,51.9964195 C58.5242169,52.6202049 57.2388124,53.448216 56.1058702,54.4212074 C56.0586524,54.4619386 56.0125724,54.5046636 55.9656391,54.5456797 C55.807488,54.6664491 55.6553102,54.7849398 55.5108124,54.9002974 C53.8166613,56.2481297 52.5497458,57.9500101 51.6033991,59.8931445 C51.4495147,60.2090249 51.3124124,60.528893 51.1832747,60.8513245 C50.9955413,61.2443948 50.8220302,61.6405983 50.6675769,62.0390804 C49.9405369,63.9149941 49.340928,66.3030385 49.3761991,68.5295822 C49.1415324,70.437967 49.2490524,72.4423406 49.6680391,74.2547364 C50.9056569,79.6081827 55.8501547,82.8666784 61.1550436,83.2375317 C66.8348302,83.6343048 71.2977636,79.980745 75.2273636,76.3585169 C77.3899947,74.3652518 79.3176747,72.2811248 80.754688,69.6899941 C82.1385102,67.1948523 83.3374436,64.0292123 83.2876658,61.1390064 C83.2691769,60.0483788 82.9668124,59.0315231 82.4849636,58.0981236 C82.8715236,58.2715872 83.1474347,58.4527413 83.1522702,58.6205083 C83.1599502,58.8660348 83.4822258,58.8782826 83.5061191,58.6330409 C83.5590258,58.0872999 83.153408,57.8403492 82.7068302,57.6144762" id="Fill-73" fill="#9F5622"></path>
                            <path d="M64.3412764,70.2864925 C64.233472,68.7139265 62.9620053,67.8560079 61.9596231,66.7787674 C60.6409387,65.3620054 59.100672,64.0352508 57.4946987,62.9520289 C56.7602631,62.4567033 55.9532942,62.0895529 55.0934187,61.8616861 C54.7028764,61.7594308 50.9519076,61.131088 51.7366898,62.5216454 C47.8389476,61.5799857 43.630592,61.9810313 39.9803164,63.6421805 C35.3726009,65.7394099 32.2792676,69.5590276 30.3052231,74.1249092 C28.8713387,77.4403716 30.3285476,81.5878328 32.1470009,84.4524037 C32.8655076,85.5840473 33.8348942,86.453929 34.8321564,87.3229561 C35.3814187,87.8017613 35.7984142,88.4694111 36.4051342,88.8770079 C37.1956053,89.4073679 38.2605653,89.7488834 39.153152,90.0576429 C40.8416142,90.6415517 42.7886364,90.9144222 44.5513387,91.1796022 C46.1524764,91.4200017 47.5488142,90.4344777 49.0148409,89.9457033 C50.7334542,89.3729031 52.2876587,88.58249 53.955072,87.8906293 C55.6597476,87.1836725 57.3735253,87.1241423 58.6942009,85.6857329 C60.925952,83.255818 61.7818453,79.6911263 63.0447787,76.7368328 C63.8682453,74.8113581 64.4866276,72.4025208 64.3412764,70.2864925" id="Fill-75" fill="#9F5622"></path>
                            <path d="M23.2451698,72.6541713 C23.0540231,71.9939271 22.3323876,71.7523883 21.8010453,71.3912194 C20.6322631,70.5973883 19.5297564,69.6468988 18.5046187,68.6784647 C17.2234809,67.4684919 15.9420587,65.6512539 14.1088142,65.320847 C12.0878364,64.9565449 9.66522311,65.7871195 7.89341867,66.7262157 C7.28726756,67.0475079 6.47546311,67.3414561 6.15802311,67.9971429 C5.84968533,68.6343155 5.90742756,69.5255597 5.89604978,70.2034635 C5.85764978,72.4983673 5.75553422,74.6810467 5.99389867,76.9790837 C6.12872533,78.282482 5.74586311,81.3125412 7.69999644,81.2481688 C9.53580089,81.1872144 11.1778987,80.7480011 11.718912,78.8176842 C11.7900231,78.5641824 11.836672,78.3072625 11.8656853,78.0483488 C13.741312,78.8114179 15.8100764,77.3929469 17.3241742,76.4680924 C18.3086364,75.8662391 19.314432,75.289736 20.3139698,74.7155116 C21.2264676,74.1914179 22.2928498,73.9589937 23.082752,73.2338075 C23.2278187,73.1002206 23.2997831,72.8435856 23.2451698,72.6541713" id="Fill-77" fill="#FF5B0C"></path>
                            <path d="M7.55655111,72.3220554 C7.77244444,72.2673673 7.74030222,71.8495165 7.50336,71.8745819 C7.25048889,71.8614795 6.99448889,71.8500862 6.73763556,71.8398322 C6.57521778,71.7828655 6.40256,71.7401404 6.21710222,71.7170689 C6.10787556,71.7031121 6.03136,71.7489703 5.98072889,71.8181848 C4.94364444,71.80081 3.89717333,71.8415412 2.89507556,72.0400702 C1.82215111,72.252556 1.88302222,73.0170492 1.67480889,74.0099789 C1.49304889,74.8781515 0.909368889,76.3615646 1.34001778,77.2203377 C1.71178667,77.9626139 2.70307556,78.9882995 3.51175111,79.1725868 C4.75363556,79.4548568 6.44608,79.3631404 7.69877333,79.1680295 C8.82858667,78.9920023 8.93155556,78.525445 8.98503111,77.4094672 C9.05784889,75.8893106 8.83256889,73.460535 7.55655111,72.3220554" id="Fill-79" fill="#FF5B0C"></path>
                            <path d="M10.7904284,78.1463885 C9.68194844,77.919661 8.545024,77.8678213 7.41805511,77.9521321 C6.84660622,77.9948571 6.27800178,78.0717621 5.71337956,78.1720236 C5.18431289,78.2660186 4.64017067,78.3776734 4.12760178,78.542592 C3.69695289,78.6810211 3.61076622,78.9587338 3.59369956,79.4107646 C3.563264,80.234788 3.40767289,81.4134292 3.67049956,82.2038423 C3.860224,82.7749335 4.68084622,83.2585809 5.23409067,83.4012825 C6.24756622,83.66219 7.52955733,83.2038928 8.49809067,82.9683355 C9.19441067,82.7988596 9.87451733,82.5755501 10.5696996,82.4015168 C11.0797084,82.2739113 11.6804551,82.2309015 12.0843662,81.851788 C13.2741973,80.7349557 12.1913173,78.4332159 10.7904284,78.1463885" id="Fill-81" fill="#B2270D"></path>
                            <path d="M13.8648747,82.2266859 C13.6623502,81.5821076 13.4353636,80.2459535 12.7185636,79.9913123 C12.2967324,79.8417747 11.7500302,80.1251841 11.3464036,80.2257303 C10.5869369,80.4148598 9.83571911,80.6333271 9.07710578,80.8264443 C7.99849244,81.100739 6.31515022,81.2477131 5.41431467,81.9800201 C5.05449244,82.2725441 4.83120356,82.7923654 5.33893689,83.0672297 C5.374208,83.4884985 5.71155911,84.6566009 5.77527467,84.79503 C5.904128,85.075591 6.05147022,85.3094393 6.32595911,85.4643888 C7.24443022,85.9833555 8.65470578,85.7452346 9.63603911,85.6119326 C10.8318436,85.4487229 12.846848,85.3709634 13.8526436,84.5671631 C14.5580658,84.0031927 14.0841813,82.9248129 13.8648747,82.2266859" id="Fill-83" fill="#B2270D"></path>
                            <path d="M12.7396124,83.3087401 C11.3535147,83.1953763 9.96770133,83.5542666 8.64361244,83.921417 C7.91714133,84.1227943 7.42875022,84.2202074 7.50725689,85.0544848 C7.46032356,85.0727142 7.42419911,85.1148695 7.427328,85.1809509 C7.52318578,87.0796513 8.25136356,89.1199139 10.3639324,89.2039398 C11.5534791,89.2512222 12.9515236,88.9097068 14.0955591,88.6317092 C15.0481636,88.4007092 15.4421191,88.2953208 15.7066524,87.2759016 C16.264448,85.1265477 14.8095147,83.478216 12.7396124,83.3087401" id="Fill-85" fill="#B2270D"></path>
                            <path d="M103.134606,23.9760055 C99.8404551,24.120701 96.3141973,24.3938564 93.517824,26.3472448 C92.3112107,27.190352 91.3267484,28.1405567 90.3835307,29.2665037 C89.3023573,30.5570845 89.0733796,31.7869957 88.7906418,33.4438724 C88.4498773,35.44141 88.4384996,37.4215727 88.4325262,39.4390487 C88.4276907,41.1580191 88.6805618,42.3181461 89.7150862,43.6844926 C90.0089173,44.0727207 90.0225707,43.8533989 90.0461796,44.2530203 C90.0700729,44.6546356 89.5478329,45.4723927 89.406464,45.8611905 C89.0366862,46.8771917 88.6239573,47.888066 88.2917262,48.9168847 C87.9873707,49.8602534 87.7825707,50.8389414 87.7060551,51.8281683 C87.6827307,52.1309464 87.614464,54.3939488 87.724544,54.3705925 C87.3778062,54.4437947 87.4255929,55.0316911 87.7842773,55.0413755 C87.8337707,55.0425148 87.8829796,55.043939 87.9324729,55.0453631 C88.0431218,55.0482115 88.1742507,54.9835543 88.2220373,54.8781658 C88.4382151,54.4002152 88.5502862,53.8496319 88.6327751,53.2896492 C89.537024,53.216447 90.4839396,53.1734371 91.2434062,52.6373804 C92.0682951,52.0551806 92.324864,51.108394 92.8391396,50.3316529 C93.3704818,51.2602102 93.735424,52.294156 94.8077796,52.8037232 C96.5494329,53.6317343 98.7669618,53.666484 100.626375,54.0663903 C101.997113,54.3609081 103.768917,54.7049871 105.17066,54.4514852 C106.597717,54.1937109 108.232704,53.3033212 109.477433,52.5806985 C110.759708,51.8361436 106.603122,23.8236196 103.134606,23.9760055" id="Fill-87" fill="#9F5622"></path>
                            <path d="M152.066532,52.6017762 C152.066532,52.6017762 147.234958,51.871463 143.314745,53.5146677 C139.394816,55.1578724 134.836594,59.6308983 133.651598,60.2700647 C132.466318,60.9089464 128.546389,60.8177996 130.734336,52.145188 C128.911047,52.5106295 126.358443,64.4693656 124.444132,69.4901264 C122.529536,74.5108872 118.700629,80.9925592 116.148309,82.2703224 C114.598087,87.6562398 110.222478,93.4987454 108.67254,94.7767935 C107.122887,96.0551264 107.031865,102.262789 107.031865,102.262789 L119.732025,105.071532 C119.732025,105.071532 125.264185,99.1586726 127.908096,97.789193 C130.551723,96.420283 138.027492,91.4903841 139.394816,88.5691313 C140.169358,86.9145333 142.114105,82.623516 143.65494,79.2137737 C144.384825,79.591463 145.060096,79.8253113 145.593998,79.8056578 C148.055296,79.7145111 158.8127,76.2455234 159.906389,75.8803668 C161.000363,75.5149254 164.19126,70.3118711 164.19126,68.2120783 C154.527829,58.9920166 152.066532,52.6017762 152.066532,52.6017762" id="Fill-89" fill="#98480C"></path>
                            <path d="M142.862108,78.3503009 C142.607815,78.2648508 142.374855,78.1506326 142.151566,78.0235968 C142.123691,77.9874229 142.090695,77.9540974 142.048313,77.9281776 C140.50378,76.9680037 139.834482,75.329926 138.51722,74.1547028 C138.002091,73.6946967 136.62282,72.6755623 135.912277,73.4229655 C135.839175,73.5001554 135.786268,73.5898779 135.743033,73.6850123 C134.395335,72.1734007 133.651228,70.4860469 132.829753,68.6064303 C132.302962,67.4004451 131.798073,66.1286634 131.195051,64.9591369 C130.879033,64.3464599 130.389788,63.3472639 129.587371,63.3455549 C129.469042,63.34527 129.463922,63.5304118 129.580544,63.5423748 C130.743637,63.6622898 131.299157,66.3365919 131.641628,67.2238483 C132.224171,68.7340358 132.782535,70.3128681 133.496491,71.7655191 C134.046606,72.8846301 134.805788,73.9123095 135.695815,74.8340308 C135.863068,75.6392552 136.305095,76.5131245 136.506197,76.9819605 C137.345024,78.9364883 137.608988,81.2769655 137.326251,83.392709 C137.071388,85.298815 135.049273,86.897016 133.7889,88.2459877 C132.332544,89.804312 130.572117,90.9445006 128.75082,92.0257287 C127.065486,93.0260641 125.400917,94.0164303 123.801771,95.1517768 C122.361344,96.1748989 120.278357,97.5301369 118.677504,96.0971393 C118.444828,95.8886412 118.069362,96.1660691 118.086144,96.4380851 C118.118855,96.9604698 118.266482,97.3464192 118.514233,97.8067102 C118.718748,98.1861085 119.088811,98.6142133 119.02538,99.0773527 C118.952846,99.6042947 118.641095,100.024139 118.240028,100.336887 C117.915762,100.496109 117.595193,100.663875 117.28202,100.85215 C117.101397,100.961242 117.066411,101.207908 117.139513,101.389916 C116.784811,101.596136 116.424988,101.791816 116.087922,102.027658 C115.950535,102.123932 115.972153,102.376864 116.164153,102.387403 C117.272348,102.448927 118.374855,102.916339 119.404544,103.297162 C119.793948,103.441002 120.104562,103.630132 120.50506,103.498254 C120.929735,103.358401 121.435762,102.341545 121.78506,101.969552 C122.376988,101.339501 122.977166,100.688941 123.624562,100.115856 C124.277077,99.5382133 125.006677,99.049439 125.656633,98.4678089 C126.23946,97.9462787 126.678357,96.9949346 127.34026,96.5958829 C128.056491,96.1635055 129.012508,95.9202577 129.771691,95.5288964 C130.477682,95.1645943 131.117113,94.6880678 131.760811,94.2198015 C134.265344,92.3960123 137.03754,90.377397 138.902926,87.8677287 C139.979833,86.4190654 140.610731,84.592143 141.323833,82.944381 C141.893291,81.6287349 142.70794,80.0348064 142.995228,78.6291529 C143.017984,78.517783 142.980722,78.3904624 142.862108,78.3503009" id="Fill-91" fill="#944308"></path>
                            <path d="M115.920725,54.0771285 C115.537294,52.6523911 113.302414,51.5398313 112.164636,50.8482555 C110.175516,49.6391371 107.835676,49.2375218 105.60933,48.6661457 C102.907676,47.9725761 100.084565,47.5245329 97.3362631,47.0497154 C96.0391964,46.8255514 94.6946276,46.7403862 93.5739164,45.9644996 C92.5991253,45.2888745 92.4790898,44.2859756 91.7972764,43.4363171 C91.5682987,43.1506291 91.0927076,43.3944466 91.0969742,43.7265625 L91.0969742,43.7331137 C91.0102187,43.7772629 90.9408142,43.8604343 90.913792,43.9888942 C90.6293476,45.3458412 90.1472142,46.6116414 89.9759787,48.0104589 C89.907712,48.5678782 90.0439609,50.0342012 89.6997831,50.4677179 C89.5038009,50.7149534 88.7707876,50.871327 88.4630187,51.0385243 C87.1858631,51.7332333 85.8737209,52.0112308 84.5098098,52.4752247 C83.361792,52.8654466 82.2501831,53.2787401 81.070592,53.5678461 C80.7727787,53.6410483 80.6706631,54.0435181 80.8896853,54.2545798 C81.2256142,54.5781507 81.6406187,54.5941014 82.0854898,54.6587586 C83.2426098,54.8268104 84.3823787,54.966094 85.5497387,55.036163 C87.9450453,55.1800039 90.2900053,55.7884084 92.6958364,55.7878387 C94.9489209,55.7872691 96.9258098,55.0717672 99.1271253,54.6767031 C101.664939,54.2215391 104.230343,54.2654035 106.796601,54.2505921 C108.159659,54.2429016 109.271552,54.4639324 110.563783,54.8823529 C111.607979,55.2204503 112.670663,55.5189559 113.764636,55.6417191 C114.915783,55.7707487 116.344832,55.6533973 115.920725,54.0771285" id="Fill-93" fill="#98480C"></path>
                            <path d="M96.4484836,56.0528763 C96.3429547,56.1460169 96.2357191,56.2377333 96.1290524,56.3300194 C96.433408,55.9882191 96.784128,55.7509528 97.1342791,55.4980206 C97.1371236,55.4985903 97.139968,55.4988751 97.142528,55.4994448 C96.9229369,55.7050946 96.6390613,55.8853942 96.4484836,56.0528763 M110.14875,50.5464744 C109.298261,50.2673375 108.160768,50.4883683 107.275861,50.4596001 C106.031132,50.4197234 104.797497,50.2414176 103.551061,50.2365755 C102.250866,50.2317333 100.961764,50.1699244 99.6627058,50.1403017 C98.6640213,50.117515 97.4568391,50.0067148 96.5016747,50.3721562 C95.4108302,50.7894374 95.171328,51.5499429 95.3963236,52.3033276 C94.8959858,52.0822968 94.3933724,51.9136753 93.9137991,51.8991488 C93.5204124,51.8871858 93.3912747,52.5750588 93.7934791,52.6519639 C94.3928036,52.7661821 94.8766436,53.2640711 95.3698702,53.5862179 C95.9379058,53.9570711 96.5252836,54.2718122 97.1240391,54.5879774 C98.1668124,55.1388455 99.1199858,55.801938 100.135168,56.3938221 C101.062457,56.9344361 101.967275,57.3904546 103.061817,57.2924719 C103.921977,57.215282 104.724395,56.9207641 105.547577,56.6857764 C106.685924,56.3607814 107.849017,56.0571488 108.970866,55.6791747 C109.662919,55.4458961 110.455666,55.2217321 110.857301,54.5549367 C111.494457,53.4976346 111.52091,50.9967962 110.14875,50.5464744 M97.9287324,54.8392006 C97.882368,54.8263831 97.8342969,54.8169836 97.787648,54.8047358 C97.7816747,54.5036667 97.375488,54.23279 97.0782436,54.5022425 C97.0290347,54.5469614 96.9749902,54.5839898 96.9220836,54.623012 C95.8938169,54.4580933 94.8189013,54.42961 93.8008747,54.3603954 C93.0431147,54.3085557 92.3129458,54.2142758 91.5529102,54.1983252 C91.1663502,54.1903498 90.5792569,54.0607506 90.2163058,54.2683942 C89.495808,54.6805483 89.8436836,55.8728615 89.7091413,56.5356692 C89.3587058,58.2611908 88.8979058,59.8442956 88.2240569,61.4809491 C86.8783502,64.7482746 85.707008,68.0375323 84.557568,71.3703695 C84.0043236,72.9751217 83.615488,74.5174953 83.3387236,76.1963042 C83.1797191,77.1627444 82.7991324,78.3681599 82.9481813,79.3439996 C82.9672391,79.4690416 83.1097458,79.6114583 83.2349013,79.6305422 C84.4264391,79.8148295 85.9120924,79.803721 87.1087502,79.6698492 C87.6773547,79.6060465 87.9327858,79.4713202 88.0926436,78.907065 C88.4371058,77.6931044 87.8889813,76.0917703 87.8710613,74.8615742 C87.8485902,73.3123646 87.8539947,71.717012 87.9211236,70.1695113 C87.941888,69.6932697 88.0030436,69.220446 88.0915058,68.7510403 C89.2949902,66.1963683 90.5539413,63.6963843 92.365568,61.4644287 C93.4848569,60.0858344 94.633728,58.7112277 95.9814258,57.5516704 C96.674048,56.9555138 97.8587591,56.2266248 98.215168,55.3447801 C98.2987947,55.1382758 98.123008,54.8936038 97.9287324,54.8392006" id="Fill-95" fill="#98480C"></path>
                            <path d="M109.197369,52.0816132 C105.587769,51.9605589 101.876053,51.4717846 98.4291556,50.3774541 C96.6306133,49.8063629 94.9677511,49.1424159 93.3085867,48.2318031 C92.5895111,47.8375935 91.5117511,46.8139017 90.6951111,46.7683284 C90.4664178,46.7557957 90.3222044,47.0591434 90.4365511,47.24457 C90.3278933,47.3177723 90.30144,47.5194344 90.4570311,47.5513358 C90.4348444,47.5467784 90.9573689,48.6838339 90.9653333,48.6975059 C91.2122311,49.1085207 91.4830222,49.4688351 91.8101333,49.8197501 C92.5610667,50.6244048 93.4095644,51.3265195 94.2774044,51.9970176 C96.0548978,53.3710546 98.1125689,54.6505269 100.120462,55.6539954 C100.9152,56.0516231 101.371164,56.2988586 102.231893,56.1091594 C103.095467,55.9186058 103.925191,55.5360744 104.73472,55.1891471 C105.66912,54.788956 106.611484,54.3958857 107.541049,53.9862951 C108.16768,53.710861 109.0176,53.4112162 109.4656,52.8683234 C109.684907,52.6028586 109.606684,52.0952852 109.197369,52.0816132" id="Fill-97" fill="#944308"></path>
                            <path d="M96.9660018,101.855989 C95.2798151,101.707876 93.6596196,100.865053 92.0072818,100.514138 C90.4237796,100.177465 88.6920818,100.062108 87.1583573,99.5380139 C85.462784,98.9589473 84.436224,97.4732556 83.3587484,96.1598882 C82.9434596,95.6540238 82.3586418,94.9789683 81.6281884,95.3270349 C80.6374684,95.7990041 80.9935929,97.5498758 80.5160107,98.3234837 C79.7866951,99.5041187 78.5823573,99.4861742 77.3598151,99.4830411 C76.6444373,99.4810472 75.9978951,99.6257427 75.299584,99.7692988 C73.7118151,100.095433 72.1422507,100.412168 70.5684196,100.793845 C69.4716018,101.060164 68.4857173,101.132512 67.6906951,100.180598 C67.6161707,100.092015 67.560704,100.003147 67.5123484,99.915988 L67.5123484,99.7063506 C67.5123484,99.7023629 67.5112107,99.6989449 67.5112107,99.6949572 C67.5089351,98.942427 67.5006862,98.1893271 67.514624,97.4373666 C67.5311218,96.5569461 67.7820018,95.732353 67.829504,94.8695922 C67.8892373,93.7823826 66.8922596,93.882644 66.4371484,92.9885515 C66.0650951,92.2582383 66.1524196,90.9015762 65.2879929,90.4962581 C64.6405973,90.1931952 64.0853618,90.6788364 63.6774684,91.1422605 C62.3078684,92.696882 61.6872107,94.493612 61.9474773,96.5703333 C62.1218418,97.9643086 62.7225884,99.2867908 63.2820907,100.561991 C63.6441884,101.386584 64.0728462,102.266719 64.7904996,102.837241 C64.6300729,103.340827 64.3570062,103.80539 64.3154773,104.34458 C64.2620018,105.035301 64.4864284,105.742258 64.6491307,106.403072 C64.8877796,107.373215 65.0137884,108.19439 65.0078151,109.187035 C65.0052551,109.613431 64.9312996,110.249464 65.2598329,110.610348 C65.8247396,111.230431 67.1038862,110.722857 67.7279573,110.51265 C68.4828729,110.258009 69.5941973,110.13667 69.8590151,109.258813 C70.0097707,108.757791 69.7796551,108.064506 69.7349973,107.558926 C69.652224,106.624672 69.6124018,105.41356 70.059264,104.562762 C70.9157262,102.933515 73.889024,102.59912 75.4759396,102.063918 C77.1678151,101.493396 78.9396196,100.920311 80.7367396,100.842836 C81.7772373,100.798402 82.7582862,100.736878 83.3644373,101.74405 C83.8229618,102.506549 83.9899307,103.48951 84.2092373,104.342301 C84.3087929,104.729105 84.9061262,104.738505 85.0005618,104.342301 C85.1205973,103.838716 85.1857351,103.346808 85.1988196,102.828981 C85.2210062,101.958529 85.211904,101.598215 86.2393173,101.599639 C87.3884729,101.601063 88.5538418,101.918653 89.7140907,101.945427 C92.1657173,102.002963 94.5101084,102.646118 96.9660018,102.677734 C97.5013262,102.684285 97.4839751,101.901278 96.9660018,101.855989" id="Fill-99" fill="#98480C"></path>
                            <g id="Group-103" transform="translate(159.857778, 0.279422)">
                                <polygon id="Clip-102" points="20.6246829 0.00541183724 0.19077309 0.00541183724 0.19077309 13.0237328 20.6246829 13.0237328 20.6246829 0.00541183724"></polygon>
                                <path d="M19.5398827,0.745523305 C18.8091449,0.347895684 17.7453227,0.376094205 16.9488782,0.366409864 C15.7883449,0.352168187 14.6403271,0.318842663 13.481216,0.274123798 C10.823936,0.170729223 8.18656711,-0.00757657213 5.52502044,0.00609543773 C4.63442489,0.0109376079 3.61355378,-0.0206789149 2.77188267,0.322830333 C2.03118933,0.624753884 1.87730489,1.15881677 1.70066489,1.8953963 C1.44039822,2.98118175 1.06862933,4.06297953 0.866673778,5.15759482 C0.641393778,6.37468853 0.577678222,7.6219746 0.423224889,8.84932232 C0.203633778,10.5947822 -0.315192889,11.9565714 1.602816,12.5940289 C3.21760711,13.1303704 5.10091378,13.2716478 6.61842489,12.3875245 C7.36224711,11.9542927 7.63986489,11.3678205 8.06966044,10.656876 C8.27218489,10.3216269 8.47584711,10.0316663 8.64167822,9.67533958 C8.79442489,9.34721134 8.95086933,8.58129396 9.16420267,8.18907818 C9.19094044,8.18366634 9.22109156,8.1774 9.25636267,8.16913983 C9.513216,8.11188829 9.81330489,8.11131862 10.0758471,8.0805566 C10.6913849,8.00849371 11.3003804,7.9489635 11.9107982,7.84585376 C13.1871004,7.63023477 14.4833138,7.50376868 15.764736,7.30922737 C17.4332871,7.05629519 20.382976,6.6589524 20.544256,4.50902885 C20.5485227,4.45348631 20.546816,4.40164661 20.5411271,4.35265524 C20.7521849,3.13214353 20.613376,1.32914723 19.5398827,0.745523305" id="Fill-101" fill="#FF5B0C"></path>
                            </g>
                            <path d="M166.346553,4.10997707 C165.535886,3.11533835 164.636188,1.02750851 163.1585,0.917847596 C162.366322,0.859171887 161.986304,1.24796967 161.806535,1.79570456 C161.382144,2.43572552 161.215175,3.34605351 161.538873,3.92796843 C161.877931,4.53751221 162.581931,5.10717928 163.056384,5.62386732 C163.611335,6.22828409 164.150642,6.88710407 164.784668,7.40977361 C165.518535,8.01447522 166.661433,8.94189322 167.200171,7.82164291 C167.893646,6.37981554 167.2673,5.23991171 166.346553,4.10997707" id="Fill-104" fill="#E43500"></path>
                            <path d="M185.510713,25.4029646 C185.139797,25.2668142 184.339371,25.3534036 184.074837,25.0708487 C183.83306,24.8122199 184.120917,24.0468721 184.149362,23.692824 C184.169273,23.4458734 183.868046,23.2012014 183.630251,23.2966206 C183.248811,23.4501459 183.007886,23.6763037 182.8833,24.0118376 C181.668437,24.2419831 179.679886,24.0594048 178.721877,23.4985676 C177.994553,23.0733111 177.426517,21.9610361 176.657664,21.7049708 C176.568348,21.4372273 176.229006,21.2577821 175.995762,21.5292285 C175.465273,22.1456083 175.17258,23.0137809 175.044864,23.8104603 C174.850873,25.0173 174.663708,26.3298129 174.584064,27.5540275 C174.531442,28.3638092 174.517504,29.1214665 175.111708,29.7124961 C175.725255,30.3223247 176.77514,30.7626773 177.567317,31.09166 C179.357326,31.8347908 181.395086,31.256009 182.753877,29.8945047 C183.137593,29.5096946 183.143851,29.0701964 183.20074,28.5221767 C183.286642,27.6981533 183.220082,26.620628 184.192028,26.2825306 C184.581717,26.1469498 185.093717,26.2671496 185.510713,26.1950867 C185.947051,26.1198906 185.850624,25.5274369 185.510713,25.4029646" id="Fill-106" fill="#E43500"></path>
                            <path d="M183.66848,30.1522221 C182.293191,30.8722813 181.272036,30.2974872 179.973547,29.8984354 C178.98368,29.5948028 178.148267,29.3159508 177.238044,28.7921419 C175.972551,28.0638226 175.636338,27.0335797 174.845867,25.919026 C174.069333,24.8235562 172.530204,23.7289409 171.113956,23.9075316 C170.474524,23.9878546 169.315129,24.7218707 169.948871,25.4590199 C167.233564,30.1451012 173.423929,35.2065932 177.733262,36.3117473 C180.186027,36.9409446 183.767467,38.9179742 185.614649,36.991645 C187.171129,35.3680938 186.439538,30.1263022 186.477938,28.0179644 C186.485902,27.5721999 184.584676,29.6722776 183.66848,30.1522221" id="Fill-108" fill="#E43500"></path>
                            <path d="M177.129045,3.2743894 C174.340636,3.45582836 171.419392,4.01894427 168.772068,4.90278274 C167.612388,5.28958668 166.494236,5.98657435 166.256156,7.0740688 C166.071836,6.85958915 165.892352,6.64340049 165.72197,6.5186434 C165.318912,6.22327102 164.951979,6.11076178 164.50085,5.9130873 C164.281259,5.8170984 164.067356,6.13839063 164.188814,6.32381726 C164.792405,7.24439926 165.598521,7.99692947 166.252459,8.87222293 C166.908388,9.7500799 167.351836,10.8367199 168.06949,11.6598888 C168.46373,12.1119196 168.946148,11.5399739 168.789703,11.0970577 C168.44837,10.131472 167.748636,8.84003674 167.712796,7.79270382 C168.083143,6.4175275 170.188032,5.71712182 171.406308,5.07596153 C172.125952,4.69713292 173.137721,4.46670259 173.85765,4.2468111 C175.029845,3.98447941 175.988139,3.91355586 177.168868,3.71844488 C177.397845,3.68939186 177.366556,3.25900838 177.129045,3.2743894" id="Fill-110" fill="#E43500"></path>
                            <path d="M186.442382,25.7678933 C186.007182,25.2566171 185.469582,25.2899427 184.847787,25.236394 C183.959467,25.1597737 183.702329,24.2679599 183.99616,23.5308107 C184.208924,22.9970327 184.508444,22.4692361 184.919467,22.0679057 C185.115449,21.8762127 184.903253,21.5606171 184.655218,21.6662904 C183.370667,22.2128859 183.323449,23.8652053 182.359182,24.7103064 C182.286364,24.774394 182.329031,24.9290586 182.432853,24.9267799 C182.928071,24.9173804 183.267982,24.4243335 183.543324,24.0472139 C183.538489,24.2332102 183.5584,24.4155037 183.610453,24.5898218 C183.719396,24.9541239 183.856498,25.2563323 184.188444,25.4551461 C184.719218,25.7738748 185.387093,25.5964236 185.919004,25.8886628 C185.89312,25.9991782 185.941476,26.1233656 186.083413,26.1250746 C186.152533,26.1259291 186.221938,26.1264988 186.291058,26.1273533 C186.47168,26.1296319 186.553031,25.8977774 186.442382,25.7678933" id="Fill-112" fill="#E43500"></path>
                            <path d="M185.550165,25.8761016 C184.530716,26.2016663 183.465188,26.3175936 182.534201,26.8835578 C182.48613,26.9131805 182.524245,26.9994851 182.576014,26.9684382 C183.500743,26.4056072 184.559161,26.2928131 185.570361,25.969527 C185.624405,25.9527218 185.606201,25.8584419 185.550165,25.8761016" id="Fill-114" fill="#E43500"></path>
                            <path d="M156.188501,12.141229 C156.03035,11.9125076 156.016128,11.6142869 155.915435,11.3613547 C155.807915,11.0907629 155.636964,10.8557752 155.494172,10.6036975 C155.221675,10.1226137 154.941212,9.61617965 154.710244,9.11458779 C154.652501,8.98926104 154.48923,9.09863711 154.538439,9.2157037 C154.778226,9.78480111 155.070919,10.366716 155.368732,10.9076149 C155.617906,11.3613547 155.694137,11.918774 156.006741,12.3255163 C156.113692,12.4647999 156.276964,12.2691192 156.188501,12.141229" id="Fill-116" fill="#E43500"></path>
                            <path d="M154.796828,9.80915438 C154.648633,9.46507546 154.45066,8.99054279 154.185557,8.71938126 C154.14858,8.6814984 154.087424,8.72935043 154.114162,8.7749238 C154.252402,9.01162047 154.303033,9.36282022 154.369593,9.62913958 C154.438144,9.90371911 154.626446,10.4181285 154.561308,10.6898597 C154.569273,10.726888 154.577522,10.7642012 154.585486,10.8009448 C154.482802,10.8092049 154.383246,10.8294281 154.285966,10.8624688 C154.130375,10.8966488 153.977913,10.9402284 153.823175,10.9769719 C153.498624,11.0538769 153.205077,11.1105588 152.889344,11.2267709 C152.780971,11.2663628 152.769308,11.4224515 152.881095,11.4680249 C153.359531,11.6625662 153.763157,11.6899102 154.268331,11.5457845 C154.563015,11.4617586 155.019548,11.2996883 155.101468,10.9650089 C155.18282,10.6323233 154.92682,10.1105083 154.796828,9.80915438" id="Fill-118" fill="#E43500"></path>
                            <path d="M155.710976,12.6535875 C155.51414,12.4738576 155.307065,12.3357133 155.08918,12.2129501 C155.072683,12.1969994 155.056469,12.1819032 155.04054,12.1659525 C155.152043,12.1400327 155.254443,12.0822115 155.339776,11.9722657 C155.61654,11.6167935 155.523527,10.9838933 154.990478,10.9924383 C154.767758,10.9961412 154.660807,11.1610598 154.66166,11.3319599 C154.545892,11.2909439 154.43126,11.2527762 154.312647,11.2191658 C154.099029,11.1582115 153.885127,11.1049476 153.662976,11.0969723 C153.411527,11.0878576 153.303723,11.2895197 153.319652,11.4914667 C153.148416,11.4350697 152.978318,11.3755395 152.811349,11.3023372 C152.763563,11.2815444 152.729998,11.36614 152.774087,11.3892115 C152.971776,11.4917515 153.170603,11.5780561 153.366869,11.6606578 C153.390763,11.7113582 153.420629,11.7592102 153.462727,11.7962386 C153.836772,12.1263607 154.259172,12.4228724 154.661945,12.7176751 C154.920505,12.9070894 155.156878,13.1472041 155.478869,13.2050253 C155.744256,13.2525925 155.891883,12.8182213 155.710976,12.6535875" id="Fill-120" fill="#E43500"></path>
                            <path d="M90.7134862,47.3982947 C90.7134862,47.3982947 91.3167929,47.8113033 92.0810951,48.7677744 C93.174784,50.1369692 99.738624,53.9711134 101.926571,54.2448385 C104.114517,54.5188483 110.678073,51.7801739 110.678073,51.7801739 C110.678073,51.7801739 111.22506,51.5064488 111.22506,50.4106942 C111.22506,49.3152244 112.866304,39.4562811 112.866304,39.4562811 C112.866304,39.4562811 106.849451,33.7052072 106.5761,33.7052072 C106.302464,33.7052072 98.6446507,35.074402 98.6446507,35.074402 C98.6446507,35.074402 92.9014329,41.3734957 92.3544462,43.5641504 C91.8074596,45.75509 90.7134862,47.3982947 90.7134862,47.3982947" id="Fill-126" fill="#9F5622"></path>
                            <path d="M111.888498,45.013355 C112.194844,43.7358766 112.481849,42.646958 111.983787,41.384006 C111.508196,40.177736 110.888107,38.6325141 109.947733,37.7093686 C109.044622,36.8232514 107.883236,35.6793599 106.750009,35.1208014 C105.330062,34.4206805 103.603484,34.8316953 102.12096,35.0607015 C99.2813511,35.4993451 96.3996444,36.5711737 94.9179733,39.2312342 C93.9832889,40.9097582 93.2204089,42.8377964 92.6737067,44.6766818 C92.2120533,46.2293094 91.6818489,47.9853081 92.2569956,49.5874968 C92.2934044,49.6888975 92.4330667,49.6154105 92.4140089,49.5219851 C92.0240356,47.6064795 93.0537244,45.2622995 93.7725156,43.5290874 C94.4398222,41.9192083 95.0277689,39.9541417 96.2343822,38.6493192 C97.3960533,37.3932033 98.8731733,36.5976633 100.516978,36.1518988 C102.032782,35.7405991 104.293547,35.2455584 105.808782,35.598752 C107.161031,35.9143476 108.8256,37.4777989 109.694862,38.5342465 C110.613333,39.650794 111.641884,41.587662 111.658382,43.0460097 C111.678293,44.7695375 110.953813,46.5417718 110.558151,48.1952305 C110.290489,49.3140566 110.376391,51.4172674 109.451378,52.1848938 C109.207324,52.3874105 109.477262,52.7970011 109.761991,52.6574327 C110.87872,52.1094129 111.338667,50.8504487 111.523556,49.691461 C111.546596,49.5473353 111.460409,49.4140332 111.351467,49.3713081 C111.474916,48.954027 111.597227,48.5370307 111.700196,48.1206041 C111.724089,48.0249 111.699911,47.9471404 111.655538,47.8893192 C111.671467,47.843461 111.688533,47.797318 111.704462,47.751175 C111.725227,47.6913599 111.717547,47.6329691 111.693084,47.5831232 C111.724658,47.4914068 111.758507,47.4005449 111.796338,47.3125313 C111.831893,47.2293599 111.812267,47.1447644 111.769031,47.082101 C111.796907,46.9869666 111.824213,46.8918322 111.860907,46.7992613 C111.925476,46.6038655 111.657813,46.4315412 111.538916,46.585921 C111.527822,46.5904783 111.517013,46.5973143 111.506489,46.60472 C111.632782,46.0754993 111.760782,45.5457089 111.888498,45.013355" id="Fill-128" fill="#98480C"></path>
                            <path d="M111.192092,22.88008 C111.191808,22.881789 111.191524,22.8837829 111.191524,22.8854919 C111.419932,23.0643673 111.644075,23.2478001 111.859115,23.4403476 C115.518208,24.9938297 116.933319,28.7923698 116.736484,32.6381922 C116.539079,36.5019592 114.238777,39.5565141 112.803186,42.999297 C112.685141,43.2824216 112.577906,43.570958 112.475506,43.8612033 C112.806599,43.9084857 113.17467,43.9392477 113.561515,43.921588 C113.73531,43.468133 113.874688,43.144847 113.960021,43.0163871 C114.507008,42.195212 117.515292,35.3480985 117.515292,34.8006485 C117.515292,34.2714277 120.833052,26.8404055 111.192092,22.88008" id="Fill-130" fill="#FF5B0C"></path>
                            <path d="M90.7009991,33.353808 C90.7539058,33.1814837 90.8133547,33.0117229 90.8773547,32.843956 C90.7485013,31.5300189 91.5600213,30.4898068 92.1243591,29.2653074 C92.9805369,27.4079079 93.6913636,25.3901471 95.0609636,23.8306835 C96.2809458,22.44212 97.6277902,21.7052556 99.3592036,21.1276132 C100.076572,20.888353 100.83291,20.7091927 101.607168,20.5884233 C96.2840747,20.2198487 93.4706347,21.8838462 92.9014613,23.0243197 C92.0811236,24.6675244 89.6195413,30.1448734 89.6195413,30.1448734 C89.6195413,30.1448734 89.3459058,30.4185984 88.7989191,30.9663333 C88.4365369,31.3297809 87.8352213,32.6553962 87.4699947,33.9867081 C88.425728,34.1259917 89.7449813,34.2319498 90.5041636,34.2498943 C90.5360213,33.9724665 90.6022969,33.6773789 90.7009991,33.353808" id="Fill-132" fill="#FF5B0C"></path>
                            <path d="M90.4484978,43.2356519 C90.67264,41.3919244 91.1709867,39.6709602 91.7134222,37.9309121 C91.6218311,37.3381735 91.4616889,36.8120859 91.21536,36.4947814 C90.6205867,35.728864 90.4106667,35.0663412 90.5039644,34.2497234 C89.7447822,34.2320637 88.4258133,34.1261057 87.4697956,33.9865372 C87.2840533,34.6635866 87.1583289,35.34206 87.1583289,35.8957764 C87.1583289,37.539266 88.2520178,39.4561957 88.2520178,39.4561957 C88.2520178,39.4561957 87.9783822,44.9335446 88.5253689,45.7552894 C88.7600356,46.1076285 89.4481067,46.9142771 90.1575111,47.7200711 C90.1660444,46.2170046 90.2695822,44.7082413 90.4484978,43.2356519" id="Fill-134" fill="#FFBC00"></path>
                            <path d="M112.47542,43.8612318 C112.002958,45.2010888 111.671012,46.6030395 111.27222,47.9685314 C111.110087,48.9853872 110.940843,50.0161998 110.784114,50.9584291 C110.685412,51.5497435 110.404949,52.0541837 109.584327,52.6019186 C110.404949,52.8756436 110.6783,52.6019186 110.6783,52.6019186 C110.6783,52.6019186 112.624185,46.3663428 113.561429,43.9216165 C113.174585,43.9389914 112.806514,43.9085142 112.47542,43.8612318" id="Fill-136" fill="#FFBC00"></path>
                            <path d="M112.04571,42.1950695 C112.04571,42.4762002 111.989675,43.0307711 111.896661,43.7559573 C112.065337,43.7949795 112.264732,43.8308686 112.475506,43.8613457 C112.577906,43.5708155 112.685141,43.2822792 112.803186,42.9991546 C114.238777,39.5563716 116.539079,36.5021016 116.736484,32.6380498 C116.933319,28.7922274 116.442652,25.7866639 111.191524,22.8853494 C111.04475,24.5231423 110.364928,30.846162 108.197177,36.6106232 C110.761444,38.5887921 112.04571,40.8500856 112.04571,42.1950695" id="Fill-138" fill="#E43500"></path>
                            <path d="M95.060992,23.8308259 C93.691392,25.3902895 92.9805653,27.4080503 92.1243876,29.265165 C91.5597653,30.4899492 90.7485298,31.5298764 90.8773831,32.8440984 C90.8130987,33.0115805 90.7536498,33.1813413 90.7010276,33.3539504 C90.6023253,33.6772365 90.5360498,33.972324 90.5039076,34.2497519 C90.5790009,34.2517457 90.6503964,34.2528851 90.7135431,34.2528851 C91.8274276,35.1825818 94.4522809,37.1205891 96.0244053,38.2701773 C98.4865564,35.305345 102.278485,34.8755312 104.523036,35.0193721 C105.126628,33.2166607 107.274468,24.60244 107.390236,21.6196631 C105.206556,21.0200885 103.283712,20.7042081 101.607196,20.5882809 C100.832939,20.7093351 100.076601,20.8884954 99.359232,21.1277556 C97.6275342,21.7051132 96.2809742,22.4422624 95.060992,23.8308259" id="Fill-140" fill="#E43500"></path>
                            <path d="M95.3629298,39.1823282 C95.5697209,38.8544848 95.7913031,38.5511371 96.0242631,38.2702912 C94.4524231,37.1207031 91.8272853,35.1824109 90.7134009,34.2527142 C90.6505387,34.2527142 90.5791431,34.2515748 90.5040498,34.2498658 C90.410752,35.0664836 90.620672,35.7287216 91.2154453,36.494639 C91.4614898,36.8122284 91.6219164,37.3380311 91.7135076,37.9307697 C91.171072,39.6711026 90.6727253,41.3920668 90.4485831,43.2355095 C90.2696676,44.7080989 90.1658453,46.2168621 90.157312,47.7202136 C91.1005298,48.7920422 92.0810098,49.8630163 92.0810098,49.8630163 C92.0810098,49.8630163 92.0810098,44.3859522 95.3629298,39.1823282" id="Fill-142" fill="#FFAD00"></path>
                            <path d="M111.896548,43.7560998 C111.752903,44.8766349 111.521365,46.4059062 111.272192,47.968503 C111.670983,46.603011 112.00293,45.2010603 112.475392,43.8612033 C112.264619,43.831011 112.065508,43.7951219 111.896548,43.7560998" id="Fill-144" fill="#FFAD00"></path>
                            <path d="M111.192092,22.8800722 C111.187257,22.8783656 111.182421,22.8763745 111.177586,22.8743834 C111.182421,22.8780811 111.186688,22.8817789 111.191524,22.8854767 C111.191524,22.88377 111.191808,22.8817789 111.192092,22.8800722" id="Fill-146" fill="#FFBC00"></path>
                            <path d="M107.390151,21.6197486 C107.274667,24.6025254 105.126542,33.2167461 104.522951,35.0194576 C105.438578,35.0781333 106.098489,35.2316586 106.302436,35.3481555 C106.997618,35.7463528 107.627947,36.1716092 108.19712,36.6105377 C110.364871,30.8463614 111.044978,24.5230568 111.191467,22.885264 C111.186916,22.881846 111.182364,22.8781432 111.177529,22.8744403 C110.84416,22.7377202 110.496569,22.604703 110.131342,22.4768127 C109.17504,22.1415636 108.263396,21.8595784 107.390151,21.6197486" id="Fill-148" fill="#FFAD00"></path>
                            <path d="M103.02043,33.1574438 C103.02043,32.8834339 103.294066,31.7879641 103.294066,31.7879641 C103.294066,31.7879641 104.661675,29.3232995 104.661675,29.0492896 C104.661675,28.7755646 98.6445369,27.4063698 95.909888,28.5015547 C98.0975502,29.8710344 103.02043,33.1574438 103.02043,33.1574438" id="Fill-150" fill="#1F191A"></path>
                            <path d="M110.951822,30.9663903 L110.1312,34.8005345 L110.404836,35.6222793 C110.404836,35.6222793 113.139484,36.4437392 115.327716,36.4437392 C114.507093,33.4310549 110.951822,30.9663903 110.951822,30.9663903" id="Fill-152" fill="#1F191A"></path>
                            <path d="M114.265714,76.8362682 C113.91158,76.7434125 113.580203,76.7348674 113.215829,76.7200561 C112.91062,76.7075234 112.617358,76.6440055 112.319545,76.5887478 C112.087154,76.4577244 111.834567,76.5676702 111.724772,76.8419649 C111.714816,76.8667454 111.705145,76.8915259 111.695189,76.9163064 C111.570887,77.2270598 111.829163,77.5358194 112.122709,77.5751264 C112.825287,77.6685518 113.546069,77.740045 114.240398,77.5594605 C114.239829,77.556897 114.23926,77.5543335 114.238692,77.5514852 C114.543616,77.4631868 114.628665,76.9314026 114.265714,76.8362682" id="Fill-154" fill="#98480C"></path>
                            <path d="M67.5168142,73.9818089 C67.3791431,73.8767053 67.2226987,73.8211628 67.0588587,73.7955277 C66.9692587,73.7530875 66.8813653,73.707799 66.7917653,73.6653588 C66.5556764,73.5534192 66.3503076,73.6542503 66.220032,73.8339803 C65.8676053,73.889238 65.283072,74.0236794 65.4850276,74.5098903 C65.618432,74.8311825 65.9523698,74.8009901 66.2413653,74.8103896 C66.304512,74.8123835 66.3699342,74.8143773 66.4347876,74.8175105 C66.6799787,74.9476794 66.9209031,75.0385413 67.2079076,75.0607583 C67.7950009,75.1066165 67.9104853,74.2820234 67.5168142,73.9818089" id="Fill-156" fill="#98480C"></path>
                            <path d="M110.886827,44.867036 C110.804338,44.6300545 110.823964,44.384528 110.787271,44.1412801 C110.768213,44.0150989 110.598116,43.999433 110.543502,44.0999793 C110.00192,43.4753393 108.924729,43.0272962 108.242916,42.7225243 C106.921102,42.1314947 105.492622,41.5455921 104.089742,41.1878412 C102.796089,40.8580039 101.555627,40.4501223 100.23808,40.2017475 C99.6270933,40.0866747 98.8716089,39.9416945 98.2253511,40.0875292 C98.2526578,40.0197388 98.1778489,39.9371371 98.1110044,39.9975218 L98.1104356,39.9980915 C98.0754489,39.99211 98.03648,40.0012247 97.9983644,40.0356895 C97.8390756,40.178676 97.6789333,40.3339102 97.5879111,40.5301605 C97.5230578,40.6700138 97.7056711,40.8201211 97.7904356,40.6694441 C97.8197333,40.6141864 97.8564267,40.5646254 97.8902756,40.512216 C97.9133156,40.5130705 97.9377778,40.508798 97.9636622,40.4928473 C98.76096,39.9966673 100.149618,40.4922777 100.987876,40.6634626 C102.058524,40.8827845 103.07712,41.2496501 104.133547,41.5245144 C105.229227,41.8099176 106.239858,42.3098005 107.292302,42.7156883 C108.155591,43.0486587 110.011307,43.6809891 110.472391,44.565967 C110.486898,44.5938806 110.50624,44.6123948 110.527004,44.6266365 C110.527573,44.7323097 110.558862,44.8493763 110.584462,44.9462197 C110.640498,45.1598449 110.954809,45.0630015 110.886827,44.867036" id="Fill-158" fill="#98480C"></path>
                            <path d="M105.709596,47.9134446 C105.217792,47.3739699 104.824405,46.9435864 104.250681,46.7675593 C104.240441,46.7615778 104.232476,46.7536025 104.220814,46.74933 C103.685774,46.5630488 103.040085,46.6291302 102.483428,46.6325482 C102.464654,46.6325482 102.449294,46.63796 102.432796,46.6422326 C102.01125,46.595235 101.591125,46.5650427 101.181241,46.5462436 C101.084814,46.5274446 100.989525,46.506367 100.896796,46.4807319 C100.636814,46.3867369 100.388494,46.2551438 100.157241,46.0688626 C100.071908,45.9586321 99.8907164,46.0970612 99.9436231,46.2454594 C100.328761,47.3201364 101.620139,47.3503287 102.781241,47.2919379 C102.87141,47.3073189 102.961579,47.3218454 103.052316,47.3358022 C103.46789,47.4631228 103.882894,47.5978491 104.301312,47.67333 C104.34341,47.6810205 104.37669,47.67333 104.405703,47.6605125 C104.801081,47.8143226 105.17541,47.994907 105.495125,48.1948602 C105.668068,48.3030969 105.839872,48.0567159 105.709596,47.9134446" id="Fill-160" fill="#98480C"></path>
                            <path d="M98.097664,40.2779974 C98.097664,40.2779974 99.4652729,40.2779974 102.200206,41.0994573 C104.934855,41.9212021 107.943424,43.0163871 108.490411,43.2903969 C109.037397,43.5641219 110.405006,44.6598766 110.405006,44.6598766 C110.405006,44.6598766 108.763762,46.5768063 108.216775,46.8505313 C107.669788,47.1245412 106.029113,46.3027964 104.387868,45.7550615 C102.747193,45.2076115 100.011975,44.9336016 99.1919218,44.3858667 C98.3712996,43.8381318 98.9182862,42.1949271 98.097664,40.2779974" id="Fill-162" fill="#333333"></path>
                            <path d="M107.122944,36.9915596 C107.122944,36.9915596 105.481984,36.4438247 105.208633,36.1698148 C104.934997,35.8958049 103.841024,35.6220799 103.841024,35.8958049 C103.841024,36.1698148 105.755335,38.0870293 105.755335,38.0870293 C105.755335,38.0870293 107.669931,37.2652846 107.669931,36.9915596 C107.669931,36.7175497 107.122944,36.9915596 107.122944,36.9915596" id="Fill-164" fill="#98480C"></path>
                            <path d="M109.365447,44.2678887 C105.470265,41.5716544 98.7255182,40.4721969 98.5685049,40.5243215 C98.411776,40.5770157 98.7255182,42.7759306 98.908416,43.0114879 C99.0913138,43.2470453 99.7387093,43.29034 99.7387093,43.29034 C99.7387093,43.29034 98.9869227,43.3780687 99.0128071,43.6660354 C99.0219093,43.7640181 99.033856,43.9975816 99.0458027,44.2610527 C99.0890382,44.3071957 99.1368249,44.349351 99.1917227,44.3858097 C100.01206,44.9335446 102.746994,45.2075545 104.387954,45.7552894 C106.010709,46.296758 107.631474,47.1045459 108.196665,46.8575952 C108.377287,46.1959269 108.05814,45.9956889 108.05814,45.9956889 L108.7903,46.2053264 C108.7903,46.2053264 109.15638,45.6029035 109.365447,44.2678887" id="Fill-166" fill="#F1F1F1"></path>
                            <path d="M105.9871,44.8698274 C102.96886,43.6478915 99.9770738,43.3220419 99.7077049,43.2946979 C99.6323271,43.3055216 99.433216,43.3388471 99.2671004,43.405783 C99.7537849,43.4607559 101.19734,43.6544427 103.563349,44.2360727 C106.064185,44.8510284 107.735012,45.8755746 108.196096,46.181201 C108.138638,46.0467596 108.05814,45.9957744 108.05814,45.9957744 L108.136363,46.0179914 C107.833714,45.8371221 107.159012,45.4520271 105.9871,44.8698274" id="Fill-168" fill="#CBCBCB"></path>
                            <path d="M169.651826,5.88323674 C169.180501,5.82627004 167.772786,6.27573736 167.337017,6.17946363 C166.817906,6.06496054 165.936697,4.95952158 165.651684,4.57300247 C165.094172,3.81705425 164.827932,3.13658693 163.830386,2.90672626 C163.356501,2.79735018 162.152448,2.73611097 161.835292,3.25308385 C161.625372,3.59488409 161.84411,3.99051788 162.124857,4.21724538 C162.679239,5.11076819 163.611932,5.81174353 164.313088,6.5656979 C164.953941,7.25499507 165.585124,8.27925647 166.455524,8.71334279 C166.945621,8.95772996 167.107755,8.98478915 167.48123,8.55326634 C167.831381,8.14880271 167.72699,7.52074476 168.060359,7.07498027 C168.270564,6.79384957 168.778866,6.5537349 168.908004,6.22845499 C168.945835,6.13332059 169.743132,5.89434525 169.651826,5.88323674" id="Fill-185" fill="#B2270D"></path>
                            <path d="M167.172096,8.86313674 C166.275812,9.41229581 165.56982,7.86621936 165.116416,7.29655228 C164.47158,6.48591603 163.84438,5.56903687 163.14038,4.81422799 C163.083776,4.75327361 163.008398,4.84214168 163.053909,4.90195672 C163.897856,6.01223785 164.558336,7.27518977 165.424469,8.37835006 C165.670798,8.69138212 166.028914,9.19183465 166.387314,9.37270395 C166.775865,9.56923909 166.993749,9.37669162 167.318585,9.16021813 C167.481856,9.05141171 167.354425,8.75119716 167.172096,8.86313674" id="Fill-187" fill="#8E1926"></path>
                            <path d="M186.215424,28.6601785 C186.172757,28.6069147 186.096242,28.6749899 186.126677,28.7296779 C186.375282,29.1777211 183.872171,31.1795312 183.45034,31.4484141 C182.2241,32.2299973 180.135708,32.4142846 178.73226,32.2171798 C177.229255,32.0061181 175.372686,31.3427408 174.659868,29.9011983 C174.145593,28.8615559 173.857166,27.6766483 173.125006,26.7591995 C173.008668,26.6133647 172.835157,26.8198691 172.931868,26.955165 C173.97834,28.4200639 174.069077,30.41162 175.6449,31.4632254 C177.000277,32.3672871 178.717468,32.7230441 180.321735,32.5886027 C182.068793,32.4421983 183.350784,32.037165 184.619122,30.8696323 C184.872277,30.6363536 186.664846,29.2156039 186.215424,28.6601785" id="Fill-189" fill="#B2270D"></path>
                            <path d="M120.48822,107.039191 C120.681643,106.986212 120.874496,106.932378 121.067065,106.875696 C121.408114,106.748091 121.705074,106.601971 121.940025,106.319986 C122.311794,105.874221 122.481892,105.144478 122.329998,104.581362 C122.008576,103.389334 120.397483,102.60832 119.362958,102.237467 C118.284345,101.850093 117.054407,101.648431 115.807687,101.559563 C113.311118,101.052844 110.748558,100.91413 108.243456,100.40086 C102.76022,99.2777615 97.0138738,99.1524348 91.431936,98.9456456 C85.659136,98.7317356 79.7768249,98.5055778 74.0296249,99.2247825 C71.2918471,99.5677221 68.5651627,99.9687677 65.895936,100.687118 C64.7553138,100.993884 63.6795449,101.440218 62.5633849,101.81278 C61.9037582,102.032956 60.8945493,102.201578 60.7819093,103.047818 C60.7338382,103.408702 60.901376,103.735122 61.1468516,103.988054 C61.661696,104.518414 62.017536,104.654564 62.1674382,105.394847 C62.383616,106.462972 62.5568427,107.572969 62.8757049,108.614605 C63.1291449,109.442046 63.3851449,110.290565 63.0290204,111.145351 C63.023616,111.158738 63.0167893,111.170986 63.0111004,111.184373 C62.9200782,111.219123 62.8319004,111.260139 62.7474204,111.311124 C61.9745849,111.776542 61.8224071,112.828432 62.2820693,113.567575 C62.908416,114.574462 64.2143004,114.438596 65.258496,114.377072 C66.582016,114.299028 67.8802204,114.17484 69.2074382,114.131546 C71.978496,114.041538 74.7233849,113.623688 77.5026916,113.59321 C80.5866382,113.559315 83.6563627,113.686636 86.7366116,113.729361 C92.8075093,113.813672 98.863616,114.334632 104.917163,114.804323 C107.878514,115.033614 110.86006,115.175461 113.78614,115.711233 C115.085198,115.949353 116.333909,116.418474 117.552469,116.919212 C118.410923,117.27212 120.179314,118.572955 121.249678,118.063388 C122.317198,117.55496 122.371243,114.422076 119.6255,113.613434 C119.883207,111.893039 120.385536,108.841332 120.457216,107.124071 C120.469163,107.09217 120.47798,107.067389 120.48822,107.039191" id="Fill-191" fill="#FFBC00"></path>
                            <path d="M74.7012551,53.8587751 C74.7012551,53.8587751 55.7606684,52.6997874 50.6048284,67.1351512 C41.3447396,65.7656715 30.1913884,72.4037171 30.5068373,81.1495309 C32.4009529,86.5232005 38.4311751,92.3121573 45.0280107,92.6345889 C48.4057884,92.7997924 57.567744,88.3028404 58.3041707,87.3543448 C58.0936818,80.8214027 59.654144,76.7237874 60.0751218,74.4058121 C60.4960996,72.0875519 66.9145884,58.7057874 74.7012551,53.8587751" id="Fill-193" fill="#98480C"></path>
                            <path d="M63.6615396,63.5689783 C61.1314062,65.9724037 59.3413973,68.9041953 57.4341973,71.7878501 C56.9278862,72.5540523 56.4446151,73.33649 55.9277796,74.0955714 C55.6126151,74.5584259 55.0792818,75.6940572 54.5234773,75.821093 C53.8772196,75.9683519 52.9749618,74.4185726 52.7465529,73.9335011 C52.4825884,73.3720942 52.4151751,72.7995788 51.9560818,72.3643531 C51.7490062,72.167818 51.4861796,72.1931682 51.3231929,72.4304345 C50.7742151,73.2293926 50.8276907,74.2508057 50.8737707,75.179363 C50.8985173,75.6803852 50.9653618,76.1540634 51.0347662,76.6508131 C51.1135573,77.2107958 51.1735751,77.4719882 50.6143573,77.7610942 C50.2815573,77.9337033 49.7394062,78.0276984 49.3792996,78.1373593 C46.3983218,79.0493963 43.3223396,79.5883014 40.2693973,80.189585 C38.9106062,80.4573285 37.6286151,80.9597748 36.292864,81.3092656 C35.0902329,81.6245763 34.1515662,82.1990856 33.2410596,83.0467502 C32.7233707,83.5284037 32.4113351,84.0906651 32.2981262,84.6617564 C33.673984,86.7188242 35.5618418,88.6420202 37.7472284,90.0869808 C39.001344,90.7993494 40.3277084,91.4171534 41.6591929,91.9984986 C42.7528818,92.3542557 43.8812729,92.5787046 45.0278684,92.6345319 C48.0734151,92.783215 56.1900373,88.8536515 58.2898062,87.3921707 C58.3987484,87.1560436 58.5284551,86.0218365 58.5526329,85.7136466 C58.6208996,84.8409166 59.6750507,76.608088 60.075264,74.4057551 C60.2473529,73.4572594 61.4238151,70.6570609 63.2866418,67.3472952 C63.6348018,66.2372989 64.0845084,65.1372718 64.2930062,64.0010708 C64.3598507,63.6356293 63.9917796,63.2550917 63.6615396,63.5689783" id="Fill-195" fill="#98480C"></path>
                            <path d="M62.0187591,75.151193 C62.0187591,75.151193 68.1306169,78.4752004 78.5478258,77.2108243 C83.9144391,76.4733903 86.3344924,76.2623286 86.3344924,76.2623286 C86.3344924,76.2623286 103.170759,83.3222127 118.954297,81.4255062 C122.953017,85.0081424 120.848412,91.7515764 120.427435,92.0680265 C120.006457,92.3839069 114.955577,95.3342127 107.590172,91.1195308 C100.224199,86.904849 93.2792036,80.7934605 83.7039502,81.4255062 C74.1284124,82.0578366 64.7545458,89.3757799 62.6502258,89.69223 C60.5456213,90.0081104 58.8619947,87.0578046 62.0187591,75.151193" id="Fill-197" fill="#98480C"></path>
                            <path d="M185.720434,16.5505946 C184.070656,14.8025711 181.498709,13.7022592 179.070692,14.0286784 C177.903616,14.1856217 176.976043,14.8481445 176.090283,15.5832999 C176.048469,15.6177647 176.005518,15.6559324 175.961429,15.6963788 C175.861305,15.5878572 175.700025,15.5442777 175.578567,15.6815674 C175.34902,15.9413356 175.140238,16.2090792 174.935154,16.4776772 C174.873429,16.4893554 174.786674,16.5115724 174.662372,16.5511642 C174.356878,16.6480076 174.099172,16.7568141 173.812452,16.9066365 C173.408825,17.1176982 173.3983,17.7021766 173.629554,18.0425527 C173.622158,18.0499583 173.615047,18.0576488 173.607652,18.0647697 C172.616078,19.0201014 171.715812,20.0537623 170.67446,20.9606723 C168.4575,22.892983 165.955243,24.3960496 163.455829,25.9238967 C161.02838,27.4075946 158.920932,29.2550249 156.558905,30.8150582 C154.870158,31.9304663 153.189945,33.0270755 151.879509,34.5321359 C151.568327,35.664634 151.319723,36.8136525 151.244629,38.0259041 C151.102692,40.3233714 151.274212,42.7031556 151.66902,44.9672974 C151.87126,46.1274244 152.125269,47.3066353 152.478265,48.4513813 C153.198763,47.7583813 153.762532,46.8306784 154.555278,46.2011963 C155.710976,45.2834626 157.161927,44.6930027 158.468665,44.0233591 C161.407545,42.5171593 164.362354,41.3356698 166.92918,39.1772012 C169.350656,37.1406414 170.972558,34.6845218 172.220985,31.8042851 C172.311723,31.5949324 172.605269,31.5607524 172.782478,31.6567413 C174.904434,32.8066143 177.843029,33.4346723 180.243456,33.1857277 C181.317518,33.0746427 182.715847,32.7812641 183.659634,32.2246994 C184.464612,31.7501667 184.945607,31.1676821 185.517909,30.4897783 C185.721856,30.2485243 186.127758,30.3915107 186.203705,30.6712173 C186.609892,32.1665933 186.35702,33.559999 186.215083,35.1009485 C186.081963,36.5430607 185.476665,37.7912012 184.91062,39.1028597 C183.644558,42.0366451 182.280078,44.9015009 180.943758,47.8062333 C178.706603,52.6694811 177.194496,57.8964614 174.59638,62.5711494 C175.141945,62.4800027 175.68182,62.3657845 176.210603,62.2179559 C177.224078,61.9351162 178.564949,61.5967339 179.664896,60.9883295 C179.404914,61.3970656 179.135545,61.8001051 178.860203,62.1985872 C179.992007,60.5636427 181.008896,58.8443874 181.776896,57.0106291 C182.816825,54.526311 183.064576,51.8266587 183.685234,49.2229953 C184.354532,46.4148215 185.26902,43.6781408 186.133732,40.9260792 C186.988487,38.205634 188.129963,35.4851889 188.644238,32.675306 C189.599687,27.4574404 189.609927,20.6712814 185.720434,16.5505946" id="Fill-199" fill="#FF5B0C"></path>
                            <path d="M176.210716,62.2179843 C175.681934,62.3658129 175.141774,62.4800312 174.59621,62.5711779 C174.352156,63.0103912 174.10213,63.4464714 173.837028,63.8751459 C172.534556,65.9837686 171.172068,67.4959498 168.70565,68.1017908 C167.306183,68.4455848 165.870023,68.5489794 164.480796,68.9580004 C163.822592,69.1522568 163.190841,69.413734 162.558805,69.6769202 C163.562894,69.8700374 164.594859,69.9472273 165.621703,69.9500756 C170.137259,69.9637476 175.268352,67.0715478 177.941845,63.4800818 C178.222592,63.1023925 178.497081,62.719861 178.76645,62.3327723 C178.798023,62.2880534 178.829028,62.2436194 178.860032,62.1986157 C179.135374,61.8001335 179.404743,61.3970941 179.66501,60.988358 C178.564779,61.5967624 177.224192,61.9351446 176.210716,62.2179843" id="Fill-201" fill="#FFBC00"></path>
                            <path d="M151.556551,49.1158979 C151.902151,48.94984 152.201387,48.7174158 152.478151,48.4513813 C152.125156,47.3066353 151.871147,46.1274244 151.669191,44.9672974 C151.274382,42.7031556 151.102578,40.3233714 151.244516,38.0259041 C151.319609,36.8136525 151.568213,35.664634 151.87968,34.5321359 L151.87968,34.5324207 C151.746276,34.6850915 151.618844,34.8440286 151.493689,35.0055292 C151.462969,35.0456908 151.432249,35.0855674 151.402098,35.1260138 C151.277796,35.2917869 151.156338,35.4606932 151.041138,35.6364355 C147.981653,40.3151112 146.636231,46.74238 147.648853,52.3849324 C148.597476,50.9462382 150.102471,49.8143097 151.556551,49.1158979" id="Fill-203" fill="#FFBC00"></path>
                            <path d="M158.072092,56.8795772 C161.309355,59.8723232 165.58939,62.9277326 170.175488,62.8941222 C171.639239,62.8835834 173.139684,62.8152233 174.596324,62.571121 C177.194724,57.8964329 178.706546,52.6694527 180.943701,47.8064896 C182.280021,44.9014724 183.644501,42.0366166 184.910564,39.1028312 C185.476608,37.7911727 186.08219,36.543317 186.215026,35.10092 C186.356964,33.5599705 186.609835,32.1665649 186.203648,30.6711888 C186.127701,30.3914822 185.721799,30.2484958 185.517852,30.4900346 C184.945835,31.1676536 184.464555,31.7501382 183.659577,32.2246709 C182.716075,32.7815205 181.317461,33.0746142 180.243399,33.1856993 C177.842972,33.4346438 174.904377,32.8065858 172.782421,31.6567128 C172.605212,31.5607239 172.31195,31.5949039 172.220928,31.8042566 C170.972786,34.6844933 169.350599,37.1406129 166.929408,39.1771727 C164.362297,41.3356413 161.407772,42.5171308 158.468892,44.0233306 C157.16187,44.6929742 155.710919,45.2834342 154.555221,46.2011678 C153.762759,46.8306499 153.198706,47.7586376 152.478208,48.4513528 C152.819541,49.5579311 153.253604,50.6317535 153.827612,51.6224046 C154.961408,53.5789261 156.415204,55.3477424 158.072092,56.8795772" id="Fill-205" fill="#E43500"></path>
                            <path d="M168.705707,68.1018477 C171.172124,67.4960068 172.534613,65.9835407 173.837084,63.8752028 C174.102187,63.4465284 174.352213,63.0104482 174.596267,62.5712349 C173.139627,62.8150524 171.639182,62.8836973 170.175431,62.8942361 C165.589333,62.9278465 161.309298,59.8721523 158.072036,56.8796911 C156.415147,55.3478564 154.961636,53.5790401 153.827556,51.6225185 C153.253547,50.6318674 152.819484,49.558045 152.478151,48.4514667 C152.201387,48.7172164 151.902151,48.9499254 151.556551,49.1159834 C150.102471,49.8143952 148.597476,50.9463237 147.648853,52.384733 C147.764053,53.0278872 147.908551,53.661357 148.086044,54.2805851 C149.280711,58.4437121 152.128569,61.9198206 155.146809,65.0225123 C156.333511,66.2424544 157.570276,67.4353372 159.013831,68.3351264 C160.110649,69.0190117 161.313564,69.4374322 162.558862,69.6769772 C163.190613,69.4135062 163.822649,69.1523138 164.480569,68.9580573 C165.869796,68.5487515 167.30624,68.4456418 168.705707,68.1018477" id="Fill-207" fill="#FFAD00"></path>
                            <path d="M190.532096,17.1511376 C189.704363,16.5743497 188.106069,15.7184249 187.071829,15.6722819 C186.382052,15.641235 185.635669,16.1490932 185.040896,16.4231031 C184.33718,16.7478133 183.675278,17.1303448 183.004274,17.5177184 C181.578069,18.341457 180.134514,19.102817 178.836309,20.1259391 C177.813163,20.9323028 176.692167,21.7759798 176.326372,23.0870686 C176.271189,23.284743 176.356523,23.443965 176.485376,23.5302695 C176.213732,24.3238158 175.984754,25.1373004 175.644274,25.9103386 C175.170958,26.9844459 174.710158,28.0602621 174.250212,29.1377874 C174.034034,29.6436518 173.8207,30.0666296 174.288612,30.4753657 C175.035847,31.1287739 176.462336,31.4480723 177.369998,31.7875938 C178.292167,32.1322424 179.405198,32.7218478 180.400469,32.434166 C181.305856,32.1724039 182.415189,31.3973719 183.128292,30.7815618 C184.45494,29.6359613 184.756452,28.1112473 184.315847,26.6044779 C185.273856,26.5865334 186.402532,26.0575975 187.21462,25.8898306 C188.664149,25.5901857 189.649749,25.4326727 190.385323,24.0774348 C191.419278,22.1733226 192.757589,18.7023411 190.532096,17.1511376" id="Fill-209" fill="#FF5B0C"></path>
                            <path d="M187.427385,15.8179173 C187.407474,15.8011121 187.387847,15.7900036 187.367936,15.7771861 C187.370212,14.9463266 187.431652,14.0906867 187.472327,13.2791959 C187.508167,12.5642637 187.564772,11.7194475 187.10454,11.109334 C186.686407,10.5547631 185.680043,10.0417779 185.047438,9.78685191 C184.238194,9.46128718 183.38742,9.20579149 182.552576,9.4963217 C180.283563,10.2861651 178.022514,11.2033291 175.78422,12.0660899 C173.978852,12.7622231 171.794318,13.5643143 170.986212,15.4544697 C169.956523,17.8630221 169.164629,20.4416201 168.443563,22.9584092 C168.224825,23.7209086 167.915634,24.3982428 168.30134,25.137101 C168.683065,25.8671293 169.416647,26.3937866 170.111545,26.7919838 C171.557092,27.6202798 174.269554,28.1589 175.660487,26.9070566 C176.13494,26.4798063 176.536576,25.8990307 176.924843,25.3849062 C177.598123,24.4933772 178.059492,23.2432428 179.120185,22.7977631 C180.520789,22.209297 182.052807,21.7914462 183.496647,21.3095079 C184.54454,20.960302 185.704505,20.6219197 186.524843,19.8440393 C187.405483,19.0089074 188.626887,16.8233797 187.427385,15.8179173" id="Fill-211" fill="#FF5B0C"></path>
                            <path d="M183.835705,8.21308964 C183.810105,7.1435397 184.039367,5.95549901 183.671296,4.92041393 C183.086763,3.27635475 180.603563,3.19090469 179.171954,3.29572343 C176.847189,3.46633872 174.625678,4.552409 172.490069,5.44137448 C170.548736,6.24916239 168.07862,7.31330049 166.774727,9.03967657 C165.320363,10.9645816 164.730994,13.4078837 163.739705,15.5683461 C162.953785,17.281335 161.556594,18.90688 163.011243,20.6739873 C164.263083,22.1944287 166.49142,22.8609392 168.405163,22.6381994 C170.42102,22.4034965 171.561643,20.0655829 172.744363,18.6596445 C173.768647,17.4411266 174.462976,16.061393 175.975936,15.4085545 C177.371989,14.8061316 178.793927,14.3452709 180.246869,13.9083363 C181.55446,13.515266 182.806016,12.9561377 183.362958,11.9344398 C183.367509,11.9694744 183.372345,12.0047937 183.376612,12.0395434 C183.413874,12.3471636 183.818923,12.2534534 183.847652,11.9868492 C183.984469,10.7153523 183.86614,9.48373206 183.835705,8.21308964" id="Fill-213" fill="#FF5B0C"></path>
                            <path d="M167.984327,14.3258737 C167.176789,12.6140242 166.499243,10.8819514 164.921429,9.71128557 C163.037838,8.31332256 160.615509,7.39501924 158.364985,6.81082565 C157.325625,6.54108829 156.248718,6.38357534 155.178069,6.30211295 C154.120789,6.22178989 153.213696,6.63365919 152.236914,6.98258027 C152.222407,6.98742244 152.212167,6.99653711 152.198514,7.00223379 C152.179172,6.98485894 152.160967,6.96577509 152.138496,6.95153342 C151.777252,6.72480592 151.525803,7.26684414 151.812238,7.51151615 C151.837554,7.5331635 150.634923,10.8207122 150.5695,11.0491487 C150.099029,12.6906444 150.481038,14.2731795 151.109376,15.8121351 C151.734869,17.3439699 152.821163,18.8675445 154.025785,19.9889342 C155.278478,21.1556123 156.942194,22.4142917 158.660807,22.716785 C162.589269,23.4077911 166.093909,20.8665063 168.57142,18.0717196 C169.604807,16.9067504 168.554638,15.5349921 167.984327,14.3258737" id="Fill-215" fill="#FF5B0C"></path>
                            <path d="M186.746254,24.2847651 C186.020068,23.5330894 184.820281,23.3094951 183.851748,23.0770709 C181.437099,22.4974346 179.025294,21.6679994 176.716743,20.7525444 C174.681828,19.945611 172.088263,18.7780783 169.97797,19.9894753 C169.178396,20.4483422 167.555072,22.315426 168.863801,22.9617133 C168.819143,23.2063853 168.77477,23.4237133 168.765383,23.5185629 C168.647623,24.6766961 168.484068,25.7431128 168.673508,26.9018157 C169.014556,28.9905 170.065294,30.7222879 171.533312,32.2051313 C174.421561,35.1226813 177.776299,37.46914 182.083356,36.1406763 C185.964885,34.9438058 187.252565,29.8882953 187.274183,26.2785999 C187.279019,25.5007195 187.313721,24.871807 186.746254,24.2847651" id="Fill-217" fill="#FF5B0C"></path>
                            <path d="M170.360718,13.552038 C167.83798,12.6174991 167.83798,9.60509963 167.836274,7.30136597 C167.837696,7.06751763 167.83798,6.8319603 167.83798,6.59241529 C167.666745,6.79778027 167.525945,7.01197509 167.409892,7.23272109 C166.196736,9.60509963 167.83798,12.0697642 166.563954,14.6084856 C166.432825,14.8579998 166.246229,15.0727642 165.947847,15.2314165 C165.797376,15.3988986 165.642638,15.5566964 165.48534,15.702816 C165.289358,15.877419 165.076594,16.0449011 164.854158,16.2001354 C164.186567,16.6664079 163.43222,17.025583 162.772309,17.1645818 C161.344683,17.4650811 159.067136,15.4869122 157.939314,14.7509023 C156.985003,14.1276866 156.488647,12.865874 155.709838,12.0355842 C155.279474,11.5767174 154.890069,10.6233795 155.052203,10.3826952 C154.60534,10.3297162 154.430123,10.607144 154.338247,10.9822698 C154.123492,11.8609813 154.743865,12.492742 155.257003,13.098583 C156.057998,14.0442303 156.865536,14.9443043 157.132914,16.1952932 C157.507243,17.9453105 156.921287,18.2828382 156.171776,19.7807778 C155.385572,21.3527741 158.185643,22.5345485 159.19798,22.6595904 C160.104789,22.77153 161.15638,22.7490281 162.05238,22.5598986 C162.4799,22.4698912 162.878976,22.2850343 163.293412,22.155435 C164.165234,21.8831342 164.416398,21.96716 165.284807,22.3032636 C166.801749,22.8903055 168.954994,23.6485324 169.914994,21.8349973 C170.356736,20.9995805 170.709163,20.0533635 171.055616,19.1461687 C171.125305,18.9647297 171.19414,18.7847149 171.262407,18.6081181 C171.543154,17.491001 171.760754,16.3573635 171.472327,15.3521859 C171.414585,15.1510935 171.336932,14.9554128 171.2351,14.7659985 C171.112505,14.5387014 170.952078,14.3233672 170.744149,14.1239837 C170.634638,13.9394116 170.508914,13.7497125 170.360718,13.552038" id="Fill-219" fill="#E43500"></path>
                            <path d="M185.897643,15.9350408 C183.624932,16.2124687 181.374692,17.6981604 179.334656,18.6270026 C178.351616,19.0744761 177.357767,19.4658374 176.816754,20.4678818 C176.336043,21.3588411 176.361643,22.5508694 176.750194,23.4814206 C176.758727,23.6708349 176.929678,23.8659459 177.147847,23.8405957 C177.160363,23.8391715 177.172594,23.8377473 177.185109,23.8363232 C177.377963,23.8141062 176.563314,23.0587276 176.540558,22.9029237 C176.304469,21.2731062 177.152114,20.5063343 178.71542,19.5498633 C179.667172,18.9676635 180.535296,18.3772036 181.559296,17.9075131 C182.324167,17.5563133 183.093874,17.2484083 183.878087,16.951042 C184.479687,16.7231752 185.535545,16.5565476 185.961927,16.0660642 C186.010283,16.0105217 185.972736,15.9259261 185.897643,15.9350408" id="Fill-221" fill="#E43500"></path>
                            <path d="M184.857372,25.3331519 C183.932928,25.3337216 183.216412,24.8646007 183.250261,23.9104084 C183.257088,23.7141581 182.99227,23.7107401 182.970937,23.900724 C182.865408,24.8398202 182.435612,24.9973332 181.567772,24.930967 C181.081941,24.8936538 180.528697,24.7270261 180.068466,24.54929 C178.825728,24.0693455 177.694208,23.3991322 176.863061,22.3358486 C176.699221,22.1264959 176.38235,21.6656353 176.614741,21.4084306 C176.307541,21.1871149 175.761692,20.9791864 175.53499,20.8342062 C175.081586,20.5695958 174.646955,20.2813443 174.257835,19.9284355 C173.44091,19.1887228 172.962475,18.1277179 172.480057,17.1513085 C172.192199,16.5676846 171.893817,15.9866242 171.600555,15.4075576 C171.370155,14.9526784 171.603968,14.412634 171.851435,13.9993406 C170.887737,13.5823443 169.780679,11.9476846 169.076395,11.3503887 C168.828644,11.1404663 168.320341,10.5901679 167.953408,10.651692 C167.615204,10.7083739 167.93435,11.0407746 167.829106,11.3233295 C167.563719,12.0345588 167.356359,12.7195835 167.021568,13.4234072 C166.757319,13.9788326 166.238492,14.4428264 165.905408,14.9583751 C164.988644,16.3785551 164.156928,17.1780829 162.35099,17.2005847 C161.064732,17.2165354 159.958528,16.159803 158.848341,15.6735921 C158.74651,15.6291581 159.228359,17.8679497 159.317675,18.5623739 C159.419506,19.3527869 159.925248,21.4582764 161.198706,22.0985822 C161.410901,22.2053948 162.077639,22.4768412 162.334492,22.489089 C162.820324,22.3686044 163.261212,22.0695292 164.362297,22.0644022 C166.049337,22.8551001 167.157532,22.855385 167.404146,22.9547919 C169.171968,25.1146846 169.71099,27.6801803 172.901888,27.7240446 C173.099292,27.7650607 173.299826,27.7775933 173.496092,27.7864232 C174.084608,27.8134824 174.631879,27.808925 174.923435,28.443819 C174.906937,28.6226945 174.899541,28.7987216 174.917746,28.9664885 C175.074475,30.4422111 177.678848,31.4260261 178.892857,31.5903751 C179.519772,31.6755403 180.635932,31.8216599 181.217621,31.4798597 C181.867577,31.0978979 182.218012,30.1468387 182.468608,29.4888732 C182.809088,28.5933566 183.109177,27.6479941 183.219257,26.6915231 C183.277852,26.1808165 183.085852,25.9341507 183.717604,25.7176772 C184.019684,25.6137129 184.54107,25.7011568 184.884395,25.634221 C185.039417,25.6040286 185.018937,25.3331519 184.857372,25.3331519" id="Fill-223" fill="#B2270D"></path>
                            <path d="M183.575723,16.7948109 C181.558158,17.8373016 177.982407,18.5348589 176.594603,20.5634434 C175.972238,21.4734866 175.665038,22.6555457 175.498638,23.712563 C175.272505,25.1455605 175.20566,28.2149268 175.2287,27.9055975 C175.324558,26.6378035 176.109909,24.5419983 176.271189,23.2807554 C176.429625,22.0411598 176.78262,21.1809625 177.60694,20.1848996 C179.07638,18.4083928 181.709198,18.0401031 183.642283,16.9303916 C183.721074,16.8848182 183.661625,16.7503768 183.575723,16.7948109" id="Fill-225" fill="#8E1926"></path>
                            <path d="M178.521828,10.7810349 C177.085952,11.4079535 175.583232,11.8295072 174.162432,12.4928845 C173.262165,12.9132988 172.140032,13.1841755 171.600156,14.0927945 C170.798023,15.4431903 170.29541,17.0339856 169.91141,18.5068598 C169.555001,19.8743456 168.773916,20.8236958 168.647054,22.2259313 C168.631979,22.3917044 169.775445,19.8826058 170.087481,18.6512704 C170.418574,17.3458783 171.100103,16.0812174 171.608405,14.8336465 C172.155392,13.491226 173.449045,13.1807575 174.645419,12.6028302 C175.935374,11.9798993 177.34309,11.6309782 178.577294,10.893829 C178.643285,10.8545219 178.594645,10.7491335 178.521828,10.7810349" id="Fill-227" fill="#8E1926"></path>
                            <path d="M166.550158,6.27294599 C164.474852,5.31049346 162.534087,3.90768829 160.571136,2.74044044 C158.989909,1.7999201 157.228629,0.880192602 155.463367,1.89619383 C153.903758,2.79370432 152.761998,4.57220493 152.054869,6.17838126 C151.685945,7.01579186 151.130425,8.35678816 151.522674,9.28420617 C151.861732,10.0857277 153.000647,10.8750015 153.673358,11.356655 C154.398407,11.8756217 155.196558,12.3547117 155.983616,12.8181359 C156.344007,13.0892974 156.69302,13.3433689 156.995954,13.5812049 C158.541056,14.7940261 160.175758,16.2706032 162.14838,16.6893085 C164.179598,17.1205465 165.378532,15.9074404 166.58742,14.4499472 C167.780665,13.011253 168.073074,12.12656 167.961856,10.2355502 C167.847509,8.28785845 167.965269,6.9294873 166.550158,6.27294599" id="Fill-229" fill="#FF5B0C"></path>
                            <path d="M64.0106951,104.172512 C64.0106951,104.172512 73.7554773,102.004074 85.5670329,101.905522 C97.3788729,101.806969 119.525717,106.242397 119.525717,106.242397 C119.525717,106.242397 98.6585884,103.778302 89.6027307,103.67975 C80.5471573,103.581198 64.0106951,104.172512 64.0106951,104.172512" id="Fill-231" fill="#FFAD00"></path>
                            <path d="M119.1457,113.970615 C118.699406,113.416329 118.96394,112.417987 119.054677,111.717297 C119.185806,110.70215 119.513202,109.72631 119.603086,108.704897 C119.671353,107.935847 119.470251,106.915288 119.987371,106.353027 C120.810837,105.456655 121.490375,104.980414 121.379442,103.606092 C121.368917,103.477347 121.352704,103.364838 121.332793,103.260019 C120.716402,102.78805 119.947548,102.447104 119.363015,102.237467 C119.19178,102.175943 119.015708,102.120685 118.837646,102.068561 C117.938233,101.932695 117.043655,101.764358 116.150784,101.587762 C116.036437,101.577792 115.922375,101.567538 115.807744,101.559563 C113.310891,101.052844 110.748615,100.91413 108.243513,100.40086 C107.950251,100.34076 107.655566,100.285218 107.360882,100.23053 C107.375957,100.32367 107.435691,100.411114 107.525006,100.445294 C107.975566,101.233429 108.255744,102.107583 107.854677,103.008511 C107.522162,103.755914 106.865095,103.80576 106.462891,104.348653 C105.959708,105.027981 106.272313,106.608522 106.288526,107.379567 C106.304171,108.137794 106.328064,108.896305 106.351957,109.653963 C106.367317,110.133907 106.240455,110.900964 106.41226,111.354419 C106.572402,111.777112 106.855708,111.750907 107.189077,112.049413 C107.991495,112.766908 108.075691,114.15832 107.423744,114.98861 C109.554233,115.145553 111.684722,115.326707 113.785913,115.711233 C115.085255,115.949353 116.333682,116.418474 117.552242,116.919212 C118.339584,117.242498 119.889237,118.358475 120.966713,118.150547 C121.286144,117.163884 120.849237,116.096043 120.311068,115.235845 C119.985095,114.71517 119.51178,114.425494 119.1457,113.970615" id="Fill-235" fill="#FFAD00"></path>
                            <path d="M69.23264,114.130549 C68.6301867,113.671397 68.0740978,113.506194 68.0743822,112.463418 C67.97056,111.874098 68.2075022,111.371082 68.7849244,110.954085 C68.8770844,110.90367 68.96896,110.853254 69.0608356,110.802839 C69.07648,110.754132 69.1433244,110.745017 69.1547022,110.679791 C69.3091556,109.79054 68.7980089,108.56775 68.6560711,107.673657 C68.5442844,106.970973 68.3869867,106.279967 68.2641067,105.579561 C68.19328,105.176237 68.2348089,104.404053 67.9918933,104.056556 C67.8701511,103.882523 67.5973689,103.867712 67.4326756,103.744379 C66.2004622,102.823227 66.8558222,101.38852 67.4144711,100.357708 C67.4230044,100.342612 67.4269867,100.327231 67.4284089,100.312135 C66.91584,100.428062 66.4046933,100.550255 65.8961067,100.68726 C64.7554844,100.994026 63.6797156,101.440075 62.5635556,101.812922 C62.3197867,101.8941 62.0290844,101.968442 61.7528889,102.072406 C61.6849067,102.786483 61.8433422,103.694533 62.2444089,104.245116 C62.4105244,104.473268 62.6531556,104.563845 62.8155733,104.768355 C63.2322844,105.292164 63.4072178,106.186541 63.5568356,106.858749 C63.7331911,107.651155 63.8995911,108.533 63.9382756,109.343067 C63.9877689,110.378721 63.5138844,110.998804 63.1933156,111.829379 C62.8909511,112.612671 63.1367111,113.694469 63.6452978,114.343319 C63.6561067,114.356991 63.6680533,114.367815 63.6788622,114.381202 C64.1962667,114.451841 64.7571911,114.406553 65.2583822,114.37693 C66.5821867,114.29917 67.8801067,114.174698 69.2073244,114.131688 C69.2155733,114.131403 69.2243911,114.130834 69.23264,114.130549" id="Fill-237" fill="#FFAD00"></path>
                            <path d="M155.021824,10.811626 C155.021824,10.811626 158.926962,17.0078948 162.419655,16.980266 C163.90474,16.9529219 166.187406,15.7959281 167.617308,11.6376433 C168.057344,8.77364205 167.699797,7.09369383 166.57226,6.46050888 C165.445006,5.82703909 162.756437,4.10579001 162.756437,4.10579001 C162.756437,4.10579001 167.259762,6.59808348 167.562411,6.59808348 C167.864775,6.59808348 170.985131,5.22205265 171.027797,5.27617102 C171.069895,5.3302894 168.304811,6.40525117 167.919957,7.6445619 C167.53482,8.88358779 168.854926,9.70988989 167.892366,12.60152 C166.929806,15.4931501 165.032277,17.2557 165.032277,17.2557 L164.42698,21.4689577 C164.42698,21.4689577 164.262002,18.0267444 163.547193,17.7513104 C162.8321,17.4758763 160.173682,16.9241538 158.937486,15.832102 C155.539228,12.8316655 155.021824,10.811626 155.021824,10.811626" id="Fill-239" fill="#8E1926"></path>
                            <path d="M15.8159929,85.8816699 C15.5992462,84.4159165 14.1664996,83.7548179 12.7627662,83.7382975 C12.7641884,83.7351644 12.7670329,83.7326009 12.7684551,83.7294677 C12.8810951,83.508152 12.8549262,83.3594689 12.8498062,83.1105244 C12.8404196,82.6374159 12.8682951,81.8760559 12.8031573,81.4277279 C12.7505351,81.0637106 12.7189618,81.0802309 12.4154596,80.8506551 C12.1881884,80.6791853 11.5772018,80.2630435 11.2554951,80.2473777 C10.7830329,80.2240213 10.4846507,80.5510102 10.0198684,80.6219338 C9.90808178,80.4080238 9.54171733,80.4313801 9.56589511,80.7196317 C9.59633067,81.083649 9.54683733,81.7584196 9.77439289,82.0523678 C9.84095289,82.1381027 9.89300622,82.1494961 9.97492622,82.2073173 C9.98772622,82.2110201 9.99995733,82.2175713 10.0124729,82.2215589 C9.50929067,82.3927439 8.737024,82.4309116 8.32969956,82.531173 C7.39160178,82.762173 6.38637511,82.9518721 5.52507733,83.4053271 C5.48895289,83.4241261 5.50943289,83.4970435 5.55124622,83.4802383 C6.51551289,83.0965676 7.63337956,82.9515873 8.64628622,82.7325503 C9.19412622,82.6143444 9.96297956,82.5795947 10.5549084,82.3588487 C10.5816462,82.4052766 10.5770951,82.478194 10.5372729,82.5815885 C10.6223218,82.7066305 10.5873351,82.9475996 10.6325618,83.1110941 C10.7139129,83.3136107 10.8009529,83.5141335 10.8931129,83.711808 C11.138304,84.0140164 11.115264,84.1367797 10.8242773,84.0803826 C10.7036729,84.211406 10.1316551,84.3304665 9.993984,84.392845 C9.62420622,84.5608968 9.28145067,84.7711039 8.94210844,84.9918499 C8.77599289,85.1000867 8.84909511,85.4455898 9.07409067,85.3718179 C9.27149511,85.3068758 10.3492551,84.8705109 10.5039929,84.9659301 C10.313984,84.8485787 10.8609707,85.9676896 10.7597084,85.725866 C11.1072996,86.5555861 11.5464818,87.4673382 11.998464,88.2529091 C12.044544,88.3332322 12.0965973,88.3998832 12.1509262,88.4605528 C12.1051307,88.6183506 12.1844907,88.8043469 12.390144,88.8351089 C13.2190151,88.9595811 14.0390684,88.6553789 14.6756551,88.2577513 C14.7021084,88.070046 14.704384,88.2759806 14.7075129,88.2734171 C15.5028196,87.7721101 15.984384,87.0207192 15.8159929,85.8816699" id="Fill-241" fill="#B2270D"></path>
                            <path d="M6.19377778,77.082991 C5.07733333,77.069319 3.00629333,76.8710748 1.89468444,76.9690576 C1.72344889,76.9838689 1.66030222,77.1658776 1.75502222,77.3006038 C1.92824889,77.5458455 2.08213333,77.8039047 2.26844444,78.0403165 C2.36401778,78.1613708 2.47153778,78.2656199 2.57763556,78.3764201 C2.73578667,78.5413387 3.41816889,79.1685422 3.64942222,79.1713905 C3.85763556,79.1742388 3.91480889,78.7706297 4.11960889,78.7458492 C4.35057778,78.7179355 4.37617778,78.5954571 4.60686222,78.5641254 C5.06794667,78.5017469 5.38737778,78.3299922 5.84476444,78.2453967 C5.89511111,78.2359972 5.94545778,78.2265977 5.99580444,78.2166285 C6.03562667,78.2092228 6.07573333,78.2015323 6.11584,78.1932721 C6.19776,78.1773215 6.26602667,78.0793387 6.26318222,77.9973067 C6.23331556,77.141097 7.03488,77.0935298 6.19377778,77.082991" id="Fill-243" fill="#B2270D"></path>
                            <path d="M13.2720924,77.8576813 C12.8027591,77.1823409 12.5288391,76.2933755 12.2799502,75.5063804 C12.0242347,74.6983076 11.9064747,74.0315123 11.8387769,73.2057799 C11.812608,72.8864815 11.7827413,72.5871215 11.6601458,72.2894704 C11.6211769,72.194336 11.5042702,72.211426 11.454208,72.2823496 C11.2337636,72.5956665 11.1933724,72.8981597 10.8958436,73.1895444 C10.4242347,73.6515444 9.81211022,73.544447 9.15618133,73.4900438 C8.18167467,73.409151 6.69431467,73.4686813 6.19141689,72.5623409 C6.18601244,72.5321486 6.18259911,72.5019562 6.17691022,72.471479 C6.16752356,72.423627 6.142208,72.3985617 6.11205689,72.3880228 C6.11063467,72.3846048 6.10864356,72.3814716 6.10750578,72.3780536 C6.09015467,72.3296319 6.03383467,72.3566911 6.02643911,72.3974223 C5.98462578,72.4204938 5.95191467,72.4669217 5.95845689,72.5287306 C6.14334578,74.2422891 6.18032356,75.9253705 6.17577244,77.6491831 C6.17321244,78.4726369 6.15586133,79.3513483 6.249728,80.1696751 C6.28215467,80.4519451 6.23835022,80.737918 6.48183467,80.9461313 C7.03479467,81.4186702 8.60777244,80.773807 9.21477689,80.6262633 C10.0339769,80.4271646 10.9592747,80.0728317 11.5674169,79.4419254 C11.6894436,79.8016702 11.8529991,80.1015999 12.1943324,80.3713372 C12.4466347,80.5707207 13.1190613,80.6293964 13.2783502,80.8193804 C13.6873813,81.3064457 13.2186169,83.003484 13.765888,83.7745284 C13.9004302,83.9639427 14.1552924,83.7970302 14.1669547,83.6104642 C14.2076302,82.9422448 14.1965369,82.2760191 14.2619591,81.6077996 C14.3131591,81.0862694 14.5626169,80.4792891 14.5455502,79.9665888 C14.5156836,79.0875925 13.7254969,78.5093804 13.2720924,77.8576813" id="Fill-245" fill="#B2270D"></path>
                            <path d="M15.149312,84.4778393 C14.5488498,83.804208 14.3264142,83.725594 14.2319787,83.2843868 C14.0900409,82.6204398 14.6990364,80.5659355 14.5582364,79.9518344 C14.4865564,79.6405113 14.6466987,79.2400354 13.5905564,78.2117863 C13.549312,78.1719096 12.2593564,75.250372 12.2573653,75.3936433 C12.2530987,75.6813252 12.3586276,77.7138973 12.4240498,78.1858665 C12.4314453,78.2388455 12.4328676,78.2906852 12.4317298,78.3442339 C12.4175076,78.9509293 12.5287253,79.4676174 11.3397476,79.9552524 C11.1107698,80.0489626 10.8593209,80.0666223 10.6144142,80.0315878 C9.66152533,79.8957222 6.57501867,80.5622327 6.48428089,78.6404608 C6.48086756,78.5735249 6.388992,78.5678282 6.38586311,78.6370428 C6.35884089,79.2408899 6.179072,79.5912351 6.66575644,79.9005644 C6.97807644,80.0993782 7.82173867,80.1198862 8.22621867,80.1728652 C8.59002311,80.2204324 9.86319644,80.0751673 10.0048498,80.5286223 C10.1140764,80.8783979 9.66749867,81.042462 9.396992,81.0789207 C9.35176533,81.0849022 9.30511644,81.0894596 9.26500978,81.1113917 C9.189632,81.1521229 9.18052978,81.2882734 9.29060978,81.2657715 C9.44534756,81.234155 9.59212089,81.210229 9.72495644,81.1791821 C9.94938311,81.1922845 10.9557476,80.9988825 11.1187342,80.998028 C12.0556942,80.9937555 12.6900053,81.886139 12.6004053,82.7770983 C12.561152,83.1647567 12.3830898,83.5327617 12.1447253,83.8358245 C12.0969387,83.8967789 12.0500053,83.9691266 11.9788942,83.9990342 C11.8938453,84.0349232 11.7760853,84.0372018 11.6847787,84.0599885 C11.4794098,84.1115434 11.2783076,84.1799035 11.0823253,84.2605113 C10.9941476,84.29697 11.0163342,84.4299873 11.1164587,84.418594 C11.2441742,84.4040674 11.3607964,84.3855533 11.4720142,84.3647604 C11.7618631,84.3727358 12.2530987,84.2616507 12.410112,84.261081 C13.3089564,84.2582327 15.264512,84.6068689 15.149312,84.4778393" id="Fill-247" fill="#8E1926"></path>
                            <path d="M6.99793067,79.3004771 C6.49019733,77.993376 6.48479289,76.6925412 6.42136178,75.3096744 C6.36703289,74.1310332 6.52802844,72.8883044 6.36959289,71.7278926 C6.33858844,71.4997409 6.04987733,71.5746522 6.02456178,71.76663 C5.83227733,73.2147237 5.93553067,74.6725017 6.00351289,76.1257224 C6.05784178,77.2921158 5.887744,78.6205794 6.883584,79.4164043 C6.95924622,79.4770739 7.02324622,79.3657039 6.99793067,79.3004771" id="Fill-249" fill="#FF5B0C"></path>
                            <path d="M9.96960711,84.9768392 C8.72402489,85.4986543 7.00398933,85.7760821 5.86422044,84.9708577 C5.97543822,85.1730895 6.11168711,85.34342 6.32587378,85.4644742 C6.77074489,85.7156974 7.330816,85.7888996 7.90141156,85.7829181 C8.63158044,85.673542 9.31965156,85.3858602 9.988096,85.0144372 C10.0108516,85.0019046 9.99378489,84.9665852 9.96960711,84.9768392" id="Fill-251" fill="#FF5B0C"></path>
                            <path d="M15.7065387,87.2758162 C15.7489209,87.111752 15.7762276,86.9519604 15.7958542,86.7944475 C15.5708587,87.1422292 15.315712,87.4732058 15.0770631,87.8144364 C14.3090631,88.4931947 13.2045653,88.7982514 12.2115698,88.8372736 C11.2879787,88.8740171 9.40552533,89.2383192 8.698112,88.3470751 C8.39574756,87.965683 8.12694756,87.3789259 7.72673422,86.9422761 C8.11528533,88.165921 8.91286756,89.146318 10.3641031,89.2041392 C11.5533653,89.2514216 12.9514098,88.9096213 14.0954453,88.6319086 C15.0483342,88.4006238 15.4420053,88.2952354 15.7065387,87.2758162" id="Fill-253" fill="#FF5B0C"></path>
                            <path d="M9.11320178,82.2653663 C8.02065067,82.5707079 6.95881956,83.0956561 5.79458844,83.0560642 C4.93983289,83.0272961 4.06857956,82.4607621 3.56824178,81.7295945 C3.59156622,81.8967917 3.62200178,82.0582924 3.67035733,82.2038423 C3.86008178,82.7746487 4.68098844,83.2585809 5.23394844,83.4012825 C5.34232178,83.4291962 5.45410844,83.4471407 5.56731733,83.4596734 C6.85016178,83.4796117 7.960064,82.8054107 9.13681067,82.3736031 C9.19682844,82.3516709 9.18004622,82.2468522 9.11320178,82.2653663" id="Fill-255" fill="#FF5B0C"></path>
                            <path d="M58.3009849,83.0144501 C57.885696,81.543 57.1256604,80.1430432 56.5880604,78.7091911 C55.9406649,76.984524 55.2548693,75.3165388 54.7130027,73.5542737 C54.3096604,72.2420456 53.5860338,71.2234809 52.6155093,70.2658705 C52.5449671,70.1963711 52.4428516,70.1650395 52.3523982,70.2197275 C51.426816,70.7771467 51.7687182,72.2668261 51.966976,73.1247448 C52.0998116,73.699254 52.3117227,74.2290444 52.5668693,74.7354784 C53.113856,77.2485647 53.8448782,79.7078175 54.8927716,82.0773477 C53.9299271,82.7347435 53.0373404,83.4898372 52.0605582,84.1272947 C50.9034382,84.8823884 43.1802027,89.4796017 43.3673671,89.5499556 C45.5871716,90.3828089 48.6930204,89.4457065 50.8476871,88.8418594 C53.2082916,88.180476 56.4333227,87.720185 58.0614827,85.6218163 C58.6463004,84.8687164 58.5456071,83.8817682 58.3009849,83.0144501" id="Fill-257" fill="#944308"></path>
                        </g>
                    </g>
                </g>
            </g>
        </g>
    </g>
</svg>