<svg width="60" height="60" viewBox="0 0 60 60" fill="none" xmlns="http://www.w3.org/2000/svg">
<rect width="60" height="60" rx="30" fill="#D1F1EA"/>
<path d="M37.0703 23.1797C37.526 23.6354 37.9362 24.1302 38.3008 24.6641C38.6523 25.1979 38.9518 25.7643 39.1992 26.3633C39.4596 26.9622 39.6615 27.5872 39.8047 28.2383C39.9349 28.8893 40 29.5599 40 30.25C40 30.9401 39.9349 31.6107 39.8047 32.2617C39.6615 32.9128 39.4596 33.5378 39.1992 34.1367C38.9518 34.7357 38.6523 35.3021 38.3008 35.8359C37.9362 36.3698 37.526 36.8646 37.0703 37.3203C36.6146 37.776 36.1198 38.1862 35.5859 38.5508C35.0521 38.9023 34.4857 39.2018 33.8867 39.4492C33.2878 39.7096 32.6628 39.9115 32.0117 40.0547C31.3607 40.1849 30.6901 40.25 30 40.25C28.6198 40.25 27.3242 39.9896 26.1133 39.4688C24.8893 38.9479 23.8216 38.2383 22.9102 37.3398C22.0117 36.4284 21.3021 35.3607 20.7812 34.1367C20.2604 32.9258 20 31.6302 20 30.25C20 28.8698 20.2604 27.5742 20.7812 26.3633C21.3021 25.1393 22.0117 24.0781 22.9102 23.1797C23.8216 22.2682 24.8893 21.5521 26.1133 21.0312C27.3242 20.5104 28.6198 20.25 30 20.25C30.6901 20.25 31.3607 20.3151 32.0117 20.4453C32.6628 20.5885 33.2878 20.7904 33.8867 21.0508C34.4857 21.2982 35.0521 21.5977 35.5859 21.9492C36.1198 22.3138 36.6146 22.724 37.0703 23.1797ZM34.1602 28.5508C34.2253 28.4857 34.2773 28.4076 34.3164 28.3164C34.3555 28.2253 34.375 28.1276 34.375 28.0234C34.375 27.9193 34.3555 27.8216 34.3164 27.7305C34.2773 27.6393 34.2253 27.5612 34.1602 27.4961L33.5742 26.9102C33.5091 26.8451 33.431 26.793 33.3398 26.7539C33.2487 26.7148 33.151 26.6953 33.0469 26.6953C32.9427 26.6953 32.8451 26.7148 32.7539 26.7539C32.6628 26.793 32.5846 26.8451 32.5195 26.9102L28.4375 31.0117L26.7773 29.3516C26.6992 29.2865 26.6146 29.2344 26.5234 29.1953C26.4453 29.1562 26.3542 29.1367 26.25 29.1367C26.1458 29.1367 26.0482 29.1562 25.957 29.1953C25.8659 29.2344 25.7878 29.2865 25.7227 29.3516L25.1367 29.9375C25.0716 30.0026 25.0195 30.0807 24.9805 30.1719C24.9414 30.263 24.9219 30.3607 24.9219 30.4648C24.9219 30.556 24.9414 30.6471 24.9805 30.7383C25.0195 30.8294 25.0716 30.9076 25.1367 30.9727L27.6172 33.4531C27.7214 33.5573 27.8385 33.6419 27.9688 33.707C28.112 33.7721 28.2682 33.8047 28.4375 33.8047C28.5938 33.8047 28.737 33.7721 28.8672 33.707C29.0104 33.6419 29.1341 33.5573 29.2383 33.4531L34.1602 28.5508Z" fill="#1ABC9C"/>
</svg>
