<?xml version="1.0" encoding="UTF-8"?>
<svg width="14px" height="14px" viewBox="0 0 14 14" version="1.1" xmlns="http://www.w3.org/2000/svg" xmlns:xlink="http://www.w3.org/1999/xlink">
    <!-- Generator: sketchtool 64 (101010) - https://sketch.com -->
    <title>80A5CDF1-A344-45DE-B99C-00E1C45F1672</title>
    <desc>Created with sketchtool.</desc>
    <g id="Malware-Scanning" stroke="none" stroke-width="1" fill="none" fill-rule="evenodd">
        <g id="Malware-Scanning---Compare-files" transform="translate(-1048.000000, -981.000000)" fill="#7E7E7E" fill-rule="nonzero">
            <g id="Body" transform="translate(410.000000, 386.000000)">
                <g id="Expanded-dark" transform="translate(0.000000, 376.000000)">
                    <path d="M645,230.018934 C647.231383,230.018934 649.040276,228.210041 649.040276,225.978658 C649.040276,223.747275 647.231383,221.938382 645,221.938382 C642.768617,221.938382 640.959724,223.747275 640.959724,225.978658 C640.959724,228.210041 642.768617,230.018934 645,230.018934 L645,230.018934 Z M645,219 C644.797147,219 644.632702,219.158491 644.632702,219.363911 L644.632702,220.839876 C644.632702,221.040858 644.80308,221.203787 645,221.203787 C645.202853,221.203787 645.367298,221.045296 645.367298,220.839876 L645.367298,219.363911 C645.367298,219.162928 645.19692,219 645,219 L645,219 Z M649.949747,221.050253 C649.806309,220.906814 649.577959,220.902604 649.432705,221.047857 L648.38904,222.091523 C648.246924,222.233639 648.252191,222.469321 648.391435,222.608565 C648.534874,222.752004 648.763224,222.756214 648.908477,222.61096 L649.952143,221.567295 C650.094259,221.425179 650.088991,221.189496 649.949747,221.050253 L649.949747,221.050253 Z M652,226 C652,225.797147 651.841509,225.632702 651.636089,225.632702 L650.160124,225.632702 C649.959142,225.632702 649.796213,225.80308 649.796213,226 C649.796213,226.202853 649.954704,226.367298 650.160124,226.367298 L651.636089,226.367298 C651.837072,226.367298 652,226.19692 652,226 L652,226 Z M649.949747,230.949747 C650.093186,230.806309 650.097396,230.577959 649.952143,230.432705 L648.908477,229.38904 C648.766361,229.246924 648.530679,229.252191 648.391435,229.391435 C648.247996,229.534874 648.243786,229.763224 648.38904,229.908477 L649.432705,230.952143 C649.574821,231.094259 649.810504,231.088991 649.949747,230.949747 L649.949747,230.949747 Z M645,233 C645.202853,233 645.367298,232.841509 645.367298,232.636089 L645.367298,231.160124 C645.367298,230.959142 645.19692,230.796213 645,230.796213 C644.797147,230.796213 644.632702,230.954704 644.632702,231.160124 L644.632702,232.636089 C644.632702,232.837072 644.80308,233 645,233 L645,233 Z M640.050253,230.949747 C640.193691,231.093186 640.422041,231.097396 640.567295,230.952143 L641.61096,229.908477 C641.753076,229.766361 641.747809,229.530679 641.608565,229.391435 C641.465126,229.247996 641.236776,229.243786 641.091523,229.38904 L640.047857,230.432705 C639.905741,230.574821 639.911009,230.810504 640.050253,230.949747 L640.050253,230.949747 Z M638,226 C638,226.202853 638.158491,226.367298 638.363911,226.367298 L639.839876,226.367298 C640.040858,226.367298 640.203787,226.19692 640.203787,226 C640.203787,225.797147 640.045296,225.632702 639.839876,225.632702 L638.363911,225.632702 C638.162928,225.632702 638,225.80308 638,226 L638,226 Z M640.050253,221.050253 C639.906814,221.193691 639.902604,221.422041 640.047857,221.567295 L641.091523,222.61096 C641.233639,222.753076 641.469321,222.747809 641.608565,222.608565 C641.752004,222.465126 641.756214,222.236776 641.61096,222.091523 L640.567295,221.047857 C640.425179,220.905741 640.189496,220.911009 640.050253,221.050253 L640.050253,221.050253 Z" id="sun"></path>
                </g>
            </g>
        </g>
    </g>
</svg>