<svg xmlns="http://www.w3.org/2000/svg" viewBox="0 0 153 155">
  <g fill="none" fill-rule="evenodd">
    <path stroke="#30383D" stroke-width="3" d="M75.763 146.488c38.375 0 69.485-31.335 69.485-69.99 0-38.656-31.11-69.991-69.485-69.991-38.374 0-69.485 31.335-69.485 69.991 0 38.655 31.11 69.99 69.485 69.99Z"/>
    <path fill="#AE542D" d="M19.08 25.828c-27.812 31.666-24.875 80.045 6.562 108.06 9.667 8.616 20.906 14.29 32.64 17.112l.002-3.16c-11.01-2.768-21.544-8.149-30.628-16.245-30.18-26.895-32.999-73.34-6.298-103.737 26.7-30.4 72.807-33.239 102.987-6.345 30.177 26.894 32.998 73.337 6.298 103.737-9.869 11.236-22.39 18.694-35.779 22.29v3.174c14.242-3.662 27.583-11.51 38.056-23.434 27.812-31.665 24.875-80.046-6.56-108.06C94.921-8.797 46.891-5.838 19.08 25.827"/>
    <path fill="#AE542D" d="M71.05 152.95a7.001 7.001 0 1 0 9.9-9.902 7.001 7.001 0 0 0-9.9 9.902"/>
    <path fill="#30383D" d="M75.992 151 79 147.848l-.808-.848-2.249 2.355-2.182-2.287-.761.798z"/>
  </g>
</svg>
