<svg xmlns="http://www.w3.org/2000/svg" viewBox="0 0 65 65" width="24" height="24">
  <path fill="#0A66C2" fill-rule="nonzero" d="M55.205 55.205h-9.6V40.17c0-3.585-.064-8.2-4.993-8.2-5 0-5.765 3.906-5.765 7.94v15.293h-9.6V24.288h9.216v4.225h.129a10.1 10.1 0 0 1 9.093-4.994c9.73 0 11.524 6.4 11.524 14.726l-.004 16.96Zm-40.79-35.143a5.571 5.571 0 1 1-.002-11.142 5.571 5.571 0 0 1 .002 11.142m4.8 35.143h-9.61V24.288h9.61v30.917ZM59.991.005H4.781A4.728 4.728 0 0 0 0 4.675v55.44a4.732 4.732 0 0 0 4.781 4.674h55.21a4.742 4.742 0 0 0 4.8-4.675V4.67a4.739 4.739 0 0 0-4.8-4.67"/>
</svg>