<svg xmlns="http://www.w3.org/2000/svg" viewBox="0 0 20 20" width="24" height="24"><path fill="#BF5700" d="M10.002 4.871a5.118 5.118 0 0 0-5.126 5.127 5.118 5.118 0 0 0 5.126 5.126 5.118 5.118 0 0 0 5.127-5.126 5.118 5.118 0 0 0-5.127-5.127Zm0 8.46A3.339 3.339 0 0 1 6.67 9.998c0-1.838 1.495-3.333 3.333-3.333s3.333 1.495 3.333 3.333-1.499 3.333-3.333 3.333Zm6.532-8.67c0 .665-.535 1.196-1.195 1.196a1.195 1.195 0 1 1 1.196-1.196Zm3.396 1.214c-.076-1.602-.442-3.02-1.615-4.19C17.145.516 15.727.151 14.125.07c-1.65-.093-6.6-.093-8.25 0-1.597.076-3.016.442-4.19 1.611C.512 2.85.151 4.269.07 5.871c-.093 1.65-.093 6.599 0 8.25.076 1.601.442 3.02 1.615 4.19 1.174 1.168 2.588 1.534 4.19 1.614 1.65.094 6.6.094 8.25 0 1.602-.076 3.02-.441 4.19-1.615 1.169-1.169 1.534-2.588 1.615-4.19.093-1.65.093-6.594 0-8.245Zm-2.133 10.017a3.374 3.374 0 0 1-1.9 1.9c-1.317.523-4.44.402-5.895.402-1.454 0-4.582.116-5.894-.401a3.374 3.374 0 0 1-1.9-1.901c-.523-1.316-.402-4.44-.402-5.894 0-1.455-.116-4.582.401-5.894a3.374 3.374 0 0 1 1.901-1.901c1.316-.522 4.44-.402 5.894-.402 1.455 0 4.582-.116 5.894.402a3.374 3.374 0 0 1 1.901 1.9c.522 1.317.402 4.44.402 5.895 0 1.454.12 4.582-.402 5.894Z"/></svg>