<svg xmlns="http://www.w3.org/2000/svg" viewBox="0 0 20 22" width="24" height="24"><path fill="#BF5700" d="M20 7.039c0-4.65-3.05-6.014-3.05-6.014-2.99-1.374-10.935-1.36-13.898 0 0 0-3.049 1.363-3.049 6.014 0 5.536-.315 12.411 5.055 13.832 1.938.512 3.603.622 4.944.546 2.43-.134 3.795-.866 3.795-.866l-.082-1.766s-1.737.546-3.69.484c-1.933-.067-3.97-.21-4.288-2.584a4.906 4.906 0 0 1-.043-.665c4.097 1 7.59.435 8.553.32 2.685-.32 5.024-1.976 5.322-3.488.469-2.382.43-5.813.43-5.813Zm-3.595 5.99h-2.231V7.565c0-2.378-3.062-2.469-3.062.33v2.99H8.895v-2.99c0-2.8-3.062-2.708-3.062-.33v5.464H3.597c0-5.842-.249-7.077.88-8.373 1.24-1.383 3.82-1.474 4.969.292L10 5.88l.555-.933c1.153-1.776 3.737-1.666 4.968-.292 1.134 1.306.88 2.536.88 8.373h.001Z"/></svg>