<?xml version="1.0" encoding="UTF-8"?>
<svg width="42px" height="43px" viewBox="0 0 42 43" version="1.1" xmlns="http://www.w3.org/2000/svg" xmlns:xlink="http://www.w3.org/1999/xlink">
    <title>circles-small</title>
    <g id="circles-small" stroke="none" fill="none" transform="translate(0.9098, 0.4498)" fill-rule="evenodd">
        <path d="M1.65016671,33.7501667 L2.01016671,34.1001667 C2.70016671,33.4001667 3.61016671,33.0501667 4.52016671,33.0501667 C5.43016671,33.0501667 6.30016671,33.3801667 6.98016671,34.0601667 C7.68016671,34.7501667 8.03016671,35.6601667 8.03016671,36.5701667 C8.03016671,37.4601667 7.70016671,38.3501667 7.02016671,39.0301667 C6.33016671,39.7301667 5.42016671,40.0801667 4.51016671,40.0801667 C3.60016671,40.0801667 2.73016671,39.7501667 2.05016671,39.0701667 C1.35016671,38.3801667 1.00016671,37.4701667 1.00016671,36.5601667 C1.00016671,35.6701667 1.33016671,34.7801667 2.01016671,34.1001667 L1.65016671,33.7501667 L1.29016671,33.4001667 C0.430166708,34.2801667 -0.00983329216,35.4201667 0.000166707842,36.5601667 C0.000166707842,37.7301667 0.450166708,38.9001667 1.35016671,39.7801667 C2.23016671,40.6401667 3.37016671,41.0801667 4.51016671,41.0701667 C5.68016671,41.0701667 6.85016671,40.6201667 7.73016671,39.7201667 C8.59016671,38.8401667 9.02016671,37.7001667 9.02016671,36.5601667 C9.02016671,35.4201667 8.57016671,34.2201667 7.67016671,33.3401667 C6.79016671,32.4801667 5.65016671,32.0401667 4.51016671,32.0501667 C3.34016671,32.0501667 2.17016671,32.5001667 1.29016671,33.4001667 L1.65016671,33.7501667 Z" id="Path-Copy-4" fill="#BF5700"></path>
        <path d="M12.1601667,23.0601667 C13.7101667,21.4801667 16.2601667,21.4601667 17.8401667,23.0101667 C19.4201667,24.5701667 19.4401667,27.1101667 17.8901667,28.6901667 C16.3401667,30.2701667 13.7901667,30.2901667 12.2101667,28.7401667 C10.6301667,27.1901667 10.6101667,24.6401667 12.1601667,23.0601667" id="Path-Copy-3" fill="#F8971F"></path>
        <path d="M22.6601667,12.3701667 L23.0201667,12.7201667 C23.7101667,12.0201667 24.6201667,11.6701667 25.5301667,11.6701667 C26.4401667,11.6701667 27.3101667,12.0001667 27.9901667,12.6801667 C28.6901667,13.3701667 29.0401667,14.2801667 29.0401667,15.1901667 C29.0401667,16.0801667 28.7101667,16.9701667 28.0301667,17.6501667 C27.3401667,18.3501667 26.4301667,18.7001667 25.5201667,18.7001667 C24.6301667,18.7001667 23.7401667,18.3701667 23.0601667,17.6901667 C22.3601667,17.0001667 22.0101667,16.0901667 22.0101667,15.1801667 C22.0101667,14.2701667 22.3401667,13.4001667 23.0201667,12.7201667 L22.6601667,12.3701667 L22.3001667,12.0201667 C21.4401667,12.9001667 21.0001667,14.0401667 21.0101667,15.1901667 C21.0101667,16.3601667 21.4601667,17.5301667 22.3601667,18.4101667 C23.2401667,19.2701667 24.3801667,19.7101667 25.5201667,19.7001667 C26.6901667,19.7001667 27.8601667,19.2501667 28.7401667,18.3501667 C29.6001667,17.4701667 30.0401667,16.3301667 30.0401667,15.1901667 C30.0401667,14.0501667 29.5901667,12.8501667 28.6901667,11.9701667 C27.8101667,11.1101667 26.6701667,10.6701667 25.5201667,10.6701667 C24.3501667,10.6701667 23.1801667,11.1201667 22.3001667,12.0201667 L22.6601667,12.3701667 Z" id="Path-Copy-2" fill="#BF5700"></path>
        <path d="M33.1601667,1.69016671 L33.5201667,2.04016671 C34.2101667,1.34016671 35.1201667,0.990166708 36.0301667,0.990166708 C36.9401667,0.990166708 37.8101667,1.32016671 38.4901667,2.00016671 C39.1901667,2.69016671 39.5401667,3.60016671 39.5401667,4.51016671 C39.5401667,5.40016671 39.2101667,6.29016671 38.5301667,6.97016671 C37.8401667,7.67016671 36.9301667,8.02016671 36.0201667,8.02016671 C35.1301667,8.02016671 34.2401667,7.69016671 33.5601667,7.01016671 C32.8601667,6.32016671 32.5101667,5.41016671 32.5101667,4.50016671 C32.5101667,3.59016671 32.8401667,2.72016671 33.5201667,2.04016671 L33.1601667,1.69016671 L32.8001667,1.34016671 C31.9401667,2.22016671 31.5101667,3.36016671 31.5101667,4.51016671 C31.5101667,5.68016671 31.9601667,6.85016671 32.8601667,7.73016671 C33.7401667,8.59016671 34.8801667,9.03016671 36.0301667,9.02016671 C37.2001667,9.02016671 38.3701667,8.57016671 39.2501667,7.67016671 C40.1101667,6.79016671 40.5401667,5.65016671 40.5401667,4.51016671 C40.5401667,3.37016671 40.0901667,2.17016671 39.1901667,1.29016671 C38.3101667,0.430166708 37.1701667,-0.00983329216 36.0201667,0.000166707842 C34.8501667,0.000166707842 33.6801667,0.450166708 32.8001667,1.35016671 L33.1601667,1.70016671 L33.1601667,1.69016671 Z" id="Path-Copy" fill="#F8971F"></path>
    </g>
</svg>