<?xml version="1.0" encoding="UTF-8"?>
<svg width="373px" height="374px" viewBox="0 0 373 374" version="1.1" xmlns="http://www.w3.org/2000/svg" xmlns:xlink="http://www.w3.org/1999/xlink">
    <title>circles-middle</title>
    <defs>
        <path d="M0,0 L372.28,0 L372.28,372.28 L0,372.28 L0,0 Z" id="path-1"></path>
    </defs>
    <g id="circles-middle" stroke="none" fill="none" transform="translate(0.69, 0.79)" xlink:href="#path-1">
        <path d="M185.28,36.1828731 C101.985383,36.1828731 34.4628731,103.705383 34.4628731,187 C34.4628731,270.294617 101.985383,337.817127 185.28,337.817127 C268.574617,337.817127 336.097127,270.294617 336.097127,187 C336.097127,103.705383 268.574617,36.1828731 185.28,36.1828731" id="circle-bk" fill="#BE5827" fill-rule="evenodd"></path>
        <path d="M185.28,36.1828731 C101.985383,36.1828731 34.4628731,103.705383 34.4628731,187 C34.4628731,270.294617 101.985383,337.817127 185.28,337.817127 C268.574617,337.817127 336.097127,270.294617 336.097127,187 C336.097127,103.705383 268.574617,36.1828731 185.28,36.1828731" id="circle-bk-border" stroke="#F8971F" stroke-width="6"></path>
        <path d="M185.28,367.601322 L185.28,367.202643 C135.513265,367.202643 90.4723284,347.03535 57.8584893,314.421511 C25.2446503,281.807672 5.07735683,236.766735 5.07735683,187 C5.07735683,137.233265 25.2446503,92.1923284 57.8584893,59.5784893 C90.4723284,26.9646503 135.513265,6.79735683 185.28,6.79735683 C235.046735,6.79735683 280.087672,26.9646503 312.701511,59.5784893 C345.31535,92.1923284 365.482643,137.233265 365.482643,187 C365.482643,236.766735 345.31535,281.807672 312.701511,314.421511 C280.087672,347.03535 235.046735,367.202643 185.28,367.202643 L185.28,368 C285.241319,368 366.28,286.961319 366.28,187 C366.28,87.0386806 285.241319,6 185.28,6 C85.3186806,6 4.28,87.0386806 4.28,187 C4.28,286.961319 85.3186806,368 185.28,368 L185.28,367.601322 L185.28,367.601322 Z" id="circle-outer-border" stroke="#BE5827" stroke-width="3"></path>
        <path d="M305.923978,263.147577 C277.044102,263.147577 253.638762,286.562641 253.638762,315.432793 C253.638762,344.302944 277.053826,367.718008 305.923978,367.718008 C334.794129,367.718008 358.209193,344.312668 358.209193,315.432793 C358.209193,286.552917 334.794129,263.147577 305.923978,263.147577" id="circle-md-bk" fill="#F8971F" fill-rule="evenodd"></path>
        <path d="M305.923978,263.147577 C277.044102,263.147577 253.638762,286.562641 253.638762,315.432793 C253.638762,344.302944 277.053826,367.718008 305.923978,367.718008 C334.794129,367.718008 358.209193,344.312668 358.209193,315.432793 C358.209193,286.552917 334.794129,263.147577 305.923978,263.147577" id="circle-md-bk-border" stroke="#BE5827" stroke-width="3"></path>
        <g id="2025" stroke-width="1" fill-rule="evenodd" transform="translate(66.1802, 137.2313)" fill="#FFFFFF">
            <path d="M44.6247556,54.0588482 C51.0638981,46.1222306 56.3050607,38.9343505 56.3050607,26.8048028 C56.3050607,9.58384012 46.8709681,0 28.0027829,0 C7.7868701,0 0,12.4290427 0,30.3987429 L0,36.688138 L20.9646503,36.688138 L20.9646503,28.6017729 C20.9646503,22.4621253 22.1626303,17.3707102 28.0027829,17.3707102 C33.6931879,17.3707102 34.8911679,21.4138928 34.8911679,26.6550553 C34.8911679,35.6399054 29.7997529,42.079048 24.5585903,48.6679381 L0,79.8154185 L0,95.5389062 L55.8558182,95.5389062 L55.8558182,77.1199635 L25.9063178,77.1199635 L44.6247556,54.0588482 Z" id="Path" fill-rule="nonzero"></path>
            <path d="M121.200469,43.277028 C121.200469,16.1727302 112.664861,0 90.6519783,0 C68.6390955,0 60.1034879,16.1727302 60.1034879,43.277028 L60.1034879,53.4598582 C60.1034879,80.564156 68.6390955,96.7368862 90.6519783,96.7368862 C112.664861,96.7368862 121.200469,80.564156 121.200469,53.4598582 L121.200469,43.277028 Z M82.7153607,32.1957129 C82.7153607,23.8098528 84.2128357,17.8199527 90.6519783,17.8199527 C97.0911209,17.8199527 98.5885959,23.8098528 98.5885959,32.1957129 L98.5885959,64.5411733 C98.5885959,72.9270334 97.0911209,78.9169335 90.6519783,78.9169335 C84.2128357,78.9169335 82.7153607,72.9270334 82.7153607,64.5411733 L82.7153607,32.1957129 Z" id="Shape" fill-rule="nonzero"></path>
            <path d="M169.623651,54.0588482 C176.062794,46.1222306 181.303957,38.9343505 181.303957,26.8048028 C181.303957,9.58384012 171.869864,0 153.001679,0 C132.785766,0 124.998896,12.4290427 124.998896,30.3987429 L124.998896,36.688138 L145.963546,36.688138 L145.963546,28.6017729 C145.963546,22.4621253 147.161526,17.3707102 153.001679,17.3707102 C158.692084,17.3707102 159.890064,21.4138928 159.890064,26.6550553 C159.890064,35.6399054 154.798649,42.079048 149.557486,48.6679381 L124.998896,79.8154185 L124.998896,95.5389062 L180.854714,95.5389062 L180.854714,77.1199635 L150.905214,77.1199635 L169.623651,54.0588482 Z" id="Path" fill-rule="nonzero"></path>
            <path d="M185.102384,54.5080907 L204.569559,56.1553132 C205.767539,51.8126357 207.414762,48.6679381 212.655924,48.6679381 C218.496077,48.6679381 220.742289,53.0106157 220.742289,63.7924358 C220.742289,74.7240034 218.496077,79.2164285 212.506177,79.2164285 C206.516276,79.2164285 204.270064,74.5742559 204.270064,66.9371333 L204.270064,62.2949608 L184.353646,62.2949608 L184.353646,66.9371333 C184.353646,85.5058236 192.739506,96.7368862 213.105167,96.7368862 C232.123099,96.7368862 241.557192,85.6555711 241.557192,63.7924358 C241.557192,42.2287955 233.171332,31.5967229 218.496077,31.5967229 C211.907187,31.5967229 207.714257,33.5434404 205.018801,36.688138 C205.617791,32.9444504 206.067034,24.8580853 206.366529,20.5154078 L237.663757,20.5154078 L237.663757,1.19798002 L189.744556,1.19798002 C189.445061,16.7717202 187.049101,40.4318255 185.102384,54.5080907 Z" id="Path" fill-rule="nonzero"></path>
        </g>
    </g>
</svg>