<svg version="1.0" xmlns="http://www.w3.org/2000/svg"
 width="700.000000pt" height="700.000000pt" viewBox="0 0 700.000000 700.000000"
 preserveAspectRatio="xMidYMid meet">
<metadata>
Created by potrace 1.14, written by Peter Selinger 2001-2017
</metadata>
<g transform="translate(0.000000,700.000000) scale(0.100000,-0.100000)"
fill="#4e21e7" stroke="none">
<path d="M1075 6989 c-207 -30 -413 -116 -581 -243 -33 -24 -99 -85 -147 -135
-166 -172 -270 -369 -324 -613 -17 -79 -18 -197 -18 -2498 0 -2301 1 -2419 18
-2498 57 -257 162 -450 346 -633 188 -188 392 -297 661 -351 52 -10 529 -13
2475 -13 2296 0 2414 1 2493 18 257 57 450 162 633 346 184 183 289 376 346
633 17 79 18 197 18 2498 0 2301 -1 2419 -18 2498 -57 257 -162 450 -346 633
-180 181 -361 280 -626 346 -65 16 -235 17 -2470 19 -1340 1 -2426 -2 -2460
-7z m3511 -1414 c246 -47 464 -164 645 -344 147 -147 246 -308 307 -501 44
-141 57 -228 56 -390 -1 -118 -6 -166 -27 -256 -57 -249 -167 -443 -354 -625
-245 -240 -563 -360 -913 -346 -240 10 -451 79 -645 212 l-68 47 -611 -611
c-336 -336 -619 -611 -628 -611 -9 0 -34 -16 -55 -36 -21 -19 -49 -41 -63 -49
-14 -7 -37 -27 -52 -44 -15 -17 -45 -39 -67 -50 -22 -12 -49 -34 -61 -51 -16
-22 -29 -30 -53 -30 -18 -1 -43 -7 -56 -14 -47 -26 -95 19 -66 61 7 10 15 35
19 55 4 25 16 44 35 57 16 11 34 35 41 53 8 18 34 56 59 85 86 98 109 128 123
163 10 23 220 238 616 631 331 328 602 599 602 603 0 3 -21 36 -46 73 -243
355 -281 823 -99 1220 100 218 295 430 510 556 130 76 313 137 475 157 88 12
278 4 376 -15z m-2043 -1406 c41 -21 77 -63 88 -101 22 -84 31 -73 -509 -613
-273 -273 -510 -504 -526 -512 -20 -10 -46 -14 -80 -10 -102 9 -160 124 -111
217 20 36 984 996 1020 1014 35 19 88 21 118 5z m1564 -1559 c63 -38 89 -118
59 -181 -9 -19 -239 -256 -514 -531 -429 -429 -503 -498 -538 -507 -68 -18
-140 14 -168 74 -19 40 -20 101 -2 133 17 32 974 990 1011 1013 40 25 111 25
152 -1z"/>
<path d="M4176 5275 c-202 -42 -363 -131 -502 -277 -173 -182 -256 -395 -256
-653 2 -430 288 -794 712 -902 118 -30 293 -33 415 -8 344 72 626 341 716 683
27 100 35 266 20 372 -45 304 -238 568 -516 705 -132 65 -223 86 -385 91 -91
2 -157 -1 -204 -11z"/>
</g>
</svg>
