<svg xmlns="http://www.w3.org/2000/svg" fill="none" viewBox="0 0 23 22" height="22" width="23">
<path fill="#002838" d="M2.5 11C2.5 6.02944 6.52944 2 11.5 2C16.4706 2 20.5 6.02944 20.5 11C20.5 13.561 19.4303 15.8721 17.7134 17.511C17.0598 15.8766 16.0174 14.6124 14.6982 13.8436C15.7992 12.9264 16.5 11.545 16.5 10C16.5 7.23858 14.2614 5 11.5 5C8.73857 5 6.5 7.23858 6.5 10C6.5 11.545 7.20079 12.9264 8.30184 13.8436C6.98259 14.6124 5.94017 15.8766 5.28658 17.511C3.56966 15.8721 2.5 13.561 2.5 11ZM6.95808 18.7716C8.29129 19.5524 9.84337 20 11.5 20C13.1566 20 14.7087 19.5524 16.0419 18.7716C15.242 16.2618 13.5253 15 11.5 15C9.47469 15 7.75801 16.2618 6.95808 18.7716ZM11.5 0C5.42487 0 0.5 4.92487 0.5 11C0.5 17.0751 5.42487 22 11.5 22C17.5751 22 22.5 17.0751 22.5 11C22.5 4.92487 17.5751 0 11.5 0ZM8.5 10C8.5 8.34315 9.84314 7 11.5 7C13.1569 7 14.5 8.34315 14.5 10C14.5 11.6569 13.1569 13 11.5 13C9.84314 13 8.5 11.6569 8.5 10Z" clip-rule="evenodd" fill-rule="evenodd"></path>
</svg>