<svg xmlns="http://www.w3.org/2000/svg" fill="none" viewBox="0 0 22 22" height="22" width="22">
<path fill="#35872F" d="M15.2071 8.29289C15.5976 8.68342 15.5976 9.31658 15.2071 9.70711L10.7071 14.2071C10.3166 14.5976 9.68342 14.5976 9.29289 14.2071L6.79289 11.7071C6.40237 11.3166 6.40237 10.6834 6.79289 10.2929C7.18342 9.90237 7.81658 9.90237 8.20711 10.2929L10 12.0858L13.7929 8.29289C14.1834 7.90237 14.8166 7.90237 15.2071 8.29289Z" clip-rule="evenodd" fill-rule="evenodd"></path>
<path fill="#35872F" d="M11 2C6.02944 2 2 6.02944 2 11C2 15.9706 6.02944 20 11 20C15.9706 20 20 15.9706 20 11C20 6.02944 15.9706 2 11 2ZM0 11C0 4.92487 4.92487 0 11 0C17.0751 0 22 4.92487 22 11C22 17.0751 17.0751 22 11 22C4.92487 22 0 17.0751 0 11Z" clip-rule="evenodd" fill-rule="evenodd"></path>
</svg>
