<svg xmlns="http://www.w3.org/2000/svg" fill="none" viewBox="0 0 23 23" height="23" width="23">
<path fill="white" d="M11.25 0C9.02497 0 6.84989 0.659801 4.99984 1.89597C3.14979 3.13213 1.70785 4.88914 0.85636 6.94481C0.00487456 9.00048 -0.217913 11.2625 0.216171 13.4448C0.650254 15.6271 1.72171 17.6316 3.29505 19.205C4.86839 20.7783 6.87295 21.8498 9.05524 22.2838C11.2375 22.7179 13.4995 22.4951 15.5552 21.6436C17.6109 20.7922 19.3679 19.3502 20.604 17.5002C21.8402 15.6501 22.5 13.475 22.5 11.25C22.4966 8.26735 21.3103 5.40783 19.2012 3.29878C17.0922 1.18972 14.2327 0.0033746 11.25 0ZM2.25001 11.25C2.24857 9.56582 2.72012 7.91509 3.61096 6.4858C4.5018 5.05651 5.77611 3.90612 7.28877 3.16564C8.80143 2.42515 10.4916 2.12435 12.1669 2.29747C13.8421 2.4706 15.4351 3.1107 16.7644 4.14488L4.14488 16.7644C2.91553 15.1892 2.2485 13.2481 2.25001 11.25ZM11.25 20.25C9.25256 20.2511 7.31213 19.5841 5.7375 18.3551L18.3551 5.7375C19.3888 7.06678 20.0284 8.65956 20.2012 10.3345C20.3741 12.0095 20.0731 13.6993 19.3327 15.2116C18.5923 16.724 17.4421 17.998 16.0132 18.8888C14.5842 19.7795 12.9339 20.2512 11.25 20.25Z"></path>
</svg>

