<svg width="14" height="15" viewBox="0 0 14 15" fill="none" xmlns="http://www.w3.org/2000/svg">
<path fill-rule="evenodd" clip-rule="evenodd" d="M0 1.57059L1.07059 0.5H4.50196V5.00197H0V1.57059ZM4.74902 0.5H9.25098V3.93137L8.15294 5.00197H5.81961L4.74902 3.93137V0.5ZM10.5686 5.24902L9.49803 6.31961V8.6804L10.5686 9.75098H14V5.24902H10.5686ZM4.74902 14.5H9.25098V11.0686L8.15294 9.99804H5.81961L4.74902 11.0686V14.5ZM14 14.5V11.0686L12.9294 9.99804H9.49803V14.5H14ZM9.49803 0.5V3.93137L10.5686 5.00197H14V0.5H9.49803ZM6.36863 7.5C6.36863 7.82941 6.64314 8.13138 7 8.13138C7.35687 8.13138 7.63137 7.85686 7.63137 7.5C7.63137 7.17059 7.35687 6.86863 7 6.86863C6.67059 6.86863 6.36863 7.14314 6.36863 7.5ZM4.50196 5.24902H0V9.75098H3.40392L4.50196 8.6804V5.24902ZM3.40392 9.99804L4.50196 11.0686V13.4294L3.40392 14.5H0V9.99804H3.40392Z" fill="#0ECAD4"/>
</svg>
