<svg xmlns="http://www.w3.org/2000/svg" fill="none" viewBox="0 0 18 22" height="22" width="18">
<path fill="#002838" d="M10 13C10 13.5523 9.55229 14 9 14C8.44771 14 8 13.5523 8 13C8 12.4477 8.44771 12 9 12C9.55229 12 10 12.4477 10 13Z"></path>
<path fill="#002838" d="M9 6C8.4262 6 8 6.40402 8 7C8 7.55228 7.55228 8 7 8C6.44772 8 6 7.55228 6 7C6 5.2569 7.36466 4 9 4C10.6353 4 12 5.2569 12 7C12 7.68075 11.8256 8.24116 11.5245 8.70166C11.2345 9.14515 10.8638 9.43782 10.5767 9.6405C10.4315 9.743 10.3271 9.81208 10.2454 9.86615C10.1377 9.93745 10.0695 9.98262 9.99905 10.0439C9.97609 10.5758 9.53758 11 9 11C8.44772 11 8 10.5523 8 10V9.94118C8 9.29493 8.33129 8.85451 8.64273 8.57361C8.82946 8.40519 9.10014 8.22408 9.28348 8.10141C9.34009 8.06354 9.38838 8.03123 9.42332 8.00656C9.6362 7.85629 9.76551 7.7372 9.85053 7.60716C9.92443 7.49414 10 7.31925 10 7C10 6.40401 9.5738 6 9 6Z"></path>
<path fill="#002838" d="M0 3C0 1.34315 1.34315 0 3 0H17C17.5523 0 18 0.447715 18 1V16.9986C18 17.0029 18 17.0072 17.9999 17.0115C17.9981 17.1752 17.9569 17.3294 17.8854 17.4652L17.118 19L17.8944 20.5528C18.0494 20.8628 18.0329 21.2309 17.8507 21.5257C17.6684 21.8205 17.3466 22 17 22H3C1.34315 22 0 20.6569 0 19V3ZM2 16.1707C2.31278 16.0602 2.64936 16 3 16H16V2H3C2.44772 2 2 2.44772 2 3V16.1707ZM2 19C2 18.4477 2.44772 18 3 18H15.382L15.1056 18.5528C14.9648 18.8343 14.9648 19.1657 15.1056 19.4472L15.382 20H3C2.44772 20 2 19.5523 2 19Z" clip-rule="evenodd" fill-rule="evenodd"></path>
</svg>