<?xml version="1.0" encoding="UTF-8" standalone="no"?>
<svg width="128px" height="128px" viewBox="0 0 128 128" version="1.1" xmlns="http://www.w3.org/2000/svg" xmlns:xlink="http://www.w3.org/1999/xlink">
    <!-- Generator: Sketch 45.1 (43504) - http://www.bohemiancoding.com/sketch -->
    <title>graphic-defender-2factor-disabled</title>
    <desc>Created with Sketch.</desc>
    <defs>
        <circle id="path-1" cx="64" cy="64" r="64"></circle>
        <polygon id="path-3" points="0.327466846 0.3500558 3.88734603 0.3500558 3.88734603 21.3428699 0.327466846 21.3428699 0.327466846 0.3500558"></polygon>
        <polygon id="path-5" points="51.1257801 0.184853857 51.1257801 49.0738103 0.330536413 49.0738103 0.330536413 0.184853857"></polygon>
    </defs>
    <g id="Security-Plugin" stroke="none" stroke-width="1" fill="none" fill-rule="evenodd">
        <g id="Advanced-Tools---2-Factor---Disabled" transform="translate(-726.000000, -223.000000)">
            <g id="graphic-defender-2factor-disabled" transform="translate(726.000000, 223.000000)">
                <mask id="mask-2" fill="white">
                    <use xlink:href="#path-1"></use>
                </mask>
                <use id="mask" fill="#333333" xlink:href="#path-1"></use>
                <g id="graphic" mask="url(#mask-2)">
                    <g transform="translate(-6.000000, 10.000000)">
                        <path d="M39.4062404,173.10829 C44.5020972,174.081424 53.4377494,173.063861 54.0267519,168.804431 C53.575243,166.584784 53.2010742,166.272707 53.2010742,166.272707 C53.2010742,166.272707 66.6772379,143.156842 65.7953453,123.921688 C64.9134527,104.686534 45.3095141,107.332196 45.3095141,107.332196 C45.3095141,107.332196 37.373913,118.626064 34.904757,136.272889 C32.4359591,153.919715 37.417954,162.29669 37.417954,162.29669 C37.417954,162.29669 35.7354476,166.837383 34.6032737,173.249817 C34.7436317,172.456549 34.891867,171.690869 35.044399,170.959585 C35.3802558,171.617418 36.4050128,172.535016 39.4062404,173.10829" id="Fill-19" fill="#9F5622"></path>
                        <path d="M98.7215192,173.10829 C93.6256624,174.081424 84.6900102,173.063861 84.1006496,168.804431 C84.5525166,166.584784 84.9266854,166.272707 84.9266854,166.272707 C84.9266854,166.272707 71.4505217,143.156842 72.3324143,123.921688 C73.2143069,104.686534 92.8182455,107.332196 92.8182455,107.332196 C92.8182455,107.332196 100.753847,118.626064 103.223003,136.272889 C105.691801,153.919715 100.709806,162.29669 100.709806,162.29669 C100.709806,162.29669 102.392312,166.837383 103.524486,173.249817 C103.384128,172.456549 103.235893,171.690869 103.083361,170.959585 C102.747504,171.617418 101.722747,172.535016 98.7215192,173.10829" id="Fill-77" fill="#9F5622"></path>
                        <path d="M45.5730793,111.169696 C44.4412634,111.145332 43.5396777,111.197643 42.9821841,111.245655 C42.9291918,111.344187 42.8747673,111.447376 42.8207008,111.549132 C45.055688,112.721121 54.9878107,118.292633 62.1181432,128.225332 C63.6098056,130.696504 64.5615192,132.467564 65.1673504,133.735218 C65.5007008,131.627717 65.7244859,129.513409 65.8032583,127.424898 C60.5981944,123.105273 50.4301125,115.602542 45.5730793,111.169696" id="Fill-123" fill="#98480C"></path>
                        <path d="M95.3429003,111.617065 C95.2684246,111.475897 95.1939488,111.334728 95.1216215,111.200725 C91.5313913,110.649665 73.9902148,108.978569 72.3789616,128.537265 C72.495688,130.435162 72.7262762,132.348825 73.0445882,134.254963 C74.7668389,130.825706 78.878399,123.432255 86.114,117.877224 C91.3011611,113.894757 94.0055601,112.275973 95.3429003,111.617065" id="Fill-125" fill="#98480C"></path>
                        <path d="M100.613739,76.4418678 C106.021821,71.862837 111.178547,67.119348 111.178547,67.119348 L111.178547,70.2465609 C119.016399,59.9806461 122.406118,48.4047988 122.238905,47.40121 C122.0409,46.2105903 119.117013,44.801768 115.563662,39.7637592 C102.081412,32.6214743 69.0639693,25.4283113 69.0639693,25.4283113 C69.0639693,25.4283113 38.0946087,33.1162819 24.6123581,40.2589251 C19.0610537,41.4491865 16.0870384,46.2105903 15.8886752,47.40121 C15.7228951,48.3961997 19.056399,59.7882408 26.7553248,69.9896623 L28.2978312,69.1609222 L36.5098517,74.7177445 L31.6094936,75.5826725 C31.6728696,75.6457327 31.7355294,75.7095095 31.7996215,75.7722115 C34.3769105,77.9549545 35.7650946,78.1530925 35.7650946,78.1530925 C35.7650946,78.1530925 39.7799795,83.113351 42.1592634,84.5021087 C49.0983939,85.69237 69.0639693,85.2437827 69.0639693,85.2437827 C69.0639693,85.2437827 89.0291867,85.69237 95.9686752,84.5021087 C98.3479591,83.113351 102.362844,78.1530925 102.362844,78.1530925 C102.362844,78.1530925 102.51645,78.1298032 102.810414,78.0230308 C100.344123,78.2670308 98.7471918,78.0223142 100.613739,76.4418678" id="Fill-127" fill="#9F5622"></path>
                        <path d="M82.4067212,34.5627971 L69.0637545,31.4660394 L55.7211458,34.5627971 L55.499509,37.0296693 C55.499509,37.0296693 60.1549565,40.9662743 62.0845217,42.1733756 C64.014087,43.3804769 65.8169003,45.3865797 65.8169003,45.3865797 L66.623601,45.9931759 L69.0637545,45.9931759 L71.504266,45.9931759 L72.3109668,45.3865797 C72.3109668,45.3865797 74.1137801,43.3804769 76.0433453,42.1733756 C77.9729105,40.9662743 82.6283581,37.0296693 82.6283581,37.0296693 L82.4067212,34.5627971 Z" id="Fill-129" fill="#98480C"></path>
                        <path d="M68.0702916,21.3509674 C67.9360205,19.1470849 67.4053811,10.2917838 67.2954578,6.37237709 C67.2199079,3.67010396 67.526046,1.65253568 67.7824143,0.467290455 C66.6745882,0.59090279 64.8008798,0.851026138 61.97689,1.39993656 C56.8996522,2.38740206 54.2400102,7.87149016 54.2400102,10.2297985 C54.2400102,10.8908558 54.3234373,13.0567589 54.4491151,15.8432317 C54.0899847,16.1409762 53.6216471,16.6067618 53.5629258,17.0546326 C53.5396522,17.2334226 53.5503939,17.6859512 53.5840512,18.2839483 C54.0459437,18.8876781 54.4791918,19.419032 54.620624,19.4867501 C54.9657903,19.6515665 57.1918261,24.4624153 59.2427724,26.2796957 C60.7566343,27.6215166 62.5981176,28.5348147 63.6006752,28.9748029 C63.6364808,28.837217 63.6726445,28.6996311 63.7095243,28.5631201 C64.6053811,25.2481598 66.7372481,22.5136399 68.0702916,21.3509674" id="Fill-131" fill="#FF5B0C"></path>
                        <path d="M60.4257545,37.7939518 C61.9381841,38.0959959 62.4806394,33.2980458 63.6006394,28.9748388 C62.5980818,28.5348505 60.7565985,27.6215524 59.2427366,26.2797316 C57.1917903,24.4624511 54.9657545,19.6516023 54.6205882,19.4867859 C54.479156,19.4190678 54.0459079,18.8873557 53.5843734,18.2839841 C53.6896419,20.1528593 54.0201279,23.4516963 54.2399744,24.3241486 C54.4308184,25.0815877 54.7480563,25.5523894 54.943555,25.7877903 C55.1963427,30.4553204 55.4437596,34.4015994 55.5458056,34.6309093 C55.6782864,34.9297286 60.6420205,37.9225803 60.4257545,37.7939518" id="Fill-133" fill="#FFBC00"></path>
                        <path d="M70.0574322,21.3509674 C70.1917033,19.1470849 70.7223427,10.2917838 70.832266,6.37237709 C70.9078159,3.67010396 70.6016777,1.65253568 70.3453095,0.467290455 C71.4531355,0.59090279 73.326844,0.851026138 76.1508338,1.39993656 C81.2280716,2.38740206 83.8877136,7.87149016 83.8877136,10.2297985 C83.8877136,10.8908558 83.8042864,13.0567589 83.6786087,15.8432317 C84.0377391,16.1409762 84.5060767,16.6067618 84.564798,17.0546326 C84.5880716,17.2334226 84.5773299,17.6859512 84.5436726,18.2839483 C84.0817801,18.8876781 83.648532,19.419032 83.5070997,19.4867501 C83.1619335,19.6515665 80.9358977,24.4624153 78.8849514,26.2796957 C77.3710895,27.6215166 75.5296061,28.5348147 74.5270486,28.9748029 C74.491243,28.837217 74.4550793,28.6996311 74.4181995,28.5631201 C73.5223427,25.2481598 71.3904757,22.5136399 70.0574322,21.3509674" id="Fill-135" fill="#FF5B0C"></path>
                        <g id="Group-139" stroke-width="1" fill="none" transform="translate(66.956522, 0.008241)">
                            <mask id="mask-4" fill="white">
                                <use xlink:href="#path-3"></use>
                            </mask>
                            <g id="Clip-138"></g>
                            <path d="M3.38871611,0.459192952 C2.50431714,0.361019677 2.10723274,0.349912482 2.10723274,0.349912482 C2.10723274,0.349912482 1.71050639,0.361019677 0.826107417,0.459192952 C0.569381074,1.64443818 0.263601023,3.66200646 0.339150895,6.36392129 C0.449074169,10.2836863 0.979713555,19.1386291 1.1136266,21.3428699 C1.55976471,20.9537598 1.91638875,20.7405733 2.10723274,20.7405733 C2.29843478,20.7405733 2.65505882,20.9537598 3.10083887,21.3428699 C3.23510997,19.1386291 3.76574936,10.2836863 3.87567263,6.36392129 C3.95122251,3.66200646 3.6450844,1.64443818 3.38871611,0.459192952" id="Fill-137" fill="#FFBC00" mask="url(#mask-4)"></path>
                        </g>
                        <path d="M63.7094527,29.1566743 C64.6053095,25.841714 66.7371765,23.1071941 68.0702199,21.9445216 C68.5163581,21.5554115 68.8729821,21.342225 69.0638261,21.342225 C69.2546701,21.342225 69.6112941,21.5554115 70.0574322,21.9445216 C71.3904757,23.1071941 73.5223427,25.841714 74.4181995,29.1566743 C74.4550793,29.2931853 74.491243,29.4304129 74.5270486,29.5683571 C75.471601,33.2143836 76.0054629,37.1982837 77.0567161,38.1753586 C77.2002967,38.0908006 77.3413708,38.0080341 77.4860256,37.9224012 C77.5579949,37.8797639 77.6299642,37.8367683 77.7019335,37.7937727 C76.1895038,38.096175 75.6470486,33.2978667 74.5270486,28.9746596 C74.491243,28.8370737 74.4550793,28.6998461 74.4181995,28.5629768 C73.5223427,25.2480164 71.3904757,22.5134966 70.0574322,21.3508241 C69.6112941,20.9620722 69.2546701,20.7488858 69.0638261,20.7488858 C68.8729821,20.7488858 68.5163581,20.9620722 68.0702199,21.3508241 C66.7371765,22.5134966 64.6053095,25.2480164 63.7094527,28.5629768 C63.6725729,28.6998461 63.6364092,28.8370737 63.6006036,28.9746596 C62.4806036,33.2978667 61.9381483,38.096175 60.4257187,37.7937727 C60.497688,37.8367683 60.5696573,37.8797639 60.6419847,37.9224012 C60.7862813,38.0080341 60.9273555,38.0908006 61.0709361,38.1753586 C62.1221893,37.1982837 62.6560512,33.2143836 63.6006036,29.5683571 C63.6364092,29.4304129 63.6725729,29.2931853 63.7094527,29.1566743" id="Fill-140" fill="#98480C"></path>
                        <path d="M62.1412379,38.8049932 C62.167734,38.8204 62.1938721,38.8358068 62.2207263,38.8512135 C62.3263529,38.9128405 62.4305473,38.973751 62.5336675,39.0339448 C62.5648184,39.0518596 62.5959693,39.0701327 62.6267621,39.0880476 C62.7220051,39.1432253 62.8154578,39.1976863 62.9078363,39.2514308 C62.9414936,39.2707789 62.975867,39.2904852 63.0091662,39.3098332 C63.249422,39.4492106 63.4789361,39.5817803 63.6941279,39.7053927 C63.7188338,39.7197245 63.7424655,39.7329815 63.7668133,39.7469551 C63.8502404,39.7949668 63.9318772,39.8419037 64.0106496,39.8866907 C64.0378619,39.9024558 64.0647161,39.9175043 64.0912123,39.932911 C64.1606752,39.9723236 64.2272737,40.0103031 64.2920818,40.0475659 C64.3232327,40.0651225 64.3550997,40.0830373 64.3851765,40.1002355 C64.4507008,40.1374984 64.5126445,40.1726115 64.573156,40.2070079 C64.5928491,40.2181151 64.6146905,40.2306555 64.6340256,40.2414044 C64.713156,40.2861915 64.7876317,40.3277539 64.8563785,40.3664499 C64.8678363,40.3728993 64.8775038,40.3782737 64.8886036,40.3843648 C64.9430281,40.41482 64.9938721,40.4434837 65.0407775,40.4692811 C65.0608286,40.4803883 65.0787315,40.4904206 65.0973504,40.5004529 C65.1320818,40.5198009 65.1639488,40.5373574 65.1936675,40.5534808 C65.2108542,40.5627965 65.2273248,40.5717539 65.2427212,40.5799947 C65.2695754,40.5946849 65.2928491,40.6072253 65.3143325,40.6183325 C65.3250742,40.6240652 65.3372481,40.6305145 65.3469156,40.6355307 C65.3741279,40.6495043 65.3966854,40.6609698 65.4102916,40.6674191 C65.8940256,40.8866966 69.0638977,40.9963354 69.0638977,40.9963354 C69.0638977,40.9963354 72.2337698,40.8866966 72.7175038,40.6674191 C72.73111,40.6609698 72.7536675,40.6495043 72.7808798,40.6355307 C72.7905473,40.6305145 72.8027212,40.6240652 72.8134629,40.6183325 C72.8349463,40.6072253 72.8582199,40.5946849 72.8850742,40.5799947 C72.9004706,40.5717539 72.9169412,40.5627965 72.9341279,40.5534808 C72.9638465,40.5373574 72.9957136,40.5198009 73.030445,40.5004529 C73.0490639,40.4904206 73.0669668,40.4803883 73.0870179,40.4692811 C73.1339233,40.4434837 73.1847673,40.41482 73.2391918,40.3843648 C73.2502916,40.3782737 73.2599591,40.3728993 73.2714169,40.3664499 C73.3401637,40.3277539 73.4146394,40.2861915 73.4937698,40.2414044 C73.5131049,40.2306555 73.5345882,40.2181151 73.5546394,40.2070079 C73.6151509,40.1726115 73.6770946,40.1374984 73.7426189,40.1002355 C73.7726957,40.0830373 73.8045627,40.0651225 73.8357136,40.0475659 C73.9005217,40.0103031 73.9671202,39.9723236 74.0365831,39.932911 C74.0630793,39.9175043 74.0899335,39.9024558 74.1171458,39.8866907 C74.1959182,39.8419037 74.277555,39.7949668 74.3609821,39.7469551 C74.3853299,39.7329815 74.4089616,39.7197245 74.4336675,39.7053927 C74.6488593,39.5817803 74.8783734,39.4492106 75.1186292,39.3098332 C75.1519284,39.2904852 75.1863018,39.2707789 75.2199591,39.2514308 C75.3123376,39.1976863 75.4057903,39.1432253 75.5010332,39.0880476 C75.5318261,39.0701327 75.562977,39.0518596 75.5941279,39.0339448 C75.6972481,38.973751 75.8014425,38.9128405 75.9070691,38.8512135 C75.9339233,38.8358068 75.9600614,38.8204 75.9865575,38.8049932 C76.1265575,38.7229433 76.2687059,38.6401768 76.4119284,38.5559771 C76.6231816,38.4320065 76.8408798,38.3030197 77.0567877,38.1754661 C76.0055345,37.1983912 75.4716726,33.214491 74.5271202,29.5684646 C74.4913146,29.4305204 74.4551509,29.2932928 74.4182711,29.1567818 C73.5224143,25.8418214 71.3905473,23.1073016 70.0575038,21.9446291 C69.6113657,21.5555189 69.2547417,21.3423325 69.0638977,21.3423325 C68.8730537,21.3423325 68.5164297,21.5555189 68.0702916,21.9446291 C66.7372481,23.1073016 64.6053811,25.8418214 63.7095243,29.1567818 C63.6726445,29.2932928 63.6364808,29.4305204 63.6006752,29.5684646 C62.6561228,33.214491 62.1222609,37.1983912 61.0710077,38.1754661 C61.2869156,38.3030197 61.5046138,38.4320065 61.715867,38.5559771 C61.8590895,38.6401768 62.0012379,38.7229433 62.1412379,38.8049932" id="Fill-142" fill="#9F5622"></path>
                        <path d="M77.7019693,37.7939518 C76.1895396,38.0959959 75.6470844,33.2980458 74.5270844,28.9748388 C75.5296419,28.5348505 77.3711253,27.6215524 78.8849872,26.2797316 C80.9359335,24.4624511 83.1619693,19.6516023 83.5071355,19.4867859 C83.6485678,19.4190678 84.0818159,18.8873557 84.5433504,18.2839841 C84.4380818,20.1528593 84.1075959,23.4516963 83.8877494,24.3241486 C83.6969054,25.0815877 83.3796675,25.5523894 83.1841688,25.7877903 C82.9313811,30.4553204 82.6839642,34.4015994 82.5819182,34.6309093 C82.4494373,34.9297286 77.4857033,37.9225803 77.7019693,37.7939518" id="Fill-144" fill="#FFBC00"></path>
                        <path d="M69.0638619,21.8109128 C68.2421228,21.7654091 66.4196164,23.9409862 66.6924552,24.9556822 C67.0827366,25.1900082 69.2282097,25.7364106 69.9690281,25.7364106 C70.7102046,25.7364106 72.3092839,25.1423548 72.1921995,24.6196 C72.0751151,24.0968452 70.07,21.866807 69.0638619,21.8109128" id="Fill-146" fill="#98480C"></path>
                        <path d="M64.7448082,30.6150849 C64.6058824,31.069405 64.9764706,29.5201304 65.1325831,28.9748029 C65.2883376,28.4294755 67.8713555,27.6487471 69.9538107,27.6487471 C72.036266,27.6487471 73.3231202,26.9987971 73.7914578,28.0457398 C74.2594373,29.0926825 74.2984655,29.4832258 74.2984655,29.4832258 C74.2984655,29.4832258 73.442711,28.7806062 73.3829156,28.5853345 C73.3231202,28.3904211 72.9722251,28.8153609 70.4758568,29.0321304 C67.9798465,29.2488999 66.0295141,28.7763066 65.8343734,29.0321304 C65.6395908,29.2879542 64.864399,30.2248999 64.7448082,30.6150849" id="Fill-148" fill="#98480C"></path>
                        <path d="M69.5063836,31.2004341 C70.2028031,30.4981727 70.5533402,29.6393357 71.7431611,29.795553 C72.9333402,29.951412 73.7135448,31.9030537 73.0890946,31.7858907 C72.4653606,31.6687278 71.5598363,31.1613797 71.4080205,31.1613797 C71.2562046,31.1613797 69.5063836,31.2004341 69.5063836,31.2004341" id="Fill-150" fill="#98480C"></path>
                        <path d="M57.8664041,17.6369721 C57.6744859,17.2525198 63.2447673,17.2084493 63.8488082,17.2084493 C64.452491,17.2084493 66.2810844,16.8429868 66.3372992,17.4502996 C66.3935141,18.057254 64.961289,20.6258825 64.2179642,20.8125551 C63.4746394,20.9995859 59.2184246,20.3456946 57.8664041,17.6369721" id="Fill-152" fill="#1F191A"></path>
                        <path d="M80.294046,17.7116769 C80.4859642,17.3272247 75.1308747,17.0724758 74.5271918,17.0724758 C73.923509,17.0724758 71.8739949,16.8159354 71.8181381,17.4232482 C71.7619233,18.0302026 73.1937903,20.5988311 73.9374731,20.785862 C74.680798,20.9725345 78.9416675,20.4203994 80.294046,17.7116769" id="Fill-154" fill="#1F191A"></path>
                        <path d="M94.7082813,75.6808458 L100.201223,76.8281116 C100.313652,76.7091571 100.449355,76.5808869 100.613703,76.4418678 C106.021785,71.862837 111.178512,67.119348 111.178512,67.119348 L111.178512,70.2465609 C113.456465,67.263025 115.355954,64.1702085 116.904189,61.2568987 L113.182194,53.8505492 C113.182194,53.8505492 102.36424,53.9677122 100.094164,55.6234009 C97.824445,57.2787313 100.595801,60.469721 100.410685,62.0906549 C99.873243,66.7954479 98.0990742,68.495207 98.0990742,68.495207 C98.0990742,68.495207 99.141376,69.1168517 99.186133,71.0294391 C99.23089,72.9416681 97.5168747,73.5661791 94.7082813,75.6808458" id="Fill-156" fill="#98480C"></path>
                        <path d="M41.3225575,68.7320053 C40.1828645,67.469368 38.6013299,59.9103841 38.6013299,59.9103841 C38.3517647,55.955506 39.2884399,55.7545016 38.5798465,55.100252 C37.8712532,54.4456441 34.6555499,56.6817733 34.6555499,56.6817733 L28.4719182,69.2784076 L36.5099233,74.718067 L31.6095652,75.5826367 C31.6729412,75.6456969 31.735601,75.7094737 31.7996931,75.7721756 C32.8820972,76.6890567 33.7518159,77.2526573 34.4002558,77.6016382 C36.4322251,77.7782784 46.7392327,78.5643812 44.5751407,76.1523283 C42.1772379,73.4801521 41.0565217,70.5345956 41.3225575,68.7320053" id="Fill-158" fill="#98480C"></path>
                        <path d="M35.7649872,78.1532358 C35.7649872,78.1532358 40.873734,79.3065927 45.099156,79.6104282 C49.3249361,79.914622 55.3284655,73.2814767 69.0638619,73.2814767 L69.0638619,74.2209304 C69.0638619,74.2209304 58.0801279,76.5702814 48.5239642,81.1858584 C47.5575703,81.7383518 37.5058568,80.2886837 35.7649872,78.1532358" id="Fill-160" fill="#98480C"></path>
                        <path d="M39.5202097,79.7762479 C39.5202097,79.7762479 40.3763223,82.7332699 41.895555,83.1481774 C40.6248133,83.8113844 37.0517698,81.6279248 36.5096726,78.4494755 C39.503023,79.3061627 39.5202097,79.7762479 39.5202097,79.7762479" id="Fill-162" fill="#98480C"></path>
                        <path d="M66.0684706,45.7797028 C66.2947621,45.9380699 59.2184962,42.6288423 38.4469361,41.7442079 C35.2981893,41.9100993 37.1761944,40.6940405 39.2203376,40.1963665 C41.2644808,39.6986925 51.6499028,36.547832 52.9206445,35.884625 C54.1913862,35.2210596 55.9036113,34.9448129 54.578087,36.4926543 C53.2522046,38.0404957 45.6284706,40.4174355 44.523509,40.8043959 C43.4189054,41.1913562 61.0965013,42.2970596 66.0684706,45.7797028" id="Fill-164" fill="#98480C"></path>
                        <path d="M30.8233811,67.6705874 C36.5096726,68.1127254 57.8924348,69.0525374 67.1732532,66.399351 C64.5218465,68.0575477 60.2677801,69.3291424 50.0477801,69.3291424 C39.8277801,69.3291424 31.5412839,68.7762907 30.8233811,67.6705874" id="Fill-166" fill="#98480C"></path>
                        <path d="M102.362772,78.1532358 C102.362772,78.1532358 97.2540256,79.3065927 93.0286036,79.6104282 C88.8028235,79.914622 82.7992941,73.2814767 69.0638977,73.2814767 L69.0638977,74.2209304 C69.0638977,74.2209304 80.0476317,76.5702814 89.6037954,81.1858584 C90.5701893,81.7383518 100.621903,80.2886837 102.362772,78.1532358" id="Fill-168" fill="#98480C"></path>
                        <path d="M98.6075499,79.7762479 C98.6075499,79.7762479 97.7514373,82.7332699 96.2322046,83.1481774 C97.5029463,83.8113844 101.07599,81.6279248 101.618087,78.4494755 C98.6247366,79.3061627 98.6075499,79.7762479 98.6075499,79.7762479" id="Fill-170" fill="#98480C"></path>
                        <path d="M72.059289,45.7797028 C71.8329974,45.9380699 78.9092634,42.6288423 99.6808235,41.7442079 C102.829928,41.9100993 100.951565,40.6940405 98.907422,40.1963665 C96.8632788,39.6986925 86.4778568,36.547832 85.2071151,35.884625 C83.9363734,35.2210596 82.2241483,34.9448129 83.5496726,36.4926543 C84.875555,38.0404957 92.499289,40.4174355 93.6042506,40.8043959 C94.7088542,41.1913562 77.0312583,42.2970596 72.059289,45.7797028" id="Fill-172" fill="#98480C"></path>
                        <path d="M107.304414,67.6705874 C101.618123,68.1127254 80.2353606,69.0525374 70.9541841,66.399351 C73.6059488,68.0575477 77.8600153,69.3291424 88.0800153,69.3291424 C98.3000153,69.3291424 106.586153,68.7762907 107.304414,67.6705874" id="Fill-174" fill="#98480C"></path>
                        <path d="M69.2970997,45.2821363 C69.2970997,43.7894725 69.0640051,43.3473345 69.0640051,43.3473345 C69.0640051,43.3473345 68.8305524,43.7894725 68.8305524,45.2821363 C68.8305524,46.7748 68.1122916,62.6401744 68.0571509,63.3033815 C68.0020102,63.9669468 68.5788389,64.3539072 69.0640051,64.3539072 C69.5488133,64.3539072 70.1256419,63.9669468 70.0705013,63.3033815 C70.0153606,62.6401744 69.2970997,46.7748 69.2970997,45.2821363" id="Fill-176" fill="#98480C"></path>
                        <path d="M93.986046,104.143571 L69.0638977,104.143571 L44.1417494,104.143571 L42.3571969,111.286214 C55.8394476,115.253991 65.4145882,130.614526 65.4145882,130.614526 C65.4145882,130.614526 66.9416982,131.919442 69.0638977,131.919442 C71.1860972,131.919442 72.7132072,130.614526 72.7132072,130.614526 C72.7132072,130.614526 82.2883478,115.253991 95.7702404,111.286214 L93.986046,104.143571 Z" id="Fill-178" fill="#1F191A"></path>
                        <path d="M96.7585115,83.8684969 L95.9686394,84.5019653 C95.9686394,84.5019653 90.2730384,85.0311695 69.0639335,85.0311695 C47.8548286,85.0311695 42.1592276,84.5019653 42.1592276,84.5019653 L41.3693555,83.8684969 C41.3693555,83.8684969 40.0373862,84.4679272 40.4076164,86.8384176 C40.7015806,88.7241327 42.2261841,89.3593927 42.2261841,89.3593927 C42.2261841,89.3593927 42.8588696,98.5156628 42.7707877,99.2655777 C41.8455703,99.7062825 41.4048031,103.939199 44.1417852,104.143428 C52.4304297,104.480227 69.0639335,104.732826 69.0639335,104.732826 C69.0639335,104.732826 85.6970793,104.480227 93.9860818,104.143428 C96.7227059,103.939199 96.2822967,99.7062825 95.3567212,99.2655777 C95.2686394,98.5156628 95.9013248,89.3593927 95.9013248,89.3593927 C95.9013248,89.3593927 97.4259284,88.7241327 97.7202506,86.8384176 C98.0901228,84.4679272 96.7585115,83.8684969 96.7585115,83.8684969" id="Fill-180" fill="#FFBC00"></path>
                        <path d="M97.7202864,86.8382385 C98.0901586,84.4681063 96.7585473,83.8683178 96.7585473,83.8683178 L95.9686752,84.5017862 C95.9686752,84.5017862 90.2730742,85.0309903 69.0639693,85.0309903 C47.8548645,85.0309903 42.1592634,84.5017862 42.1592634,84.5017862 L41.3693913,83.8683178 C41.3693913,83.8683178 40.037422,84.4681063 40.4076522,86.8382385 C40.7016164,88.7239536 42.2262199,89.3595718 42.2262199,89.3595718 C42.2262199,89.3595718 42.4038159,91.9317833 42.5577801,94.4609991 C45.7312327,93.6591313 47.6615141,93.0145557 47.6615141,93.0145557 C47.6615141,93.0145557 53.1952737,93.8920241 54.7030486,93.7666203 C56.2111816,93.6412164 58.7168593,94.3932811 62.7260153,94.3932811 C66.7348133,94.3932811 68.5587519,92.3875366 68.5587519,92.3875366 C68.5587519,92.3875366 70.914046,92.2266614 70.9545064,90.8654925 C70.9759898,90.1331342 71.0651458,89.4874837 71.1761432,88.9102678 C71.0533299,90.2700035 71.8961944,89.7744793 72.5739949,90.3961239 C73.2528696,91.0188435 73.7000818,92.7748552 77.0260665,93.1779389 C80.3520512,93.5813809 83.7786496,91.7662502 85.0887775,91.6652106 C86.3989054,91.5645292 91.640133,92.1696922 92.696757,92.1696922 C92.9681637,92.1696922 94.0430486,92.4563295 95.6679079,92.8902267 C95.7903632,90.967607 95.9013606,89.3595718 95.9013606,89.3595718 C95.9013606,89.3595718 97.4259642,88.7239536 97.7202864,86.8382385" id="Fill-182" fill="#FF9000"></path>
                        <polygon id="Fill-184" fill="#98480C" points="70.36289 71.8627295 75.0011509 71.8627295 75.0011509 85.0161568 70.954399 85.0161568 70.0742967 78.0616194"></polygon>
                        <path d="M71.5167621,76.4331254 C71.5751253,74.6670814 69.7175294,74.374353 69.7483223,73.2815483 C69.7791151,72.1883853 71.3585013,72.839052 71.2346138,71.1969786 C71.1107263,69.5549051 68.8710844,67.5366203 67.1735396,67.8641034 C66.80689,67.4789345 66.6210588,66.1464294 66.2186036,65.7745175 C65.8161483,65.4029639 64.1440256,65.3409786 63.3079642,65.6817186 C62.4719028,66.0224587 62.1005985,66.6423119 60.7378363,66.983052 C59.3757903,67.3237921 58.7255601,67.2929786 57.9202916,68.3463706 C57.1153811,69.3997627 54.7930281,74.9770079 51.9446905,75.1317921 C49.0959949,75.2865762 48.2910844,75.1317921 42.841468,74.7290667 C37.3918517,74.3263413 32.716711,73.5689022 31.5089872,73.2815483 C30.3016215,72.9938361 29.3105217,72.4051548 29.3105217,72.4051548 C29.3105217,72.4051548 23.7735396,74.049378 19.9262251,79.3206379 C17.4305729,82.7402209 16.7538465,88.1261357 16.5855601,91.4901827 C11.0596777,90.9860593 8.00581586,89.5378244 6.5137954,88.647099 C8.57870588,89.8817891 13.6409054,92.1906526 24.138757,91.5664999 C36.7924655,90.8144352 47.6616215,87.1787994 47.6616215,87.1787994 C47.6616215,87.1787994 53.1953811,88.0562678 54.703156,87.930864 C56.211289,87.8054602 58.7169668,88.5578831 62.7257647,88.5578831 C66.7349207,88.5578831 68.5588593,86.5517803 68.5588593,86.5517803 C68.5588593,86.5517803 70.9141535,86.3909051 70.9542558,85.0297363 C70.9947161,83.6685674 71.2654066,82.5986937 71.4823887,81.7316159 C71.6990128,80.8638214 70.8321586,80.8018361 70.6151765,79.1285909 C70.3985524,77.455704 71.458399,78.1991695 71.5167621,76.4331254" id="Fill-192" fill="#FF5B0C"></path>
                        <path d="M18.2097391,67.119348 C18.2097391,67.119348 22.3531662,69.7255977 23.7144962,70.0810279 C25.0758261,70.4360999 29.3105575,72.4052981 29.3105575,72.4052981 C29.3105575,72.4052981 32.5617084,72.0025727 35.5342916,68.160558 C38.5068747,64.3185433 40.6741893,59.9806461 40.6741893,59.9806461 C40.6741893,59.9806461 40.9216061,61.3131512 41.7576675,63.0791953 C42.5937289,64.8452394 45.814087,67.8642467 45.814087,67.8642467 L48.4458005,51.4599941 L24.6125013,40.2589251 C24.6125013,40.2589251 15.0216061,40.4731865 11.3970026,53.8505492 C-0.254506394,61.8738855 3.60354987,65.5292276 2.24293606,69.1609222 C2.06140153,69.6446226 -0.416705882,78.6031131 0.460531969,83.2670602 C1.21209207,88.0564112 4.46932992,87.3039883 5.5968491,88.0564112 C4.99961125,67.1773921 18.2097391,67.119348 18.2097391,67.119348" id="Fill-196" fill="#9F5622"></path>
                        <path d="M19.9262609,79.3206737 C23.7735754,74.0494138 29.3105575,72.4051906 29.3105575,72.4051906 C29.3105575,72.4051906 25.0758261,70.4363507 23.7144962,70.0809204 C22.3531662,69.7254902 18.2097391,67.1192405 18.2097391,67.1192405 C18.2097391,67.1192405 4.99961125,67.1772846 5.5968491,88.0563037 C5.64053197,88.0853257 5.6910179,88.1193639 5.74544246,88.1562684 C5.76262916,88.1677339 5.78089003,88.179916 5.79879284,88.1920981 C5.82493095,88.2096546 5.85214322,88.2279278 5.88042967,88.2469175 C5.89833248,88.2587413 5.91766752,88.2712816 5.93628645,88.283822 C6.04119693,88.3529733 6.16042967,88.4303653 6.29577494,88.5145651 C6.30938107,88.5231642 6.32298721,88.531405 6.33730946,88.5400041 C6.38421483,88.5690261 6.43291049,88.5987648 6.48375448,88.62922 C6.49342199,88.635311 6.50380563,88.6414021 6.5138312,88.6471348 C8.00585166,89.5378602 11.0597136,90.9860952 16.5855959,91.4902185 C16.7538824,88.1261715 17.4306087,82.7402567 19.9262609,79.3206737" id="Fill-206" fill="#FFAD00"></path>
                        <path d="M120.61734,86.0000752 C120.437238,85.4146185 120.830384,82.7951119 120.109974,80.0928388 C118.219795,73.3371559 109.964092,71.469714 109.964092,71.469714 C108.012685,72.4600458 106.509207,72.8452147 104.303223,73.0150473 C102.097596,73.1845216 96.0457289,73.863852 91.973555,73.665714 C87.9013811,73.4675759 87.2507928,72.1092734 86.6571355,70.5248858 C86.0631202,68.9401398 84.5925831,66.5345363 83.5463427,65.9652029 C82.5001023,65.3958696 79.361023,64.1575965 78.2864962,63.3654026 C77.2119693,62.5728505 75.1474169,64.6670943 73.9880307,65.9652029 C72.9135038,65.6219548 71.3115601,66.4976317 70.4529412,67.864175 C69.5946803,69.2307184 71.5181586,71.1189416 71.5181586,71.1189416 C71.5181586,71.1189416 70.4529412,72.2224952 70.3684399,73.5524922 C70.2835806,74.8824893 71.6692583,75.2504599 71.7258312,76.12757 C71.7824041,77.0050385 70.6513043,77.4009562 70.5864962,78.701573 C70.522046,80.002548 71.8672634,80.3156993 71.838977,80.8581604 C71.8103325,81.4009797 71.3015345,81.7023072 71.1762148,83.0692088 C71.0508951,84.4361104 71.8955499,83.9380781 72.5740665,84.5604394 C73.2529412,85.1831589 73.7001535,86.9391706 77.0257801,87.3426126 C80.3517647,87.7460546 83.7787212,85.9305656 85.0888491,85.829526 C86.398977,85.7288446 91.6398465,86.3340076 92.6964706,86.3340076 C93.7534527,86.3340076 106.959284,90.6704717 117.541637,91.1749533 C118.268491,91.2097081 118.952737,91.2240399 119.604041,91.2236816 C120.32445,90.3411971 120.797442,86.5851736 120.61734,86.0000752" id="Fill-208" fill="#FF5B0C"></path>
                        <path d="M120.61734,86.0000752 C120.437238,85.4146185 120.830384,82.7951119 120.109974,80.0928388 C118.219795,73.3371559 109.964092,71.469714 109.964092,71.469714 C108.012685,72.4600458 106.509207,72.8452147 104.303223,73.0150473 C102.097596,73.1845216 96.0457289,73.863852 91.973555,73.665714 C87.9013811,73.4675759 87.2507928,72.1092734 86.6571355,70.5248858 C86.0631202,68.9401398 84.5925831,66.5345363 83.5463427,65.9652029 C82.5001023,65.3958696 79.361023,64.1575965 78.2864962,63.3654026 C77.2119693,62.5728505 75.1474169,64.6670943 73.9880307,65.9652029 C72.9135038,65.6219548 71.3115601,66.4976317 70.4529412,67.864175 C69.5946803,69.2307184 71.5181586,71.1189416 71.5181586,71.1189416 C71.5181586,71.1189416 70.4529412,72.2224952 70.3684399,73.5524922 C70.2835806,74.8824893 71.6692583,75.2504599 71.7258312,76.12757 C71.7824041,77.0050385 70.6513043,77.4009562 70.5864962,78.701573 C70.522046,80.002548 71.8672634,80.3156993 71.838977,80.8581604 C71.8103325,81.4009797 71.3015345,81.7023072 71.1762148,83.0692088 C71.0508951,84.4361104 71.8955499,83.9380781 72.5740665,84.5604394 C73.2529412,85.1831589 73.7001535,86.9391706 77.0257801,87.3426126 C80.3517647,87.7460546 83.7787212,85.9305656 85.0888491,85.829526 C86.398977,85.7288446 91.6398465,86.3340076 92.6964706,86.3340076 C93.7534527,86.3340076 106.959284,90.6704717 117.541637,91.1749533 C118.268491,91.2097081 118.952737,91.2240399 119.604041,91.2236816 C120.32445,90.3411971 120.797442,86.5851736 120.61734,86.0000752" id="Fill-210" fill="#FF5B0C"></path>
                        <g id="Group-222" stroke-width="1" fill="none" transform="translate(88.797954, 39.420869)">
                            <mask id="mask-6" fill="white">
                                <use xlink:href="#path-5"></use>
                            </mask>
                            <g id="Clip-221"></g>
                            <path d="M49.9089258,32.9952493 C48.1451407,26.1080717 47.9159847,22.6809645 46.842532,20.1868617 C44.3651407,14.4297515 37.9154731,12.160659 36.5043734,9.44584552 C33.7831458,2.68872952 26.765601,0.342961527 26.765601,0.342961527 C20.9217647,-1.75199883 0.178132992,17.6623037 0.331381074,17.7755254 C0.484987212,17.8887471 6.62565217,26.4061744 6.62565217,26.4061744 C6.62565217,26.4061744 8.32248082,24.5953433 9.11414322,22.4727941 C9.90616368,20.3506032 10.1270844,18.0868852 10.1270844,18.0868852 C10.1270844,18.0868852 10.1324552,17.945358 11.5177749,20.4355195 C12.9034527,22.9256811 16.952711,30.9454344 21.1659591,32.048988 C21.1659591,32.048988 24.7687212,30.7526708 24.9037084,30.7075254 C25.0386957,30.6627383 26.7938875,30.1220687 27.5314834,29.7168352 C28.2687212,29.3116018 31.8346036,27.4197956 31.8346036,27.4197956 C31.8346036,27.4197956 36.6157289,26.2273844 41.9167519,36.0672846 C44.8836061,41.574662 43.616087,47.3636605 43.1348593,49.0738103 C44.080844,48.7230379 45.016087,48.4432082 46.079156,48.3249703 C50.6146547,47.8204887 51.017468,44.39159 51.1184399,43.8462626 C51.2190537,43.3009351 50.2734271,34.4176869 49.9089258,32.9952493" id="Fill-220" fill="#9F5622" mask="url(#mask-6)"></path>
                        </g>
                        <path d="M130.714598,75.4880464 C125.413575,65.6481463 120.632808,66.8405574 120.632808,66.8405574 C120.632808,66.8405574 117.066926,68.7323636 116.32933,69.1375971 C115.592092,69.5428305 113.836542,70.0835001 113.701555,70.1286455 C113.566568,70.1734326 109.963806,71.4697498 109.963806,71.4697498 C109.963806,71.4697498 118.219867,73.3371918 120.110046,80.0928746 C120.830455,82.7951477 120.437309,85.4146543 120.617412,86.000111 C120.797514,86.5852094 120.324164,90.3412329 119.604113,91.2237175 C126.214189,91.2212094 129.120174,89.5393651 131.932706,88.4949304 C132.413934,86.7844223 133.681453,80.9954238 130.714598,75.4880464" id="Fill-223" fill="#FFAD00"></path>
                        <path d="M62.0177801,68.6410338 C61.1788542,68.6009046 61.4982404,69.1609222 61.4982404,69.1609222 C61.4982404,69.1609222 64.5349156,68.5210044 65.0941995,68.6808047 C65.5084706,68.7994009 66.930312,68.0688341 67.8462199,67.8491982 C67.6170639,67.8198179 67.3907724,67.822326 67.1734322,67.8642467 C67.1734322,67.8642467 62.8567059,68.6808047 62.0177801,68.6410338" id="Fill-225" fill="#E43500"></path>
                        <path d="M69.5144041,79.6354015 C70.5277033,79.9553604 70.9018721,80.1954191 70.9541483,80.2953838 C70.8130742,80.0137627 70.6827417,79.649375 70.6154271,79.12877 C70.398445,77.4558831 71.4582916,78.1993486 71.5166547,76.4329463 C71.5750179,74.6669022 70.3275499,74.3945968 70.3583427,73.3014338 C70.3894936,72.2082708 71.6419744,72.7611225 71.518087,71.119049 C71.4539949,70.2720358 70.5427417,69.4056746 69.7177801,68.7320769 C69.9938414,69.460494 70.5201841,71.0778449 70.074046,71.8392253 C69.4889821,72.8388728 69.4492379,73.0388023 69.5688286,73.4784323 C69.6887775,73.9180623 70.8979335,75.0294984 71.1668338,75.397469 C71.4360921,75.7657979 71.2423836,77.6937921 70.7253504,78.0449228 C70.2079591,78.3960535 68.5011049,79.3154426 69.5144041,79.6354015" id="Fill-227" fill="#E43500"></path>
                        <path d="M70.9543274,85.0296288 C70.9944297,83.6684599 71.2654783,82.5989445 71.4824604,81.7315084 C71.6317698,81.1338696 71.2669105,80.918175 70.9543274,80.2954555 C71.0066036,80.3954203 70.5676266,81.4344805 70.5676266,82.7537286 C70.5676266,84.0650943 71.0961176,85.0127888 70.6628696,85.7347565 C70.8322302,85.5452176 70.9460921,85.3151912 70.9543274,85.0296288" id="Fill-229" fill="#FF3500"></path>
                        <path d="M84.2314476,85.592262 C82.9130844,85.6721621 79.7167161,86.4718802 78.1985575,86.1519213 C76.680399,85.8319624 75.2023427,84.3127847 75.2023427,84.3127847 C75.2023427,84.3127847 73.0446957,84.2730138 72.8449003,84.1931137 C72.6451049,84.1132135 71.2698107,83.1135659 71.5183018,82.6338068 C71.7664348,82.1540476 72.4127263,81.7495307 72.1259233,81.3038097 C71.8387621,80.858447 71.6296573,79.7953809 71.5183018,79.2357216 C71.4065882,78.675704 71.6464859,78.1959448 71.7664348,77.5563853 C71.8860256,76.9168258 72.3257187,75.9573075 71.9261279,75.4374191 C71.5265371,74.917889 70.5279182,73.798212 70.5676624,73.3188112 C70.6077647,72.8386937 72.6053606,71.1998449 72.6053606,71.1998449 C72.6053606,71.1998449 71.1419847,70.0987994 70.2371765,68.7225821 C70.2873043,69.9071107 71.5183018,71.1188699 71.5183018,71.1188699 C71.5183018,71.1188699 70.4530844,72.2227818 70.3682251,73.5524206 C70.2833657,74.8824176 71.6694015,75.2503883 71.7256164,76.1274984 C71.7574834,76.6208728 71.4137494,76.9623295 71.0950793,77.3976599 C71.0027008,77.6964793 70.8788133,77.9404793 70.7255652,78.0447436 C70.6507315,78.2371489 70.5988133,78.4524852 70.5866394,78.7018596 C70.5221893,80.0024764 71.8670486,80.3156276 71.8387621,80.858447 C71.8104757,81.4009081 71.3016777,81.7025938 71.1763581,83.0691372 C71.0510384,84.4360388 71.895335,83.9380065 72.5742097,84.560726 C73.2527263,85.1830872 73.6999386,86.939099 77.0259233,87.342541 C80.3519079,87.745983 83.7785064,85.930494 85.0889923,85.8298126 C85.2007059,85.8212135 85.3428542,85.8179888 85.5064859,85.8187054 C85.2379437,85.6764617 84.8301176,85.556074 84.2314476,85.592262" id="Fill-231" fill="#E43500"></path>
                        <path d="M45.1709821,99.3815941 C46.4009054,99.526346 58.6414169,99.7434737 71.0423376,99.8158496 C83.4432583,99.8885838 93.7889361,99.5987219 93.7889361,99.5987219 C93.7889361,99.5987219 87.6393197,99.3815941 68.5395243,98.9473386 C49.4393708,98.5130831 45.1709821,99.3815941 45.1709821,99.3815941" id="Fill-233" fill="#F9D400"></path>
                        <path d="M44.4475294,89.2460634 C44.4475294,89.2460634 62.4208798,90.0425568 70.0743325,89.6803189 C77.7274271,89.3184394 93.4994476,89.2460634 93.4994476,89.2460634 C93.4994476,89.2460634 84.6303939,89.1736875 70.3629258,89.2460634 C56.0954578,89.3184394 44.4475294,89.2460634 44.4475294,89.2460634" id="Fill-235" fill="#FF7E00"></path>
                        <path d="M28.6531662,40.2588176 C26.7139335,40.2606091 26.462578,40.6927148 28.4719898,41.4390467 C30.4810435,42.1850203 35.3151611,47.8891025 40.4622199,48.6590819 C45.6092788,49.4294197 34.4056982,43.2129733 38.3457494,41.4630526 C44.1179744,38.8997985 32.8141381,41.1982714 32.2609412,41.0778837 C31.7077442,40.957496 29.5429361,40.258101 28.6531662,40.2588176" id="Fill-237" fill="#98480C"></path>
                        <path d="M100.438578,45.1806667 C101.692133,45.8399325 103.048092,44.966047 106.193616,42.8198502 C109.339499,40.6736535 111.877402,40.2085844 109.267887,39.4575947 C106.658373,38.7062467 105.292389,41.8047959 99.719601,40.4343113 C94.1471714,39.064185 95.2553555,40.3515448 95.2553555,40.3515448 C95.2553555,40.3515448 102.118578,42.3193098 101.153616,43.5353686 C100.188297,44.7514273 98.3292685,44.0717386 100.438578,45.1806667" id="Fill-239" fill="#98480C"></path>
                    </g>
                </g>
            </g>
        </g>
    </g>
</svg>