<?xml version="1.0" encoding="UTF-8" standalone="no"?>
<svg width="122px" height="40px" viewBox="0 0 122 40" version="1.1" xmlns="http://www.w3.org/2000/svg" xmlns:xlink="http://www.w3.org/1999/xlink">
    <!-- Generator: Sketch 45.1 (43504) - http://www.bohemiancoding.com/sketch -->
    <title>graphic-defender-download-android</title>
    <desc>Created with Sketch.</desc>
    <defs>
        <path d="M17.2892223,9.4886212 L11.789266,6.30733698 C11.789266,6.30733698 1.76950676,0.510781483 1.18045284,0.170074664 C0.591418798,-0.170632155 0.00453103111,0.0357989049 0.00453103111,0.747794923 L0.00453103111,25.7515381 C0.00453103111,26.2852962 0.423989249,26.5153808 0.935757289,26.2195918 C1.44728685,25.923325 11.789266,19.940886 11.789266,19.940886 L17.2889839,16.7598208 C17.2889839,16.7598208 21.955469,14.0607068 22.5757234,13.7020607 C23.1960176,13.3429567 23.1363988,12.8507715 22.6129454,12.5683823 C22.0897306,12.2857143 17.2892223,9.4886212 17.2892223,9.4886212 L17.2892223,9.4886212 Z" id="path-1"></path>
        <linearGradient x1="49.9998541%" y1="0.000147098194%" x2="49.9998541%" y2="100.000147%" id="linearGradient-3">
            <stop stop-color="#257CB0" offset="0%"></stop>
            <stop stop-color="#4A93B5" offset="28.6%"></stop>
            <stop stop-color="#78BCBB" offset="76.7%"></stop>
            <stop stop-color="#89CFBD" offset="100%"></stop>
        </linearGradient>
        <path d="M17.2892223,9.4886212 L11.789266,6.30733698 C11.789266,6.30733698 1.76950676,0.510781483 1.18045284,0.170074664 C0.591418798,-0.170632155 0.00453103111,0.0357989049 0.00453103111,0.747794923 L0.00453103111,25.7515381 C0.00453103111,26.2852962 0.423989249,26.5153808 0.935757289,26.2195918 C1.44728685,25.923325 11.789266,19.940886 11.789266,19.940886 L17.2889839,16.7598208 C17.2889839,16.7598208 21.955469,14.0607068 22.5757234,13.7020607 C23.1960176,13.3429567 23.1363988,12.8507715 22.6129454,12.5683823 C22.0897306,12.2857143 17.2892223,9.4886212 17.2892223,9.4886212 L17.2892223,9.4886212 Z" id="path-4"></path>
        <linearGradient x1="0.00126473415%" y1="49.9985397%" x2="100.001265%" y2="49.9985397%" id="linearGradient-6">
            <stop stop-color="#52C1AD" offset="0%"></stop>
            <stop stop-color="#DEE89A" offset="100%"></stop>
        </linearGradient>
        <path d="M17.2892223,9.4886212 L11.789266,6.30733698 C11.789266,6.30733698 1.76950676,0.510781483 1.18045284,0.170074664 C0.591418798,-0.170632155 0.00453103111,0.0357989049 0.00453103111,0.747794923 L0.00453103111,25.7515381 C0.00453103111,26.2852962 0.423989249,26.5153808 0.935757289,26.2195918 C1.44728685,25.923325 11.789266,19.940886 11.789266,19.940886 L17.2889839,16.7598208 C17.2889839,16.7598208 21.955469,14.0607068 22.5757234,13.7020607 C23.1960176,13.3429567 23.1363988,12.8507715 22.6129454,12.5683823 C22.0897306,12.2857143 17.2892223,9.4886212 17.2892223,9.4886212 L17.2892223,9.4886212 Z" id="path-7"></path>
        <linearGradient x1="49.999885%" y1="0.000292074841%" x2="49.999885%" y2="100.000292%" id="linearGradient-9">
            <stop stop-color="#EC413D" offset="0%"></stop>
            <stop stop-color="#DA4452" offset="16.7%"></stop>
            <stop stop-color="#B0487A" offset="57.5%"></stop>
            <stop stop-color="#954A92" offset="86.2%"></stop>
            <stop stop-color="#8A4A9D" offset="100%"></stop>
        </linearGradient>
        <path d="M17.2892223,9.4886212 L11.789266,6.30733698 C11.789266,6.30733698 1.76950676,0.510781483 1.18045284,0.170074664 C0.591418798,-0.170632155 0.00453103111,0.0357989049 0.00453103111,0.747794923 L0.00453103111,25.7515381 C0.00453103111,26.2852962 0.423989249,26.5153808 0.935757289,26.2195918 C1.44728685,25.923325 11.789266,19.940886 11.789266,19.940886 L17.2889839,16.7598208 C17.2889839,16.7598208 21.955469,14.0607068 22.5757234,13.7020607 C23.1960176,13.3429567 23.1363988,12.8507715 22.6129454,12.5683823 C22.0897306,12.2857143 17.2892223,9.4886212 17.2892223,9.4886212 L17.2892223,9.4886212 Z" id="path-10"></path>
        <linearGradient x1="50.0010991%" y1="0.000547669119%" x2="50.0010991%" y2="99.9972617%" id="linearGradient-12">
            <stop stop-color="#F58879" offset="0%"></stop>
            <stop stop-color="#F69079" offset="11.9%"></stop>
            <stop stop-color="#FCB877" offset="71.3%"></stop>
            <stop stop-color="#FEC874" offset="100%"></stop>
        </linearGradient>
    </defs>
    <g id="Security-Plugin" stroke="none" stroke-width="1" fill="none" fill-rule="evenodd">
        <g id="Advanced-Tools---2-Factor---New" transform="translate(-822.000000, -978.000000)">
            <g id="graphic-defender-download-android" transform="translate(822.000000, 978.000000)">
                <g>
                    <path d="M121.992468,34.5883922 C121.992468,37.5716078 119.57884,39.9909607 116.601714,39.9909607 L5.40901776,39.9909607 C2.43165336,39.9911996 0.0170907314,37.5718467 0.0170907314,34.5883922 L0.0170907314,5.41829766 C0.0170907314,2.43532106 2.43165336,0.0162070682 5.40901776,0.0162070682 L116.601475,0.0162070682 C119.578601,0.0162070682 121.99223,2.43532106 121.99223,5.41829766 L121.99223,34.5883922 L121.992468,34.5883922 Z" id="Shape" fill="#000000" fill-rule="nonzero"></path>
                    <g id="Clipped" transform="translate(9.161427, 8.123444)">
                        <mask id="mask-2" fill="white">
                            <use xlink:href="#path-1"></use>
                        </mask>
                        <g id="a"></g>
                        <polygon id="Shape" fill="url(#linearGradient-3)" fill-rule="nonzero" mask="url(#mask-2)" points="0.00476950643 -0.411229467 0.00476950643 26.6596715 13.6298185 13.1243405"></polygon>
                    </g>
                    <g id="Clipped" transform="translate(9.161427, 8.123444)">
                        <mask id="mask-5" fill="white">
                            <use xlink:href="#path-4"></use>
                        </mask>
                        <g id="d"></g>
                        <polygon id="Shape" fill="url(#linearGradient-6)" fill-rule="nonzero" mask="url(#mask-5)" points="17.2892223 9.4886212 11.789266 6.30733698 0.00476950643 -0.509666501 0.00476950643 -0.411229467 13.6298185 13.1243405"></polygon>
                    </g>
                    <g id="Clipped" transform="translate(9.161427, 8.123444)">
                        <mask id="mask-8" fill="white">
                            <use xlink:href="#path-7"></use>
                        </mask>
                        <g id="g"></g>
                        <polygon id="Shape" fill="url(#linearGradient-9)" fill-rule="nonzero" mask="url(#mask-8)" points="0.00476950643 26.6596715 0.00476950643 26.7581085 11.789266 19.9408661 17.2889839 16.7595819 13.6298185 13.1243405"></polygon>
                    </g>
                    <g id="Clipped" transform="translate(9.161427, 8.123444)">
                        <mask id="mask-11" fill="white">
                            <use xlink:href="#path-10"></use>
                        </mask>
                        <g id="j"></g>
                        <polygon id="Shape" fill="url(#linearGradient-12)" fill-rule="nonzero" mask="url(#mask-11)" points="17.2892223 9.4886212 13.6298185 13.1243405 17.2889839 16.7595819 23.5744581 13.1241015"></polygon>
                    </g>
                    <path d="M94.9441003,26.5394923 C94.4323323,26.5394923 93.9653976,26.444878 93.5425809,26.2558885 C93.1197641,26.06666 92.7644558,25.7756496 92.4775501,25.383335 L92.3917188,25.383335 C92.4489331,25.8430264 92.4775501,26.2788452 92.4775501,26.6904928 L92.4775501,29.9300747 L91.2880352,29.9300747 L91.2880352,18.5230861 L92.255768,18.5230861 L92.420316,19.6006371 L92.4775501,19.6006371 C92.7837325,19.1693778 93.1400345,18.8585366 93.5461381,18.6669189 C93.9522815,18.4753011 94.4184809,18.3794923 94.943842,18.3794923 C95.9859791,18.3794923 96.7903564,18.736446 97.3564968,19.4498756 C97.9228757,20.1633051 98.2061844,21.1644002 98.2061844,22.4522051 C98.2061844,23.7452663 97.9181062,24.7494674 97.3426653,25.466003 C96.7667672,26.1818019 95.9673979,26.5394923 94.9441003,26.5394923 L94.9441003,26.5394923 Z M94.7719212,19.3922947 C93.9689748,19.3922947 93.3882873,19.6152115 93.0298589,20.0603484 C92.6714305,20.5056844 92.4873276,21.2145943 92.4775501,22.1867795 L92.4775501,22.452225 C92.4775501,23.558666 92.661653,24.3499851 93.0298589,24.82666 C93.3980648,25.303335 93.9885297,25.5410453 94.8005382,25.5410453 C95.4797159,25.5410453 96.0115358,25.2660428 96.3964349,24.7153211 C96.7808571,24.1648382 96.9732869,23.405774 96.9732869,22.4378895 C96.9732869,21.4566252 96.7808373,20.7030363 96.3964349,20.1788352 C96.0117544,19.6541563 95.4699384,19.3922947 94.7719212,19.3922947 L94.7719212,19.3922947 Z M100.962025,26.3956595 L99.7720134,26.3956595 L99.7720134,15.2187556 L100.962025,15.2187556 L100.962025,26.3956595 Z M107.804597,26.3956595 L107.567791,25.275122 L107.510557,25.275122 C107.118484,25.7687208 106.727862,26.1029766 106.338213,26.2771528 C105.948783,26.4522847 105.462293,26.5395122 104.879459,26.5395122 C104.10038,26.5395122 103.489863,26.3383375 103.047492,25.9362071 C102.60512,25.5341165 102.384292,24.9621105 102.384292,24.2195321 C102.384292,22.6299652 103.653458,21.7965953 106.191292,21.7196615 L107.525343,21.6764161 L107.525343,21.1880538 C107.525343,20.5701941 107.392492,20.1138477 107.127069,19.8197312 C106.862123,19.524878 106.43716,19.3777203 105.854585,19.3777203 C105.199473,19.3777203 104.45855,19.578895 103.631975,19.9810055 L103.266174,19.0687904 C103.653696,18.8580587 104.077467,18.6929816 104.539155,18.5732603 C105.000366,18.453559 105.462531,18.3936088 105.926366,18.3936088 C106.863117,18.3936088 107.557299,18.6017123 108.009229,19.0183972 C108.460663,19.4350821 108.686499,20.1030961 108.686499,21.0227377 L108.686499,26.3954405 L107.804617,26.3954405 L107.804617,26.3956595 L107.804597,26.3956595 Z M105.116027,25.5555998 C105.856493,25.5555998 106.438372,25.3520159 106.861666,24.9451468 C107.284264,24.5382379 107.496269,23.9681832 107.496269,23.2351618 L107.496269,22.5241215 L106.305561,22.5740567 C105.359291,22.608223 104.677471,22.7549228 104.258728,23.0165455 C103.840681,23.2774515 103.631518,23.6833848 103.631518,24.2341065 C103.631518,24.664888 103.761487,24.9931707 104.022399,25.2177402 C104.283032,25.4430662 104.647184,25.5555998 105.116027,25.5555998 Z M109.377342,18.5230861 L110.653185,18.5230861 L112.374043,23.0127028 C112.751549,24.0376904 112.985951,24.7774216 113.077048,25.2325535 L113.134302,25.2325535 C113.196525,24.9878945 113.326971,24.5704928 113.524905,23.9784569 C113.723317,23.386879 114.372426,21.56888 115.471341,18.5230861 L116.748137,18.5230861 L113.37085,27.487785 C113.036508,28.3737183 112.645666,29.0023096 112.198267,29.3740767 C111.751603,29.744888 111.202871,29.9300747 110.553503,29.9300747 C110.190066,29.9300747 109.831638,29.8894574 109.477502,29.808223 L109.477502,28.8529816 C109.740282,28.9103235 110.03456,28.9392334 110.359622,28.9392334 C111.177115,28.9392334 111.759711,28.4795421 112.109077,27.5599403 L112.546202,26.4396018 L109.377342,18.5230861 L109.377342,18.5230861 Z M72.8972755,19.254674 C73.2750402,19.5678845 74.0639166,20.2258835 74.0639166,21.4781085 C74.0639166,22.6959084 73.3735305,23.2733897 72.6831445,23.8159881 C72.4694706,24.0298059 72.2228871,24.2610851 72.2228871,24.623773 C72.2228871,24.9852663 72.4692321,25.183116 72.6507118,25.3314883 L73.2426076,25.7916376 C73.9656648,26.4011349 74.6224258,26.9614136 74.6224258,28.0979791 C74.6224258,29.6457342 73.1267086,31.2094973 70.3002991,31.2094973 C67.9167581,31.2094973 66.7668301,30.0736486 66.7668301,28.8544151 C66.7668301,28.2618815 67.0613273,27.4225386 68.0324186,26.8455351 C69.0507083,26.2197909 70.4321958,26.1383176 71.1714494,26.0876854 C70.9406252,25.7916575 70.6783023,25.478666 70.6783023,24.9690393 C70.6783023,24.6894973 70.7608148,24.5246391 70.8426317,24.3260926 C70.6611321,24.3428173 70.4806063,24.3593031 70.3160782,24.3593031 C68.574473,24.3593031 67.5883975,23.0583574 67.5883975,21.7746142 C67.5883975,21.0169836 67.9339482,20.1766849 68.6398352,19.5681434 C69.5770233,18.7942857 70.6945187,18.6621404 71.5828591,18.6621404 L74.9677778,18.6621404 L73.9158433,19.2549129 L72.8972953,19.2549129 L72.8972953,19.254674 L72.8972755,19.254674 Z M71.7299388,26.5662519 C71.5985587,26.5490493 71.5160264,26.5490493 71.3524323,26.5490493 C71.2045975,26.5490493 70.3158,26.5827377 69.6263678,26.813778 C69.2648591,26.9444699 68.2126662,27.3396516 68.2126662,28.5094276 C68.2126662,29.678009 69.3473517,30.5190443 71.1061072,30.5190443 C72.682906,30.5190443 73.5220808,29.7599801 73.5220808,28.73999 C73.5221007,27.8984968 72.9795693,27.455769 71.7299388,26.5662519 Z M72.2068894,23.4370533 C72.5843958,23.0578795 72.6168483,22.5315281 72.6168483,22.2347835 C72.6168483,21.0494774 71.9104646,19.2052165 70.5466441,19.2052165 C70.1187995,19.2052165 69.6590389,19.4190543 69.3960007,19.7487705 C69.1169647,20.0944948 69.0339752,20.538656 69.0339752,20.9672872 C69.0339752,22.0704032 69.6749969,23.8984171 71.0891556,23.8984171 C71.5000684,23.8984171 71.9429171,23.7008263 72.2068894,23.4370533 L72.2068894,23.4370533 Z M62.5500896,26.3027178 C59.941408,26.3027178 58.5465858,24.2639721 58.5465858,22.4223395 C58.5465858,20.2684121 60.3020026,18.427994 62.7971699,18.427994 C65.2081355,18.427994 66.7179427,20.3178895 66.7179427,22.3076356 C66.7181613,24.2467695 65.2255442,26.3027178 62.5500896,26.3027178 Z M64.6009972,24.9711896 C64.9954354,24.4445993 65.0939058,23.7873171 65.0939058,23.1455849 C65.0939058,21.6983972 64.4047122,18.9369238 62.3698022,18.9369238 C61.8284831,18.9369238 61.2871442,19.1510005 60.8934214,19.4969637 C60.2533338,20.071558 60.1379316,20.7952812 60.1379316,21.5029766 C60.1379316,23.129338 60.9420505,25.8083823 62.928073,25.8083823 C63.5679023,25.8083823 64.224405,25.4965854 64.6009972,24.9711896 L64.6009972,24.9711896 Z M53.6561525,26.3027178 C51.0469741,26.3027178 49.6519133,24.2639721 49.6519133,22.4223395 C49.6519133,20.2684121 51.4080257,18.427994 53.9024975,18.427994 C56.3141984,18.427994 57.8237273,20.3178895 57.8237273,22.3076356 C57.8239857,24.2467695 56.3311302,26.3027178 53.6561525,26.3027178 Z M55.7075172,24.9711896 C56.1012399,24.4445993 56.1999687,23.7873171 56.1999687,23.1455849 C56.1999687,21.6983972 55.5102782,18.9369238 53.4753683,18.9369238 C52.9342678,18.9369238 52.3924717,19.1510005 51.9989676,19.4969637 C51.3588998,20.071558 51.2441932,20.7952812 51.2441932,21.5029766 C51.2441932,23.129338 52.047855,25.8083823 54.0341359,25.8083823 C54.6742036,25.8083823 55.3302691,25.4965854 55.7075172,24.9711896 L55.7075172,24.9711896 Z M48.3984871,26.0449179 L46.0389923,26.5903833 C45.0817524,26.7394724 44.224215,26.8706421 43.3172934,26.8706421 C38.7633686,26.8706421 37.0317993,23.5151817 37.0317993,20.8870085 C37.0317993,17.680896 39.489526,14.7065007 43.6969461,14.7065007 C44.5881284,14.7065007 45.4452285,14.8383873 46.2204919,15.0534196 C47.4577019,15.4005973 48.0350705,15.8299253 48.3982486,16.0781882 L47.0284463,17.3838925 L46.451336,17.5155401 L46.8636599,16.8541961 C46.3030044,16.3092086 45.2792298,15.3011847 43.3332712,15.3011847 C40.7264975,15.3011847 38.7629115,17.2854555 38.7629115,20.1776406 C38.7629115,23.2841414 41.0069643,26.209776 44.6026754,26.209776 C45.659598,26.209776 46.2028646,25.9952414 46.698158,25.796436 L46.698158,23.136008 L44.2075217,23.2681334 L45.5267672,22.5566351 L49.0244848,22.5566351 L48.5959446,22.9697362 C48.4795885,23.0693678 48.4636107,23.1028173 48.4307011,23.2337481 C48.4135309,23.3828372 48.39803,23.8625983 48.39803,24.0276954 L48.39803,26.0449378 L48.3984871,26.0449378 L48.3984871,26.0449179 Z" id="Shape" fill="#F9F9F9" fill-rule="nonzero"></path>
                    <path d="M78.1115582,25.5689796 C77.5668806,25.5192832 77.4528695,25.4206073 77.4528695,24.7752713 L77.4528695,15.4204082 C77.4562082,15.3848084 77.4583545,15.3482529 77.4616732,15.3138278 C77.5282277,14.7356297 77.6930142,14.6364759 78.2050008,14.3385565 L75.8450888,14.3385565 L74.6074217,14.9337183 L75.8687177,14.9337183 L75.8687177,14.9411249 L75.8677638,14.9351518 L75.8677638,25.1393927 C75.8677638,25.4693479 75.80266,25.5195222 75.422749,26.0148133 L78.3431376,26.0148133 L78.9536146,25.6521254 C78.6734061,25.6179592 78.3924822,25.6019512 78.1115582,25.5689796 L78.1115582,25.5689796 Z M84.8246187,25.7209358 C84.6450666,25.8196117 84.4647793,25.9350124 84.2851875,26.0164858 C83.74361,26.2625784 83.18679,26.3285217 82.6943186,26.3285217 C82.1713422,26.3285217 81.3514641,26.2945943 80.5151311,25.6879642 C79.3528223,24.8665406 78.8448698,23.4549925 78.8448698,22.2242708 C78.8448698,19.680438 80.9090924,18.4330114 82.5965437,18.4330114 C83.1865317,18.4330114 83.7934712,18.5804281 84.284949,18.8929617 C85.1034162,19.4336287 85.3163349,20.1394326 85.430346,20.5171528 L81.5811357,22.077113 L80.3193628,22.1755301 C80.7283479,24.2601493 82.13728,25.4738875 83.6942655,25.4738875 C84.5296446,25.4738875 85.1360873,25.1790543 85.6929272,24.9004679 L84.8246187,25.7209358 L84.8246187,25.7209358 Z M83.2850419,20.8287108 C83.5957752,20.7142658 83.7595879,20.6153509 83.7595879,20.3857442 C83.7595879,19.7296565 83.0226991,18.9741762 82.1372403,18.9741762 C81.4811748,18.9741762 80.2532852,19.483325 80.2532852,21.2556894 C80.2532852,21.5347536 80.2861948,21.8300647 80.3031266,22.1265505 L83.2850419,20.8287108 L83.2850419,20.8287108 Z M86.4059485,18.5453061 L86.4059485,19.6283524 L86.2745685,19.6283524 L86.2745685,18.5453061 L85.9168555,18.5453061 L85.9168555,18.4329915 L86.7634429,18.4329915 L86.7634429,18.5453061 L86.4059485,18.5453061 L86.4059485,18.5453061 Z M87.8797459,19.6283524 L87.8797459,18.5352713 L87.873784,18.5352713 L87.5408725,19.6283524 L87.4380896,19.6283524 L87.1023163,18.5352713 L87.0980039,18.5352713 L87.0980039,19.6283524 L86.9787662,19.6283524 L86.9787662,18.4330114 L87.1831396,18.4330114 L87.4869572,19.3992235 L87.4912497,19.3992235 L87.7905362,18.4330114 L87.9977912,18.4330114 L87.9977912,19.6283524 L87.8797459,19.6283524 L87.8797459,19.6283524 Z" id="Shape" fill="#F9F9F9" fill-rule="nonzero"></path>
                    <path d="M40.3084502,11.4881832 L39.4885721,11.4881832 C39.4885721,11.3751717 39.4108291,11.0552514 39.2553432,10.5281832 L38.0717703,10.5281832 C37.9112963,11.0466501 37.8309301,11.3665505 37.8309301,11.4881832 L37.0599394,11.4881832 C37.0599394,11.4215032 37.2593048,10.8738875 37.6580355,9.84557491 C38.0567464,8.81724241 38.2561316,8.25073171 38.2561316,8.14658039 L39.2245799,8.14658039 C39.2245799,8.24406172 39.4051057,8.80219014 39.7663958,9.82120458 C40.1276859,10.840219 40.3084502,11.3957193 40.3084502,11.4881832 L40.3084502,11.4881832 Z M39.1248773,10.0379094 C38.8327649,9.15506222 38.686818,8.6777103 38.686818,8.60577402 L38.6458003,8.60577402 C38.6458003,8.67245396 38.4946069,9.14980587 38.1924587,10.0379094 L39.1248773,10.0379094 L39.1248773,10.0379094 Z M43.6118104,11.4881832 L42.9791354,11.4881832 C42.9791354,11.4179393 42.744257,11.0476058 42.2746793,10.3769438 C41.7829432,9.67020408 41.5027346,9.18709806 41.4345506,8.92692882 L41.3935328,8.92692882 C41.4362199,9.30154306 41.4577026,9.64033848 41.4577026,9.94331508 C41.4577026,10.3659731 41.4696263,10.8810951 41.4934739,11.488442 L40.8631836,11.488442 C40.8886806,10.9580289 40.9015781,10.3755301 40.9015781,9.74070682 C40.9015781,9.1161772 40.8887004,8.58478845 40.8631836,8.14683922 L41.6239,8.14683922 C41.6239,8.23763066 41.8347122,8.59960179 42.256575,9.23251369 C42.7056439,9.90484818 42.9636543,10.3609557 43.0302088,10.6005973 L43.0686034,10.6005973 C43.0276055,10.2190343 43.0070767,9.87687407 43.0070767,9.57393728 C43.0070767,9.11044301 42.9951331,8.63448482 42.9713054,8.14683922 L43.6118501,8.14683922 C43.5877443,8.57116974 43.576059,9.10253858 43.576059,9.74070682 C43.5758006,10.3836336 43.5877244,10.9661324 43.6118104,11.4881832 L43.6118104,11.4881832 Z M47.3246327,9.70176207 C47.3246327,10.1877153 47.1691666,10.6120657 46.8584134,10.9747536 C46.5474416,11.3376804 46.1119658,11.5187855 45.5518071,11.5187855 C45.2990233,11.5187855 44.9506108,11.5084918 44.5065698,11.4879443 C44.5287281,10.9711697 44.5399563,10.3884121 44.5399563,9.74022897 C44.5399563,9.11759084 44.528748,8.586222 44.5065698,8.14634146 L44.9549233,8.14634146 C45.0283538,8.14634146 45.1375755,8.14371329 45.2828268,8.13869587 C45.4278,8.13367845 45.5227131,8.13105027 45.5670696,8.13105027 C46.1835481,8.13105027 46.6304509,8.28515679 46.9082548,8.59313091 C47.18584,8.90110503 47.3246327,9.27048283 47.3246327,9.70176207 L47.3246327,9.70176207 Z M46.6254032,9.81210553 C46.6254032,9.48358387 46.5297746,9.20690891 46.3385173,8.98160279 C46.1472601,8.75677451 45.8551279,8.64426083 45.462359,8.64426083 C45.3889285,8.64426083 45.288272,8.65190642 45.1599723,8.66743654 C45.1769041,9.00979592 45.1854892,9.36722748 45.1854892,9.74020906 C45.1854892,10.1492484 45.1940743,10.5547038 45.2109862,10.9568143 C45.3205841,10.9789365 45.4320977,10.9901409 45.5438977,10.9902638 C45.9111497,10.9902638 46.1830116,10.8758387 46.3597417,10.6474067 C46.5364717,10.4189945 46.6254032,10.1406272 46.6254032,9.81210553 L46.6254032,9.81210553 Z M50.7484229,11.4881832 L49.9900713,11.4881832 C49.7918984,10.8825087 49.6400094,10.5085913 49.5341264,10.36667 C49.4282434,10.2245097 49.257495,10.153549 49.0218814,10.153549 C48.9226757,10.153549 48.8279811,10.1545047 48.7376188,10.1561772 C48.7376188,10.5960577 48.7452302,11.0399602 48.7607509,11.4881832 L48.0486636,11.4881832 C48.070822,10.9713888 48.0820502,10.3886511 48.0820502,9.74044798 C48.0820502,9.11782977 48.0708418,8.58644102 48.0486636,8.14658039 L48.4917309,8.14658039 C48.5430031,8.14658039 48.6500984,8.14395222 48.8132155,8.13893479 C48.9763326,8.13391737 49.127049,8.13126929 49.2653647,8.13126929 C50.0492331,8.13126929 50.4412865,8.39982081 50.4412865,8.93718268 C50.4412865,9.36318566 50.2175967,9.65993031 49.770217,9.82789447 L49.770217,9.86636137 C49.9426346,9.91414634 50.093828,10.0491389 50.2235586,10.2703833 C50.3530308,10.4918666 50.5280717,10.8977999 50.7484229,11.4881832 L50.7484229,11.4881832 Z M49.7878443,9.12686909 C49.7878443,8.78640119 49.5691624,8.6160677 49.1320371,8.6160677 C48.9715432,8.6160677 48.8296306,8.62801394 48.7068356,8.65190642 C48.7256752,8.91711299 48.7349757,9.26283723 48.7349757,9.68884022 C48.8289549,9.69242409 48.9083672,9.69385764 48.9732126,9.69385764 C49.5162209,9.69409657 49.7878443,9.50510702 49.7878443,9.12686909 L49.7878443,9.12686909 Z M54.420446,9.75571926 C54.420446,10.280896 54.2599521,10.716436 53.9387457,11.0621603 C53.6175195,11.4076655 53.2204581,11.5806272 52.7475615,11.5806272 C52.2966245,11.5806272 51.9190982,11.4219811 51.6152807,11.10445 C51.3112246,10.7871578 51.1593158,10.3836336 51.1593158,9.89453459 C51.1593158,9.3693778 51.3198097,8.93381782 51.641036,8.58809358 C51.9620238,8.24260826 52.3590852,8.06962668 52.8322004,8.06962668 C53.2831572,8.06962668 53.660445,8.22779492 53.9645011,8.54437033 C54.2685571,8.86096565 54.420446,9.26450971 54.420446,9.75571926 L54.420446,9.75571926 Z M53.713625,9.8300448 C53.713625,9.47237432 53.6222691,9.18231956 53.4396169,8.95988054 C53.2567063,8.73744151 53.0313471,8.62634146 52.7633009,8.62634146 C52.5138557,8.62634146 52.3020896,8.73839721 52.1280026,8.96250871 C51.9539156,9.18662021 51.8663952,9.46976605 51.8663952,9.81212544 C51.8663952,10.1678845 51.9582082,10.4574614 52.1418143,10.6808761 C52.3254403,10.9042708 52.5503424,11.0158487 52.8169578,11.0158487 C53.0661645,11.0158487 53.2781691,10.9033151 53.4522561,10.678228 C53.6263431,10.4533997 53.713625,10.1704928 53.713625,9.8300448 L53.713625,9.8300448 Z M55.868965,11.4881832 L55.144,11.4881832 C55.1661782,10.95777 55.1773865,10.3752713 55.1773865,9.74044798 C55.1773865,9.11589846 55.1661981,8.58452962 55.144,8.14658039 L55.868965,8.14658039 C55.8467868,8.57783972 55.8355784,9.10896964 55.8355784,9.74044798 C55.8355784,10.3853061 55.8467868,10.9680438 55.868965,11.4881832 Z M59.5820257,9.70176207 C59.5820257,10.1877153 59.4265398,10.6120657 59.1158065,10.9747536 C58.8048545,11.3376804 58.3693787,11.5187855 57.8092002,11.5187855 C57.5564164,11.5187855 57.2080039,11.5084918 56.763943,11.4879443 C56.7861411,10.9711697 56.7973494,10.3884121 56.7973494,9.74022897 C56.7973494,9.11759084 56.7861609,8.586222 56.763943,8.14634146 L57.2122965,8.14634146 C57.2857469,8.14634146 57.3949686,8.14371329 57.5402,8.13869587 C57.6852129,8.13367845 57.7801062,8.13105027 57.8244825,8.13105027 C58.4409412,8.13105027 58.8878439,8.28515679 59.1656478,8.59313091 C59.4432331,8.90110503 59.5820257,9.27048283 59.5820257,9.70176207 L59.5820257,9.70176207 Z M58.8828161,9.81210553 C58.8828161,9.48358387 58.7871875,9.20690891 58.5959104,8.98160279 C58.4046532,8.75677451 58.1125408,8.64426083 57.7197521,8.64426083 C57.6463017,8.64426083 57.5456651,8.65190642 57.4173654,8.66743654 C57.4342971,9.00979592 57.4428624,9.36722748 57.4428624,9.74020906 C57.4428624,10.1492484 57.4514673,10.5547038 57.4683792,10.9568143 C57.5779773,10.9789356 57.6894908,10.99014 57.8012908,10.9902638 C58.1685229,10.9902638 58.4404046,10.8758387 58.6171148,10.6474067 C58.7938648,10.4189945 58.8828161,10.1406272 58.8828161,9.81210553 Z M64.507972,11.4881832 L63.6880938,11.4881832 C63.6880938,11.3751717 63.6103509,11.0552514 63.4546265,10.5281832 L62.2710735,10.5281832 C62.1105796,11.0466501 62.0301935,11.3665505 62.0301935,11.4881832 L61.2594612,11.4881832 C61.2594612,11.4215032 61.4588066,10.8738875 61.8575573,9.84557491 C62.256288,8.81724241 62.4556534,8.25073171 62.4556534,8.14658039 L63.4241016,8.14658039 C63.4241016,8.24406172 63.6048659,8.80219014 63.9659176,9.82120458 C64.3269692,10.840219 64.507972,11.3957193 64.507972,11.4881832 Z M63.324419,10.0379094 C63.0322867,9.15506222 62.8860814,8.6777103 62.8860814,8.60577402 L62.8450637,8.60577402 C62.8450637,8.67245396 62.6941088,9.14980587 62.3919805,10.0379094 L63.324419,10.0379094 L63.324419,10.0379094 Z M67.4960678,9.02152315 C67.4960678,9.43056247 67.3443776,9.73256346 67.0412755,9.92752613 C66.7381733,10.1224888 66.3663903,10.2201891 65.925668,10.2201891 C65.8453217,10.2201891 65.7883261,10.2185167 65.7539857,10.2151717 C65.7539857,10.5370035 65.7632663,10.961115 65.7821258,11.4881832 L65.0621489,11.4881832 C65.0843072,10.9938477 65.0955354,10.4110901 65.0955354,9.74044798 C65.0955354,9.12449975 65.084347,8.59313091 65.0621489,8.14658039 L65.5078593,8.14658039 C65.5710552,8.14658039 65.6921808,8.14395222 65.8715341,8.13893479 C66.0508874,8.13391737 66.2061349,8.13126929 66.3377534,8.13126929 C66.6620798,8.13126929 66.9363264,8.20485814 67.1600163,8.35203584 C67.383726,8.49923345 67.4960678,8.72215032 67.4960678,9.02152315 L67.4960678,9.02152315 Z M66.8352526,9.16272773 C66.8352526,8.79667496 66.5927034,8.61343952 66.1076644,8.61343952 C65.9862805,8.61343952 65.8582193,8.62632155 65.7234807,8.65190642 C65.7423202,8.97541065 65.7516208,9.3414435 65.7516208,9.75048283 C65.794288,9.7540667 65.8439107,9.75550025 65.9001909,9.75550025 C66.5235654,9.75571926 66.8352526,9.55814833 66.8352526,9.16272773 L66.8352526,9.16272773 Z M70.5685838,9.02152315 C70.5685838,9.43056247 70.4169135,9.73256346 70.1140498,9.92752613 C69.8109477,10.1224888 69.4389262,10.2201891 68.9982437,10.2201891 C68.9178576,10.2201891 68.8608819,10.2185167 68.8265216,10.2151717 C68.8265216,10.5370035 68.835842,10.961115 68.8546617,11.4881832 L68.1347047,11.4881832 C68.1568829,10.9938477 68.1681111,10.4110901 68.1681111,9.74044798 C68.1681111,9.12449975 68.1569028,8.59313091 68.1347047,8.14658039 L68.5804151,8.14658039 C68.6436309,8.14658039 68.7647565,8.14395222 68.9440899,8.13893479 C69.1234234,8.13391737 69.2786708,8.13126929 69.4103092,8.13126929 C69.7346157,8.13126929 70.0088822,8.20485814 70.2325721,8.35203584 C70.4562421,8.49923345 70.5685838,8.72215032 70.5685838,9.02152315 L70.5685838,9.02152315 Z M69.9077687,9.16272773 C69.9077687,8.79667496 69.6652393,8.61343952 69.1802004,8.61343952 C69.0588164,8.61343952 68.9307353,8.62632155 68.7960166,8.65190642 C68.8148363,8.97541065 68.8241567,9.3414435 68.8241567,9.75048283 C68.8668239,9.7540667 68.9164467,9.75550025 68.9727268,9.75550025 C69.5960814,9.75571926 69.9077687,9.55814833 69.9077687,9.16272773 L69.9077687,9.16272773 Z M75.5920665,9.75571926 C75.5920665,10.280896 75.4315726,10.716436 75.1103463,11.0621603 C74.7891399,11.4078845 74.3920586,11.5806272 73.9191621,11.5806272 C73.4682251,11.5806272 73.0906988,11.4219811 72.7869011,11.10445 C72.4830637,10.7871578 72.3309363,10.3836336 72.3309363,9.89453459 C72.3309363,9.3693778 72.4914302,8.93381782 72.8126366,8.58809358 C73.1338628,8.24236934 73.5309441,8.06962668 74.0038208,8.06962668 C74.4547777,8.06962668 74.8322841,8.22779492 75.1361016,8.54437033 C75.4399192,8.86096565 75.5920665,9.26450971 75.5920665,9.75571926 L75.5920665,9.75571926 Z M74.8849871,9.8300448 C74.8849871,9.47237432 74.7936312,9.18231956 74.610979,8.95988054 C74.4283268,8.73744151 74.2027092,8.62634146 73.9346828,8.62634146 C73.6852178,8.62634146 73.4734517,8.73839721 73.2993647,8.96250871 C73.1252777,9.18662021 73.0379958,9.46976605 73.0379958,9.81212544 C73.0379958,10.1678845 73.1298286,10.4574614 73.3134348,10.6808761 C73.4970409,10.9042708 73.721943,11.0158487 73.9883199,11.0158487 C74.2377651,11.0158487 74.4495312,10.9033151 74.6236182,10.6782479 C74.7979436,10.4533997 74.8849871,10.1704928 74.8849871,9.8300448 L74.8849871,9.8300448 Z M79.0642671,11.4881832 L78.4315921,11.4881832 C78.4315921,11.4179393 78.1969125,11.0476058 77.727136,10.3769438 C77.2353999,9.67020408 76.9551715,9.18709806 76.8869875,8.92692882 L76.8459697,8.92692882 C76.8886568,9.30154306 76.9101394,9.64033848 76.9101394,9.94331508 C76.9101394,10.3659731 76.9220632,10.8810951 76.9459306,11.488442 L76.3156205,11.488442 C76.3411373,10.9580289 76.354015,10.3755301 76.354015,9.74070682 C76.354015,9.1161772 76.3411771,8.58478845 76.3156205,8.14683922 L77.0763567,8.14683922 C77.0763567,8.23763066 77.2874074,8.59960179 77.7090318,9.23251369 C78.1583193,9.90484818 78.4161111,10.3609557 78.4826656,10.6005973 L78.5210601,10.6005973 C78.4800424,10.2190343 78.4595335,9.87687407 78.4595335,9.57393728 C78.4595335,9.11044301 78.4476097,8.63448482 78.4237423,8.14683922 L79.064287,8.14683922 C79.040201,8.57116974 79.0285157,9.10253858 79.0285157,9.74070682 C79.0284958,10.3836336 79.0404196,10.9661324 79.0642671,11.4881832 L79.0642671,11.4881832 Z" id="Shape" fill="#F9F9FA" fill-rule="nonzero"></path>
                </g>
            </g>
        </g>
    </g>
</svg>