<?xml version="1.0" encoding="UTF-8" standalone="no"?>
<svg width="118px" height="166px" viewBox="0 0 118 166" version="1.1" xmlns="http://www.w3.org/2000/svg" xmlns:xlink="http://www.w3.org/1999/xlink">
    <!-- Generator: Sketch 41.2 (35397) - http://www.bohemiancoding.com/sketch -->
    <title>graphic</title>
    <desc>Created with Sketch.</desc>
    <defs>
        <rect id="path-1" x="0" y="0" width="118" height="166"></rect>
        <polygon id="path-3" points="27.620123 44.9355828 0.0119185306 44.9355828 0.0119185306 0.109251334 27.620123 0.109251334 27.620123 44.9355828"></polygon>
        <polygon id="path-5" points="0.0210527157 0.0736104294 20.9587828 0.0736104294 20.9587828 27.4615334 0.0210527157 27.4615334 0.0210527157 0.0736104294"></polygon>
        <polygon id="path-7" points="1.97215226e-31 17.625779 1.97215226e-31 0.0468475019 17.7344858 0.0468475019 17.7344858 17.625779 -7.98092577e-16 17.625779"></polygon>
    </defs>
    <g id="Symbols" stroke="none" stroke-width="1" fill="none" fill-rule="evenodd">
        <g id="Audit-Logging---Free" transform="translate(-30.000000, -181.000000)">
            <g id="graphic">
                <g transform="translate(30.000000, 181.000000)">
                    <mask id="mask-2" fill="white">
                        <use xlink:href="#path-1"></use>
                    </mask>
                    <g id="mask"></g>
                    <g mask="url(#mask-2)">
                        <path d="M27.2588065,105.175718 C24.5674247,104.151991 22.0138556,103.325491 20.6890294,103.281605 C17.1081765,103.163233 7.32925527,112.887154 7.32925527,112.887154 C7.32925527,112.887154 4.28264606,117.862589 10.9855019,117.133479 C15.3211691,116.661568 24.8562003,115.023954 31.0516386,113.925917 C31.3945926,109.164844 29.2800606,106.562252 27.2588065,105.175718" id="Fill-1" fill="#E53500"></path>
                        <path d="M36.8226627,111.416921 C36.2016285,110.487261 35.2958514,109.25232 34.159685,108.034338 C32.3013165,107.215182 29.7228499,106.112948 27.2588767,105.175771 C29.2799554,106.562129 31.3946627,109.164896 31.0515334,113.92597 C34.4344339,113.326246 36.8226627,112.887206 36.8226627,112.887206 L36.8226627,111.416921 Z" id="Fill-3" fill="#FFAD00"></path>
                        <path d="M30.6810871,134.833727 C30.6810871,134.833727 24.8570068,143.248396 27.3833991,164.628292 C35.8595863,170.552795 47.537203,168.937562 47.537203,168.937562 C47.537203,168.937562 54.3747156,159.888375 54.6789207,144.142911 C54.9831257,128.397623 34.0389147,130.351534 30.6810871,134.833727" id="Fill-5" fill="#A05621"></path>
                        <g id="Group-9" transform="translate(60.665676, 125.990807)">
                            <mask id="mask-4" fill="white">
                                <use xlink:href="#path-3"></use>
                            </mask>
                            <g id="Clip-8"></g>
                            <path d="M0.0525476969,17.5331825 C0.0525476969,17.5331825 -1.03960981,24.5887684 8.1010945,36.9803236 C13.261885,43.9759371 10.4281316,44.9356702 10.4281316,44.9356702 L27.5874006,39.7978021 C27.5874006,39.7978021 28.4561822,10.1525567 21.2406487,1.85503528 C14.0251153,-6.44266104 0.0525476969,17.5331825 0.0525476969,17.5331825" id="Fill-7" fill="#A05621" mask="url(#mask-4)"></path>
                        </g>
                        <path d="M32.8998903,127.033767 L30.6810345,134.833675 C30.6810345,134.833675 34.0488562,132.203982 38.3727759,133.581948 C42.696871,134.960089 48.9580597,136.557663 54.6788681,144.143034 C56.7020508,144.923549 60.7182588,143.524077 60.7182588,143.524077 C60.7182588,143.524077 63.4824045,137.300936 71.6941875,131.270825 C79.9061459,125.241064 81.9061845,127.845929 81.9061845,127.845929 L76.7650315,120.164567 L32.8998903,127.033767 Z" id="Fill-10" fill="#1F191A"></path>
                        <polygon id="Fill-12" fill="#FFBD00" points="34.0915325 116.775183 32.3492354 126.9871 54.9277376 128.901846 77.0084657 119.150999 76.2264746 106.492453 49.2742577 116.456088"></polygon>
                        <path d="M35.2703403,117.697219 C35.2703403,117.697219 54.8460669,116.12937 57.1136657,115.234679 C59.3810892,114.339989 76.2263343,106.492523 76.2263343,106.492523 C76.2263343,106.492523 78.584055,112.606385 54.6325097,118.033275 C36.9396984,122.041983 35.2703403,117.697219 35.2703403,117.697219" id="Fill-14" fill="#FFAD00"></path>
                        <path d="M35.1938068,112.378402 C35.1938068,112.378402 31.6382021,114.623608 33.3804993,117.206267 C34.4116404,118.548215 42.9134264,119.914467 58.6612541,116.314375 C74.4092571,112.714108 77.3285736,106.52786 77.6841516,105.676881 C78.0399049,104.826077 78.3953076,102.911157 75.7996582,102.946651 C73.2041842,102.982145 35.1938068,112.378402 35.1938068,112.378402" id="Fill-16" fill="#FFBD00"></path>
                        <path d="M12.6917679,93.1912058 C12.6917679,93.1912058 13.3128021,101.899092 20.9240651,104.411813 C21.3448675,104.736853 31.70397,103.581991 31.70397,103.581991 L22.1978689,91.7326353 L12.6917679,93.1912058 Z" id="Fill-18" fill="#98480B"></path>
                        <path d="M44.0131584,55.7586589 C44.0131584,55.7586589 33.9629949,58.7969687 24.9727275,66.5750209 C19.0292446,67.4259994 7.45121783,69.6135055 6.84193105,84.4406742 C6.23246895,99.2678429 19.3676398,96.1080147 19.3676398,96.1080147 C19.3676398,96.1080147 22.6861926,104.250797 30.2420499,109.476613 L33.0445938,110.327417 C33.0445938,110.327417 33.0423144,111.18364 34.444989,111.9708 C34.9944868,113.12269 34.3760826,114.034165 35.1117854,114.67218 C36.8226978,115.310371 44.9881926,115.796444 54.2505789,113.851975 C63.5129652,111.907506 75.7002788,104.411831 75.7002788,104.411831 C75.7002788,104.411831 77.8938865,102.184634 78.0159192,100.60472 C79.9658122,98.9032877 80.0876695,94.7711374 80.0876695,94.7711374 C80.0876695,94.7711374 88.0094496,86.6283552 88.252989,75.0825331 C85.6938092,63.4151926 70.4034288,57.8246466 70.4034288,57.8246466 C70.4034288,57.8246466 53.8848315,53.0849043 44.0131584,55.7586589" id="Fill-20" fill="#A05621"></path>
                        <path d="M59.0035768,58.6692433 C59.0035768,58.6692433 64.0004297,51.5496635 71.5566377,50.2510776 C75.7003138,43.3621206 82.159455,40.9314028 91.4220166,42.0252433 C100.684228,43.1189089 113.968257,53.7586758 114.212147,54.9409887 C114.455862,56.1231267 108.380002,70.2640224 80.4622187,76.5625224 C69.9723168,79.9438813 59.0035768,58.6692433 59.0035768,58.6692433" id="Fill-22" fill="#A05621"></path>
                        <path d="M88.2530591,75.0824632 C88.2090502,74.8815644 88.1603073,74.6827638 88.1089343,74.4851871 C88.1401438,74.475046 88.1703013,74.4647301 88.2016862,74.454589 C87.5932761,74.6219172 81.2602003,76.3506258 80.8118704,75.9002209 C80.3407471,75.426911 81.5268838,65.7248466 81.5268838,63.4637301 C81.5268838,61.2024387 80.7708422,59.5443681 80.8118704,60.0718804 C80.8527233,60.5995675 79.1837159,86.1507791 78.7497634,90.5224693 C78.3156357,94.8939847 76.7649789,96.1752607 76.7649789,96.1752607 C77.2185688,96.7783067 79.7563578,97.1650675 80.0877397,94.7710675 C80.6698496,94.1066503 81.2105807,93.4555215 81.7172969,92.8169816 C84.0495941,89.7409049 88.0803548,83.2673834 88.2530591,75.0824632" id="Fill-24" fill="#98480B"></path>
                        <path d="M33.8071403,124.469624 C33.8071403,124.469624 31.3536871,124.398811 30.7493097,126.597157 C30.1447569,128.795504 33.7359545,129.610989 34.5893067,129.71747 C35.4426588,129.823777 45.7896633,132.199418 58.945699,129.433869 C74.6328609,126.135912 78.0397822,121.20751 78.3953602,120.07293 C78.7509382,118.938176 78.9643201,116.24344 75.5507361,116.527041 C72.1373275,116.810642 33.8071403,124.469624 33.8071403,124.469624" id="Fill-26" fill="#FFBD00"></path>
                        <path d="M34.1296327,124.405263 C34.1296327,124.405263 41.1212642,127.557223 56.2936446,125.005861 C71.4662003,122.454324 74.4975554,118.033327 74.4975554,118.033327 C74.4975554,118.033327 69.6606074,125.346637 49.2094366,126.450444 C38.3893801,127.034606 34.1296327,124.405263 34.1296327,124.405263" id="Fill-28" fill="#FAD400"></path>
                        <path d="M35.2677629,58.5568868 C35.2677629,58.5568868 33.693962,61.7548316 41.3210051,67.087304 C46.4155192,70.4167334 49.0213379,71.3082764 49.0213379,71.3082764 C49.0213379,71.3082764 56.4285117,69.8073929 57.8403037,69.37185 C59.2520957,68.9364819 60.377216,61.8231966 60.6004166,60.6338899 C60.8237926,59.444758 58.8153379,55.7002426 58.8153379,55.7002426 L35.2677629,58.5568868 Z" id="Fill-30" fill="#98480B"></path>
                        <path d="M57.3618689,56.3654991 C57.2289655,55.2929899 54.947866,52.4293518 54.5801899,52.4784837 C54.5801899,52.4784837 50.4324811,54.3941034 49.0352419,57.877223 C47.642912,61.3486279 45.271866,66.8089132 43.8274618,66.4142844 C43.9286297,66.4492537 44.0292716,66.4861463 44.1311409,66.5186678 L49.345233,68.1902015 C49.9154202,68.3730911 50.5124336,68.4271187 51.1013816,68.3494868 L55.1559878,67.8148058 C56.1916877,67.6782506 57.0611706,66.8800758 57.3825584,65.7711985 L58.9686327,60.2976248 C58.7613875,60.8212905 57.6578333,58.7544285 57.3618689,56.3654991" id="Fill-32" fill="#A05621"></path>
                        <path d="M53.4071682,48.8921696 C53.3947195,48.1770469 53.3847254,47.4704917 53.364036,46.7543199 C53.3450999,46.3909887 53.3263391,46.0283567 53.307403,45.6667739 L53.2793495,45.1252739 L53.2756675,45.0576083 C53.2754921,45.053412 53.2754921,45.0527126 53.2754921,45.0518383 L53.2747908,45.0441451 L53.2719854,45.0116236 L53.2609394,44.881188 L53.2388473,44.6204917 C53.1238279,43.2309856 52.9104461,41.8792463 52.6039617,40.602866 C52.2927432,39.3291083 51.8845649,38.1305347 51.3708354,37.0671175 C50.9414416,36.1664825 50.4375308,35.3641113 49.8889097,34.6822095 L43.7949899,34.1477034 C41.9090939,33.9822985 40.0317893,34.5717064 38.4988413,35.8110193 L34.672871,38.9035316 C33.8619498,39.5592064 33.3362975,40.5670224 33.2256615,41.6788721 L32.5537804,48.4249794 L32.0766957,49.1109028 L32.2353733,50.6794518 C32.9221578,51.3342525 33.5011117,51.6821972 33.6331385,51.9203383 C35.3535189,55.0245653 42.2813287,58.5319887 48.0002083,60.3605347 C48.3787551,59.4922463 48.7304758,58.6370715 49.0352068,57.8773629 C49.94151,55.6179948 52.0041429,54.0190224 53.3422945,53.173639 C53.3596526,52.4726788 53.3768354,51.7662985 53.3941935,51.0572954 C53.3984015,50.3376267 53.4027848,49.6148107 53.4071682,48.8921696" id="Fill-34" fill="#FF5A0C"></path>
                        <path d="M60.4632701,45.6817583 L60.1927293,40.8699791 C60.0212523,37.8239761 57.8713028,35.3825926 55.1494128,35.1437521 L52.2585004,34.8902245 C52.536756,35.3184239 52.7981795,35.7700528 53.0389135,36.2431877 C53.6483756,37.4281233 54.130545,38.7399975 54.5047085,40.1176141 C54.8736119,41.4968043 55.138016,42.9433104 55.2982716,44.4172675 L55.3287798,44.6940497 L55.3440339,44.8325282 L55.3580606,44.9884914 L55.3999655,45.5291172 C55.428019,45.8900006 55.4560725,46.2522828 55.4843013,46.6149147 C55.5249789,47.3527675 55.5558377,48.106881 55.5872226,48.8520773 C55.6016,49.5902798 55.6159774,50.3288319 55.6303548,51.0642368 C55.6310562,51.7980681 55.6319328,52.5292767 55.6326342,53.2545405 C55.6317575,53.3220313 55.6308808,53.3888227 55.6300042,53.4563135 C56.3906045,54.3765313 57.2804262,55.7076387 57.3619566,56.3655865 C57.4569878,57.1321141 57.6353028,57.8650712 57.8402686,58.4903227 C59.1612374,55.5621663 60.0110829,51.2523718 60.4103192,48.867289 C60.5021944,47.8087675 60.5230591,46.7437767 60.4632701,45.6817583" id="Fill-36" fill="#FF5A0C"></path>
                        <path d="M58.9686327,60.2976773 L59.1055688,59.8247172 C59.1730725,59.5919963 59.2209388,59.3528061 59.2489923,59.110119 L60.3532478,49.4800914 C60.3765673,49.2762202 60.3925227,49.0716497 60.4104068,48.867254 C60.0109952,51.2525117 59.1613251,55.5621313 57.840181,58.4902877 C58.2739581,59.813527 58.8280146,60.6531405 58.9686327,60.2976773" id="Fill-38" fill="#FFBD00"></path>
                        <path d="M33.6330859,51.9204083 C33.5010591,51.6822672 32.9222805,51.3341475 32.235496,50.6793469 L32.7825391,56.084031 L33.9853325,57.1124788 L34.3382805,58.423304 C34.7075346,59.7942764 35.491279,60.9797365 36.5552077,61.7768623 L40.0703103,64.4102273 C41.2297961,65.2786905 42.4958853,65.9516752 43.8275495,66.4143193 C44.9556505,66.7225739 46.6492048,63.4585371 48.0001557,60.3604298 C42.2814514,58.5318837 35.3536416,55.0246353 33.6330859,51.9204083" id="Fill-40" fill="#FFBD00"></path>
                        <path d="M55.6303548,51.0642718 C55.6159774,50.3288669 55.6016,49.5903147 55.5872226,48.8521123 C55.5558377,48.106916 55.5249789,47.3526276 55.4843013,46.6149497 C55.4560725,46.2523178 55.428019,45.8900356 55.3999655,45.5291521 L55.3580606,44.9885264 L55.3440339,44.8323883 L55.3287798,44.6939098 L55.2980963,44.4171276 C55.138016,42.9433454 54.8736119,41.4968393 54.5047085,40.1176491 C54.130545,38.7400325 53.6483756,37.4281583 53.0389135,36.2430479 C52.7981795,35.7700877 52.5365807,35.3184589 52.2585004,34.8902595 L49.8888571,34.6823669 C50.4374782,35.3640939 50.9415643,36.166465 51.3709581,37.0671 C51.8846877,38.1305172 52.2926906,39.3290908 52.6040844,40.6028485 C52.9105688,41.8792288 53.1237753,43.2309681 53.2387947,44.6204742 L53.2608868,44.8811706 L53.2719328,45.0116061 L53.2747382,45.0441276 L53.2754395,45.0518209 C53.2754395,45.0526951 53.2754395,45.0533945 53.2757902,45.0575908 L53.2792969,45.1252564 L53.3073504,45.6667564 C53.3262865,46.0283393 53.3450473,46.3909712 53.3639834,46.7544773 C53.3846728,47.4704742 53.3946669,48.1770294 53.4071156,48.8921521 C53.4027322,49.6147933 53.3985242,50.3376092 53.3941409,51.0572779 C53.3767828,51.7664558 53.3596,52.4726613 53.3424172,53.1736215 C54.0672493,52.7156982 54.5802776,52.4784313 54.5802776,52.4784313 C54.7222984,52.459373 55.1506401,52.8763822 55.6300042,53.4563485 C55.6308808,53.3888577 55.6317575,53.3220663 55.6326342,53.2544006 C55.6319328,52.5293117 55.6310562,51.7981031 55.6303548,51.0642718" id="Fill-42" fill="#FFBD00"></path>
                        <path d="M50.9330606,50.3076755 C50.9330606,50.3076755 49.5049626,50.4171294 49.0655747,50.4171294 C48.6261869,50.4171294 42.7491557,48.7191939 42.1449536,48.5550129 C42.6942761,49.4860712 46.8798571,53.2090804 48.0002434,53.4563135 C49.1204544,53.7035466 50.9330606,50.3076755 50.9330606,50.3076755" id="Fill-44" fill="#1F191A"></path>
                        <path d="M56.4945251,50.0857077 L56.9526737,50.0857077 C57.1015325,50.0857077 57.2482874,50.0610543 57.3887302,50.0120972 C57.8675682,49.8451187 58.9325489,49.3817752 59.185907,48.4974009 C59.314953,49.9092874 59.5749738,51.6079224 58.2757465,52.4777844 C58.190534,52.5398549 56.9339129,51.4551064 56.4945251,50.0857077" id="Fill-46" fill="#1F191A"></path>
                        <path d="M52.2585004,56.6240098 C52.2585004,56.6240098 55.4974514,54.9918166 56.2224588,55.2054791 C56.9474663,55.4189669 57.305499,56.5336141 57.198019,56.6240098 C57.0907144,56.7144055 56.8575198,58.4139147 56.2224588,58.4903227 C55.5873979,58.5665558 53.2785955,58.0245313 52.2585004,56.6240098" id="Fill-48" fill="#98480B"></path>
                        <path d="M55.517422,63.5825383 C56.0299242,63.4423113 56.5627652,62.7885598 56.9278113,62.6894218 C57.292682,62.589934 57.7590713,62.6231549 57.7250565,62.8216058 C57.6908663,63.0200567 56.9136092,63.6818512 56.6220282,63.8142101 C56.3306226,63.946569 54.6710832,63.8142101 55.517422,63.5825383" id="Fill-50" fill="#98480B"></path>
                        <path d="M40.3058895,77.3832874 C40.3029088,78.7764653 40.0707661,89.124588 44.2472297,98.101039 C47.2887542,105.074622 45.0179994,104.144787 40.3027334,105.175683 C36.0240499,106.206754 35.2150574,107.298846 35.2702877,107.231705 C35.325518,107.164563 42.9225789,105.27657 45.2802996,105.175683 C47.6380202,105.074622 47.900145,104.029563 48.4238686,104.029563 C48.9479429,104.029563 55.5349028,102.462413 57.4371049,102.113944 C59.339307,101.765649 61.0433813,100.810637 60.4970395,100.765527 C59.9506978,100.720766 50.0830574,102.273404 49.3845254,102.498606 C48.6858181,102.723634 47.2887542,102.639183 46.3282728,100.765527 C45.367616,98.8920451 40.6253486,77.3089776 40.8134823,76.5625574 C41.0014407,75.8157874 40.3058895,77.3832874 40.3058895,77.3832874" id="Fill-52" fill="#98480B"></path>
                        <path d="M13.9314342,83.565934 C13.9314342,83.565934 17.0788606,91.8694003 19.3674996,96.1078574 C20.5680137,100.720661 18.8634134,100.765597 18.8634134,100.765597 C18.8634134,100.765597 13.0582692,87.5714954 13.9314342,83.565934" id="Fill-54" fill="#98480B"></path>
                        <path d="M19.7034226,71.0906972 C19.2445727,71.4389917 18.5595415,74.1613537 17.5117435,75.3803844 C18.0356425,76.5125163 19.1707569,75.178961 20.3060467,74.0604672 C21.4411611,72.9421482 27.1717881,68.8724181 30.6811046,68.1209273 C24.4100972,69.5461021 20.6889768,72.0819028 20.6889768,72.0819028 L19.7034226,71.0906972 Z" id="Fill-56" fill="#98480B"></path>
                        <path d="M70.9533649,52.4777319 C70.9533649,52.4777319 70.1675165,55.0906399 71.9138464,56.3098454 C69.9927082,58.3127135 64.9280009,60.9209006 63.7927111,61.1406828 C62.6577721,61.3606399 69.0322267,56.8322871 69.6434422,56.396919 C70.254833,55.9615509 68.6829608,54.3057534 70.9533649,52.4777319" id="Fill-58" fill="#98480B"></path>
                        <path d="M21.7904796,79.647254 C24.7622211,78.5224656 29.64949,76.3284902 37.9452582,75.8109442 C38.9930562,75.9029135 39.1676892,74.5966344 37.9452582,74.683708 C36.722652,74.7707816 28.2522508,75.9476742 25.982022,76.9266405 C23.7116178,77.9057816 18.2792345,80.9762632 21.7904796,79.647254" id="Fill-60" fill="#98480B"></path>
                        <path d="M45.2803171,72.9421307 C45.2803171,72.9421307 43.9703944,75.0320724 44.3196603,75.0320724 C44.6691016,75.0320724 55.4097316,69.7662166 61.0858297,67.0873914 C66.7617525,64.4082166 69.5562309,63.7116276 69.5562309,63.7116276 C69.5562309,63.7116276 60.1253483,66.324011 45.2803171,72.9421307" id="Fill-62" fill="#98480B"></path>
                        <path d="M56.7181465,58.8872945 C56.0795789,58.7580828 55.4054184,59.1236871 54.3169429,60.8515215 C53.2284675,62.5795307 52.3344377,63.0152485 52.3344377,63.0152485 C52.3344377,63.0152485 53.5395105,63.1797791 54.3169429,63.0152485 C55.0943753,62.8508926 56.3518731,61.3003528 57.3169132,61.3003528 C57.8932371,61.3778098 58.2242684,61.5717147 58.2242684,61.5717147 C58.2242684,61.5717147 57.1300068,60.2783742 56.7181465,58.8872945" id="Fill-64" fill="#1F191A"></path>
                        <path d="M57.3594669,61.3073117 C57.2193747,60.9236982 56.9875828,60.4024804 56.7691162,60.4353515 C56.6023733,60.4601798 55.549666,60.853235 54.5116868,61.2504865 C54.1801296,61.7736276 53.6574579,62.5256429 53.200186,62.8650202 C53.5748755,62.9480724 54.4087655,62.7919344 55.0082336,62.6562534 C55.729559,62.1479742 56.6030746,61.3003178 57.3168606,61.3003178 C57.3319394,61.302416 57.3449141,61.3052135 57.3594669,61.3073117" id="Fill-66" fill="#CECECE"></path>
                        <path d="M53.200151,62.8650552 C53.6574229,62.5256779 54.1800945,61.7736626 54.5116517,61.2505215 C54.2977438,61.3323497 54.0841866,61.4145276 53.8795715,61.4935583 C52.9992178,62.6893344 52.3345254,63.0152485 52.3345254,63.0152485 C52.3345254,63.0152485 53.5394229,63.1797791 54.3168553,63.0152485 C54.5191911,62.9725859 54.7544897,62.8349816 55.0081985,62.6562883 C54.4087305,62.7919693 53.5748404,62.9481074 53.200151,62.8650552" id="Fill-68" fill="#9B9B9A"></path>
                        <path d="M103.479758,41.7740061 C106.237767,41.1714847 108.554635,41.0394755 110.485592,41.1889693 C102.663752,28.1611472 86.6113688,10.3049356 86.6113688,10.3049356 C86.6113688,10.3049356 82.7689171,22.2153129 84.4749201,27.5628221 C86.1812737,32.9101564 84.8406675,33.7609601 86.6113688,44.9420521 C87.0070984,47.441135 87.6496987,49.579684 88.4078443,51.3975644 C91.4313094,47.8932883 96.5510716,43.2876534 103.479758,41.7740061" id="Fill-70" fill="#FF5A0C"></path>
                        <path d="M107.048601,51.0120276 C99.0933316,52.194865 95.3567819,56.5030859 93.7796496,59.1392485 C94.561816,59.823773 95.0781756,60.1339509 95.0781756,60.1339509 L97.4181875,70.7569325 C97.4181875,70.7569325 114.821522,62.1999387 116.040271,61.8352086 C117.258844,61.4706534 118.233878,60.2552945 117.916699,59.3502883 C117.681049,58.6783528 118.440072,58.2952638 116.200526,52.8164448 C114.469801,51.3386411 111.648672,50.3282025 107.048601,51.0120276" id="Fill-72" fill="#A05621"></path>
                        <path d="M110.485592,41.1890218 C108.554635,41.0395279 106.237767,41.1713623 103.479758,41.7740586 C96.5510716,43.2877058 91.4313094,47.8933408 88.4078443,51.3976169 C90.1008725,55.4573807 92.3718027,57.9076813 93.7797373,59.1393009 C95.3568695,56.5031383 99.093244,52.1947426 107.048513,51.0120801 C111.64876,50.3282549 114.469889,51.3386936 116.200614,52.8164972 C115.42476,50.9183623 114.289821,48.4098377 112.627826,45.063623 C112.020468,43.8409206 111.29739,42.5409359 110.485592,41.1890218" id="Fill-74" fill="#FFBD00"></path>
                        <g id="Group-78" transform="translate(69.783061, 0.101236)">
                            <mask id="mask-6" fill="white">
                                <use xlink:href="#path-5"></use>
                            </mask>
                            <g id="Clip-77"></g>
                            <path d="M14.6919293,27.4615334 C14.6919293,27.4615334 12.0843572,20.3853156 12.0236915,18.9840948 C10.5470259,18.4329782 8.22577474,16.8504414 7.36698722,15.5326224 C6.50802437,14.2148034 4.47449688,13.2896899 4.32213135,12.7160181 C4.16994116,12.1425212 3.91255037,11.9832359 3.91255037,11.9832359 L2.61139435,12.5569077 L0.481257652,10.2036469 C0.481257652,10.2036469 0.199320059,6.39146595 0.0285444279,4.8890089 C-0.142231204,3.38655184 2.66329331,0.203643865 2.66329331,0.203643865 C2.66329331,0.203643865 4.39208975,-0.168080061 5.00312987,0.345269632 C5.61452065,0.858444479 6.55992333,1.36584939 6.8197688,1.36584939 C7.07943893,1.36584939 8.67585795,0.203643865 8.67585795,0.203643865 C8.67585795,0.203643865 9.88496345,0.227073313 10.3525801,0.770496626 C10.8201967,1.31409479 11.694063,1.69106411 11.694063,1.69106411 L13.295216,1.51569294 C13.295216,1.51569294 13.9390437,1.77883712 14.2551715,2.29848129 C14.5714746,2.81812546 15.1409605,3.28339233 15.6001611,3.16799356 C16.0593617,3.05259479 17.0764761,3.38462853 17.0764761,3.38462853 L17.942277,4.52637699 C17.942277,4.52637699 18.7642443,11.5546868 20.663115,14.5945702 C22.5621611,17.6342788 14.6919293,27.4615334 14.6919293,27.4615334" id="Fill-76" fill="#FF5A0C" mask="url(#mask-6)"></path>
                        </g>
                        <path d="M73.6955236,12.0844021 C73.6955236,12.0844021 72.2384954,8.61684387 72.0307242,7.32175491 C71.8227777,6.0264911 71.6670808,5.30105245 71.6670808,5.30105245 C71.6670808,5.30105245 71.5631076,5.44757393 71.6670808,6.77326104 C71.7708788,8.09877331 70.7839218,8.61684387 71.2515385,8.92772117 C71.7191551,9.23877331 72.706112,10.5857917 72.3943676,12.6580739 C73.4447955,12.3847887 73.6955236,12.0844021 73.6955236,12.0844021" id="Fill-79" fill="#E53500"></path>
                        <path d="M78.213293,6.77326104 C78.2865828,6.83952791 78.3688146,6.91016595 78.4596377,6.98587454 C80.0448354,8.30614141 84.2405857,11.1190739 88.482975,17.4327856 C88.5524074,16.9584267 86.2144996,12.6063193 82.5256407,9.39403712 L79.4849929,6.74633466 C79.1176675,6.42654018 78.566767,6.43808006 78.213293,6.77326104" id="Fill-81" fill="#E53500"></path>
                        <path d="M85.9937536,9.54945828 C86.006553,9.39401963 86.2144996,8.89151043 86.3184728,9.16864233 C86.4220954,9.44577423 87.5736912,13.0208632 87.7253554,13.3834951 C87.8770196,13.746127 87.4613019,13.6424429 87.0457596,12.9171791 C86.6300419,12.1917405 85.9937536,9.54945828 85.9937536,9.54945828" id="Fill-83" fill="#E53500"></path>
                        <g id="Group-87" transform="translate(0.000000, 103.610439)">
                            <mask id="mask-8" fill="white">
                                <use xlink:href="#path-7"></use>
                            </mask>
                            <g id="Clip-86"></g>
                            <path d="M8.98953105,0.0515797546 C8.55137058,0.114 2.34681486,2.95403374 1.427011,3.40286503 C0.507031798,3.85152147 -0.089981575,4.99239571 0.0110109955,5.80246012 C0.1121789,6.61252454 0.729531055,7.06642638 0.681138782,7.77752761 C0.632746508,8.48845399 0.156187816,9.27578834 0.270330461,9.86607055 C0.38464844,10.4563528 1.03145676,11.5554387 1.78627103,11.7986503 C2.54126062,12.0415123 3.27258009,12.2341933 3.19578366,12.5135982 C3.11898722,12.7930031 2.97310906,13.0577209 3.18596493,13.5958988 C3.39899614,14.1340767 3.79858306,15.2380583 4.49483566,15.444727 C5.19091293,15.6513957 6.58604814,15.9101687 6.62286835,16.1212086 C6.66003923,16.3324233 6.8678104,16.9730613 6.9612636,17.053316 C7.05454146,17.1335706 7.56476434,17.5974387 8.22980743,17.6248896 C8.89502585,17.6523405 13.4335548,17.045273 15.8216083,15.6767485 C18.2096618,14.3082239 17.6857629,12.5779417 17.6857629,12.5779417 L17.070164,11.3171227 L16.2413587,11.3171227 L16.414063,10.5203466 L14.9982383,8.62623313 C14.9982383,8.62623313 13.7610793,8.03665031 13.7235578,7.88383436 C13.6860363,7.7310184 13.9262443,6.66323006 13.8061403,6.35340184 C13.6860363,6.04357362 12.82269,4.21834969 12.5463632,4.11501534 C12.2700363,4.01168098 11.7177331,3.62422086 11.7177331,3.62422086 C11.7177331,3.62422086 11.5793944,2.46219018 11.510488,2.01458282 C11.4414062,1.56680061 9.71471382,-0.0517546012 8.98953105,0.0515797546" id="Fill-85" fill="#FF5A0C" mask="url(#mask-8)"></path>
                        </g>
                        <path d="M1.53054591,107.234607 C2.00587727,106.739267 4.50035869,105.20796 5.19100059,104.469583 C5.8816425,103.730856 6.95205854,102.270886 7.33200802,102.122791 C7.71178217,101.974696 11.4388639,102.537003 11.9592562,102.525638 C12.4798238,102.514273 15.1315801,104.30103 15.8802577,104.66646 C16.6289352,105.03154 17.173699,104.901629 18.3479129,108.689681 C19.5219516,112.477733 19.8377287,112.409018 19.5244062,112.822181 C19.2112591,113.235343 17.7675563,114.419405 15.9684508,113.534681 C14.1693453,112.649957 13.4443379,111.754742 13.4443379,111.754742 L10.5842844,105.165647 L1.53054591,107.234607 Z" id="Fill-88" fill="#FF5A0C"></path>
                        <path d="M17.2398351,113.854702 C16.4041917,113.144301 15.1028603,112.020911 15.0327266,111.857954 C14.929104,111.61684 14.5838707,110.549402 14.3766256,110.032905 C14.1693804,109.516233 13.0644235,109.191718 13.0644235,107.976534 C13.0644235,106.76135 14.8947385,105.969294 14.7563997,105.659291 C14.6184116,105.349288 12.270159,103.593304 12.1665364,103.558684 C12.0629138,103.524239 11.8495319,104.084098 10.5404859,104.027972 C9.23126449,103.972021 10.4745602,103.248856 8.98947845,103.662018 C7.5047474,104.075181 7.51684547,104.582936 7.78089896,104.522963 C8.33618276,104.396899 9.5046107,104.178515 9.79952303,104.522963 C10.0946107,104.867411 9.77672957,105.106077 9.93558247,105.313794 C10.0946107,105.521687 10.2601263,106.827791 9.93558247,106.915215 C9.61121397,107.002463 5.88167756,109.102896 4.74200446,109.447344 C3.60250669,109.791791 2.25576374,110.032905 2.22122288,110.411623 C2.18668202,110.790515 2.39392719,111.100344 2.77370134,110.962564 C3.15365082,110.824785 10.025529,107.277847 10.3018559,107.277847 C10.5780074,107.277847 11.6831397,108.483064 11.7865869,108.861957 C11.8902095,109.240675 12.4774042,110.772856 11.7865869,111.33254 C11.095945,111.892224 6.0887474,114.578393 5.36373997,114.750617 C4.63838187,114.922666 4.22406686,116.059169 5.1564948,115.645831 C6.0887474,115.232669 11.8277905,112.175825 12.1179688,112.120224 C12.4083224,112.064623 13.9035736,111.749199 14.3128039,113.112129 C14.7220342,114.475058 14.4802481,114.09634 14.9636449,114.681552 C15.4470416,115.267113 15.4817578,115.577117 15.1018083,115.818055 C14.7220342,116.059169 11.6040639,117.510046 10.5385572,117.800466 C9.47305052,118.091061 7.84998068,118.607558 7.88452155,118.814052 C7.91906241,119.020721 10.7621085,118.216426 11.2225364,118.033187 C11.6831397,117.849948 15.1686107,116.138899 15.3597251,116.133479 C15.5506642,116.128058 16.0342363,116.885669 16.1723997,117.367721 C16.2658529,117.69416 16.691214,118.150859 16.9566701,118.412255 C18.0142868,117.278374 17.6857103,116.18838 17.6857103,116.18838 L17.0701114,114.927561 L16.2414814,114.927561 L16.4140104,114.130785 L15.9684859,113.534733 C16.4185691,113.756089 16.8463848,113.847883 17.2398351,113.854702" id="Fill-90" fill="#E53500"></path>
                    </g>
                </g>
            </g>
        </g>
    </g>
</svg>