<?xml version="1.0" encoding="UTF-8" standalone="no"?>
<svg width="128px" height="128px" viewBox="0 0 128 128" version="1.1" xmlns="http://www.w3.org/2000/svg" xmlns:xlink="http://www.w3.org/1999/xlink">
    <!-- Generator: Sketch 41.2 (35397) - http://www.bohemiancoding.com/sketch -->
    <title>graphic</title>
    <desc>Created with Sketch.</desc>
    <defs>
        <circle id="path-1" cx="64" cy="64" r="64"></circle>
    </defs>
    <g id="Security-Plugin" stroke="none" stroke-width="1" fill="none" fill-rule="evenodd">
        <g id="Audit-Logging---Disabled---Free-/-Expired" transform="translate(-716.000000, -404.000000)">
            <g id="Logs" transform="translate(390.000000, 313.000000)">
                <g id="graphic" transform="translate(326.000000, 91.000000)">
                    <mask id="mask-2" fill="white">
                        <use xlink:href="#path-1"></use>
                    </mask>
                    <use id="Oval" fill="#F0F0F0" xlink:href="#path-1"></use>
                    <g id="Page-1" mask="url(#mask-2)">
                        <g transform="translate(-53.000000, 15.000000)">
                            <path d="M96.8034322,37.3536363 C93.0615521,45.1235812 65.5377161,51.307922 61.6438107,52.6985054 C56.0818675,53.532492 41.618877,51.5859176 38.0035836,67.1603298 C34.3876845,82.734742 37.4469653,94.6933952 54.6912303,102.7589 C57.7499054,110.546409 66.0937287,117.499325 68.0409842,118.333312 C69.9876341,119.167299 74.4375521,128.345391 77.4968328,130.570566 C80.5567192,132.795136 81.3907382,135.854299 81.3907382,135.854299 L124.778498,141.694627 L152.312631,132.239145 C152.312631,132.239145 155.927924,123.339654 155.927924,121.114479 L155.927924,117.220724 C155.927924,117.220724 162.881716,109.989812 163.994347,104.984075 C165.106372,99.977733 125.890524,46.0235842 125.890524,46.0235842 C125.890524,46.0235842 100.545312,29.5830857 96.8034322,37.3536363" id="Fill-14" fill="#A05621"></path>
                            <path d="M128.393913,43.5204737 L139.519011,54.6451403 C139.519011,54.6451403 147.306821,52.9765615 152.312752,54.6451403 C160.100563,54.6451403 172.337686,55.2011314 179.290872,61.0420659 C186.244058,66.8823948 191.249989,76.0598814 191.527995,90.5217058 C191.806001,104.98353 179.846885,108.599289 176.787604,109.989872 C173.728323,111.380456 160.100563,109.989872 152.312752,108.043298 C144.524941,106.096118 120.328702,100.255789 120.328702,100.255789 L128.393913,43.5204737 Z" id="Fill-16" fill="#A05621"></path>
                            <path d="M125.716331,57.0885333 L139.027321,55.8620824 C139.664495,55.8027283 139.942501,55.0256732 139.48582,54.5762774 L136.978312,52.1046003 L130.618085,45.7446196 C129.981517,46.8099664 128.880999,48.3774009 127.615132,48.998197 L125.716331,57.0885333 Z" id="Fill-18" fill="#98480B"></path>
                            <path d="M91.4966612,95.298626 C91.4966612,95.298626 126.218983,103.671803 140.115059,106.343952 C154.010529,109.016101 160.706302,109.627812 161.801368,109.768324 C162.89704,109.90823 190.71039,100.642924 184.474932,83.0068626 C178.239475,65.370196 165.94663,67.6862198 165.94663,67.6862198 C165.94663,67.6862198 157.930478,71.4273493 158.820825,82.4720695 C148.487955,81.937882 113.070314,79.2657332 91.4966612,95.298626" id="Fill-24" fill="#A05621"></path>
                            <path d="M113.437719,63.9394577 C114.27416,65.2397985 115.828936,59.4200619 113.423788,58.6666274 C111.018034,57.9137985 85.9720278,54.3743521 81.8291886,54.2610946 C77.6869552,54.1478372 69.4448858,54.2859265 66.3880278,53.206044 C63.330564,52.1261616 62.9441413,54.3361958 74.2697186,55.6541006 C85.5959016,56.972611 94.8234095,58.7611095 97.836053,58.4316333 C100.849302,58.1021571 110.77334,59.7967792 113.437719,63.9394577" id="Fill-28" fill="#98480B"></path>
                            <path d="M123.148679,61.4361049 C123.593852,63.379651 125.276426,59.2066897 132.803796,57.9117999 C134.975152,57.3025112 143.15302,57.5011659 142.2336,57.75009 C140.736363,58.1546674 140.071934,59.3683996 145.667796,58.2176555 C150.393297,57.244974 152.823278,56.71866 155.930408,56.6574888 C159.037537,56.5957121 156.429486,55.0894487 151.237007,55.2778073 C146.044527,55.4661659 133.410685,55.7265975 123.900326,57.5478013 C122.350395,57.8445722 122.971821,60.6638951 123.148679,61.4361049" id="Fill-30" fill="#98480B"></path>
                            <path d="M121.482458,83.9369667 C121.482458,83.9369667 121.347997,77.015544 120.60907,73.5887494 C119.869537,70.1613491 119.845915,69.1535396 120.328641,69.6907554 C120.810761,70.2285768 125.044452,80.4483952 125.380603,82.2938253 C125.716149,84.1386497 121.549688,85.9774176 121.482458,83.9369667" id="Fill-32" fill="#98480B"></path>
                            <path d="M54.6910486,102.75896 C54.6910486,102.75896 58.7163861,111.085502 66.0414587,113.370032 C68.0571558,116.057928 71.3502284,118.006925 74.5088404,117.939091 C75.3156038,119.820861 73.7699129,123.98716 79.0786826,124.457753 C84.3874524,124.928347 84.7902284,125.690867 85.3953009,125.881042 C85.9997678,126.070612 80.7588341,121.164808 79.548689,121.164808 C78.3391495,121.164808 75.5839192,119.417494 74.9794524,116.86466 C74.3743798,114.310614 72.4931432,115.812637 69.670077,114.322727 C66.8476164,112.83221 66.6459256,109.769414 66.6459256,109.769414 C66.6459256,109.769414 66.2431495,107.321963 67.0493073,105.641877 C63.5551495,105.641877 54.6910486,102.75896 54.6910486,102.75896" id="Fill-34" fill="#98480B"></path>
                            <path d="M162.602922,100.868409 L108.580058,95.4278122 L54.6910486,102.759263 C54.6910486,102.759263 60.732689,114.378144 73.0982158,116.05823 C84.6424429,117.626271 106.321484,116.410721 123.476714,107.903695 C125.626872,106.837742 128.179806,107.026101 130.151894,108.391852 C134.500664,111.403774 143.32479,116.273843 155.927743,117.221087 C155.927743,117.221087 162.881534,109.990175 163.994165,104.983833 C164.135894,104.34305 163.615011,102.896747 162.602922,100.868409" id="Fill-36" fill="#98480B"></path>
                            <path d="M98.8807268,120.918246 C102.887894,119.911648 123.330746,111.513639 127.476613,111.513639 C131.622481,111.513639 144.729358,121.618383 147.630556,122.518992 C150.532361,123.418995 144.910456,125.920349 140.517471,124.819874 C136.124487,123.7194 128.139831,114.114926 126.328853,114.21486 C124.518481,114.314793 112.365547,124.918596 104.182834,125.920349 C96.0007268,126.922708 94.8553893,121.928479 98.8807268,120.918246" id="Fill-38" fill="#A05621"></path>
                            <path d="M54.6910486,102.75896 C54.6910486,102.75896 68.2533956,108.303124 72.5615849,109.372105 C76.8703798,110.441085 98.2490044,106.521893 126.575364,94.4075868 C153.476563,83.540929 158.821068,82.4719484 158.821068,82.4719484 C158.821068,82.4719484 157.395301,75.876368 137.977257,77.0368025 C118.558001,78.1966314 85.6000202,78.9094871 85.6000202,78.9094871 C85.6000202,78.9094871 79.5426322,70.53631 74.9110107,67.1519112 C70.2787836,63.7669067 63.509118,61.6289454 63.509118,61.6289454 C63.509118,61.6289454 29.4827205,78.5091493 54.6910486,102.75896" id="Fill-40" fill="#A05621"></path>
                            <path d="M158.821007,82.4722512 C158.821007,82.4722512 160.21649,78.2738524 160.277057,75.936025 C160.338231,73.5981976 157.268654,68.5421917 157.268654,68.5421917 C157.268654,68.5421917 165.153979,69.1472408 169.559076,67.5858628 C167.671177,69.171467 164.19095,70.9018226 163.413865,72.002903 C162.637385,73.104589 160.690736,78.9951872 161.899669,82.5782408 C160.434534,86.4762348 158.821007,82.4722512 158.821007,82.4722512" id="Fill-42" fill="#98480B"></path>
                            <path d="M82.4014334,70.9020649 C80.6461779,70.2188863 75.8025691,66.2167196 69.5259256,63.7220277 C69.0468341,61.9038521 68.7706448,59.770736 68.085017,59.5751095 C67.0765628,60.684669 66.844588,61.9850098 66.8076416,62.7778119 C63.6678057,61.8432866 60.2608656,61.3932851 56.7576227,61.9438253 C56.7576227,61.9438253 65.6901653,63.5130768 69.7506322,65.5850217 C70.091629,65.8012405 70.4338372,66.0059518 70.7596921,66.182803 C74.0630612,68.5424339 80.617711,70.7131006 85.6000202,78.9094265 C89.9536353,86.1615366 101.122948,83.3301006 101.122948,83.3301006 C101.122948,83.3301006 85.2335849,72.0031452 82.4014334,70.9020649" id="Fill-44" fill="#98480B"></path>
                            <path d="M167.194024,102.958887 C167.194024,98.1493824 157.523765,83.8971146 157.523765,83.8971146 L156.704888,82.3575402 C144.303021,81.6852634 111.782945,80.2226071 91.4963584,95.2985655 C91.4963584,95.2985655 126.219286,103.671743 140.114756,106.343891 C154.010226,109.015435 160.705999,109.627751 161.801671,109.767658 C162.066352,109.801574 163.896106,109.28374 166.42663,108.232323 C166.868775,106.380836 167.194024,104.49725 167.194024,102.958887" id="Fill-46" fill="#FF5A0C"></path>
                            <path d="M158.821007,82.4722512 C158.821007,82.4722512 154.544919,82.1161262 152.941688,82.4098688 C161.899669,93.5169714 153.681221,108.365204 153.681221,108.365204 C157.451568,109.208881 162.212199,109.914468 166.480414,110.28089 C170.932149,108.873954 172.182269,96.0110577 169.331947,88.6777899 C166.48102,81.344522 158.821007,82.4722512 158.821007,82.4722512" id="Fill-48" fill="#FFAD00"></path>
                            <path d="M156.704707,82.3577824 C144.302839,81.6855057 111.782763,80.2228494 91.4967823,95.2988077 C91.4967823,95.2988077 109.725274,99.6940443 125.052568,103.132346 C124.945968,101.051317 125.440202,99.2882557 127.466196,98.3270815 C144.004845,87.5240176 153.352883,84.0106143 157.007546,82.9264923 L156.704707,82.3577824 Z" id="Fill-50" fill="#FF3500"></path>
                            <path d="M137.977136,77.036742 C122.545666,77.9585485 98.5680757,78.5975143 89.3690347,78.8216065 C87.8499937,81.4822479 85.5229779,87.2402077 86.1341073,96.9022182 C86.3993943,101.08487 86.5689842,104.711531 86.6780063,107.750706 C96.4403281,105.584279 110.366082,101.339851 126.575243,94.4081318 C153.476442,83.5408685 158.820946,82.4724935 158.820946,82.4724935 C158.820946,82.4724935 157.395785,75.8763074 137.977136,77.036742" id="Fill-52" fill="#FF5A0C"></path>
                            <path d="M77.9392808,93.5171531 C77.9392808,106.394585 80.6006309,108.870501 80.6521136,108.917742 C84.8100946,108.250917 90.2890599,107.024466 96.8031293,105.145725 C96.7904101,105.110597 93.9740063,97.2437469 94.3295394,90.8450043 C94.6856782,84.4323317 97.1816782,78.6204686 98.9672177,78.5695936 C91.1182334,78.7900519 85.5998991,78.9093659 85.5998991,78.9093659 C85.5998991,78.9093659 77.9392808,80.5125341 77.9392808,93.5171531" id="Fill-54" fill="#FFAD00"></path>
                            <path d="M75.2374107,51.5134813 C75.2374107,51.5134813 88.4527041,46.9922685 95.3774233,42.6279202 C100.055076,39.6795929 105.755114,50.1465185 100.336717,50.8484723 C94.9189249,51.5510318 76.3312656,52.5776167 74.4875811,53.4134202 C72.6432909,54.2498295 73.1865842,52.7635527 75.2374107,51.5134813" id="Fill-66" fill="#98480B"></path>
                            <path d="M134.201095,50.4689085 C134.291947,50.3053817 134.381587,50.0007374 134.468805,49.5955543 L128.393852,43.5202314 L127.685209,48.5065871 C126.548351,46.9288564 125.890584,46.0234025 125.890584,46.0234025 C125.890584,46.0234025 100.545373,29.5835097 96.8034927,37.3534546 C96.2438461,38.5163118 95.6696631,39.2467314 94.2027104,40.3278251 C94.8423066,44.8859829 93.5473666,49.4132522 95.7823192,50.9582775 C96.744742,51.6232865 113.218584,59.3338772 113.835165,59.5749278 C116.088288,60.4567612 123.294042,59.8644308 123.666534,59.5749278 C124.039026,59.2854249 133.422193,51.867971 134.201095,50.4689085" id="Fill-68" fill="#98480B"></path>
                            <path d="M126.401837,46.9272817 C126.102026,42.3267281 122.601206,32.6247445 121.100336,32.5248115 C118.200348,32.8246106 113.399137,46.6268769 112.499099,50.1275615 C111.982456,52.1359126 111.024273,53.491368 110.063667,54.2605496 C109.49978,54.0697683 108.921963,53.8729305 108.337484,53.6724588 C113.007263,55.271993 117.256096,56.6571254 117.546821,56.6571254 C118.193686,56.6571254 121.431642,56.6571254 121.79626,56.3742847 C121.962821,56.2440689 124.240172,54.8680213 126.734355,53.2836284 C126.573244,52.5132356 126.631995,50.4515868 126.401837,46.9272817" id="Fill-70" fill="#A05621"></path>
                            <path d="M107.897883,39.6259924 C102.884684,36.2276635 94.914564,27.4178094 91.5251886,22.6349537 C91.4858196,23.48711 91.4840025,24.4240579 91.5457817,25.4439805 C91.8571003,30.6350475 91.9867155,31.33579 93.0714852,32.6736814 C93.0714852,35.7334493 94.9642297,48.1584567 95.7728101,48.9682171 C96.2652265,49.4600088 103.956129,52.1921174 110.063788,54.2610341 C111.024394,53.4912469 111.982577,52.1357915 112.49922,50.1274403 C112.840217,48.8010564 113.742072,45.9944522 114.888015,43.0049403 C114.884987,43.0128138 114.881353,43.0206874 114.878324,43.0291665 C113.932861,42.9795028 112.183662,42.5313183 107.897883,39.6259924" id="Fill-72" fill="#FFBD00"></path>
                            <path d="M135.045774,31.6285635 C133.026443,34.0602674 128.172538,39.3494504 125.293143,41.4014088 C125.877623,43.4448879 126.305232,45.4489996 126.40214,46.9274028 C126.631692,50.4523135 126.573547,52.5133567 126.734052,53.2831439 C129.689762,51.4044028 132.950127,49.2319192 133.3632,48.4893865 C134.124538,47.1212124 134.78715,36.0183493 134.908285,34.1565665 C134.944626,33.5987585 135.042746,31.8799103 135.137232,29.5959862 C135.106948,30.3403359 135.075452,31.0253314 135.045774,31.6285635" id="Fill-74" fill="#FFBD00"></path>
                            <path d="M135.045774,31.6285635 C135.075452,31.0253314 135.106948,30.3403359 135.137232,29.5959862 C135.138443,29.5693374 135.139654,29.5426885 135.14026,29.5154341 C135.155402,29.1562808 135.169938,28.7831975 135.184474,28.3986067 C135.185686,28.3610561 135.186897,28.3222942 135.188109,28.2841379 C135.202645,27.910449 135.215364,27.5270695 135.228689,27.1346052 C135.229295,27.1134073 135.2299,27.0934207 135.231112,27.0728284 C135.243225,26.6815754 135.255339,26.2800263 135.266241,25.8748433 C135.268664,25.7948969 135.271086,25.7149504 135.272903,25.6356097 C135.284411,25.2273984 135.294102,24.8143418 135.303793,24.39644 C135.303793,24.3800874 135.304399,24.363129 135.304399,24.3467763 C135.312878,23.9482555 135.320146,23.5461007 135.326809,23.1427347 C135.32802,23.0537034 135.329837,22.9652778 135.331049,22.8762466 C135.3365,22.4680353 135.341345,22.0586126 135.344979,21.64919 C135.345585,21.5704549 135.345585,21.4905085 135.346191,21.4111677 C135.348613,21.0392957 135.349825,20.6680293 135.349825,20.2985799 C135.349825,20.2319579 135.35043,20.1647302 135.349825,20.0975025 C135.349219,19.6935308 135.346796,19.293193 135.342556,18.8964891 C135.341345,18.8007957 135.340134,18.7063135 135.338922,18.6112257 C135.334077,18.207254 135.327415,17.8069162 135.317724,17.4150576 C135.317724,17.3974936 135.317118,17.3817466 135.316512,17.3641826 C135.307427,16.9874653 135.295314,16.6186216 135.281989,16.25644 C135.27896,16.1698314 135.275932,16.0826171 135.272298,15.9966141 C135.257762,15.6326156 135.240197,15.275885 135.220815,14.9312674 C135.217181,14.8676737 135.212941,14.8071082 135.209307,14.7441201 C135.189926,14.4309966 135.169332,14.1269579 135.145711,13.8332153 C135.141471,13.7793121 135.137232,13.7241975 135.133597,13.6708999 C135.106948,13.3523254 135.076664,13.0488924 135.043957,12.7581781 C135.036689,12.6945844 135.029421,12.6322019 135.022153,12.5698195 C134.987023,12.2772882 134.950077,11.9950531 134.908285,11.7364385 C133.977358,5.94940729 129.323932,0.971530804 117.505938,0.162376042 C105.68855,-0.647384375 99.3349855,1.70013348 96.3399066,4.41164985 C93.3448278,7.12316622 92.5059634,17.138879 92.5059634,17.138879 L92.4950612,17.1661335 C92.4926385,17.1734013 92.4871874,17.1867257 92.484159,17.1970219 C92.4787079,17.2109519 92.4714397,17.2297272 92.4641716,17.2497138 C92.4569035,17.2697004 92.448424,17.2945323 92.4387331,17.3199698 C92.4326763,17.3393507 92.4248025,17.3623656 92.4169287,17.3841692 C92.4048151,17.4205085 92.3920959,17.4568478 92.3781653,17.4998493 C92.3739256,17.5131737 92.3684744,17.530132 92.363629,17.5440621 C92.309118,17.7130397 92.2430991,17.9347094 92.1710233,18.2060427 C92.1649666,18.2272406 92.1595155,18.2484385 92.1540644,18.2702421 C92.1310486,18.3580621 92.1074271,18.4513329 92.0838057,18.5488433 C92.0783546,18.5730695 92.0722978,18.598507 92.066241,18.6233388 C92.0414082,18.7287228 92.0159697,18.837135 91.9911369,18.9534207 L91.9911369,18.9540263 C91.909976,19.326504 91.8300265,19.7553076 91.7579508,20.2325635 C91.7524997,20.2689028 91.7476543,20.3046365 91.7422032,20.3415814 C91.7222158,20.4784594 91.7028341,20.6207882 91.6846637,20.7655397 C91.6780013,20.817626 91.6719445,20.8709237 91.6658877,20.9236156 C91.648323,21.0701841 91.631364,21.2191751 91.6162221,21.3736171 C91.6119823,21.4178299 91.6083483,21.4638597 91.6041085,21.5080725 C91.5720076,21.8581409 91.5447521,22.2245621 91.5265817,22.6115754 C91.525976,22.619449 91.5253703,22.6267168 91.5253703,22.635196 C94.9147457,27.417446 102.88426,36.2273001 107.898064,39.6262347 C112.183844,42.5309549 113.933042,42.9797451 114.878506,43.0294088 C114.881534,43.0209296 114.885168,43.0124504 114.888197,43.0045769 C114.992374,42.7326379 115.098367,42.4594876 115.206178,42.1857317 C115.234039,42.1154757 115.262506,42.0452198 115.290367,41.9743582 C115.378191,41.7526885 115.467831,41.5316246 115.557471,41.3099549 C115.588361,41.2336424 115.619856,41.1579356 115.650746,41.0816231 C115.747654,40.846629 115.845168,40.6122406 115.943894,40.3784579 C115.966304,40.3245546 115.988714,40.2706513 116.011124,40.2173537 C116.134683,39.9272451 116.258847,39.6395591 116.384828,39.3542957 C116.393913,39.3337034 116.403604,39.3137168 116.412083,39.2931246 C116.525345,39.0387496 116.638001,38.7886141 116.752474,38.5409013 C116.787604,38.4639832 116.823339,38.388882 116.859074,38.3125695 C116.948714,38.1193656 117.039566,37.9279787 117.129812,37.7402257 C117.169787,37.657251 117.209762,37.5742763 117.249736,37.4925129 C117.344222,37.2993091 117.439314,37.1109504 117.534405,36.9244088 C117.566506,36.8614207 117.598001,36.7972213 117.630102,36.7348388 C117.7579,36.4883374 117.885093,36.2478924 118.012285,36.0165323 C118.023793,35.9947287 118.035907,35.9753478 118.04802,35.9541499 C118.161282,35.7494385 118.274544,35.5519951 118.386594,35.3612138 C118.426569,35.2945918 118.465332,35.2309981 118.504096,35.166193 C118.591314,35.0226528 118.678531,34.8833522 118.764538,34.7488969 C118.807541,34.6822749 118.850544,34.6162585 118.893547,34.5514534 C118.98137,34.4194207 119.067982,34.2946558 119.154594,34.1741305 C119.191541,34.1220442 119.229093,34.0681409 119.265433,34.0184772 C119.387175,33.8543448 119.508916,33.6992972 119.628235,33.5593909 C119.63732,33.5484891 119.645799,33.5406156 119.654885,33.5303195 C119.765118,33.4025263 119.873534,33.2868463 119.981345,33.1814624 C120.017686,33.1451231 120.054632,33.1148403 120.091579,33.0809237 C120.171528,33.0082451 120.250872,32.9410174 120.32961,32.8810576 C120.369585,32.8513805 120.408954,32.8229147 120.448323,32.7962659 C120.526456,32.743574 120.603377,32.7005725 120.679086,32.6630219 C120.714216,32.6460635 120.748739,32.6254713 120.782657,32.6121469 C120.891074,32.5679341 120.997673,32.5358344 121.100638,32.5249326 C121.157572,32.5285665 121.218746,32.5509757 121.281131,32.5818641 C121.299907,32.590949 121.318683,32.6030621 121.337459,32.6139638 C121.385913,32.6430353 121.436184,32.6793746 121.487667,32.7235874 C121.506443,32.7387287 121.524008,32.7526588 121.542784,32.7702228 C121.611225,32.8338165 121.682695,32.9071007 121.755377,32.994315 C121.763856,33.0052168 121.774153,33.0185412 121.783238,33.029443 C121.848045,33.1093894 121.91467,33.1990263 121.983717,33.2953254 C122.005522,33.3268195 122.027326,33.3589192 122.049131,33.3922302 C122.112121,33.4842897 122.175717,33.5836171 122.239314,33.6883954 C122.256878,33.7162555 122.273837,33.7422987 122.290796,33.7707644 C122.372563,33.9082481 122.456146,34.0542109 122.540941,34.2098641 C122.552449,34.2322734 122.565774,34.2571052 122.577282,34.2801201 C122.651175,34.4169981 122.725673,34.5617496 122.800172,34.7113463 C122.820159,34.7519251 122.840752,34.7918984 122.860739,34.8330829 C122.940083,34.9947927 123.020033,35.1619534 123.099377,35.336382 C123.106645,35.3515234 123.113913,35.3654534 123.121181,35.3805948 C123.212033,35.5804609 123.304096,35.7882004 123.396159,36.0019966 C123.405244,36.0231945 123.414329,36.0449981 123.42402,36.0668016 C123.505787,36.2593999 123.588159,36.4580546 123.671137,36.660949 C123.683856,36.6930487 123.697181,36.7251484 123.7099,36.7572481 C123.894632,37.21694 124.078153,37.6972243 124.256828,38.1926499 C124.259856,38.2023403 124.26349,38.2120308 124.267124,38.2217213 C124.354948,38.4658001 124.44156,38.7123016 124.52696,38.9618314 C124.5312,38.9745501 124.53544,38.9872689 124.539679,38.9999876 C124.717749,39.5202451 124.88855,40.050193 125.051478,40.5825635 C125.053295,40.5898314 125.055717,40.5970993 125.057534,40.6037615 C125.138695,40.8696439 125.216828,41.136132 125.293143,41.4014088 C128.172538,39.3494504 133.026443,34.0602674 135.045774,31.6285635" id="Fill-76" fill="#FF5A0C"></path>
                            <path d="M102.106085,23.6234429 C101.764482,22.800358 111.689126,22.7058759 112.765416,22.7058759 C113.8411,22.7058759 117.100255,21.9227643 117.200192,23.2231051 C117.300129,24.5234458 114.747801,30.024608 113.423788,30.4243402 C112.09917,30.824678 104.515473,29.4244042 102.106085,23.6234429" id="Fill-78" fill="#1F191A"></path>
                            <path d="M124.027639,23.7157446 C124.346226,24.7883592 125.701734,29.3241077 126.701709,29.5245795 C127.701683,29.7244455 133.302996,24.1069976 133.103122,21.5147952 C132.502895,21.1229366 128.307967,22.2882164 127.508472,22.3657402 C126.708371,22.4438696 123.620623,22.3445423 124.027639,23.7157446" id="Fill-80" fill="#1F191A"></path>
                            <path d="M120.328459,5.21371845 C119.101355,2.73598482 118.344863,1.10011131 117.469052,0.160740774 C115.026958,-0.00581428571 112.830163,-0.030646131 110.83627,0.0486946429 C112.839248,0.0910904762 117.991753,1.92743571 117.991753,11.9831217 C117.991753,27.638086 118.717961,32.2652884 119.326062,33.9423464 C119.95839,33.1089655 120.562251,32.5808345 121.100093,32.5251143 C121.302996,32.5384387 121.54345,32.7334595 121.806314,33.0611187 C121.663374,31.9751798 121.524068,30.148525 121.524068,27.1305473 C121.524068,20.9304595 122.252699,9.09899375 120.328459,5.21371845" id="Fill-82" fill="#FFAD00"></path>
                            <path d="M118.526809,37.8122987 C118.399011,37.7632406 118.342077,37.6184891 118.40325,37.4955412 C118.772714,36.7505859 120.071288,34.4042793 121.776273,34.4042793 C123.44855,34.4042793 123.38556,36.6615546 123.312273,37.4513284 C123.297131,37.6166722 123.186897,37.7517332 123.028815,37.8007912 C122.572739,37.9413031 121.587907,38.2229326 120.818695,38.2828924 C120.031919,38.3434579 118.984702,37.9873329 118.526809,37.8122987" id="Fill-84" fill="#98480B"></path>
                            <path d="M123.07412,40.273619 C122.944505,39.324558 121.99359,36.9049673 123.312757,37.4512679 C127.485274,39.1779896 128.525224,40.0985848 127.971634,41.7356696 C127.677274,42.6072068 125.915356,42.5533036 126.215167,45.3744435 C126.339331,46.5463854 123.224934,41.3801503 123.07412,40.273619" id="Fill-86" fill="#A05621"></path>
                            <path d="M115.222228,43.2002034 C115.222228,43.2002034 117.419629,40.6703835 119.449862,40.1047019 C121.480702,39.5384147 123.511541,39.8382138 124.543616,39.8715249 C125.575086,39.9048359 126.873055,39.8533552 127.306115,39.762507 C127.738569,39.6716588 128.371503,40.8036275 127.971755,41.7357302 C127.572613,42.6678329 120.448626,41.3020814 119.583112,41.3523507 C118.717597,41.4026201 116.820613,43.6326409 115.222228,43.2002034" id="Fill-88" fill="#98480B"></path>
                            <path d="M120.2155,43.2558025 C120.2155,43.2558025 121.672762,42.6344007 122.941658,43.1001493 C124.210554,43.5665034 124.243261,44.265429 124.409822,44.7644885 C124.576384,45.2641537 123.311122,45.3973978 122.47892,44.7644885 C121.646718,44.132185 118.745519,43.5792222 120.2155,43.2558025" id="Fill-90" fill="#98480B"></path>
                        </g>
                    </g>
                </g>
            </g>
        </g>
    </g>
</svg>