<?xml version="1.0" encoding="UTF-8"?>
<svg width="120px" height="193px" viewBox="0 0 120 193" version="1.1" xmlns="http://www.w3.org/2000/svg" xmlns:xlink="http://www.w3.org/1999/xlink">
    <title>90208178-80CD-47FC-B8AA-DA176D25332D</title>
    <defs>
        <rect id="path-1" x="0" y="0" width="120" height="193"></rect>
    </defs>
    <g id="Dashboard" stroke="none" stroke-width="1" fill="none" fill-rule="evenodd">
        <g id="Dashboard---Free-/-Expired" transform="translate(-725.000000, -2275.000000)">
            <g id="Reporting---Pro" transform="translate(695.000000, 1613.000000)">
                <g id="Graphic-/-Dashboard---Reporting" transform="translate(30.000000, 662.000000)">
                    <g id="graphic-defender-reports-upsell">
                        <mask id="mask-2" fill="white">
                            <use xlink:href="#path-1"></use>
                        </mask>
                        <g id="Mask"></g>
                        <g id="graphic" mask="url(#mask-2)">
                            <path d="M7.96947951,171.403767 C7.98611523,171.26444 8.00436831,171.127438 8.02215929,170.989739 C8.00436831,171.127671 7.98611523,171.26444 7.96947951,171.403767" id="Fill-1" fill="#9F5622"></path>
                            <path d="M7.7685339,173.442064 C7.7761586,173.343907 7.78447646,173.24668 7.79279432,173.149453 C7.78447646,173.246913 7.7761586,173.343907 7.7685339,173.442064" id="Fill-3" fill="#9F5622"></path>
                            <path d="M8.18518933,169.83579 C8.2450317,169.44817 8.3081088,169.066133 8.37603799,168.692008 C8.3081088,169.066133 8.2450317,169.44817 8.18518933,169.83579" id="Fill-5" fill="#9F5622"></path>
                            <path d="M10.5163387,170.458937 C11.2392993,170.767916 12.0426658,170.990577 12.8515776,171.059213 C13.0537478,171.07643 13.2561491,171.082945 13.4578572,171.069915 C15.0962444,170.99872 16.4825542,169.835394 17.5654933,168.69487 C17.6932648,168.535959 17.8184948,168.374722 17.9416454,168.211159 C18.557629,167.394504 19.1202398,166.527361 19.6800779,165.674876 C20.9097348,163.801456 22.2313502,161.893602 24.104948,160.691188 C19.6789227,158.996688 14.51746,159.384308 10.3624583,161.660006 C9.54707703,163.689311 8.8610847,166.017126 8.3761073,168.690914 C8.86801625,169.106454 9.39319664,169.576671 9.94309955,170.019665 C10.1314066,170.171363 10.3227174,170.319803 10.5163387,170.458937" id="Fill-7" fill="#FF5B0C"></path>
                            <path d="M27.1615995,162.309747 C27.3630765,163.896756 26.8439035,165.582647 26.3210336,167.138247 C22.506602,178.484628 18.6921704,189.83101 14.8779699,201.177391 C14.6418351,201.879575 14.4003861,202.592461 14.0112952,203.217865 L15.2853139,203.01754 C15.2853139,203.01754 26.8173325,177.323164 29.6525673,169.369971 C30.0167046,168.348571 30.35404,167.300182 30.6659598,166.248535 C29.8829257,164.678976 28.6317811,163.344874 27.1615995,162.309747" id="Fill-9" fill="#FF5B0C"></path>
                            <path d="M38.1691077,100.035174 C38.1691077,100.035174 32.9039029,99.4232642 29.0561999,112.882478 C25.2084968,126.341459 27.0310322,140.41235 26.2209651,141.431888 C25.4108981,142.45166 23.790995,146.530047 23.5883627,147.549818 C23.5063394,147.962566 21.1135685,148.719891 18.203011,150.980233 C22.6389715,150.394848 27.2946621,151.570505 30.8986057,154.24755 C31.6446714,154.801759 32.3706357,155.44787 32.7322315,156.307567 C32.8029333,156.475552 32.8574615,156.646793 32.8990508,156.820361 C33.4544989,153.858767 33.7139699,151.832253 33.7139699,151.832253 C33.7139699,151.832253 39.7892419,150.812482 46.4721796,142.655474 C50.1172504,138.169225 63.6855271,129.196493 65.7106948,121.2433 C67.7358624,113.29034 38.1691077,100.035174 38.1691077,100.035174" id="Fill-11" fill="#9F5622"></path>
                            <path d="M8.07495459,170.589187 C8.09713555,170.427297 8.12000966,170.266106 8.14357693,170.106542 C8.12000966,170.266106 8.09713555,170.427065 8.07495459,170.589187" id="Fill-13" fill="#9F5622"></path>
                            <path d="M7.85051102,172.51305 C7.86044624,172.409543 7.87015041,172.305106 7.88077879,172.202529 C7.87015041,172.305339 7.86044624,172.409311 7.85051102,172.51305" id="Fill-15" fill="#9F5622"></path>
                            <path d="M8.01432664,180.351208 C7.99330094,179.908678 7.97204419,179.465219 7.95009428,179.021526 C7.97204419,179.465219 7.99330094,179.908678 8.01432664,180.351208" id="Fill-17" fill="#98480C"></path>
                            <path d="M7.70266108,174.372295 C7.72183836,174.057964 7.74448142,173.748985 7.76851079,173.4421 C7.74448142,173.748985 7.72183836,174.057964 7.70266108,174.372295" id="Fill-19" fill="#98480C"></path>
                            <path d="M8.54096265,193.945809 C8.52409588,193.405328 8.50607385,192.849956 8.48735867,192.281555 C8.50607385,192.849956 8.52409588,193.405328 8.54096265,193.945809" id="Fill-21" fill="#98480C"></path>
                            <path d="M8.4074379,189.941898 C8.372087,188.941438 8.33396348,187.910964 8.29306734,186.859085 C8.33396348,187.910964 8.372087,188.941438 8.4074379,189.941898" id="Fill-27" fill="#98480C"></path>
                            <path d="M8.2682755,186.225212 C8.20958838,184.740575 8.14558708,183.216619 8.07557843,181.675677 C8.14558708,183.216619 8.20958838,184.740575 8.2682755,186.225212" id="Fill-29" fill="#98480C"></path>
                            <path d="M8.02211308,170.989743 C8.0392109,170.855533 8.05677082,170.721788 8.0750239,170.589439 C8.05677082,170.721788 8.03944195,170.855766 8.02211308,170.989743" id="Fill-31" fill="#98480C"></path>
                            <path d="M7.79274811,173.1495 C7.81077014,172.935448 7.83017848,172.72349 7.85051102,172.513161 C7.83017848,172.72349 7.81077014,172.935448 7.79274811,173.1495" id="Fill-35" fill="#98480C"></path>
                            <path d="M8.37617662,168.690961 C8.37617662,168.691426 8.37617662,168.691659 8.37594557,168.692124 C8.37617662,168.691659 8.37617662,168.691426 8.37617662,168.690961" id="Fill-37" fill="#98480C"></path>
                            <path d="M8.14366935,170.106397 C8.15707034,170.01545 8.17116449,169.925899 8.18525864,169.835883 C8.17116449,169.925899 8.15707034,170.015683 8.14366935,170.106397" id="Fill-42" fill="#98480C"></path>
                            <path d="M7.88073258,172.202483 C7.90845877,171.933289 7.93803339,171.66712 7.96945641,171.403976 C7.93780233,171.666888 7.90845877,171.933522 7.88073258,172.202483" id="Fill-44" fill="#98480C"></path>
                            <g id="Group-50" transform="translate(7.624704, 160.528718)">
                                <polygon id="Clip-49" points="0.0779106143 43.5083836 19.581292 43.5083836 19.581292 0.162516609 0.0779106143 0.162516609 0.0779106143 43.5083836"></polygon>
                                <path d="M18.6962831,6.60943533 C19.219153,5.05406878 19.7383261,3.36794442 19.536849,1.78093541 C18.7928627,1.25720615 17.9952724,0.807464413 17.1734218,0.445437435 C16.9446806,0.344460759 16.7131669,0.251860028 16.4802668,0.162516609 C14.606669,1.36493012 13.2850536,3.27278437 12.0553968,5.14597152 C11.4955587,5.99868931 10.9329479,6.86583233 10.3169642,7.68248702 C10.1938137,7.84581795 10.0685837,8.00728757 9.94081214,8.1659652 C8.85787308,9.30672245 7.47156322,10.4700482 5.83317601,10.5412438 C5.63146793,10.554273 5.42906669,10.5477584 5.2268965,10.5305412 C4.41798469,10.4616723 3.61461813,10.2392444 2.89165753,9.93026506 C2.69803626,9.7911313 2.51642966,9.64269093 2.32812257,9.49099325 C1.77821966,9.0479988 1.23316883,8.57778253 0.771065546,8.16224256 L0.771065546,8.16340589 C0.771065546,8.53753145 0.630355095,8.91956763 0.570512719,9.30695511 C0.556418569,9.39722919 0.537472334,9.48680528 0.523840287,9.57777735 C0.500273019,9.73738565 0.474857339,9.8986226 0.452676381,10.0605575 C0.434423301,10.1931767 0.415939169,10.3269591 0.398610296,10.4612069 C0.38081932,10.598712 0.362104136,10.7357518 0.345468418,10.8751182 C0.313814343,11.1382625 0.284008681,11.4046641 0.256282483,11.6738577 C0.245654108,11.776463 0.235949939,11.880697 0.226014718,11.9844657 C0.205682173,12.194795 0.186042784,12.4067529 0.168020755,12.6208049 C0.159933948,12.7180589 0.151616089,12.815313 0.143991385,12.9134976 C0.119730962,13.2201503 0.0970879008,13.5293623 0.0779106143,13.8436929 C0.166634446,15.3825403 0.248888831,16.9397681 0.325597977,18.492808 C0.347316831,18.9365005 0.368804634,19.3799602 0.389599282,19.8224894 C0.41039393,20.2650185 0.430957526,20.7066169 0.450827968,21.1468194 C0.520836616,22.6879934 0.584837921,24.2119501 0.643525039,25.6965865 C0.65207395,25.9085444 0.660160757,26.1198044 0.668478616,26.3303664 C0.709143706,27.3822455 0.747267227,28.4127195 0.782618128,29.4131796 C0.811037481,30.2135478 0.83760842,30.9948373 0.862793049,31.7528604 C0.881508232,32.3212614 0.899299209,32.8766331 0.916165979,33.4171143 C0.927487509,33.7775126 0.938346936,34.1311636 0.948975312,34.477602 C0.959372636,34.8242731 0.969538908,35.1637316 0.979243077,35.4955121 C0.984095162,35.6614023 0.988947246,35.8254312 0.993568279,35.9873662 C1.00281035,36.3114688 1.01182136,36.6276607 1.02037027,36.935244 C1.02476025,37.0890357 1.02891918,37.2407334 1.03307811,37.3903371 C1.04139597,37.6893118 1.04902067,37.9796779 1.05664538,38.2609701 C1.09407574,39.6667329 1.12226405,40.8421573 1.14213449,41.7216316 C1.14629342,41.8975264 1.14999024,42.0615553 1.15322497,42.213253 C1.1717091,43.0478229 1.18025801,43.5084999 1.18025801,43.5084999 L6.3865447,42.6892859 C6.77563567,42.0636493 7.01731569,41.350996 7.25321942,40.6488125 C11.067651,29.302431 14.8818515,17.9558168 18.6962831,6.60943533" id="Fill-48" fill="#E43500"></path>
                            </g>
                            <path d="M30.8985826,154.24762 C27.294639,151.570575 22.6389484,150.394918 18.2029879,150.980303 C15.5708475,153.024267 12.5165759,156.299727 10.3624814,161.660099 C14.5174831,159.384401 19.6789458,158.996781 24.1049711,160.691281 C24.180525,160.642887 24.2551546,160.593329 24.3325569,160.547262 C24.9205834,160.196635 25.6855954,159.928605 26.2606829,160.300171 C26.5522701,160.48863 26.7327214,160.809475 26.8625724,161.13288 C27.0164528,161.516312 27.110953,161.909981 27.1615533,162.3097 C28.6317349,163.344827 29.8828795,164.679162 30.6659136,166.248489 C31.6659051,162.876938 32.4013424,159.473512 32.8990277,156.820431 C32.8574384,156.646863 32.8029102,156.475621 32.7322084,156.307637 C32.3706126,155.44794 31.6446483,154.801828 30.8985826,154.24762" id="Fill-51" fill="#FFBC00"></path>
                            <path d="M27.1615995,162.309747 C27.1109992,161.910028 27.016499,161.516359 26.8626187,161.132926 C26.7327676,160.809289 26.5523163,160.488677 26.2607291,160.300218 C25.6856416,159.928652 24.9206296,160.196682 24.3326031,160.547308 C24.2552008,160.593376 24.1805712,160.642701 24.1050173,160.691328 C24.3379173,160.780439 24.5694311,160.873272 24.7981722,160.974016 C25.6200229,161.336276 26.4176132,161.785785 27.1615995,162.309747" id="Fill-53" fill="#FFBC00"></path>
                            <path d="M2.94140295,75.7512368 C2.94140295,75.7512368 -2.28775785,81.9920142 1.19834935,96.6189744 C2.34205499,102.185721 2.36007702,104.729682 2.08327715,105.877419 C1.86493334,106.78365 2.14635425,107.737111 2.81940769,108.377871 C4.04721612,109.546548 5.65071453,110.939049 6.42751016,111.050728 C7.7833212,111.245935 11.0755761,112.221034 11.656671,112.025828 C12.2377658,111.830855 13.9808195,109.490709 14.7555356,108.515376 C15.5300207,107.540277 17.4669267,105.200131 16.3047369,104.029825 C15.1427782,102.859752 11.8502922,101.299499 11.8502922,101.299499 C11.8502922,101.299499 9.71999608,98.3742003 10.1072386,96.0338215 C10.4947122,93.6936754 14.368062,82.9671139 11.656671,77.7014361 C8.94527992,72.4357584 2.94140295,75.7512368 2.94140295,75.7512368" id="Fill-55" fill="#FF5B0C"></path>
                            <path d="M11.540683,81.0731497 C11.6737688,83.8197619 10.9263167,86.5240289 10.6294154,89.2576118 C10.5229005,90.2396914 10.4736865,91.2327063 10.2479491,92.1943114 C9.95543771,93.4397679 9.37249441,94.607747 9.15553692,95.8687921 C8.90184221,97.3450525 9.17933524,98.9083297 9.92563205,100.20474 C8.91593636,100.492081 7.84847777,100.490918 6.81821849,100.690545 C5.78795921,100.890171 4.72512164,101.353175 4.20202072,102.268945 C2.70295766,95.0919232 3.85706062,87.647569 3.52619466,80.3209433 C5.01509146,82.3374522 8.46238199,82.0463881 10.8796443,81.4226128" id="Fill-57" fill="#E43500"></path>
                            <path d="M1.87112553,73.5475954 C5.68879184,74.6888179 9.34495306,75.9210126 13.3037919,76.3556311 C13.3902052,77.4805671 13.4768496,78.6052705 13.5632629,79.7302065 C13.5792055,79.9379764 13.5942238,80.1534244 13.5230599,80.3493284 C13.4546686,80.5375545 13.313034,80.6887869 13.1667783,80.8246633 C11.5960892,82.2820779 9.27471336,82.4912438 7.13933406,82.522421 C6.35375847,82.5340542 5.55039191,82.5287029 4.80964034,82.2655586 C3.84777234,81.9237735 3.08460876,81.1811064 2.40369957,80.4165687 C1.61766187,79.5338371 1.34409673,79.6932127 1.10287881,78.5326789 C1.10287881,78.5326789 1.2281088,74.3479635 1.87112553,73.5475954" id="Fill-59" fill="#FFAD00"></path>
                            <path d="M35.652655,118.455623 C34.364311,118.598246 33.4010567,119.708757 32.74926,120.836951 C29.1229045,127.114256 31.1554658,135.529522 27.5150161,141.798452 C26.7962144,143.036231 25.8525995,144.201418 25.5982116,145.612299 C25.4826858,146.252361 25.5367519,146.967574 25.9494101,147.468037 C26.1862381,147.755145 26.5173351,147.944302 26.8415005,148.125548 C28.3121442,148.947787 30.1681821,149.73373 31.5840666,148.81889 C32.5239847,148.211634 32.9530476,147.011082 33.885572,146.392658 C34.2554857,146.147197 34.6833933,146.008761 35.1029831,145.865439 C43.294457,143.066245 50.4309492,137.246591 54.8532776,129.760124 C55.0369637,129.449051 55.2229603,129.094469 55.1390885,128.742447 C55.0723146,128.461853 54.8484256,128.251058 54.6333165,128.06004 C50.3082607,124.218506 45.2535439,121.212472 39.8245235,119.252966 C38.4416794,118.753899 36.9747325,118.316722 35.5228039,118.540545" id="Fill-61" fill="#98480C"></path>
                            <path d="M23.4707343,40.0616122 C23.4707343,40.0616122 14.7554663,42.2067849 9.91354805,52.3481936 C5.07186085,62.4896023 13.0124127,67.1701272 16.6921412,68.3402002 C20.3718697,69.510506 25.6010305,68.9253531 25.6010305,68.9253531 L23.4707343,40.0616122 Z" id="Fill-63" fill="#98480C"></path>
                            <path d="M9.91361736,55.8586454 C9.91361736,55.8586454 1.77944424,61.709476 1.77944424,76.1412301 C2.02366582,77.3717961 2.63433532,78.4276306 3.3559096,79.296635 C4.94115493,81.2056525 7.6848932,81.644459 9.82188986,80.3945818 C11.0584783,79.6714585 12.5154899,78.9083168 13.7869671,78.4816089 C16.6922105,77.5065093 23.2769513,72.8257517 24.6327623,65.4149013 C25.9885734,58.0038182 9.91361736,55.8586454 9.91361736,55.8586454" id="Fill-65" fill="#98480C"></path>
                            <path d="M85.2037826,27.2721716 C85.3447241,26.6395551 86.0036834,26.1502603 85.9369095,25.5053125 C85.8687492,24.8478007 85.4343721,24.1176975 85.0023056,23.7952236 C84.9944498,23.7193747 84.9995329,23.6456199 85.0094682,23.5723304 C84.8419557,23.576751 84.4554063,23.5883843 84.2199647,23.6072301 C83.9131281,23.6321253 84.9914461,22.2314811 85.2245772,22.2687075 C85.272867,22.2763855 85.3024416,22.2984887 85.3236984,22.3259431 C85.4133464,22.0886247 85.545739,21.8568902 85.6291487,21.6167798 C86.1661127,20.0730465 84.002083,18.8585344 83.9893751,17.2228983 C84.2063326,17.0981898 84.4142791,16.6321615 84.4142791,16.6321615 C84.2915907,15.2538532 82.8313443,14.4981567 81.7283038,13.6728934 C78.8644186,11.53028 77.5166944,7.53099874 74.2394579,6.11104331 C72.1856398,5.22133176 69.8259094,5.57102749 67.6494029,6.08545014 C64.9678175,6.71946268 62.339143,7.58055641 59.8003475,8.65663275 C58.9232755,9.02866433 58.0364992,9.43978365 57.3615974,10.1152106 C56.5711697,10.9062721 56.1425689,11.9870017 55.8036162,13.0560981 C54.4685998,17.2654761 54.2109772,21.8164065 55.0621714,26.1511909 C51.5102145,28.2619292 47.9584886,30.3724348 44.4065317,32.4829404 L45.5412263,32.2968083 C46.3244914,33.0492474 47.4478645,33.2814472 48.4681886,33.6462662 C50.8152112,34.485722 52.7747602,36.1271747 54.8401308,37.5287496 C57.1481057,39.0948187 59.6390734,40.387041 62.245336,41.3702839 C62.9334078,41.6297056 63.6529026,41.871212 64.3860295,41.8221196 C64.88487,41.7886159 65.3643021,41.6217949 65.8365717,41.4566027 C66.9409985,41.0699132 68.0454254,40.6834564 69.1500833,40.2967669 C70.6225754,39.7814136 72.208745,39.1771822 73.027592,37.8412189 C73.9379355,36.3556519 73.7630294,34.1653421 75.1962427,33.1827972 C75.7618572,32.7949444 76.467951,32.6939677 77.1465497,32.6032283 C79.2606722,32.3205401 81.3747947,32.0380846 83.4889173,31.7553965 C84.5272634,31.616728 85.8130658,31.2463251 85.9609388,30.2021239 C86.1051151,29.1835159 84.9803556,28.2758891 85.2037826,27.2721716" id="Fill-67" fill="#9F5622"></path>
                            <path d="M78.6355158,30.0035675 C74.9386895,30.0035675 58.7650744,26.5135902 57.3787645,26.0482599 L54.9876111,25.7367212 C55.0123336,25.8749243 55.0349767,26.0133601 55.0622407,26.1513305 C51.5102838,28.2618361 47.9583269,30.3723417 44.40637,32.4828473 L45.5412957,32.2967152 C46.3245607,33.049387 47.4479338,33.2815868 48.4680268,33.6464058 C50.8150494,34.485629 52.7748295,36.1270816 54.8402001,37.5286565 C57.1479439,39.0947256 59.6391428,40.3871806 62.2454053,41.3701908 C62.9334771,41.6298452 63.6527409,41.8713516 64.3860988,41.8220266 C64.8849393,41.7887555 65.3643714,41.6219345 65.83641,41.4565096 C66.9410679,41.0700528 68.0454947,40.6833633 69.1501526,40.2966738 C70.6226448,39.7813205 72.2088143,39.1770891 73.0274303,37.8413585 C73.9380048,36.3555588 73.7630987,34.165249 75.196081,33.1827041 C75.7616954,32.7948513 76.4680203,32.6938746 77.1463879,32.6031352 C79.2607415,32.3206797 81.374633,32.0379916 83.4889866,31.7555361 C84.17521,31.6636333 84.9677171,31.4693579 85.4702545,31.047536 C85.4928975,29.5333512 81.6754623,30.0035675 78.6355158,30.0035675" id="Fill-69" fill="#98480C"></path>
                            <path d="M84.3453333,23.6449452 C84.3453333,23.6449452 84.0505114,23.7021808 83.7436748,23.7268433 C83.4366072,23.7515058 84.9913537,22.2315044 85.2247159,22.2687308 C85.2725436,22.2761761 85.3048908,22.2964179 85.3261475,22.3234071 C85.0976375,22.4660308 84.3453333,23.6449452 84.3453333,23.6449452" id="Fill-71" fill="#2F302F"></path>
                            <path d="M32.1860023,103.834875 C32.1860023,97.2039178 26.569599,86.0876422 23.6643556,82.7721637 C20.7593433,79.4566853 13.9807501,63.4646787 13.9807501,56.443775 C13.9807501,49.4228714 14.9490876,41.231662 27.1504628,34.4059644 C39.351838,27.5800342 50.5848758,30.8955126 59.6876174,33.0406853 C68.790128,35.1860907 71.3078977,41.8168149 74.21291,44.352167 C77.1181534,46.8875192 83.5092729,52.3481703 80.216787,66.5849511 C76.9243011,80.8219644 71.6951403,86.8677684 69.9520867,86.6725624 C68.2090331,86.477589 64.9167782,89.0129411 64.3356833,92.1334462 C63.7545884,95.2537185 67.2406956,103.444928 67.2406956,103.444928 L32.1860023,103.834875 Z" id="Fill-73" fill="#9F5622"></path>
                            <path d="M34.5796742,91.4378472 C35.8361331,90.6244498 36.3645482,88.9646166 36.1681543,87.4734656 C35.9715293,85.9823147 35.1663144,84.6405347 34.2351762,83.4641797 C32.0769228,80.7385074 29.1661342,78.6531297 27.232463,75.7613345 C26.1296535,74.1122039 25.3808151,72.2511153 24.7237043,70.3762995 C23.4508408,66.7441638 22.4926696,63.0005815 21.863516,59.2013922 C21.4857465,56.9203431 21.2265066,54.5902016 21.5314948,52.2979845 C21.9506224,49.149327 23.4226525,46.218444 25.3080339,43.6714586 C27.1934153,41.1247058 29.4896065,38.9199708 31.7737831,36.7289631 L31.4295161,36.9332431 C31.540883,36.8255191 31.5002179,36.5761021 31.3479549,36.4895507 C31.1677346,36.387178 30.9426903,36.444181 30.7469896,36.5116539 C28.7421545,37.20011 27.1037673,38.6756724 25.6689365,40.2445336 C22.6507089,43.5451214 20.2660249,47.4310948 18.6847074,51.6258148 C18.0238997,51.6702539 17.7110558,50.8249814 17.6452061,50.1611877 C17.5793564,49.4976267 17.3984429,48.6521215 16.7438736,48.5497489 C16.0361625,48.4390002 15.6172658,49.3289445 15.5352425,50.0453205 C14.9354324,55.2742371 19.0883547,60.0243289 19.0666358,65.28768 C19.0650185,65.6557562 19.0125697,66.0799048 18.7068884,66.2818582 C18.2842949,66.5608237 17.7445583,66.2183406 17.3305138,65.9268111 C16.9164692,65.635049 16.2653657,65.4198338 15.9749338,65.8363044 C15.9569117,65.8618976 15.9423555,65.8888867 15.9294166,65.9163412 C18.1599892,72.9111864 21.751687,80.5893691 23.6643325,82.7722335 C24.7595173,84.0218781 26.2398652,86.3806374 27.6594465,89.1893711 C28.5062507,90.0688454 29.4055037,90.9087666 30.4932949,91.4443618 C31.7728589,92.074419 33.3816715,92.2133201 34.5796742,91.4378472" id="Fill-75" fill="#98480C"></path>
                            <path d="M40.6121323,37.1859175 C36.0853685,39.2370935 32.1859099,42.6684391 29.5607011,46.9110882 C27.5879822,50.0990661 26.3382238,54.1572117 27.8451427,57.5934434 C28.9662052,55.4554833 30.0872678,53.3177558 31.2083304,51.1797958 C32.0787019,49.5199626 32.9791102,47.8210416 34.3781279,46.5807037 C35.7771456,45.3403657 37.8048548,44.6386476 39.5446737,45.3126786 C39.9457794,45.4680989 40.3699902,45.7710289 40.3709144,46.2040188 C40.3720696,46.5986189 40.0236438,46.8915443 39.7103377,47.1288628 C38.0922831,48.3547755 36.5465476,49.7223812 35.4153187,51.4136242 C34.2840899,53.1046346 33.5916281,55.1567412 33.8127445,57.1834874 C34.5193004,56.4766506 34.8386138,55.4713045 35.4291818,54.6637238 C36.0197498,53.856143 37.1535202,53.245397 37.9940861,53.7833188 C38.6902447,54.2291052 38.7962974,55.2218875 38.6232397,56.0341215 C38.4501821,56.8465882 38.07403,57.6255511 38.0761095,58.4563984 C38.0774958,59.0608625 38.2805902,59.64555 38.5116418,60.203481 C40.4866713,64.9710227 44.5896864,68.5531354 49.0438999,71.115942 C53.4981135,73.678516 58.3793106,75.381625 63.0403154,77.5388963 C65.4728271,78.6649956 68.0876385,80.2026796 68.7708583,82.8092273 C69.0060688,83.7059188 68.9489991,84.750818 68.3353259,85.4425315 C68.0130089,85.8059545 67.570776,86.0367583 67.1299295,86.2375483 C60.4190345,89.2938378 52.4643885,87.0446637 45.3209648,88.8515413 C45.0483239,88.9206429 44.762744,88.9957937 44.4894099,88.9285535 C44.1786455,88.8520067 43.9415865,88.6060796 43.7234737,88.3701571 C41.7909578,86.2791954 39.9222121,84.086559 38.6068351,81.5558601 C37.2916891,79.0249286 36.5569449,76.1070749 37.018355,73.2885692 C37.5814279,76.0621705 38.7045699,78.7192066 40.2997505,81.0505114 C41.4215062,82.6898701 42.8533332,84.5228062 42.324225,86.4411303 C41.9092562,87.9453106 40.2870426,88.9048216 38.7376103,88.8547986 C37.1879469,88.8047756 35.7593546,87.9113414 34.7279401,86.745689 C33.6965255,85.5802693 33.005219,84.1561259 32.347415,82.7424524 C29.56486,76.7620273 27.1395109,70.5742976 25.766371,64.1164436 C25.1439179,61.189516 24.7409638,58.1495131 25.3038056,55.2102542 C25.7039871,53.1209211 26.5794418,51.1544352 27.5528623,49.2658922 C30.3409625,43.8566601 34.4409739,38.5860964 40.2757211,36.9676776" id="Fill-77" fill="#98480C"></path>
                            <path d="M81.7282344,13.6728934 C81.7282344,13.6728934 79.5598148,14.4150953 78.1735049,22.7910408 C77.9424533,24.4196969 76.5561434,30.4689908 76.5561434,30.4689908 C76.5561434,30.4689908 64.5414579,31.1669863 59.4583217,30.4689908 C54.3751856,29.7709954 51.3715142,28.1423393 51.3715142,28.1423393 C51.3715142,28.1423393 48.5988945,22.7910408 49.2920494,14.8804256 C49.9852043,6.96981039 51.6025658,5.34115432 60.3825283,1.61851187 C69.1624908,-2.10413058 74.0145753,1.38584672 76.0940401,4.17782855 C78.1735049,6.96981039 81.7282344,13.6728934 81.7282344,13.6728934" id="Fill-79" fill="#FF5B0C"></path>
                            <path d="M59.4582293,30.4688978 C64.5413655,31.1668932 76.556051,30.4688978 76.556051,30.4688978 C76.556051,30.4688978 77.9423608,24.4196038 78.1734125,22.7909477 C78.2233196,22.489879 78.2743821,22.2013742 78.3261376,21.9196167 C72.6984127,22.1064468 61.5356147,19.0250296 60.8734206,18.1362487 C60.1802657,17.2055881 59.9203326,17.4396492 57.3787645,17.9049795 C55.6604335,18.2195428 51.6207265,17.7898103 49.1826696,17.4785043 C49.1965327,23.9389176 51.3714218,28.1422462 51.3714218,28.1422462 C51.3714218,28.1422462 54.3750932,29.7709023 59.4582293,30.4688978" id="Fill-81" fill="#FFBC00"></path>
                            <path d="M76.0939477,4.17773549 C74.0671627,1.45648386 69.4047715,-1.92460614 61.0402399,1.35248253 C65.6245356,0.384362833 70.4246335,0.00209398638 72.628173,1.85108396 C76.4786487,5.08210494 79.8191933,11.6821173 81.034756,14.2700518 C81.4520353,13.7693564 81.728142,13.6728004 81.728142,13.6728004 C81.728142,13.6728004 78.1734125,6.96971732 76.0939477,4.17773549" id="Fill-83" fill="#FFBC00"></path>
                            <path d="M76.7670935,8.33052927 C76.7670935,8.33052927 69.9205712,9.99501577 67.9566323,9.99501577 C68.8808388,11.042009 73.3685549,13.0240834 77.5274845,12.7914182 C77.22989,12.5750397 77.1141331,12.2921188 77.1141331,12.2921188 C77.1141331,12.2921188 77.2291968,9.84285276 76.7670935,8.33052927" id="Fill-85" fill="#1F191A"></path>
                            <path d="M84.5870133,27.5126311 C84.6997665,27.466098 84.7998119,27.3935065 84.9093304,27.3399935 C85.0040615,27.2936932 85.1061864,27.2643773 85.2101596,27.2485561 C85.2600668,27.0449741 85.3617295,26.8558173 85.4747137,26.6713139 C84.9157998,26.44749 84.2524506,26.498211 83.7406712,26.8183582 C83.6868361,26.8520947 83.6323079,26.8911824 83.6050438,26.9488834 C83.5595267,27.0445088 83.6034265,27.1594454 83.6646552,27.2457641 C83.8656701,27.527987 84.2677,27.6443195 84.5870133,27.5126311" id="Fill-87" fill="#98480C"></path>
                            <path d="M83.2571725,23.7770292 C83.0954363,23.8510167 82.9189129,24.058554 83.1689108,24.0732119 C83.742612,23.7770292 85.0023056,23.7951771 85.0023056,23.7951771 C84.9944498,23.7195609 84.9995329,23.6455734 85.0094682,23.5722838 C84.8419557,23.5767045 83.9789778,23.7079276 83.7435362,23.7267735 C83.4366996,23.7516687 84.9914461,22.2316672 85.2245772,22.268661 C85.272867,22.2763389 85.3024416,22.2984421 85.3236984,22.3258966 C85.4133464,22.0888108 85.545739,21.8568437 85.6291487,21.6167332 C85.6832148,21.4617782 85.711172,21.3003086 85.7197209,21.1341857 C85.1344671,21.3265998 83.4038903,23.7097889 83.2571725,23.7770292" id="Fill-89" fill="#98480C"></path>
                            <path d="M84.2895112,18.5256836 C84.1152983,18.0712886 83.9923788,17.6313188 83.9893751,17.2229914 C84.2063326,17.0980502 84.4145102,16.6322546 84.4145102,16.6322546 C84.4133549,16.620156 84.4103512,16.6089881 84.4089649,16.5971222 C84.1122946,16.465201 83.6476498,16.3521257 83.2423852,16.6622684 C82.7948381,17.0045188 82.6120763,17.2439313 82.2183643,17.5084716 C81.8244212,17.7727792 81.2465611,17.6669165 81.5617155,18.0373194 C81.87687,18.4074897 83.8202453,18.830475 84.0039314,18.830475 C84.0831821,18.830475 84.1917764,18.6878512 84.2895112,18.5256836" id="Fill-91" fill="#98480C"></path>
                            <path d="M27.8610159,90.9700273 L31.2119579,102.569083 C31.2119579,102.569083 41.2645528,90.9700273 69.7467511,93.5007262 C70.5845443,90.5482054 70.7938771,86.7522734 70.7938771,86.7522734 C70.7938771,86.7522734 51.9453772,76.8402726 27.8610159,90.9700273" id="Fill-93" fill="#FFBC00"></path>
                            <path d="M80.4221919,17.0087068 C80.4221919,17.0087068 79.7539906,19.6580649 80.5892423,22.6857365 C80.9651633,24.3257932 80.4221919,25.7555206 80.5474219,26.5966051 C80.9651633,26.8067017 81.2156233,26.5966051 81.0067526,25.6294161 C80.7981129,24.662227 81.1322136,23.4007166 81.0067526,21.8867644 C80.8815226,20.3728123 80.1717319,18.774868 80.4221919,17.0087068" id="Fill-95" fill="#98480C"></path>
                            <path d="M28.4949061,92.4665994 C28.4949061,92.4665994 26.9533295,92.0575741 26.6726018,91.2606959 C26.1000558,89.6355298 27.6097472,88.9538209 27.9221291,88.481976 C28.2345109,88.0101311 39.5846918,78.7828638 60.9310911,81.5615837 C72.281041,83.711177 73.1661999,84.2353716 73.1661999,84.2353716 C73.1661999,84.2353716 73.3223908,87.1190235 71.5520731,86.8568099 C69.7819865,86.5945963 50.8304375,81.6139333 38.6475464,86.4373146 C32.5558698,88.69184 28.4949061,92.4665994 28.4949061,92.4665994" id="Fill-97" fill="#FFBC00"></path>
                            <path d="M60.9309987,81.5615604 C59.6683015,81.3972988 58.4421104,81.2760803 57.2496529,81.1916228 C57.2110672,81.1976721 57.1724816,81.2032561 57.133896,81.20884 C57.4349563,81.5366652 57.6967378,81.8942716 57.8249715,82.3170242 C58.0195169,82.95918 57.7792232,83.7874679 57.1484522,84.0047772 C56.9543689,84.0715521 56.7327903,84.0801607 56.5724405,84.2088245 C56.3550209,84.3830907 56.3351505,84.7030053 56.3390783,84.9829015 C56.3638009,86.648784 56.5980872,88.3114092 57.0345438,89.9184274 C57.9206268,89.8034908 58.7339286,90.5556972 59.0095732,91.4114397 C59.2852179,92.2674148 59.15606,93.1952834 59.0243605,94.0849949 C61.7225816,93.9402772 64.4208027,93.7953268 67.1190238,93.6503764 C67.4205462,90.1059555 68.3918873,86.6732138 69.5321272,83.2946831 C67.7116713,82.8914744 64.9912693,82.3305187 60.9309987,81.5615604" id="Fill-99" fill="#FFAD00"></path>
                            <path d="M28.8968897,92.2384247 C30.8716881,90.706092 38.4728251,86.2524156 43.8524006,85.168894 C53.7490356,83.1758843 58.6921545,83.3527098 66.1511947,85.5481382 L64.5102659,83.4895169 C64.5102659,83.4895169 53.3745009,81.5123285 43.1530072,84.3022163 C32.9317446,87.0921042 28.8968897,92.2384247 28.8968897,92.2384247" id="Fill-101" fill="#FFAD00"></path>
                            <path d="M56.5575608,81.1469511 L56.5321451,81.2676705 C56.7338532,81.2588317 56.934406,81.2374325 57.1338036,81.2088227 C57.1252547,81.1995187 57.1164747,81.1902147 57.1076947,81.1809107 C56.9230845,81.1681177 56.7405537,81.1578833 56.5575608,81.1469511" id="Fill-103" fill="#FFAD00"></path>
                            <path d="M31.4625796,99.6922251 C31.3398912,99.7894792 29.4840844,101.789236 30.8898026,103.466985 C32.2955208,105.144733 33.4930615,104.410674 33.4930615,104.410674 C33.4930615,104.410674 51.6636559,96.127097 58.0154966,95.9174657 C64.3673374,95.7076017 69.5216375,95.1310575 69.5216375,95.1310575 C69.5216375,95.1310575 71.3439418,94.6066302 71.2397375,93.0863961 C71.1357642,91.5659293 68.6364786,91.0415021 68.6364786,91.0415021 C68.6364786,91.0415021 47.1861061,87.214393 31.4625796,99.6922251" id="Fill-105" fill="#FFBC00"></path>
                            <path d="M33.1183419,108.411724 L31.5009804,101.8971 C31.5009804,101.8971 37.0462199,93.2884891 56.9166612,92.8231587 C71.7039665,92.3578284 72.6471193,93.2470747 72.6471193,93.2470747 L72.1660697,100.733774 L33.1183419,108.411724 Z" id="Fill-107" fill="#292324"></path>
                            <path d="M32.1860023,103.834875 C32.1860023,103.834875 28.9593661,115.391586 37.2772253,124.232861 C45.5950845,133.074137 63.3860611,135.168124 71.0107653,134.237463 C78.6354696,133.306802 96.8885494,134.237463 101.278531,135.633454 C105.668512,137.029445 112.36901,135.633454 112.36901,134.935458 C112.36901,134.237463 117.221094,127.257508 115.603733,125.163522 C113.986371,123.069536 111.213751,117.252907 110.520596,116.089581 C109.827441,114.926255 82.7943992,93.0557308 58.0718732,92.3577354 C33.3493473,91.6597399 32.1860023,103.834875 32.1860023,103.834875" id="Fill-109" fill="#9F5622"></path>
                            <path d="M106.130661,140.868513 C105.071521,143.680504 112.358196,142.289632 115.349622,140.670747 C115.40854,140.560929 115.463993,140.446226 115.510896,140.321517 C116.232239,138.407846 115.536543,136.149831 115.222775,134.226388 C115.115336,133.567248 115.240104,132.683353 114.866262,132.106808 C114.410859,131.404625 113.383141,130.999322 112.785873,130.407888 C110.952478,128.592401 110.091811,126.564957 110.191856,123.960503 C110.241532,122.669677 110.506548,121.188531 109.870001,119.991701 C109.275505,118.873978 107.886423,118.38003 106.775989,119.048011 C105.840461,119.610596 105.412322,120.548702 104.190521,120.592675 C102.900328,120.638976 101.576402,120.219481 100.354601,119.8414 C98.1134004,119.148057 95.9089367,118.1932 93.6309985,117.641085 C91.1330992,117.035923 88.5806717,117.040809 86.0330963,117.030572 C83.2567797,117.019404 80.6599903,116.69344 78.0467962,115.697401 C76.6967614,115.182745 75.4114211,114.527793 74.0805637,113.968699 C72.9084387,113.476146 71.6810923,113.143435 70.5001874,112.676476 C69.2763068,112.192533 68.0820009,111.584113 66.8756802,111.052473 C65.7116421,110.539447 64.5852653,109.978026 63.6365673,109.110883 C63.5087957,108.994085 63.3572258,108.997342 63.2380032,109.06179 C62.8098645,108.830754 62.3976683,108.626707 61.8463791,108.636013 C60.9457398,108.651369 59.8697323,108.837967 59.0578168,109.232334 C57.3045969,110.084121 55.9986931,112.621102 55.1826187,114.288148 C52.9187746,118.913531 51.8984506,124.353475 51.9374983,129.473737 C51.9444299,130.378339 51.9164726,131.319004 51.9368052,132.259204 C59.1798121,134.325038 66.7114025,134.762216 71.0108115,134.237556 C78.6064033,133.310385 96.746961,134.230576 101.225666,135.617493 C101.225666,135.617493 107.401445,137.494868 106.130661,140.868513" id="Fill-111" fill="#98480C"></path>
                            <path d="M27.6842614,118.496991 C27.6842614,118.496991 38.2015012,121.208238 49.7540834,129.118853 C52.9888064,113.064957 43.0535857,96.7783965 43.0535857,96.7783965 C43.0535857,96.7783965 30.1465788,98.3156152 27.6842614,118.496991" id="Fill-113" fill="#1F191A"></path>
                            <path d="M73.0620649,95.0165397 C68.127726,93.4993302 63.0531387,92.4984047 58.0718964,92.357875 C33.3493704,91.6598795 32.1860254,103.834782 32.1860254,103.834782 C32.1860254,103.834782 28.9593892,115.391725 37.2772484,124.233001 C42.102993,129.362337 50.1174814,132.220396 57.4852562,133.534488 C61.2010288,128.926322 63.9306729,123.514298 65.425346,117.77189 C66.6231177,113.170704 67.0364691,108.382687 68.3728718,103.820356 C69.313252,100.610043 70.8180913,97.4299753 73.0620649,95.0165397" id="Fill-115" fill="#292324"></path>
                            <path d="M37.6088306,66.1950043 C33.4480526,64.027961 25.6010767,50.5929444 41.6760327,38.306363 C57.7507577,26.0197816 72.0826601,45.3272667 73.2446188,48.8377185 C74.4065775,52.3481703 78.6674009,63.4646787 68.7901742,70.2906089 C58.9129474,77.1163065 48.8418684,72.0458349 37.6088306,66.1950043" id="Fill-117" fill="#9F5622"></path>
                            <path d="M77.6604778,61.7227612 C77.1228207,60.9042452 76.4162647,60.0796799 75.6226023,59.5052297 C74.788737,58.9016962 73.9749731,58.4298513 73.258944,57.654611 C72.3867241,56.7104558 72.2885271,55.2686299 72.0590928,54.0527218 C71.8592332,52.995026 70.2869267,49.7039774 70.1887298,50.6504593 C70.0854497,51.6441721 69.7682158,52.5925153 69.3749659,53.5061913 C68.6610163,55.1648612 67.80058,56.7628055 66.7486018,58.2290613 C65.6624281,59.7430134 64.4034277,61.1296977 63.0658697,62.4209893 C62.5404583,62.9281994 61.9997974,63.4223802 61.4468908,63.9005071 C60.338305,64.3611841 59.3457072,64.9991519 58.8230684,66.1901648 C58.3099027,67.3600052 58.4778772,69.2031786 59.2320298,70.2345832 C61.4628334,73.2845907 66.1626549,74.6680177 69.6295848,75.5081715 C70.6926534,75.7657319 71.7684299,75.9681505 72.8516,76.1198482 C73.5332023,76.2154736 74.3959492,76.46047 75.0657679,76.1794105 C75.4280568,76.0277128 75.6350791,75.7324607 75.8501882,75.4178975 C76.390618,74.6275339 76.9391346,73.8199532 77.3947684,72.976542 C78.3462391,71.2159648 78.8081113,69.3525496 78.7679084,67.3572132 C78.7288606,65.4163205 78.7674463,63.4072569 77.6604778,61.7227612" id="Fill-119" fill="#98480C"></path>
                            <path d="M68.015458,69.7054561 C73.0509975,64.6347517 74.9876724,51.3730707 59.30019,43.7670142 C43.6127076,36.1611903 33.5416285,55.0784959 33.7354809,59.1741006 C33.9291021,63.2697053 39.5455055,70.0954029 45.5493825,73.6058547 C51.5532594,77.1163065 68.015458,69.7054561 68.015458,69.7054561" id="Fill-121" fill="#9F5622"></path>
                            <path d="M37.9445949,56.0200685 C37.8935324,56.2592483 37.8094296,56.4926115 37.6950591,56.708292 C37.4868816,57.1007982 37.1862834,57.4558452 36.8812952,57.7750618 C36.5485808,58.1231288 36.1215974,58.5435548 35.6495589,58.6873418 C34.7985957,58.9465308 34.3563628,58.1038176 34.3182393,57.3525419 C34.2861231,56.7241133 34.4346893,56.2457537 34.7325149,55.79671 C34.464495,56.465157 34.2805779,57.3181074 34.9395372,57.63523 C35.9577818,58.1252228 36.8990862,56.7969375 36.9885032,55.9458483 C37.0354066,55.4995966 36.3417896,55.5028539 36.2953482,55.9458483 C36.1338431,57.4821363 35.2814936,56.7259746 35.3512712,56.156643 C35.3753006,55.9614369 35.529412,55.6975946 35.618829,55.529843 C36.0423467,54.7348262 36.7826361,54.4188669 37.5538865,54.8832666 C38.0601207,55.1882906 38.0631244,55.4663255 37.9445949,56.0200685 M37.757212,53.9979757 C37.4030098,53.8825738 37.0545839,53.8565153 36.7274148,53.9051423 C36.9716364,53.7788051 37.2177064,53.7073769 37.4506064,53.7355294 C37.8926082,53.7888097 37.8886804,53.0903489 37.4506064,53.0375339 C36.1918371,52.8856036 34.4802065,54.6803826 33.9358488,55.7108565 C33.4605756,56.6101074 33.4536441,58.101491 34.1241559,58.9195417 C35.578626,60.6940788 38.119732,57.8737118 38.5467154,56.465157 C38.8151975,55.5791681 38.7858539,54.3325482 37.757212,53.9979757" id="Fill-123" fill="#98480C"></path>
                            <path d="M83.3156054,70.4855358 C80.991457,68.9252833 69.7584192,61.3194594 68.0153656,59.3690275 C66.272312,57.4188282 56.5887065,48.2527518 45.5495211,51.3730242 C34.5101046,54.4935292 37.2214956,68.3403631 43.0317513,73.2158614 C48.841776,78.0915923 58.7192337,78.0915923 61.8178673,80.6269445 C64.916732,83.162064 83.3156054,70.4855358 83.3156054,70.4855358" id="Fill-125" fill="#FF5B0C"></path>
                            <path d="M101.225666,135.617586 C100.672297,135.924704 100.084733,136.319769 99.493934,136.823257 L101.225666,135.617586 Z" id="Fill-127" fill="#98480C"></path>
                            <path d="M48.8513877,76.4159379 C46.8377726,74.8717393 40.249335,70.0376554 40.6723906,63.6458783 C41.0956772,57.2543339 47.201679,50.1243103 58.6870251,52.6810677 C57.3041811,51.9232772 56.1708727,51.2713495 55.2757787,50.7399423 C53.2945108,49.5633546 50.9470261,49.1810858 48.7014352,49.6820138 C44.5073858,50.6173277 38.3958387,53.0600792 37.650004,59.3848487 C36.5014463,69.1244447 41.9688213,74.1262801 48.8513877,76.4159379" id="Fill-129" fill="#FFBC00"></path>
                            <path d="M84.2802692,23.1290567 C84.2802692,23.1290567 85.0609927,22.3919735 85.1016578,22.416636 C85.1423229,22.4412985 85.0039229,23.3666078 85.0039229,23.3666078 L84.020105,23.4647925 C84.020105,23.4647925 84.0443654,23.3666078 84.2802692,23.1290567" id="Fill-131" fill="#F2F2F2"></path>
                            <path d="M14.0450287,105.281238 C13.5468814,107.339626 12.7922667,109.284474 11.7682458,111.136024 C11.5508262,111.528762 12.14925,111.881017 12.3666696,111.488279 C13.4179545,109.587637 14.2019128,107.580667 14.7134611,105.466904 C14.8190517,105.030425 14.1508504,104.844292 14.0450287,105.281238" id="Fill-133" fill="#98480C"></path>
                            <path d="M12.2005896,104.832333 C12.721149,104.954715 13.249102,105.02847 13.7830623,105.054761 C14.228992,105.076399 14.2278368,104.378404 13.7830623,104.356766 C13.3096375,104.333499 12.84661,104.267655 12.3849689,104.159233 C11.9508228,104.057326 11.7657504,104.730193 12.2005896,104.832333" id="Fill-135" fill="#98480C"></path>
                            <path d="M16.6600943,104.801598 C16.5242359,104.525192 16.2892564,104.29276 15.9211912,104.125706 C15.7784012,104.061025 15.6182825,104.062887 15.5011393,104.180382 C14.9607095,104.722958 14.386084,105.230866 13.8347948,105.764367 C13.7569304,105.746917 13.6721345,105.75064 13.5914974,105.786935 C13.2040238,105.962365 12.824637,105.837656 12.4909984,106.12872 C12.4713591,106.14617 12.4535681,106.16618 12.4355461,106.185258 C12.4371634,106.141982 12.4355461,106.099405 12.4253798,106.058456 C12.256481,105.377212 11.2118965,105.611971 10.775671,105.845334 C10.1562216,106.176882 9.89952321,106.845329 9.51736379,107.396746 C9.14768116,107.817869 8.76182492,108.227825 8.38359338,108.633826 C7.83738729,109.219677 7.2692313,109.787845 6.70361687,110.354385 C6.54442229,110.513761 6.3484905,110.670344 6.1659597,110.838561 C6.09918577,110.866714 6.05205124,110.894168 6.03148764,110.919529 C6.17820543,110.987002 6.31290854,111.034233 6.42751016,111.050752 C7.7833212,111.245725 11.0758071,112.220825 11.656671,112.025851 C12.2377658,111.830878 13.9808195,109.490499 14.7555356,108.5154 C15.383765,107.724571 16.7760822,106.035887 16.6600943,104.801598" id="Fill-137" fill="#E43500"></path>
                            <path d="M12.7375074,101.278094 C11.9995285,102.002846 10.7502323,101.997495 9.77704273,102.112431 C9.00694761,102.203171 8.18833163,102.346725 7.41222916,102.316479 C7.30016911,102.312058 7.16176918,102.383952 7.11301728,102.489349 C6.95151218,102.838114 6.91731654,103.226199 6.70197641,103.557049 C6.45082327,103.942808 5.97624319,104.22666 5.60840897,104.488175 C5.2394195,104.750621 4.78239935,104.98096 4.65393463,105.44187 C4.57537707,105.724325 4.83207545,105.899755 5.05365398,105.86881 C5.07860755,105.876255 5.10517849,105.881374 5.1338289,105.883701 C6.08414431,105.957921 6.59707896,106.292028 7.1439782,107.069362 C7.34383787,107.353447 7.35793202,107.547722 7.38149929,107.190814 C7.40830128,106.784115 8.25117768,105.851826 8.48430879,105.58333 C8.31980002,105.602176 8.34544675,105.524466 8.06702952,105.480957 C7.34684154,105.368347 7.52567552,104.473517 7.89997918,104.061933 C8.1698475,103.765285 8.42469746,103.732013 8.8301931,103.674545 C9.92930577,103.519125 10.9621066,103.74132 11.9766544,104.161281 C12.1732793,104.242713 12.4371403,104.034245 12.4151904,103.824847 C12.3331671,103.040765 13.1099627,102.349982 13.3167539,101.617553 C13.4126404,101.278327 12.9824222,101.037518 12.7375074,101.278094" id="Fill-139" fill="#E43500"></path>
                            <path d="M8.9415831,101.064205 C10.2158329,100.363883 11.5753408,99.8208424 12.9799037,99.4511375 C13.2363711,99.3836646 13.5117846,99.3224737 13.7617825,99.4111191 C13.9671874,99.4837106 14.1259199,99.6475069 14.2737929,99.8085112 C15.0022988,100.600503 15.6681896,101.451127 16.2633786,102.349215 C16.3860671,102.534183 16.5106039,102.741721 16.4849572,102.96252 C16.4667041,103.121198 16.3728971,103.259168 16.2818628,103.390159 C15.5732274,104.409697 14.8643609,105.429236 14.1557255,106.448775 C14.041355,106.613269 13.9135834,106.788 13.7231969,106.84733 C13.5540671,106.900378 13.3719984,106.850122 13.2030996,106.796144 C12.6575867,106.621412 12.0961312,106.382 11.7594889,105.915739 C11.334816,105.328027 11.3715532,104.513466 11.5984459,103.823148 C11.8364291,103.09956 12.2636436,102.439721 12.8253302,101.928556 C11.99701,101.610735 11.1978024,101.216368 10.4411083,100.751736 C10.3583918,100.701015 10.2689748,100.639358 10.2484112,100.544198" id="Fill-141" fill="#FF5B0C"></path>
                            <path d="M13.7559369,107.006287 C13.447945,107.075156 13.044991,106.896702 12.7635701,106.748261 C12.459044,106.587257 12.2778995,106.202429 12.3412077,105.850406 C12.3809486,105.630072 12.5024817,105.437193 12.6212423,105.251061 C13.3056172,104.180103 14.1625878,103.274338 14.8790789,102.234325 C15.0172478,102.034 15.277412,101.961641 15.4950626,102.068667 C15.7127133,102.175693 15.8746805,102.304589 16.0858617,102.55959 C16.0957969,102.571456 16.1057321,102.58402 16.1085047,102.599376 C16.1122016,102.619618 16.4938989,103.026084 16.4846568,103.044232 C15.7794872,104.420446 14.8592085,105.535145 13.9971548,106.808987" id="Fill-143" fill="#E43500"></path>
                            <path d="M65.4253922,117.771843 C66.0203502,115.486373 66.4216869,113.154836 66.8389661,110.827719 C61.934895,109.071562 56.9698262,107.488509 51.9555434,106.082978 C47.8021591,104.918722 43.5512709,103.868239 39.2412336,103.980383 C37.5617192,104.024125 35.8336839,104.262839 34.3868385,105.123002 C32.9402242,105.983165 32.008855,108.02899 32.1216082,109.716976 C32.1216082,109.716976 32.0719321,118.700177 37.2772946,124.232954 C42.1030392,129.362523 50.1175276,132.220349 57.4853024,133.534675 C61.201075,128.926276 63.9307191,123.514252 65.4253922,117.771843" id="Fill-145" fill="#1F191A"></path>
                            <path d="M31.3446509,98.7502105 C31.3446509,98.7502105 36.1971975,92.2379128 47.9946944,91.0036242 C56.4546504,90.1183333 60.5294772,90.1639356 60.5294772,90.1639356 C60.5294772,90.1639356 51.2763209,88.78237 40.4095,92.059924 C34.6530794,93.8747122 31.3446509,98.6417885 31.3446509,98.6417885" id="Fill-147" fill="#F9D400"></path>
                            <path d="M42.7591566,73.2436183 C42.684989,72.1882492 42.6108214,71.1326474 42.5366539,70.0770456 C41.937537,69.1447563 41.431996,68.1352222 41.0960469,67.0598439 C39.9320087,65.9891189 38.7682016,64.9183938 37.6043944,63.8476688 C38.0637251,68.0286616 40.0089489,71.0721545 42.7591566,73.2436183" id="Fill-149" fill="#FFAD00"></path>
                            <path d="M52.311155,77.5523443 C52.9828222,77.7335905 55.6466166,78.3522471 56.3023411,78.5186027 C56.5405554,78.5790956 56.7753038,78.6393559 57.0056623,78.6998488 C59.0793508,79.24382 60.8083103,79.8008203 61.818006,80.6267816 C61.8919425,80.6875072 61.9776627,80.7368322 62.0689281,80.7803406 C62.5811696,80.8915546 63.1003426,80.9436716 63.6151257,80.9206377 C64.193679,80.8471155 64.8644219,80.675874 65.6005524,80.4299469 C65.6751821,80.4045864 65.7493497,80.3796912 65.8253657,80.3529347 C65.8681102,80.3380442 65.9113169,80.3229209 65.9545236,80.3073324 C66.1183392,80.2489334 66.2842342,80.1882078 66.4538262,80.1232942 C66.5968471,80.0681526 66.7417165,80.0111496 66.8886654,79.95182 C66.9688403,79.8866738 67.0952255,79.848284 67.2324702,79.8101269 C67.4154631,79.7335801 67.6005355,79.6542413 67.7888426,79.5711798 C67.9399503,79.5046376 68.0926755,79.436234 68.2467869,79.3662018 C68.2571842,79.3613159 68.2678126,79.3564299 68.2782099,79.3515439 C68.4205377,79.2866304 68.5635587,79.2203208 68.707966,79.1526152 C68.7292227,79.1426106 68.7504795,79.1323734 68.7717362,79.1223688 C68.8935005,79.0646678 69.0157268,79.0065015 69.1386463,78.9471719 C69.3934962,78.6305146 69.8555995,78.3978495 70.1166879,78.1898468 C70.2282858,78.1095773 70.341039,78.0307039 70.4547164,77.9536917 C70.6404819,77.8278198 70.828558,77.7059033 71.0187135,77.5870114 C71.208869,77.4681195 71.401104,77.3522523 71.5949563,77.2389443 C73.5332485,76.1060977 75.6323527,75.2159208 77.2938451,73.7089486 C77.6452746,73.3899647 77.9567323,72.7678181 77.5586303,72.5102578 C77.3758684,72.3920639 78.5479934,70.6500999 78.3370433,70.7019842 C76.295933,71.2026796 74.8331451,70.9309267 72.7918038,71.4316221 C72.6434686,71.4681506 72.4389879,71.5758745 72.197539,71.7317602 C71.3731467,72.5056045 70.3833215,73.0086265 69.3916478,73.5183959 C69.1931744,73.6205359 68.9947011,73.7226759 68.797614,73.8273752 C67.6301101,74.7547785 66.497726,75.4609172 65.2486608,75.8185236 C65.0404833,75.8780859 64.829302,75.9281089 64.6139619,75.9667313 C63.5379544,75.6698505 62.4799689,75.4053103 61.415283,75.2438407 C61.2024844,75.2117329 60.9892237,75.1833477 60.7775804,75.1544972 C58.7651206,74.675207 56.9167074,73.7445464 54.71363,73.8988034 C54.4737984,73.8271425 54.2445952,73.7391951 54.015623,73.6500844 C49.6679242,71.955584 45.4644017,69.8862602 41.4674393,67.4700326 L41.2795943,67.2399267 C41.3673939,68.4621168 41.4926239,69.6815148 41.654129,70.8960269 C41.6770031,71.0693625 41.7008014,71.2429307 41.7252929,71.4160336 C41.7738138,71.7587493 41.8837943,72.0902972 42.0402163,72.3981132 C42.1187739,72.5523702 42.2086529,72.7008105 42.3068499,72.8434343 C42.4376251,73.0330564 42.6289359,73.0574862 42.759249,73.2436183 C42.9145157,73.4658136 45.1714282,75.6254115 52.311155,77.5523443" id="Fill-151" fill="#E43500"></path>
                            <path d="M78.7302007,78.538007 C79.3246966,79.7453064 79.818685,81.0028616 80.2054655,82.2929899 C80.4739475,83.1889834 80.6992228,84.1198766 81.2174717,84.8969782 C81.6137253,85.4916704 82.1624729,85.9653766 82.722311,86.4072078 C85.1691479,88.3373979 88.1321542,89.8420434 91.2381815,89.7275722 C91.7841565,89.7073303 92.354392,89.6275261 92.7982422,89.3069136 C93.5819694,88.7408392 93.723604,87.6314918 93.6829389,86.6610454 C93.6064608,84.8436979 93.137426,83.0689281 92.6508312,81.3171922 C92.1032388,79.3455877 91.5068945,77.3339648 90.2892524,75.6943735 C89.4228087,74.527325 88.2737889,73.5980604 87.0450562,72.8284041 C85.9096685,72.1173794 84.6539028,71.5210586 83.3181932,71.4614963 C81.9824837,71.4019341 80.5550466,71.9770823 79.8928526,73.14669 C79.5093069,73.824211 79.3921637,74.6608748 78.8628244,75.2299738" id="Fill-153" fill="#E43500"></path>
                            <path d="M87.0105371,67.7721715 C86.0412755,67.1004672 85.0063952,66.524621 83.9259977,66.0551027 C83.5613982,65.8966577 83.1776214,65.7479847 82.7806747,65.7638059 C82.3968979,65.7791618 82.0364573,65.9473787 81.6988909,66.1321149 C80.3255199,66.884554 79.1339866,67.9708676 78.2541419,69.2721638 C77.932518,69.747964 77.6381582,70.2665746 77.1679681,70.5939345 C76.1208421,71.3228744 74.6765383,70.8361389 73.4378704,71.1318563 C73.0769677,71.2179424 72.7172203,71.3847634 72.4970281,71.6853667 C72.3223531,71.9240812 72.2523444,72.2221252 72.1864947,72.5110954 C71.9159332,73.6990836 71.6451407,74.8868392 71.3745792,76.0745948 C69.9734821,76.0301558 68.5679949,76.1297365 67.1869992,76.3712429 C66.9314561,76.4159146 66.6655157,76.4705909 66.4635765,76.6341545 C66.2385322,76.816564 66.1287827,77.1050688 66.0509183,77.3851977 C65.723056,78.5659733 65.7456991,79.9321831 64.9196895,80.8330626 C64.1655369,81.6557665 62.9049191,81.8386413 62.1357482,82.6469201 C61.1697213,83.6618055 61.2926407,85.2690564 61.4913452,86.660394 C61.7919433,88.764385 62.1198056,90.864188 62.4751631,92.9595703 C62.5523343,93.4135 62.6368992,93.8837163 62.8979876,94.2617972 C63.18634,94.6794311 63.6509849,94.9307095 64.0983009,95.1668646 C65.4464872,95.8783547 66.7944425,96.5900774 68.1426288,97.3018001 C68.8348596,97.6670844 69.5737627,98.0430713 70.353562,97.9867663 C71.1687122,97.9281347 71.8819686,97.3995194 72.4210121,96.7808628 C73.1171707,95.9818907 73.6125455,94.9583967 73.5894403,93.8958149 C73.5665662,92.8330005 72.944113,91.7541322 71.9538257,91.3855906 C73.7063524,92.032865 75.6915481,92.0175091 77.4339086,91.3427802 C77.7243405,91.2304029 78.0180071,91.0931305 78.2208705,90.8553467 C78.4366727,90.6024397 78.5249345,90.2629812 78.5582059,89.9312007 C78.697299,88.5445164 77.8937014,87.111299 76.6425567,86.5149783 C77.8853835,86.2332208 79.0436454,87.3309349 80.31674,87.3756067 C80.9599877,87.3981752 81.5789751,87.1489908 82.1711604,86.8949205 C82.9357103,86.5668626 83.7120439,86.2104196 84.3000703,85.6189848 C84.8880967,85.0273173 85.2575483,84.145749 85.0292693,83.3409602 C84.8529769,82.7190463 84.3643027,82.248132 83.9784464,81.7313827 C82.4620545,79.7006813 82.5163516,76.9315006 82.6371916,74.3938218 C83.869159,76.0145672 84.8573669,77.8228408 85.5574533,79.7381403 C85.9710358,80.8691257 86.3196927,82.093875 87.1990753,82.9114604 C88.2591402,83.89703 89.8212804,84.0473316 91.2623495,84.1192252 C92.7177438,84.1918167 94.3140796,84.1913514 95.44785,83.2699974 C96.4205774,82.4796338 96.8281525,81.1657737 96.9032443,79.9096146 C96.9487615,79.1490322 96.8889191,78.3721632 96.6259823,77.6576485 C96.185829,76.461517 95.2255783,75.5480736 94.2967507,74.6806979 C91.7459406,72.2984394 89.1948994,69.9161809 86.6440892,67.5341551" id="Fill-155" fill="#FF5B0C"></path>
                            <path d="M70.7142105,90.3557448 C70.4857004,90.1935772 70.2581146,90.0276869 70.0305287,89.861564 C69.6539145,89.3611013 69.266903,88.8727371 68.7458816,88.4590585 C68.2285569,88.0484045 67.709846,87.661017 67.222327,87.2142999 C66.9965896,87.0072279 66.8625796,86.8429663 66.7706211,86.6538096 C66.7126271,86.124031 66.6599473,85.5868072 66.6095781,85.0481873 C66.6952982,84.4623365 66.7123961,83.8753223 66.6396148,83.2827242 C66.6319901,83.2199046 66.6239033,83.1568523 66.6153544,83.0938 C66.6280622,82.9369837 66.6389216,82.7799348 66.6456221,82.6217225 C66.9443719,82.2610915 67.0594356,81.6691913 66.9318951,81.2757545 C66.8812948,81.1189382 66.7572201,81.0319215 66.5977944,81.0193575 C66.0675309,80.9781758 65.3963259,81.4379222 65.5298737,82.0393616 C65.5700767,82.2203751 65.6421648,82.3860327 65.7151772,82.5530862 C65.7521454,83.0379604 65.7958142,83.5221366 65.8436419,84.0060801 C65.7856479,84.6710371 65.7507591,85.3392514 65.8741407,86.0377122 C65.933752,86.374844 66.0083817,86.6384537 66.1040371,86.8627429 C66.2172524,87.7785129 66.4702539,88.5034975 67.2495911,89.1779938 C67.6153459,89.4944184 68.0106752,89.7859478 68.4173261,90.0663094 C68.8332191,90.4311283 69.2655167,90.7817547 69.6945796,91.1623949 C70.0792806,91.5037147 70.5527054,91.8031547 71.0217403,92.112134 C71.5293607,92.6128294 72.0901231,93.0853724 72.6025956,93.5281342 C72.6185382,93.5662912 72.6372534,93.601191 72.6518096,93.6409768 C72.9059664,94.3268736 73.0677026,95.5262625 72.6370223,96.214486 C72.5637789,96.3312839 72.5700173,96.4445919 72.6199245,96.5353313 C73.208413,95.7770755 73.6104429,94.8531622 73.5896482,93.8957451 C73.5769404,93.3103596 73.3814707,92.7207861 73.0439043,92.2470798 C72.8075384,92.0002221 72.5568474,91.7694183 72.2964522,91.5497824 C72.1878579,91.4855668 72.0737184,91.4301925 71.9538026,91.3857534 C72.0355949,91.4157672 72.1183114,91.4429891 72.2010279,91.4704435 C71.7236752,91.0756108 71.2183652,90.7138165 70.7142105,90.3557448" id="Fill-157" fill="#E43500"></path>
                            <path d="M77.6344845,87.2560168 C77.3528326,86.9498294 77.0185008,86.6941304 76.6425798,86.5149783 C77.2959939,86.3667706 77.9260717,86.6003664 78.5616948,86.861184 C76.8701657,85.3995815 74.652532,84.6597063 73.2856305,82.8937778 C72.8579539,82.3411981 72.4413678,81.9982496 72.2916463,81.2988582 C72.1844383,80.7983954 72.1597158,80.2846708 72.0363342,79.7823467 C71.9201153,79.3095711 71.820532,78.8384242 71.7244145,78.3672773 C72.1421559,77.2179114 72.4928923,75.9156845 72.3364703,74.7439828 C72.312672,74.56739 72.0679883,74.4415181 71.909949,74.5003824 C71.8394782,74.5266736 71.7743217,74.559014 71.7117067,74.5943791 C71.5994156,75.0878619 71.4868934,75.5813447 71.3743713,76.0745948 C70.9194306,76.0601696 70.4637968,76.0624963 70.0088561,76.0783175 C69.9111212,76.1827841 69.8230905,76.2967901 69.7549303,76.4303399 C69.1655176,77.586453 70.2204994,78.4766299 70.7188778,79.4068252 C70.7533045,79.4708081 70.7969732,79.5147818 70.845032,79.5431669 C70.8935528,79.8244591 70.9305211,80.1085433 70.9684135,80.4142653 C71.122525,81.6580932 71.6802837,82.8421262 72.581154,83.7160165 C73.7287875,84.8288539 75.1481378,85.6678444 76.4750674,86.5280075 C76.8542231,86.7739346 77.2467799,87.011253 77.6344845,87.2560168" id="Fill-159" fill="#E43500"></path>
                            <g id="Group-163" transform="translate(94.038019, 125.628945)">
                                <polygon id="Clip-162" points="24.7664257 25.9313689 24.7664257 0.0321199148 0.217719964 0.0321199148 0.217719964 25.9313689 24.7664257 25.9313689"></polygon>
                                <path d="M14.36016,23.0546969 C17.1179925,23.5079287 19.9291978,24.3978729 22.2364795,25.9313689 C23.6666892,18.3548608 24.7073458,12.794629 24.7579461,12.3865343 C24.9263828,11.0291658 22.5673455,0.933126862 21.8933678,0.0848297148 C21.2193902,-0.763467433 10.4350547,8.90819031 10.4350547,8.90819031 C10.1875984,8.90819031 1.30689741,9.6420162 0.217719964,23.7501331 C4.81518558,22.5312003 9.6672701,22.2831793 14.36016,23.0546969" id="Fill-161" fill="#9F5622"></path>
                            </g>
                            <path d="M98.1636079,169.47367 C98.1291812,169.206803 98.0917509,168.950406 98.0513168,168.703781 C98.0917509,168.950406 98.1291812,169.206803 98.1636079,169.47367" id="Fill-164" fill="#9F5622"></path>
                            <path d="M96.5976323,163.976909 C96.8742011,164.583234 97.1436073,165.220504 97.3862116,165.952236 C97.1436073,165.220737 96.8748943,164.582769 96.5983255,163.976444 C96.5980944,163.976444 96.5978634,163.976676 96.5976323,163.976909" id="Fill-166" fill="#9F5622"></path>
                            <path d="M106.34748,160.245728 C105.275401,160.31576 104.203783,160.481417 103.155271,160.739676 C103.171213,161.533064 103.128931,162.331338 103.080641,163.123563 C102.685081,169.587932 102.012258,176.029266 101.113005,182.428721 C100.645819,185.754902 100.111165,189.095741 99.0217568,192.230439 C98.6134886,193.405398 98.1199623,194.544526 97.5226938,195.610366 L96.3849955,195.367463 L107.506204,197.742974 C107.506204,197.742974 111.264721,178.015529 114.444916,161.231297 C111.811158,160.457918 109.079204,160.067273 106.34748,160.245728" id="Fill-168" fill="#FF5B0C"></path>
                            <path d="M99.0218031,192.230369 C100.111212,189.095671 100.645865,185.754833 101.113051,182.428884 C102.012304,176.029196 102.684896,169.587862 103.080456,163.123493 C103.128977,162.331268 103.171028,161.532994 103.155317,160.739606 C100.757001,161.330343 98.4809112,162.412003 96.5983024,163.976444 C96.8748712,164.582769 97.1435842,165.220737 97.3861885,165.952236 C97.3880369,165.95782 97.3898853,165.963171 97.3917337,165.968755 C97.4850786,166.251443 97.5744956,166.548324 97.6590605,166.862655 C97.6629883,166.878011 97.6671473,166.893599 97.6713062,166.908955 C97.6946424,166.997368 97.7177476,167.087409 97.7403906,167.178614 C97.7450117,167.196762 97.7494016,167.214677 97.7537916,167.232592 C97.8064714,167.447342 97.8566096,167.670003 97.9042062,167.902203 C97.907441,167.917093 97.9102136,167.932449 97.9132173,167.94734 C97.9330877,168.045292 97.952496,168.145105 97.9714423,168.246314 C97.9767565,168.27563 97.9820707,168.304946 97.9876159,168.334727 C98.0044827,168.428259 98.0211184,168.523186 98.037292,168.619509 C98.041913,168.647662 98.0467651,168.675349 98.0513861,168.703734 C98.0918202,168.950359 98.1292506,169.206756 98.1636772,169.473623 C98.1680672,169.508058 98.1722262,169.543423 98.1766161,169.57809 C98.1890929,169.678136 98.2011076,169.779578 98.2126602,169.882416 C98.2175123,169.924528 98.2221333,169.966641 98.2267543,170.009218 C98.2383069,170.116477 98.2491664,170.22583 98.2597947,170.336578 C98.2630295,170.370315 98.2664952,170.403586 98.26973,170.437788 C98.2831309,170.583436 98.2956077,170.731644 98.3073914,170.883109 C98.3092398,170.905212 98.3106261,170.928013 98.3122435,170.950349 C98.3217166,171.078547 98.3309586,171.209305 98.3392765,171.341924 C98.3422802,171.390551 98.3450528,171.440109 98.3480565,171.489434 C98.3545259,171.602044 98.3607643,171.71605 98.3663095,171.831917 C98.3690822,171.883569 98.3716237,171.934988 98.3739342,171.987337 C98.3799416,172.122516 98.3852558,172.260021 98.3901079,172.399853 C98.3910321,172.430565 98.3924184,172.460578 98.3935736,172.491755 C98.3988878,172.662299 98.4032778,172.836333 98.4067436,173.013623 C98.4076678,173.059924 98.4081299,173.10762 98.408823,173.154386 C98.4111336,173.288168 98.412982,173.423579 98.4139062,173.561317 C98.4143683,173.622973 98.4148304,173.685095 98.4150614,173.747217 C98.4155235,173.879836 98.4155235,174.014316 98.4148304,174.150425 C98.4145993,174.209755 98.4145993,174.268619 98.4141372,174.32888 C98.4127509,174.52269 98.4106715,174.719292 98.4069746,174.92078 L98.4069746,174.921012 C98.3438975,178.463107 98.1858582,181.511951 97.9843812,184.092905 C97.9340119,184.738318 97.8811011,185.354183 97.8258797,185.94143 C97.7711205,186.528444 97.7140507,187.086841 97.6560568,187.616619 C97.6271753,187.881625 97.5978318,188.139418 97.5684882,188.389998 C97.5463073,188.578224 97.5241263,188.762262 97.5019453,188.942345 C97.4351714,189.482826 97.3679354,189.987477 97.3011615,190.457228 C97.2715868,190.666161 97.2420122,190.867882 97.2128997,191.062855 C97.1542126,191.453035 97.0966808,191.815527 97.0407663,192.150798 C96.9846207,192.486301 96.9303236,192.794815 96.8787991,193.07634 C96.8268124,193.358097 96.7775984,193.613098 96.7316192,193.841808 C96.708745,193.956046 96.6865641,194.06377 96.6653073,194.16498 C96.6227938,194.367631 96.5842082,194.543991 96.5500126,194.694526 C96.4471946,195.146594 96.3850417,195.367393 96.3850417,195.367393 L97.52274,195.610528 C98.1200085,194.544457 98.6135348,193.405328 99.0218031,192.230369" id="Fill-170" fill="#E43500"></path>
                            <path d="M97.3012308,190.457298 C97.3677736,189.987547 97.4352407,189.482663 97.5017836,188.942415 C97.4352407,189.482663 97.3677736,189.987547 97.3012308,190.457298" id="Fill-172" fill="#98480C"></path>
                            <path d="M108.398179,148.683642 C103.705289,147.912125 98.8532047,148.160146 94.2557391,149.379078 C94.2319407,149.686196 94.2104529,149.99727 94.1945104,150.317417 C94.03185,153.53727 94.1448343,155.854382 94.4193236,157.650325 L95.0168232,157.615657 C95.7548021,158.176148 96.7522521,158.269912 97.5620881,157.854605 C98.572939,157.336227 99.3009828,156.099146 100.406103,155.982115 C101.770001,155.837863 102.747349,157.49886 103.005665,159.019094 C103.102244,159.587029 103.143603,160.162178 103.155155,160.739652 C104.203899,160.481394 105.275285,160.315737 106.347596,160.245704 C109.079088,160.06725 111.811043,160.457895 114.445032,161.231274 C115.090821,157.822729 115.712581,154.536334 116.274499,151.560314 C113.967217,150.026818 111.156012,149.136874 108.398179,148.683642" id="Fill-174" fill="#FFBC00"></path>
                            <path d="M94.4715644,157.973729 C94.9392129,160.732207 95.7991871,162.226848 96.5977016,163.976955 C96.5979327,163.976723 96.5981637,163.97649 96.5983948,163.97649 C95.8001113,162.225685 94.9392129,160.73244 94.4715644,157.973729" id="Fill-176" fill="#FFBC00"></path>
                            <path d="M94.4283346,157.932105 C94.4306451,157.946065 94.4512087,157.959792 94.4535193,157.973752 C94.9211678,160.732463 95.7908462,162.225708 96.5893607,163.976281 C98.4717384,162.41184 100.752449,161.330413 103.150765,160.739676 C103.139213,160.161968 103.099934,159.587053 103.003354,159.019117 C102.745039,157.498883 101.768845,155.837886 100.404948,155.982139 C99.2998275,156.099169 98.5724769,157.33625 97.561626,157.854628 C96.75179,158.269935 95.718527,158.176171 94.980317,157.615681 L94.3470045,157.650348 L94.3470045,157.651046 C94.3470045,157.746206 94.4128542,157.839737 94.4283346,157.932105" id="Fill-178" fill="#FFBC00"></path>
                        </g>
                    </g>
                </g>
            </g>
        </g>
    </g>
</svg>