<?xml version="1.0" encoding="UTF-8"?>
<svg width="98px" height="144px" viewBox="0 0 98 144" version="1.1" xmlns="http://www.w3.org/2000/svg" xmlns:xlink="http://www.w3.org/1999/xlink">
    <!-- Generator: sketchtool 63.1 (101010) - https://sketch.com -->
    <title>DCE520AF-D7F7-4CE0-BA7F-A4FB2CE9ECDD</title>
    <desc>Created with sketchtool.</desc>
    <defs>
        <rect id="path-1" x="0" y="0" width="100" height="144"></rect>
    </defs>
    <g id="2FA" stroke="none" stroke-width="1" fill="none" fill-rule="evenodd">
        <g id="2-Factor---free" transform="translate(-250.000000, -1639.000000)">
            <g id="Body" transform="translate(190.000000, 299.000000)">
                <g id="Graphic-/-Dashboard---Blacklist" transform="translate(60.000000, 1340.000000)">
                    <g id="graphic-defender-dashboard-blacklist">
                        <mask id="mask-2" fill="white">
                            <use xlink:href="#path-1"></use>
                        </mask>
                        <g id="mask"></g>
                        <g id="graphic" mask="url(#mask-2)">
                            <g transform="translate(-22.000000, 0.000000)">
                                <path d="M83.9437098,165.718709 C85.8947508,161.821775 88.4968959,154.677269 92.399735,134.976016 C96.3025741,115.274763 93.9177161,96.4390753 92.399735,91.8927777 C90.8821325,87.3461021 60.5020694,104.449525 60.5020694,104.449525 C60.5020694,104.449525 63.072795,142.336724 66.0277476,153.378165 C68.9827003,164.419605 70.0668644,165.502129 69.8499558,166.15187 C69.6330473,166.801233 68.1154448,168.965903 68.1154448,168.965903 C68.1154448,168.965903 64.6335521,174.028138 63.8912177,181.040352 L82.7278107,181.040352 C83.2759495,175.789885 84.1216278,168.564114 83.9437098,165.718709" id="Fill-1" fill="#9F5622"></path>
                                <path d="M76.5246814,159.397587 C76.5193817,159.203307 73.9331356,159.53517 72.9261956,159.042289 C71.9192555,158.54903 69.75547,130.396607 75.3943344,118.00428 C73.3467634,119.222119 64.0776151,128.304509 62.6497287,129.8527 C63.5964795,139.231801 64.7775521,148.707286 66.0278991,153.378316 C68.9824732,164.419756 70.0666372,165.50228 69.8497287,166.151643 C69.6331987,166.801006 68.1152177,168.966054 68.1152177,168.966054 C68.1152177,168.966054 65.9892871,172.057521 64.7056278,176.754631 L65.1114322,177.204045 L67.6742082,177.675381 C67.6742082,177.675381 69.7535773,165.935063 71.6031672,165.964923 C73.1979937,165.990247 74.4278991,165.885926 74.4869527,165.609625 C74.5460063,165.333703 74.5709905,163.041655 74.5660694,162.473935 C74.5467634,160.253325 76.5458801,160.181131 76.5246814,159.397587" id="Fill-5" fill="#98480C"></path>
                                <path d="M47.2355584,94.9236554 C47.2355584,94.9236554 40.2971356,113.758965 38.7791546,123.068518 C37.2611735,132.377694 35.743571,147.96581 35.743571,147.96581 L34.0090599,150.780221 C34.0090599,150.780221 23.3843281,157.491566 21.649817,165.502393 C21.278082,167.219161 20.6568833,170.599402 19.9107634,174.846721 L42.1516467,174.846721 C43.5060946,170.814471 44.6773249,166.202405 45.3507634,161.17192 C45.7175773,160.522557 48.7531609,157.924727 49.4038864,156.19284 C50.0538549,154.460575 60.285653,149.264914 70.8895647,119.820947 C81.4938549,90.3773577 47.2355584,94.9236554 47.2355584,94.9236554" id="Fill-9" fill="#9F5622"></path>
                                <path d="M60.5021451,23.311606 C58.16347,28.1606625 40.9610726,32.0201774 38.5273817,32.8880107 C35.0511672,33.4084839 26.0117981,32.1936685 23.7522397,41.9133262 C21.4923028,51.6329839 23.4043533,59.0961238 34.1820189,64.1296327 C36.0936909,68.9896506 41.3085804,73.3288173 42.5256151,73.8492905 C43.7422713,74.3697637 46.52347,80.0976149 48.4355205,81.4862994 C50.3479495,82.874606 50.8692114,84.7837637 50.8692114,84.7837637 L77.9865615,88.4285881 L95.1953943,82.5276238 C95.1953943,82.5276238 97.4549527,76.9736417 97.4549527,75.5849571 L97.4549527,73.1549482 C97.4549527,73.1549482 101.801073,68.6422905 102.496467,65.5183173 C103.191483,62.3939661 78.6815773,28.7223351 78.6815773,28.7223351 C78.6815773,28.7223351 62.8408202,18.4621714 60.5021451,23.311606" id="Fill-14" fill="#9F5622"></path>
                                <path d="M80.2461956,27.1601973 L87.1993817,34.102864 C87.1993817,34.102864 92.0667634,33.0615396 95.19547,34.102864 C100.062852,34.102864 107.711054,34.4498461 112.056795,38.0950485 C116.402536,41.7398729 119.531243,47.4673461 119.704997,56.4926616 C119.878751,65.5179771 112.404303,67.7744949 110.492252,68.6423283 C108.580202,69.5101616 100.062852,68.6423283 95.19547,67.4275128 C90.3280883,66.2123193 75.2054385,62.5674949 75.2054385,62.5674949 L80.2461956,27.1601973 Z" id="Fill-16" fill="#9F5622"></path>
                                <path d="M78.5727066,35.6277333 L86.8920757,34.8623315 C87.2903091,34.8252899 87.4640631,34.3403464 87.1786372,34.0598881 L85.6114448,32.5173673 L81.6363028,28.5482393 C81.2384479,29.2130994 80.5506246,30.1913018 79.7594574,30.5787274 L78.5727066,35.6277333 Z" id="Fill-18" fill="#98480C"></path>
                                <path d="M92.3996972,91.8926643 C91.4105489,88.929331 78.8635457,92.9200036 69.7556593,97.6208935 C62.5791293,90.7394589 47.2354069,94.9236554 47.2354069,94.9236554 C47.2354069,94.9236554 46.4533249,97.0475036 45.3574259,100.219102 C49.4048707,101.125867 60.0561009,104.199569 63.7143975,112.027078 C68.2675836,121.769414 67.8337666,125.666349 67.8337666,125.666349 C67.8337666,125.666349 78.3055647,122.541242 82.794776,118.758834 C87.9824101,114.388673 91.507836,108.666492 94.1538927,103.042962 C93.7231041,97.6685185 92.9955331,93.6770899 92.3996972,91.8926643" id="Fill-20" fill="#1F191A"></path>
                                <path d="M47.1882397,80.1887071 C46.6336656,80.2310405 45.8716467,80.1580911 45.8220568,81.1529244 C45.7251483,83.0908083 47.1882397,83.4907071 47.1882397,83.4907071 L47.1882397,92.7979929 C47.1882397,92.7979929 45.4048959,93.5342905 45.3556845,94.1723143 C45.3064732,94.8107161 45.6505741,95.9884899 46.9285552,96.2833113 C48.2069148,96.5777548 61.4322776,97.7559065 76.4761893,97.6576327 C91.5201009,97.5597369 94.3720883,96.479481 95.0110789,96.2833113 C95.6500694,96.0867637 95.8961262,93.4851536 95.0110789,93.3868798 C94.9618675,92.6505821 96.0437603,83.127094 96.0437603,83.127094 C96.0437603,83.127094 98.4524669,82.4399333 98.4524669,80.7220315 C98.4524669,79.0037518 97.8134763,78.2096238 96.6335394,78.7047726 C95.4536025,79.1999214 93.9783975,80.1819036 73.7233817,80.5254839 C53.4676088,80.8690643 47.1882397,80.1887071 47.1882397,80.1887071" id="Fill-22" fill="#FFBC00"></path>
                                <path d="M57.1854132,59.4738354 C57.1854132,59.4738354 78.8868644,64.6993563 87.5719117,66.3669872 C96.2565804,68.0346182 100.441438,68.4163741 101.125855,68.5040646 C101.81065,68.5913771 119.193994,62.8090973 115.296833,51.8028086 C111.399672,40.796142 103.716644,42.2415229 103.716644,42.2415229 C103.716644,42.2415229 98.7065489,44.5762818 99.2630158,51.4690557 C92.8049716,51.1356807 70.6689464,49.4680497 57.1854132,59.4738354" id="Fill-24" fill="#9F5622"></path>
                                <path d="M70.8985741,39.9032488 C71.4213502,40.7147637 72.3930852,37.0827905 70.8898675,36.6125881 C69.3862713,36.1427637 53.7325174,33.9338708 51.1432429,33.8631893 C48.554347,33.7925077 43.4030536,33.8786863 41.4925174,33.2047548 C39.5816025,32.5308232 39.3400883,33.9100583 46.4185741,34.7325345 C53.4974385,35.5553887 59.2646309,36.6715524 61.1475331,36.4659333 C63.0308139,36.2603143 69.2333375,37.3178917 70.8985741,39.9032488" id="Fill-28" fill="#98480C"></path>
                                <path d="M76.9679243,38.3409598 C77.2461577,39.5538854 78.2977666,36.9496295 83.0023722,36.1415164 C84.35947,35.7612723 89.4706372,35.8852485 88.896,36.0405967 C87.9602271,36.2930848 87.544959,37.0505491 91.0423722,36.3323943 C93.9958107,35.7253646 95.5145489,35.3969033 97.4565047,35.3587277 C99.3984606,35.3201741 97.768429,34.3801473 94.5231293,34.4976979 C91.2778297,34.6152485 83.3816782,34.7777783 77.4377035,35.9143527 C76.4689968,36.099561 76.857388,37.8590402 76.9679243,38.3409598" id="Fill-30" fill="#98480C"></path>
                                <path d="M75.9265363,52.3832667 C75.9265363,52.3832667 75.8424984,48.0637548 75.3806688,45.9251655 C74.9184606,43.7861982 74.9036972,43.1572458 75.2054006,43.4925107 C75.5067256,43.8281536 78.1527823,50.2061238 78.362877,51.3578173 C78.5725931,52.5091327 75.9685552,53.6566685 75.9265363,52.3832667" id="Fill-32" fill="#98480C"></path>
                                <path d="M34.1819054,64.1296705 C34.1819054,64.1296705 36.6977413,69.3260872 41.2759117,70.7518134 C42.5357224,72.4292717 44.5938927,73.6455991 46.5680252,73.6032658 C47.0722524,74.7776378 46.1061956,77.377736 49.4241767,77.6714235 C52.7421577,77.965111 52.9938927,78.440983 53.3720631,78.5596676 C53.7498549,78.6779741 50.4742713,75.616367 49.7179306,75.616367 C48.9619685,75.616367 47.2399495,74.5259057 46.8621577,72.932736 C46.4839874,71.3388104 45.3082145,72.2761914 43.5437981,71.3463699 C41.7797603,70.4161705 41.6537035,68.5047449 41.6537035,68.5047449 C41.6537035,68.5047449 41.4019685,66.9773432 41.905817,65.9288372 C39.7219685,65.9288372 34.1819054,64.1296705 34.1819054,64.1296705" id="Fill-34" fill="#98480C"></path>
                                <path d="M101.626826,62.9498179 L67.8625363,59.5544577 L34.1819054,64.1298595 C34.1819054,64.1298595 37.9579306,71.3809548 45.6863849,72.4294607 C52.9015268,73.4080411 66.4509274,72.6494429 77.1729464,67.3403893 C78.516795,66.6751512 80.1123785,66.7927018 81.3449338,67.6450381 C84.0629148,69.5247137 89.5779937,72.5640202 97.4548391,73.155175 C97.4548391,73.155175 101.800959,68.6425173 102.496353,65.5181661 C102.584934,65.1182673 102.259382,64.2156601 101.626826,62.9498179" id="Fill-36" fill="#98480C"></path>
                                <path d="M61.8004543,75.4624929 C64.3049338,74.8342964 77.0817161,69.5932786 79.6728833,69.5932786 C82.2640505,69.5932786 90.4558486,75.8994333 92.2690978,76.4614839 C94.0827256,77.0231565 90.5690347,78.5841982 87.8234196,77.8974155 C85.0778044,77.2106327 80.0873943,71.2166863 78.9555331,71.2790524 C77.8240505,71.3414185 70.2284669,77.9590256 65.1142713,78.5841982 C60.0004543,79.2097488 59.2846183,76.0929571 61.8004543,75.4624929" id="Fill-38" fill="#9F5622"></path>
                                <path d="M34.1819054,64.1296705 C34.1819054,64.1296705 42.6583722,67.5896646 45.3509905,68.2567926 C48.0439874,68.9239205 61.4056278,66.4780366 79.1096025,58.9177568 C95.9228517,52.136108 99.2631672,51.4689801 99.2631672,51.4689801 C99.2631672,51.4689801 98.3720631,47.3528193 86.2357855,48.0770217 C74.0987508,48.8008461 53.5000126,49.2457241 53.5000126,49.2457241 C53.5000126,49.2457241 49.7141451,44.0202033 46.8193817,41.9080723 C43.9242397,39.7955634 39.6931987,38.4613074 39.6931987,38.4613074 C39.6931987,38.4613074 18.4267003,48.9958818 34.1819054,64.1296705" id="Fill-40" fill="#9F5622"></path>
                                <path d="M99.2631293,51.469169 C99.2631293,51.469169 100.135306,48.8490381 100.173161,47.39005 C100.211394,45.9310619 98.2929085,42.7757167 98.2929085,42.7757167 C98.2929085,42.7757167 103.221237,43.1533149 105.974423,42.1788923 C104.794486,43.1684339 102.619344,44.2483119 102.133666,44.9354726 C101.648366,45.6230113 100.43171,49.2992077 101.187293,51.5353149 C100.271584,53.9679696 99.2631293,51.469169 99.2631293,51.469169" id="Fill-42" fill="#98480C"></path>
                                <path d="M51.5008959,44.2484631 C50.4038612,43.822106 47.3766057,41.3244393 43.4537035,39.7675554 C43.1542713,38.6328708 42.981653,37.3016387 42.5531356,37.1795524 C41.9228517,37.8720048 41.7778675,38.6835196 41.754776,39.1782905 C39.7923785,38.5950732 37.663041,38.3142369 35.4735142,38.6578173 C35.4735142,38.6578173 41.0563533,39.6371536 43.5941451,40.9302101 C43.8072681,41.0651476 44.0211483,41.1929036 44.2248076,41.3032726 C46.2894132,42.7758679 50.3860694,44.1305345 53.5000126,49.2456863 C56.2210221,53.7715732 63.2018423,52.0045345 63.2018423,52.0045345 C63.2018423,52.0045345 53.2709905,44.9356238 51.5008959,44.2484631" id="Fill-44" fill="#98480C"></path>
                                <path d="M104.496265,64.2544405 C104.496265,61.2529315 98.4523533,52.3583958 98.4523533,52.3583958 L97.9405552,51.3975804 C90.189388,50.9780268 69.8643407,50.0652143 57.185224,59.4737976 C57.185224,59.4737976 78.8870536,64.6993185 87.5717224,66.3669494 C96.2563912,68.0342024 100.441249,68.4163363 101.126044,68.5036488 C101.29147,68.5248155 102.435066,68.2016458 104.016644,67.5454792 C104.292984,66.390006 104.496265,65.2145 104.496265,64.2544405" id="Fill-46" fill="#FF5B0C"></path>
                                <path d="M99.2631293,51.469169 C99.2631293,51.469169 96.5905741,51.246919 95.5885552,51.4302375 C101.187293,58.3619429 96.0507634,67.6284071 96.0507634,67.6284071 C98.4072303,68.154928 101.382625,68.5952702 104.050259,68.8239458 C106.832593,67.9459071 107.613918,59.9184488 105.832467,55.3419131 C104.050637,50.7653774 99.2631293,51.469169 99.2631293,51.469169" id="Fill-48" fill="#FFAD00"></path>
                                <path d="M97.9404416,51.3977315 C90.1892744,50.978178 69.8642271,50.0653655 57.185489,59.4739488 C57.185489,59.4739488 68.5782965,62.216922 78.1578549,64.3626929 C78.0912303,63.0639667 78.4001262,61.963678 79.6663722,61.3638298 C90.0030284,54.6218685 95.8455521,52.4292286 98.1297161,51.7526512 L97.9404416,51.3977315 Z" id="Fill-50" fill="#FF3500"></path>
                                <path d="M86.2357098,48.0769839 C76.591041,48.6522637 61.6050473,49.0510286 55.8556467,49.1908798 C54.9062461,50.8513292 53.4518612,54.4447488 53.833817,60.474603 C53.9996215,63.0849065 54.1056151,65.348228 54.1737539,67.2449125 C60.275205,65.8928917 68.9788013,63.2440345 79.1095268,58.918097 C95.922776,52.1360702 99.2630915,51.4693202 99.2630915,51.4693202 C99.2630915,51.4693202 98.3723659,47.3527815 86.2357098,48.0769839" id="Fill-52" fill="#FF5B0C"></path>
                                <path d="M48.7120505,58.3620562 C48.7120505,66.398586 50.3753943,67.9437527 50.407571,67.9732348 C53.0063091,67.557083 56.4306625,66.7916812 60.5019558,65.6191991 C60.4940063,65.5972765 58.7337539,60.6877438 58.9559621,56.6944253 C59.1785489,52.6924134 60.7385489,49.0653539 61.854511,49.0336039 C56.9488959,49.1711872 53.4999369,49.2456485 53.4999369,49.2456485 C53.4999369,49.2456485 48.7120505,50.2461515 48.7120505,58.3620562" id="Fill-54" fill="#FFAD00"></path>
                                <path d="M35.5275331,155.871598 C35.5275331,155.871598 35.0691104,157.374431 36.6397098,158.289134 C38.2106877,159.204214 37.9487319,159.530785 37.9487319,159.530785 C37.9487319,159.530785 37.0977539,163.908884 35.9200883,164.562404 C34.7420442,165.215925 33.0408454,169.985985 33.564,169.985985 C34.0875331,169.985985 38.2106877,162.732622 38.7342208,161.948699 C39.2577539,161.164399 38.472265,160.053526 40.5012871,160.184306 C42.5299306,160.315086 45.9327066,155.348857 45.8672177,155.087297 C45.8021073,154.826116 44.4275962,153.780634 44.4275962,153.780634 C44.4275962,153.780634 41.0899306,152.016241 42.1517603,144.009571 C42.7294259,139.651884 40.9593312,146.266089 40.1738423,149.271756 C39.3883533,152.2778 38.5377539,149.859887 38.0797098,150.186458 C37.6212871,150.513407 35.658511,153.649854 35.5275331,155.871598" id="Fill-56" fill="#98480C"></path>
                                <path d="M46.7180442,153.911224 C46.2811987,154.150105 48.1580442,154.695525 49.7286435,153.388483 C51.2992429,152.08182 55.4875079,146.135498 55.9455521,143.979144 C56.4039748,141.82279 49.4670662,152.408391 46.7180442,153.911224" id="Fill-58" fill="#9F5622"></path>
                                <path d="M48.7120505,83.8206048 C47.9640379,83.8206048 44.3772871,84.3180214 52.9464984,84.7160304 C61.5149527,85.1140393 73.2726814,85.1140393 78.3543218,84.7160304 C83.4359621,84.3180214 95.1335016,83.7181732 95.5885174,83.4225958 C96.0435331,83.1273964 81.6230915,84.119206 73.6118612,84.2186137 C65.6002524,84.3180214 50.8550158,83.8206048 48.7120505,83.8206048" id="Fill-62" fill="#FFA500"></path>
                                <path d="M48.0348265,93.4767247 C47.2868139,93.4767247 43.7000631,93.9741414 52.2692744,94.3721503 C60.8381073,94.7697813 72.5954574,94.7697813 77.6770978,94.3721503 C82.7587382,93.9741414 94.4562776,93.3742932 94.9112934,93.0787158 C95.3663091,92.7831384 80.9458675,93.7753259 72.9346372,93.8747336 C64.9230284,93.9741414 50.1777918,93.4767247 48.0348265,93.4767247" id="Fill-64" fill="#F9D400"></path>
                                <path d="M47.0233817,32.1484625 C47.0233817,32.1484625 55.2829401,29.3268702 59.6108896,26.6031738 C62.5344227,24.7631857 66.0969464,31.2953702 62.7104479,31.7334446 C59.3243281,32.171897 47.707041,32.8125667 46.5547382,33.3341738 C45.4020568,33.8561589 45.7416151,32.9286054 47.0233817,32.1484625" id="Fill-66" fill="#98480C"></path>
                                <path d="M83.8756845,31.496567 C83.9324669,31.3945134 83.9884921,31.2043914 84.0430032,30.9515253 L80.2461577,27.1600461 L79.8032555,30.2719241 C79.0927192,29.2872961 78.6816151,28.7222217 78.6816151,28.7222217 C78.6816151,28.7222217 62.840858,18.462436 60.502183,23.3114926 C60.1524038,24.0372068 59.7935394,24.4930461 58.876694,25.1677336 C59.2764416,28.0123824 58.4671041,30.8377545 59.8639495,31.8019717 C60.4654637,32.2169896 70.7616151,37.0290045 71.1469779,37.179439 C72.5551798,37.7297723 77.058776,37.3601116 77.2915836,37.179439 C77.5243912,36.9987664 83.3888707,32.369692 83.8756845,31.496567" id="Fill-68" fill="#98480C"></path>
                                <path d="M79.0011483,29.2863134 C78.8137666,26.4152062 76.6257539,20.3604057 75.6877098,20.2980396 C73.8752177,20.4851378 70.8744606,29.0988372 70.3119369,31.2835396 C69.9890347,32.5369086 69.3901703,33.3828193 68.7897918,33.8628491 C68.4373628,33.7437866 68.0762271,33.6209443 67.7109274,33.4958342 C70.6295394,34.4940693 73.2850599,35.3585009 73.4667634,35.3585009 C73.8710536,35.3585009 75.894776,35.3585009 76.1226625,35.181986 C76.2267634,35.1007211 77.6501073,34.2419592 79.2089716,33.2531735 C79.1082776,32.7723878 79.1449968,31.4857568 79.0011483,29.2863134" id="Fill-70" fill="#9F5622"></path>
                                <path d="M67.4361767,24.7297348 C64.3029274,22.6089104 59.3216025,17.1108687 57.2032429,14.1259908 C57.1786372,14.6578033 57.1775016,15.2425324 57.2161136,15.8790443 C57.4106877,19.1186783 57.4916972,19.5559967 58.1696782,20.3909461 C58.1696782,22.3004818 59.3526435,30.0546634 59.8580063,30.5600176 C60.1657666,30.8669342 64.9725804,32.5719848 68.7898675,33.8631515 C69.3902461,33.3827438 69.9891104,32.536833 70.3120126,31.283464 C70.5251356,30.4556961 71.088795,28.7041545 71.8050095,26.838464 C71.8031167,26.8433777 71.8008454,26.8482914 71.7989527,26.853583 C71.2080379,26.822589 70.1147886,26.5428866 67.4361767,24.7297348" id="Fill-72" fill="#FFBC00"></path>
                                <path d="M84.4036088,19.7387104 C83.1415268,21.2562848 80.107836,24.5571509 78.3082145,25.8377342 C78.6735142,27.1130259 78.9407697,28.3637491 79.0013375,29.286389 C79.1448076,31.4862104 79.1084669,32.7724634 79.2087823,33.2528711 C81.0561009,32.080389 83.0938297,30.7245884 83.352,30.2611896 C83.827836,29.4073414 84.2419685,22.4782818 84.3176782,21.316383 C84.3403912,20.968267 84.4017161,19.8955705 84.4607697,18.4702223 C84.4418423,18.9347551 84.4221577,19.3622461 84.4036088,19.7387104" id="Fill-74" fill="#FFBC00"></path>
                                <path d="M84.4036088,19.7387104 C84.4221577,19.3622461 84.4418423,18.9347551 84.4607697,18.4702223 C84.4615268,18.4535914 84.4622839,18.4369604 84.4626625,18.4199515 C84.4721262,18.1958116 84.4812114,17.9629783 84.4902965,17.7229634 C84.4910536,17.6995289 84.4918107,17.6753384 84.4925678,17.6515259 C84.501653,17.4183146 84.5096025,17.1790557 84.5179306,16.9341271 C84.5183091,16.9208979 84.5186877,16.9084247 84.5194448,16.8955735 C84.5270158,16.6514009 84.5345868,16.4008027 84.5414006,16.1479366 C84.5429148,16.0980437 84.544429,16.0481509 84.5455647,15.998636 C84.5527571,15.7438801 84.5588139,15.4861003 84.5648707,15.2252967 C84.5648707,15.2150914 84.5652492,15.204508 84.5652492,15.1943027 C84.5705489,14.9455943 84.5750915,14.6946182 84.5792555,14.442886 C84.5800126,14.3873235 84.5811483,14.332139 84.5819054,14.2765765 C84.5853123,14.0218205 84.5883407,13.7663086 84.590612,13.5107967 C84.5909905,13.4616598 84.5909905,13.411767 84.5913691,13.3622521 C84.5928833,13.1301747 84.5936404,12.8984753 84.5936404,12.6679098 C84.5936404,12.6263324 84.5940189,12.5843771 84.5936404,12.5424217 C84.5932618,12.2903116 84.5917476,12.0404693 84.5890978,11.7928949 C84.5883407,11.7331747 84.5875836,11.6742104 84.5868265,11.6148682 C84.5837981,11.362758 84.5796341,11.1129158 84.5735773,10.8683652 C84.5735773,10.8574039 84.5731987,10.8475765 84.5728202,10.8366152 C84.567142,10.601514 84.559571,10.3713265 84.5512429,10.1452967 C84.5493502,10.0912461 84.5474574,10.0368176 84.5451861,9.98314494 C84.5361009,9.75598125 84.525123,9.53335327 84.5130095,9.31828482 C84.5107382,9.27859732 84.5080883,9.2407997 84.505817,9.20149018 C84.4937035,9.00607649 84.4808328,8.81633244 84.4660694,8.63301399 C84.4634196,8.59937411 84.4607697,8.56497827 84.4584984,8.53171637 C84.4418423,8.33290089 84.4229148,8.14353482 84.4024732,7.96210625 C84.3979306,7.92241875 84.393388,7.8834872 84.3888454,7.84455565 C84.3668896,7.66199315 84.3437981,7.48585625 84.3176782,7.32446042 C83.7358486,3.71289792 80.8274574,0.606311607 73.4412114,0.101335417 C66.0553438,-0.40401875 62.0843659,1.06101696 60.2124416,2.75321637 C58.3405174,4.44541577 57.8162271,10.696008 57.8162271,10.696008 L57.8094132,10.713017 C57.8078991,10.7175527 57.8044921,10.7258682 57.8025994,10.7322937 C57.7991924,10.7409872 57.7946498,10.7527045 57.7901073,10.7651777 C57.7855647,10.7776509 57.780265,10.7931479 57.7742082,10.8090229 C57.7704227,10.8211182 57.7655016,10.8354812 57.7605804,10.8490884 C57.7530095,10.871767 57.7450599,10.8944455 57.7363533,10.9212818 C57.7337035,10.9295973 57.7302965,10.9401807 57.7272681,10.9488741 C57.6931987,11.0543295 57.6519369,11.1926687 57.6068896,11.3620021 C57.6031041,11.3752312 57.5996972,11.3884604 57.5962902,11.4020676 C57.5819054,11.4568741 57.567142,11.5150824 57.5523785,11.5759366 C57.5489716,11.5910557 57.5451861,11.6069307 57.5414006,11.6224277 C57.5258801,11.6881955 57.5099811,11.7558533 57.4944606,11.8284247 L57.4944606,11.8288027 C57.443735,12.061258 57.3937666,12.3288652 57.3487192,12.6267104 C57.3453123,12.649389 57.3422839,12.6716896 57.338877,12.6947461 C57.3263849,12.7801687 57.3142713,12.8689932 57.3029148,12.9593295 C57.2987508,12.9918354 57.2949653,13.0250973 57.2911798,13.0579812 C57.2802019,13.1494515 57.2696025,13.2424336 57.2601388,13.3388176 C57.257489,13.3664098 57.2552177,13.395136 57.2525678,13.4227283 C57.2325047,13.6411985 57.21547,13.8698741 57.2041136,14.1114009 C57.203735,14.1163146 57.2033565,14.1208503 57.2033565,14.126142 C59.3217161,17.110642 64.3026625,22.6086836 67.4362902,24.729886 C70.1149022,26.5426598 71.2081514,26.8227402 71.7990662,26.8537342 C71.800959,26.8484426 71.8032303,26.8431509 71.805123,26.8382372 C71.8702334,26.6685259 71.9364795,26.4980586 72.0038612,26.3272134 C72.0212744,26.2833682 72.0390662,26.2395229 72.0564795,26.1952997 C72.1113691,26.0569604 72.1673943,25.9189991 72.2234196,25.7806598 C72.2427256,25.7330348 72.2624101,25.6857878 72.2817161,25.6381628 C72.3422839,25.491508 72.4032303,25.3452312 72.4649338,25.1993324 C72.4789401,25.1656926 72.4929464,25.1320527 72.5069527,25.0987908 C72.5841767,24.9177402 72.6617792,24.7382015 72.7405174,24.5601747 C72.7461956,24.5473235 72.7522524,24.5348503 72.7575521,24.5219991 C72.8283407,24.3632491 72.8987508,24.2071449 72.9702965,24.0525527 C72.9922524,24.0045497 73.0145868,23.9576807 73.0369211,23.9100557 C73.0929464,23.7894812 73.1497287,23.6700408 73.2061325,23.5528682 C73.2311167,23.5010854 73.2561009,23.4493027 73.2810852,23.3982759 C73.3401388,23.2777015 73.399571,23.1601509 73.4590032,23.0437342 C73.4790662,23.0044247 73.4987508,22.9643592 73.5188139,22.9254277 C73.5986877,22.7715914 73.678183,22.6215348 73.7576782,22.4771479 C73.7648707,22.4635408 73.7724416,22.4514455 73.7800126,22.4382164 C73.8508013,22.3104604 73.9215899,22.1872402 73.9916215,22.0681777 C74.0166057,22.0266003 74.0408328,21.9869128 74.0650599,21.9464693 C74.119571,21.856889 74.174082,21.7699545 74.227836,21.6860437 C74.2547129,21.6444664 74.2815899,21.603267 74.3084669,21.5628235 C74.3633565,21.4804247 74.417489,21.4025616 74.4716215,21.3273443 C74.4947129,21.2948384 74.518183,21.2611985 74.5408959,21.2302045 C74.6169842,21.1277729 74.6930726,21.031011 74.7676467,20.9436985 C74.7733249,20.9368949 74.7786246,20.9319812 74.7843028,20.9255557 C74.8531987,20.8458027 74.920959,20.7736092 74.9883407,20.7078414 C75.0110536,20.6851628 75.0341451,20.666264 75.0572366,20.6450973 C75.107205,20.5997402 75.156795,20.5577848 75.2060063,20.5203652 C75.2309905,20.5018443 75.2555962,20.4840795 75.2802019,20.4674485 C75.3290347,20.4345646 75.3771104,20.4077283 75.424429,20.3842937 C75.4463849,20.3737104 75.4679621,20.3608592 75.4891609,20.3525437 C75.5569211,20.3249515 75.6235457,20.3049187 75.6878991,20.2981152 C75.7234826,20.300383 75.7617161,20.3143682 75.8007066,20.3336449 C75.8124416,20.3393146 75.8241767,20.3468741 75.8359117,20.3536777 C75.8661956,20.3718205 75.8976151,20.3944991 75.9297918,20.4220914 C75.9415268,20.4315408 75.9525047,20.4402342 75.9642397,20.4511955 C76.0070158,20.490883 76.0516845,20.5366182 76.0971104,20.5910467 C76.1024101,20.5978503 76.1088454,20.6061658 76.1145237,20.6129693 C76.1550284,20.6628622 76.1966688,20.7188027 76.2398233,20.7789009 C76.2534511,20.7985557 76.2670789,20.8185884 76.2807066,20.8393771 C76.3200757,20.8968295 76.3598233,20.9588176 76.399571,21.0242074 C76.4105489,21.0415943 76.4211483,21.0578473 76.4317476,21.0756122 C76.4828517,21.1614128 76.5350915,21.2525051 76.5880883,21.3496449 C76.5952808,21.3636301 76.6036088,21.3791271 76.6108013,21.3934902 C76.6569842,21.4789128 76.7035457,21.5692491 76.7501073,21.6626092 C76.7625994,21.6879336 76.77547,21.7128801 76.7879621,21.7385824 C76.8375521,21.8395021 76.8875205,21.9438235 76.9371104,22.0526807 C76.941653,22.0621301 76.9461956,22.0708235 76.9507382,22.0802729 C77.0075205,22.2050051 77.0650599,22.3346509 77.1225994,22.4680765 C77.1282776,22.4813057 77.1339558,22.4949128 77.1400126,22.5085199 C77.1911167,22.6287164 77.2425994,22.7526926 77.2944606,22.8793146 C77.3024101,22.8993473 77.3107382,22.9193801 77.3186877,22.9394128 C77.4341451,23.2262967 77.5488454,23.5260318 77.6605174,23.8352164 C77.6624101,23.841264 77.6646814,23.8473116 77.6669527,23.8533592 C77.7218423,24.0056836 77.7759748,24.1595199 77.8293502,24.3152461 C77.832,24.3231836 77.8346498,24.3311211 77.8372997,24.3390586 C77.9485931,24.6637402 78.0553438,24.9944693 78.1571735,25.3267104 C78.1583091,25.3312461 78.1598233,25.3357818 78.160959,25.3399396 C78.2116845,25.5058711 78.2605174,25.6721807 78.3082145,25.8377342 C80.107836,24.5571509 83.1415268,21.2562848 84.4036088,19.7387104" id="Fill-76" fill="#FF5B0C"></path>
                                <path d="M63.8163028,14.7428857 C63.6028013,14.2292161 69.8057035,14.1702518 70.4783849,14.1702518 C71.1506877,14.1702518 73.1876593,13.6815286 73.2501199,14.4930435 C73.3125804,15.3045583 71.7173754,18.7377161 70.8898675,18.9871804 C70.0619811,19.2370226 65.3221703,18.3631417 63.8163028,14.7428857" id="Fill-78" fill="#1F191A"></path>
                                <path d="M77.5172744,14.8004893 C77.7163912,15.4698851 78.5635836,18.3005488 79.1885678,18.4256589 C79.8135521,18.5503911 83.3143722,15.0446619 83.1894511,13.4269238 C82.8143091,13.1823732 80.1924795,13.9095994 79.692795,13.9579804 C79.1927319,14.0067393 77.2628896,13.9447512 77.5172744,14.8004893" id="Fill-80" fill="#1F191A"></path>
                                <path d="M75.2052871,3.25377024 C74.438347,1.70746964 73.9655394,0.686555952 73.4181577,0.100314881 C71.8918486,-0.00362857143 70.5188517,-0.0191255952 69.2726688,0.0303892857 C70.52453,0.056847619 73.7448454,1.20287143 73.7448454,7.47841012 C73.7448454,17.2483387 74.1987256,20.1360768 74.5787886,21.1826929 C74.9739937,20.6625976 75.3514069,20.3330024 75.6875584,20.2982286 C75.8143722,20.306544 75.9646562,20.4282524 76.1289464,20.6327375 C76.0396088,19.9550262 75.9525426,18.81505 75.9525426,16.9315946 C75.9525426,13.0622524 76.4079369,5.6784875 75.2052871,3.25377024" id="Fill-82" fill="#FFAD00"></path>
                                <path d="M74.0792555,23.5978473 C73.9993817,23.5672312 73.9637981,23.4768949 74.0020315,23.4001658 C74.2329464,22.9352551 75.0445552,21.4709753 76.1101703,21.4709753 C77.1553438,21.4709753 77.1159748,22.8796926 77.0701703,23.3725735 C77.0607066,23.475761 76.9918107,23.5600497 76.8930095,23.5906658 C76.6079621,23.6783562 75.9924416,23.8541152 75.5116845,23.8915348 C75.0199495,23.9293324 74.3654385,23.7070824 74.0792555,23.5978473" id="Fill-84" fill="#98480C"></path>
                                <path d="M76.9213249,25.1339048 C76.8403155,24.5416161 76.2459937,23.0316012 77.0704732,23.3725357 C79.6782965,24.4501458 80.328265,25.0246696 79.9822713,26.0463393 C79.7982965,26.590247 78.6970978,26.5566071 78.8844795,28.3172202 C78.962082,29.0486042 77.0155836,25.8244673 76.9213249,25.1339048" id="Fill-86" fill="#9F5622"></path>
                                <path d="M72.0138927,26.9603235 C72.0138927,26.9603235 73.3872681,25.381517 74.656164,25.0284872 C75.9254385,24.6750795 77.1947129,24.8621777 77.8397603,24.8829664 C78.484429,24.9037551 79.2956593,24.8716271 79.5663218,24.8149307 C79.8366057,24.7582342 80.2321893,25.4646717 79.982347,26.0463771 C79.7328833,26.6280824 75.2803912,25.7757461 74.7394448,25.8071182 C74.1984984,25.8384902 73.0128833,27.2301985 72.0138927,26.9603235" id="Fill-88" fill="#98480C"></path>
                                <path d="M75.1346877,26.9950217 C75.1346877,26.9950217 76.0454763,26.6072182 76.8385363,26.8978818 C77.6315962,27.1889235 77.6520379,27.625108 77.7561388,27.9365604 C77.8602397,28.2483908 77.0694511,28.3315455 76.5493249,27.9365604 C76.0291987,27.5419533 74.2159495,27.196861 75.1346877,26.9950217" id="Fill-90" fill="#98480C"></path>
                            </g>
                        </g>
                    </g>
                </g>
            </g>
        </g>
    </g>
</svg>