<?xml version="1.0" encoding="UTF-8" standalone="no"?>
<svg width="122px" height="40px" viewBox="0 0 122 40" version="1.1" xmlns="http://www.w3.org/2000/svg" xmlns:xlink="http://www.w3.org/1999/xlink">
    <!-- Generator: Sketch 45.1 (43504) - http://www.bohemiancoding.com/sketch -->
    <title>graphic-defender-download-ios</title>
    <desc>Created with Sketch.</desc>
    <defs></defs>
    <g id="Security-Plugin" stroke="none" stroke-width="1" fill="none" fill-rule="evenodd">
        <g id="Advanced-Tools---2-Factor---New" transform="translate(-690.000000, -978.000000)">
            <g id="graphic-defender-download-ios" transform="translate(690.000000, 978.000000)">
                <g>
                    <path d="M121.876094,34.4521429 C121.876094,37.425 119.464449,39.8359524 116.489746,39.8359524 L5.38753906,39.8359524 C2.41259766,39.8361905 0,37.4252381 0,34.4521429 L0,5.38333333 C0,2.41071429 2.41259766,0 5.38753906,0 L116.489508,0 C119.464211,0 121.875855,2.41071429 121.875855,5.38333333 L121.875855,34.4521429 L121.876094,34.4521429 Z" id="path6" fill="#000000" fill-rule="nonzero"></path>
                    <g id="g3447" transform="translate(8.450693, 5.437730)" fill-rule="nonzero" fill="#FFFFFF">
                        <g id="g3449">
                            <path d="M19.6864359,14.9573036 C19.6549428,11.4599596 22.5523066,9.75849037 22.6847948,9.67927656 C21.0438965,7.28875568 18.5005584,6.96213435 17.6068063,6.93609145 C15.4707064,6.71147147 13.3986786,8.21327851 12.3105382,8.21327851 C11.2006785,8.21327851 9.5250292,6.95779387 7.71906368,6.99468797 C5.39509121,7.03049695 3.2209824,8.37496149 2.02858905,10.4627337 C-0.43221544,14.7196622 1.40307123,20.9753829 3.76070871,24.4163007 C4.94007044,26.1014931 6.31816439,27.9830924 8.12195797,27.9169 C9.88665669,27.8441969 10.5458395,26.792715 12.6754236,26.792715 C14.7854603,26.792715 15.4044623,27.9169 17.2440929,27.8745803 C19.1380218,27.8441969 20.3304152,26.181792 21.4685101,24.4814079 C22.8314005,22.5498931 23.3787286,20.6476765 23.400448,20.5500156 C23.3559233,20.5348239 19.7222729,19.1491248 19.6864359,14.9573036 Z" id="path3451"></path>
                            <path d="M16.2113369,4.67252969 C17.1604733,3.48649278 17.8098824,1.87291831 17.6296117,0.23547119 C16.2558616,0.296237948 14.5378595,1.18495179 13.5485423,2.34494581 C12.6732517,3.3671295 11.8913544,5.04255585 12.0933446,6.61815109 C13.6365057,6.73317388 15.2209337,5.84011956 16.2113369,4.67252969 L16.2113369,4.67252969 Z" id="path3453"></path>
                        </g>
                    </g>
                    <g id="g3455" transform="translate(35.993230, 14.542779)" fill-rule="nonzero" fill="#FFFFFF">
                        <path d="M10.6202177,12.3060081 L8.54907005,12.3060081 L7.41454443,8.74379054 L3.47106471,8.74379054 L2.39034698,12.3060081 L0.373919215,12.3060081 L4.28091901,0.178612084 L6.69406595,0.178612084 L10.6202177,12.3060081 L10.6202177,12.3060081 Z M7.07254515,7.24928127 L6.0465473,4.08256192 C5.93801953,3.75905534 5.73464396,2.99722012 5.43459659,1.79796756 L5.39811667,1.79796756 C5.27864492,2.31375552 5.08621332,3.07559073 4.82173388,4.08256192 L3.81397599,7.24928127 L7.07254515,7.24928127 L7.07254515,7.24928127 Z" id="path3457"></path>
                        <path d="M20.6677006,7.82612539 C20.6677006,9.31334438 20.2655095,10.4889035 19.4611271,11.3518915 C18.7406487,12.1201057 17.8459785,12.5037572 16.7780288,12.5037572 C15.6252632,12.5037572 14.7971689,12.0900333 14.292834,11.2625854 L14.2563541,11.2625854 L14.2563541,15.8691369 L12.3119741,15.8691369 L12.3119741,6.44005917 C12.3119741,5.50507959 12.2873502,4.54549528 12.2399263,3.56130625 L13.9499227,3.56130625 L14.0584505,4.94737247 L14.0949304,4.94737247 C14.743361,3.90303855 15.727407,3.38178288 17.0479802,3.38178288 C18.080362,3.38178288 18.9422002,3.78912778 19.6316708,4.60472888 C20.3229653,5.42124126 20.6677006,6.49473634 20.6677006,7.82612539 L20.6677006,7.82612539 Z M18.6868408,7.89720571 C18.6868408,7.04606446 18.4953212,6.34437413 18.110458,5.79213472 C17.6900269,5.21620188 17.1255,4.92823546 16.4177895,4.92823546 C15.9380785,4.92823546 15.5021435,5.08862182 15.1127203,5.40483811 C14.7223851,5.72378826 14.4670256,6.14024603 14.3475539,6.65603399 C14.287362,6.89661353 14.2572661,7.09345134 14.2572661,7.24836998 L14.2572661,8.70642781 C14.2572661,9.34250554 14.4524337,9.87925307 14.8427688,10.3175817 C15.233104,10.7559103 15.740175,10.974619 16.3639816,10.974619 C17.0963161,10.974619 17.6663149,10.6921203 18.0739781,10.1289455 C18.4825532,9.56485936 18.6868408,8.82124986 18.6868408,7.89720571 L18.6868408,7.89720571 Z" id="path3459"></path>
                        <path d="M30.7334235,7.82612539 C30.7334235,9.31334438 30.3312323,10.4889035 29.525938,11.3518915 C28.8063715,12.1201057 27.9117014,12.5037572 26.8437516,12.5037572 C25.6909861,12.5037572 24.8628918,12.0900333 24.3594689,11.2625854 L24.3229889,11.2625854 L24.3229889,15.8691369 L22.378609,15.8691369 L22.378609,6.44005917 C22.378609,5.50507959 22.3539851,4.54549528 22.3065612,3.56130625 L24.0165576,3.56130625 L24.1250853,4.94737247 L24.1615653,4.94737247 C24.8090839,3.90303855 25.7931298,3.38178288 27.1146151,3.38178288 C28.1460849,3.38178288 29.0079231,3.78912778 29.6992176,4.60472888 C30.3877762,5.42124126 30.7334235,6.49473634 30.7334235,7.82612539 L30.7334235,7.82612539 Z M28.7525636,7.89720571 C28.7525636,7.04606446 28.560132,6.34437413 28.1752688,5.79213472 C27.7548377,5.21620188 27.1921349,4.92823546 26.4835124,4.92823546 C26.0028894,4.92823546 25.5678663,5.08862182 25.1775311,5.40483811 C24.787196,5.72378826 24.5327485,6.14024603 24.4132767,6.65603399 C24.3539969,6.89661353 24.3229889,7.09345134 24.3229889,7.24836998 L24.3229889,8.70642781 C24.3229889,9.34250554 24.5181565,9.87925307 24.9066677,10.3175817 C25.2970029,10.7549991 25.8040738,10.974619 26.4297045,10.974619 C27.162039,10.974619 27.7320378,10.6921203 28.1397009,10.1289455 C28.5482761,9.56485936 28.7525636,8.82124986 28.7525636,7.89720571 L28.7525636,7.89720571 Z" id="path3461"></path>
                        <path d="M41.9874798,8.90508819 C41.9874798,9.9366641 41.6290646,10.7759586 40.9094981,11.4238831 C40.1187958,12.1319524 39.0180141,12.4855314 37.603505,12.4855314 C36.2975238,12.4855314 35.25055,12.2340165 34.4580237,11.7300752 L34.9085507,10.1107198 C35.7621809,10.6265077 36.6988029,10.885313 37.7193288,10.885313 C38.4516633,10.885313 39.0216621,10.7194589 39.4311492,10.3895733 C39.8388124,10.0596877 40.0421879,9.61680267 40.0421879,9.06456326 C40.0421879,8.57246875 39.8743803,8.15783355 39.537853,7.82156896 C39.2031497,7.48530438 38.6440949,7.17273323 37.8634245,6.88385552 C35.738469,6.09194786 34.6769032,4.93188061 34.6769032,3.4063876 C34.6769032,2.40944056 35.0489984,1.59201689 35.7941008,0.955939164 C36.5364673,0.31895015 37.5268972,0.000911286143 38.7653906,0.000911286143 C39.8698203,0.000911286143 40.7872904,0.193192662 41.5196248,0.576844128 L41.0335298,2.16065944 C40.3495313,1.7888547 39.5761569,1.60295233 38.7106707,1.60295233 C38.0266722,1.60295233 37.4922413,1.77154026 37.1092021,2.10689356 C36.7854428,2.4067067 36.6231071,2.77213245 36.6231071,3.20499336 C36.6231071,3.68432988 36.8082427,4.08073935 37.1803379,4.39239921 C37.5040973,4.68036563 38.092336,4.99202549 38.9459662,5.32829008 C39.990204,5.74839299 40.7571944,6.23957622 41.2505854,6.80275106 C41.7421524,7.36410332 41.9874798,8.06670494 41.9874798,8.90508819 L41.9874798,8.90508819 Z" id="path3463"></path>
                        <path d="M48.4161543,5.01936407 L46.2729588,5.01936407 L46.2729588,9.26504621 C46.2729588,10.3449203 46.6505261,10.8844017 47.4074845,10.8844017 C47.7549557,10.8844017 48.0431471,10.8543292 48.2711466,10.7941844 L48.3249545,12.2695566 C47.9419153,12.4126286 47.4375804,12.4846202 46.8128617,12.4846202 C46.0449593,12.4846202 45.4448646,12.2504196 45.0116655,11.7829298 C44.5802904,11.3145287 44.3632349,10.5290001 44.3632349,9.42543258 L44.3632349,5.0175415 L43.0864375,5.0175415 L43.0864375,3.55948367 L44.3632349,3.55948367 L44.3632349,1.95835392 L46.2729588,1.38242108 L46.2729588,3.55948367 L48.4161543,3.55948367 L48.4161543,5.01936407 L48.4161543,5.01936407 Z" id="path3465"></path>
                        <path d="M58.08607,7.86166555 C58.08607,9.20581262 57.7012068,10.3093801 56.9333045,11.1723681 C56.1280102,12.0608721 55.0591484,12.5037572 53.7267192,12.5037572 C52.4426259,12.5037572 51.420276,12.0781865 50.6578456,11.2270453 C49.8954152,10.375904 49.5142,9.30149766 49.5142,8.00656005 C49.5142,6.65147756 49.9063592,5.54153103 50.6934136,4.67854306 C51.4786439,3.81464379 52.5383857,3.38269416 53.8708149,3.38269416 C55.1549082,3.38269416 56.188202,3.80826479 56.9679604,4.66031733 C57.7139748,5.48685387 58.08607,6.55396994 58.08607,7.86166555 L58.08607,7.86166555 Z M56.0687303,7.9245443 C56.0687303,7.11805606 55.8963626,6.42638988 55.5470674,5.84954575 C55.1394042,5.15150057 54.5566375,4.80338926 53.801503,4.80338926 C53.0199207,4.80338926 52.4262099,5.15241185 52.0185468,5.84954575 C51.6692515,6.42730117 51.4968839,7.12990278 51.4968839,7.96099574 C51.4968839,8.76748398 51.6692515,9.45915016 52.0185468,10.035083 C52.4389779,10.7331282 53.0263047,11.0812395 53.7841751,11.0812395 C54.5265415,11.0812395 55.1093083,10.7258379 55.5297394,10.0168573 C55.8881547,9.42907772 56.0687303,8.73012125 56.0687303,7.9245443 L56.0687303,7.9245443 Z" id="path3467"></path>
                        <path d="M64.4062168,5.26996776 C64.2137852,5.2344276 64.0085856,5.21620188 63.7933541,5.21620188 C63.1093555,5.21620188 62.5803966,5.47409586 62.2083014,5.9907951 C61.8845421,6.44643817 61.7222064,7.02237102 61.7222064,7.71768234 L61.7222064,12.3060081 L59.7787385,12.3060081 L59.7969784,6.31521297 C59.7969784,5.3073305 59.7723545,4.38966535 59.7240186,3.56221753 L61.417599,3.56221753 L61.4887349,5.23533889 L61.5425428,5.23533889 C61.7477424,4.66031733 62.0715017,4.19738397 62.5147327,3.85018395 C62.9479318,3.53761281 63.4157869,3.38178288 63.9201218,3.38178288 C64.0997854,3.38178288 64.2621211,3.39454088 64.4062168,3.41732304 L64.4062168,5.26996776 Z" id="path3469"></path>
                        <path d="M73.1021185,7.51993325 C73.1021185,7.86804456 73.0793186,8.1614787 73.0309827,8.40114695 L67.1978429,8.40114695 C67.2206429,9.26504621 67.5024503,9.92572867 68.0441771,10.3813717 C68.5357441,10.7887166 69.1714068,10.9928447 69.9520771,10.9928447 C70.8157393,10.9928447 71.6037057,10.8552405 72.3123282,10.5791208 L72.6169355,11.9278243 C71.7888413,12.2886936 70.8111793,12.468217 69.6830377,12.468217 C68.3259845,12.468217 67.2607708,12.0690737 66.4855724,11.2716983 C65.712198,10.4743229 65.3245988,9.40356171 65.3245988,8.06032593 C65.3245988,6.74169488 65.6848381,5.64359508 66.4062286,4.7678491 C67.161363,3.83286952 68.1818888,3.36537973 69.4659821,3.36537973 C70.7272755,3.36537973 71.6821375,3.83286952 72.3305681,4.7678491 C72.8440231,5.51054731 73.1021185,6.42912374 73.1021185,7.51993325 L73.1021185,7.51993325 Z M71.2480264,7.01599201 C71.2607944,6.44005917 71.1340266,5.94249694 70.8704592,5.52239403 C70.5339319,4.98200134 70.016829,4.71226064 69.3209745,4.71226064 C68.6853118,4.71226064 68.1682089,4.97562234 67.7733137,5.5041683 C67.4495544,5.92427121 67.2571228,6.42821245 67.1978429,7.01508073 L71.2480264,7.01508073 L71.2480264,7.01599201 Z" id="path3471"></path>
                    </g>
                    <g id="g3473" transform="translate(36.661984, 7.639426)" fill-rule="nonzero" fill="#FFFFFF">
                        <g id="g3475">
                            <path d="M3.09476983,2.04913172 C3.09476983,2.65073512 2.91419896,3.10359885 2.55356876,3.40772292 C2.21953823,3.68833487 1.74483635,3.82889641 1.12997464,3.82889641 C0.825101444,3.82889641 0.56422002,3.81560696 0.34579577,3.78902805 L0.34579577,0.501932489 C0.630719207,0.45593053 0.937638529,0.432418417 1.2691114,0.432418417 C1.85481577,0.432418417 2.29626806,0.559690505 2.5939798,0.814234679 C2.9274988,1.10200249 3.09476983,1.51346446 3.09476983,2.04913172 Z M2.52952675,2.06395457 C2.52952675,1.67396019 2.42619724,1.37494745 2.21953823,1.16640523 C2.01287922,0.958374152 1.71107522,0.854103044 1.3136147,0.854103044 C1.14480907,0.854103044 1.00106852,0.865347967 0.881881519,0.88886008 L0.881881519,3.38778873 C0.947869173,3.39801139 1.06859077,3.40261159 1.24404632,3.40261159 C1.65429515,3.40261159 1.97093358,3.28862896 2.19396162,3.06066369 C2.41698966,2.83269843 2.52952675,2.50046205 2.52952675,2.06395457 L2.52952675,2.06395457 Z" id="path3477"></path>
                            <path d="M6.09183701,2.57457632 C6.09183701,2.94514766 5.98594985,3.24876059 5.77417551,3.48694851 C5.55217054,3.73178116 5.25803952,3.85394192 4.8907594,3.85394192 C4.53677911,3.85394192 4.25492487,3.73689249 4.04468513,3.50177137 C3.83495693,3.26716138 3.73009283,2.97121544 3.73009283,2.61444469 C3.73009283,2.24131768 3.83802612,1.93514909 4.05491578,1.6974723 C4.27180543,1.45979551 4.56337879,1.34070155 4.93065891,1.34070155 C5.28463919,1.34070155 5.5690511,1.45775098 5.78440616,1.69236097 C5.98901904,1.92032623 6.09183701,2.21473877 6.09183701,2.57457632 L6.09183701,2.57457632 Z M5.53580151,2.59195484 C5.53580151,2.36961204 5.48771748,2.17895947 5.39206096,2.01999715 C5.27952387,1.82781118 5.11941429,1.7317182 4.91122069,1.7317182 C4.69586563,1.7317182 4.53217532,1.82781118 4.41963824,2.01999715 C4.32347018,2.17895947 4.27589769,2.37267883 4.27589769,2.60166636 C4.27589769,2.82400917 4.32398172,3.01466173 4.41963824,3.17362406 C4.53575605,3.36581002 4.69740022,3.461903 4.90610536,3.461903 C5.11071825,3.461903 5.27133936,3.36427662 5.38694564,3.16851273 C5.48618288,3.00648361 5.53580151,2.81429764 5.53580151,2.59195484 Z" id="path3479"></path>
                            <path d="M10.110434,1.3897703 L9.355924,3.7992507 L8.86485309,3.7992507 L8.55230691,2.7529617 C8.47301942,2.49177279 8.40856636,2.23211729 8.35843621,1.97450632 L8.34871709,1.97450632 C8.30216766,2.23927315 8.23771461,2.49841752 8.15484639,2.7529617 L7.82286199,3.7992507 L7.32616422,3.7992507 L6.61666905,1.3897703 L7.16758924,1.3897703 L7.4402359,2.53521909 C7.50622355,2.80611952 7.56044597,3.06424162 7.60392621,3.30856314 L7.61364532,3.30856314 C7.65354483,3.10717678 7.71953248,2.85058808 7.81263134,2.54033042 L8.15484639,1.39028144 L8.59169489,1.39028144 L8.91958703,2.51579604 C8.99887452,2.7902744 9.06332758,3.0545301 9.11294621,3.30907427 L9.12778064,3.30907427 C9.16409943,3.06117482 9.21883337,2.79691912 9.29147094,2.51579604 L9.58406737,1.39028144 L10.110434,1.39028144 L10.110434,1.3897703 Z" id="path3481"></path>
                            <path d="M12.8895885,3.7992507 L12.3535027,3.7992507 L12.3535027,2.41919193 C12.3535027,1.99392937 12.1918585,1.78129809 11.8675471,1.78129809 C11.7084606,1.78129809 11.580066,1.83956724 11.4803172,1.95661667 C11.3815915,2.0736661 11.3314614,2.21167198 11.3314614,2.36961204 L11.3314614,3.79873957 L10.7953756,3.79873957 L10.7953756,2.07826629 C10.7953756,1.86665728 10.7887257,1.63715862 10.7759374,1.38874804 L11.2470586,1.38874804 L11.2721236,1.76545297 L11.2869581,1.76545297 C11.349365,1.64840354 11.4424639,1.55179943 11.5647201,1.47461836 C11.7099952,1.38465897 11.8726624,1.33916815 12.0506757,1.33916815 C12.2757498,1.33916815 12.4629706,1.41174902 12.6118265,1.55742189 C12.7970011,1.73580726 12.8895885,2.00210749 12.8895885,2.35581145 L12.8895885,3.7992507 L12.8895885,3.7992507 Z" id="path3483"></path>
                            <polygon id="path3485" points="14.3679165 3.7992507 13.8323423 3.7992507 13.8323423 0.284189882 14.3679165 0.284189882"></polygon>
                            <path d="M17.5240702,2.57457632 C17.5240702,2.94514766 17.4181831,3.24876059 17.2064087,3.48694851 C16.9844038,3.73178116 16.6897612,3.85394192 16.3229926,3.85394192 C15.9685008,3.85394192 15.6866466,3.73689249 15.4769183,3.50177137 C15.2671901,3.26716138 15.162326,2.97121544 15.162326,2.61444469 C15.162326,2.24131768 15.2702593,1.93514909 15.487149,1.6974723 C15.7040386,1.45979551 15.995612,1.34070155 16.3623806,1.34070155 C16.7168724,1.34070155 17.0007728,1.45775098 17.2166394,1.69236097 C17.4212523,1.92032623 17.5240702,2.21473877 17.5240702,2.57457632 L17.5240702,2.57457632 Z M16.9675232,2.59195484 C16.9675232,2.36961204 16.9194392,2.17895947 16.8237826,2.01999715 C16.7117571,1.82781118 16.551136,1.7317182 16.3434539,1.7317182 C16.1275873,1.7317182 15.963897,1.82781118 15.8518715,2.01999715 C15.7557034,2.17895947 15.7081309,2.37267883 15.7081309,2.60166636 C15.7081309,2.82400917 15.7562149,3.01466173 15.8518715,3.17362406 C15.9679893,3.36581002 16.1296334,3.461903 16.3383386,3.461903 C16.5429515,3.461903 16.703061,3.36427662 16.8186673,3.16851273 C16.9184161,3.00648361 16.9675232,2.81429764 16.9675232,2.59195484 L16.9675232,2.59195484 Z" id="path3487"></path>
                            <path d="M20.1185616,3.7992507 L19.6372098,3.7992507 L19.5973102,3.52170555 L19.5824758,3.52170555 C19.4177624,3.74302609 19.1829692,3.85394192 18.878096,3.85394192 C18.6504641,3.85394192 18.4663125,3.78084992 18.3276873,3.63568818 C18.2018504,3.5038159 18.1389319,3.33974224 18.1389319,3.14500062 C18.1389319,2.85058808 18.2616997,2.62620074 18.5087697,2.47081635 C18.7553282,2.31543195 19.1021471,2.23927315 19.5487147,2.24285108 L19.5487147,2.19787139 C19.5487147,1.88045787 19.3819552,1.72200668 19.0479247,1.72200668 C18.8100622,1.72200668 18.600334,1.78180922 18.4192516,1.90039205 L18.3102952,1.54873263 C18.5343463,1.41021562 18.8110853,1.34070155 19.1374428,1.34070155 C19.7676505,1.34070155 20.0837774,1.67293792 20.0837774,2.33741066 L20.0837774,3.22473735 C20.0837774,3.46548093 20.0955426,3.65715576 20.1185616,3.7992507 Z M19.5620145,2.97121544 L19.5620145,2.59962183 C18.9706833,2.58939917 18.6750177,2.7514283 18.6750177,3.08519807 C18.6750177,3.21093676 18.7087788,3.30498521 18.7778357,3.36785455 C18.8468925,3.4307239 18.934876,3.461903 19.0397401,3.461903 C19.1573926,3.461903 19.267372,3.4245903 19.3676323,3.35047603 C19.4684041,3.27585063 19.5302995,3.18129105 19.5533185,3.06526389 C19.5589453,3.03919611 19.5620145,3.00750587 19.5620145,2.97121544 Z" id="path3489"></path>
                            <path d="M23.1647358,3.7992507 L22.6890109,3.7992507 L22.6639458,3.41232311 L22.6491114,3.41232311 C22.4971863,3.70673565 22.238351,3.85394192 21.8746516,3.85394192 C21.5841013,3.85394192 21.3421466,3.73995929 21.150322,3.51199403 C20.9584974,3.28402876 20.8628409,2.98808282 20.8628409,2.62466734 C20.8628409,2.23467296 20.966682,1.91879284 21.1753871,1.67753812 C21.3774423,1.45263965 21.6250239,1.34019041 21.9196665,1.34019041 C22.2434663,1.34019041 22.4700751,1.44906172 22.5989812,1.66731546 L22.6092119,1.66731546 L22.6092119,0.284189882 L23.1458091,0.284189882 L23.1458091,3.15011195 C23.1458091,3.38472194 23.1519475,3.60093115 23.1647358,3.7992507 L23.1647358,3.7992507 Z M22.6092119,2.78311854 L22.6092119,2.38136809 C22.6092119,2.31185402 22.6040965,2.2556294 22.5943774,2.21269424 C22.564197,2.08388876 22.4992324,1.97552858 22.4005067,1.88812486 C22.3007579,1.80072114 22.1805479,1.75676371 22.0419226,1.75676371 C21.8419136,1.75676371 21.6853847,1.83598931 21.57029,1.99495163 C21.4562183,2.15391396 21.3984151,2.35683371 21.3984151,2.60473316 C21.3984151,2.84292108 21.4531491,3.03612931 21.5631285,3.18486898 C21.6792463,3.34332017 21.8357752,3.42254577 22.031692,3.42254577 C22.2076591,3.42254577 22.3483304,3.35660963 22.4552407,3.22422621 C22.5585702,3.10206545 22.6092119,2.95485918 22.6092119,2.78311854 L22.6092119,2.78311854 Z" id="path3491"></path>
                            <path d="M27.749599,2.57457632 C27.749599,2.94514766 27.6437118,3.24876059 27.4319375,3.48694851 C27.2099325,3.73178116 26.916313,3.85394192 26.5485214,3.85394192 C26.1950526,3.85394192 25.9131984,3.73689249 25.7024471,3.50177137 C25.4927189,3.26716138 25.3878548,2.97121544 25.3878548,2.61444469 C25.3878548,2.24131768 25.4957881,1.93514909 25.7126777,1.6974723 C25.9295674,1.45979551 26.2211408,1.34070155 26.5889324,1.34070155 C26.9424012,1.34070155 27.2273246,1.45775098 27.4421681,1.69236097 C27.646781,1.92032623 27.749599,2.21473877 27.749599,2.57457632 L27.749599,2.57457632 Z M27.194075,2.59195484 C27.194075,2.36961204 27.145991,2.17895947 27.0503345,2.01999715 C26.9372858,1.82781118 26.7776878,1.7317182 26.5689827,1.7317182 C26.3541391,1.7317182 26.1904488,1.82781118 26.0774002,2.01999715 C25.9812321,2.17895947 25.9336597,2.37267883 25.9336597,2.60166636 C25.9336597,2.82400917 25.9817437,3.01466173 26.0774002,3.17362406 C26.193518,3.36581002 26.3551622,3.461903 26.5638673,3.461903 C26.7684802,3.461903 26.9296129,3.36427662 27.0452191,3.16851273 C27.1439448,3.00648361 27.194075,2.81429764 27.194075,2.59195484 L27.194075,2.59195484 Z" id="path3493"></path>
                            <path d="M30.6320829,3.7992507 L30.0965087,3.7992507 L30.0965087,2.41919193 C30.0965087,1.99392937 29.9348645,1.78129809 29.6100416,1.78129809 C29.4509551,1.78129809 29.3225605,1.83956724 29.2233233,1.95661667 C29.124086,2.0736661 29.0744674,2.21167198 29.0744674,2.36961204 L29.0744674,3.79873957 L28.5378701,3.79873957 L28.5378701,2.07826629 C28.5378701,1.86665728 28.5317317,1.63715862 28.5189434,1.38874804 L28.989553,1.38874804 L29.0146181,1.76545297 L29.0294525,1.76545297 C29.092371,1.64840354 29.1854699,1.55179943 29.3072145,1.47461836 C29.4530012,1.38465897 29.6151569,1.33916815 29.7936817,1.33916815 C30.0182443,1.33916815 30.2054651,1.41174902 30.354321,1.55742189 C30.5400071,1.73580726 30.6320829,2.00210749 30.6320829,2.35581145 L30.6320829,3.7992507 L30.6320829,3.7992507 Z" id="path3495"></path>
                            <path d="M34.2399196,1.79100961 L33.6496114,1.79100961 L33.6496114,2.96150391 C33.6496114,3.25898325 33.7544755,3.40772292 33.9621576,3.40772292 C34.0583256,3.40772292 34.1381247,3.39954479 34.2010431,3.38267741 L34.2148545,3.78902805 C34.1089673,3.82889641 33.9698306,3.84883059 33.7984673,3.84883059 C33.586693,3.84883059 33.4219796,3.78442785 33.3027926,3.65562236 C33.183094,3.52681688 33.1237563,3.31009654 33.1237563,3.00597247 L33.1237563,1.79100961 L32.7713106,1.79100961 L32.7713106,1.3897703 L33.1237563,1.3897703 L33.1237563,0.948151494 L33.6490999,0.789700301 L33.6490999,1.38925917 L34.239408,1.38925917 L34.239408,1.79100961 L34.2399196,1.79100961 Z" id="path3497"></path>
                            <path d="M37.0779002,3.7992507 L36.541303,3.7992507 L36.541303,2.42941458 C36.541303,1.9975073 36.3796588,1.78129809 36.0558589,1.78129809 C35.8072542,1.78129809 35.6374256,1.90652565 35.5443267,2.15698076 C35.5284692,2.20962744 35.5192616,2.27403019 35.5192616,2.34967785 L35.5192616,3.79873957 L34.9836874,3.79873957 L34.9836874,0.284189882 L35.5192616,0.284189882 L35.5192616,1.7363184 L35.5294923,1.7363184 C35.6982979,1.4720627 35.9402526,1.34019041 36.2538219,1.34019041 C36.4758268,1.34019041 36.6594669,1.41277128 36.8052536,1.55844415 C36.9868475,1.73989633 37.0779002,2.00977449 37.0779002,2.36654524 L37.0779002,3.7992507 Z" id="path3499"></path>
                            <path d="M40.005399,2.48052787 C40.005399,2.57662085 39.9982376,2.65737985 39.9854493,2.72331599 L38.3777036,2.72331599 C38.384865,2.96150391 38.4615949,3.14295608 38.6104507,3.26869477 C38.7465183,3.38114401 38.9219738,3.43736862 39.1368174,3.43736862 C39.3746798,3.43736862 39.5915695,3.39954479 39.7869748,3.32338599 L39.8708661,3.69549073 C39.6422112,3.79465051 39.3731452,3.8442304 39.0616221,3.8442304 C38.6882036,3.8442304 38.3940726,3.73433683 38.1812752,3.51454969 C37.9674547,3.29476255 37.8615676,2.99983888 37.8615676,2.62977867 C37.8615676,2.26636319 37.9602933,1.96377253 38.1592793,1.72251781 C38.3669614,1.46490684 38.6477926,1.33610135 39.0022844,1.33610135 C39.3491032,1.33610135 39.6125423,1.46490684 39.7905555,1.72251781 C39.9342961,1.92697096 40.005399,2.17998174 40.005399,2.48052787 L40.005399,2.48052787 Z M39.4938668,2.34201086 C39.4979591,2.18304853 39.4626634,2.04606492 39.3900258,1.93054889 C39.2969269,1.78180922 39.1552325,1.70718382 38.9634079,1.70718382 C38.7884639,1.70718382 38.6457464,1.77976469 38.5367901,1.92543756 C38.4477835,2.04146473 38.3950957,2.17998174 38.3777036,2.34201086 L39.4938668,2.34201086 L39.4938668,2.34201086 Z" id="path3501"></path>
                        </g>
                    </g>
                </g>
            </g>
        </g>
    </g>
</svg>