<?xml version="1.0" encoding="UTF-8" standalone="no"?>
<svg width="128px" height="128px" viewBox="0 0 128 128" version="1.1" xmlns="http://www.w3.org/2000/svg" xmlns:xlink="http://www.w3.org/1999/xlink">
    <!-- Generator: Sketch 41.2 (35397) - http://www.bohemiancoding.com/sketch -->
    <title>ip-lockout-disabled@2x</title>
    <desc>Created with Sketch.</desc>
    <defs>
        <circle id="path-1" cx="64" cy="64" r="64"></circle>
        <polygon id="path-3" points="0 0.0490348099 0 39.8865924 17.9289839 39.8865924 17.9289839 0.0490348099 1.34735804e-20 0.0490348099"></polygon>
        <polygon id="path-5" points="35.2243821 0.0109248292 0.212658583 0.0109248292 0.212658583 32.8571272 35.2243821 32.8571272 35.2243821 0.0109248292"></polygon>
    </defs>
    <g id="Security-Plugin" stroke="none" stroke-width="1" fill="none" fill-rule="evenodd">
        <g id="IP-Lockouts---Login-Projection---Disabled" transform="translate(-716.000000, -465.000000)">
            <g id="Login-Protection" transform="translate(390.000000, 374.000000)">
                <g id="ip-lockout-disabled" transform="translate(326.000000, 91.000000)">
                    <mask id="mask-2" fill="white">
                        <use xlink:href="#path-1"></use>
                    </mask>
                    <use id="Oval" fill="#F0F0F0" xlink:href="#path-1"></use>
                    <g id="defender" mask="url(#mask-2)">
                        <g transform="translate(2.000000, 8.000000)">
                            <path d="M41.0586221,107.002023 C41.0586221,107.002023 35.3948085,106.349264 31.2558105,120.712187 C27.1168124,135.075109 29.0775736,150.091038 28.2061794,151.1793 C27.3347852,152.267562 25.5919969,156.619865 25.3742726,157.708127 C25.2857911,158.148348 22.7121212,158.956786 19.5809678,161.368938 C24.3527581,160.744237 29.3611619,161.998854 33.2376979,164.855697 C34.040494,165.447127 34.8211697,166.136385 35.2103891,167.053822 C35.286195,167.233337 35.3450998,167.415831 35.3895891,167.601057 C35.9873367,164.440553 36.2664513,162.277934 36.2664513,162.277934 C36.2664513,162.277934 42.801659,161.18992 49.9902882,152.485066 C53.9115619,147.697259 68.5070416,138.122143 70.6852784,129.634544 C72.8637639,121.14769 41.0586221,107.002023 41.0586221,107.002023" id="Fill-11" fill="#A05621"></path>
                            <g id="Group-57" stroke-width="1" fill="none" transform="translate(0.000000, 79.938961)">
                                <mask id="mask-4" fill="white">
                                    <use xlink:href="#path-3"></use>
                                </mask>
                                <g id="Clip-56"></g>
                                <path d="M3.16418485,1.14810023 C3.16418485,1.14810023 -2.46110447,7.80802506 1.28892272,23.4173713 C2.51946252,29.3582437 2.53860039,32.0728155 2.24109359,33.2976378 C2.00597126,34.2649818 2.30894602,35.2824806 3.03295379,35.9660273 C4.35346641,37.2134442 6.07860816,38.699221 6.91421204,38.8186492 C8.37241786,39.0267175 11.9141654,40.0673075 12.5392528,39.8592392 C13.1640917,39.6509226 15.0391052,37.1536059 15.8724722,36.1130159 C16.7058392,35.072426 18.7891324,32.574861 17.5392062,31.3262027 C16.28928,30.0775444 12.7475324,28.4125011 12.7475324,28.4125011 C12.7475324,28.4125011 10.4557111,25.2904829 10.8725188,22.7931663 C11.2890781,20.2956014 15.455913,8.84886333 12.5392528,3.22952847 C9.62234408,-2.38980638 3.16418485,1.14810023 3.16418485,1.14810023" id="Fill-55" fill="#FF5A0C" mask="url(#mask-4)"></path>
                            </g>
                            <path d="M12.4144342,86.7664829 C12.5573468,89.6978132 11.7535565,92.5834579 11.4344264,95.5006355 C11.3195992,96.5486743 11.2666594,97.6083827 11.0235837,98.6345718 C10.7091759,99.9634282 10.0818517,101.2101 9.84871767,102.555841 C9.5758167,104.131499 9.87431767,105.799522 10.6771138,107.183251 C9.59097786,107.489642 8.44295456,107.488401 7.33469825,107.701435 C6.2261934,107.914469 5.08289243,108.408569 4.52018951,109.385845 C2.90763806,101.726795 4.14886524,93.7824579 3.79295068,85.9640046 C5.39481476,88.1156993 9.1030866,87.8053349 11.7033507,87.1394169" id="Fill-58" fill="#E53500"></path>
                            <path d="M2.01273165,78.7355665 C6.11941903,79.9531884 10.0523744,81.2683888 14.3109219,81.7321975 C14.4038773,82.932439 14.4968326,84.1329287 14.5900365,85.3334185 C14.6074346,85.5551428 14.6233414,85.7850608 14.5470384,85.993874 C14.4734695,86.1949902 14.3208637,86.3561314 14.1635355,86.5011337 C12.4741841,88.0564321 9.97681709,88.2796462 7.67977631,88.3131656 C6.83472777,88.3255802 5.97054136,88.3201178 5.17371029,88.0390517 C4.13927146,87.6743114 3.31808311,86.8817647 2.58562485,86.0656303 C1.74007922,85.1238604 1.44605204,85.2936918 1.18632388,84.0554617 C1.18632388,84.0554617 1.32128311,79.5896895 2.01273165,78.7355665" id="Fill-60" fill="#FFAD00"></path>
                            <path d="M25.2476893,43.0005 C25.2476893,43.0005 15.8723728,45.2899966 10.6641398,56.1125296 C5.45565825,66.9348144 13.9973592,71.9296959 17.9559146,73.1786025 C21.9142214,74.4272608 27.5392621,73.8030558 27.5392621,73.8030558 L25.2476893,43.0005 Z" id="Fill-64" fill="#98480B"></path>
                            <path d="M10.6641895,59.8586287 C10.6641895,59.8586287 1.91420893,66.1021686 1.91420893,81.5034465 C2.17716816,82.8166606 2.83382058,83.9434077 3.61002252,84.8705285 C5.31528078,86.9080091 8.26673709,87.376287 10.5657662,86.0424647 C11.8957235,85.2707745 13.46304,84.4563781 14.8310245,84.0007631 C17.9559643,82.9604214 25.0392109,77.9652916 26.4976652,70.0564601 C27.9558711,62.147877 10.6641895,59.8586287 10.6641895,59.8586287" id="Fill-66" fill="#98480B"></path>
                            <path d="M91.6542384,29.3522103 C91.8056016,28.6768572 92.5146967,28.1547 92.4428676,27.4664358 C92.3695472,26.7647638 91.902285,25.9856248 91.4377569,25.641741 C91.4290579,25.5605497 91.4345258,25.4818412 91.4452132,25.4038777 C91.265019,25.4083469 90.849454,25.4210098 90.5959394,25.4411214 C90.2658734,25.4674403 91.4255783,23.9729733 91.6766074,24.0124517 C91.728553,24.0206453 91.7606151,24.044233 91.7832326,24.0735314 C91.8796676,23.8205223 92.0220831,23.5732239 92.1120559,23.3167387 C92.6894229,21.6695724 90.3615627,20.3734904 90.3478928,18.6280007 C90.5812753,18.4946681 90.8052132,17.9975884 90.8052132,17.9975884 C90.672988,16.5267091 89.1019433,15.7202581 87.9156443,14.8395679 C84.8349452,12.5530508 83.3851899,8.28491868 79.8598462,6.76984351 C77.6502928,5.82037654 75.1121647,6.19355877 72.7706346,6.74228314 C69.886285,7.41887768 67.0586035,8.33780478 64.3276054,9.48640159 C63.3843821,9.88317153 62.4304715,10.3219027 61.7042268,11.0429415 C60.8537103,11.8868845 60.3931588,13.0404472 60.0282967,14.1810986 C58.5922113,18.6731897 58.3148365,23.5300212 59.23072,28.1559415 C55.4101064,30.4081943 51.5892443,32.6604472 47.7683821,34.9129483 L48.9889802,34.714315 C49.8317918,35.51729 51.0402113,35.765085 52.1375317,36.1544062 C54.6619899,37.0499938 56.7701375,38.8019392 58.9918695,40.2976476 C61.4745724,41.9686499 64.1541219,43.3479096 66.9576948,44.3969415 C67.6978579,44.6740349 68.4718229,44.9317615 69.260452,44.879372 C69.7973064,44.843618 70.312786,44.6655929 70.8208093,44.4893059 C72.0088482,44.0766453 73.196887,43.664233 74.3851744,43.2513241 C75.9691433,42.7016066 77.6753957,42.0567934 78.5562346,40.6311032 C79.5354967,39.0455132 79.3473491,36.7080964 80.8890656,35.659561 C81.4975006,35.245659 82.2570501,35.1379005 82.9870229,35.0410667 C85.2609491,34.7396408 87.5353724,34.4379665 89.8095472,34.1365405 C90.9265025,33.9885588 92.3096482,33.5932786 92.4687161,32.478946 C92.6235588,31.3919255 91.4138967,30.4230918 91.6542384,29.3522103" id="Fill-68" fill="#A05621"></path>
                            <path d="M84.588713,32.2669795 C80.612014,32.2669795 63.2139557,28.5426059 61.7226936,28.0460228 L59.1502664,27.7133121 C59.1771091,27.8610456 59.2014664,28.0090273 59.2307946,28.1557677 C55.410181,30.4082688 51.5893188,32.6605216 47.7682082,34.9127745 L48.9890548,34.7141412 C49.8316179,35.5173645 51.0402858,35.7651595 52.1376062,36.1542323 C54.6620645,37.0500683 56.7699635,38.8017654 58.9919441,40.2977221 C61.474647,41.9687244 64.1541965,43.3479841 66.9575208,44.3970159 C67.6979324,44.6741093 68.4716489,44.931836 69.2605266,44.8794465 C69.7971324,44.8434442 70.3128606,44.6656674 70.8206353,44.4893804 C72.0089227,44.0764715 73.1969616,43.6640592 74.3850004,43.2513986 C75.9689693,42.7014328 77.6754703,42.0568679 78.5563091,40.6311777 C79.5355713,39.0455877 79.3474237,36.7081708 80.8888917,35.6596355 C81.4973266,35.2457335 82.2571247,35.1379749 82.9870975,35.0411412 C85.2610237,34.7397153 87.5351984,34.438041 89.8096217,34.1363667 C90.548045,34.0387882 91.4003014,33.8312164 91.9406353,33.3810638 C91.9654897,31.7651822 87.8588023,32.2669795 84.588713,32.2669795" id="Fill-70" fill="#98480B"></path>
                            <path d="M90.7306998,25.4813943 C90.7306998,25.4813943 90.4138066,25.5422257 90.083492,25.5687929 C89.7531775,25.5951118 91.4258765,23.973023 91.6769056,24.0125014 C91.7283542,24.020695 91.7629017,24.0420481 91.7857678,24.0710982 C91.5402066,24.2233009 90.7306998,25.4813943 90.7306998,25.4813943" id="Fill-72" fill="#2F2F2F"></path>
                            <path d="M34.6226827,111.056872 C34.6226827,103.980811 28.5808342,92.117936 25.4558944,88.5797811 C22.3309546,85.0416262 15.0391798,67.975305 15.0391798,60.4831068 C15.0391798,52.9906604 16.0808264,44.2493073 29.2059216,36.9649292 C42.3312652,29.680551 54.4144652,33.2187059 64.2060924,35.5082025 C73.9979682,37.7974508 76.7063487,44.8735123 79.8315371,47.5793938 C82.9564769,50.2847788 89.8314439,56.1124303 86.2896963,71.3051433 C82.7481973,86.4983528 77.122908,92.9502093 75.2478944,92.742141 C73.3728808,92.5338244 69.8311332,95.2397059 69.2062944,98.5695442 C68.581207,101.899382 72.3314827,110.640736 72.3314827,110.640736 L34.6226827,111.056872 Z" id="Fill-74" fill="#A05621"></path>
                            <path d="M37.1974462,97.827351 C38.5492753,96.9593237 39.1176948,95.1880116 38.9061841,93.5969592 C38.6946734,92.0056585 37.8287472,90.5732645 36.8271161,89.3181506 C34.5054695,86.4094148 31.3740676,84.1839774 29.2940054,81.0979615 C28.107955,79.3380708 27.3021763,77.3519866 26.5955666,75.3512531 C25.2260909,71.4751733 24.1953802,67.4799137 23.5188443,63.4258089 C23.1124753,60.9915583 22.8333608,58.5049182 23.1614384,56.0587497 C23.6125452,52.6986198 25.1960171,49.5708909 27.2241336,46.8528431 C29.2520016,44.1350435 31.7222773,41.7822326 34.1791317,39.4440708 L33.8088016,39.6618226 C33.9288482,39.5468636 33.8851045,39.2809433 33.7213142,39.1885788 C33.5272016,39.0795788 33.2853685,39.1404103 33.0746035,39.2121665 C30.9182384,39.9471096 29.1558151,41.5217747 27.6123588,43.1960048 C24.3653841,46.7180207 21.8004132,50.8647383 20.0993802,55.3414353 C19.3882967,55.388859 19.0520171,54.4868157 18.9811821,53.7786882 C18.9103472,53.070064 18.7157375,52.1680207 18.0116132,52.0587724 C17.2503239,51.9405856 16.7997142,52.8903009 16.7112326,53.655039 C16.0660132,59.2346472 20.5333375,64.3037679 20.5099744,69.9208681 C20.5084831,70.3136654 20.4520637,70.7663009 20.1232404,70.981818 C19.668654,71.2795196 19.0880559,70.9140344 18.6426656,70.6029251 C18.1970268,70.2915674 17.4966307,70.0618977 17.1844598,70.5063396 C17.1648249,70.5336517 17.1494151,70.5622052 17.1352482,70.5917519 C19.5349375,78.0563897 23.3983006,86.2500116 25.4559938,88.5797314 C26.6338423,89.9133055 28.2262617,92.4307337 29.7533142,95.4278613 C30.6644753,96.3664034 31.6315588,97.2629843 32.8017025,97.8343032 C34.1781375,98.5064285 35.9087472,98.6549068 37.1974462,97.827351" id="Fill-76" fill="#98480B"></path>
                            <path d="M43.6867728,39.9317651 C38.8170563,42.1207036 34.622633,45.7825077 31.7986796,50.3101046 C29.6766136,53.7121957 28.3322408,58.0428973 29.9532427,61.7099155 C31.1591767,59.4283642 32.3651107,57.146813 33.5710447,54.86551 C34.5073087,53.0941979 35.4758835,51.2811729 36.9808155,49.9575305 C38.4857476,48.6338882 40.666967,47.8850408 42.538501,48.6043415 C42.9699728,48.7702002 43.4260505,49.0934759 43.4272932,49.5555465 C43.4285359,49.976649 43.053732,50.2892481 42.7167068,50.5425055 C40.9761553,51.8507538 39.3131495,53.3102116 38.0965282,55.1147948 C36.8794097,56.9196262 36.1347728,59.1093096 36.3723806,61.2721774 C37.1326757,60.5181159 37.4764117,59.4452481 38.1114408,58.5831797 C38.7464699,57.7213597 39.9663223,57.0695943 40.8702757,57.6438927 C41.6193864,58.1196194 41.733468,59.1793278 41.5473087,60.0461137 C41.3611495,60.9128995 40.9565204,61.7441797 40.9585087,62.6308289 C40.96,63.2758904 41.1787184,63.8998472 41.4272621,64.4952503 C43.5518136,69.5829929 47.9654524,73.40569 52.7568777,76.1403733 C57.5483029,78.875305 62.7987883,80.692551 67.8129087,82.9949588 C70.4295767,84.1964417 73.2423456,85.837649 73.9772893,88.6192595 C74.2303068,89.5761752 74.1689165,90.6912526 73.5085359,91.4294235 C73.162066,91.8175032 72.6863534,92.0635601 72.212132,92.2775875 C64.9934291,95.5391456 56.4363184,93.1391592 48.7520932,95.0673916 C48.4585631,95.1408859 48.1516117,95.2213323 47.8575845,95.1495761 C47.5232932,95.0678882 47.2680388,94.805444 47.0336621,94.5536763 C44.9548427,92.32228 42.9446214,89.9823802 41.5296621,87.2814645 C40.1147029,84.580797 39.3245825,81.4669724 39.8209243,78.4591683 C40.4266252,81.4190522 41.6347961,84.2545419 43.3504932,86.7421752 C44.5571728,88.4918859 46.0973981,90.4479269 45.528233,92.4948426 C45.0820971,94.1002959 43.3370718,95.1242503 41.6703379,95.0708677 C40.0036039,95.017485 38.4666097,94.0640453 37.3571107,92.8201046 C36.2473631,91.5764121 35.5037204,90.0566194 34.7961165,88.5479998 C31.8031534,82.1659132 29.1939417,75.5625989 27.7168466,68.671018 C27.0475184,65.54751 26.6140583,62.3033323 27.2195107,59.1666649 C27.6499883,56.9367583 28.5917204,54.8384462 29.638835,52.8228153 C32.6380117,47.0505328 37.0484194,41.4259838 43.3248932,39.6991159" id="Fill-78" fill="#98480B"></path>
                            <g id="Group-82" stroke-width="1" fill="none" transform="translate(52.691262, 0.237367)">
                                <mask id="mask-6" fill="white">
                                    <use xlink:href="#path-5"></use>
                                </mask>
                                <g id="Clip-81"></g>
                                <path d="M35.2243821,14.6021515 C35.2243821,14.6021515 32.8915511,15.3939533 31.4002889,24.3324499 C31.1517452,26.0704909 29.6604831,32.5260718 29.6604831,32.5260718 C29.6604831,32.5260718 16.7362113,33.2709465 11.2682501,32.5260718 C5.80028893,31.781197 2.56922097,30.043156 2.56922097,30.043156 C2.56922097,30.043156 -0.413303301,24.3324499 0.332327767,15.8905364 C1.07795883,7.44862301 2.81776466,5.710582 12.2624249,1.73791686 C21.707085,-2.23474829 26.9265025,1.48962528 29.1633957,4.46912415 C31.4002889,7.44862301 35.2243821,14.6021515 35.2243821,14.6021515" id="Fill-80" fill="#FF5A0C" mask="url(#mask-6)"></path>
                            </g>
                            <path d="M63.9595868,32.7635626 C69.427548,33.5084374 82.3518198,32.7635626 82.3518198,32.7635626 C82.3518198,32.7635626 83.8430819,26.3079818 84.0916256,24.5699408 C84.1453111,24.2486515 84.2002392,23.9407699 84.2556645,23.6400888 C78.2023829,23.8397153 66.1939946,20.5510934 65.4819169,19.6026196 C64.7362858,18.6094533 64.4566742,18.8592346 61.7226936,19.3558178 C59.8742742,19.6917563 55.5287363,19.2331617 52.9061033,18.900451 C52.9210159,25.7950114 55.2605577,30.2806469 55.2605577,30.2806469 C55.2605577,30.2806469 58.4916256,32.0186879 63.9595868,32.7635626" id="Fill-83" fill="#FFBD00"></path>
                            <path d="M81.8547324,4.70661503 C79.6747557,1.80259681 74.6591441,-1.8058246 65.661614,1.69161048 C70.5924722,0.658220957 75.7562159,0.250526196 78.1265771,2.22369932 C82.2683091,5.67172437 85.8620023,12.7150114 87.1695907,15.4767585 C87.618212,14.9426834 87.9157188,14.8396424 87.9157188,14.8396424 C87.9157188,14.8396424 84.0916256,7.6861139 81.8547324,4.70661503" id="Fill-85" fill="#FFBD00"></path>
                            <path d="M82.578765,9.13827198 C82.578765,9.13827198 75.2139184,10.9145499 73.1012971,10.9145499 C74.0954718,12.031862 78.9229359,14.1473062 83.3967223,13.8990146 C83.0768466,13.6678551 82.9523262,13.3659326 82.9523262,13.3659326 C82.9523262,13.3659326 83.0758524,10.7521672 82.578765,9.13827198" id="Fill-87" fill="#1F191A"></path>
                            <path d="M90.9906517,29.6087451 C91.111941,29.5590868 91.2198089,29.4816198 91.3376186,29.4245128 C91.4395216,29.3751027 91.5491293,29.343818 91.660974,29.3269342 C91.7146594,29.109679 91.8242672,28.907818 91.9455565,28.7109228 C91.3443293,28.4720663 90.6310089,28.5261938 90.0802361,28.8680913 C90.0223254,28.9038453 89.9636691,28.9455583 89.934341,29.0068863 C89.8853779,29.1091825 89.9326012,29.2318385 89.9987138,29.3239547 C90.2149468,29.6251323 90.6474128,29.7492781 90.9906517,29.6087451" id="Fill-89" fill="#98480B"></path>
                            <path d="M89.5603076,25.6222749 C89.386327,25.7012317 89.1961911,25.9224595 89.4653639,25.9383501 C90.0824979,25.6222749 91.4378066,25.6416417 91.4378066,25.6416417 C91.4291076,25.5606986 91.4345755,25.4819902 91.4452629,25.4037784 C91.2648202,25.4084959 90.3367581,25.5482841 90.0832435,25.568644 C89.7531775,25.5952112 91.425628,23.972874 91.6766571,24.0126007 C91.7286027,24.0207943 91.7606649,24.0446303 91.7832823,24.0736804 C91.8797173,23.8206713 92.0221328,23.5731246 92.1121056,23.3168877 C92.1697678,23.1515255 92.2000901,22.9792112 92.2090377,22.801931 C91.579725,23.0072681 89.7181328,25.5505187 89.5603076,25.6222749" id="Fill-91" fill="#98480B"></path>
                            <path d="M90.6707511,20.0182597 C90.4833491,19.5333462 90.3513724,19.0635786 90.3478928,18.6278269 C90.5812753,18.4947426 90.8052132,17.9974146 90.8052132,17.9974146 C90.8039705,17.9847517 90.8007394,17.9728337 90.7994967,17.9601708 C90.4798695,17.8193895 89.9802967,17.6987198 89.5443511,18.0294442 C89.0629219,18.3949294 88.8663239,18.6504214 88.4425569,18.9324806 C88.0187899,19.2147882 87.3974307,19.1020638 87.7364443,19.4968474 C88.0757064,19.8921276 90.1659588,20.3437699 90.3635511,20.3437699 C90.4488016,20.3437699 90.5653685,20.1913189 90.6707511,20.0182597" id="Fill-93" fill="#98480B"></path>
                            <path d="M29.970268,97.3281112 L33.5748971,109.706191 C33.5748971,109.706191 44.3885359,97.3281112 75.0270136,100.028779 C75.928233,96.8782068 76.1534136,92.8270815 76.1534136,92.8270815 C76.1534136,92.8270815 55.877965,82.2496123 29.970268,97.3281112" id="Fill-95" fill="#FFBD00"></path>
                            <path d="M86.5105522,18.3992745 C86.5105522,18.3992745 85.7917639,21.2265706 86.6904979,24.4575888 C87.0946299,26.2077961 86.5105522,27.7337961 86.6455115,28.6311219 C87.0946299,28.8555774 87.3642998,28.6311219 87.1393678,27.5989738 C86.9149328,26.567074 87.274327,25.2205888 87.1393678,23.6049556 C87.0046571,21.9895706 86.2411309,20.2843041 86.5105522,18.3992745" id="Fill-97" fill="#98480B"></path>
                            <path d="M30.6520482,98.9252715 C30.6520482,98.9252715 28.9940132,98.4885267 28.6917841,97.6383763 C28.0758928,95.9038114 29.7001258,95.1765654 30.0359083,94.6730301 C30.372188,94.1694948 42.5813996,84.3224993 65.543854,87.2878456 C77.7533142,89.5815631 78.7052365,90.1412123 78.7052365,90.1412123 C78.7052365,90.1412123 78.8735006,93.218538 76.9691588,92.9387134 C75.0648171,92.6588888 54.6787666,87.3437112 41.5733064,92.4910437 C35.020452,94.8967408 30.6520482,98.9252715 30.6520482,98.9252715" id="Fill-99" fill="#FFBD00"></path>
                            <path d="M65.5438043,87.2878207 C64.1857616,87.1122786 62.8664917,86.983167 61.5837577,86.8927888 C61.5422509,86.8994927 61.5007441,86.9054517 61.4592373,86.9114107 C61.7830897,87.2612535 62.0646897,87.6428777 62.2026315,88.0940235 C62.4119052,88.7790599 62.1534198,89.6632262 61.4751441,89.8948822 C61.2663674,89.9661419 61.028014,89.9753287 60.8552761,90.1126339 C60.6213965,90.2988526 60.5997732,90.6402535 60.6044955,90.9389483 C60.6308412,92.7167159 60.8828645,94.4912558 61.3523635,96.2059574 C62.3057771,96.0833014 63.1804023,96.886028 63.4771635,97.7992444 C63.7736761,98.7127091 63.6344917,99.7028959 63.4928217,100.652363 C66.3955635,100.497677 69.2978082,100.342992 72.2003014,100.188554 C72.5248994,96.4063287 73.5695285,92.7427866 74.7963402,89.1373446 C72.8380645,88.7068071 69.9114625,88.1084244 65.5438043,87.2878207" id="Fill-101" fill="#FFAD00"></path>
                            <path d="M31.0845887,98.6815733 C33.2088917,97.0465733 41.3852334,92.2935278 47.1723247,91.1372339 C57.8181965,89.0103683 63.1352917,89.1993182 71.1590276,91.5419492 L69.3943674,89.3450654 C69.3943674,89.3450654 57.4150586,87.2350836 46.4199829,90.2125961 C35.4249072,93.1896121 31.0845887,98.6815733 31.0845887,98.6815733" id="Fill-103" fill="#FFAD00"></path>
                            <path id="Fill-105" fill="#FFAD00"></path>
                            <path d="M33.8445421,106.636115 C33.7125654,106.739901 31.7162625,108.874215 33.2284023,110.664646 C34.7405421,112.454828 36.0287441,111.671468 36.0287441,111.671468 C36.0287441,111.671468 55.5749654,102.831544 62.40768,102.607585 C69.240146,102.383874 74.7849072,101.768607 74.7849072,101.768607 C74.7849072,101.768607 76.7449227,101.209206 76.6330781,99.5863727 C76.5209849,97.9640355 73.8329849,97.4043863 73.8329849,97.4043863 C73.8329849,97.4043863 50.7584373,93.3202383 33.8445421,106.636115" id="Fill-107" fill="#FFBD00"></path>
                            <path d="M35.6256062,115.941239 L33.8858004,108.989075 C33.8858004,108.989075 39.8508489,99.802287 61.2256062,99.3057039 C77.1324023,98.8091207 78.1469577,99.7578428 78.1469577,99.7578428 L77.6294897,107.747617 L35.6256062,115.941239 Z" id="Fill-109" fill="#292324"></path>
                            <path d="M34.6226827,111.056872 C34.6226827,111.056872 31.1517701,123.390011 40.0993429,132.825091 C49.0469157,142.260171 68.1847798,144.494795 76.3867216,143.501628 C84.5886633,142.508462 104.223615,143.501628 108.945945,144.991378 C113.668275,146.481127 120.876042,144.991378 120.876042,144.246503 C120.876042,143.501628 126.095459,136.052881 124.355654,133.818257 C122.615848,131.583633 119.633323,125.376344 118.887692,124.134886 C118.142061,122.893428 89.0624497,99.5540203 62.468275,98.8091456 C35.8741002,98.0642708 34.6226827,111.056872 34.6226827,111.056872" id="Fill-111" fill="#A05621"></path>
                            <path d="M114.165412,150.577913 C113.026088,153.578765 120.86441,152.094478 124.082057,150.366866 C124.145684,150.249672 124.205334,150.127513 124.256037,149.993932 C125.031991,147.951982 124.283377,145.542312 123.946103,143.489686 C123.830282,142.786276 123.964496,141.843016 123.562352,141.227749 C123.072721,140.478405 121.96695,140.045882 121.324713,139.414724 C119.35227,137.477057 118.426694,135.313692 118.534064,132.534068 C118.587501,131.156795 118.872581,129.575923 118.187843,128.298959 C117.54834,127.106166 116.054344,126.579292 114.859595,127.291888 C113.853241,127.892257 113.39269,128.893369 112.078639,128.940296 C110.690771,128.989706 109.266367,128.542036 107.952068,128.138563 C105.541195,127.398902 103.169839,126.379665 100.719198,125.790469 C98.0324412,125.144415 95.286779,125.149877 92.5465849,125.138952 C89.5598353,125.127034 86.7667014,124.779426 83.9554237,123.716241 C82.5031829,123.167021 81.1205344,122.46808 79.6889227,121.871435 C78.4280606,121.34605 77.107548,120.990745 75.8372412,120.492424 C74.5209538,119.975977 73.2362315,119.326943 71.9388334,118.759597 C70.6861732,118.212114 69.4747713,117.612738 68.4542509,116.687604 C68.3168062,116.562961 68.1537616,116.566437 68.025513,116.634966 C67.5649616,116.388412 67.1215596,116.170661 66.5285344,116.180592 C65.5597111,116.196979 64.4022431,116.396109 63.5291091,116.816964 C61.6431596,117.725959 60.2381421,120.43333 59.3602858,122.212339 C56.9250548,127.148376 55.8274858,132.953681 55.8692412,138.417834 C55.876946,139.383191 55.8468722,140.387034 55.8687441,141.390132 C63.6600917,143.594961 71.7621188,144.061749 76.3867713,143.501604 C84.557148,142.51241 104.071556,143.494155 108.889078,144.974469 C108.889078,144.974469 115.532402,146.977686 114.165412,150.577913" id="Fill-113" fill="#98480B"></path>
                            <path d="M29.7802066,126.703859 C29.7802066,126.703859 41.0936668,129.597201 53.5208513,138.039115 C57.0004629,120.906996 46.3130843,103.526586 46.3130843,103.526586 C46.3130843,103.526586 32.4286882,105.167049 29.7802066,126.703859" id="Fill-115" fill="#1F191A"></path>
                            <path d="M78.5933173,101.646522 C73.2854183,100.027413 67.8266532,98.9592626 62.4682998,98.8090462 C35.874125,98.0641715 34.6227076,111.056773 34.6227076,111.056773 C34.6227076,111.056773 31.151795,123.389912 40.0993678,132.824992 C45.2906998,138.299076 53.9114377,141.348841 61.8372474,142.75144 C65.834327,137.833529 68.7706221,132.058019 70.3784513,125.930183 C71.6669017,121.019721 72.1115464,115.910128 73.5491231,111.041627 C74.5606959,107.6157 76.179461,104.222051 78.5933173,101.646522" id="Fill-117" fill="#292324"></path>
                            <path d="M40.4559534,70.8891804 C35.9804272,68.5765927 27.5391379,54.2392442 44.8313165,41.1274629 C62.1229981,28.0156815 77.539666,48.6199093 78.7895922,52.3658843 C80.039767,56.1123558 84.6231612,67.9754788 73.9979184,75.2598569 C63.3729243,82.5439868 52.5394019,77.1327203 40.4559534,70.8891804" id="Fill-119" fill="#A05621"></path>
                            <path d="M83.5399083,66.1165943 C82.9615472,65.2431046 82.2015006,64.3631592 81.3480016,63.7501273 C80.4507588,63.1058107 79.575388,62.6025237 78.8049025,61.7752162 C77.8668986,60.767649 77.761019,59.2289861 77.5144637,57.9314144 C77.2994734,56.8024326 75.6081336,53.2905966 75.502254,54.3006467 C75.3914035,55.3611 75.0499045,56.3731364 74.6271317,57.3481774 C73.8591317,59.1182481 72.9333064,60.8235146 71.801687,62.3879998 C70.6332831,64.003633 69.2792171,65.4834508 67.8401491,66.8617173 C67.2752093,67.4029929 66.6936171,67.9303642 66.098852,68.4403551 C64.9060909,68.9322207 63.8385957,69.6130362 63.2763899,70.8840408 C62.7241258,72.1324508 62.9050656,74.0991683 63.7163122,75.1998449 C66.1160016,78.4549474 71.1716287,79.9312891 74.9007783,80.8276216 C76.0445763,81.1024804 77.2017957,81.3187424 78.3669685,81.4806285 C79.100421,81.5826763 80.027986,81.843879 80.7490113,81.5441911 C81.1382307,81.3820567 81.3609258,81.067223 81.5925685,80.7315328 C82.1736637,79.8880863 82.763955,79.0262663 83.2543317,78.1262093 C84.277586,76.2476353 84.7744249,74.2585715 84.7311783,72.1294713 C84.6891744,70.058223 84.7306812,67.9142253 83.5399083,66.1165943" id="Fill-121" fill="#98480B"></path>
                            <path d="M73.1646757,74.635354 C78.5814369,69.2240875 80.6647301,55.0717162 63.7896078,46.9550647 C46.9144854,38.8379166 36.0809631,59.0260077 36.2894913,63.3966843 C36.4977709,67.7673608 42.5393709,75.051739 48.9977786,78.7979622 C55.4561864,82.5441854 73.1646757,74.635354 73.1646757,74.635354" id="Fill-123" fill="#A05621"></path>
                            <path d="M40.8173608,60.0307692 C40.7621841,60.286013 40.6717142,60.5350494 40.5489336,60.7652157 C40.3247472,61.1843319 40.0016404,61.5629765 39.6733142,61.9036326 C39.3154113,62.2753251 38.8561025,62.7239879 38.3483278,62.8771838 C37.4329414,63.1540289 36.9574773,62.2544686 36.9164676,61.4529834 C36.88192,60.7820995 37.0417336,60.2716121 37.3621064,59.7924093 C37.0735472,60.505751 36.875955,61.4159879 37.584553,61.754161 C38.679885,62.2773114 39.6927006,60.8598148 39.7886384,59.9515642 C39.8390928,59.475341 39.0932132,59.4788171 39.0430074,59.9515642 C38.8692753,61.5910335 37.9526462,60.7840859 38.0274579,60.1765164 C38.0533064,59.9681998 38.2193336,59.6866371 38.31552,59.5078672 C38.7711006,58.6592066 39.5674346,58.3220267 40.3970734,58.8176166 C40.9416326,59.1431269 40.9446151,59.4398353 40.8173608,60.0307692 M40.6155433,57.8728672 C40.2345258,57.7497146 39.8599705,57.7216576 39.5077841,57.7735506 C39.7707433,57.6389765 40.0354423,57.562751 40.2857258,57.5927943 C40.7611899,57.6494048 40.7572132,56.9040335 40.2857258,56.8479196 C38.9319083,56.6857852 37.0906967,58.6011064 36.5048792,59.7007897 C35.9938734,60.6604367 35.9864171,62.2519856 36.7076909,63.1249788 C38.2722734,65.0186986 41.0057569,62.0089082 41.4648171,60.505751 C41.7538734,59.5602567 41.7223083,58.2299105 40.6155433,57.8728672" id="Fill-125" fill="#98480B"></path>
                            <path d="M89.6231643,75.4677763 C87.1230633,73.8029813 75.0396148,65.6860815 73.1646012,63.6049016 C71.2895876,61.5234733 60.872873,51.7415303 48.9977041,55.0716169 C37.1227837,58.4017034 40.0394439,73.178528 46.2893235,78.3814779 C52.5394517,83.5846761 63.1646944,83.5846761 66.4979138,86.2903093 C69.8311332,88.9956943 89.6231643,75.4677763 89.6231643,75.4677763" id="Fill-127" fill="#FF5A0C"></path>
                            <path d="M52.5496419,81.7965298 C50.3835837,80.1483704 43.2966089,74.9898647 43.7516924,68.1687986 C44.2067759,61.3482292 50.77504,53.7390856 63.1298983,56.4673134 C61.6426128,55.6588761 60.423506,54.9631631 59.4606478,54.3960651 C57.3291371,53.1404547 54.8039332,52.7322633 52.3885856,53.2670834 C47.8770206,54.2652155 41.3025429,56.8720287 40.5004924,63.6218351 C39.2647332,74.0153203 45.1460225,79.3530925 52.5496419,81.7965298" id="Fill-131" fill="#FFBD00"></path>
                            <path d="M90.6607845,24.9307333 C90.6607845,24.9307333 91.5006136,24.1441456 91.5443573,24.1704645 C91.5878524,24.1967834 91.4394718,25.184239 91.4394718,25.184239 L90.3809243,25.289018 C90.3809243,25.289018 90.4070214,25.184239 90.6607845,24.9307333" id="Fill-133" fill="#F3F3F3"></path>
                            <path d="M15.1083744,112.600451 C14.5725142,114.797087 13.7607705,116.872804 12.6592249,118.84846 C12.4253452,119.267577 13.0690734,119.64349 13.3027045,119.224374 C14.4338268,117.19608 15.2771355,115.054317 15.8274113,112.798588 C15.9409957,112.333041 15.2219588,112.13416 15.1083744,112.600451" id="Fill-135" fill="#98480B"></path>
                            <path d="M13.1241507,112.121323 C13.6841196,112.251924 14.2522905,112.330881 14.826675,112.35869 C15.3061157,112.382029 15.304873,111.637154 14.826675,111.613815 C14.3171604,111.588986 13.8190788,111.518968 13.3224885,111.403015 C12.8557235,111.294264 12.6563915,112.012571 13.1241507,112.121323" id="Fill-137" fill="#98480B"></path>
                            <path d="M17.9212427,112.088598 C17.7753476,111.793628 17.5223301,111.545585 17.1266485,111.367559 C16.9730485,111.298286 16.8008078,111.300272 16.6745476,111.42566 C16.0934524,112.004676 15.4750757,112.546696 14.882299,113.116277 C14.7985398,113.097407 14.7070757,113.101379 14.6205825,113.140113 C14.2037748,113.327325 13.7954175,113.194241 13.4367689,113.505102 C13.4153942,113.523227 13.3965049,113.54458 13.3768699,113.565188 C13.3788583,113.519254 13.3771184,113.473569 13.3661825,113.429869 C13.1842485,112.70312 12.0608311,112.953398 11.591332,113.202434 C10.925235,113.55625 10.6488544,114.269591 10.2380117,114.858042 C9.8400932,115.30745 9.42502524,115.745188 9.01840777,116.178209 C8.43085049,116.803407 7.81943301,117.409735 7.21099806,118.014325 C7.04,118.184653 6.82923495,118.351505 6.63263689,118.53102 C6.56105631,118.561063 6.51010485,118.590361 6.48798447,118.617425 C6.64605825,118.68943 6.79071068,118.739833 6.91423689,118.757462 C8.37244272,118.96553 11.9141903,120.006368 12.5392777,119.7983 C13.1641165,119.589983 15.0391301,117.092418 15.8724971,116.052077 C16.5485359,115.207885 18.0462602,113.406033 17.9212427,112.088598" id="Fill-139" fill="#E53500"></path>
                            <path d="M13.7018159,108.32857 C12.9079674,109.10175 11.5640917,109.096287 10.5172256,109.218944 C9.68882951,109.316026 8.80823922,109.468725 7.97338097,109.436695 C7.85283728,109.431978 7.70371107,109.5087 7.65126835,109.621176 C7.4780334,109.993117 7.44124893,110.407267 7.20935767,110.760338 C6.93919068,111.172253 6.42868194,111.475169 6.03324893,111.754249 C5.63607612,112.034322 5.1444567,112.279882 5.00651495,112.771996 C4.92176155,113.073174 5.19789359,113.260634 5.43624699,113.227363 C5.46308971,113.235556 5.49167223,113.241019 5.52249165,113.243253 C6.54475184,113.322458 7.09651883,113.679253 7.68482175,114.508795 C7.8995635,114.811711 7.9149732,115.019283 7.94032466,114.638404 C7.96940427,114.20439 8.87584311,113.209486 9.12662369,112.922957 C8.94966058,112.943069 8.97724893,112.859891 8.67775379,112.813461 C7.90329165,112.693536 8.09541592,111.738606 8.4980567,111.299379 C8.78835573,110.982559 9.06249942,110.947301 9.49894214,110.885973 C10.6810159,110.720114 11.7920062,110.957233 12.8833616,111.405399 C13.0951208,111.492301 13.3787091,111.269832 13.3550975,111.046121 C13.2668645,110.209627 14.1024683,109.472201 14.3251635,108.690827 C14.4280606,108.32857 13.9655208,108.071836 13.7018159,108.32857" id="Fill-141" fill="#E53500"></path>
                            <path d="M9.61856621,108.100167 C10.9892847,107.352809 12.4514672,106.773296 13.9626128,106.378761 C14.2384963,106.306508 14.5347604,106.241456 14.8036847,106.336055 C15.02464,106.413522 15.195141,106.588567 15.3544575,106.760137 C16.1378672,107.60557 16.8544186,108.513075 17.4944186,109.471233 C17.6266439,109.668873 17.7606089,109.890349 17.7330206,110.125977 C17.7131371,110.295312 17.6122283,110.442797 17.5145507,110.582337 C16.7520186,111.670351 15.9897351,112.758613 15.2272031,113.846627 C15.1044225,114.021921 14.9669779,114.208387 14.7619293,114.271702 C14.5802439,114.328312 14.3843915,114.274681 14.202706,114.217078 C13.6158944,114.030611 13.0119332,113.775119 12.6495565,113.277791 C12.1927332,112.650358 12.2325002,111.781089 12.4765701,111.044408 C12.7323216,110.272221 13.1921274,109.568066 13.7963371,109.022818 C12.905308,108.683652 12.0455953,108.262301 11.2313662,107.766711 C11.1426361,107.712335 11.0464497,107.647034 11.0243293,107.545483" id="Fill-143" fill="#FF5A0C"></path>
                            <path d="M14.7974462,114.44131 C14.4658889,114.515052 14.0326773,114.324364 13.7297025,114.165954 C13.4021219,113.994385 13.2075122,113.583462 13.2756132,113.207797 C13.3181142,112.972665 13.4488482,112.76708 13.5768482,112.568446 C14.3130346,111.42556 15.2346346,110.458713 16.0056171,109.34885 C16.1542462,109.135071 16.4338579,109.057852 16.667986,109.172066 C16.9023627,109.28628 17.0765918,109.423834 17.3037608,109.69621 C17.3141996,109.708624 17.3251355,109.722032 17.3281181,109.738667 C17.3320948,109.760021 17.7426889,110.194034 17.7327472,110.213401 C16.9741918,111.682046 15.9839938,112.87161 15.0569258,114.230759" id="Fill-145" fill="#E53500"></path>
                            <path d="M70.378501,125.930133 C71.0182524,123.491165 71.4502214,121.002787 71.8988427,118.519375 C66.6237515,116.64527 61.2825476,114.956142 55.888901,113.456213 C51.4210796,112.213514 46.8483728,111.092477 42.2120388,111.212402 C40.4051262,111.258833 38.5465165,111.51358 36.9901359,112.431762 C35.4337553,113.349696 34.4321243,115.532675 34.553165,117.334279 C34.553165,117.334279 34.4999767,126.920568 40.0994175,132.82519 C45.2907495,138.299026 53.9114874,141.34904 61.8372971,142.751391 C65.8343767,137.833479 68.7706718,132.058218 70.378501,125.930133" id="Fill-147" fill="#1F191A"></path>
                            <path d="M33.717586,105.630832 C33.717586,105.630832 38.9375006,98.6811513 51.6283899,97.3639645 C60.7285685,96.419215 65.1116365,96.4678802 65.1116365,96.4678802 C65.1116365,96.4678802 55.1584559,94.9935248 43.468452,98.4912082 C37.2764831,100.427882 33.717586,105.515128 33.717586,105.515128" id="Fill-149" fill="#FAD400"></path>
                            <path d="M45.9962408,78.4111487 C45.9164583,77.2848982 45.8366757,76.1583993 45.7568932,75.0321487 C45.1124194,74.0369961 44.5686058,72.959659 44.2072233,71.8120554 C42.9553087,70.6694175 41.7033942,69.5267797 40.4512311,68.3841419 C40.9455845,72.8459415 43.0380738,76.0938435 45.9962408,78.4111487" id="Fill-151" fill="#FFAD00"></path>
                            <path d="M56.2714843,83.0091362 C56.9940008,83.2025554 59.859461,83.8627626 60.5645794,84.0402911 C60.821325,84.1048469 61.0735969,84.1694027 61.321395,84.2339585 C63.551826,84.8144642 65.411927,85.4088743 66.4978144,86.2903093 C66.5775969,86.3551134 66.6698066,86.4077513 66.7677328,86.4541818 C67.3190027,86.5728651 67.8774804,86.6282342 68.4314843,86.6039016 C69.0535891,86.5251932 69.7751115,86.3426989 70.5669717,86.0800064 C70.6474998,86.0529426 70.7270338,86.0263754 70.8085561,85.9978219 C70.8547852,85.9821795 70.9010144,85.9657923 70.9477406,85.949405 C71.1239581,85.8870838 71.3024124,85.8222797 71.4848435,85.7530064 C71.638692,85.693913 71.7945289,85.6330815 71.9526027,85.5697672 C72.0385988,85.5002456 72.1745522,85.4592774 72.3221872,85.4188059 C72.5192823,85.3368697 72.7183658,85.2522023 72.9206804,85.1638105 C73.083725,85.0927991 73.2480124,85.0198014 73.4135425,84.9448173 C73.424727,84.9396032 73.43616,84.9343891 73.4470959,84.9294232 C73.6004474,84.8601499 73.7542959,84.7893868 73.9096357,84.7168856 C73.9325017,84.7062091 73.9551192,84.6952843 73.9779852,84.6846077 C74.1092163,84.6232797 74.2406959,84.5612068 74.3729212,84.4976442 C74.6470649,84.1599677 75.1441522,83.9116761 75.4250066,83.6894551 C75.5450532,83.6040428 75.666094,83.519872 75.788626,83.4376875 C75.9884551,83.3033617 76.1910183,83.1730087 76.3955697,83.0461317 C76.5998726,82.9192547 76.806661,82.7958538 77.0151891,82.6749358 C79.1004707,81.4660041 81.3582416,80.5160405 83.1455192,78.9076077 C83.5235542,78.5674483 83.8585911,77.9035166 83.4301017,77.6284096 C83.2337522,77.5022774 84.4946144,75.6435667 84.267694,75.6989358 C82.072059,76.2332592 80.4985289,75.9430064 78.302894,76.4773298 C78.1430804,76.5165599 77.9231192,76.6315189 77.6631425,76.797626 C76.7765872,77.623692 75.711826,78.1604984 74.6450765,78.7045052 C74.4313289,78.8135052 74.2180784,78.9222569 74.0060707,79.0339882 C72.750428,80.0239267 71.5318183,80.7774916 70.1884396,81.1591157 C69.9645017,81.2226784 69.7373328,81.276061 69.5056901,81.3172774 C68.3482221,81.0004574 67.2101406,80.7179016 66.0648513,80.5458355 C65.835694,80.511323 65.6067852,80.4810314 65.3788707,80.4502433 C63.2140551,79.9390109 61.2257056,78.9458446 58.855593,79.1102137 C58.5978532,79.0339882 58.3510493,78.9398856 58.1049911,78.8450383 C53.4281445,77.0364825 48.9061406,74.8284255 44.6065833,72.2499175 L44.4047658,72.0043572 C44.4992124,73.3086328 44.6339231,74.6096806 44.8074066,75.9057626 C44.8325095,76.0909882 44.857861,76.2759654 44.8844551,76.4609426 C44.9366493,76.8266761 45.054459,77.1802433 45.2229717,77.508733 C45.3074765,77.6735986 45.4039115,77.8317604 45.5097911,77.9839631 C45.6504668,78.1863207 45.856261,78.2126396 45.9961911,78.4110246 C46.163461,78.6483913 48.5914843,80.9527854 56.2714843,83.0091362" id="Fill-153" fill="#E53500"></path>
                            <path d="M84.6906408,84.0612221 C85.3298951,85.3493588 85.8615301,86.691623 86.2773437,88.0683998 C86.5664,89.0245706 86.8084816,90.0177369 87.3662136,90.847279 C87.792466,91.4819123 88.3825087,91.9874339 88.9847301,92.4586913 C91.6168078,94.5185182 94.804132,96.1244681 98.1455534,96.0023087 C98.7328621,95.9807073 99.346268,95.8955433 99.8237204,95.5531492 C100.666781,94.9493041 100.819386,93.7652016 100.775394,92.7295774 C100.693126,90.7904203 100.188334,88.8964522 99.6651495,87.0270649 C99.0758524,84.9230421 98.4343612,82.7760649 97.1247845,81.0263542 C96.1927456,79.781172 94.9567379,78.7894954 93.6349825,77.9681469 C92.4136388,77.2091196 91.0628039,76.5729966 89.6257243,76.5094339 C88.1888932,76.445623 86.6533903,77.0593998 85.9413126,78.3075615 C85.5287301,79.0305866 85.4027184,79.9236913 84.8330563,80.5310125" id="Fill-155" fill="#E53500"></path>
                            <path d="M93.5976761,72.5721752 C92.5550353,71.8553574 91.4420567,71.2408358 90.2796179,70.7397834 C89.8874159,70.5706968 89.4748334,70.4120385 89.0475868,70.4289223 C88.6347557,70.4453096 88.2472761,70.6248244 87.8841538,70.8219679 C86.4065616,71.6251911 85.1248217,72.7842162 84.1786159,74.1729109 C83.8323946,74.6806672 83.5159984,75.2341091 83.0099635,75.5834554 C81.8835635,76.3613528 80.3299169,75.8419269 78.9974742,76.1575055 C78.6092489,76.2496216 78.2222664,76.4273984 77.9856528,76.7481911 C77.7977538,77.0031866 77.722445,77.3209998 77.6516101,77.6293779 C77.3603169,78.8971547 77.0692722,80.1646831 76.777979,81.4324599 C75.2710586,81.3847879 73.7591674,81.4910567 72.2733732,81.7487834 C71.9987324,81.7964554 71.7124101,81.8548039 71.4951829,82.0296011 C71.2531014,82.2240134 71.1350431,82.531895 71.0512839,82.830838 C70.6986004,84.0911661 70.7229577,85.5491342 69.8346625,86.5105191 C69.0234159,87.3882298 67.6673616,87.583387 66.8397111,88.4462002 C65.8005499,89.5292481 65.9327751,91.2441979 66.1467713,92.7292298 C66.4701266,94.9742822 66.8225616,97.215362 67.2050703,99.4512276 C67.2880839,99.9358927 67.3790509,100.437442 67.6599052,100.841164 C67.9698392,101.286599 68.4696606,101.555002 68.9508412,101.80677 C70.4010936,102.566294 71.851346,103.325569 73.3013499,104.085093 C74.0462353,104.474911 74.8408295,104.87615 75.6796645,104.816064 C76.5565266,104.753246 77.323781,104.189376 77.9036334,103.529168 C78.6524955,102.676535 79.1856217,101.584549 79.1607674,100.450105 C79.135913,99.3161569 78.4663363,98.1648289 77.4013266,97.7715351 C79.2862819,98.4622822 81.4220179,98.445895 83.2960373,97.7260977 C83.6087052,97.6059246 83.9246043,97.4594326 84.1428256,97.2056786 C84.3747169,96.9357856 84.4696606,96.5735282 84.5054509,96.2194645 C84.6553227,94.7393984 83.7908878,93.2101706 82.4450237,92.5737993 C83.7819402,92.2733665 85.0276412,93.4443096 86.3971169,93.4922298 C87.0890625,93.5165624 87.7549111,93.2503938 88.3919285,92.9792595 C89.2143596,92.6291683 90.049715,92.2487856 90.6822586,91.6176285 C91.3145538,90.986223 91.7122237,90.0454462 91.4666625,89.1866057 C91.2767751,88.5229223 90.7513538,88.0206285 90.3360373,87.4689246 C88.7045965,85.3020841 88.7632528,82.3466695 88.8932412,79.6385533 C90.2184761,81.3681524 91.281746,83.2978745 92.0348334,85.342059 C92.4794781,86.548756 92.854779,87.8557629 93.8004878,88.7282595 C94.9408062,89.7800226 96.6214586,89.9404189 98.1716256,90.017141 C99.7369538,90.0943597 101.454142,90.0941114 102.673995,89.1108768 C103.720363,88.2676786 104.158546,86.8653278 104.239323,85.5248016 C104.288286,84.7131364 104.224162,83.8840909 103.94107,83.1215875 C103.467595,81.8451205 102.434896,80.8705761 101.435501,79.9446968 C98.691579,77.4024394 95.9474082,74.8604303 93.2034858,72.3181729" id="Fill-157" fill="#FF5A0C"></path>
                            <path d="M76.06784,96.6724476 C75.8220303,96.4993884 75.5769662,96.3223565 75.3323992,96.1450763 C74.9270245,95.6112494 74.5107138,95.0898371 73.9502478,94.648623 C73.394007,94.2103884 72.8357779,93.7969829 72.3115992,93.3200148 C72.0685235,93.0990353 71.9246167,92.9237415 71.8256963,92.7221287 C71.7633118,92.1567688 71.7063953,91.5834636 71.6522128,91.0084203 C71.7444225,90.3832221 71.7630633,89.7567825 71.684772,89.1246321 C71.6763216,89.0573451 71.6678711,88.9903064 71.658675,88.9227711 C71.6720963,88.7554226 71.6837779,88.5878257 71.6912342,88.4192358 C72.0126012,88.0343838 72.1363759,87.4024818 71.9991798,86.982869 C71.9445002,86.8155205 71.8110322,86.7224112 71.6397856,86.7092517 C71.0693779,86.6650558 70.3471099,87.1559282 70.4910167,87.797762 C70.5342633,87.9909328 70.6118089,88.1674681 70.6901002,88.3457415 C70.7298672,88.8631811 70.7770905,89.3798759 70.828539,89.8963223 C70.765906,90.6059396 70.7286245,91.319033 70.8613468,92.0644043 C70.9254711,92.4244271 71.0057507,92.7054932 71.1086478,92.9448462 C71.2304342,93.9221219 71.5025895,94.6960467 72.3409274,95.4155957 C72.734372,95.7535205 73.1596303,96.0646298 73.5970672,96.3638212 C74.0441973,96.7528941 74.5094711,97.1273178 74.9710167,97.5335228 C75.3848419,97.8977665 75.894108,98.2173178 76.3984031,98.547049 C76.9444536,99.0811241 77.5476691,99.5854043 78.0991876,100.057903 C78.1163371,100.098623 78.1362206,100.136115 78.1521274,100.178573 C78.4252769,100.910288 78.599506,102.190479 78.135972,102.924926 C78.0574322,103.049568 78.0638944,103.170486 78.1178283,103.26732 C78.7508691,102.458138 79.1830866,101.471924 79.1607177,100.450204 C79.1470478,99.8255023 78.9370283,99.1965797 78.573906,98.6910581 C78.3196458,98.4273724 78.0499759,98.1810672 77.7698672,97.94668 C77.6528031,97.8781515 77.5300225,97.8190581 77.4012769,97.7716344 C77.4892614,97.8039123 77.5779915,97.8329624 77.6669701,97.8620125 C77.1534788,97.44091 76.6101623,97.0545683 76.06784,96.6724476" id="Fill-159" fill="#E53500"></path>
                            <path d="M83.5119969,93.3646576 C83.2087736,93.0379059 82.8491309,92.7650335 82.4449988,92.5736007 C83.1478804,92.4159355 83.825659,92.664972 84.5094027,92.9433068 C82.6895658,91.3835392 80.304292,90.5942203 78.8339076,88.709439 C78.3736047,88.1199948 77.9254804,87.7537647 77.7646726,87.0074002 C77.6493483,86.4733251 77.6227542,85.9250973 77.4900318,85.3890358 C77.3650144,84.8845073 77.257892,84.3814686 77.1544979,83.8789264 C77.6038649,82.6523661 77.9809056,81.2626781 77.8126416,80.0125301 C77.7872901,79.8238285 77.5240823,79.6895027 77.3540784,79.7523205 C77.2780241,79.7803774 77.2081833,79.81489 77.140828,79.8526303 C77.0197872,80.3792567 76.898995,80.9056349 76.7779542,81.4322613 C76.2885717,81.4168672 75.7984435,81.4195984 75.3088124,81.4362339 C75.2036784,81.5477169 75.1089833,81.6691314 75.0356629,81.8121474 C74.4018765,83.0454116 75.536727,83.9958718 76.0725872,84.9882932 C76.1096202,85.0565733 76.156595,85.1035005 76.208292,85.133792 C76.2604862,85.4342248 76.3002532,85.7371405 76.3410144,86.063644 C76.506793,87.3905141 77.1067775,88.6543182 78.0760979,89.5869014 C79.3106144,90.77448 80.8371697,91.6698194 82.2645561,92.5877533 C82.6724163,92.8501975 83.0949406,93.1034549 83.5119969,93.3646576" id="Fill-161" fill="#E53500"></path>
                        </g>
                    </g>
                </g>
            </g>
        </g>
    </g>
</svg>