<?xml version="1.0" encoding="UTF-8" standalone="no"?>
<svg width="128px" height="128px" viewBox="0 0 128 128" version="1.1" xmlns="http://www.w3.org/2000/svg" xmlns:xlink="http://www.w3.org/1999/xlink">
    <!-- Generator: Sketch 41.2 (35397) - http://www.bohemiancoding.com/sketch -->
    <title>Graphic</title>
    <desc>Created with Sketch.</desc>
    <defs>
        <circle id="path-1" cx="64" cy="64" r="64"></circle>
        <polygon id="path-3" points="0.0100717981 38.1422723 23.4069882 38.1422723 23.4069882 0.092705158 0.0100717981 0.092705158 0.0100717981 38.1422723"></polygon>
        <polygon id="path-5" points="8.05499385e-21 0.0397651452 8.05499385e-21 14.9611429 15.029255 14.9611429 15.029255 0.0397651452 0 0.0397651452"></polygon>
    </defs>
    <g id="Symbols" stroke="none" stroke-width="1" fill="none" fill-rule="evenodd">
        <g id="File-Scanning---Welcome" transform="translate(-436.000000, -91.000000)">
            <g id="Graphic" transform="translate(436.000000, 91.000000)">
                <mask id="mask-2" fill="white">
                    <use xlink:href="#path-1"></use>
                </mask>
                <use id="Mask" fill="#F2F2F2" xlink:href="#path-1"></use>
                <g id="Page-1" mask="url(#mask-2)">
                    <g transform="translate(18.000000, 6.000000)">
                        <path d="M23.1006538,89.1269289 C20.8198217,88.2579678 18.6559287,87.5564171 17.5330461,87.5191653 C14.4985736,87.4186894 6.21135215,95.6727068 6.21135215,95.6727068 C6.21135215,95.6727068 3.62933135,99.8958132 9.30971768,99.2769289 C12.9840119,98.8765092 21.0645468,97.4863199 26.3149183,96.554283 C26.6055572,92.5129831 24.813581,90.303848 23.1006538,89.1269289" id="Fill-1" fill="#E53500"></path>
                        <path d="M31.2056464,94.4246679 C30.6793462,93.6354048 29.9115899,92.5873086 28.9490342,91.5534601 C27.373997,90.8579944 25.1888559,89.922544 23.1005944,89.1268992 C24.8135215,90.3038183 26.6056464,92.5129534 26.3148588,96.5542533 C29.1817236,96.045195 31.2056464,95.6726771 31.2056464,95.6726771 L31.2056464,94.4246679 Z" id="Fill-3" fill="#FFAD00"></path>
                        <path d="M26.0008915,114.301318 C26.0008915,114.301318 21.0653789,121.443867 23.2062407,139.591574 C30.3894502,144.620418 40.2857355,143.249374 40.2857355,143.249374 C40.2857355,143.249374 46.0803863,135.568084 46.3380386,122.20315 C46.5958395,108.838217 28.8465082,110.496738 26.0008915,114.301318" id="Fill-5" fill="#A05621"></path>
                        <g id="Group-9" stroke-width="1" fill="none" transform="translate(51.411590, 106.795246)">
                            <mask id="mask-4" fill="white">
                                <use xlink:href="#path-3"></use>
                            </mask>
                            <g id="Clip-8"></g>
                            <path d="M0.0445022288,14.8825061 C0.0445022288,14.8825061 -0.881054978,20.8714365 6.86545319,31.3896505 C11.2388559,37.3278234 8.8372214,38.1423168 8.8372214,38.1423168 L23.3792719,33.7811858 C23.3792719,33.7811858 24.1153789,8.61767503 18.0005201,1.57456346 C11.8856612,-5.46869652 0.0445022288,14.8825061 0.0445022288,14.8825061" id="Fill-7" fill="#A05621" mask="url(#mask-4)"></path>
                        </g>
                        <path d="M27.8812333,107.680577 L26.000847,114.301303 C26.000847,114.301303 28.8549331,112.069164 32.5194205,113.238811 C36.1837593,114.408458 41.4898514,115.764661 46.3381426,122.203284 C48.0525557,122.865802 51.4561218,121.677752 51.4561218,121.677752 C51.4561218,121.677752 53.7986181,116.395418 60.7579049,111.277081 C67.7170431,106.158893 69.4121397,108.369809 69.4121397,108.369809 L65.0550817,101.849707 L27.8812333,107.680577 Z" id="Fill-10" fill="#1F191A"></path>
                        <polygon id="Fill-12" fill="#FFBD00" points="28.8911441 98.9728889 27.4146211 107.64098 46.5490936 109.266256 65.261575 100.989383 64.5985736 90.2446904 41.7578603 98.7020343"></polygon>
                        <path d="M29.8900892,99.7554289 C29.8900892,99.7554289 46.4798366,98.4247533 48.4013819,97.6653214 C50.3229272,96.905741 64.5985587,90.2446459 64.5985587,90.2446459 C64.5985587,90.2446459 66.596627,95.4342211 46.2987073,100.04068 C31.3047994,103.443356 29.8900892,99.7554289 29.8900892,99.7554289" id="Fill-14" fill="#FFAD00"></path>
                        <path d="M29.82526,95.2408086 C29.82526,95.2408086 26.8120357,97.1464381 28.2885587,99.3388025 C29.1624071,100.477728 36.3673105,101.637579 49.7129272,98.5815967 C63.0586924,95.5257625 65.5326895,90.2747441 65.8340267,89.5524156 C66.135364,88.830087 66.4367013,87.2048106 64.2369985,87.2349386 C62.0372957,87.2650665 29.82526,95.2408086 29.82526,95.2408086" id="Fill-16" fill="#FFBD00"></path>
                        <path d="M10.7557504,78.9541919 C10.7557504,78.9541919 11.2820505,86.34563 17.7322734,88.4784806 C18.088737,88.7543813 26.867786,87.77411 26.867786,87.77411 L18.8117682,77.7162748 L10.7557504,78.9541919 Z" id="Fill-18" fill="#98480B"></path>
                        <path d="M37.2993165,47.1806847 C37.2993165,47.1806847 28.7822288,49.7596663 21.1633581,56.3619898 C16.1265082,57.0841699 6.3146211,58.9409713 5.79812779,71.5265855 C5.28178306,84.1121996 16.4131352,81.4300706 16.4131352,81.4300706 C16.4131352,81.4300706 19.2256166,88.3418362 25.628737,92.7777677 L28.0039227,93.4997994 C28.0039227,93.4997994 28.0019911,94.2265803 29.1906984,94.8948864 C29.6563744,95.8726346 29.1323031,96.6461658 29.7557801,97.1878751 C31.2057058,97.729436 38.1256166,98.142174 45.9750966,96.4915189 C53.8244279,94.8410123 64.1526597,88.4785251 64.1526597,88.4785251 C64.1526597,88.4785251 66.0117979,86.5880338 66.1150669,85.2469693 C67.7676672,83.8027574 67.8709361,80.2953009 67.8709361,80.2953009 C67.8709361,80.2953009 74.5841605,73.3835353 74.790847,63.5831975 C72.6219019,53.6798608 59.6638039,48.9344872 59.6638039,48.9344872 C59.6638039,48.9344872 45.6651412,44.9111453 37.2993165,47.1806847" id="Fill-20" fill="#A05621"></path>
                        <path d="M50.0030312,49.6512503 C50.0030312,49.6512503 54.2376523,43.6080005 60.6410698,42.5058818 C64.1526597,36.658241 69.6266568,34.5949964 77.4761367,35.5234713 C85.3256166,36.4519463 96.5834175,45.4832052 96.7899554,46.486629 C96.9964933,47.4902011 91.8476077,59.4932922 68.188321,64.8394437 C59.298425,67.7096126 50.0030312,49.6512503 50.0030312,49.6512503" id="Fill-22" fill="#A05621"></path>
                        <path d="M74.7908024,63.5832421 C74.7533581,63.4125665 74.7121991,63.2438204 74.6685141,63.0762615 C74.6951114,63.0676535 74.7206686,63.0588971 74.747266,63.0502892 C74.2316642,63.1923209 68.8646508,64.6595368 68.4845617,64.2772236 C68.0853046,63.8754683 69.0905052,55.6402994 69.0905052,53.7208675 C69.0905052,51.8015839 68.4499406,50.3940302 68.4845617,50.8419422 C68.5191828,51.2897057 67.1047697,72.9781141 66.7370134,76.6888971 C66.3692571,80.3995317 65.0551412,81.4871059 65.0551412,81.4871059 C65.4393908,81.9989841 67.590208,82.3274232 67.8708915,80.295197 C68.3642051,79.7312257 68.8226003,79.1786822 69.2518722,78.6365276 C71.2283952,76.0254887 74.6442942,70.5306269 74.7908024,63.5832421" id="Fill-24" fill="#98480B"></path>
                        <path d="M28.6500892,105.504033 C28.6500892,105.504033 26.5708915,105.443777 26.0587073,107.309929 C25.5463744,109.175932 28.5897623,109.868133 29.3129421,109.958516 C30.0361218,110.048752 38.8049183,112.065246 49.954101,109.717641 C63.2480089,106.918414 66.1353789,102.735082 66.4367162,101.772027 C66.7380535,100.808823 66.9188856,98.5214744 64.0261664,98.7622011 C61.1332987,99.0029278 28.6500892,105.504033 28.6500892,105.504033" id="Fill-26" fill="#FFBD00"></path>
                        <path d="M28.9234175,105.449373 C28.9234175,105.449373 34.848529,108.124823 47.7064785,105.959025 C60.5645765,103.793375 63.1335215,100.040591 63.1335215,100.040591 C63.1335215,100.040591 59.0344131,106.248431 41.7029123,107.185514 C32.533373,107.681215 28.9234175,105.449373 28.9234175,105.449373" id="Fill-28" fill="#FAD400"></path>
                        <path d="M29.8879198,49.5559243 C29.8879198,49.5559243 28.5543388,52.2704074 35.017786,56.7965742 C39.3351709,59.6228127 41.5436404,60.3795732 41.5436404,60.3795732 C41.5436404,60.3795732 47.8206092,59.1054432 49.0170431,58.7358936 C50.2136256,58.3663439 51.1671174,52.3284371 51.3562704,51.3189284 C51.5455721,50.3095681 49.8434918,47.1311443 49.8434918,47.1311443 L29.8879198,49.5559243 Z" id="Fill-30" fill="#98480B"></path>
                        <path d="M48.6117533,47.6958726 C48.4991233,46.7855041 46.5659881,44.3547876 46.2543982,44.3963434 C46.2543982,44.3963434 42.7392422,46.0225102 41.5552897,48.9790558 C40.3753492,51.9255092 38.3659881,56.5604632 37.1419168,56.2253454 C37.2276523,56.2551766 37.3129421,56.2863434 37.3992719,56.3140967 L41.8179941,57.7329299 C42.3012036,57.888022 42.8071471,57.9340302 43.3062556,57.8681346 L46.7423626,57.4142861 C47.6200743,57.2983751 48.3569242,56.6208675 48.6292868,55.6794806 L49.9734175,51.033544 C49.7979346,51.4780425 48.8627192,49.7236464 48.6117533,47.6958726" id="Fill-32" fill="#A05621"></path>
                        <path d="M45.260312,41.3523675 C45.2497623,40.7453562 45.2412927,40.1456172 45.2237593,39.5377155 C45.2077117,39.2293122 45.1918128,38.9215026 45.1757652,38.6145834 L45.1519911,38.1547984 L45.1488707,38.0975107 L45.1485736,38.0926131 L45.1481278,38.0860829 L45.1457504,38.0583296 L45.1363893,37.9476131 L45.1175186,37.7263286 C45.0201932,36.5470348 44.8393611,35.3995015 44.5797771,34.3162313 C44.3158841,33.2348905 43.9701189,32.2176643 43.5346062,31.3148649 C43.1707132,30.5503869 42.7436701,29.8694657 42.278737,29.290653 L37.1143982,28.8368045 C35.5161813,28.6964053 33.9253938,29.1968557 32.6261367,30.2486622 L29.383789,32.8738004 C28.6965676,33.4302027 28.2512481,34.2856581 28.1573403,35.2295681 L27.5879495,40.9558066 L27.1836404,41.5378843 L27.3181129,42.8693019 C27.9002823,43.4251105 28.3907727,43.7204534 28.5026597,43.922741 C29.9606092,46.5576745 35.8316345,49.5348495 40.6781426,51.0868096 C40.998945,50.3499365 41.2970134,49.6240461 41.55526,48.9790409 C42.3233135,47.0612416 44.0713076,45.7041484 45.2054829,44.9865691 C45.219896,44.3914309 45.2346062,43.7919887 45.2493165,43.1900235 C45.2528826,42.5791535 45.2565973,41.9657605 45.260312,41.3523675" id="Fill-34" fill="#FF5A0C"></path>
                        <path d="M51.2400446,38.6271986 L51.0107727,34.5430072 C50.8656018,31.9571986 49.0434621,29.8850491 46.7367756,29.6824647 L44.2868499,29.4671167 C44.5225111,29.8307298 44.7442051,30.2140819 44.9482169,30.6155404 C45.4647103,31.6213388 45.8733284,32.7348854 46.190416,33.9042354 C46.5028975,35.0750696 46.7271174,36.3028946 46.8627786,37.5538721 L46.8887816,37.7886622 L46.9017088,37.9063541 L46.9135958,38.038739 L46.9491085,38.4976336 C46.9728826,38.8041075 46.9966568,39.1114719 47.0205795,39.4194299 C47.055052,40.0455865 47.0812036,40.685694 47.1079495,41.3182323 C47.1201337,41.9449826 47.132318,42.5717329 47.1443536,43.1961085 C47.1450966,43.819 47.1456909,44.4395169 47.1462853,45.0551361 C47.1455423,45.1125722 47.1447994,45.1691177 47.1440565,45.2264053 C47.788633,46.0075056 48.5425706,47.1373777 48.6118128,47.6958577 C48.6921991,48.346651 48.8433135,48.968652 49.017162,49.4993787 C50.1367756,47.0138976 50.8568351,43.3558014 51.1951709,41.3311443 C51.2730312,40.4326489 51.2907132,39.5286622 51.2400446,38.6271986" id="Fill-36" fill="#FF5A0C"></path>
                        <path d="M49.9734175,51.0334698 L50.0896137,50.6320113 C50.1466716,50.4344729 50.1873848,50.2314432 50.2108618,50.0254452 L51.1468202,41.8512743 C51.1665825,41.6782242 51.180104,41.5045803 51.1951114,41.331085 C50.8569242,43.3557421 50.1367162,47.0138383 49.0171025,49.4993193 C49.3848588,50.6226612 49.8542496,51.3353429 49.9734175,51.0334698" id="Fill-38" fill="#FFBD00"></path>
                        <path d="M28.50263,43.9226817 C28.3907429,43.7205425 27.9002526,43.4251996 27.3180832,42.8692426 L27.7819762,47.457001 L28.8011441,48.3298209 L29.1002526,49.442477 C29.4133284,50.6063357 30.0772214,51.6124309 30.9790045,52.2890481 L33.9579049,54.524304 C34.9403715,55.2614739 36.013477,55.8327175 37.1418574,56.2254197 C38.0980238,56.4870727 39.5332392,53.7164893 40.6781129,51.0867503 C35.8316048,49.5347902 29.9605795,46.5576151 28.50263,43.9226817" id="Fill-40" fill="#FFBD00"></path>
                        <path d="M47.1443834,43.1960343 C47.1321991,42.5716586 47.1200149,41.9449084 47.1079792,41.3181581 C47.0812333,40.6857682 47.0550817,40.0455123 47.0204606,39.4193557 C46.9966865,39.1113976 46.9729123,38.8040333 46.9491382,38.4977078 L46.913477,38.0388132 L46.9017385,37.9062799 L46.8888113,37.7887364 L46.8628083,37.5539463 C46.7271471,36.3028204 46.5029272,35.0749954 46.1904458,33.9043096 C45.8733581,32.7348112 45.46474,31.621413 44.9480981,30.6156146 C44.7442348,30.2140077 44.5225409,29.830804 44.2868796,29.4670425 L42.2787073,29.2905788 C42.7436404,29.8693915 43.1708321,30.5504611 43.5347251,31.3149391 C43.9700892,32.2175901 44.3158544,33.2349647 44.5797474,34.3161571 C44.8393314,35.3995757 45.0201634,36.547109 45.1176374,37.7264028 L45.1363596,37.9476873 L45.1457207,38.0584038 L45.1480981,38.0861571 L45.1486924,38.0925389 L45.1489896,38.0974365 L45.1519614,38.1548726 L45.1757355,38.6145092 C45.1917831,38.9214284 45.207682,39.229238 45.2237296,39.5377897 C45.241263,40.145543 45.2497325,40.745282 45.2602823,41.3524417 C45.2565676,41.9656863 45.2530015,42.5790793 45.2492868,43.1900977 C45.2345765,43.7920629 45.2198663,44.3915051 45.2054532,44.9864949 C45.8197177,44.5977999 46.2544874,44.3962544 46.2544874,44.3962544 C46.374844,44.3802257 46.7378455,44.7343403 47.1440862,45.2264795 C47.1448291,45.1691919 47.1455721,45.112498 47.146315,45.0552103 C47.1457207,44.4395911 47.1449777,43.8189258 47.1443834,43.1960343" id="Fill-42" fill="#FFBD00"></path>
                        <path d="M43.163581,42.5537748 C43.163581,42.5537748 41.9533284,42.6466817 41.5809658,42.6466817 C41.2086033,42.6466817 36.2280684,41.2054381 35.7160327,41.0660778 C36.1815602,41.8563797 39.7286627,45.0165486 40.6781426,45.2264053 C41.627474,45.436262 43.163581,42.5537748 43.163581,42.5537748" id="Fill-44" fill="#1F191A"></path>
                        <path d="M47.8767162,42.3654084 L48.2649777,42.3654084 C48.3911293,42.3654084 48.5154978,42.3444821 48.6343685,42.3029263 C49.040312,42.1611914 49.942838,41.7677472 50.1575483,41.0170716 C50.2670579,42.2156592 50.487266,43.6574964 49.3862259,44.3958536 C49.3141605,44.4485404 48.2490788,43.527783 47.8767162,42.3654084" id="Fill-46" fill="#1F191A"></path>
                        <path d="M44.2868945,47.9152723 C44.2868945,47.9152723 47.0317682,46.5298321 47.6460327,46.711045 C48.2604458,46.8924063 48.5638633,47.8385425 48.4729272,47.9152723 C48.3818425,47.992002 48.1843685,49.4345814 47.6460327,49.4994381 C47.1078455,49.5641464 45.1513819,49.1040645 44.2868945,47.9152723" id="Fill-48" fill="#98480B"></path>
                        <path d="M47.0486776,53.8218183 C47.4830015,53.7027907 47.9345617,53.1478726 48.2439227,53.0635737 C48.5531352,52.9792748 48.9483804,53.0074734 48.9195542,53.1759227 C48.8905795,53.3443721 48.2318871,53.9061172 47.9847845,54.0183178 C47.7378306,54.1306668 46.3314413,54.0183178 47.0486776,53.8218183" id="Fill-50" fill="#98480B"></path>
                        <path d="M34.1575334,65.5361116 C34.1550074,66.7188188 33.9582764,75.5025241 37.4976523,83.1219253 C40.0752155,89.0412497 38.150847,88.2518383 34.1548588,89.1268843 C30.5288559,90.0020788 29.8432689,90.9290696 29.8900743,90.8720788 C29.9368796,90.8152364 36.3750669,89.2126673 38.3731352,89.1268843 C40.3712036,89.0412497 40.5931947,88.1541822 41.0371768,88.1541822 C41.4813076,88.1541822 47.063477,86.8238035 48.6755126,86.5280154 C50.2875483,86.2323756 51.731679,85.421741 51.2686776,85.3835988 C50.8055275,85.3454565 42.4432689,86.6635169 41.8512927,86.8545251 C41.2593165,87.0455333 40.0752155,86.973998 39.2612481,85.3835988 C38.4471322,83.7931996 34.4282615,65.4731842 34.5876969,64.8394585 C34.7469837,64.2055844 34.1575334,65.5361116 34.1575334,65.5361116" id="Fill-52" fill="#98480B"></path>
                        <path d="M11.8062704,70.7841024 C11.8062704,70.7841024 14.473581,77.83226 16.4132541,81.4301003 C17.4304903,85.3453971 15.9859138,85.3835394 15.9859138,85.3835394 C15.9859138,85.3835394 11.0663001,74.1842559 11.8062704,70.7841024" id="Fill-54" fill="#98480B"></path>
                        <path d="M16.6978158,60.194828 C16.3089599,60.4904678 15.728425,62.8012661 14.840312,63.8360051 C15.2844428,64.7969826 16.2464042,63.6650328 17.2085141,62.7156315 C18.1704755,61.7663787 23.0269391,58.3120542 26.0009361,57.6740246 C20.686523,58.8837431 17.5330312,61.0363327 17.5330312,61.0363327 L16.6978158,60.194828 Z" id="Fill-56" fill="#98480B"></path>
                        <path d="M60.1298811,44.3957943 C60.1298811,44.3957943 59.4639079,46.6138342 60.9438484,47.6485732 C59.3159138,49.3486499 55.0236404,51.5625343 54.061679,51.7490901 C53.0997177,51.9356459 58.5017979,48.0920328 59.0197771,47.7224831 C59.5379049,47.3529335 58.2058098,45.9474575 60.1298811,44.3957943" id="Fill-58" fill="#98480B"></path>
                        <path d="M18.4664933,67.4579181 C20.9849183,66.503174 25.1266716,64.6408813 32.1569837,64.2014289 C33.044948,64.2794944 33.1929421,63.1708454 32.1569837,63.2447554 C31.1208767,63.3186653 23.9427192,64.3176366 22.0186478,65.1486039 C20.0945765,65.9795711 15.4908618,68.5858608 18.4664933,67.4579181" id="Fill-60" fill="#98480B"></path>
                        <path d="M38.3731501,61.7664232 C38.3731501,61.7664232 37.2630461,63.5404099 37.5591828,63.5404099 C37.8551709,63.5404099 46.9573997,59.0706402 51.7676523,56.7966484 C56.5777563,54.522805 58.9458098,53.9313772 58.9458098,53.9313772 C58.9458098,53.9313772 50.9535364,56.1488234 38.3731501,61.7664232" id="Fill-62" fill="#98480B"></path>
                        <path d="M48.0662407,49.8362922 C47.5250817,49.7266146 46.9537593,50.0369473 46.0313224,51.503718 C45.1088856,52.9704887 44.3512333,53.3403352 44.3512333,53.3403352 C44.3512333,53.3403352 45.3724814,53.4799923 46.0313224,53.3403352 C46.6901634,53.2006781 47.7558395,51.8845471 48.5736701,51.8845471 C49.0620802,51.9504427 49.3426152,52.1148849 49.3426152,52.1148849 C49.3426152,52.1148849 48.4152749,51.0172185 48.0662407,49.8362922" id="Fill-64" fill="#1F191A"></path>
                        <path d="M48.6097028,51.8905578 C48.4909807,51.5647902 48.2945468,51.1225179 48.1094056,51.1502712 C47.9680981,51.1714944 47.0759733,51.5051279 46.1963299,51.8423234 C45.9153492,52.2863767 45.4724071,52.9247032 45.0848886,53.2127738 C45.402422,53.2831218 46.1091085,53.1507369 46.6171322,53.0354197 C47.228425,52.60413 47.9686924,51.8846213 48.5735958,51.8846213 L48.6097028,51.8905578 Z" id="Fill-66" fill="#CECECE"></path>
                        <path d="M45.0849034,53.2127144 C45.472422,52.9246438 45.915364,52.2863173 46.1963447,51.8422641 C46.0150669,51.91187 45.8340862,51.9814759 45.6605349,52.0485589 C44.9146211,53.0635589 44.3511738,53.3403501 44.3511738,53.3403501 C44.3511738,53.3403501 45.372422,53.4800072 46.031263,53.3403501 C46.202734,53.3039887 46.4021397,53.1871873 46.6171471,53.0355087 C46.1091233,53.1506776 45.4024368,53.2832108 45.0849034,53.2127144" id="Fill-68" fill="#9B9B9A"></path>
                        <path d="M87.6946657,35.3102753 C90.03211,34.7988424 91.9954086,34.6866418 93.6318128,34.8136837 C87.0031352,23.7552446 73.3994205,8.59851484 73.3994205,8.59851484 C73.3994205,8.59851484 70.1431055,18.7082948 71.5890193,23.2473736 C73.0349331,27.7864524 71.8988262,28.5086325 73.3994205,37.9993797 C73.7347845,40.120654 74.2793611,41.9357513 74.9218574,43.478955 C77.4841159,40.5044514 81.8230461,36.5950911 87.6946657,35.3102753" id="Fill-70" fill="#FF5A0C"></path>
                        <path d="M90.7192125,43.1516883 C83.9774591,44.1557057 80.8108915,47.8126146 79.4743388,50.0503936 C80.1371917,50.631284 80.574636,50.8944212 80.574636,50.8944212 L82.5576969,59.9115809 C82.5576969,59.9115809 97.3062853,52.6482236 98.3391233,52.3386331 C99.3719614,52.0291909 100.198262,50.9975686 99.9293165,50.2293802 C99.7297623,49.6588787 100.372853,49.3338531 98.4750817,44.6833158 C97.0082169,43.4289248 94.6174294,42.5712431 90.7192125,43.1516883" id="Fill-72" fill="#A05621"></path>
                        <path d="M93.6318574,34.8136244 C91.9954532,34.6867308 90.0320059,34.798783 87.6947103,35.310216 C81.8229421,36.5950317 77.4841605,40.504392 74.9219019,43.4788956 C76.3566716,46.9250573 78.2813373,49.0047758 79.4742051,50.050349 C80.8109064,47.8125701 83.977474,44.1556612 90.7192273,43.1516438 C94.6174443,42.5711986 97.0082318,43.4288802 98.4750966,44.6832712 C97.8175929,43.0720942 96.8557801,40.9428055 95.4473105,38.1024678 C94.9326003,37.0647605 94.3196731,35.9611576 93.6318574,34.8136244" id="Fill-74" fill="#FFBD00"></path>
                        <path d="M71.589049,23.2473736 C71.589049,23.2473736 69.3792422,17.2410788 69.3278306,16.0515445 C68.076419,15.5838936 66.1092571,14.2406029 65.3813224,13.1220102 C64.6533878,12.0034176 62.930208,11.2181617 62.8010847,10.731217 C62.67211,10.2442723 62.4538336,10.1090676 62.4538336,10.1090676 L61.351159,10.5960123 L59.5459584,8.59851484 C59.5459584,8.59851484 59.3070282,5.36280348 59.1623031,4.08733777 C59.017578,2.81202047 61.3952897,0.110449335 61.3952897,0.110449335 C61.3952897,0.110449335 62.8602229,-0.205077789 63.3782021,0.230515865 C63.8961813,0.666109519 64.6975186,1.09695394 64.917578,1.09695394 C65.137786,1.09695394 66.4906835,0.110449335 66.4906835,0.110449335 C66.4906835,0.110449335 67.5153492,0.130188332 67.9116345,0.591605937 C68.3079198,1.05287513 69.0484844,1.37300307 69.0484844,1.37300307 L70.4053938,1.22414432 C70.4053938,1.22414432 70.9508618,1.44750665 71.2189153,1.88844319 C71.4868202,2.32952815 71.9694354,2.7244565 72.3585884,2.62650358 C72.7477415,2.52869908 73.6097028,2.81038792 73.6097028,2.81038792 L74.3434324,3.77952815 C74.3434324,3.77952815 75.0400149,9.74545445 76.6493759,12.3256233 C78.2585884,14.9059406 71.589049,23.2473736 71.589049,23.2473736" id="Fill-76" fill="#FF5A0C"></path>
                        <path d="M62.4538336,10.1091121 C62.4538336,10.1091121 61.2190639,7.16577533 61.0429866,6.06632805 C60.8669094,4.96688076 60.7348143,4.35126151 60.7348143,4.35126151 C60.7348143,4.35126151 60.6467013,4.47563204 60.7348143,5.60090328 C60.8227786,6.7260261 59.9862259,7.16577533 60.3825111,7.42965455 C60.7787964,7.69353378 61.6153492,8.83691146 61.351159,10.5960568 C62.2413522,10.3639381 62.4538336,10.1091121 62.4538336,10.1091121" id="Fill-78" fill="#E53500"></path>
                        <path d="M66.2824963,5.60085875 C66.3446062,5.65710747 66.4142942,5.71706653 66.491263,5.78132958 C67.8346508,6.902 71.3903715,9.28982497 74.9856166,14.6488884 C75.0444577,14.2462426 73.0630312,10.5520819 69.9368796,7.82542886 L67.3600594,5.57800307 C67.0489153,5.30640635 66.5819019,5.31635005 66.2824963,5.60085875 Z" id="Fill-80" fill="#E53500"></path>
                        <path d="M72.876003,7.957413 C72.8869985,7.82547339 73.0630758,7.39893296 73.1511887,7.63416837 C73.239153,7.86940379 74.2149331,10.9038664 74.3434621,11.2118245 C74.4719911,11.5196341 74.1198366,11.4316249 73.7675334,10.8160056 C73.4153789,10.200238 72.876003,7.957413 72.876003,7.957413" id="Fill-82" fill="#E53500"></path>
                        <g id="Group-86" stroke-width="1" fill="none" transform="translate(0.000000, 87.798316)">
                            <mask id="mask-6" fill="white">
                                <use xlink:href="#path-5"></use>
                            </mask>
                            <g id="Clip-85"></g>
                            <path d="M7.61827637,0.0437819857 C7.24695394,0.096765609 1.98885587,2.50744626 1.20921248,2.88842375 C0.429717682,3.26925281 -0.0762258544,4.23765097 0.00936106984,4.92525077 C0.0949479941,5.61285056 0.618276374,5.99813204 0.577265973,6.60172979 C0.536255572,7.20517912 0.132392273,7.87333675 0.229123328,8.37438076 C0.326002972,8.87557318 0.874145617,9.80850051 1.51381872,10.0147953 C2.15349183,10.2212385 2.77340267,10.3846418 2.70832095,10.6218066 C2.64323923,10.8589713 2.51946508,11.0836694 2.7,11.5404862 C2.88053492,11.997303 3.2191679,12.9343859 3.80921248,13.1098106 C4.39910847,13.285087 5.58127786,13.5048874 5.61263001,13.6840225 C5.64413076,13.863306 5.82020802,14.4072416 5.89925706,14.4753634 C5.97845468,14.5433367 6.41069837,14.9370778 6.97444279,14.9603787 C7.53818722,14.983828 11.3842496,14.4683879 13.4081724,13.3067554 C15.4319465,12.1451228 14.9879643,10.6762743 14.9879643,10.6762743 L14.4662704,9.6062129 L13.763893,9.6062129 L13.9102526,8.92989253 L12.7104012,7.32212897 C12.7104012,7.32212897 11.6619614,6.82167861 11.6301634,6.6919652 C11.5983655,6.56210338 11.8019316,5.65603889 11.7001486,5.39290174 C11.5983655,5.129913 10.8667162,3.58062436 10.6325409,3.49291198 C10.3985141,3.405348 9.93016345,3.07631525 9.93016345,3.07631525 C9.93016345,3.07631525 9.81307578,2.08995906 9.75468053,1.70987206 C9.6961367,1.32993347 8.23283804,-0.0439303992 7.61827637,0.0437819857" id="Fill-84" fill="#FF5A0C" mask="url(#mask-6)"></path>
                        </g>
                        <path d="M1.29705795,90.8746315 C1.69988113,90.454176 3.81384844,89.1543705 4.39913819,88.5274719 C4.98442793,87.9005732 5.89170877,86.6613204 6.21355126,86.5356141 C6.53554235,86.4097595 9.69393759,86.8872057 10.1350966,86.8775589 C10.576107,86.867912 12.8233581,88.3844012 13.4578306,88.6945855 C14.0923031,89.0046213 14.5539673,88.8943501 15.5490639,92.1097288 C16.5440119,95.3251075 16.8116196,95.2666325 16.5460921,95.6173337 C16.2807132,95.9681832 15.0572363,96.9732395 13.5325706,96.2222671 C12.0080535,95.4712948 11.3934918,94.7112692 11.3934918,94.7112692 L8.96971768,89.118306 L1.29705795,90.8746315 Z" id="Fill-87" fill="#FF5A0C"></path>
                        <path d="M14.6100446,96.4938342 C13.9018722,95.8908301 12.799049,94.9372733 12.7396137,94.7989519 C12.6517979,94.5942897 12.3592273,93.6882252 12.1835958,93.2496633 C12.0079643,92.8112497 11.0715602,92.5357943 11.0715602,91.5043204 C11.0715602,90.4728465 12.622526,89.8005333 12.5054383,89.5373961 C12.3884993,89.2744074 10.3984547,87.7835937 10.3106389,87.7543562 C10.2228232,87.7251187 10.0419911,88.2003388 8.93263001,88.1526981 C7.82312036,88.1052057 8.87661218,87.4913675 7.61821694,87.8420686 C6.35982169,88.1929181 6.37022288,88.6237625 6.59399703,88.5728567 C7.06457652,88.4658506 8.05476969,88.2804821 8.30469539,88.5728567 C8.55476969,88.8652313 8.2853789,89.0678158 8.42,89.244131 C8.55476969,89.4205947 8.69503715,90.5292436 8.42,90.6033019 C8.14511144,90.6775087 4.98448737,92.4605486 4.0186627,92.7527748 C3.05298663,93.0451494 1.91167905,93.2496633 1.88240713,93.5712753 C1.85313522,93.892739 2.02861813,94.1558762 2.35060921,94.0389263 C2.67245171,93.9219765 8.49622585,90.91126 8.73040119,90.91126 C8.96442793,90.91126 9.90098068,91.9344227 9.98879643,92.2558864 C10.0764636,92.5773501 10.5740862,93.8778976 9.98879643,94.3529693 C9.4033581,94.8281894 5.15997028,97.1081177 4.54540862,97.254305 C3.93084695,97.4004923 3.57973254,98.3650317 4.36992571,98.0143306 C5.15997028,97.6634811 10.0234175,95.0689161 10.2694799,95.0215722 C10.5155423,94.9743767 11.7827043,94.7066387 12.1295097,95.863522 C12.4761664,97.0204053 12.2714116,96.6989417 12.6810698,97.1958301 C13.0908767,97.6927185 13.12,97.9558557 12.7981575,98.1603695 C12.4761664,98.3650317 9.83396731,99.5967155 8.93099554,99.8432303 C8.02802377,100.089597 6.65254086,100.528159 6.68181278,100.703435 C6.7110847,100.87886 9.12044577,100.196306 9.51063893,100.04062 C9.90098068,99.8850829 12.8549183,98.4327083 13.0167311,98.4281075 C13.1785438,98.4235067 13.5883507,99.0665824 13.7052897,99.4757584 C13.784636,99.7528465 14.1451114,100.140503 14.3700743,100.362381 C15.2663596,99.3999191 14.9879049,98.4745609 14.9879049,98.4745609 L14.466211,97.4044995 L13.7638336,97.4044995 L13.9101932,96.7281791 L13.53263,96.2222375 L13.53263,96.2222375 C13.9140565,96.410129 14.2766122,96.4880461 14.6100446,96.4938342" id="Fill-89" fill="#E53500"></path>
                    </g>
                </g>
            </g>
        </g>
    </g>
</svg>