<?xml version="1.0" encoding="UTF-8"?>
<svg width="100px" height="126px" viewBox="0 0 100 126" version="1.1" xmlns="http://www.w3.org/2000/svg" xmlns:xlink="http://www.w3.org/1999/xlink">
    <!-- Generator: sketchtool 52.3 (67297) - http://www.bohemiancoding.com/sketch -->
    <title>9B3BDE8D-005F-4EC9-92D1-16AAF8D4A140</title>
    <desc>Created with sketchtool.</desc>
    <defs>
        <rect id="path-1" x="0" y="0" width="100" height="126"></rect>
    </defs>
    <g id="File-Scanning" stroke="none" stroke-width="1" fill="none" fill-rule="evenodd">
        <g id="File-Scanning---Settings---Free" transform="translate(-440.000000, -723.000000)">
            <g id="Body" transform="translate(410.000000, 371.000000)">
                <g id="Graphic-/-File-Scanning---Settings---Upsell" transform="translate(30.000000, 352.000000)">
                    <g id="defender-graphic-filescan-settings-upsell">
                        <mask id="mask-2" fill="white">
                            <use xlink:href="#path-1"></use>
                        </mask>
                        <g id="Mask"></g>
                        <g id="graphic" mask="url(#mask-2)">
                            <g transform="translate(50.000000, 97.096000) scale(-1, 1) translate(-50.000000, -97.096000) ">
                                <path d="M25.3409124,73.6613329 C25.3409124,73.6613329 30.8598905,79.1943448 31.414635,81.7130004 C13.6788686,88.2972773 2.59018248,103.995437 0.159890511,128.096417 C-1.3999635,141.163129 8.98981752,141.724169 8.44456204,143.190464 C7.89967153,144.65676 7.22959854,159.688024 11.0507664,171.883792 C14.8719343,184.079561 15.7343431,194.174625 15.7343431,194.174625 L92.5387226,194.174625 L97.0770438,130.035781 C97.0770438,130.035781 105.389818,110.090949 92.2861679,91.5686094 C82.3963869,77.5897056 77.294562,76.7253322 77.294562,76.7253322 L76.985073,71.2014459 L25.3409124,73.6613329 Z" id="Fill-1" fill="#9F5622"></path>
                                <path d="M28.4724818,148.440693 C28.2316058,138.277735 30.2206569,137.841898 28.9356204,132.68778 C27.6509489,127.533661 23.8764964,121.43596 24.7476642,113.015254 C25.6184672,104.594184 29.6830657,96.1734785 29.6830657,96.1734785 C29.6830657,96.1734785 25.4819708,98.8695351 23.2275912,101.151291 C20.9732117,103.432682 19.9487591,117.079415 17.8480292,120.274093 C16.1739416,122.81976 5.84,133.287877 1.7089781,137.437453 C4.28014599,141.627547 8.80934307,142.209028 8.44474453,143.190209 C8.34766423,143.4512 8.24729927,144.147663 8.16846715,145.174471 C8.18160584,145.186882 13.9392701,150.473139 17.0188321,150.473139 C20.1024088,150.473139 19.2312409,158.894209 19.2312409,166.443971 C19.2312409,173.993367 20.090365,176.316371 21.6932847,178.058624 C23.2958394,179.800876 28.4724818,194.174369 28.4724818,194.174369 L34.0381752,180.962378 C34.0381752,180.962378 28.7133577,165.572662 28.4724818,148.440693" id="Fill-4" fill="#98480C"></path>
                                <path d="M35.0389051,73.1993603 L27.9764964,76.5181454 C29.4808759,78.2603981 31.1250365,80.3972401 31.4148175,81.7131464 C28.5210219,82.7874078 25.8078832,84.1084244 23.2768613,85.6648806 C26.6808759,87.6757899 30.9505839,89.215455 34.0381752,87.7528096 C39.4487591,85.1892562 45.9305109,78.6225004 77.2943796,76.7254782 L76.9852555,71.2012268 L35.0389051,73.1993603 Z" id="Fill-6" fill="#98480C"></path>
                                <path d="M11.9472628,44.4998998 C11.9472628,44.4998998 9.05748175,49.3798864 9.03850365,50.4165505 C9.01916058,51.4532145 8.78631387,52.7924823 13.4501825,53.4663139 C12.5691606,54.5548112 12.154562,60.2812851 12.154562,60.2812851 C12.154562,60.2812851 9.59872263,60.2086456 9.45164234,62.4090015 C9.30456204,64.6093575 10.8071168,65.8325481 13.4501825,66.283716 C14.0202555,66.6308524 13.8020073,68.6118298 13.7264599,68.9301295 C13.6509124,69.2484292 11.6899635,73.4633446 18.3998175,76.1889681 C25.1096715,78.9142265 41.7958029,78.033062 41.7958029,78.033062 L40.005292,51.0305184 L11.9472628,44.4998998 Z" id="Fill-8" fill="#9F5622"></path>
                                <path d="M11.155438,45.9759051 C11.155438,45.9759051 22.5933942,46.0437993 28.805073,63.7335224 C30.5058029,72.3947776 30.3360949,78.4621825 30.3360949,78.4621825 L35.0543431,78.4621825 L33.1598175,54.0388883 C33.1598175,54.0388883 14.3933942,41.6011097 11.155438,45.9759051" id="Fill-10" fill="#98480C"></path>
                                <path d="M66.3005474,1.43924744 C40.9333942,-1.93648116 28.1330292,9.41389523 24.7111314,17.0103796 C21.5439781,24.0418092 15.9417883,39.8779477 13.7436131,46.0826012 C15.7771898,46.6173592 18.9074818,48.2818621 23.2275547,52.7252816 C25.4472628,55.0081327 27.0523723,57.698714 28.2184307,60.5031823 C28.3056569,60.7130702 28.3903285,60.9233232 28.4724453,61.1339412 C35.2330292,61.2569538 55.9826642,60.3119104 72.2144161,42.9415821 C72.8363139,42.2195674 73.7173358,42.7349793 74.3910584,42.9178556 C74.985219,43.0788305 83.8801095,40.5568897 86.5939781,35.1585711 C85.6571168,25.3219433 80.4538321,3.9436672 66.3005474,1.43924744" id="Fill-12" fill="#FF5B0C"></path>
                                <path d="M86.9192701,33.0255618 C84.9845985,18.6575439 79.169635,1.52156002 62.6280292,0.495116595 C39.2054015,-0.958403224 25.3170803,10.1371874 22.5758394,15.1682933 C19.8349635,20.1990342 11.0145255,43.8780474 10.8072263,44.5000459 C10.599927,45.1216793 11.0554015,46.0568671 11.0554015,46.0568671 C11.4345985,45.8871316 12.3210949,45.7090006 13.7437226,46.0827837 C15.9418978,39.8777652 21.5440876,24.0416266 24.7112409,17.0105622 C28.1331387,9.41371272 40.9331387,-1.93629865 66.3006569,1.43906493 C80.4539416,3.94384971 85.6572263,25.3217607 86.5940876,35.1583886 C86.7747445,34.7984764 86.9283942,34.4257883 87.049927,34.0403245 C87.0083212,33.7037737 86.9648905,33.3653978 86.9192701,33.0255618" id="Fill-14" fill="#FFBC00"></path>
                                <path d="M21.6932117,40.6054377 C21.2494161,40.9284827 23.9559854,46.2370057 30.1829927,48.1606746 C30.6278832,48.2709114 39.7629197,41.2723339 40.3789781,37.7221245 C40.310365,37.422806 39.7289781,38.1072233 29.5329927,39.6815656 C25.6326277,40.1604752 21.9282482,40.4342421 21.6932117,40.6054377" id="Fill-17" fill="#1F191A"></path>
                                <path d="M87.0500365,34.040434 C85.1029562,40.2085852 75.024854,43.0897082 74.3909124,42.9177826 C74.1222993,42.8447781 73.8208394,42.7199404 73.5157299,42.6407305 C73.445292,45.0790811 72.7562409,50.0499583 71.0073358,54.171428 C69.0106204,58.8765687 67.164635,61.8989555 61.9409124,61.3656576 C66.9868978,60.6407228 68.3131752,57.9464913 69.1066058,56.6196343 C69.8996715,55.2931423 71.6361679,48.9468601 72.115,44.9396425 C72.2124453,44.1238171 72.2598905,43.4554608 72.2602555,42.8951512 C72.244927,42.9108472 72.2292336,42.924353 72.214635,42.941509 C55.9828832,60.3118374 35.2332482,61.2572459 28.4726642,61.1338682 C30.9306934,67.4319674 31.2485766,74.1936453 31.2982117,78.1691059 C62.3087956,78.5640603 78.8993066,74.8714921 82.0602555,72.539363 C85.2215693,70.2072339 87.6569708,60.6188214 87.8124453,48.1606016 C87.8555109,44.7089483 87.7383577,39.6216289 87.0500365,34.040434" id="Fill-19" fill="#FFBC00"></path>
                                <path d="M73.5156204,42.6407305 C73.5254745,42.2954191 73.5232847,42.0004809 73.509781,41.7665014 C73.400292,39.8789698 71.540438,39.154035 70.8021168,39.1270233 C70.0637956,39.0996466 67.3013869,38.8123739 64.1426277,40.7816706 C64.1426277,40.7816706 67.5886131,39.5646854 69.7627007,39.947594 C71.4944526,40.2523879 72.2608759,40.7024607 72.260146,42.8951512 C72.6262044,42.5118775 73.0740146,42.5261134 73.5156204,42.6407305" id="Fill-21" fill="#D23100"></path>
                                <path d="M72.114927,44.9395695 C71.6364599,48.9467871 69.8995985,55.2930693 69.1065328,56.6195613 C68.3134672,57.9464183 66.9868248,60.6406498 61.9408394,61.3655846 C67.164562,61.8988825 69.0109124,58.8764957 71.0072628,54.171355 C72.7561679,50.0498853 73.445219,45.0790081 73.5156569,42.6406575 C73.0740511,42.5260404 72.6262409,42.5118045 72.2601825,42.8950782 C72.2601825,43.4553878 72.2123723,44.1241091 72.114927,44.9395695" id="Fill-23" fill="#FFAD00"></path>
                                <path d="M43.195073,89.0751404 C45.165146,89.4032956 55.1308394,84.1546363 61.0888686,84.1546363 C67.0468978,84.1546363 74.1155109,85.3394995 75.075,85.1763344 C76.0344891,85.0131693 76.2363139,84.457605 74.2673358,84.1546363 C72.2979927,83.8516676 63.8155109,80.670131 62.6541971,80.1145666 C61.4928832,79.5590023 59.8071168,79.6195961 58.4790146,79.7659701 C57.1505474,79.9127092 54.2220803,80.3671622 54.2220803,81.1749572 C54.2220803,81.9831171 51.445073,84.9624312 49.3242701,85.6694799 C47.2038321,86.3765286 42.114781,88.8951842 43.195073,89.0751404" id="Fill-25" fill="#98480C"></path>
                                <path d="M9.04919708,50.304452 C9.0429927,50.3453346 9.0389781,50.3832969 9.03824818,50.416514 C9.01927007,51.453178 8.78605839,52.7924458 13.449927,53.4662774 C13.449927,53.4662774 14.3747445,53.4764981 15.5794891,52.763609 C16.7769343,52.0547352 9.98715328,50.2285273 9.04919708,50.304452" id="Fill-27" fill="#98480C"></path>
                                <path d="M13.4500365,66.2836065 C13.4500365,66.2836065 10.5157299,65.7200116 10.0978467,64.4417026 C9.6799635,63.1633937 15.4566058,64.1219429 15.5055109,64.1956774 C15.554781,64.269777 15.7208394,65.7159964 13.4500365,66.2836065" id="Fill-29" fill="#98480C"></path>
                            </g>
                        </g>
                    </g>
                </g>
            </g>
        </g>
    </g>
</svg>