<?xml version="1.0" encoding="UTF-8"?>
<svg width="113px" height="216px" viewBox="0 0 113 216" version="1.1" xmlns="http://www.w3.org/2000/svg" xmlns:xlink="http://www.w3.org/1999/xlink">
    <!-- Generator: sketchtool 59.1 (101010) - https://sketch.com -->
    <title>96CB1D37-E432-485A-9576-3A117EDA1CDB</title>
    <desc>Created with sketchtool.</desc>
    <defs>
        <rect id="path-1" x="0" y="0" width="113" height="215.463918"></rect>
    </defs>
    <g id="File-Scanning" stroke="none" stroke-width="1" fill="none" fill-rule="evenodd">
        <g id="File-Scanning---Scanning---Free" transform="translate(-410.000000, -549.000000)">
            <g id="Modal" transform="translate(380.000000, 254.000000)">
                <g id="Graphic-/-File-Scan---Modal---Upsell" transform="translate(30.000000, 295.000000)">
                    <g id="graphic-defemder-filescan-modal-upsell">
                        <mask id="mask-2" fill="white">
                            <use xlink:href="#path-1"></use>
                        </mask>
                        <g id="Mask"></g>
                        <g id="graphic" mask="url(#mask-2)">
                            <g transform="translate(56.500000, 110.000000) scale(-1, 1) translate(-56.500000, -110.000000) ">
                                <path d="M28.63523,83.4508819 C28.63523,83.4508819 34.8716751,89.7192277 35.4985364,92.5726112 C15.457121,100.031934 2.9269061,117.81637 0.180676271,145.120355 C-1.58195871,159.923626 10.1584934,160.559227 9.54235478,162.220393 C8.92662853,163.881558 8.16944607,180.910468 12.4873656,194.727046 C16.8052852,208.543625 17.7798071,219.980317 17.7798071,219.980317 L104.568753,219.980317 L109.697056,147.31746 C109.697056,147.31746 119.09049,124.721972 104.283366,103.738025 C93.107914,87.901333 87.3428521,86.9220849 87.3428521,86.9220849 L86.9931295,80.6640774 L28.63523,83.4508819 Z" id="Fill-1" fill="#9F5622"></path>
                                <path d="M32.1739042,168.168376 C31.9017144,156.654766 34.1493421,156.161007 32.6972509,150.321909 C31.2455721,144.482811 26.9804407,137.574728 27.9648604,128.034916 C28.9488677,118.49469 33.541864,108.954878 33.541864,108.954878 C33.541864,108.954878 28.7946268,112.009239 26.2471779,114.594239 C23.699729,117.178825 22.5420977,132.639202 20.1682729,136.25845 C18.2765539,139.142435 6.59919993,151.001759 1.9311452,155.702811 C4.8365649,160.449766 9.95455758,161.108526 9.54256123,162.220105 C9.4328605,162.515782 9.31944809,163.304804 9.2303678,164.468075 C9.24521451,164.482135 15.7513751,170.470932 19.2312802,170.470932 C22.7157217,170.470932 21.731302,180.011158 21.731302,188.564279 C21.731302,197.116986 22.7021123,199.748715 24.5134115,201.722512 C26.3242984,203.696309 32.1739042,219.980031 32.1739042,219.980031 L38.4631377,205.012174 C38.4631377,205.012174 32.446094,187.577173 32.1739042,168.168376" id="Fill-4" fill="#98480C"></path>
                                <path d="M39.5939623,82.9275106 L31.6134406,86.6873601 C33.3133895,88.661157 35.1712909,91.081984 35.4987435,92.5727734 C32.2287545,93.7898034 29.1629078,95.2863823 26.3028531,97.0496905 C30.1493896,99.3278483 34.9741595,101.072134 38.4631376,99.4151039 C44.5770973,96.5108559 51.9014767,89.0713826 87.3426475,86.9222473 L86.9933372,80.6638265 L39.5939623,82.9275106 Z" id="Fill-6" fill="#98480C"></path>
                                <path d="M13.5004065,50.4139096 C13.5004065,50.4139096 10.2349541,55.9424435 10.2135089,57.1168796 C10.1916512,58.2913157 9.92853445,59.8085713 15.1987057,60.5719548 C14.203151,61.8051127 13.7346547,68.2926315 13.7346547,68.2926315 C13.7346547,68.2926315 10.8465563,68.2103383 10.6803556,70.7031203 C10.5141549,73.1959022 12.2120416,74.5816541 15.1987057,75.0927819 C15.8428882,75.4860526 15.5962678,77.7303008 15.5108992,78.0909023 C15.4255305,78.4515038 13.2096584,83.226579 20.7917931,86.3144362 C28.3739277,89.4018798 47.2292553,88.4036091 47.2292553,88.4036091 L45.205978,57.8124435 L13.5004065,50.4139096 Z" id="Fill-8" fill="#9F5622"></path>
                                <path d="M12.6056454,52.0860738 C12.6056454,52.0860738 25.5305358,52.1629911 32.5497328,72.2036682 C34.4715575,82.0159992 34.2797875,88.8897587 34.2797875,88.8897587 L39.6114078,88.8897587 L37.470594,61.2206229 C37.470594,61.2206229 16.2645359,47.1298707 12.6056454,52.0860738" id="Fill-10" fill="#98480C"></path>
                                <path d="M74.9196185,1.63052258 C46.2547354,-2.19383827 31.790323,10.6649961 27.9235785,19.2710486 C24.3446953,27.2369508 18.0142209,45.1777024 15.530283,52.2069505 C17.8282246,52.8127775 21.3654545,54.6984918 26.2471369,59.7324391 C28.755407,62.3186796 30.5691807,65.3668375 31.8868267,68.5440179 C31.9853924,68.7817998 32.0810712,69.0199953 32.1738632,69.2586044 C39.813323,69.3979653 63.2604105,68.3273262 81.60229,48.6484919 C82.3050345,47.8305219 83.3005893,48.4144317 84.0618958,48.6216122 C84.7332973,48.8039806 94.7845235,45.9468753 97.8511951,39.8311236 C96.7925418,28.6872139 90.9128301,4.46777818 74.9196185,1.63052258" id="Fill-12" fill="#FF5B0C"></path>
                                <path d="M98.2187771,37.4146395 C96.0325982,21.1371205 89.4616893,1.72377446 70.7696744,0.560917301 C44.3021045,-1.08577445 28.6083013,11.4844137 25.5106991,17.1841506 C22.4135092,22.8834739 12.4464142,49.7094141 12.212166,50.4140758 C11.9779178,51.1183239 12.492604,52.1777976 12.492604,52.1777976 C12.9210967,51.9855044 13.9228376,51.7836998 15.5304069,52.2071585 C18.0143449,45.1774968 24.3448195,27.2367447 27.9237028,19.2712559 C31.7904474,10.6647896 46.2544476,-2.1936316 74.9197438,1.63031581 C90.9129558,4.46798501 96.7926675,28.6870078 97.8513208,39.8309178 C98.0554632,39.4231734 98.2290873,39.0009553 98.3664194,38.5642636 C98.3194048,38.1829854 98.2703281,37.7996395 98.2187771,37.4146395" id="Fill-14" fill="#FFBC00"></path>
                                <path d="M24.5133295,46.0018751 C24.0118404,46.3678526 27.0702638,52.3818752 34.1067822,54.5611986 C34.6095085,54.6860858 44.9321,46.7574014 45.628246,42.7353713 C45.5507131,42.3962735 44.8937459,43.1716495 33.3722822,44.9552209 C28.9648697,45.4977773 24.7789207,45.8079277 24.5133295,46.0018751" id="Fill-17" fill="#1F191A"></path>
                                <path d="M98.3665418,38.5643882 C96.166341,45.5522831 84.7780854,48.8163057 84.0617314,48.6215312 C83.7581985,48.5388244 83.4175489,48.3973959 83.0727752,48.307659 C82.9931803,51.0700651 82.2145525,56.7015689 80.2382897,61.3707795 C77.9820014,66.7012307 75.8960378,70.1252909 69.9932312,69.5211179 C75.6951948,68.6998397 77.1938882,65.6475465 78.0904649,64.144351 C78.9866291,62.641569 80.94887,55.4518696 81.4899503,50.9120952 C81.6000635,49.987847 81.6536766,49.2306666 81.654089,48.5958921 C81.6367678,48.6136741 81.6190343,48.6289748 81.6025379,48.6484109 C63.2606581,68.3272457 39.8135701,69.3982984 32.1741102,69.258524 C34.9516832,76.3936368 35.3108913,84.0539377 35.3669788,88.5577347 C70.4089392,89.0051783 89.1562169,84.82187 92.7280892,82.1798023 C96.3003739,79.5377346 99.0523776,68.6750277 99.2280637,54.5611178 C99.276728,50.6507418 99.1443447,44.8873206 98.3665418,38.5643882" id="Fill-19" fill="#FFBC00"></path>
                                <path d="M83.0726553,48.3076596 C83.0837903,47.9164566 83.0813159,47.5823213 83.0660567,47.3172461 C82.9423341,45.1788627 80.8406991,44.3575845 80.0063962,44.326983 C79.1720933,44.295968 76.0505714,43.9705168 72.4811736,46.2015318 C72.4811736,46.2015318 76.3751371,44.8228101 78.831856,45.256607 C80.7887356,45.6019078 81.654794,46.111795 81.6539692,48.5958927 C82.0676151,48.1616822 82.5736407,48.17781 83.0726553,48.3076596" id="Fill-21" fill="#D23100"></path>
                                <path d="M81.4898659,50.9120096 C80.949198,55.451784 78.9865447,62.6414831 78.0903805,64.1442651 C77.1942162,65.6474605 75.6951104,68.6997537 69.9931468,69.5210319 C75.8959534,70.1252049 77.9823294,66.7011447 80.2382053,61.3706937 C82.2144681,56.7014832 82.9930958,51.0699795 83.0726907,48.3075735 C82.5736761,48.1777239 82.0676506,48.1615961 81.6540046,48.5958066 C81.6540046,49.230581 81.599979,49.988175 81.4898659,50.9120096" id="Fill-23" fill="#FFAD00"></path>
                                <path d="M48.8104342,100.913175 C51.0366168,101.284942 62.2978509,95.338739 69.0304242,95.338739 C75.7629976,95.338739 83.7505308,96.6810698 84.8347535,96.4962202 C85.9189761,96.3113706 86.1470382,95.6819721 83.9220928,95.338739 C81.6967351,94.995506 72.1115302,91.3911452 70.7992455,90.7617468 C69.4869608,90.1323483 67.5820446,90.2009949 66.0812891,90.366822 C64.5801211,90.5330626 61.2709531,91.0479122 61.2709531,91.9630625 C61.2709531,92.8786264 58.1329347,96.2538894 55.7364273,97.0549044 C53.3403322,97.8559194 47.5897042,100.709303 48.8104342,100.913175" id="Fill-25" fill="#98480C"></path>
                                <path d="M10.2255923,56.9898816 C10.2185813,57.0361974 10.2140448,57.0792049 10.21322,57.1168365 C10.1917747,58.2912726 9.92824554,59.8085282 15.1984171,60.5719116 C15.1984171,60.5719116 16.2434609,60.5834906 17.6048222,59.775859 C18.9579354,58.9727763 11.2854828,56.9038666 10.2255923,56.9898816" id="Fill-27" fill="#98480C"></path>
                                <path d="M15.1985411,75.0926575 C15.1985411,75.0926575 11.8827747,74.4541613 11.4105667,73.0059659 C10.9383586,71.5577705 17.4659645,72.6437103 17.5212273,72.7272441 C17.5769024,72.8111915 17.7645484,74.4496125 15.1985411,75.0926575" id="Fill-29" fill="#98480C"></path>
                            </g>
                        </g>
                    </g>
                </g>
            </g>
        </g>
    </g>
</svg>