<?xml version="1.0" encoding="UTF-8" standalone="no"?>
<svg width="192px" height="121px" viewBox="0 0 192 121" version="1.1" xmlns="http://www.w3.org/2000/svg" xmlns:xlink="http://www.w3.org/1999/xlink">
    <!-- Generator: Sketch 41.2 (35397) - http://www.bohemiancoding.com/sketch -->
    <title>Character</title>
    <desc>Created with Sketch.</desc>
    <defs>
        <rect id="path-1" x="0" y="0" width="192" height="121"></rect>
    </defs>
    <g id="Symbols" stroke="none" stroke-width="1" fill="none" fill-rule="evenodd">
        <g id="Summary-Default" transform="translate(-30.000000, -30.000000)">
            <g id="Character" transform="translate(30.000000, 30.000000)">
                <mask id="mask-2" fill="white">
                    <use xlink:href="#path-1"></use>
                </mask>
                <g id="Mask"></g>
                <g id="Defender" mask="url(#mask-2)">
                    <path d="M164.495456,57.7928643 C164.495456,57.7928643 159.68282,56.090654 160.793401,53.7440229 C161.219522,52.8440076 163.060546,52.1161418 164.934915,49.832971 C166.809284,47.5501509 171.25161,47.5501509 171.25161,47.5501509 L164.495456,57.7928643 Z" id="Fill-1" fill="#E53500"></path>
                    <path d="M47.5962033,127.25893 C47.5962033,127.25893 43.5849126,128.250104 43.8351795,132.254067 C44.0854464,136.25803 57.2449931,140.943579 92.8432673,138.863061 C128.441541,136.782543 120.846836,124.790988 120.288035,124.420043 C119.330141,123.784037 118.868569,124.036476 118.868569,124.036476 L118.868569,111.800546 L50.0328834,113.633884 L47.5962033,127.25893 Z" id="Fill-10" fill="#FFBD00"></path>
                    <path d="M51.0884973,115.737437 C51.0884973,115.737437 78.8600512,118.992849 89.4007459,118.86663 C99.9414406,118.74041 118.687239,113.255471 118.687239,113.255471 C118.687239,113.255471 112.691013,122.27105 83.1521463,122.838687 C53.6132797,123.405974 51.0884973,115.737437 51.0884973,115.737437" id="Fill-12" fill="#FFAD00"></path>
                    <path d="M50.4007371,107.518303 C50.4007371,107.518303 48.3743824,109.179843 48.4375634,112.47873 C48.5007444,115.777267 50.8981119,116.529675 54.1491247,117.540483 C57.4001375,118.551291 70.7825726,121.892953 89.243706,121.199447 C107.704839,120.505941 118.687099,115.14687 119.886485,114.011947 C121.08552,112.877373 122.161351,108.274919 118.309768,107.518303 C114.458185,106.761688 50.4007371,107.518303 50.4007371,107.518303" id="Fill-14" fill="#FFBD00"></path>
                    <path d="M171.231532,63.3484512 C171.231532,63.3484512 166.470143,75.6583598 162.858296,80.905936 C159.24645,86.1538628 155.431722,86.8098537 155.431722,86.8098537 C155.431722,86.8098537 154.509982,80.3018354 152.919225,78.1105244 C156.455254,68.4424604 156.455254,53.3294268 139.123656,50.6970488 C135.600263,48.1284817 122.634121,33.6756463 108.022113,31.2154177 C97.5754881,29.4567591 87.007064,28.5262409 56.798128,38.7265305 C48.7530823,36.7915152 33.2537331,37.9096098 27.3764973,53.3399451 C11.9768336,66.1466677 7.44675686,76.2750823 6.22595978,84.2581159 C5.15609506,91.2555854 5.50990859,94.4738323 4.46391225,97.4045793 C6.54186472,95.5740457 11.613543,92.6317287 21.3549982,94.9450518 C31.6082194,97.3800366 34.5787788,101.001134 35.5170165,104.524412 C36.0431737,104.545799 40.0888629,104.591378 46.2469031,101.31493 C46.7828885,105.013162 50.400702,110.097003 50.400702,110.097003 C50.400702,110.097003 60.3892651,120.642994 97.9149104,116.763848 C119.514735,114.524854 118.580358,109.277277 119.375737,108.293116 C120.171466,107.309305 123.347364,102.115723 123.347364,102.115723 L125.905141,100.526409 C125.905141,100.526409 127.314428,114.289595 137.452168,127.03496 C140.037324,132.236607 144.90226,131.350265 146.604636,131.222994 C148.306662,131.095372 161.493938,128.161119 168.415064,119.375189 C175.335839,110.589259 175.24879,89.4229482 182.046362,76.4879024 C188.844285,63.5525061 171.231532,63.3484512 171.231532,63.3484512" id="Fill-18" fill="#A05621"></path>
                    <path id="Fill-20" fill="#98480B"></path>
                    <path d="M100.865147,97.7307515 C82.0200132,101.473861 67.9990991,99.6289527 63.2338486,97.5133735 C58.4685982,95.3981448 62.1748651,74.5957668 61.8989748,73.1852637 C61.6416878,71.8701265 59.6399035,71.4378247 59.3713843,71.3855838 C59.41526,71.5328399 59.4752819,72.4083125 59.3397938,76.8025046 C57.563706,94.8757363 46.2469382,101.315035 46.2469382,101.315035 C46.7829236,105.013267 50.4007371,110.097108 50.4007371,110.097108 C50.4007371,110.097108 54.0954208,113.996239 65.4279839,116.180538 C62.4862069,111.822108 65.4764227,109.947047 66.4104483,109.325066 C63.2338486,107.5622 61.8989748,104.91755 63.5866091,102.802322 C84.5890223,105.622977 98.0023459,100.686742 98.0023459,100.686742 C98.0023459,100.686742 97.1195671,106.50441 96.9696878,109.325066 C99.996408,107.5622 99.7672015,100.863099 99.7672015,100.863099 C99.7672015,100.863099 120.71556,104.142002 123.120649,102.48537 C123.259999,102.258877 123.347399,102.115828 123.347399,102.115828 C113.923955,102.66348 101.708613,98.3948064 100.865147,97.7307515" id="Fill-22" fill="#98480B"></path>
                    <path d="M99.4790962,98.5155915 C99.4790962,98.5155915 106.798263,87.1719634 107.151374,62.667497 C107.32793,61.4337012 110.78393,67.0154085 106.51114,84.8204238 C103.663784,97.6565976 100.235513,99.750439 100.235513,99.750439 L99.4790962,98.5155915 Z" id="Fill-24" fill="#98480B"></path>
                    <path d="M78.8277938,59.4663598 C81.0363203,59.7254604 99.8842618,60.1311159 100.971326,60.1153384 C102.058741,60.0999116 101.515033,61.557747 99.7937024,61.7109634 C98.0723715,61.8645305 81.5414172,61.1727774 80.4515452,61.1727774 C77.8695488,61.1727774 77.4876548,59.3092866 78.8277938,59.4663598" id="Fill-26" fill="#98480B"></path>
                    <path d="M114.832638,61.4119634 C115.980426,60.8941128 122.669186,60.4569024 126.202407,60.5950427 C129.735629,60.7331829 134.446473,60.8625579 135.307139,60.7980457 C136.167804,60.7331829 136.031965,61.1405915 135.307139,61.5476494 C134.582312,61.9550579 125.61342,62.0981067 122.759746,62.229936 C119.906071,62.3621159 115.194875,62.6264756 114.832638,62.6075427 C114.4704,62.5882591 114.350005,61.6296921 114.832638,61.4119634" id="Fill-28" fill="#98480B"></path>
                    <path d="M126.338282,52.996032 C126.338282,52.996032 132.679898,53.1769466 136.711547,56.2991265 C138.342318,57.3397363 139.882179,55.3942027 140.561726,55.2585168 C139.474662,53.8104985 139.248263,53.3578613 138.704556,52.2720229 C138.160848,51.1861845 137.753331,51.5027851 137.662771,51.6840503 C137.572212,51.8649649 136.303678,53.9009558 135.261894,53.8557271 C134.22011,53.8104985 130.958567,51.9101936 126.338282,52.996032" id="Fill-30" fill="#98480B"></path>
                    <path d="M72.8617185,47.4840259 C74.1902742,51.3747424 72.4289287,53.7476692 72.8617185,54.050596 C73.2945082,54.3535229 77.8695137,49.2416326 80.7231883,48.8338735 C83.5772139,48.4261143 86.0682998,48.8787515 86.657287,48.0190564 C87.2462742,47.1593613 88.831766,47.085032 83.1693455,47.4840259 C77.5072761,47.8830198 75.3780768,48.4261143 74.6532505,48.1547424 C73.9287751,47.8830198 72.639181,46.8322424 72.8617185,47.4840259" id="Fill-32" fill="#98480B"></path>
                    <path d="M70.9843305,47.747404 C68.7340344,43.5208034 63.2004329,39.3716875 60.4871605,37.5071448 C59.2870728,37.8970229 58.0659247,38.298471 56.7980929,38.7265655 C56.7980929,38.7265655 65.4581002,41.7295381 70.9843305,47.747404" id="Fill-34" fill="#98480B"></path>
                    <path d="M72.6239122,39.2381402 C75.0002194,37.6344512 83.9326069,31.8606098 89.8024717,31.5489177 C92.9990786,35.756936 92.636841,36.7523171 92.636841,36.7523171 C92.636841,36.7523171 85.217287,36.1857317 72.73483,39.4597256 C72.5968848,39.4958384 72.5059744,39.3177287 72.6239122,39.2381402" id="Fill-36" fill="#98480B"></path>
                    <path d="M124.169384,43.7657043 C124.169384,43.7657043 127.695585,44.1405061 133.623365,48.558189 C133.751131,48.6532043 133.915051,48.4947287 133.824491,48.3643018 C129.894985,42.6966951 126.338246,40.4934634 126.338246,40.4934634 L124.169384,43.7657043 Z" id="Fill-38" fill="#98480B"></path>
                    <path d="M161.256202,119.843534 C161.256202,119.843534 146.725628,104.682116 142.838593,102.74079 C138.951207,100.799463 138.303602,93.6810335 138.395917,92.3869329 C138.488582,91.0924817 144.504465,78.5199665 144.583792,71.3857591 C144.66312,64.2515518 146.910608,63.821003 145.413218,64.560439 C143.915478,65.299875 143.393884,66.131872 143.393884,66.5017652 C143.393884,66.8716585 143.301218,73.9900884 141.635346,80.0913994 C137.00769,94.8829238 125.905035,100.526338 125.905035,100.526338 C125.905035,100.526338 127.314673,114.289875 137.452063,127.03489 C140.037218,132.236537 144.902154,131.350546 146.604531,131.222924 C147.552246,131.152101 152.061613,130.20896 157.0666,127.871796 C160.317613,124.100988 161.256202,119.843534 161.256202,119.843534" id="Fill-40" fill="#98480B"></path>
                    <path d="M146.355422,93.4962271 L141.820431,103.018087 L151.694216,118.06205 L169.992483,116.945008 C175.364622,107.136349 175.811101,88.3531326 182.046362,76.4877973 C188.844285,63.5527515 171.231532,63.348346 171.231532,63.348346 C171.231532,63.348346 166.470143,75.6582546 162.858296,80.9061814 C159.24645,86.1537576 155.431722,86.8097485 155.431722,86.8097485 C150.903049,88.6287119 146.355422,93.4962271 146.355422,93.4962271" id="Fill-42" fill="#FF5A0C"></path>
                    <path d="M162.274258,112.47859 C152.278675,109.027188 142.283092,105.051974 146.355457,93.4962271 C146.355457,93.4962271 135.434624,101.539215 141.265176,114.851517 C145.46952,124.45016 154.002463,126.694413 158.437066,127.200343 C162.012759,125.37016 165.696913,122.825785 168.415099,119.375084 C169.982339,117.385373 171.188393,114.756502 172.198236,111.735998 C170.497615,113.189276 167.478967,114.275816 162.274258,112.47859" id="Fill-44" fill="#FFBD00"></path>
                    <path d="M23.1933192,95.4152546 C23.1933192,95.4152546 38.6270303,87.999157 44.5502479,68.1658643 C41.2185038,58.501657 33.6968073,61.0341113 33.1415166,58.1815503 C36.2756446,58.9209863 42.0335386,61.2493857 44.6618676,61.5887759 C51.7458603,62.5038674 56.7982333,55.5127088 58.6494362,54.0506662 C61.6287707,57.4038979 58.2612241,68.4712454 59.339864,71.3795534 C60.4185038,74.2882119 58.9874545,104.524447 35.5171218,104.524447 C24.527491,101.011337 23.1933192,95.4152546 23.1933192,95.4152546" id="Fill-46" fill="#98480B"></path>
                    <path d="M30.6626106,114.237599 C28.3487824,110.819855 22.815883,105.092294 12.7560658,105.293194 C4.31824497,105.461837 1.00440219,110.376684 0.202705667,115.273651 C0.5056234,118.665099 1.1711298,122.849627 2.35156124,128.069505 C3.11113711,131.222889 15.9488117,143.834672 20.6203437,149.754367 C25.2922267,155.674062 34.3053455,144.864062 33.8128848,142.732005 C33.3204241,140.600297 26.8422669,133.98955 27.3722852,131.391181 C27.6106179,130.2233 29.2673638,127.888239 31.0044899,124.721181 C31.584702,121.651944 32.22634,116.547416 30.6626106,114.237599" id="Fill-48" fill="#FF5A0C"></path>
                    <path d="M85.3093909,34.6543735 C85.3093909,34.6543735 84.4532885,42.4466753 88.6632483,46.8191296 C92.873208,51.1912332 94.2642428,55.1548765 97.5471971,57.3363704 C100.830502,59.5178643 101.059007,63.9218735 107.828499,63.5814314 C114.597639,63.2406387 114.440038,59.2759436 115.902678,58.306157 C117.365318,57.3363704 126.498129,51.4654101 125.051636,43.1044192 C123.604791,34.7434284 85.3093909,34.6543735 85.3093909,34.6543735" id="Fill-50" fill="#98480B"></path>
                    <g id="Group-54" transform="translate(82.135283, 0.164085)" fill="#FF5A0C">
                        <path d="M51.9337887,12.4040122 C51.4820446,9.75796037 43.7079751,1.72268598 30.8187027,0.482929878 C24.5293865,-0.122222561 19.2857155,0.294652439 15.5647064,0.880170732 C11.8865199,1.45902744 8.80504278,3.96062805 7.49509031,7.44218293 L3.79865155,17.2680213 C0.838622303,17.3633872 0.552201828,25.4698354 0.179785009,27.66325 C-0.19263181,29.8566646 0.667682633,31.1584787 0.667682633,31.1584787 C0.667682633,31.1584787 0.934095795,34.7203232 1.7091159,36.8674573 C2.33530969,38.6019238 8.4220958,47.6245152 10.73803,51.0271829 C11.5548197,51.010003 12.8602091,50.4122134 15.0648746,48.490872 C19.2657082,44.8298049 27.9836314,35.4857043 32.1700739,36.8674573 C36.3561653,38.2492104 36.1603042,52.554439 35.7331305,53.5080976 C35.632743,53.7328384 35.5948344,53.9134024 35.5902713,54.0627622 C39.0747027,51.5779909 45.2004505,46.2613445 46.0291744,41.8622439 C47.1088673,36.1287226 52.6828344,16.7908415 51.9337887,12.4040122" id="Fill-52"></path>
                    </g>
                    <path d="M97.2000176,48.6549223 C94.9957031,50.5762637 93.6899627,51.1740534 92.8731729,51.1912332 C93.4235495,52.0000899 93.7629718,52.4944497 93.7629718,52.4944497 C93.7629718,52.4944497 98.5366464,58.2500595 105.293853,59.1083521 C112.050709,59.9666448 114.004054,56.1520107 115.50355,55.6040076 C115.852449,55.4763857 116.668888,54.9802729 117.725414,54.2268125 C117.729977,54.0774527 117.767886,53.8968887 117.868624,53.6724985 C118.295798,52.7184893 118.491659,38.4132607 114.305217,37.0315076 C110.118774,35.6497546 101.401202,44.9938552 97.2000176,48.6549223 Z" id="Fill-55" fill="#A05621"></path>
                    <path d="M109.997572,0.432897866 C112.262962,2.20172409 115.307232,5.97112957 115.503444,13.5218613 C115.763539,23.5282637 112.880029,33.8698491 111.868782,37.1655808 C112.778589,36.8745747 113.605909,36.800596 114.305112,37.0316479 C114.689463,37.158218 115.035905,37.3959314 115.349353,37.7198948 C116.101558,34.1093155 118.509806,22.4259466 118.937682,18.8360534 C119.399605,14.9628674 119.071766,5.48448323 115.493265,0.989666159 C114.669806,0.847669207 113.824585,0.730565549 112.95374,0.646769817 C111.939335,0.549300305 110.955466,0.480931402 109.997572,0.432897866" id="Fill-57" fill="#FFBD00"></path>
                    <path d="M92.857483,37.7198948 C89.084525,31.7917851 88.3207371,24.3939192 86.2203203,22.9634314 C84.5032015,21.7937973 85.3901923,18.8451692 84.6383386,18.117654 C82.875238,20.1298034 82.6239181,26.0084771 82.3150333,27.8270899 C81.9426165,30.0208552 82.8029309,31.3226692 82.8029309,31.3226692 C82.8029309,31.3226692 83.0693441,34.8845137 83.8443642,37.0316479 C84.470558,38.7661143 90.5573441,47.7883552 92.8732782,51.1913735 C93.690068,51.173843 94.9954574,50.576404 97.2001229,48.6550625 C98.3412417,47.6603826 99.8165177,46.2460229 101.442726,44.741907 C98.8140461,43.4797119 95.0740826,41.2028521 92.857483,37.7198948" id="Fill-59" fill="#FFBD00"></path>
                    <path d="M117.751915,44.9628963 C118.251045,49.0120884 118.09239,53.1727744 117.868449,53.6723933 C117.768061,53.8967835 117.730153,54.0773476 117.72559,54.2267073 C121.210021,51.741936 127.335769,46.4256402 128.164493,42.026189 C128.373341,40.9158079 128.752427,39.2914329 129.219966,37.3676372 C124.859074,44.0670884 119.909546,44.599314 117.751915,44.9628963" id="Fill-61" fill="#FFBD00"></path>
                    <path d="M109.676613,44.4183643 C109.861593,44.9327088 114.579808,45.1241418 115.73602,44.9530442 C116.164247,43.7125869 115.714609,41.3677088 114.986624,41.2569162 C114.258638,41.1461235 113.63771,41.1247363 112.909724,41.7021905 C112.181739,42.2796448 109.184152,43.0495838 109.676613,44.4183643" id="Fill-63" fill="#98480B"></path>
                    <path d="M102.696483,51.0698171 C102.177346,52.495747 106.400644,49.4391311 108.648834,50.0832012 C110.897024,50.727622 112.888278,52.0322409 114.472717,51.3264634 C116.057155,50.620686 115.371993,48.9310976 115.371993,48.9310976 C115.371993,48.9310976 114.618735,49.9576829 112.254713,49.9576829 C109.890691,49.9576829 108.820124,48.571372 107.085806,48.6548171 C105.351488,48.7386128 103.210355,49.6582622 102.696483,51.0698171" id="Fill-65" fill="#98480B"></path>
                    <path d="M109.047506,53.1229878 C109.413253,52.8197104 110.425904,51.7542073 111.47506,52.2888872 C112.524215,52.8235671 112.716917,53.2940854 112.631272,53.4437957 C112.545626,53.5935061 110.982599,53.9514787 110.276025,54.1358994 C109.569451,54.3206707 108.330401,53.717622 109.047506,53.1229878" id="Fill-67" fill="#98480B"></path>
                    <path d="M97.5473024,26.7017027 C97.6094303,25.7810015 101.045423,31.5011997 107.828253,33.3780137 C104.76222,36.5433186 102.734812,36.7691113 101.669511,36.7806814 C100.60456,36.7926021 97.5473024,33.0547515 97.5473024,26.7017027" id="Fill-69" fill="#1F191A"></path>
                    <path d="M119.202165,34.6329863 C119.202165,34.6329863 124.856512,33.9826052 127.101543,31.6913704 C125.688395,38.0689619 121.896483,39.6049832 121.896483,39.6049832 C121.896483,39.6049832 118.010852,34.8188095 119.202165,34.6329863" id="Fill-71" fill="#1F191A"></path>
                    <path d="M182.046502,76.4878323 C182.046502,76.4878323 189.535906,60.7868262 190.015029,60.0936707 C190.494502,59.4008659 191.863424,58.3904085 191.708279,57.0482744 C191.553135,55.7061402 193.42961,53.5383201 188.504301,51.4970701 C183.578992,49.4561707 175.378802,46.0019634 174.086751,45.4858659 C172.7947,44.9697683 171.296257,45.1762774 170.521237,47.1894787 C169.276923,47.2603018 167.627197,47.0860488 167.368857,47.0860488 C167.110517,47.0860488 166.076806,47.4990671 165.818466,47.8601951 C165.560126,48.2216738 164.991848,50.2864146 164.991848,50.2864146 C164.991848,50.2864146 163.544652,50.234875 163.131519,50.3894939 C162.718034,50.5444634 162.356148,51.4970701 162.356148,51.4970701 C162.356148,51.4970701 160.547767,56.6871463 160.134283,63.1394177 C159.823994,65.4622073 160.857705,66.7524512 161.477932,67.4235183 C162.097808,68.0945854 164.750005,70.0727256 165.68017,70.3826646 C166.610334,70.692253 168.25304,68.4427409 168.269537,68.0297226 C168.286034,67.6170549 168.505764,67.8880762 168.660908,67.8880762 C168.815702,67.8880762 164.98904,71.4741128 165.946583,75.4363537 C166.903775,79.3989451 181.789917,76.7770854 182.046502,76.4878323" id="Fill-73" fill="#FF5A0C"></path>
                    <path d="M184.318596,63.7586646 C185.042018,63.6555854 185.713843,62.3443049 185.972183,61.4253567 C186.230523,60.5067591 187.315832,60.2487104 187.62577,60.1452805 C187.936059,60.0422012 188.555934,58.2835427 188.711079,57.9757073 C188.866223,57.667872 190.984892,56.8418354 191.243232,56.2741982 C192.026325,58.2207835 189.981367,60.1477348 189.981367,60.1477348 C189.981367,60.1477348 185.005514,70.3269878 184.436885,71.4927652 C183.937053,72.5175976 184.318596,63.7586646 184.318596,63.7586646" id="Fill-75" fill="#E53500"></path>
                    <path d="M184.318596,63.7586646 C183.72294,63.959564 183.306296,64.7221402 183.306296,65.4847165 C183.306296,66.2476433 179.627408,75.5815762 178.725324,77.6052957 C177.822888,79.6293659 179.349762,79.2826128 180.11355,78.5891067 C180.876987,77.8959512 183.41581,73.6868811 184.436885,71.4927652 C185.458311,69.2982988 184.318596,63.7586646 184.318596,63.7586646" id="Fill-77" fill="#E53500"></path>
                    <path d="M191.243197,56.274093 C191.074012,55.7744741 190.52153,54.7752363 190.551716,54.3576601 C190.581552,53.9400838 191.522246,54.312782 191.641588,54.6258765 C191.76093,54.9393216 191.512418,57.1530716 191.382195,57.6667149 C191.251972,58.1803582 191.243197,56.274093 191.243197,56.274093" id="Fill-79" fill="#E53500"></path>
                    <path d="M168.134084,67.6936631 C167.676724,66.6071235 166.104921,63.2640595 164.113316,63.3485564 C165.766903,60.9714223 166.593521,56.8934802 166.593521,56.8934802 C166.593521,56.8934802 166.457682,59.5777485 167.714282,60.919532 C168.970881,62.2616662 168.040717,64.5325655 170.31453,64.3004619 C169.510728,67.5762088 167.795364,68.9884649 167.795364,68.9884649 L168.112673,68.3471997 C168.214113,68.1417424 168.223239,67.9050808 168.134084,67.6936631" id="Fill-81" fill="#E53500"></path>
                    <path d="M24.8214581,138.4627 C21.5265697,134.539727 26.2440834,124.619925 30.2086903,116.180748 C30.4543941,115.657989 30.6748256,115.138386 30.8836739,114.620886 C30.8145258,114.487654 30.7432717,114.356526 30.6625404,114.237669 C28.3487122,110.819925 22.8158128,105.092364 12.7559956,105.293264 C4.31817477,105.461907 1.00433199,110.376755 0.202635466,115.273721 C0.505904205,118.665169 1.1710596,122.849697 2.35149104,128.069575 C3.11106691,131.222959 15.9487415,143.834742 20.6206245,149.754437 C25.2921565,155.674133 34.3052753,144.864133 33.8128146,142.732075 C33.5046318,141.398355 30.8545404,138.312288 29.0426501,135.551938 L29.0086026,135.60488 C29.0086026,135.60488 26.7397031,136.390596 24.8214581,138.4627" id="Fill-107" fill="#FF5A0C"></path>
                    <path d="M33.2049784,100.462002 C33.9975488,101.280325 34.5559985,102.121788 34.9529857,102.96816 C34.5570516,102.121438 33.9975488,101.280325 33.2049784,100.462002" id="Fill-109" fill="#FFBD00"></path>
                    <path id="Fill-111" fill="#FFBD00"></path>
                    <path id="Fill-113" fill="#FFBD00"></path>
                    <path id="Fill-115" fill="#FFBD00"></path>
                    <path d="M12.7560307,105.293229 C22.8158479,105.092329 28.3487473,110.81989 30.6625755,114.237634 C30.7433068,114.356841 30.8145609,114.487619 30.883709,114.620851 C33.448506,108.26079 33.3393433,102.432954 33.2049082,100.461826 C31.1831166,98.3746463 27.6376102,96.4371768 21.3549631,94.9449817 C11.6135079,92.6320091 6.54182962,95.5739756 4.46387715,97.4045091 C4.31680585,97.8171768 4.14235612,98.2242348 3.93140183,98.6351494 C2.60074004,101.231415 -0.869651188,103.277924 0.202670567,115.273686 C1.00436709,110.37672 4.31820987,105.461872 12.7560307,105.293229" id="Fill-117" fill="#FFBD00"></path>
                    <path id="Fill-127" fill="#E53500"></path>
                    <path id="Fill-135" fill="#E53500"></path>
                    <path id="Fill-137" fill="#E53500"></path>
                    <path id="Fill-141" fill="#E53500"></path>
                    <path d="M30.8836037,114.620851 C30.6751064,115.138351 30.4543239,115.657954 30.2089711,116.180713 C26.2440132,124.61989 21.5264995,134.539692 24.8213879,138.462665 C26.7396329,136.390561 29.0088834,135.604845 29.0088834,135.604845 L29.0425799,135.551902 C28.921834,135.367832 27.0393916,132.294738 27.3921521,131.37018 C27.8168687,130.256643 29.2633623,127.888274 31.0004885,124.721216 C31.5508651,121.810104 32.1567005,117.072665 30.8836037,114.620851" id="Fill-143" fill="#E53500"></path>
                    <path d="M35.3817038,104.06613 C35.3715247,104.033523 35.3609945,104.001267 35.3501133,103.96866 C35.2988665,103.813691 35.2444607,103.658721 35.1837367,103.503401 L35.1774186,103.488325 C35.1156417,103.331602 35.0482486,103.17523 34.9762925,103.018508 L34.9531261,102.96837 C34.5561389,102.121648 33.9976892,101.280535 33.2051188,100.461861 L33.2047678,100.461861 C33.3392029,102.432989 33.4483656,108.260825 30.8835686,114.620886 C32.1566654,117.0727 31.554691,121.810139 31.0043144,124.721252 C31.4076197,123.985672 31.8144351,123.205916 32.2100183,122.384788 C33.0475174,119.98241 34.0271737,117.022913 34.7772724,114.317608 C35.0212212,113.438279 35.1911079,112.541419 35.2490238,111.630886 C35.2844753,111.071663 35.2995686,110.505779 35.2904424,109.933233 L35.454713,104.521221 C35.454713,104.521221 35.4782303,104.522623 35.517192,104.524377 C35.4764753,104.371861 35.4304936,104.218995 35.3817038,104.06613" id="Fill-145" fill="#FFAD00"></path>
                    <path d="M165.284586,50.3683171 C165.284586,50.3683171 176.730875,52.9221585 177.950619,53.1658323 C179.129998,53.4908476 180.919073,54.202936 181.203738,54.1717317 C181.488404,54.1405274 181.203738,53.8155122 181.203738,53.8155122 C181.203738,53.8155122 177.199468,51.3966555 173.16115,49.6239726 C170.302912,48.3691402 168.291299,47.7433018 167.91432,47.8337591 C167.005215,48.0525396 165.284586,50.3683171 165.284586,50.3683171" id="Fill-147" fill="#E53500"></path>
                    <path d="M170.702918,47.2551479 C170.702918,47.2551479 172.731729,47.7228613 173.42321,48.0072058 C174.11434,48.2915503 178.302537,49.5509405 179.563349,50.2412912 C180.82381,50.9316418 182.621309,51.7440046 184.162223,52.5160473 C185.703488,53.2877393 186.069236,53.1250564 185.662771,52.8000412 C185.255956,52.4753765 179.88838,49.6319314 179.88838,49.6319314 C179.88838,49.6319314 172.643627,46.2404832 172.16275,46.1794771 C171.681521,46.118471 170.702918,47.2551479 170.702918,47.2551479" id="Fill-149" fill="#E53500"></path>
                </g>
            </g>
        </g>
    </g>
</svg>