<svg xmlns="http://www.w3.org/2000/svg" width="32" height="32"><path d="M23.6 9c-1.4-.6-2.9-1.1-4.5-1.4H19c-.2.3-.4.8-.6 1.1-1.7-.3-3.4-.3-5 0-.2-.4-.4-.8-.6-1.1h-.1c-1.4.3-2.9.8-4.3 1.4-2.9 4.3-3.6 8.4-3.3 12.5v.1c1.9 1.4 3.7 2.2 5.5 2.8h.1c.4-.6.8-1.2 1.1-1.8v-.1c-.6-.2-1.2-.5-1.7-.8v-.1l.3-.3h.1c3.6 1.6 7.5 1.6 11.1 0h.1l.3.3v.1c-.5.3-1.1.6-1.7.8 0 0-.1.1 0 .1.3.6.7 1.2 1.1 1.8h.1c1.8-.6 3.6-1.4 5.5-2.8v-.1c.4-4.7-.9-8.8-3.4-12.5zM12.4 19.1c-1.1 0-2-1-2-2.2s.9-2.2 2-2.2 2 1 2 2.2c-.1 1.2-.9 2.2-2 2.2zm7.3 0c-1.1 0-2-1-2-2.2s.9-2.2 2-2.2 2 1 2 2.2c-.1 1.2-.9 2.2-2 2.2z" fill="#fff"/></svg>