<svg width="32" height="32" viewBox="0 0 32 32" fill="none" xmlns="http://www.w3.org/2000/svg"><path d="M10.184 26.894h11.632c2.12 0 3.184-1.054 3.184-3.143V13.63c0-2.09-1.064-3.145-3.184-3.145h-2.83v1.633h2.8c1.003 0 1.582.548 1.582 1.603v9.937c0 1.055-.578 1.603-1.583 1.603h-11.58c-1.015 0-1.572-.548-1.572-1.603v-9.938c0-1.054.557-1.602 1.571-1.602h2.81v-1.633h-2.83C8.065 10.486 7 11.541 7 13.63v10.12c0 2.089 1.064 3.144 3.184 3.144Z" fill="#fff"/><path d="M15.995 20.221c.213 0 .385-.06.589-.263l3.426-3.316c.153-.152.244-.315.244-.527 0-.416-.324-.71-.74-.71a.726.726 0 0 0-.548.243l-1.541 1.633-.68.72.061-1.522V5.792c0-.427-.375-.792-.81-.792-.436 0-.801.365-.801.791V16.48l.06 1.522-.69-.72-1.531-1.633a.761.761 0 0 0-.557-.243c-.426 0-.73.293-.73.71 0 .212.08.375.233.527l3.427 3.316c.213.203.386.264.588.264Z" fill="#fff"/></svg>