<svg width="32" height="32" viewBox="0 0 32 32" fill="none" xmlns="http://www.w3.org/2000/svg"><path fill-rule="evenodd" clip-rule="evenodd" d="M10.714 8.619C11.789 7.329 13.683 6 16.293 6c1.26 0 2.21.33 2.22.333l.004-.002c1.802.582 3.343 1.805 4.276 3.607l-.002.001c.017.03.824 1.423.824 3.423 0 2.16-.835 3.708-.835 3.708-.583 1.207-1.774 2.69-2.25 3.282-.08.1-.14.174-.173.218-.863 1.082-1.74 2.209-2.447 3.476-.36.657-.588 1.352-.879 2.262-.14.418-.321.689-.72.689-.367 0-.538-.16-.727-.692-.307-.964-.483-1.507-.904-2.307a21.213 21.213 0 0 0-1.65-2.44v-.003a37.276 37.276 0 0 0-.907-1.158c-.873-1.086-1.832-2.28-2.403-3.587 0 0-.72-1.414-.72-3.461 0-1.935.75-3.627 1.714-4.73Zm3.441 2.903.002.002-.014.017c-.093.114-.628.81-.628 1.786a2.781 2.781 0 0 0 2.791 2.794c1.06 0 1.756-.585 2.025-.86l.126-.144.052-.065c.15-.203.59-.866.59-1.746 0-1.594-1.339-2.786-2.786-2.786-1.368 0-2.154 1-2.154 1v-.002l-.004.004Z" fill="#fff"/></svg>