<svg width="32" height="32" viewBox="0 0 32 32" fill="none" xmlns="http://www.w3.org/2000/svg"><path fill-rule="evenodd" clip-rule="evenodd" d="M5.597 4C4.719 4 4 4.719 4 5.599v16.279c0 .878.719 1.597 1.597 1.597h10l1.477 4.53h9.33c.877 0 1.596-.707 1.596-1.573v-16.04c0-.866-.719-1.573-1.597-1.573h-9.93L14.927 4h-9.33Zm15.58 19.475-3.45 3.808h8.676a.88.88 0 0 0 .62-.254.825.825 0 0 0 .256-.597v-16.04a.834.834 0 0 0-.255-.597.881.881 0 0 0-.62-.255h-9.698l1.595 4.968h2.204v-1.52h1.472v1.52h4.532v.94h-.002v-.002h-2.035c-.197 1.252-1.13 2.62-2.048 3.708.685.735 1.618 1.651 2.89 2.806l-.772.772a52.625 52.625 0 0 1-2.818-2.806c-.71.752-1.277 1.24-1.277 1.24l-.375-1.173s.407-.325.943-.873c-1.65-1.933-1.7-2.611-1.7-2.611h1.221s.005.452 1.18 1.844c.665-.796 1.345-1.82 1.653-2.905h-4.766l2.578 8.027h-.005Zm-8.246-9.12c-.06.728-.683 1.807-2.191 1.807-1.306 0-2.364-1.08-2.364-2.41 0-1.329 1.058-2.408 2.364-2.408.743 0 1.238.322 1.522.584l.99-.952a3.632 3.632 0 0 0-2.512-.977 3.753 3.753 0 0 0-3.751 3.752c0 2.07 1.68 3.75 3.751 3.75 2.169 0 3.602-1.521 3.602-3.669 0-.308-.038-.534-.089-.764h-3.51v1.284l2.188.002Z" fill="#fff"/></svg>