<svg width="32" height="32" viewBox="0 0 32 32" fill="none" xmlns="http://www.w3.org/2000/svg"><path d="m3.395 13.422 2.5 1.67c2.482-3.052 6.262-5.007 10.5-5.007 4.242 0 8.022 1.955 10.503 5.007l2.498-1.67c-3.023-3.856-7.717-6.342-13-6.342S6.419 9.565 3.395 13.422Z" fill="#fff"/><path d="m8.41 16.772 2.526 1.687a7.46 7.46 0 0 1 5.46-2.38c2.16 0 4.09.92 5.463 2.376l2.52-1.688c-1.933-2.25-4.79-3.683-7.99-3.683-3.194 0-6.052 1.43-7.982 3.682l.003.006Z" fill="#fff"/><path d="M16.395 22.417a2 2 0 1 0 0-4 2 2 0 0 0 0 4Z" fill="#fff"/></svg>