<svg width="32" height="32" viewBox="0 0 32 32" fill="none" xmlns="http://www.w3.org/2000/svg"><path fill-rule="evenodd" clip-rule="evenodd" d="M25.778 11.37H23.39V7H8.99v4.37H6.612a1.5 1.5 0 0 0-1.607 1.317L5 12.728v7.434l.005.042a1.5 1.5 0 0 0 1.593 1.316H8.99v2.88h14.4v-2.88h2.388a1.5 1.5 0 0 0 1.607-1.317l.005-.041v-7.434l-.005-.041a1.5 1.5 0 0 0-1.607-1.317Zm.07 8.75.037.004a.1.1 0 0 0 .105-.066v-7.226a.1.1 0 0 0-.105-.066l-.037.004H6.542l-.037-.004a.1.1 0 0 0-.105.066v7.225a.1.1 0 0 0 .104.066l.033-.003H8.99v-1.53h14.4v1.53h2.458Z" fill="#fff"/></svg>