<svg width="32" height="32" viewBox="0 0 32 32" fill="none" xmlns="http://www.w3.org/2000/svg"><path d="M10.184 26.888h11.632c2.12 0 3.184-1.055 3.184-3.144v-10.12c0-2.09-1.065-3.144-3.184-3.144h-2.83v1.633h2.8c1.003 0 1.581.547 1.581 1.602v9.938c0 1.055-.578 1.602-1.582 1.602h-11.58c-1.015 0-1.572-.547-1.572-1.602v-9.938c0-1.055.557-1.602 1.572-1.602h2.809V10.48h-2.83C8.064 10.48 7 11.535 7 13.624v10.12c0 2.09 1.065 3.144 3.184 3.144Z" fill="#fff"/><path d="M15.995 18.948c.436 0 .811-.365.811-.791V7.742l-.06-1.521.679.72 1.541 1.643a.724.724 0 0 0 .548.243c.416 0 .74-.304.74-.72 0-.213-.091-.375-.243-.527l-3.428-3.306C16.38 4.07 16.208 4 15.995 4c-.203 0-.375.071-.588.274L11.979 7.58a.707.707 0 0 0-.233.527c0 .416.304.72.73.72a.762.762 0 0 0 .558-.243l1.531-1.643.69-.72-.061 1.521v10.415c0 .426.365.79.8.79Z" fill="#fff"/></svg>