<svg xmlns="http://www.w3.org/2000/svg" viewBox="0 0 32 32"><path d="M6 6h20v20H6z" style="fill:none"/><path d="M21.17 26c-.78 0-1.45-.28-2.01-.84-.56-.56-.84-1.23-.84-2.01 0-.12.01-.25.04-.41.03-.16.06-.3.11-.44l-7.58-4.4c-.25.28-.56.51-.93.69s-.74.26-1.12.26c-.78 0-1.45-.28-2.01-.84-.56-.56-.84-1.23-.84-2.01s.28-1.47.84-2.02c.56-.55 1.23-.82 2.01-.83.38 0 .75.07 1.1.23s.67.37.95.65l7.57-4.35a1.56 1.56 0 0 1-.11-.4c-.03-.15-.04-.29-.04-.43 0-.8.28-1.48.84-2.03.56-.55 1.23-.82 2.01-.82.8 0 1.48.27 2.02.83.55.55.83 1.23.83 2.03s-.27 1.45-.83 2.01c-.55.56-1.23.84-2.02.84-.38 0-.75-.06-1.11-.19-.36-.13-.66-.33-.91-.61l-7.57 4.2c.03.13.06.29.09.46.03.18.04.32.04.44s-.01.24-.04.37c-.02.13-.05.27-.09.4l7.57 4.3c.25-.23.54-.42.87-.56.33-.14.72-.21 1.15-.21.8 0 1.48.28 2.02.83.55.55.83 1.23.83 2.02s-.27 1.45-.83 2.01c-.55.56-1.22.84-2.02.84Z" style="fill:#fff"/></svg>