<svg width="32" height="32" viewBox="0 0 32 32" fill="none" xmlns="http://www.w3.org/2000/svg"><path d="m12.281 19.143 1.105-.256c.024-.005.062-.014.109-.029a1.22 1.22 0 0 0 .872-1.452l-.005-.02a1.216 1.216 0 0 0-.187-.411 1.537 1.537 0 0 0-.451-.387 4.174 4.174 0 0 0-.642-.297l-1.211-.442c-.68-.253-1.36-.5-2.047-.74-.445-.158-.822-.297-1.15-.399-.061-.019-.13-.038-.185-.057-.396-.122-.675-.172-.91-.173a1.084 1.084 0 0 0-.46.083 1.173 1.173 0 0 0-.398.283c-.056.063-.108.13-.157.198a2.342 2.342 0 0 0-.232.464A6.289 6.289 0 0 0 6 17.572c.004.634.021 1.448.37 2 .084.142.197.265.33.36.25.171.5.194.762.213.39.028.768-.068 1.145-.155l3.671-.848h.003ZM24.61 13.275a6.276 6.276 0 0 0-1.2-1.71 2.374 2.374 0 0 0-.412-.315 2.352 2.352 0 0 0-.226-.109 1.169 1.169 0 0 0-.482-.08c-.157.01-.311.053-.45.127-.21.105-.439.273-.742.555-.042.042-.095.089-.142.133-.25.235-.529.525-.86.863-.512.517-1.016 1.037-1.517 1.563l-.896.93c-.164.17-.313.353-.446.548-.114.164-.194.35-.237.545a1.22 1.22 0 0 0 .01.452l.005.02a1.218 1.218 0 0 0 1.419.923c.05-.007.087-.015.11-.021l4.779-1.104c.376-.087.758-.167 1.097-.363.226-.132.442-.262.59-.525a1.18 1.18 0 0 0 .14-.469c.074-.65-.266-1.39-.54-1.963ZM16.059 15.285c.346-.435.345-1.084.376-1.614.104-1.77.214-3.542.3-5.314.034-.671.106-1.333.067-2.01-.033-.557-.037-1.198-.39-1.656-.621-.807-1.947-.74-2.852-.616-.277.039-.555.09-.83.157-.275.066-.548.138-.815.223-.868.285-2.088.807-2.295 1.807-.116.565.16 1.144.374 1.66.26.625.614 1.189.937 1.778.855 1.554 1.725 3.099 2.593 4.645.259.462.541 1.047 1.043 1.286.033.014.066.027.101.038a1.213 1.213 0 0 0 1.312-.302c.027-.026.054-.054.079-.082ZM15.644 20.026a1.106 1.106 0 0 0-1.23-.415 1.134 1.134 0 0 0-.153.064 1.468 1.468 0 0 0-.217.135c-.2.148-.367.34-.52.532-.038.049-.074.114-.12.156l-.768 1.057c-.436.592-.866 1.186-1.292 1.79-.278.389-.518.718-.708 1.009-.036.054-.073.115-.108.164-.227.352-.356.61-.422.838-.05.152-.066.314-.046.472.02.166.076.325.163.468.046.07.096.14.149.206a2.325 2.325 0 0 0 .386.356c.53.37 1.111.634 1.722.84a6.09 6.09 0 0 0 1.572.3 2.403 2.403 0 0 0 .523-.041c.083-.02.165-.044.245-.072.156-.058.298-.149.417-.265.113-.113.2-.25.254-.4.09-.22.148-.502.186-.92.003-.059.012-.13.018-.195.03-.346.044-.753.066-1.232.038-.735.067-1.468.09-2.202l.05-1.306c.011-.3.002-.634-.081-.934a1.397 1.397 0 0 0-.176-.405ZM24.32 22.07c-.161-.176-.388-.352-.747-.568-.052-.03-.112-.068-.168-.101-.299-.18-.658-.369-1.078-.597-.645-.354-1.291-.7-1.943-1.042l-1.151-.61c-.06-.018-.12-.061-.177-.088a2.864 2.864 0 0 0-.7-.25 1.5 1.5 0 0 0-.254-.027c-.055 0-.11.003-.164.01a1.107 1.107 0 0 0-.923.914c-.018.146-.012.294.016.439.056.306.193.61.334.875l.615 1.152c.343.65.689 1.297 1.044 1.94.229.421.42.78.598 1.079.034.056.072.116.101.168.217.358.392.584.569.746.115.11.252.195.403.247.158.052.326.071.492.055a2.37 2.37 0 0 0 .25-.044 2.384 2.384 0 0 0 .49-.193 6.104 6.104 0 0 0 1.28-.96c.46-.452.867-.945 1.183-1.51.044-.08.082-.162.114-.248.03-.079.055-.16.077-.24a2.46 2.46 0 0 0 .043-.252 1.19 1.19 0 0 0-.057-.491 1.093 1.093 0 0 0-.248-.404Z" fill="#fff"/></svg>