
<svg width="45px" height="25px" viewBox="0 0 45 25" version="1.1" xmlns="http://www.w3.org/2000/svg" xmlns:xlink="http://www.w3.org/1999/xlink">
    <g id="Page-1" stroke="none" stroke-width="1" fill="none" fill-rule="evenodd">
        <g id="Group" fill="#873EFF" fill-rule="nonzero">
            <path d="M17.0825,33.54042 C19.8471,33.54042 22.0657,32.17522 23.7381,29.03512 L27.4584,22.07232 L27.4584,27.97702 C27.4584,31.45842 29.7111,33.54042 33.1925,33.54042 C35.923,33.54042 37.9368,32.34582 39.8822,29.03512 L48.4492,14.56341 C50.3264,11.3892 48.9953,9 44.8654,9 C42.6469,9 41.2134,9.71676 39.9164,12.14008 L34.0117,23.23282 L34.0117,13.36881 C34.0117,10.43352 32.6123,9 30.0183,9 C27.9704,9 26.3321,9.88742 25.0692,12.34487 L19.5058,23.23282 L19.5058,13.47121 C19.5058,10.33112 18.2088,9 15.0687,9 L8.65206,9 C6.22873,9 5,10.12634 5,12.20835 C5,14.29036 6.29699,15.48496 8.65206,15.48496 L11.28017,15.48496 L11.28017,27.94292 C11.28017,31.45842 13.63523,33.54042 17.0825,33.54042 Z" id="Path"></path>
        </g>
    </g>
</svg>