<svg style="position: absolute; width: 0; height: 0;" width="0" height="0" version="1.1" xmlns="http://www.w3.org/2000/svg" xmlns:xlink="http://www.w3.org/1999/xlink">
<defs>
<symbol id="icon-add" viewBox="0 0 1024 1024">
<title>add</title>
<path class="path1" d="M810 554h-256v256h-84v-256h-256v-84h256v-256h84v256h256v84z"></path>
</symbol>
<symbol id="icon-grid" viewBox="0 0 1024 1024">
<title>grid</title>
<path class="path1" d="M682 854v-172h172v172h-172zM682 598v-172h172v172h-172zM426 342v-172h172v172h-172zM682 170h172v172h-172v-172zM426 598v-172h172v172h-172zM170 598v-172h172v172h-172zM170 854v-172h172v172h-172zM426 854v-172h172v172h-172zM170 342v-172h172v172h-172z"></path>
</symbol>
<symbol id="icon-list" viewBox="0 0 1024 1024">
<title>view_headline</title>
<path class="path1" d="M170 214h684v84h-684v-84zM170 470v-86h684v86h-684zM170 810v-84h684v84h-684zM170 640v-86h684v86h-684z"></path>
</symbol>
<symbol id="icon-check" viewBox="0 0 1024 1024">
<title>check</title>
<path class="path1" d="M384 690l452-452 60 60-512 512-238-238 60-60z"></path>
</symbol>
<symbol id="icon-chevron-left" viewBox="0 0 1024 1024">
<title>navigate_before</title>
<path class="path1" d="M658 316l-196 196 196 196-60 60-256-256 256-256z"></path>
</symbol>
<symbol id="icon-chevron-right" viewBox="0 0 1024 1024">
<title>navigate_next</title>
<path class="path1" d="M426 256l256 256-256 256-60-60 196-196-196-196z"></path>
</symbol>
<symbol id="icon-chevron-down" viewBox="0 0 1024 1024">
<title>show_more</title>
<path class="path1" d="M316 334l196 196 196-196 60 60-256 256-256-256z"></path>
</symbol>
<symbol id="icon-close" viewBox="0 0 1024 1024">
<title>close</title>
<path class="path1" d="M810 274l-238 238 238 238-60 60-238-238-238 238-60-60 238-238-238-238 60-60 238 238 238-238z"></path>
</symbol>
<symbol id="icon-edit" viewBox="0 0 1024 1024">
<title>edit</title>
<path class="path1" d="M884 300l-78 78-160-160 78-78c16-16 44-16 60 0l100 100c16 16 16 44 0 60zM128 736l472-472 160 160-472 472h-160v-160z"></path>
</symbol>
<symbol id="icon-delete" viewBox="0 0 1024 1024">
<title>delete</title>
<path class="path1" d="M662 170h148v86h-596v-86h148l44-42h212zM360 506l92 92-90 90 60 60 90-90 90 90 60-60-90-90 90-92-60-60-90 92-90-92zM256 810v-512h512v512c0 46-40 86-86 86h-340c-46 0-86-40-86-86z"></path>
</symbol>
<symbol id="icon-photo" viewBox="0 0 1024 1024">
<title>photo</title>
<path class="path1" d="M214 726h596l-192-256-148 192-108-128zM896 128c42 0 86 44 86 86v596c0 42-44 86-86 86h-768c-46 0-86-40-86-86v-596c0-42 44-86 86-86h768z"></path>
</symbol>
<symbol id="icon-mail" viewBox="0 0 1024 1024">
<title>mail</title>
<path class="path1" d="M81.613 270.643c24.986 13.466 371.149 199.373 384.051 206.285 12.851 6.912 29.542 10.24 46.336 10.24 16.845 0 33.536-3.328 46.387-10.291 12.902-6.912 359.014-192.819 384-206.285 25.037-13.414 48.691-55.552 2.765-55.552h-866.253c-45.926 0-22.323 42.138 2.714 55.603zM952.986 373.043c-28.416 14.848-377.19 197.171-394.598 206.285s-29.542 10.291-46.387 10.291c-16.794 0-28.928-1.178-46.336-10.291s-366.234-191.488-394.598-206.285c-20.019-10.445-19.866 1.792-19.866 11.213s0 375.552 0 375.552c0 21.504 28.621 49.152 50.79 49.152h820.070c22.221 0 50.739-27.648 50.739-49.101 0 0 0-366.131 0-375.552 0-9.472 0.205-21.709-19.814-11.264z"></path>
</symbol>
<symbol id="icon-twitter" viewBox="0 0 1024 1024">
<title>twitter</title>
<path class="path1" d="M983.040 219.802c-34.714 15.411-71.936 25.754-111.053 30.464 39.936-23.91 70.605-61.798 84.992-106.906-37.325 22.118-78.694 38.246-122.675 46.899-35.277-37.581-85.504-61.030-141.107-61.030-106.752 0-193.28 86.528-193.28 193.229 0 15.155 1.69 29.901 5.018 44.032-160.614-8.038-303.053-84.992-398.336-201.933-16.691 28.518-26.266 61.747-26.266 97.178 0 67.072 34.15 126.208 86.016 160.87-31.693-1.024-61.491-9.677-87.552-24.166 0 0.819 0 1.587 0 2.406 0 93.645 66.662 171.725 155.034 189.542-16.179 4.403-33.28 6.758-50.944 6.758-12.442 0-24.525-1.178-36.352-3.43 24.576 76.8 96 132.659 180.531 134.195-66.15 51.866-149.453 82.739-240.026 82.739-15.616 0-30.976-0.922-46.080-2.714 85.504 54.835 187.085 86.835 296.294 86.835 355.482 0 549.888-294.502 549.888-549.939 0-8.346-0.154-16.691-0.563-24.986 37.786-27.238 70.502-61.286 96.461-100.045z"></path>
</symbol>
<symbol id="icon-facebook" viewBox="0 0 1024 1024">
<title>facebook</title>
<path class="path1" d="M768 211.405h-146.227c-17.306 0-36.608 22.733-36.608 53.197v105.574h182.835v150.528h-182.835v452.096h-172.646v-452.045h-156.518v-150.579h156.518v-88.576c0-127.027 88.166-230.4 209.203-230.4h146.278v160.205z"></path>
</symbol>
</defs>
</svg>
