<svg width="140" height="38" viewBox="0 0 133 21" fill="none" xmlns="http://www.w3.org/2000/svg">
<path d="M66.0027 6.62468C66.2085 3.03007 69.1351 0.184668 72.8259 0.00862203C76.5209 -0.167424 79.7289 2.37092 80.2831 5.92869C80.3419 6.30534 80.3671 6.69428 80.3587 7.07913C80.3419 7.64821 79.88 8.0658 79.3006 8.08627C78.7044 8.10674 78.2299 7.74646 78.1417 7.18148C78.0661 6.71066 78.0619 6.22346 77.9402 5.76492C77.3103 3.43538 75.0765 1.98198 72.5656 2.2399C70.21 2.48555 68.3877 4.44662 68.2533 6.88261C68.2114 7.61955 67.8461 8.04943 67.2204 8.08627C66.557 8.12722 66.0573 7.70962 66.0069 7.06275C65.9943 6.91946 66.0027 6.77207 66.0027 6.62468Z" fill="#616161"></path>
<path d="M84.074 18.1135V8.99183C84.2209 8.98365 84.3511 8.96727 84.4855 8.97136C85.6696 8.99593 86.862 8.96318 88.0419 9.06553C89.1462 9.15969 89.7551 9.75743 89.944 10.695C90.196 11.9642 89.902 12.6806 88.8901 13.2825C88.8691 13.2947 88.8607 13.3193 88.8439 13.3398C88.8565 13.3643 88.8649 13.393 88.8817 13.4053C90.1456 14.1668 90.5361 15.3991 89.9356 16.7297C89.6459 17.3725 89.1294 17.7655 88.445 17.9293C87.0048 18.2691 85.5436 18.0439 84.074 18.1135ZM85.6654 14.0603V16.7215C86.2448 16.7215 86.7991 16.7461 87.3533 16.7174C88.1469 16.6765 88.4996 16.263 88.5038 15.4237C88.508 14.5762 88.1385 14.1176 87.3575 14.0685C86.8158 14.0358 86.2742 14.0603 85.6654 14.0603ZM85.6696 10.306V12.7297C86.3078 12.7011 86.9166 12.7093 87.5213 12.6397C88.1259 12.5701 88.3946 12.1689 88.3946 11.4933C88.3904 10.8465 88.1217 10.4739 87.5129 10.4002C86.9166 10.3306 86.3204 10.3347 85.6696 10.306Z" fill="#616161"></path>
<path d="M110.497 16.5372C110.829 15.35 111.185 14.1709 111.479 12.9795C111.79 11.7308 112.05 10.4657 112.315 9.20472C112.365 8.97545 112.453 8.88128 112.693 8.92632C113.129 9.00411 113.566 9.06961 114.066 9.15149C113.848 10.1586 113.701 11.1044 113.436 12.0174C112.886 13.917 112.273 15.8003 111.698 17.6959C111.605 18.007 111.416 18.1135 111.106 18.1094C110.614 18.0971 110.123 18.1217 109.636 18.0848C109.489 18.0725 109.275 17.9333 109.225 17.8023C108.124 15.047 107.364 12.2016 106.848 9.29069C106.844 9.26613 106.856 9.24157 106.882 9.12693C107.327 9.06142 107.805 8.97545 108.284 8.93451C108.36 8.92632 108.502 9.11874 108.532 9.23747C109.128 11.5793 109.712 13.9252 110.299 16.2711C110.32 16.3571 110.358 16.439 110.392 16.525C110.425 16.5291 110.463 16.5332 110.497 16.5372Z" fill="#616161"></path>
<path d="M105.823 12.0098C105.832 12.1285 105.844 12.2227 105.844 12.3128C105.844 14.1346 105.84 15.9565 105.84 17.7743C105.84 17.9462 105.836 18.1223 105.811 18.2902C105.55 20.1612 104.421 20.9308 102.338 20.6361C101.872 20.5706 101.414 20.4273 100.889 20.3044C101.02 19.8541 101.133 19.4652 101.255 19.0557C101.666 19.1581 102.027 19.2605 102.397 19.3341C102.624 19.3792 102.859 19.3956 103.085 19.3956C103.934 19.3956 104.362 18.9206 104.295 18.0445C103.757 18.0445 103.211 18.0814 102.674 18.0363C101.519 17.9381 100.923 17.4304 100.663 16.3291C100.461 15.4775 100.428 14.6177 100.679 13.7662C101.015 12.628 101.872 11.9811 103.081 11.9648C103.925 11.9525 104.773 11.973 105.622 11.9811C105.676 11.9893 105.727 12.0016 105.823 12.0098ZM104.316 16.8245C104.324 16.6607 104.337 16.5174 104.337 16.3741C104.341 15.6167 104.337 14.8593 104.337 14.1019C104.337 13.2503 104.337 13.2503 103.476 13.2667C102.733 13.2831 102.25 13.5983 102.157 14.3148C102.082 14.9043 102.149 15.5225 102.229 16.1203C102.283 16.5174 102.603 16.7794 103.022 16.8204C103.442 16.8531 103.862 16.8245 104.316 16.8245Z" fill="#616161"></path>
<path d="M78.963 18.03H70.5736C70.0487 18.03 69.6498 17.8007 69.4357 17.3299C69.2258 16.8714 69.3139 16.4456 69.6498 16.073C69.9354 15.7537 70.3175 15.7004 70.729 15.7004C72.5303 15.7045 74.3274 15.7004 76.1287 15.7004C77.0693 15.7004 78.0098 15.6963 78.9504 15.7004C79.8531 15.7045 80.3822 16.1426 80.3738 16.8795C80.3654 17.596 79.8363 18.03 78.963 18.03Z" fill="#616161"></path>
<path d="M74.851 14.7161C73.3939 14.7161 71.9327 14.7243 70.4757 14.712C69.8795 14.7079 69.4176 14.2821 69.3336 13.7131C69.2538 13.1645 69.6108 12.6158 70.1692 12.4562C70.312 12.4152 70.4631 12.407 70.6143 12.407C73.4359 12.403 76.2576 12.403 79.0792 12.407C79.8476 12.407 80.3599 12.8697 80.3683 13.5493C80.3725 14.2494 79.8602 14.7161 79.0666 14.7202C77.66 14.7202 76.2576 14.7161 74.851 14.7161Z" fill="#616161"></path>
<path d="M74.8203 11.387C73.4011 11.387 71.9861 11.3993 70.5669 11.3829C69.6515 11.3747 69.0805 10.5968 69.3954 9.81077C69.5885 9.33176 69.9748 9.06565 70.4997 9.06155C73.3885 9.05337 76.2815 9.04927 79.1704 9.06155C79.8674 9.06565 80.3587 9.57741 80.3545 10.2325C80.3503 10.8875 79.8632 11.3747 79.1536 11.3788C77.7134 11.3993 76.2689 11.387 74.8203 11.387Z" fill="#616161"></path>
<path d="M96.9754 11.9609C97.1811 11.9732 97.3995 11.9773 97.6136 11.9978C98.6675 12.1042 99.31 12.6487 99.5367 13.6559C99.755 14.618 99.7425 15.5842 99.4359 16.5259C99.0832 17.6231 98.2728 18.1348 96.9586 18.1307C95.6821 18.1266 94.8844 17.6067 94.54 16.5095C94.2293 15.5105 94.2209 14.4911 94.4855 13.4839C94.7164 12.5996 95.3714 12.1042 96.3456 11.9978C96.5555 11.9773 96.757 11.9732 96.9754 11.9609ZM98.2309 15.0233C98.1553 14.6385 98.1217 14.2536 97.9999 13.8934C97.8488 13.4348 97.4793 13.2465 96.9376 13.2547C96.4295 13.267 96.0768 13.4758 95.9467 13.9302C95.7325 14.6876 95.7325 15.4532 96.0097 16.1983C96.1692 16.6241 96.5009 16.8534 96.9796 16.8575C97.4625 16.8616 97.8278 16.6487 97.9831 16.1901C98.1091 15.8217 98.1511 15.4205 98.2309 15.0233Z" fill="#616161"></path>
<path d="M117.587 14.4209C117.701 13.6144 117.415 13.2705 116.655 13.2623C116.37 13.2582 116.084 13.2828 115.803 13.3196C115.522 13.3524 115.244 13.4138 114.879 13.4793C114.85 13.0944 114.804 12.7219 114.804 12.3493C114.804 12.2797 114.946 12.1651 115.043 12.1446C115.996 11.9235 116.958 11.8785 117.911 12.1405C118.654 12.3411 119.078 12.857 119.099 13.5898C119.145 14.9941 119.133 16.4025 119.133 17.8108C119.133 17.8968 118.998 18.0606 118.927 18.0647C117.839 18.077 116.748 18.122 115.664 18.0442C114.879 17.991 114.459 17.5161 114.359 16.7423C114.312 16.382 114.321 15.9972 114.392 15.641C114.518 14.9736 115.064 14.5683 115.866 14.4783C116.151 14.4496 116.437 14.4373 116.723 14.4332C117 14.4168 117.285 14.4209 117.587 14.4209ZM117.6 16.9797C117.617 16.8078 117.634 16.7054 117.634 16.6031C117.638 16.3124 117.646 16.0176 117.625 15.731C117.621 15.6573 117.512 15.5304 117.449 15.5263C117.071 15.5141 116.685 15.4977 116.311 15.5468C115.921 15.5959 115.757 15.8702 115.778 16.3124C115.799 16.7382 115.963 16.947 116.374 16.9756C116.773 17.0002 117.18 16.9797 117.6 16.9797Z" fill="#616161"></path>
<path d="M120.602 12.0164H122.034C122.042 12.1556 122.055 12.2948 122.055 12.434V15.9385C122.055 16.2661 122.071 16.6018 122.432 16.7492C122.84 16.917 123.289 16.9539 123.642 16.6796C123.818 16.5445 123.919 16.2251 123.923 15.9836C123.952 14.8168 123.936 13.6458 123.936 12.479V12.0164H125.41C125.418 12.1802 125.43 12.3194 125.43 12.4626C125.43 13.7523 125.439 15.0378 125.43 16.3275C125.422 17.5475 124.943 18.0593 123.692 18.1125C123.054 18.1412 122.412 18.1084 121.777 18.0347C121.131 17.961 120.64 17.568 120.619 16.9293C120.568 15.308 120.602 13.6786 120.602 12.0164Z" fill="#616161"></path>
<path d="M126.825 9.30142C127.35 9.19498 127.824 9.10081 128.328 8.99846V18.0955C127.887 18.0955 127.459 18.116 127.03 18.0792C126.951 18.071 126.833 17.8335 126.833 17.7025C126.82 15.7251 126.825 13.7476 126.825 11.7702V9.30142Z" fill="#616161"></path>
<path d="M131.421 18.0593H129.948V10.6981C130.397 10.5998 130.867 10.4974 131.405 10.3828V11.9754H133V13.2814H131.426C131.421 14.8904 131.421 16.4421 131.421 18.0593Z" fill="#616161"></path>
<path d="M91.6841 9.30961C91.7891 9.28095 91.8898 9.2441 91.9948 9.22363C92.3643 9.14994 92.738 9.08034 93.1537 8.99846C93.1621 9.17451 93.1747 9.3137 93.1747 9.457V17.5756C93.1747 18.0955 93.1747 18.0996 92.633 18.1119C92.4021 18.116 92.1712 18.1078 91.9402 18.0996C91.8604 18.0955 91.7849 18.0669 91.6883 18.0464C91.6841 15.1355 91.6841 12.2328 91.6841 9.30961Z" fill="#616161"></path>
<path d="M68.2217 13.5836C68.2259 14.214 67.7682 14.6726 67.1342 14.6726C66.496 14.6726 66.0425 14.2181 66.0425 13.5877C66.0467 12.9735 66.4876 12.5273 67.109 12.515C67.7472 12.5027 68.2133 12.9572 68.2217 13.5836Z" fill="#616161"></path>
<path d="M68.2175 16.918C68.2133 17.5035 67.7221 17.9948 67.1384 17.9989C66.5212 18.003 66.0383 17.5158 66.0425 16.8935C66.0467 16.2589 66.5044 15.829 67.1636 15.8372C67.785 15.8495 68.2217 16.2957 68.2175 16.918Z" fill="#616161"></path>
<path d="M68.2176 10.2414C68.2218 10.8801 67.7683 11.3223 67.1217 11.3223C66.4877 11.3182 66.0468 10.8924 66.0426 10.2701C66.0342 9.66007 66.5339 9.15649 67.1385 9.16468C67.7263 9.16877 68.2134 9.65597 68.2176 10.2414Z" fill="#616161"></path>
<path d="M6.23584 11.5215C6.23584 12.3415 5.96729 12.9699 5.43018 13.4067C4.89307 13.8436 4.12858 14.062 3.13672 14.062H2.32031V17H1.03662V9.14746H3.29785C4.27897 9.14746 5.01302 9.34798 5.5 9.74902C5.99056 10.1501 6.23584 10.7409 6.23584 11.5215ZM2.32031 12.9824H3.00244C3.6613 12.9824 4.14469 12.8678 4.45264 12.6387C4.76058 12.4095 4.91455 12.0514 4.91455 11.5645C4.91455 11.1133 4.77669 10.7767 4.50098 10.5547C4.22526 10.3327 3.79557 10.2217 3.21191 10.2217H2.32031V12.9824ZM12.939 14.019C12.939 14.9894 12.6901 15.7467 12.1924 16.291C11.6947 16.8353 11.0018 17.1074 10.1138 17.1074C9.55876 17.1074 9.0682 16.9821 8.64209 16.7314C8.21598 16.4808 7.88835 16.1209 7.65918 15.6519C7.43001 15.1828 7.31543 14.6385 7.31543 14.019C7.31543 13.0558 7.5625 12.3039 8.05664 11.7632C8.55078 11.2225 9.24723 10.9521 10.146 10.9521C11.0054 10.9521 11.6857 11.2297 12.187 11.7847C12.6883 12.3361 12.939 13.0809 12.939 14.019ZM8.61523 14.019C8.61523 15.3905 9.12191 16.0762 10.1353 16.0762C11.1379 16.0762 11.6392 15.3905 11.6392 14.019C11.6392 12.6619 11.1343 11.9834 10.1245 11.9834C9.59456 11.9834 9.20964 12.1589 8.96973 12.5098C8.7334 12.8607 8.61523 13.3638 8.61523 14.019ZM19.2661 17L18.498 14.2285C18.4049 13.9349 18.2367 13.2528 17.9932 12.1821H17.9448C17.7371 13.1489 17.5724 13.8346 17.4507 14.2393L16.6611 17H15.2646L13.5996 11.0596H14.8887L15.646 13.9868C15.8179 14.7101 15.9396 15.3296 16.0112 15.8452H16.0435C16.0793 15.5838 16.133 15.2848 16.2046 14.9482C16.2798 14.6081 16.3442 14.3538 16.3979 14.1855L17.3003 11.0596H18.686L19.5615 14.1855C19.6152 14.361 19.6815 14.6296 19.7603 14.9912C19.8426 15.3529 19.891 15.634 19.9053 15.8345H19.9482C20.002 15.394 20.1273 14.7782 20.3242 13.9868L21.0923 11.0596H22.3599L20.6841 17H19.2661ZM25.98 17.1074C25.0562 17.1074 24.3328 16.8389 23.8101 16.3018C23.2909 15.7611 23.0312 15.0181 23.0312 14.0728C23.0312 13.1024 23.2729 12.3397 23.7563 11.7847C24.2397 11.2297 24.904 10.9521 25.749 10.9521C26.5332 10.9521 27.1527 11.1903 27.6074 11.6665C28.0622 12.1427 28.2896 12.798 28.2896 13.6323V14.3145H24.3311C24.349 14.891 24.5047 15.335 24.7983 15.6465C25.092 15.9544 25.5055 16.1084 26.0391 16.1084C26.39 16.1084 26.7158 16.0762 27.0166 16.0117C27.321 15.9437 27.6468 15.8327 27.9941 15.6787V16.7046C27.6862 16.8514 27.3747 16.9552 27.0596 17.0161C26.7445 17.077 26.3846 17.1074 25.98 17.1074ZM25.749 11.9082C25.348 11.9082 25.0257 12.0353 24.7822 12.2896C24.5423 12.5438 24.3991 12.9144 24.3525 13.4014H27.0488C27.0417 12.9108 26.9235 12.5402 26.6943 12.2896C26.4652 12.0353 26.1501 11.9082 25.749 11.9082ZM32.7368 10.9521C32.991 10.9521 33.2005 10.9701 33.3652 11.0059L33.2417 12.1821C33.0627 12.1392 32.8765 12.1177 32.6831 12.1177C32.1782 12.1177 31.7682 12.2824 31.4531 12.6118C31.1416 12.9412 30.9858 13.3691 30.9858 13.8955V17H29.7236V11.0596H30.7119L30.8784 12.1069H30.9429C31.1398 11.7524 31.3958 11.4714 31.7109 11.2637C32.0296 11.056 32.3716 10.9521 32.7368 10.9521ZM37.0659 17.1074C36.1421 17.1074 35.4188 16.8389 34.896 16.3018C34.3768 15.7611 34.1172 15.0181 34.1172 14.0728C34.1172 13.1024 34.3589 12.3397 34.8423 11.7847C35.3257 11.2297 35.9899 10.9521 36.835 10.9521C37.6191 10.9521 38.2386 11.1903 38.6934 11.6665C39.1481 12.1427 39.3755 12.798 39.3755 13.6323V14.3145H35.417C35.4349 14.891 35.5907 15.335 35.8843 15.6465C36.1779 15.9544 36.5915 16.1084 37.125 16.1084C37.4759 16.1084 37.8018 16.0762 38.1025 16.0117C38.4069 15.9437 38.7327 15.8327 39.0801 15.6787V16.7046C38.7721 16.8514 38.4606 16.9552 38.1455 17.0161C37.8304 17.077 37.4705 17.1074 37.0659 17.1074ZM36.835 11.9082C36.4339 11.9082 36.1117 12.0353 35.8682 12.2896C35.6283 12.5438 35.485 12.9144 35.4385 13.4014H38.1348C38.1276 12.9108 38.0094 12.5402 37.7803 12.2896C37.5511 12.0353 37.236 11.9082 36.835 11.9082ZM42.813 17.1074C42.0718 17.1074 41.4935 16.8389 41.0781 16.3018C40.6628 15.7646 40.4551 15.0109 40.4551 14.0405C40.4551 13.0666 40.6646 12.3092 41.0835 11.7686C41.506 11.2243 42.0897 10.9521 42.8345 10.9521C43.6151 10.9521 44.2095 11.2404 44.6177 11.8169H44.6821C44.6213 11.3908 44.5908 11.0542 44.5908 10.8071V8.64258H45.8584V17H44.8701L44.6499 16.2212H44.5908C44.1862 16.812 43.5936 17.1074 42.813 17.1074ZM43.1514 16.0869C43.6706 16.0869 44.0483 15.9419 44.2847 15.6519C44.521 15.3582 44.6427 14.8838 44.6499 14.2285V14.0513C44.6499 13.3029 44.5282 12.7712 44.2847 12.4561C44.0412 12.141 43.6598 11.9834 43.1406 11.9834C42.6966 11.9834 42.3547 12.1642 42.1147 12.5259C41.8748 12.884 41.7549 13.396 41.7549 14.062C41.7549 14.7209 41.8713 15.224 42.104 15.5713C42.3368 15.915 42.6859 16.0869 43.1514 16.0869ZM53.5552 10.9521C54.2964 10.9521 54.8729 11.2207 55.2847 11.7578C55.7 12.2949 55.9077 13.0487 55.9077 14.019C55.9077 14.993 55.6982 15.7521 55.2793 16.2964C54.8604 16.8371 54.2785 17.1074 53.5337 17.1074C52.7817 17.1074 52.1981 16.8371 51.7827 16.2964H51.6968L51.4658 17H50.5205V8.64258H51.7827V10.6299C51.7827 10.7767 51.7756 10.9951 51.7612 11.2852C51.7469 11.5752 51.7362 11.7596 51.729 11.8384H51.7827C52.1838 11.2476 52.7746 10.9521 53.5552 10.9521ZM53.2275 11.9834C52.7191 11.9834 52.3521 12.1338 52.1265 12.4346C51.9045 12.7318 51.7899 13.2313 51.7827 13.9331V14.019C51.7827 14.7424 51.8973 15.2669 52.1265 15.5928C52.3556 15.915 52.7298 16.0762 53.249 16.0762C53.6966 16.0762 54.035 15.8989 54.2642 15.5444C54.4969 15.1899 54.6133 14.6779 54.6133 14.0083C54.6133 12.6584 54.1514 11.9834 53.2275 11.9834ZM56.4717 11.0596H57.8467L59.0552 14.4272C59.2378 14.9071 59.3595 15.3582 59.4204 15.7808H59.4634C59.4956 15.5838 59.5547 15.3457 59.6406 15.0664C59.7266 14.7835 60.1813 13.4479 61.0049 11.0596H62.3691L59.8286 17.7896C59.3667 19.0249 58.5968 19.6426 57.519 19.6426C57.2397 19.6426 56.9676 19.6121 56.7026 19.5513V18.5522C56.8924 18.5952 57.109 18.6167 57.3525 18.6167C57.9613 18.6167 58.3892 18.264 58.6362 17.5586L58.8564 17L56.4717 11.0596Z" fill="#616161"></path>
</svg>
