<svg width="180" height="48" viewBox="0 0 230 45" fill="none" xmlns="http://www.w3.org/2000/svg">
<path fill-rule="evenodd" clip-rule="evenodd" d="M0 3.4412L3.41264 0H14.3506V14.4706H0V3.4412ZM15.1381 0H29.4887V11.0294L25.9886 14.4706H18.5508L15.1381 11.0294V0ZM33.6889 15.2647L30.2762 18.7059V26.2941L33.6889 29.7353H44.6269V15.2647H33.6889ZM15.1381 45H29.4887V33.9706L25.9886 30.5294H18.5508L15.1381 33.9706V45ZM44.6269 45V33.9706L41.2142 30.5294H30.2762V45H44.6269ZM30.2762 0V11.0294L33.6889 14.4706H44.6269V0H30.2762ZM20.3009 22.5C20.3009 23.5588 21.1759 24.5294 22.3134 24.5294C23.451 24.5294 24.326 23.6471 24.326 22.5C24.326 21.4412 23.451 20.4706 22.3134 20.4706C21.2634 20.4706 20.3009 21.3529 20.3009 22.5ZM14.3506 15.2647H0V29.7353H10.8504L14.3506 26.2941V15.2647ZM10.8504 30.5294L14.3506 33.9706V41.5588L10.8504 45H0V30.5294H10.8504Z" fill="#0ECAD4"></path>
<path d="M177.512 7.01331C177.254 7.01331 177.082 6.83999 177.082 6.58002V4.76021C177.082 4.50023 177.254 4.32692 177.512 4.32692H178.543C178.8 4.32692 178.972 4.50023 178.972 4.76021V6.58002C178.972 6.83999 178.8 7.01331 178.543 7.01331H177.512Z" fill="#002838"></path>
<path d="M177.856 34.657C177.598 34.657 177.426 34.4837 177.426 34.2237V14.0326C177.426 13.7726 177.598 13.5993 177.856 13.5993H178.285C178.543 13.5993 178.715 13.7726 178.715 14.0326V34.2237C178.715 34.4837 178.543 34.657 178.285 34.657H177.856Z" fill="#002838"></path>
<path d="M73.5667 35.0903C73.309 35.0903 73.2231 35.0037 73.1372 34.7437L69.6151 22.1784H69.5292L66.007 34.7437C65.9211 35.0037 65.8352 35.0903 65.5775 35.0903H61.4541C61.1964 35.0903 61.1105 35.0037 61.0246 34.7437L54.9253 12.906C54.9253 12.7327 54.9253 12.5594 55.183 12.5594H60.595C60.8528 12.5594 61.0246 12.7327 61.0246 12.906L63.9453 25.9913H64.0312L67.4674 12.906C67.5534 12.6461 67.6393 12.5594 67.897 12.5594H71.2473C71.505 12.5594 71.5909 12.6461 71.6768 12.906L75.2848 25.9913H75.3707L78.1197 12.906C78.1197 12.7327 78.2915 12.5594 78.5492 12.5594H83.9612C84.133 12.5594 84.2189 12.7327 84.2189 12.906L78.2056 34.7437C78.1197 35.0037 78.0338 35.0903 77.7761 35.0903H73.5667Z" fill="#002838"></path>
<path fill-rule="evenodd" clip-rule="evenodd" d="M88.5142 35.0903C88.3424 35.0903 88.1706 34.917 88.1706 34.7437V12.906C88.1706 12.7327 88.3424 12.5594 88.5142 12.5594H97.4483C102.86 12.5594 105.695 15.6791 105.695 20.0119C105.695 24.3448 102.86 27.5511 97.4483 27.5511H94.1839C94.0121 27.5511 94.0121 27.6378 94.0121 27.7244V34.657C94.0121 34.8303 93.8403 35.0037 93.6685 35.0037H88.5142V35.0903ZM99.9396 20.0986C99.9396 18.5388 98.9087 17.5855 97.1047 17.5855H94.1839C94.0121 17.5855 94.0121 17.6722 94.0121 17.7588V22.525C94.0121 22.6983 94.098 22.6983 94.1839 22.6983H97.1047C98.9087 22.6983 99.9396 21.6584 99.9396 20.0986Z" fill="#002838"></path>
<path fill-rule="evenodd" clip-rule="evenodd" d="M112.739 23.9982C112.739 26.9445 112.911 28.4177 113.341 29.6309C114.543 33.2705 117.121 35.0903 120.986 35.0903C124.251 35.0903 126.742 33.6172 128.202 31.5374C128.374 31.3641 128.374 31.1041 128.116 30.9308L127.859 30.6708C127.687 30.4975 127.429 30.4975 127.257 30.7574C125.969 32.4906 123.821 33.7905 120.9 33.7905C117.808 33.7905 115.488 32.4039 114.458 29.1976C114.114 28.0711 113.942 26.7712 113.942 24.4315C113.942 24.2581 114.028 24.0848 114.2 24.0848H128.202C128.546 24.0848 128.718 23.9115 128.718 23.6515C128.718 20.9652 128.546 19.5786 128.116 18.3654C127 14.8125 124.337 12.9927 120.729 12.9927C117.207 12.9927 114.458 14.8125 113.341 18.3654C112.997 19.5786 112.739 21.1385 112.739 23.9982ZM127.515 22.6116C127.515 22.785 127.429 22.8716 127.257 22.8716H114.372C114.2 22.8716 114.114 22.785 114.114 22.6116C114.114 21.0518 114.286 19.9253 114.629 18.8854C115.574 15.7657 117.808 14.2925 120.815 14.2925C123.821 14.2925 126.055 15.8524 127 18.8854C127.343 19.9253 127.515 21.1385 127.515 22.6116Z" fill="#002838"></path>
<path d="M148.648 34.657C148.39 34.657 148.218 34.4837 148.218 34.2237V21.5718C148.218 16.5456 146.157 14.3792 142.119 14.3792C138.597 14.3792 135.676 16.8056 135.676 20.9652V34.3104C135.676 34.5704 135.504 34.7437 135.247 34.7437H134.817C134.559 34.7437 134.388 34.5704 134.388 34.3104V14.1192C134.388 13.8593 134.559 13.6859 134.817 13.6859H135.247C135.504 13.6859 135.676 13.8593 135.676 14.1192V17.0656H135.762C136.793 14.6392 139.198 13.166 142.205 13.166C146.93 13.166 149.593 15.8524 149.593 21.3118V34.3104C149.593 34.5704 149.421 34.7437 149.163 34.7437H148.648V34.657Z" fill="#002838"></path>
<path fill-rule="evenodd" clip-rule="evenodd" d="M155.95 39.5098C155.692 39.5965 155.692 39.8565 155.864 40.1165C156.895 41.763 159.386 43.1495 162.393 43.2361C167.203 43.2361 170.296 40.6364 170.296 34.8304V14.1192C170.296 13.8593 170.124 13.6859 169.866 13.6859H169.437C169.179 13.6859 169.007 13.8593 169.007 14.1192V17.1522H168.921C167.891 14.8125 166.087 13.166 162.393 13.166C158.87 13.166 156.465 15.0724 155.434 18.1921C155.005 19.6653 154.747 21.5718 154.747 24.1715C154.747 26.7712 154.919 28.6777 155.434 30.1509C156.465 33.2705 158.87 35.177 162.393 35.177C166.087 35.177 167.891 33.5305 168.921 31.1907H169.007V34.7437C169.007 39.9431 166.43 41.9363 162.479 41.9363C159.901 41.9363 158.097 40.983 156.895 39.4232C156.723 39.1632 156.551 39.0766 156.293 39.2499L155.95 39.5098ZM169.007 24.0848C169.007 26.7712 168.835 28.331 168.406 29.6309C167.461 32.7506 165.142 33.8771 162.564 33.7038C159.73 33.7038 157.754 32.3173 156.809 29.5442C156.379 28.2444 156.122 26.4246 156.122 23.9982C156.122 21.5718 156.379 19.752 156.809 18.4521C157.668 15.6791 159.73 14.2925 162.564 14.2925C165.142 14.2925 167.375 15.4191 168.406 18.5388C168.835 19.8386 169.007 21.4851 169.007 24.0848Z" fill="#002838"></path>
<path d="M199.675 34.2237C199.675 34.4837 199.847 34.657 200.105 34.657V34.7437H200.62C200.878 34.7437 201.05 34.5704 201.05 34.3104V21.3118C201.05 15.8524 198.387 13.166 193.662 13.166C190.655 13.166 188.25 14.6392 187.219 17.0656H187.133V14.1192C187.133 13.8593 186.961 13.6859 186.704 13.6859H186.274C186.017 13.6859 185.845 13.8593 185.845 14.1192V34.3104C185.845 34.5704 186.017 34.7437 186.274 34.7437H186.704C186.961 34.7437 187.133 34.5704 187.133 34.3104V20.9652C187.133 16.8056 190.054 14.3792 193.576 14.3792C197.614 14.3792 199.675 16.5456 199.675 21.5718V34.2237Z" fill="#002838"></path>
<path fill-rule="evenodd" clip-rule="evenodd" d="M206.891 29.6309C206.462 28.4177 206.29 26.9445 206.29 23.9982C206.29 21.1385 206.548 19.5786 206.891 18.3654C208.008 14.8125 210.757 12.9927 214.279 12.9927C217.887 12.9927 220.55 14.8125 221.667 18.3654C222.097 19.5786 222.268 20.9652 222.268 23.6515C222.268 23.9115 222.097 24.0848 221.753 24.0848H207.836C207.665 24.0848 207.579 24.2581 207.579 24.4315C207.579 26.7712 207.751 28.0711 208.094 29.1976C209.125 32.4039 211.444 33.7905 214.537 33.7905C217.458 33.7905 219.605 32.4906 220.894 30.7574C221.066 30.4975 221.324 30.4975 221.495 30.6708L221.753 30.9308C222.011 31.1041 222.011 31.3641 221.839 31.5374C220.379 33.6172 217.887 35.0903 214.623 35.0903C210.671 35.0903 208.008 33.2705 206.891 29.6309ZM220.722 22.8716C220.894 22.8716 220.98 22.785 220.98 22.6116C220.98 21.1385 220.808 19.9253 220.464 18.8854C219.52 15.8524 217.286 14.2925 214.279 14.2925C211.273 14.2925 209.039 15.7657 208.094 18.8854C207.751 19.9253 207.579 21.0518 207.579 22.6116C207.579 22.785 207.665 22.8716 207.836 22.8716H220.722Z" fill="#002838"></path>
<path fill-rule="evenodd" clip-rule="evenodd" d="M226.478 16.9789C226.478 17.0656 226.478 17.0656 226.564 17.0656H226.736C226.736 17.0656 226.821 17.0656 226.821 16.9789V15.939H227.423L228.024 17.0656C228.067 17.0656 228.089 17.0872 228.11 17.1089C228.131 17.1306 228.153 17.1522 228.196 17.1522H228.454C228.54 17.1522 228.625 17.0656 228.54 16.9789L227.938 15.8524C228.368 15.7657 228.54 15.4191 228.54 15.0725C228.54 14.5525 228.196 14.2059 227.595 14.2059H226.564C226.521 14.2059 226.499 14.2059 226.489 14.2167C226.478 14.2275 226.478 14.2492 226.478 14.2925V16.9789ZM227.595 14.6392C227.938 14.6392 228.11 14.8125 228.11 15.0725C228.11 15.3324 227.938 15.5058 227.595 15.5058H226.907V14.6392H227.595Z" fill="#002838"></path>
<path fill-rule="evenodd" clip-rule="evenodd" d="M227.423 13.0793C225.962 13.0793 224.846 14.2059 224.846 15.6791C224.846 17.1522 225.962 18.2788 227.423 18.2788C228.883 18.2788 230 17.1522 230 15.6791C230 14.2059 228.883 13.0793 227.423 13.0793ZM227.423 13.5126C228.625 13.5126 229.57 14.3792 229.57 15.6791C229.57 16.8923 228.625 17.8455 227.423 17.8455C226.22 17.8455 225.275 16.9789 225.275 15.6791C225.275 14.4658 226.134 13.5126 227.423 13.5126Z" fill="#002838"></path>
</svg>
