<svg width="199" height="268" viewBox="0 0 199 268" fill="none" xmlns="http://www.w3.org/2000/svg">
<path fill-rule="evenodd" clip-rule="evenodd" d="M3.97998 14.6781L18.5889 0H65.4124V61.7228H3.97998V14.6781ZM68.7837 0H130.216V47.0447L115.233 61.7228H83.3927L68.7837 47.0447V0ZM148.196 65.11L133.587 79.7879V112.155L148.196 126.833H195.02V65.11H148.196ZM68.7837 191.943H130.216V144.898L115.233 130.22H83.3927L68.7837 144.898V191.943ZM195.02 191.943V144.898L180.411 130.22H133.587V191.943H195.02ZM133.587 0V47.0447L148.196 61.7228H195.02V0H133.587ZM90.8845 95.9713C90.8845 100.488 94.6304 104.628 99.5 104.628C104.37 104.628 108.116 100.864 108.116 95.9713C108.116 91.455 104.37 87.3151 99.5 87.3151C95.005 87.3151 90.8845 91.0786 90.8845 95.9713ZM65.4124 65.11H3.97998V126.833H50.4289L65.4124 112.155V65.11ZM50.4289 130.22L65.4124 144.898V177.265L50.4289 191.943H3.97998V130.22H50.4289Z" fill="#0ECAD4"></path>
<path d="M139.339 226.607C139.046 226.607 138.851 226.411 138.851 226.116V224.055C138.851 223.761 139.046 223.565 139.339 223.565H140.511C140.804 223.565 140.999 223.761 140.999 224.055V226.116C140.999 226.411 140.804 226.607 140.511 226.607H139.339Z" fill="#002838"></path>
<path d="M139.73 257.915C139.437 257.915 139.241 257.719 139.241 257.424V234.557C139.241 234.262 139.437 234.066 139.73 234.066H140.218C140.511 234.066 140.706 234.262 140.706 234.557V257.424C140.706 257.719 140.511 257.915 140.218 257.915H139.73Z" fill="#002838"></path>
<path d="M21.1889 258.406C20.896 258.406 20.7983 258.308 20.7007 258.013L16.6973 243.782H16.5996L12.5962 258.013C12.4985 258.308 12.4009 258.406 12.1079 258.406H7.42101C7.12807 258.406 7.03043 258.308 6.93278 258.013L0 233.281C0 233.085 2.96824e-06 232.888 0.292937 232.888H6.44456C6.73749 232.888 6.93278 233.085 6.93278 233.281L10.2527 248.101H10.3504L14.2561 233.281C14.3538 232.986 14.4514 232.888 14.7444 232.888H18.5525C18.8454 232.888 18.9431 232.986 19.0407 233.281L23.1418 248.101H23.2394L26.3641 233.281C26.3641 233.085 26.5594 232.888 26.8523 232.888H33.0039C33.1992 232.888 33.2969 233.085 33.2969 233.281L26.4617 258.013C26.3641 258.308 26.2664 258.406 25.9735 258.406H21.1889Z" fill="#002838"></path>
<path fill-rule="evenodd" clip-rule="evenodd" d="M38.1791 258.406C37.9838 258.406 37.7885 258.21 37.7885 258.013V233.281C37.7885 233.085 37.9838 232.888 38.1791 232.888H48.3342C54.4858 232.888 57.7081 236.421 57.7081 241.329C57.7081 246.236 54.4858 249.867 48.3342 249.867H44.6237C44.4284 249.867 44.4284 249.965 44.4284 250.064V257.915C44.4284 258.111 44.2331 258.308 44.0378 258.308H38.1791V258.406ZM51.1658 241.427C51.1658 239.66 49.9941 238.581 47.9436 238.581H44.6237C44.4284 238.581 44.4284 238.679 44.4284 238.777V244.175C44.4284 244.371 44.526 244.371 44.6237 244.371H47.9436C49.9941 244.371 51.1658 243.193 51.1658 241.427Z" fill="#002838"></path>
<path fill-rule="evenodd" clip-rule="evenodd" d="M65.7149 245.843C65.7149 249.18 65.9102 250.849 66.3984 252.223C67.7655 256.345 70.6948 258.406 75.0888 258.406C78.7993 258.406 81.631 256.737 83.291 254.382C83.4863 254.186 83.4863 253.891 83.1933 253.695L82.9004 253.401C82.7051 253.204 82.4122 253.204 82.2169 253.499C80.7522 255.462 78.3111 256.934 74.9912 256.934C71.476 256.934 68.8395 255.363 67.6678 251.732C67.2772 250.456 67.082 248.984 67.082 246.334C67.082 246.138 67.1796 245.942 67.3749 245.942H83.291C83.6815 245.942 83.8768 245.745 83.8768 245.451C83.8768 242.408 83.6816 240.838 83.1933 239.464C81.924 235.44 78.897 233.379 74.7959 233.379C70.7925 233.379 67.6678 235.44 66.3984 239.464C66.0079 240.838 65.7149 242.605 65.7149 245.843ZM82.5098 244.273C82.5098 244.469 82.4122 244.567 82.2169 244.567H67.5702C67.3749 244.567 67.2772 244.469 67.2772 244.273C67.2772 242.506 67.4725 241.231 67.8631 240.053C68.9372 236.52 71.476 234.851 74.8935 234.851C78.3111 234.851 80.8499 236.618 81.9239 240.053C82.3145 241.231 82.5098 242.605 82.5098 244.273Z" fill="#002838"></path>
<path d="M106.53 257.915C106.238 257.915 106.042 257.719 106.042 257.424V243.095C106.042 237.403 103.699 234.949 99.1094 234.949C95.106 234.949 91.7861 237.697 91.7861 242.408V257.523C91.7861 257.817 91.5908 258.013 91.2979 258.013H90.8096C90.5167 258.013 90.3214 257.817 90.3214 257.523V234.655C90.3214 234.36 90.5167 234.164 90.8096 234.164H91.2979C91.5908 234.164 91.7861 234.36 91.7861 234.655V237.992H91.8837C93.0555 235.244 95.7895 233.575 99.2071 233.575C104.578 233.575 107.605 236.618 107.605 242.801V257.523C107.605 257.817 107.409 258.013 107.116 258.013H106.53V257.915Z" fill="#002838"></path>
<path fill-rule="evenodd" clip-rule="evenodd" d="M114.83 263.411C114.537 263.509 114.537 263.804 114.733 264.098C115.904 265.963 118.736 267.533 122.154 267.631C127.622 267.631 131.137 264.687 131.137 258.111V234.655C131.137 234.36 130.942 234.164 130.649 234.164H130.16C129.868 234.164 129.672 234.36 129.672 234.655V238.09H129.575C128.403 235.44 126.352 233.575 122.154 233.575C118.15 233.575 115.416 235.734 114.244 239.268C113.756 240.936 113.463 243.095 113.463 246.04C113.463 248.984 113.659 251.143 114.244 252.812C115.416 256.345 118.15 258.504 122.154 258.504C126.352 258.504 128.403 256.639 129.575 253.989H129.672V258.013C129.672 263.902 126.743 266.159 122.251 266.159C119.322 266.159 117.271 265.08 115.904 263.313C115.709 263.019 115.514 262.921 115.221 263.117L114.83 263.411ZM129.672 245.942C129.672 248.984 129.477 250.751 128.989 252.223C127.915 255.756 125.278 257.032 122.349 256.836C119.127 256.836 116.881 255.265 115.807 252.125C115.318 250.652 115.026 248.591 115.026 245.843C115.026 243.095 115.318 241.034 115.807 239.562C116.783 236.421 119.127 234.851 122.349 234.851C125.278 234.851 127.817 236.127 128.989 239.66C129.477 241.132 129.672 242.997 129.672 245.942Z" fill="#002838"></path>
<path d="M164.531 257.424C164.531 257.719 164.727 257.915 165.02 257.915V258.013H165.606C165.898 258.013 166.094 257.817 166.094 257.523V242.801C166.094 236.618 163.067 233.575 157.696 233.575C154.279 233.575 151.545 235.244 150.373 237.992H150.275V234.655C150.275 234.36 150.08 234.164 149.787 234.164H149.299C149.006 234.164 148.811 234.36 148.811 234.655V257.523C148.811 257.817 149.006 258.013 149.299 258.013H149.787C150.08 258.013 150.275 257.817 150.275 257.523V242.408C150.275 237.697 153.595 234.949 157.599 234.949C162.188 234.949 164.531 237.403 164.531 243.095V257.424Z" fill="#002838"></path>
<path fill-rule="evenodd" clip-rule="evenodd" d="M172.734 252.223C172.245 250.849 172.05 249.18 172.05 245.843C172.05 242.605 172.343 240.838 172.734 239.464C174.003 235.44 177.128 233.379 181.131 233.379C185.232 233.379 188.259 235.44 189.528 239.464C190.017 240.838 190.212 242.408 190.212 245.451C190.212 245.745 190.017 245.942 189.626 245.942H173.808C173.612 245.942 173.515 246.138 173.515 246.334C173.515 248.984 173.71 250.456 174.101 251.732C175.272 255.363 177.909 256.934 181.424 256.934C184.744 256.934 187.185 255.462 188.65 253.499C188.845 253.204 189.138 253.204 189.333 253.401L189.626 253.695C189.919 253.891 189.919 254.186 189.724 254.382C188.064 256.737 185.232 258.406 181.522 258.406C177.03 258.406 174.003 256.345 172.734 252.223ZM188.454 244.567C188.65 244.567 188.747 244.469 188.747 244.273C188.747 242.605 188.552 241.231 188.161 240.053C187.087 236.618 184.549 234.851 181.131 234.851C177.713 234.851 175.175 236.52 174.101 240.053C173.71 241.231 173.515 242.506 173.515 244.273C173.515 244.469 173.612 244.567 173.808 244.567H188.454Z" fill="#002838"></path>
<path fill-rule="evenodd" clip-rule="evenodd" d="M194.997 237.894C194.997 237.992 194.997 237.992 195.094 237.992H195.29C195.29 237.992 195.387 237.992 195.387 237.894V236.716H196.071L196.754 237.992C196.803 237.992 196.827 238.016 196.852 238.041C196.876 238.065 196.901 238.09 196.949 238.09H197.242C197.34 238.09 197.438 237.992 197.34 237.894L196.657 236.618C197.145 236.52 197.34 236.127 197.34 235.734C197.34 235.146 196.949 234.753 196.266 234.753H195.094C195.045 234.753 195.021 234.753 195.009 234.765C194.997 234.778 194.997 234.802 194.997 234.851V237.894ZM196.266 235.244C196.657 235.244 196.852 235.44 196.852 235.734C196.852 236.029 196.657 236.225 196.266 236.225H195.485V235.244H196.266Z" fill="#002838"></path>
<path fill-rule="evenodd" clip-rule="evenodd" d="M196.071 233.477C194.411 233.477 193.141 234.753 193.141 236.421C193.141 238.09 194.411 239.366 196.071 239.366C197.731 239.366 199 238.09 199 236.421C199 234.753 197.731 233.477 196.071 233.477ZM196.071 233.968C197.438 233.968 198.512 234.949 198.512 236.421C198.512 237.795 197.438 238.875 196.071 238.875C194.704 238.875 193.63 237.894 193.63 236.421C193.63 235.047 194.606 233.968 196.071 233.968Z" fill="#002838"></path>
</svg>
