<?xml version="1.0" encoding="UTF-8"?>
<svg width="721px" height="375px" viewBox="0 0 721 375" version="1.1" xmlns="http://www.w3.org/2000/svg" xmlns:xlink="http://www.w3.org/1999/xlink">
    <title>dots-cut-header</title>
    <defs>
        <polygon id="path-1" points="0.190125281 0.42237023 33.1139287 0.42237023 33.1139287 2 0.190125281 2"></polygon>
        <polygon id="path-3" points="0.395398081 0.588428121 32.5587496 0.588428121 32.5587496 30 0.395398081 30"></polygon>
        <polygon id="path-5" points="0.961499549 0.346458782 33.1110009 0.346458782 33.1110009 30 0.961499549 30"></polygon>
        <polygon id="path-7" points="0.549467164 0.376231475 31.8634985 0.376231475 31.8634985 1 0.549467164 1"></polygon>
        <polygon id="path-9" points="0.5856 0.6587 31.3886 0.6587 31.3886 29 0.5856 29"></polygon>
        <polygon id="path-11" points="0.365670028 0.232328024 26.4488702 0.232328024 26.4488702 26 0.365670028 26"></polygon>
        <polygon id="path-13" points="0 0.96134 19.1218301 0.96134 19.1218301 20.7291118 0 20.7291118"></polygon>
        <polygon id="path-15" points="0 0.364350623 18.4664997 0.364350623 18.4664997 19.4436953 0 19.4436953"></polygon>
    </defs>
    <g id="Header" stroke="none" stroke-width="1" fill="none" fill-rule="evenodd">
        <g id="CME_Annual_Report_Fall_2020_website_Round3" transform="translate(-163.000000, -247.000000)">
            <g id="Group-395" transform="translate(163.000000, 0.000000)">
                <g id="dots-cut-header" transform="translate(0.000000, 247.000000)">
                    <g id="Group-162" transform="translate(153.000000, 372.000000)">
                        <mask id="mask-2" fill="white">
                            <use xlink:href="#path-1"></use>
                        </mask>
                        <g id="Clip-161"></g>
                        <path d="M32.2912,10.2267 C33.4332,15.6587 33.3422,19.8957 32.2912,24.1147 C30.3282,28.0937 27.3512,31.0467 23.3512,32.9717 C14.2442,34.9317 6.2442,33.9447 1.2612,24.4457 C-0.3178,19.9827 0.0902,15.2347 0.9452,10.6097 C12.5782,-2.8393 20.0532,-2.9773 32.2912,10.2267" id="Fill-160" fill="#1C2B39" mask="url(#mask-2)"></path>
                    </g>
                    <g id="Group-165" transform="translate(250.000000, 344.000000)">
                        <mask id="mask-4" fill="white">
                            <use xlink:href="#path-3"></use>
                        </mask>
                        <g id="Clip-164"></g>
                        <path d="M15.93,32.7759 C7.066,32.4549 -0.134,24.5459 0.426,15.7479 C0.991,6.8789 9.084,-0.1331 17.854,0.6479 C26.146,1.3869 32.639,8.5509 32.558,16.8689 C32.47,25.8479 24.887,33.1009 15.93,32.7759" id="Fill-163" fill="#1C2B39" mask="url(#mask-4)"></path>
                    </g>
                    <g id="Group-168" transform="translate(185.000000, 344.000000)">
                        <mask id="mask-6" fill="white">
                            <use xlink:href="#path-5"></use>
                        </mask>
                        <g id="Clip-167"></g>
                        <path d="M17.1267,32.4999 C8.1387,32.5629 0.7857,25.1109 0.9647,16.1219 C1.1427,7.1579 8.8107,-0.0441 17.7407,0.3629 C25.9487,0.7379 32.8367,7.7199 33.1027,15.9329 C33.3917,24.8739 26.0967,32.4369 17.1267,32.4999" id="Fill-166" fill="#1C2B39" mask="url(#mask-6)"></path>
                    </g>
                    <g id="Group-171" transform="translate(89.000000, 373.000000)">
                        <mask id="mask-8" fill="white">
                            <use xlink:href="#path-7"></use>
                        </mask>
                        <g id="Clip-170"></g>
                        <path d="M31.8634985,16.0819 C31.8314,23.4719 23.9824,31.4549 16.5464,31.6609 C8.5334,31.8829 0.0184,23.0819 0.5754,15.1519 C1.0994,7.6809 9.3454,0.1199 16.6824,0.3829 C24.1234,0.6489 31.8954,8.6869 31.8634985,16.0819" id="Fill-169" fill="#1C2B39" mask="url(#mask-8)"></path>
                    </g>
                    <path d="M152.9952,357.0546 C150.9142,366.2046 145.9012,370.9926 137.5192,372.2246 C129.3222,370.9686 124.2432,366.2646 122.3252,357.5896 C123.0132,349.0026 127.7752,343.4606 137.5702,341.7026 C146.8262,342.5506 151.6712,348.5506 152.9952,357.0546" id="Fill-172" fill="#1C2B39"></path>
                    <path d="M219.052,328.6609 C221.069,319.1809 226.064,314.3209 234.513,313.1649 C242.796,314.6019 248.162,319.0729 249.471,329.0069 C248.493,336.8029 243.486,342.1789 234.242,343.4969 C223.862,339.1349 223.862,339.1349 219.052,328.6609" id="Fill-174" fill="#1C2B39"></path>
                    <g id="Group-178" transform="translate(315.000000, 345.000000)">
                        <mask id="mask-10" fill="white">
                            <use xlink:href="#path-9"></use>
                        </mask>
                        <g id="Clip-177"></g>
                        <path d="M31.3886,16.3397 C29.2166,25.5747 24.0386,30.2097 15.8546,31.3687 C7.3956,29.9967 2.4196,25.1327 0.5856,16.5717 C1.4786,7.8557 6.2966,2.3117 16.0006,0.6587 C24.4636,1.7407 29.8236,6.7477 31.3886,16.3397" id="Fill-176" fill="#1C2B39" mask="url(#mask-10)"></path>
                    </g>
                    <path d="M287.2506,319.8348 C293.9386,313.0778 300.9226,314.6258 307.3736,316.6038 C314.0256,323.7388 313.3726,330.6348 310.4006,337.5818 C303.7416,343.7868 296.8456,343.1348 289.8896,340.1568 C283.7166,333.5028 284.3026,326.6138 287.2506,319.8348" id="Fill-179" fill="#1C2B39"></path>
                    <path d="M179.9595,314.1547 C184.6135,326.8137 184.0735,332.6777 178.2825,336.4087 C173.4765,339.5037 164.2295,338.9207 160.2165,335.2687 C155.0985,330.6107 155.3245,324.0327 161.0575,313.5117 C167.0405,310.3557 173.1005,310.3717 179.9595,314.1547" id="Fill-181" fill="#1C2B39"></path>
                    <path d="M363.5004,341.8535 C356.2264,341.9595 350.2424,335.9575 350.3694,328.6835 C350.4854,322.0685 355.7644,316.4495 362.3344,315.9485 C369.6304,315.3935 375.9444,320.9985 376.2704,328.3205 C376.5964,335.6335 370.8294,341.7455 363.5004,341.8535" id="Fill-183" fill="#1C2B39"></path>
                    <path d="M86.1193,356.0188 C86.4733,363.2838 81.0193,369.2938 73.7573,369.6418 C66.5043,369.9888 60.4773,364.5188 60.1303,357.2728 C59.7833,350.0188 65.2533,343.9928 72.5003,343.6458 C79.7553,343.2978 85.7663,348.7588 86.1193,356.0188" id="Fill-185" fill="#1C2B39"></path>
                    <path d="M104.8098,337.4593 C97.5848,337.0673 91.9768,330.6413 92.5958,323.4663 C93.2078,316.3733 99.9388,310.8613 106.9858,311.6833 C113.4318,312.4353 118.5588,318.3443 118.4048,324.8463 C118.2338,332.0863 112.0208,337.8503 104.8098,337.4593" id="Fill-187" fill="#1C2B39"></path>
                    <g id="Group-191" transform="translate(382.000000, 348.000000)">
                        <mask id="mask-12" fill="white">
                            <use xlink:href="#path-11"></use>
                        </mask>
                        <g id="Clip-190"></g>
                        <path d="M26.4433,13.6465 C26.2363,20.9345 20.3243,26.5165 13.0323,26.3085 C5.7433,26.1015 0.1633,20.1895 0.3713,12.8965 C0.5793,5.6055 6.4773,0.0385 13.7833,0.2375 C21.0633,0.4365 26.6503,6.3535 26.4433,13.6465" id="Fill-189" fill="#1C2B39" mask="url(#mask-12)"></path>
                    </g>
                    <path d="M318.5325,296.9 C318.3045,289.98 324.7395,283.578 331.6595,283.839 C337.9555,284.077 343.7205,289.869 343.9275,296.167 C344.1555,303.088 337.7325,309.474 330.7995,309.22 C324.4985,308.989 318.7405,303.205 318.5325,296.9" id="Fill-192" fill="#1C2B39"></path>
                    <path d="M266.8193,309.289642 C259.5453,309.3076 253.7543,303.5596 253.733248,296.2996 C253.7133,289.0296 259.4653,283.2346 266.7243,283.213548 C273.9953,283.1936 279.7893,288.9466 279.809347,296.2056 C279.8283,303.4756 274.0743,309.2726 266.8193,309.289642" id="Fill-194" fill="#1C2B39"></path>
                    <path d="M137.5535,279.8321 C144.4365,279.6341 150.7865,286.0651 150.4995,292.9421 C150.2385,299.2031 144.4385,304.9281 138.1865,305.0981 C131.2905,305.2871 124.9495,298.8671 125.2375,291.9891 C125.5005,285.7291 131.2915,280.0121 137.5535,279.8321" id="Fill-196" fill="#1C2B39"></path>
                    <path d="M215.3471,296.742 C214.9241,304.07 208.8911,309.429 201.5421,309.005 C194.2131,308.581 188.8541,302.549 189.2781,295.2 C189.7021,287.87 195.7301,282.515 203.0821,282.936 C210.4141,283.355 215.7711,289.386 215.3471,296.742" id="Fill-198" fill="#1C2B39"></path>
                    <path d="M299.0575,276.2906 C291.8565,274.5876 288.1505,270.5616 287.0975,264.2836 C288.3035,257.6226 291.9215,253.5136 299.1355,252.1566 C305.7625,252.9556 309.9165,257.0756 311.1565,264.2356 C310.0985,270.8176 306.2315,274.6866 299.0575,276.2906" id="Fill-200" fill="#1C2B39"></path>
                    <path d="M234.9249,276.2612 C227.6469,274.7952 223.8109,270.8832 222.4029,264.1832 C223.2089,257.1622 227.4359,253.0892 234.2849,251.5612 C241.8029,252.6132 245.6219,257.0792 247.0319,263.4752 C245.8669,270.6022 241.9839,274.4742 234.9249,276.2612" id="Fill-202" fill="#1C2B39"></path>
                    <path d="M29.2832,324.203 C30.4822,317.498 34.3582,313.681 40.9372,312.533 C47.3422,313.602 51.5472,317.08 52.7282,324.261 C52.1342,330.392 48.2982,334.286 41.5542,336.051 C34.6482,335.331 30.4342,331.313 29.2832,324.203" id="Fill-204" fill="#1C2B39"></path>
                    <path d="M158.2824,259.7924 C159.8724,253.6504 163.3224,249.9704 169.6554,248.4734 C176.3774,248.8904 180.5784,252.9024 182.1564,259.9384 C178.4824,267.9454 178.4824,267.9454 171.2924,272.3354 C163.3834,271.6414 159.1164,267.1924 158.2824,259.7924" id="Fill-206" fill="#1C2B39"></path>
                    <path d="M427.8244,341.0941 C420.7384,339.5331 417.0004,335.6621 415.9594,329.1641 C416.9254,322.7951 420.6814,318.9301 427.3004,317.3581 C434.2394,317.9611 438.1184,322.2481 439.6504,328.8551 C438.6174,335.5591 434.9054,339.4581 427.8244,341.0941" id="Fill-208" fill="#1C2B39"></path>
                    <path d="M501.732965,329.4162 C501.7648,335.0732 497.1308,339.3912 491.4928,338.9592 C486.5238,338.5792 482.7698,334.5302 482.7388,329.5162 C482.7038,323.8422 487.3168,319.5442 492.9798,319.9732 C497.9448,320.3492 501.7048,324.4052 501.732965,329.4162" id="Fill-210" fill="#1C2B39"></path>
                    <path d="M261.5233,222.3756 C264.1633,222.1266 266.2603,221.6106 268.2783,221.8266 C270.2753,222.0406 272.1933,222.9946 273.4073,223.3856 C277.7993,227.9786 278.3443,232.6566 275.7983,237.0926 C272.1143,243.5106 266.3633,242.3496 260.9163,240.5646 C255.5683,234.5006 255.5913,228.9626 261.5233,222.3756" id="Fill-212" fill="#1C2B39"></path>
                    <path d="M341.2751,231.8546 C341.3981,237.9346 337.4061,241.9416 331.3291,241.8366 C325.9081,241.7436 322.2261,238.3856 321.7441,233.0966 C321.2011,227.1376 325.0091,222.6546 330.8961,222.3206 C336.9521,221.9776 341.1541,225.8376 341.2751,231.8546" id="Fill-214" fill="#1C2B39"></path>
                    <g id="Group-218" transform="translate(0.000000, 346.000000)">
                        <mask id="mask-14" fill="white">
                            <use xlink:href="#path-13"></use>
                        </mask>
                        <g id="Clip-217"></g>
                        <path d="M14.4382,20.0432 C11.7522,20.3332 9.6422,20.8752 7.5982,20.6922 C5.5652,20.5082 3.5982,19.5952 2.0742,19.1432 C-2.9118,13.5532 -2.9008,8.2902 0.7832,2.9202 C8.2392,0.4442 8.2392,0.4442 15.9462,2.1982 C20.3802,7.8712 20.4322,13.5022 14.4382,20.0432" id="Fill-216" fill="#1C2B39" mask="url(#mask-14)"></path>
                    </g>
                    <path d="M467.688,369.2616 C462.328,372.8676 457.816,372.4636 453.331,370.3166 C448.404,365.2866 448.248,360.0056 451.677,354.4526 C458.913,351.6296 458.913,351.6296 466.596,352.9896 C471.32,357.8256 471.507,363.1026 467.688,369.2616" id="Fill-219" fill="#1C2B39"></path>
                    <path d="M194.4931,224.5875 C200.1161,220.4565 204.9091,220.4575 209.9121,223.9925 C213.6081,228.6155 214.0231,233.6735 210.3061,238.2985 C206.2641,243.3265 201.0281,241.7945 196.6961,240.3255 C191.5701,235.2755 191.6271,230.4095 194.4931,224.5875" id="Fill-221" fill="#1C2B39"></path>
                    <path d="M469.6746,296.714 C469.8766,301.775 466.2996,306.019 461.3236,306.623 C455.7576,307.299 450.8436,303.099 450.6196,297.475 C450.3896,291.736 454.8136,287.334 460.5656,287.579 C465.6646,287.796 469.4716,291.613 469.6746,296.714" id="Fill-223" fill="#1C2B39"></path>
                    <path d="M387.9809,304.6368 C384.3749,299.2768 384.7779,294.7648 386.9289,290.2768 C391.9569,285.3518 397.2369,285.1958 402.7799,288.6188 C407.1379,293.2998 406.8949,298.2458 404.2889,303.5088 C399.4169,308.2678 394.1399,308.4558 387.9809,304.6368" id="Fill-225" fill="#1C2B39"></path>
                    <path d="M66.1854,300.4326 C62.1154,294.7376 62.1154,289.8926 65.3274,285.1016 C69.9854,280.5826 74.9414,281.4046 79.6284,283.2646 C85.1084,288.5456 84.4484,293.8546 82.0624,298.7946 C76.8134,303.5506 71.9074,303.3396 66.1854,300.4326" id="Fill-227" fill="#1C2B39"></path>
                    <g id="Group-231" transform="translate(0.000000, 282.000000)">
                        <mask id="mask-16" fill="white">
                            <use xlink:href="#path-15"></use>
                        </mask>
                        <g id="Clip-230"></g>
                        <path d="M8.3081,0.3865 C14.0051,0.0155 18.5581,4.3495 18.4651,10.0545 C18.3831,15.1115 14.6111,19.0945 9.5961,19.4215 C3.8921,19.7925 -0.6489,15.4685 -0.5599,9.7505 C-0.4819,4.6975 3.2921,0.7125 8.3081,0.3865" id="Fill-229" fill="#1C2B39" mask="url(#mask-16)"></path>
                    </g>
                    <path d="M147.8539,228.3907 C147.6339,234.2357 143.2379,238.1447 137.3689,237.7107 C131.6249,237.2857 127.8109,232.6337 128.4499,226.8287 C129.0189,221.6567 132.8229,218.3087 138.1359,218.303697 C144.0959,218.2997 148.0779,222.4317 147.8539,228.3907" id="Fill-232" fill="#1C2B39"></path>
                    <path d="M50.7677,260.2298 C50.5237,265.7128 45.5117,269.9668 40.1217,269.2668 C35.2947,268.6398 31.6407,264.2748 31.8667,259.4028 C32.1187,253.9288 37.1457,249.6638 42.5217,250.3638 C47.3507,250.9908 50.9847,255.3398 50.7677,260.2298" id="Fill-234" fill="#1C2B39"></path>
                    <path d="M97.2701,253.4289 C103.4151,249.0389 108.2081,249.0429 113.2101,252.6809 C116.7821,257.3149 117.2701,262.4179 113.4041,266.9439 C109.3541,271.6829 104.1561,270.9379 99.4491,268.4219 C94.4161,263.7779 95.2981,258.8199 97.2701,253.4289" id="Fill-236" fill="#1C2B39"></path>
                    <path d="M244.4301,199.2861 C244.5171,204.8781 239.8871,209.2731 234.3141,208.8871 C229.3981,208.5481 225.5761,204.5061 225.4971,199.5641 C225.4071,193.9701 230.0331,189.5761 235.6101,189.9591 C240.4971,190.2961 244.3531,194.3731 244.4301,199.2861" id="Fill-238" fill="#1C2B39"></path>
                    <path d="M428.1962,274.1919 C422.6032,274.2789 418.2092,269.6499 418.5942,264.0759 C418.9342,259.1599 422.9762,255.3369 427.9172,255.2579 C433.5122,255.1689 437.9052,259.7949 437.5222,265.3709 C437.1872,270.2589 433.1092,274.1149 428.1962,274.1919" id="Fill-240" fill="#1C2B39"></path>
                    <path d="M356.6536,272.6113 C352.3026,266.9423 352.8576,262.1113 355.4266,257.5563 C360.6826,253.3563 365.7836,252.9423 370.4326,256.6803 C375.4836,260.7433 373.9756,266.0203 372.4466,270.4173 C367.3876,275.5343 362.4886,275.4883 356.6536,272.6113" id="Fill-242" fill="#1C2B39"></path>
                    <path d="M308.9056,200.0051 C306.9966,205.2541 303.8806,207.8231 300.4596,208.9301 C294.3786,208.4971 292.2976,204.7411 290.2166,201.3381 C290.2866,195.2221 293.7716,192.3421 298.6716,190.4531 C305.0266,191.0431 307.5806,195.2261 308.9056,200.0051" id="Fill-244" fill="#1C2B39"></path>
                    <path d="M372.6211,199.9286 C371.6501,204.6786 368.7361,207.4076 364.2731,208.6766 C359.4411,208.0886 356.7971,205.0446 355.1751,200.6446 C355.4271,195.8066 358.6241,193.2346 362.8751,191.2836 C368.3011,191.6136 371.2761,194.8396 372.6211,199.9286" id="Fill-246" fill="#1C2B39"></path>
                    <path d="M170.9873,205.362 C165.4473,203.857 162.6593,200.977 161.3513,196.497 C161.6863,190.838 165.6713,188.537 169.3783,186.646 C175.1653,187.245 177.6673,190.502 179.5973,194.518 C179.8443,200.286 176.1783,203.029 170.9873,205.362" id="Fill-248" fill="#1C2B39"></path>
                    <path d="M106.2616,204.3234 C101.2556,203.5174 98.8606,200.2654 97.3386,196.4364 C97.9736,191.2054 101.0176,188.5704 105.4016,186.9494 C110.2456,187.1844 112.7706,190.4294 114.7516,194.5704 C114.4146,200.0484 111.1916,203.0154 106.2616,204.3234" id="Fill-250" fill="#1C2B39"></path>
                    <path d="M82.8683,228.5798 C81.1283,233.1538 78.1023,235.7588 74.6043,236.8678 C68.7853,236.3238 66.6073,232.7468 64.5853,229.2058 C64.6913,223.3158 68.1433,220.4738 73.1343,218.5168 C78.8883,219.4938 82.2663,222.8088 82.8683,228.5798" id="Fill-252" fill="#1C2B39"></path>
                    <path d="M514.881,361.3563 C516.682,356.7603 519.24,354.2083 523.036,352.7243 C528.72,352.4833 531.464,356.1593 533.53,360.8163 C533.256,366.4353 529.871,369.3533 524.883,371.0733 C519.462,370.4063 516.444,367.1823 514.881,361.3563" id="Fill-254" fill="#1C2B39"></path>
                    <path d="M396.8231,223.1183 C401.4751,224.8323 404.0561,227.9143 405.2381,231.6203 C404.4801,237.1683 401.2291,239.6633 397.1421,241.5153 C391.5161,241.4353 388.6531,237.9633 386.6981,232.9333 C387.6551,227.0953 391.0051,223.7083 396.8231,223.1183" id="Fill-256" fill="#1C2B39"></path>
                    <path d="M3.2078,231.5774 C2.1438,228.3404 1.7178,225.2754 4.0768,222.4074 C7.3778,219.9264 10.7618,219.8944 14.2338,222.2574 C16.7508,225.5924 16.7828,228.9754 14.2698,232.6614 C10.4028,235.2214 6.6408,235.1044 3.2078,231.5774" id="Fill-258" fill="#1C2B39"></path>
                    <path d="M550.8884,325.3596 C554.6744,322.3276 557.6774,322.7386 560.7434,323.8466 C564.0974,326.6536 563.9054,330.1176 562.6334,333.7486 C559.7814,337.1606 556.3154,336.9466 552.6934,335.6926 C549.2914,332.8336 549.4704,329.3666 550.8884,325.3596" id="Fill-260" fill="#1C2B39"></path>
                    <path d="M454.4638,228.1317 C458.7738,224.8347 462.0948,225.5077 464.9368,226.7417 C468.0398,230.5697 467.9808,233.9097 465.9148,237.4697 C462.9178,240.3037 459.5218,240.0487 455.9568,238.4557 C452.8378,235.5467 453.0568,232.0977 454.4638,228.1317" id="Fill-262" fill="#1C2B39"></path>
                    <path d="M530.5699,301.882 C526.2599,305.179 522.9389,304.506 520.0959,303.272 C516.9939,299.444 517.0529,296.104 519.1189,292.545 C522.1159,289.71 525.5119,289.965 529.0769,291.559 C532.1949,294.467 531.9759,297.917 530.5699,301.882" id="Fill-264" fill="#1C2B39"></path>
                    <path d="M422.8948,195.4612 C426.6408,192.9802 429.5978,193.1412 432.6858,194.6162 C435.7138,197.5162 435.6498,200.9132 434.0238,204.5742 C431.0948,207.6982 427.6738,207.4672 424.1608,206.0852 C420.9898,203.0122 420.9778,199.6342 422.8948,195.4612" id="Fill-266" fill="#1C2B39"></path>
                    <path d="M239.5008,129.4822 C242.3208,133.2442 242.1898,136.1422 240.5478,139.2112 C237.5988,142.1172 234.3138,142.1532 230.9138,140.1342 C227.6878,136.9032 228.6088,133.6042 229.7488,130.8552 C233.1058,127.8432 236.0638,128.1742 239.5008,129.4822" id="Fill-268" fill="#1C2B39"></path>
                    <path d="M46.0267,189.6653 C48.8857,193.5673 48.6857,196.5733 47.1317,199.6983 C44.0657,202.9483 40.5957,202.2923 37.2967,201.0513 C34.1537,197.3563 34.2707,193.9723 36.5037,190.5623 C39.3837,188.0063 42.4587,188.4443 46.0267,189.6653" id="Fill-270" fill="#1C2B39"></path>
                    <path d="M583.3,357.8611 C587.062,355.0411 589.96,355.1711 592.987,356.7911 C596.115,359.7461 595.637,363.0801 594.248,366.2891 C590.708,369.3601 587.443,369.2861 584.152,367.0331 C581.661,364.2561 581.992,361.2981 583.3,357.8611" id="Fill-272" fill="#1C2B39"></path>
                    <path d="M486.455,269.2987 C485.297,266.0327 485.1,263.0447 486.848,260.3007 C490.106,257.2937 493.503,257.5767 497.061,259.2257 C500.138,262.1797 499.921,265.6277 498.483,269.4507 C494.447,272.9567 490.386,273.0007 486.455,269.2987" id="Fill-274" fill="#1C2B39"></path>
                    <path d="M144.4377,159.4307 C145.4967,162.6577 145.9227,165.7137 143.5697,168.5727 C140.2787,171.0437 136.9057,171.0767 133.4447,168.7207 C130.9367,165.3957 130.9047,162.0237 133.4087,158.3467 C137.2647,155.7987 141.0157,155.9147 144.4377,159.4307" id="Fill-276" fill="#1C2B39"></path>
                    <path d="M207.4242,157.7328 C210.8262,162.1478 210.1512,165.5188 208.9462,168.2338 C205.0132,171.9328 201.5732,170.9788 198.4962,169.9038 C195.0072,166.3728 195.5162,162.8978 196.7552,159.5438 C199.9292,156.1088 203.4342,156.3508 207.4242,157.7328" id="Fill-278" fill="#1C2B39"></path>
                    <path d="M262.2545,173.1603 C259.5235,168.8233 259.4895,165.4053 262.0285,162.0243 C265.4285,159.4353 268.8515,159.5823 272.3985,161.7883 C275.2845,165.0003 275.0195,168.4623 273.1585,172.0963 C270.0935,175.1403 266.6115,175.0833 262.2545,173.1603" id="Fill-280" fill="#1C2B39"></path>
                    <path d="M401.6754,163.4651 C403.0564,167.1321 403.3474,170.0901 400.9514,172.7291 C398.1654,174.9691 395.2434,174.7791 392.1774,173.3541 C389.0504,170.4581 389.2744,167.1251 390.7684,163.7931 C394.1274,160.6971 397.3964,160.6731 401.6754,163.4651" id="Fill-282" fill="#1C2B39"></path>
                    <path d="M325.8807,163.1848 C329.7387,160.1128 332.7887,160.5148 335.9047,161.6198 C339.2937,164.4738 339.1537,167.9828 337.7707,171.7518 C334.9287,175.1258 331.4177,174.9708 327.6747,173.6048 C324.2687,170.7548 324.4617,167.2308 325.8807,163.1848" id="Fill-284" fill="#1C2B39"></path>
                    <path d="M458.8293,174.6285 C457.3453,173.0795 455.8933,171.5655 455.1663,170.8065 C454.7893,165.5905 456.9113,163.5945 460.2203,162.4995 C463.5323,162.2945 464.8413,164.7455 466.3583,166.9375 C466.6063,171.7425 463.4913,173.2035 458.8293,174.6285" id="Fill-286" fill="#1C2B39"></path>
                    <path d="M80.4415,163.6898 C79.3815,167.0778 77.6975,168.9028 74.8445,169.5028 C71.1255,169.7778 68.9785,167.8038 67.7205,164.5048 C67.5475,160.1848 69.4335,157.5488 73.8395,156.9878 C77.5955,157.2168 79.6005,159.2548 80.4415,163.6898" id="Fill-288" fill="#1C2B39"></path>
                    <path d="M15.8476,162.5988 C13.9636,166.2988 12.5876,168.5358 9.5246,168.6548 C6.3436,168.3888 5.0336,166.1248 3.8606,163.9968 C3.6056,160.5268 5.7246,158.9498 7.9706,157.5258 C12.1276,156.5378 13.5866,159.5128 15.8476,162.5988" id="Fill-290" fill="#1C2B39"></path>
                    <path d="M556.3573,259.0388 C560.4213,260.0998 562.2033,261.8538 562.9053,264.7748 C563.0563,268.7118 560.2013,270.0358 558.3183,271.1828 C553.9303,271.2848 552.5013,269.0108 551.1573,266.7278 C550.5053,262.7218 552.9113,260.8168 556.3573,259.0388" id="Fill-292" fill="#1C2B39"></path>
                    <path d="M430.599,130.4039 C431.711,131.3939 433.248,132.7619 433.855,133.3029 C434.245,138.0799 432.095,139.5929 429.889,141.0509 C425.832,141.6679 424.647,138.6719 423.068,136.6819 C423.946,132.3119 426.074,130.4899 430.599,130.4039" id="Fill-294" fill="#1C2B39"></path>
                    <path d="M370.4112,136.2209 C368.8702,139.0879 367.4222,141.1639 364.0342,141.4899 C360.8702,141.2879 358.9602,139.2269 358.1752,135.7929 C358.4032,132.2279 360.4712,130.3239 363.8982,129.5379 C367.4792,129.7509 369.3632,131.8529 370.4112,136.2209" id="Fill-296" fill="#1C2B39"></path>
                    <path d="M299.8793,141.5277 C295.7863,141.3247 294.2763,138.7917 293.4123,136.5027 C293.5023,131.8037 295.5693,129.8177 298.8663,129.0237 C302.8023,128.7697 304.7243,131.0027 305.9603,133.8387 C306.0653,138.5597 304.0573,141.0907 299.8793,141.5277" id="Fill-298" fill="#1C2B39"></path>
                    <path d="M170.3819,137.9083 C167.0129,136.8423 165.1939,135.1653 164.5889,132.3293 C164.3139,128.6223 166.2969,126.4953 169.5709,125.2313 C173.8719,125.0623 176.4899,126.9513 177.0589,131.3273 C176.8259,135.0663 174.7889,137.0593 170.3819,137.9083" id="Fill-300" fill="#1C2B39"></path>
                    <path d="M107.0283,124.9326 C109.9123,126.4636 112.0173,127.8866 112.3083,131.2516 C112.1033,134.4716 110.0413,136.3816 106.6073,137.1666 C103.0423,136.9396 101.1383,134.8706 100.3533,131.4436 C100.5663,127.8626 102.6683,125.9786 107.0283,124.9326" id="Fill-302" fill="#1C2B39"></path>
                    <path d="M35.799,129.837 C37.514,127.841 38.853,126.283 39.351,125.705 C44.186,125.269 45.674,127.45 47.112,129.609 C47.645,132.79 45.648,134.427 43.508,135.949 C39.449,136.957 37.847,134.375 35.799,129.837" id="Fill-304" fill="#1C2B39"></path>
                    <path d="M518.7741,233.7471 C519.3231,229.5981 521.3621,228.1351 523.6631,226.9821 C527.4311,226.6221 529.4321,228.7481 530.8171,231.7771 C531.1861,235.4761 529.0461,237.4651 526.0211,238.8511 C522.3091,239.2311 520.3401,237.0461 518.7741,233.7471" id="Fill-306" fill="#1C2B39"></path>
                    <path d="M589.8611,303.7799 C585.8011,302.4889 583.9211,300.8489 583.3701,297.8639 C583.3121,294.6909 585.7241,293.3999 588.0041,291.9679 C591.7571,291.9119 593.8281,293.9219 594.7311,297.2709 C594.8231,300.6479 592.2301,301.8109 589.8611,303.7799" id="Fill-308" fill="#1C2B39"></path>
                    <path d="M337.9721,102.6199 C336.7351,106.3039 335.1471,108.1399 332.2721,108.6979 C329.1901,108.7339 327.9641,106.3529 326.5361,104.1779 C326.4961,100.5349 328.4961,98.5589 331.7401,97.6319 C334.9831,97.5699 336.1771,100.0079 337.9721,102.6199" id="Fill-310" fill="#1C2B39"></path>
                    <path d="M273.3252,102.7294 C273.1042,105.9574 270.9292,107.3754 268.3862,108.5864 C264.7322,108.4464 262.6392,106.4924 261.9342,103.0634 C262.1002,99.7584 264.3292,98.3904 266.8422,97.1674 C270.5242,97.2874 272.5832,99.2904 273.3252,102.7294" id="Fill-312" fill="#1C2B39"></path>
                    <path d="M615.5344,331.0105 C615.8354,327.0415 617.9764,325.6855 620.4074,324.4705 C623.9504,324.6245 625.9564,326.5595 626.6814,329.8525 C626.4954,333.0465 624.3044,334.3575 621.9604,335.5535 C618.0674,335.7535 616.8584,332.8895 615.5344,331.0105" id="Fill-314" fill="#1C2B39"></path>
                    <path d="M203.0238,93.662 C206.2518,93.884 207.6698,96.059 208.8808,98.601 C208.7408,102.255 206.7858,104.348 203.3578,105.053 C200.0538,104.887 198.6848,102.658 197.4618,100.145 C197.5818,96.463 199.5848,94.404 203.0238,93.662" id="Fill-316" fill="#1C2B39"></path>
                    <path d="M144.2551,98.3495 C143.5301,102.0865 141.7361,103.7185 138.9731,104.4485 C135.8331,104.4065 134.5441,102.1585 133.3781,99.8125 C133.1161,96.5515 135.6181,95.3215 137.4111,93.7635 C141.5971,93.4595 142.8961,96.2585 144.2551,98.3495" id="Fill-318" fill="#1C2B39"></path>
                    <path d="M486.6095,200.9612 C487.6125,197.1062 489.4355,195.3932 492.2415,194.5912 C495.9635,194.7612 498.0385,196.7652 498.7165,200.2082 C498.7945,203.5932 496.5205,205.0222 494.2225,206.3752 C490.2745,206.9542 488.2435,204.7372 486.6095,200.9612" id="Fill-320" fill="#1C2B39"></path>
                    <path d="M428.4782,74.0228 C426.9932,73.6488 425.8242,72.9328 426.2152,71.0428 C426.5522,69.4088 427.3782,68.4008 429.2292,68.7318 C430.9082,69.0328 431.8932,69.9288 431.5222,71.7268 C431.2012,73.2878 430.4882,74.5278 428.4782,74.0228" id="Fill-322" fill="#1C2B39"></path>
                    <path d="M495.4946,71.8958 C494.8226,72.4988 494.1776,73.5718 493.4746,73.6118 C491.4166,73.7278 490.9076,72.1348 491.4556,70.5798 C491.6666,69.9798 493.2756,69.4188 494.0506,69.6158 C494.6846,69.7758 495.0246,71.0898 495.4946,71.8958" id="Fill-324" fill="#1C2B39"></path>
                    <path d="M367.5119,71.2777 C367.3239,73.0687 366.3949,74.0067 364.6349,74.0957 C361.6569,74.2487 361.2209,72.1927 361.6059,70.0867 C361.8979,68.4907 363.4539,67.7387 365.1069,68.1447 C366.6639,68.5267 367.8709,69.4077 367.5119,71.2777" id="Fill-326" fill="#1C2B39"></path>
                    <path d="M299.3316,67.4484 C302.1866,68.1594 303.2386,68.9604 303.0556,70.9744 C302.8846,72.8574 301.9946,73.7704 300.1736,73.9004 C297.1616,74.1174 296.5016,72.0894 296.9406,69.8734 C297.2326,68.4064 298.5376,67.1494 299.3316,67.4484" id="Fill-328" fill="#1C2B39"></path>
                    <path d="M235.5198,67.2983 C237.2258,66.9703 238.3678,68.0923 238.6108,69.6293 C238.9458,71.7523 238.4698,73.5753 235.6128,73.8143 C233.6068,73.9833 232.5468,72.7853 232.3008,71.4313 C231.9218,69.3463 232.5378,67.3553 235.5198,67.2983" id="Fill-330" fill="#1C2B39"></path>
                    <path d="M174.4215,66.3481 C173.7105,69.2031 172.9095,70.2551 170.8955,70.0731 C169.0125,69.9021 168.0995,69.0111 167.9685,67.1911 C167.7525,64.1791 169.7805,63.5181 171.9965,63.9581 C173.4635,64.2491 174.7205,65.5541 174.4215,66.3481" id="Fill-332" fill="#1C2B39"></path>
                    <path d="M109.664,66.1044 C109.936,67.8094 109.12,69.2974 107.635,69.5604 C105.611,69.9204 103.521,69.5524 103.701,66.5394 C103.809,64.7294 104.721,63.9744 106.443,63.7124 C108.418,63.4134 109.052,64.6854 109.664,66.1044" id="Fill-334" fill="#1C2B39"></path>
                    <path d="M9.4475,95.7443 C11.3625,95.4353 12.2775,96.4323 12.5755,98.2153 C12.9045,100.1873 11.8095,101.0293 10.0805,101.3773 C8.0435,101.7873 7.2375,100.4923 6.9125,98.8733 C6.5285,96.9603 7.6565,96.0303 9.4475,95.7443" id="Fill-336" fill="#1C2B39"></path>
                    <path d="M44.8073,66.0987 C45.0803,67.9267 44.1353,68.7827 42.4533,69.0607 C40.5903,69.3667 39.8043,68.3307 39.4803,66.7017 C39.0953,64.7747 40.3283,64.0337 41.8503,63.7207 C43.6763,63.3437 44.4883,64.4787 44.8073,66.0987" id="Fill-338" fill="#1C2B39"></path>
                    <path d="M74.247,95.6013 C75.953,95.2733 77.095,96.3963 77.338,97.9323 C77.673,100.0553 77.197,101.8793 74.34,102.1173 C72.334,102.2863 71.274,101.0883 71.028,99.7353 C70.65,97.6493 71.265,95.6583 74.247,95.6013" id="Fill-340" fill="#1C2B39"></path>
                    <path d="M397.2197,107.3248 C390.1707,102.7058 393.0087,101.2088 397.7837,99.9808 C400.5467,102.5828 400.3697,104.7008 397.2197,107.3248" id="Fill-342" fill="#1C2B39"></path>
                    <path d="M396.2428,41.1311 C395.7368,40.3641 394.7628,39.5611 394.8198,38.8391 C394.9758,36.8491 396.6018,36.5391 398.0288,37.2761 C398.6348,37.5891 399.1078,39.2541 398.8048,39.9271 C398.5098,40.5801 397.1428,40.7501 396.2428,41.1311" id="Fill-344" fill="#1C2B39"></path>
                    <path d="M332.5699,41.4522 C330.8119,41.7202 329.9939,40.6562 329.7179,39.0362 C329.4099,37.2282 330.3789,36.3532 332.0669,36.0782 C333.9299,35.7732 334.7189,36.8082 335.0389,38.4372 C335.4159,40.3542 334.1939,41.0172 332.5699,41.4522" id="Fill-346" fill="#1C2B39"></path>
                    <path d="M463.8977,103.3654 C464.1977,105.3424 463.0737,106.2184 461.3557,106.5154 C459.4417,106.8464 458.5057,105.8224 458.2097,104.0324 C457.8847,102.0604 458.9767,101.2184 460.7047,100.8714 C462.7417,100.4614 463.4307,101.7774 463.8977,103.3654" id="Fill-348" fill="#1C2B39"></path>
                    <path d="M268.1114,41.171 C266.3534,41.439 265.5354,40.375 265.2594,38.755 C264.9514,36.947 265.9204,36.072 267.6084,35.797 C269.4714,35.492 270.2604,36.527 270.5804,38.156 C270.9584,40.073 269.7354,40.736 268.1114,41.171" id="Fill-350" fill="#1C2B39"></path>
                    <path d="M206.1798,35.2941 C205.7508,36.8221 205.0348,37.9911 203.1448,37.6011 C201.5118,37.2631 200.5028,36.4381 200.8338,34.5861 C201.1338,32.9061 202.0248,31.9431 203.8298,32.2861 C205.4448,32.5931 206.5038,33.4261 206.1798,35.2941" id="Fill-352" fill="#1C2B39"></path>
                    <path d="M141.6868,33.5127 C141.0608,36.7197 139.8388,37.4107 138.2598,36.9857 C136.5708,36.5317 136.1948,34.9187 136.6218,33.5167 C136.8178,32.8717 138.1388,32.2127 138.9648,32.1927 C140.6238,32.1527 141.8188,32.9557 141.6868,33.5127" id="Fill-354" fill="#1C2B39"></path>
                    <path d="M72.4009,34.0867 C73.0729,33.4827 73.7179,32.4107 74.4219,32.3707 C76.4789,32.2557 76.9879,33.8477 76.4399,35.4027 C76.2289,36.0027 74.6199,36.5637 73.8449,36.3667 C73.2119,36.2067 72.8709,34.8927 72.4009,34.0867" id="Fill-356" fill="#1C2B39"></path>
                    <path d="M524.8784,106.1522 C524.3724,105.3852 523.3984,104.5822 523.4554,103.8602 C523.6114,101.8702 525.2374,101.5602 526.6644,102.2972 C527.2704,102.6102 527.7444,104.2752 527.4404,104.9472 C527.1444,105.6012 525.7784,105.7712 524.8784,106.1522" id="Fill-358" fill="#1C2B39"></path>
                    <path d="M300.5302,4.1951 C301.1342,4.8671 302.2072,5.5121 302.2472,6.2161 C302.3622,8.2731 300.7702,8.7821 299.2142,8.2341 C298.6152,8.0231 298.0532,6.4141 298.2492,5.6391 C298.4102,5.0061 299.7242,4.6651 300.5302,4.1951" id="Fill-360" fill="#1C2B39"></path>
                    <path d="M492.8863,133.0748 C494.8173,132.7668 495.6683,133.9208 495.9993,135.5408 C496.3463,137.2398 495.5523,138.7088 493.9473,138.9658 C491.7893,139.3088 489.7903,138.7318 490.0223,135.8148 C490.1593,134.0978 491.1163,133.1308 492.8863,133.0748" id="Fill-362" fill="#1C2B39"></path>
                    <path d="M560.0422,136.4216 C559.8852,138.0596 559.0922,139.2156 557.2292,138.7336 C556.4442,138.5306 555.4272,137.8026 555.2162,137.1026 C554.7452,135.5396 555.4712,134.2806 557.1862,133.9236 C559.1032,133.5236 559.8062,134.6936 560.0422,136.4216" id="Fill-364" fill="#1C2B39"></path>
                    <path d="M236.0716,3.9138 C236.6756,4.5858 237.7486,5.2308 237.7886,5.9348 C237.9036,7.9918 236.3116,8.5008 234.7556,7.9528 C234.1566,7.7418 233.5946,6.1328 233.7916,5.3578 C233.9516,4.7248 235.2656,4.3838 236.0716,3.9138" id="Fill-366" fill="#1C2B39"></path>
                    <path d="M173.5142,3.1144 C172.7472,3.6204 171.9442,4.5944 171.2222,4.5374 C169.2322,4.3814 168.9222,2.7554 169.6592,1.3284 C169.9722,0.7224 171.6372,0.2484 172.3092,0.5524 C172.9632,0.8484 173.1332,2.2144 173.5142,3.1144" id="Fill-368" fill="#1C2B39"></path>
                    <path d="M528.2869,168.2908 C528.6029,170.2478 527.4129,171.1328 525.7399,171.4768 C523.9859,171.8358 522.4629,171.0188 522.1979,169.3598 C521.8409,167.1328 522.4309,165.0608 525.4469,165.2988 C527.2209,165.4388 528.2229,166.4248 528.2869,168.2908" id="Fill-370" fill="#1C2B39"></path>
                    <path d="M589.5753,171.2454 C587.9383,171.0884 586.7823,170.2954 587.2643,168.4324 C587.4673,167.6474 588.1953,166.6304 588.8963,166.4194 C590.4573,165.9484 591.7173,166.6744 592.0743,168.3894 C592.4743,170.3064 591.3043,171.0094 589.5753,171.2454" id="Fill-372" fill="#1C2B39"></path>
                    <path d="M560.3757,200.6606 C560.6917,202.6176 559.5007,203.5026 557.8287,203.8466 C556.0747,204.2056 554.5517,203.3886 554.2857,201.7296 C553.9297,199.5026 554.5197,197.4316 557.5357,197.6686 C559.3097,197.8086 560.3117,198.7946 560.3757,200.6606" id="Fill-374" fill="#1C2B39"></path>
                    <path d="M624.4078,199.9947 C623.7828,203.1977 622.5608,203.8887 620.9808,203.4647 C619.2918,203.0107 618.9158,201.3977 619.3438,199.9957 C619.5408,199.3507 620.8608,198.6917 621.6868,198.6717 C623.3458,198.6307 624.5408,199.4337 624.4078,199.9947" id="Fill-376" fill="#1C2B39"></path>
                    <path d="M592.319,234.0129 C591.973,235.4009 591.172,236.4529 589.159,236.2699 C587.275,236.0989 586.363,235.2079 586.232,233.3879 C586.016,230.3759 588.037,229.7319 590.262,230.1469 C591.812,230.4349 592.779,231.8699 592.319,234.0129" id="Fill-378" fill="#1C2B39"></path>
                    <path d="M656.0789,234.6356 C655.7719,235.5596 654.6399,236.4066 653.0259,235.8896 C651.3429,235.3506 651.0749,233.7116 651.5209,232.3306 C651.7199,231.7136 653.0789,231.1316 653.9129,231.130592 C655.5999,231.1276 656.6969,232.0186 656.0789,234.6356" id="Fill-380" fill="#1C2B39"></path>
                    <path d="M622.0778,268.6475 C620.3348,268.9195 618.8308,268.0945 618.5628,266.5935 C618.1988,264.5475 618.5678,262.4335 621.6158,262.6145 C623.4468,262.7235 624.2078,263.6455 624.4768,265.3855 C624.7848,267.3875 623.4788,268.0135 622.0778,268.6475" id="Fill-382" fill="#1C2B39"></path>
                    <path d="M686.1564,263.6838 C686.7454,264.3278 687.7984,264.9428 687.8704,265.6568 C688.0774,267.7128 686.5424,268.3418 684.9224,267.8558 C684.3254,267.6788 683.7174,266.0978 683.8744,265.3068 C683.9994,264.6738 685.2734,264.2688 686.1564,263.6838" id="Fill-384" fill="#1C2B39"></path>
                    <path d="M717.613,360.1184 C718.652,360.0134 719.937,360.6164 720.04,362.3644 C720.089,363.1914 719.598,364.5304 718.974,364.8184 C717.612,365.4454 715.853,365.2734 715.277,363.6684 C714.78,362.2844 715.274,360.7794 717.613,360.1184" id="Fill-386" fill="#1C2B39"></path>
                    <path d="M656.4495,362.3904 C656.7775,364.0974 655.6555,365.2394 654.1185,365.4814 C651.9955,365.8164 650.1715,365.3414 649.9335,362.4844 C649.7645,360.4784 650.9625,359.4184 652.3155,359.1724 C654.4015,358.7934 656.3925,359.4084 656.4495,362.3904" id="Fill-388" fill="#1C2B39"></path>
                    <path d="M656.4181,298.3341 C655.9641,299.9521 655.2131,301.1991 653.2051,300.7881 C651.4721,300.4331 650.3961,299.5671 650.7451,297.5991 C651.0601,295.8161 651.9991,294.7911 653.9171,295.1511 C655.6301,295.4731 656.7581,296.3501 656.4181,298.3341" id="Fill-390" fill="#1C2B39"></path>
                    <path d="M685.826,333.0625 C684.068,333.3305 683.25,332.2665 682.974,330.6465 C682.666,328.8385 683.635,327.9635 685.323,327.6875 C687.186,327.3835 687.975,328.4185 688.295,330.0465 C688.672,331.9645 687.45,332.6275 685.826,333.0625" id="Fill-392" fill="#1C2B39"></path>
                </g>
            </g>
        </g>
    </g>
</svg>