<svg width="721" height="375" xmlns="http://www.w3.org/2000/svg" xmlns:xlink="http://www.w3.org/1999/xlink"><defs><path id="a" d="M.19.422h32.924V2H.19z"/><path id="c" d="M.395.588h32.164V30H.395z"/><path id="e" d="M.961.346h32.15V30H.961z"/><path id="g" d="M.549.376h31.314V1H.549z"/><path id="i" d="M.586.659h30.803V29H.586z"/><path id="k" d="M.366.232h26.083V26H.366z"/><path id="m" d="M0 .961h19.122v19.768H0z"/><path id="o" d="M0 .364h18.466v19.08H0z"/></defs><g fill="none" fill-rule="evenodd"><g transform="translate(153 372)"><mask id="b" fill="#fff"><use xlink:href="#a"/></mask><path d="M32.291 10.227c1.142 5.432 1.051 9.669 0 13.888-1.963 3.979-4.94 6.932-8.94 8.857-9.107 1.96-17.107.973-22.09-8.526C-.318 19.983.091 15.235.945 10.61c11.633-13.45 19.108-13.587 31.346-.383" fill="#1C2B39" mask="url(#b)"/></g><g transform="translate(250 344)"><mask id="d" fill="#fff"><use xlink:href="#c"/></mask><path d="M15.93 32.776C7.066 32.455-.134 24.546.426 15.748.991 6.878 9.084-.133 17.854.648c8.292.739 14.785 7.903 14.704 16.22-.088 8.98-7.671 16.233-16.628 15.908" fill="#1C2B39" mask="url(#d)"/></g><g transform="translate(185 344)"><mask id="f" fill="#fff"><use xlink:href="#e"/></mask><path d="M17.127 32.5C8.139 32.563.786 25.11.965 16.122 1.143 7.158 8.81-.044 17.74.362c8.208.376 15.096 7.358 15.362 15.57.289 8.942-7.006 16.505-15.976 16.568" fill="#1C2B39" mask="url(#f)"/></g><g transform="translate(89 373)"><mask id="h" fill="#fff"><use xlink:href="#g"/></mask><path d="M31.863 16.082c-.032 7.39-7.88 15.373-15.317 15.579C8.533 31.883.018 23.08.576 15.15 1.098 7.682 9.345.12 16.681.384c7.441.266 15.213 8.304 15.181 15.699" fill="#1C2B39" mask="url(#h)"/></g><path d="M152.995 357.055c-2.08 9.15-7.094 13.938-15.476 15.17-8.197-1.256-13.276-5.96-15.194-14.635.688-8.587 5.45-14.13 15.245-15.887 9.256.848 14.101 6.848 15.425 15.352M219.052 328.66c2.017-9.48 7.012-14.34 15.461-15.495 8.283 1.437 13.649 5.908 14.958 15.842-.978 7.796-5.985 13.172-15.229 14.49-10.38-4.362-10.38-4.362-15.19-14.836" fill="#1C2B39"/><g transform="translate(315 345)"><mask id="j" fill="#fff"><use xlink:href="#i"/></mask><path d="M31.389 16.34c-2.172 9.235-7.35 13.87-15.534 15.029C7.395 29.997 2.42 25.133.585 16.572 1.48 7.856 6.298 2.312 16.002.659c8.463 1.082 13.823 6.089 15.388 15.68" fill="#1C2B39" mask="url(#j)"/></g><path d="M287.25 319.835c6.689-6.757 13.673-5.21 20.124-3.231 6.652 7.135 5.999 14.03 3.027 20.978-6.66 6.205-13.555 5.553-20.511 2.575-6.173-6.654-5.587-13.543-2.64-20.322M179.96 314.155c4.653 12.659 4.113 18.523-1.678 22.254-4.806 3.095-14.053 2.512-18.066-1.14-5.118-4.658-4.892-11.236.841-21.757 5.984-3.156 12.044-3.14 18.903.643M363.5 341.853c-7.274.106-13.258-5.896-13.13-13.17.115-6.615 5.394-12.233 11.964-12.734 7.296-.555 13.61 5.05 13.936 12.371.326 7.314-5.44 13.425-12.77 13.534M86.12 356.019c.353 7.265-5.1 13.275-12.363 13.623-7.253.347-13.28-5.123-13.627-12.37-.347-7.253 5.123-13.28 12.37-13.626 7.255-.348 13.266 5.113 13.62 12.373M104.81 337.46c-7.225-.393-12.833-6.819-12.214-13.994.612-7.093 7.343-12.605 14.39-11.783 6.446.752 11.573 6.661 11.419 13.163-.171 7.24-6.384 13.004-13.595 12.613" fill="#1C2B39"/><g transform="translate(382 348)"><mask id="l" fill="#fff"><use xlink:href="#k"/></mask><path d="M26.443 13.646c-.207 7.288-6.119 12.87-13.41 12.662C5.742 26.102.162 20.19.37 12.896.58 5.606 6.477.04 13.783.237c7.28.2 12.867 6.117 12.66 13.41" fill="#1C2B39" mask="url(#l)"/></g><path d="M318.533 296.9c-.228-6.92 6.207-13.322 13.126-13.061 6.296.238 12.062 6.03 12.269 12.328.228 6.921-6.195 13.307-13.128 13.053-6.302-.231-12.06-6.015-12.267-12.32M266.82 309.29c-7.275.018-13.066-5.73-13.087-12.99-.02-7.27 5.732-13.065 12.991-13.086 7.271-.02 13.065 5.733 13.085 12.992.02 7.27-5.735 13.067-12.99 13.084M137.554 279.832c6.882-.198 13.232 6.233 12.946 13.11-.262 6.261-6.061 11.986-12.314 12.156-6.895.19-13.237-6.23-12.949-13.109.264-6.26 6.055-11.977 12.317-12.157M215.347 296.742c-.423 7.328-6.456 12.687-13.805 12.263-7.329-.424-12.688-6.456-12.264-13.805.424-7.33 6.452-12.685 13.804-12.264 7.332.419 12.69 6.45 12.265 13.806M299.058 276.29c-7.202-1.702-10.907-5.728-11.96-12.006 1.205-6.661 4.823-10.77 12.037-12.127 6.627.799 10.781 4.919 12.022 12.079-1.058 6.582-4.925 10.45-12.1 12.055M234.925 276.261c-7.278-1.466-11.114-5.378-12.522-12.078.806-7.02 5.033-11.094 11.882-12.622 7.518 1.052 11.337 5.518 12.747 11.914-1.165 7.127-5.048 11-12.107 12.786M29.283 324.203c1.2-6.705 5.075-10.522 11.654-11.67 6.405 1.069 10.61 4.547 11.791 11.728-.594 6.131-4.43 10.025-11.174 11.79-6.906-.72-11.12-4.738-12.27-11.848M158.282 259.792c1.59-6.142 5.04-9.822 11.373-11.319 6.722.417 10.923 4.43 12.501 11.465-3.674 8.007-3.674 8.007-10.864 12.397-7.909-.694-12.176-5.143-13.01-12.543M427.824 341.094c-7.086-1.56-10.824-5.432-11.865-11.93.966-6.369 4.722-10.234 11.341-11.806 6.94.603 10.818 4.89 12.35 11.497-1.033 6.704-4.745 10.603-11.826 12.24M501.733 329.416c.032 5.657-4.602 9.975-10.24 9.543-4.97-.38-8.723-4.429-8.754-9.443-.035-5.674 4.578-9.972 10.24-9.543 4.966.376 8.726 4.432 8.754 9.443M261.523 222.376c2.64-.25 4.737-.765 6.755-.55 1.997.215 3.915 1.169 5.13 1.56 4.391 4.593 4.936 9.27 2.39 13.707-3.684 6.418-9.435 5.257-14.882 3.472-5.348-6.064-5.325-11.602.607-18.19M341.275 231.855c.123 6.08-3.869 10.087-9.946 9.982-5.42-.093-9.103-3.451-9.585-8.74-.543-5.96 3.265-10.442 9.152-10.776 6.056-.343 10.258 3.517 10.38 9.534" fill="#1C2B39"/><g transform="translate(0 346)"><mask id="n" fill="#fff"><use xlink:href="#m"/></mask><path d="M14.438 20.043c-2.686.29-4.796.832-6.84.65-2.033-.185-4-1.098-5.524-1.55C-2.912 13.553-2.9 8.29.784 2.92 8.238.444 8.238.444 15.945 2.198c4.434 5.673 4.486 11.304-1.508 17.845" fill="#1C2B39" mask="url(#n)"/></g><path d="M467.688 369.262c-5.36 3.606-9.872 3.202-14.357 1.055-4.927-5.03-5.083-10.311-1.654-15.864 7.236-2.823 7.236-2.823 14.919-1.463 4.724 4.836 4.911 10.113 1.092 16.272M194.493 224.588c5.623-4.131 10.416-4.13 15.42-.595 3.695 4.623 4.11 9.68.393 14.305-4.042 5.029-9.278 3.496-13.61 2.028-5.126-5.05-5.069-9.916-2.203-15.738M469.675 296.714c.202 5.061-3.375 9.305-8.351 9.909-5.566.676-10.48-3.524-10.704-9.148-.23-5.739 4.194-10.141 9.946-9.896 5.099.217 8.906 4.034 9.109 9.135M387.98 304.637c-3.605-5.36-3.202-9.872-1.051-14.36 5.028-4.925 10.308-5.081 15.85-1.658 4.359 4.68 4.116 9.627 1.51 14.89-4.872 4.759-10.15 4.947-16.308 1.128M66.185 300.433c-4.07-5.695-4.07-10.54-.858-15.331 4.658-4.52 9.614-3.697 14.301-1.837 5.48 5.28 4.82 10.59 2.434 15.53-5.249 4.756-10.155 4.545-15.877 1.638" fill="#1C2B39"/><g transform="translate(0 282)"><mask id="p" fill="#fff"><use xlink:href="#o"/></mask><path d="M8.308.387c5.697-.371 10.25 3.962 10.157 9.668-.082 5.056-3.854 9.04-8.869 9.367C3.892 19.792-.649 15.468-.56 9.75-.482 4.698 3.292.713 8.308.386" fill="#1C2B39" mask="url(#p)"/></g><path d="M147.854 228.39c-.22 5.846-4.616 9.755-10.485 9.32-5.744-.424-9.558-5.076-8.92-10.881.57-5.172 4.374-8.52 9.687-8.525 5.96-.004 9.942 4.128 9.718 10.087M50.768 260.23c-.244 5.483-5.256 9.737-10.646 9.037-4.827-.627-8.481-4.992-8.255-9.864.252-5.474 5.279-9.74 10.655-9.04 4.829.628 8.463 4.977 8.246 9.867M97.27 253.429c6.145-4.39 10.938-4.386 15.94-.748 3.572 4.634 4.06 9.737.194 14.263-4.05 4.739-9.248 3.994-13.955 1.478-5.033-4.644-4.15-9.602-2.179-14.993M244.43 199.286c.087 5.592-4.543 9.987-10.116 9.601-4.916-.339-8.738-4.38-8.817-9.323-.09-5.594 4.536-9.988 10.113-9.605 4.887.337 8.743 4.414 8.82 9.327M428.196 274.192c-5.593.087-9.987-4.542-9.602-10.116.34-4.916 4.382-8.74 9.323-8.818 5.595-.09 9.988 4.537 9.605 10.113-.335 4.888-4.413 8.744-9.326 8.82M356.654 272.611c-4.351-5.669-3.796-10.5-1.227-15.055 5.256-4.2 10.357-4.614 15.006-.876 5.05 4.063 3.543 9.34 2.014 13.737-5.06 5.117-9.958 5.071-15.793 2.194M308.906 200.005c-1.91 5.25-5.025 7.818-8.446 8.925-6.081-.433-8.162-4.189-10.243-7.592.07-6.116 3.555-8.996 8.455-10.885 6.355.59 8.909 4.773 10.234 9.552M372.621 199.929c-.97 4.75-3.885 7.479-8.348 8.748-4.832-.588-7.476-3.632-9.098-8.032.252-4.838 3.45-7.41 7.7-9.361 5.426.33 8.401 3.556 9.746 8.645M170.987 205.362c-5.54-1.505-8.328-4.385-9.636-8.865.335-5.659 4.32-7.96 8.027-9.851 5.787.599 8.29 3.856 10.22 7.872.246 5.768-3.42 8.511-8.61 10.844M106.262 204.323c-5.006-.806-7.401-4.058-8.923-7.887.635-5.23 3.679-7.866 8.063-9.487 4.844.235 7.369 3.48 9.35 7.621-.337 5.478-3.56 8.445-8.49 9.753M82.868 228.58c-1.74 4.574-4.766 7.179-8.264 8.288-5.819-.544-7.997-4.121-10.019-7.662.106-5.89 3.558-8.732 8.55-10.69 5.753.978 9.131 4.293 9.733 10.064M514.881 361.356c1.801-4.596 4.359-7.148 8.155-8.632 5.684-.24 8.428 3.435 10.494 8.092-.274 5.62-3.659 8.537-8.647 10.257-5.421-.667-8.439-3.89-10.002-9.717M396.823 223.118c4.652 1.714 7.233 4.796 8.415 8.502-.758 5.548-4.009 8.043-8.096 9.895-5.626-.08-8.489-3.552-10.444-8.582.957-5.838 4.307-9.225 10.125-9.815M3.208 231.577c-1.064-3.237-1.49-6.302.869-9.17 3.3-2.48 6.685-2.513 10.157-.15 2.517 3.335 2.549 6.718.036 10.404-3.867 2.56-7.63 2.443-11.062-1.084M550.888 325.36c3.786-3.032 6.79-2.621 9.855-1.513 3.354 2.807 3.162 6.27 1.89 9.902-2.852 3.412-6.318 3.198-9.94 1.944-3.402-2.86-3.223-6.326-1.805-10.333M454.464 228.132c4.31-3.297 7.63-2.624 10.473-1.39 3.103 3.828 3.044 7.168.978 10.728-2.997 2.834-6.393 2.579-9.958.986-3.12-2.91-2.9-6.358-1.493-10.324M530.57 301.882c-4.31 3.297-7.631 2.624-10.474 1.39-3.102-3.828-3.043-7.168-.977-10.727 2.997-2.835 6.393-2.58 9.958-.986 3.118 2.908 2.899 6.358 1.493 10.323M422.895 195.461c3.746-2.48 6.703-2.32 9.79-.845 3.029 2.9 2.965 6.297 1.339 9.958-2.93 3.124-6.35 2.893-9.863 1.511-3.171-3.073-3.183-6.45-1.266-10.624M239.5 129.482c2.82 3.762 2.69 6.66 1.048 9.73-2.95 2.905-6.234 2.941-9.634.922-3.226-3.23-2.305-6.53-1.165-9.279 3.357-3.012 6.315-2.68 9.752-1.373M46.027 189.665c2.859 3.902 2.659 6.908 1.105 10.033-3.066 3.25-6.536 2.594-9.835 1.353-3.143-3.695-3.026-7.079-.793-10.489 2.88-2.556 5.955-2.118 9.523-.897M583.3 357.861c3.762-2.82 6.66-2.69 9.687-1.07 3.128 2.955 2.65 6.29 1.261 9.498-3.54 3.071-6.805 2.997-10.096.744-2.491-2.777-2.16-5.735-.852-9.172M486.455 269.299c-1.158-3.266-1.355-6.254.393-8.998 3.258-3.007 6.655-2.724 10.213-1.075 3.077 2.954 2.86 6.402 1.422 10.225-4.036 3.506-8.097 3.55-12.028-.152M144.438 159.43c1.059 3.228 1.485 6.284-.868 9.143-3.291 2.47-6.664 2.504-10.125.148-2.508-3.325-2.54-6.697-.036-10.374 3.856-2.548 7.607-2.432 11.029 1.084M207.424 157.733c3.402 4.415 2.727 7.786 1.522 10.5-3.933 3.7-7.373 2.746-10.45 1.67-3.489-3.53-2.98-7.005-1.74-10.36 3.173-3.434 6.678-3.192 10.668-1.81M262.255 173.16c-2.731-4.337-2.765-7.755-.226-11.136 3.4-2.589 6.822-2.442 10.37-.236 2.885 3.212 2.62 6.674.76 10.308-3.065 3.044-6.548 2.987-10.904 1.064M401.675 163.465c1.381 3.667 1.672 6.625-.724 9.264-2.786 2.24-5.708 2.05-8.774.625-3.127-2.896-2.903-6.229-1.409-9.56 3.36-3.097 6.628-3.12 10.907-.329M325.88 163.185c3.859-3.072 6.909-2.67 10.025-1.565 3.389 2.854 3.249 6.363 1.866 10.132-2.842 3.374-6.353 3.219-10.096 1.853-3.406-2.85-3.213-6.374-1.794-10.42M458.83 174.629l-3.664-3.822c-.377-5.216 1.745-7.212 5.054-8.307 3.312-.206 4.621 2.245 6.138 4.438.248 4.805-2.867 6.266-7.529 7.69M80.442 163.69c-1.06 3.388-2.744 5.213-5.597 5.813-3.72.275-5.867-1.7-7.124-4.998-.174-4.32 1.712-6.956 6.118-7.517 3.757.229 5.761 2.267 6.603 6.702M15.848 162.599c-1.884 3.7-3.26 5.937-6.323 6.056-3.181-.266-4.491-2.53-5.664-4.658-.255-3.47 1.864-5.047 4.11-6.471 4.157-.988 5.616 1.987 7.877 5.073M556.357 259.039c4.064 1.06 5.846 2.815 6.548 5.736.151 3.937-2.704 5.26-4.587 6.408-4.388.102-5.817-2.172-7.16-4.455-.653-4.006 1.753-5.911 5.2-7.69M430.599 130.404l3.256 2.899c.39 4.777-1.76 6.29-3.966 7.748-4.057.617-5.242-2.38-6.821-4.37.878-4.37 3.006-6.191 7.531-6.277M370.411 136.22c-1.54 2.868-2.989 4.944-6.377 5.27-3.164-.202-5.074-2.263-5.859-5.697.228-3.565 2.296-5.47 5.723-6.255 3.581.213 5.465 2.315 6.513 6.683M299.88 141.528c-4.094-.203-5.604-2.736-6.468-5.025.09-4.7 2.157-6.685 5.454-7.48 3.936-.253 5.858 1.98 7.094 4.816.105 4.72-1.903 7.252-6.08 7.689M170.382 137.908c-3.37-1.066-5.188-2.743-5.793-5.579-.275-3.707 1.708-5.834 4.982-7.098 4.3-.169 6.919 1.72 7.488 6.096-.233 3.74-2.27 5.732-6.677 6.581M107.028 124.933c2.884 1.53 4.99 2.954 5.28 6.319-.205 3.22-2.267 5.13-5.7 5.915-3.566-.227-5.47-2.296-6.255-5.723.213-3.581 2.315-5.465 6.675-6.511M35.799 129.837a6223.23 6223.23 0 0 1 3.552-4.132c4.835-.436 6.323 1.745 7.761 3.904.533 3.181-1.464 4.818-3.604 6.34-4.059 1.008-5.661-1.574-7.709-6.112M518.774 233.747c.55-4.149 2.588-5.612 4.89-6.765 3.767-.36 5.768 1.766 7.153 4.795.37 3.7-1.77 5.688-4.796 7.074-3.712.38-5.68-1.805-7.247-5.104M589.861 303.78c-4.06-1.291-5.94-2.931-6.49-5.916-.059-3.173 2.353-4.464 4.633-5.896 3.753-.056 5.824 1.954 6.727 5.303.092 3.377-2.5 4.54-4.87 6.509M337.972 102.62c-1.237 3.684-2.825 5.52-5.7 6.078-3.082.036-4.308-2.345-5.736-4.52-.04-3.643 1.96-5.62 5.204-6.546 3.243-.062 4.437 2.376 6.232 4.988M273.325 102.73c-.22 3.227-2.396 4.645-4.939 5.856-3.654-.14-5.747-2.094-6.452-5.523.166-3.305 2.395-4.673 4.908-5.896 3.682.12 5.741 2.123 6.483 5.562M615.534 331.01c.301-3.969 2.442-5.325 4.873-6.54 3.543.154 5.55 2.09 6.274 5.382-.186 3.195-2.377 4.506-4.72 5.702-3.894.2-5.103-2.664-6.427-4.543M203.024 93.662c3.228.222 4.646 2.397 5.857 4.939-.14 3.654-2.095 5.747-5.523 6.452-3.304-.166-4.673-2.395-5.896-4.908.12-3.682 2.123-5.741 5.562-6.483M144.255 98.35c-.725 3.737-2.519 5.369-5.282 6.099-3.14-.043-4.429-2.29-5.595-4.636-.262-3.261 2.24-4.492 4.033-6.05 4.186-.303 5.485 2.495 6.844 4.587M486.61 200.961c1.002-3.855 2.825-5.568 5.631-6.37 3.723.17 5.798 2.174 6.476 5.617.078 3.385-2.196 4.814-4.494 6.167-3.949.58-5.98-1.638-7.613-5.414M428.478 74.023c-1.485-.374-2.654-1.09-2.263-2.98.337-1.634 1.163-2.642 3.014-2.311 1.68.3 2.664 1.197 2.293 2.995-.32 1.56-1.034 2.8-3.044 2.296M495.495 71.896c-.672.603-1.317 1.676-2.02 1.716-2.058.116-2.567-1.477-2.02-3.032.212-.6 1.82-1.161 2.596-.964.634.16.974 1.474 1.444 2.28M367.512 71.278c-.188 1.79-1.117 2.729-2.877 2.818-2.978.153-3.414-1.903-3.03-4.01.293-1.595 1.849-2.347 3.502-1.941 1.557.382 2.764 1.263 2.405 3.133M299.332 67.448c2.855.711 3.907 1.512 3.724 3.526-.171 1.883-1.061 2.796-2.882 2.926-3.012.217-3.672-1.81-3.233-4.027.292-1.467 1.597-2.724 2.39-2.425M235.52 67.298c1.706-.328 2.848.794 3.09 2.331.336 2.123-.14 3.946-2.997 4.185-2.006.17-3.066-1.029-3.312-2.383-.38-2.085.237-4.076 3.219-4.133M174.422 66.348c-.712 2.855-1.512 3.907-3.526 3.725-1.883-.17-2.796-1.062-2.927-2.882-.216-3.012 1.811-3.673 4.028-3.233 1.466.291 2.723 1.596 2.424 2.39M109.664 66.104c.272 1.705-.544 3.193-2.029 3.456-2.024.36-4.114-.008-3.934-3.02.108-1.81 1.02-2.566 2.742-2.828 1.975-.299 2.609.973 3.221 2.392M9.447 95.744c1.916-.309 2.83.688 3.129 2.471.329 1.972-.767 2.814-2.495 3.162-2.037.41-2.843-.885-3.168-2.504-.385-1.913.744-2.843 2.534-3.129M44.807 66.099c.273 1.828-.672 2.684-2.354 2.962-1.863.306-2.649-.73-2.973-2.36-.385-1.926.848-2.667 2.37-2.98 1.826-.377 2.638.758 2.957 2.378M74.247 95.601c1.706-.328 2.848.795 3.091 2.331.335 2.123-.141 3.947-2.998 4.185-2.006.17-3.066-1.029-3.312-2.382-.378-2.086.237-4.077 3.219-4.134M397.22 107.325c-7.05-4.62-4.211-6.116.564-7.344 2.763 2.602 2.586 4.72-.564 7.344M396.243 41.131c-.506-.767-1.48-1.57-1.423-2.292.156-1.99 1.782-2.3 3.209-1.563.606.313 1.079 1.978.776 2.651-.295.653-1.662.823-2.562 1.204M332.57 41.452c-1.758.268-2.576-.796-2.852-2.416-.308-1.808.66-2.683 2.349-2.958 1.863-.305 2.652.73 2.972 2.36.377 1.916-.845 2.58-2.47 3.014M463.898 103.365c.3 1.977-.824 2.853-2.542 3.15-1.914.331-2.85-.693-3.146-2.483-.325-1.972.767-2.814 2.495-3.16 2.037-.41 2.726.905 3.193 2.493M268.111 41.171c-1.758.268-2.576-.796-2.852-2.416-.308-1.808.661-2.683 2.35-2.958 1.862-.305 2.651.73 2.971 2.359.378 1.917-.845 2.58-2.469 3.015M206.18 35.294c-.43 1.528-1.145 2.697-3.035 2.307-1.633-.338-2.642-1.163-2.311-3.015.3-1.68 1.19-2.643 2.996-2.3 1.615.307 2.674 1.14 2.35 3.008M141.687 33.513c-.626 3.207-1.848 3.898-3.427 3.473-1.69-.454-2.065-2.067-1.638-3.47.196-.644 1.517-1.303 2.343-1.323 1.659-.04 2.854.763 2.722 1.32M72.4 34.087c.673-.604 1.318-1.676 2.022-1.716 2.057-.115 2.566 1.477 2.018 3.032-.211.6-1.82 1.16-2.595.964-.633-.16-.974-1.474-1.444-2.28M524.878 106.152c-.506-.767-1.48-1.57-1.423-2.292.156-1.99 1.782-2.3 3.21-1.563.605.313 1.08 1.978.775 2.65-.296.654-1.662.824-2.562 1.205M300.53 4.195c.604.672 1.677 1.317 1.717 2.021.115 2.057-1.477 2.566-3.033 2.018-.599-.21-1.16-1.82-.965-2.595.161-.633 1.475-.974 2.281-1.444M492.886 133.075c1.931-.308 2.782.846 3.113 2.466.347 1.699-.447 3.168-2.052 3.425-2.158.343-4.157-.234-3.925-3.151.137-1.717 1.094-2.684 2.864-2.74M560.042 136.422c-.157 1.638-.95 2.794-2.813 2.312-.785-.203-1.802-.931-2.013-1.631-.47-1.563.255-2.822 1.97-3.18 1.917-.4 2.62.77 2.856 2.499M236.072 3.914c.604.672 1.677 1.317 1.717 2.02.115 2.058-1.477 2.567-3.033 2.019-.6-.211-1.161-1.82-.964-2.595.16-.633 1.474-.974 2.28-1.444M173.514 3.114c-.767.506-1.57 1.48-2.292 1.423-1.99-.156-2.3-1.782-1.563-3.209.313-.606 1.978-1.08 2.65-.776.654.296.824 1.662 1.205 2.562M528.287 168.29c.316 1.958-.874 2.843-2.547 3.187-1.754.359-3.277-.458-3.542-2.117-.357-2.227.233-4.3 3.249-4.061 1.774.14 2.776 1.126 2.84 2.992M589.575 171.245c-1.637-.157-2.793-.95-2.31-2.813.202-.785.93-1.802 1.631-2.013 1.561-.47 2.821.255 3.178 1.97.4 1.917-.77 2.62-2.499 2.856M560.376 200.66c.316 1.958-.875 2.843-2.547 3.187-1.754.359-3.277-.458-3.543-2.117-.356-2.227.234-4.298 3.25-4.061 1.774.14 2.776 1.126 2.84 2.992M624.408 199.995c-.625 3.203-1.847 3.894-3.427 3.47-1.69-.454-2.065-2.067-1.637-3.47.197-.644 1.517-1.303 2.343-1.323 1.659-.041 2.854.762 2.72 1.323M592.319 234.013c-.346 1.388-1.147 2.44-3.16 2.257-1.884-.171-2.796-1.062-2.927-2.882-.216-3.012 1.805-3.656 4.03-3.241 1.55.288 2.517 1.723 2.057 3.866M656.079 234.636c-.307.924-1.44 1.77-3.053 1.254-1.683-.54-1.951-2.178-1.505-3.56.199-.616 1.558-1.198 2.392-1.2 1.687-.002 2.784.889 2.166 3.506M622.078 268.647c-1.743.273-3.247-.553-3.515-2.053-.364-2.046.005-4.16 3.053-3.98 1.83.11 2.592 1.032 2.86 2.772.309 2.001-.997 2.627-2.398 3.261M686.156 263.684c.59.644 1.642 1.259 1.714 1.973.207 2.056-1.328 2.685-2.948 2.199-.597-.177-1.205-1.758-1.048-2.55.125-.632 1.4-1.037 2.282-1.622M717.613 360.118c1.039-.105 2.324.498 2.427 2.246.049.827-.442 2.166-1.066 2.454-1.362.627-3.121.455-3.697-1.15-.497-1.384-.003-2.889 2.336-3.55M656.45 362.39c.327 1.707-.795 2.85-2.332 3.091-2.123.335-3.947-.14-4.185-2.997-.168-2.006 1.03-3.066 2.383-3.312 2.086-.379 4.077.236 4.133 3.218M656.418 298.334c-.454 1.618-1.205 2.865-3.213 2.454-1.733-.355-2.809-1.22-2.46-3.189.315-1.783 1.254-2.808 3.172-2.448 1.713.322 2.841 1.2 2.501 3.183M685.826 333.063c-1.758.267-2.576-.796-2.852-2.416-.308-1.808.661-2.683 2.349-2.96 1.863-.303 2.652.731 2.972 2.36.377 1.917-.845 2.58-2.469 3.015" fill="#1C2B39"/></g></svg>